<svg xmlns="http://www.w3.org/2000/svg" width="24" height="24" viewBox="0 0 38 38">
    <path fill="#65676A" fill-rule="evenodd" d="M32.435 5.565c7.42 7.42 7.42 19.45 0 26.87-7.42 7.42-19.45 7.42-26.87 0-7.42-7.42-7.42-19.45 0-26.87 7.42-7.42 19.45-7.42 26.87 0zM8.393 8.393c-5.62 5.62-5.848 14.59-.684 20.483l3.513-3.512 1.414 1.414-3.512 3.512c5.892 5.165 14.862 4.937 20.483-.683 5.62-5.62 5.848-14.591.683-20.483l-3.512 3.512-1.414-1.414 3.512-3.513c-5.892-5.164-14.863-4.936-20.483.684zm10.031 5.967c.632 0 1.152.134 1.56.402.408.268.73.614.966 1.038.236.424.4.896.492 1.416.092.52.138 1.032.138 1.536s-.046 1.016-.138 1.536c-.092.52-.256.992-.492 1.416-.236.424-.558.77-.966 1.038-.408.268-.928.402-1.56.402s-1.152-.134-1.56-.402c-.408-.268-.73-.614-.966-1.038-.236-.424-.4-.896-.492-1.416-.092-.52-.138-1.032-.138-1.536s.046-1.016.138-1.536c.092-.52.256-.992.492-1.416.236-.424.558-.77.966-1.038.408-.268.928-.402 1.56-.402zm7.104 0c.632 0 1.152.134 1.56.402.408.268.73.614.966 1.038.236.424.4.896.492 1.416.092.52.138 1.032.138 1.536s-.046 1.016-.138 1.536c-.092.52-.256.992-.492 1.416-.236.424-.558.77-.966 1.038-.408.268-.928.402-1.56.402s-1.152-.134-1.56-.402c-.408-.268-.73-.614-.966-1.038-.236-.424-.4-.896-.492-1.416-.092-.52-.138-1.032-.138-1.536s.046-1.016.138-1.536c.092-.52.256-.992.492-1.416.236-.424.558-.77.966-1.038.408-.268.928-.402 1.56-.402zm-12.576.144V23h-1.728v-6.48l-1.704 1.5-1.02-1.176 2.772-2.34h1.68zm5.472 1.512c-.328 0-.582.1-.762.3-.18.2-.314.444-.402.732-.088.288-.142.588-.162.9-.02.312-.03.58-.03.804 0 .224.01.492.03.804.02.312.074.612.162.9.088.288.222.532.402.732.18.2.434.3.762.3.32 0 .572-.1.756-.3.184-.2.32-.444.408-.732.088-.288.142-.588.162-.9.02-.312.03-.58.03-.804 0-.224-.01-.492-.03-.804-.02-.312-.074-.612-.162-.9-.088-.288-.224-.532-.408-.732-.184-.2-.436-.3-.756-.3zm7.104 0c-.328 0-.582.1-.762.3-.18.2-.314.444-.402.732-.088.288-.142.588-.162.9-.02.312-.03.58-.03.804 0 .224.01.492.03.804.02.312.074.612.162.9.088.288.222.532.402.732.18.2.434.3.762.3.32 0 .572-.1.756-.3.184-.2.32-.444.408-.732.088-.288.142-.588.162-.9.02-.312.03-.58.03-.804 0-.224-.01-.492-.03-.804-.02-.312-.074-.612-.162-.9-.088-.288-.224-.532-.408-.732-.184-.2-.436-.3-.756-.3z"/>
</svg>
