<svg xmlns="http://www.w3.org/2000/svg" width="24" height="24" viewBox="0 0 24 24">
    <path fill="#65676A" fill-rule="evenodd" d="M7.93 3A6 6 0 0 1 12 4.592 6.004 6.004 0 0 1 16.07 3h4.43A1.5 1.5 0 0 1 22 4.5v14a1.5 1.5 0 0 1-1.5 1.5h-4.43c-1.06 0-2.078.422-2.828 1.17l-.535.537a1 1 0 0 1-1.415 0l-.536-.536a4 4 0 0 0-2.828-1.17H3.5A1.5 1.5 0 0 1 2 18.5v-14A1.5 1.5 0 0 1 3.5 3h4.43zm0 2H4v13h3.93a6 6 0 0 1 3.072.846L11 6.416l-.243-.245a4 4 0 0 0-2.828-1.17zM20 5h-3.929c-1.06 0-2.078.422-2.828 1.17L13 6.413v12.434A6.003 6.003 0 0 1 16.07 18h3.93V5z"/>
</svg>
