<svg xmlns="http://www.w3.org/2000/svg" width="24" height="24" viewBox="0 0 24 24">
    <path fill="#65676A" fill-rule="evenodd" d="M19.821 5.974c1.206 0 2.183.977 2.183 2.183v9.634a2.183 2.183 0 0 1-2.183 2.183H4.187a2.183 2.183 0 0 1-2.183-2.183V8.157c0-1.206.977-2.183 2.183-2.183zm-3.977 4.485c-1.01 0-1.432.73-1.432 2.515 0 1.787.422 2.516 1.432 2.516s1.432-.729 1.432-2.516c0-1.786-.422-2.515-1.432-2.515zm-7.68 0c-1.01 0-1.432.73-1.432 2.515 0 1.787.422 2.516 1.432 2.516s1.432-.729 1.432-2.516c0-1.786-.422-2.515-1.432-2.515zm3.84-8.457a2.975 2.975 0 0 1 2.976 2.976H9.028a2.976 2.976 0 0 1 2.976-2.976z"/>
</svg>
