<svg xmlns="http://www.w3.org/2000/svg" width="24" height="24" viewBox="0 0 24 24">
    <path fill="#65676A" fill-rule="evenodd" d="M21.66 9.348l-.001-.007a9.764 9.764 0 0 0-.045-.162l-.007-.024-.045-.15-.01-.034a9.98 9.98 0 0 0-.105-.32l-.015-.041a9.983 9.983 0 0 0-.049-.137l-.015-.04a9.617 9.617 0 0 0-.052-.136l-.014-.035a9.917 9.917 0 0 0-.016-.04l-.04-.1-.006-.015a9.954 9.954 0 0 0-.205-.46l-.014-.03c-.017-.037-.035-.072-.053-.108l-.031-.064-.05-.097-.038-.073-.049-.09-.042-.079a10.776 10.776 0 0 0-.293-.495l-.047-.075a9.917 9.917 0 0 0-.057-.088l-.046-.07-.063-.092-.044-.064a10.318 10.318 0 0 0-.072-.102l-.038-.052a9.978 9.978 0 0 0-1.055-1.222 7.93 7.93 0 0 0-.753-.682 6.945 6.945 0 0 0-.478-.376 6.505 6.505 0 0 0-1.04-.636 10.137 10.137 0 0 0-2.808-.985A9.373 9.373 0 0 0 12.176 2a9.798 9.798 0 0 0-2.042.205c-1.42.3-2.67.913-3.46 1.68l.004-.003a.319.319 0 0 1 .002-.001l.005-.003-.003.003a.563.563 0 0 1 .01-.007c.591-.354 1.407-.641 1.99-.788l.096-.024c.11-.026.223-.05.34-.073l.003-.001.097-.018c2.584-.47 5.339.3 7.257 2.136a6.73 6.73 0 0 1 1.082 1.322c1.224 1.985 1.109 4.48.154 5.953-.709 1.093-2.227 2.119-3.643 2.108a7.32 7.32 0 0 0 .029.002l-.088-.004a4.563 4.563 0 0 1-1.814-.47c-2.192-1.12-2.519-3.907-.933-5.255-.526-.113-1.516.108-2.205 1.136-.618.922-.583 2.346-.202 3.357a5.395 5.395 0 0 1-.49-1.58c-.48-3.225 1.61-5.99 3.609-6.8l.042-.016.054-.021.097-.035c-.45-.392-1.177-.614-2.018-.638-1.162-.033-2.543.312-3.727 1.108a6.227 6.227 0 0 0-.337.243l-.039.03a6.822 6.822 0 0 0-.21.173l-.043.036a6.439 6.439 0 0 0-.094.083l-.024.022-.113.105-.039.038a6.645 6.645 0 0 0-.073.071l-.046.046a6.357 6.357 0 0 0-.175.187l-.042.045a6.645 6.645 0 0 0-.096.11l-.045.054-.054.065a6.753 6.753 0 0 0-.146.187l-.043.056-.051.07-.029.041-.107.154-.03.045a6.919 6.919 0 0 0-.053.082l-.03.047a6.995 6.995 0 0 0-.052.085l-.025.042c-.019.03-.037.062-.055.093l-.005.009a7.133 7.133 0 0 0-.13.236l-.002.003-.055.106-.015.03a7.44 7.44 0 0 0-.051.105l-.015.03a7.486 7.486 0 0 0-.213.497l-.007.017-.045.12-.009.023c-.015.04-.03.082-.043.123l-.002.004-.089.274a7.901 7.901 0 0 1 .33-1.625l.004-.011.028-.093.008-.023.027-.085.01-.03a10.262 10.262 0 0 1 .172-.478l.024-.062.023-.06.024-.059.026-.064.023-.055.03-.07.022-.05.032-.075.021-.047.037-.08.019-.042.043-.091.014-.031.056-.115.004-.008c.02-.042.042-.083.063-.125a2.877 2.877 0 0 0-.685.535 6.71 6.71 0 0 0-1.324 2c-.483 1.163-.725 2.501-.72 3.84.002.399.025.797.07 1.191l.008.063c.011.101.022.202.035.303l.003.02c.805 4.724 4.918 8.32 9.87 8.32C17.516 21.953 22 17.47 22 11.939c0-.896-.118-1.765-.34-2.591"/>
</svg>
