<svg xmlns="http://www.w3.org/2000/svg" width="24" height="24" viewBox="0 0 24 24">
    <path fill="#65676A" fill-rule="evenodd" d="M12 2c5.515 0 10 4.487 10 10 0 5.514-4.485 10-10 10-5.514 0-10-4.486-10-10C2 6.487 6.487 2 12 2zm0 2c-.302 0-.6.02-.892.053l.229 1.3-.985.174-.228-1.295C6.617 5.08 4 8.237 4 12c0 .303.02.6.053.894l1.3-.23.173.985-1.295.228C5.08 17.384 8.237 20 12 20c.302 0 .6-.02.894-.053l-.23-1.3.986-.173.228 1.294C17.385 18.92 20 15.764 20 12c0-.302-.02-.6-.054-.893l-1.298.228-.174-.985 1.294-.228C18.92 6.616 15.764 4 12 4zm4.604 3.094c.193-.096.399.11.303.302l-3.035 6.124a.78.78 0 0 1-.35.35l-6.123 3.036a.226.226 0 0 1-.303-.303l3.035-6.124a.78.78 0 0 1 .349-.349zm-5.505 3.984l-.013.007-1.8 3.631 3.63-1.8.007-.014-1.438-1.458-.386-.366z"/>
</svg>
