<svg xmlns="http://www.w3.org/2000/svg" width="24" height="24" viewBox="0 0 24 24">
    <path fill="#65676A" fill-rule="evenodd" d="M19.5 3A1.5 1.5 0 0 1 21 4.5v15a1.5 1.5 0 0 1-1.5 1.5h-15A1.5 1.5 0 0 1 3 19.5v-15A1.5 1.5 0 0 1 4.5 3h15zm-.501 5h-14L5 19h14l-.001-11zM7.865 14.525l.126.007a1.237 1.237 0 1 1-.126-.007zm4.129 0l.126.007a1.237 1.237 0 1 1-.126-.007zm4.13 0l.126.007a1.237 1.237 0 1 1-.127-.007zm-8.26-3.952l.127.007a1.237 1.237 0 1 1-.126-.007zm4.13 0l.126.007a1.237 1.237 0 1 1-.126-.007zm4.13 0l.126.007a1.237 1.237 0 1 1-.127-.007z"/>
</svg>
