<svg xmlns="http://www.w3.org/2000/svg" width="24" height="24" viewBox="0 0 24 24">
    <path fill="#65676A" fill-rule="evenodd" d="M15.213 14.065c-.845 0-1.198-.61-1.198-2.105s.353-2.105 1.198-2.105 1.198.61 1.198 2.105-.353 2.105-1.198 2.105zm-6.427 0c-.845 0-1.198-.61-1.198-2.105s.353-2.105 1.198-2.105 1.198.61 1.198 2.105-.353 2.105-1.198 2.105zm12.008 4.317a2.49 2.49 0 0 1 .142-1.91 9.944 9.944 0 0 0 .985-5.735c-.558-4.486-4.176-8.113-8.664-8.66a10.007 10.007 0 0 0-11.18 11.18c.547 4.488 4.174 8.107 8.66 8.664a9.94 9.94 0 0 0 5.735-.984 2.492 2.492 0 0 1 1.91-.143l2.037.679a.833.833 0 0 0 1.054-1.054l-.679-2.037z"/>
</svg>
