<svg xmlns="http://www.w3.org/2000/svg" width="24" height="24" viewBox="0 0 24 24">
    <path fill="#65676A" fill-rule="evenodd" d="M12 1c6.075 0 11 4.925 11 11l-.004.288C22.843 18.23 17.98 23 12 23l-.291-.004C5.802 22.843 1.053 18.031 1 12.1v-.2l.006-.29C1.212 5.716 6.056 1 12 1zm.83 4.45a6.604 6.604 0 00-7.38 7.38c.362 2.961 2.755 5.35 5.716 5.718a6.565 6.565 0 003.786-.65 1.641 1.641 0 011.26-.094l1.344.448.086.021a.55.55 0 00.61-.716l-.448-1.345-.044-.157c-.084-.371-.035-.76.138-1.103a6.561 6.561 0 00.65-3.785c-.368-2.961-2.756-5.355-5.718-5.716zm1.292 4.9c.64 0 .907.463.907 1.595s-.267 1.595-.907 1.595c-.641 0-.908-.463-.908-1.595s.267-1.595.908-1.595zm-4.243 0c.64 0 .908.463.908 1.595 0 1.131-.267 1.594-.908 1.594-.64 0-.907-.463-.907-1.594 0-1.132.267-1.595.907-1.595z"/>
</svg>
