<svg xmlns="http://www.w3.org/2000/svg" width="24" height="24" viewBox="0 0 24 24">
    <path fill="#65676A" fill-rule="evenodd" d="M18.02 4.002a9.953 9.953 0 0 1 3.873 6.52 10.088 10.088 0 0 1-.18 3.857 10.12 10.12 0 0 1-.649 1.832c-.065.148-.144.29-.215.435-.057.107-.062.13-.083.196a.525.525 0 0 0-.014.224l.015.064.825 2.475c.237.738.106 1.141-.282 1.624-.198.216-.47.367-.705.428-.224.06-.52.085-.868-.024l-2.136-.712-.414-.138c-.12-.04-.104-.03-.168-.04a.632.632 0 0 0-.322.078 9.983 9.983 0 0 1-3.689 1.128c-2.577.273-5.26-.52-7.269-2.156-2.018-1.611-3.414-4.043-3.662-6.636-.335-2.565.445-5.255 2.028-7.3 1.603-2.025 3.991-3.469 6.581-3.764 2.558-.357 5.274.322 7.334 1.909zm-7.073.075c-2.07.229-3.974 1.392-5.263 3.01-1.261 1.643-1.892 3.77-1.62 5.846.194 2.066 1.306 4 2.928 5.3a7.985 7.985 0 0 0 5.813 1.726 7.999 7.999 0 0 0 2.965-.91c.4-.21.871-.33 1.364-.303.227.007.53.081.686.138l.415.14 1.185.395-.551-1.657a2.493 2.493 0 0 1-.036-1.438c.055-.215.164-.462.246-.612.057-.117.121-.23.172-.35.22-.47.394-.96.52-1.462a8.076 8.076 0 0 0 .143-3.091 7.949 7.949 0 0 0-3.1-5.21c-1.648-1.27-3.804-1.807-5.867-1.522zm.994 11.608a1.243 1.243 0 1 1 .002 2.486 1.243 1.243 0 0 1-.002-2.486zm.057-9.66c2.154 0 3.842 1.52 3.842 3.46 0 1.654-1.393 2.533-2.225 3.056-.236.15-.784.573-.784 1.292v.708H10.93v-.708c0-1.156.625-2.24 1.672-2.9.867-.546 1.337-.939 1.337-1.447 0-1.014-1-1.561-1.94-1.561-1.035 0-1.942.73-1.942 1.56h-1.9c0-1.875 1.758-3.46 3.841-3.46z"/>
</svg>
