<svg xmlns="http://www.w3.org/2000/svg" width="24" height="24" viewBox="0 0 24 24">
    <path fill="#65676A" fill-rule="evenodd" d="M20.59 6.86c.58.967.984 2.01 1.203 3.1.47 2.333.135 4.66-.969 6.728-.048.09-.12.266-.06.442l.867 2.605c.181.542.042 1.13-.362 1.535a1.497 1.497 0 0 1-1.535.362l-2.604-.868c-.175-.06-.351.012-.44.06A9.916 9.916 0 0 1 11.999 22c-.485 0-.974-.036-1.464-.106-.094-.014-.186-.042-.28-.058l-.002.013a9.994 9.994 0 0 1-.844-.188l-.03-.01a9.861 9.861 0 0 1-1.198-.415 9.795 9.795 0 0 1-.812-.38c-.055-.03-.11-.054-.166-.084-.025-.014-.052-.025-.078-.04a12.544 12.544 0 0 1-.873-.55l1.151-1.635a8.2 8.2 0 0 0 .747.462c.34.188.693.345 1.051.479.104.039.21.07.313.105.296.097.596.177.901.237.136.028.27.065.407.084a7.966 7.966 0 0 0 4.926-.854 2.543 2.543 0 0 1 2.015-.194l1.655.553-.552-1.656c-.218-.656-.15-1.372.193-2.017.884-1.654 1.151-3.518.773-5.392a7.718 7.718 0 0 0-.958-2.465zM4.61 15.084a7.96 7.96 0 0 0 1.42 2.24l-1.49 1.334a9.998 9.998 0 0 1-1.775-2.801zm-2.247-5.76l1.928.534a8.019 8.019 0 0 0-.275 2.643l-1.996.12a10.058 10.058 0 0 1 .343-3.297zm3.716-5.382l1.186 1.61a8.035 8.035 0 0 0-1.85 1.905L3.768 6.32a10.028 10.028 0 0 1 2.31-2.378zm9.503-1.291c1.038.398 2 .965 2.857 1.687l-1.287 1.53a7.979 7.979 0 0 0-2.285-1.348zM12 2l.325.005-.06 1.999L12 4c-.808 0-1.605.12-2.368.356l-.591-1.91A9.976 9.976 0 0 1 12 2z"/>
</svg>
