<svg xmlns="http://www.w3.org/2000/svg" width="24" height="24" viewBox="0 0 24 24">
    <path fill="#65676A" fill-rule="evenodd" d="M2.13 13.675A10.013 10.013 0 0 1 13.663 2.137c4.03.652 7.318 3.817 8.123 7.817.494 2.455.074 4.78-.965 6.729-.246.461-.265 1.011-.099 1.507l.638 1.915a1 1 0 0 1-1.264 1.265l-1.923-.641c-.493-.164-1.037-.145-1.496.1-1.949 1.039-4.275 1.461-6.73.967-4.002-.805-7.166-4.093-7.819-8.121zm9.803 1.92a1.322 1.322 0 1 0 .001 2.645 1.322 1.322 0 0 0 0-2.645zm1.214-9.615H10.72l.132 8.007h2.162l.133-8.007z"/>
</svg>
