<svg xmlns="http://www.w3.org/2000/svg" width="24" height="24" viewBox="0 0 24 24">
    <path fill="#65676A" fill-rule="evenodd" d="M2.13 13.675A10.013 10.013 0 0 1 13.663 2.137c4.03.652 7.318 3.817 8.123 7.817.494 2.455.074 4.78-.965 6.729-.246.461-.265 1.011-.099 1.507l.638 1.915a1 1 0 0 1-1.264 1.265l-1.923-.641c-.493-.164-1.037-.145-1.496.1-1.949 1.039-4.275 1.461-6.73.967-4.002-.805-7.166-4.093-7.819-8.121zm9.811 2.01a1.244 1.244 0 1 0 0 2.487 1.244 1.244 0 0 0 0-2.487zm.057-9.66c-2.083 0-3.841 1.585-3.841 3.46h1.9c0-.83.907-1.56 1.941-1.56.94 0 1.941.547 1.941 1.56 0 .509-.47.902-1.337 1.448-1.047.66-1.672 1.744-1.672 2.9v.708h1.9v-.708c0-.719.549-1.143.785-1.292.832-.523 2.225-1.402 2.225-3.055 0-1.941-1.688-3.462-3.842-3.462z"/>
</svg>
