<svg xmlns="http://www.w3.org/2000/svg" width="24" height="24" viewBox="0 0 24 24">
    <path fill="#65676A" fill-rule="evenodd" d="M13.046 2.056c1.39.112 2.76.57 3.965 1.271 2.42 1.4 4.218 3.836 4.779 6.599a10.12 10.12 0 0 1-.011 4.157 9.826 9.826 0 0 1-.654 1.988c-.365.743-.416.832-.371 1.016l.01.041.642 1.924c.091.297.217.601.28.891.05.292.014.51-.043.71-.111.434-.56.88-.992.99-.2.057-.42.093-.712.043-.29-.065-.594-.19-.89-.282l-1.027-.342-.894-.298a.51.51 0 0 0-.313.007c-.042-.003-.44.226-.745.355a9.904 9.904 0 0 1-3.025.819 10.071 10.071 0 0 1-4.141-.431c-2.665-.87-4.917-2.88-6.056-5.446-.59-1.276-.837-2.69-.848-4.074a9.626 9.626 0 0 1 .859-4.071 10.132 10.132 0 0 1 6.05-5.45c1.332-.44 2.758-.558 4.137-.417zM9.527 4.378a8.128 8.128 0 0 0-4.84 4.36 7.627 7.627 0 0 0-.685 3.256c.013 1.124.202 2.243.672 3.257.904 2.044 2.727 3.67 4.848 4.36 1.058.34 2.2.463 3.313.343a7.856 7.856 0 0 0 1.633-.35c.267-.086.526-.19.783-.303.279-.108.407-.24.964-.44a2.509 2.509 0 0 1 1.544.003l.896.3.764.254-.553-1.656a2.51 2.51 0 0 1-.006-1.544c.198-.557.336-.688.44-.966.232-.51.403-1.044.521-1.59a8.112 8.112 0 0 0 .007-3.336c-.44-2.185-1.884-4.148-3.822-5.268-.97-.56-2.041-.924-3.163-1.01-1.116-.114-2.254-.023-3.316.33zM7.56 10.641c.745 0 1.353.608 1.353 1.352 0 .744-.608 1.353-1.353 1.353a1.357 1.357 0 0 1-1.353-1.353c0-.744.609-1.352 1.353-1.352zm4.48 0c.746 0 1.354.608 1.354 1.352 0 .744-.608 1.353-1.353 1.353a1.357 1.357 0 0 1-1.353-1.353c0-.744.61-1.352 1.353-1.352zm4.482 0c.743 0 1.353.608 1.353 1.352 0 .744-.61 1.353-1.353 1.353a1.357 1.357 0 0 1-1.353-1.353c0-.744.608-1.352 1.353-1.352z"/>
</svg>
