<svg xmlns="http://www.w3.org/2000/svg" width="24" height="24" viewBox="0 0 24 24">
    <path fill="#65676A" fill-rule="evenodd" d="M4.9 4.882c2.3-2.297 5.479-3.311 8.728-2.787 4.053.656 7.32 3.8 8.13 7.825.47 2.334.136 4.66-.97 6.729-.047.089-.118.267-.06.443l.869 2.603c.18.543.042 1.13-.363 1.535a1.497 1.497 0 0 1-1.535.363l-2.605-.868c-.174-.06-.351.01-.44.059a9.91 9.91 0 0 1-4.69 1.176c-.486 0-.975-.035-1.464-.106-4.27-.616-7.726-4.01-8.404-8.251-.52-3.246.503-6.424 2.804-8.721zm7.062-.922a7.933 7.933 0 0 0-5.65 2.338c-1.84 1.837-2.658 4.385-2.242 6.989.542 3.386 3.303 6.095 6.716 6.588a7.98 7.98 0 0 0 4.926-.854c.642-.344 1.357-.413 2.015-.194l1.656.552-.552-1.655c-.218-.656-.15-1.372.193-2.016.884-1.655 1.15-3.52.774-5.394a7.946 7.946 0 0 0-6.49-6.245 8.423 8.423 0 0 0-1.346-.11zm4.619 4.134l1.369 1.457-7.561 7.106-4.411-4.236 1.385-1.443 3.04 2.92 6.178-5.804z"/>
</svg>
