<svg xmlns="http://www.w3.org/2000/svg" width="16" height="16" viewBox="0 0 16 16">
    <path fill="#242428" fill-rule="evenodd" d="M8 2.667c-1.415 0-2.752.545-3.767 1.558C3.006 5.45 2.46 7.15 2.738 8.885c.361 2.257 2.202 4.063 4.477 4.392a5.312 5.312 0 0 0 3.284-.57 1.696 1.696 0 0 1 1.343-.129l1.104.368-.368-1.104c-.145-.437-.1-.914.13-1.343a5.318 5.318 0 0 0 .515-3.596A5.296 5.296 0 0 0 8 2.667m.001 12a6.79 6.79 0 0 1-.976-.07c-2.846-.412-5.15-2.674-5.602-5.501-.346-2.164.335-4.284 1.87-5.814C4.824 1.75 6.946 1.074 9.11 1.424a6.636 6.636 0 0 1 5.42 5.216 6.637 6.637 0 0 1-.646 4.486c-.032.06-.08.178-.04.295l.578 1.736a.995.995 0 0 1-.242 1.023.997.997 0 0 1-1.023.242l-1.737-.579c-.116-.039-.233.009-.292.04A6.613 6.613 0 0 1 8 14.667"/>
</svg>
