<svg xmlns="http://www.w3.org/2000/svg" width="24" height="24" viewBox="0 0 24 24">
    <path fill="#65676A" fill-rule="evenodd" d="M4.869 4.882c2.302-2.297 5.485-3.311 8.728-2.787 4.054.656 7.32 3.8 8.13 7.825.47 2.335.136 4.662-.97 6.729-.046.09-.117.266-.06.443l.869 2.603a1.492 1.492 0 0 1-.362 1.535 1.498 1.498 0 0 1-1.535.363l-2.605-.868c-.174-.058-.351.012-.44.059a9.914 9.914 0 0 1-4.691 1.176c-.485 0-.974-.035-1.464-.106-4.27-.616-7.726-4.01-8.404-8.251-.52-3.246.504-6.425 2.804-8.721zm7.063-.922a7.932 7.932 0 0 0-5.65 2.338c-1.841 1.837-2.658 4.385-2.242 6.989.54 3.386 3.303 6.095 6.715 6.588a7.973 7.973 0 0 0 4.926-.855c.644-.343 1.358-.412 2.016-.193l1.655.552-.551-1.655c-.22-.657-.15-1.373.193-2.017.883-1.653 1.15-3.518.773-5.393a7.945 7.945 0 0 0-6.49-6.245 8.433 8.433 0 0 0-1.345-.11zm.001 11.635a1.323 1.323 0 1 1 0 2.647 1.323 1.323 0 0 1 0-2.647zm1.214-9.615l-.133 8.007h-2.162L10.72 5.98h2.427z"/>
</svg>
