<svg xmlns="http://www.w3.org/2000/svg" width="24" height="24" viewBox="0 0 24 24">
    <path fill="#65676A" fill-rule="evenodd" d="M12 2c5.522 0 10 4.478 10 10s-4.478 10-10 10C6.477 22 2 17.522 2 12S6.477 2 12 2zm4.911 10.84a.998.998 0 0 0-1.262.637c-.008.022-.768 2.231-3.655 2.231-2.826-.002-3.61-2.14-3.646-2.239a.999.999 0 0 0-1.897.632c.048.147 1.232 3.603 5.54 3.607 4.32 0 5.51-3.459 5.557-3.606a1 1 0 0 0-.637-1.263zM8.786 7.613c-.845 0-1.199.611-1.199 2.106 0 1.495.354 2.105 1.2 2.105.844 0 1.197-.61 1.197-2.105s-.353-2.106-1.198-2.106zm6.428 0c-.846 0-1.199.611-1.199 2.106 0 1.495.353 2.105 1.199 2.105.845 0 1.198-.61 1.198-2.105s-.353-2.106-1.198-2.106z"/>
</svg>
