<svg xmlns="http://www.w3.org/2000/svg" width="24" height="24" viewBox="0 0 24 24">
    <path fill="#65676A" fill-rule="evenodd" d="M12 2c5.522 0 10 4.478 10 10s-4.478 10-10 10C6.477 22 2 17.522 2 12S6.477 2 12 2zm0 2c-4.41 0-8 3.59-8 8 0 4.411 3.59 8 8 8 4.411 0 8-3.589 8-8 0-4.41-3.589-8-8-8zm.006 9.708c2.228.002 3.33 1.328 3.629 2.111a.999.999 0 0 1-1.859.736c-.046-.1-.432-.846-1.771-.847-1.362 0-1.744.764-1.783.851-.222.494-.802.74-1.302.527a.988.988 0 0 1-.556-1.268c.302-.784 1.408-2.11 3.64-2.11zM5.709 7.657a1 1 0 0 1 1.349-.425l3.767 1.964a1 1 0 1 1-.924 1.773l-.083-.043c0 1.617-.38 2.274-1.29 2.274-.908 0-1.288-.657-1.288-2.265 0-.53.046-.948.135-1.282l-1.242-.648a1 1 0 0 1-.424-1.348zm11.233-.426a1 1 0 0 1 .925 1.774l-1.269.661c.086.332.131.745.131 1.268 0 1.61-.38 2.265-1.289 2.265-.907 0-1.287-.655-1.288-2.258l-.052.028a1.001 1.001 0 0 1-.925-1.774z"/>
</svg>
