<svg xmlns="http://www.w3.org/2000/svg" width="24" height="24" viewBox="0 0 24 24">
    <path fill="#65676A" fill-rule="evenodd" d="M16 16c1.302 0 2.402.838 2.816 2H21v2h-2.184A2.995 2.995 0 0 1 16 22a2.996 2.996 0 0 1-2.816-2H3v-2h10.185A2.993 2.993 0 0 1 16 16zm0 2c-.55 0-1 .45-1 1 0 .551.45 1 1 1 .551 0 1-.449 1-1 0-.55-.449-1-1-1zM8 9c1.302 0 2.402.838 2.816 2H21v2H10.816A2.995 2.995 0 0 1 8 15a2.996 2.996 0 0 1-2.816-2H3v-2h2.185A2.993 2.993 0 0 1 8 9zm0 2c-.55 0-1 .45-1 1 0 .551.45 1 1 1 .551 0 1-.449 1-1 0-.55-.449-1-1-1zm8-9c1.302 0 2.402.838 2.816 2H21v2h-2.184A2.995 2.995 0 0 1 16 8a2.996 2.996 0 0 1-2.816-2H3V4h10.185A2.993 2.993 0 0 1 16 2zm0 2c-.55 0-1 .45-1 1 0 .551.45 1 1 1 .551 0 1-.449 1-1 0-.55-.449-1-1-1z"/>
</svg>
