<svg xmlns="http://www.w3.org/2000/svg" width="24" height="24" viewBox="0 0 24 24">
    <path fill="#65676A" fill-rule="evenodd" d="M12 2c4.411 0 8 3.525 8 7.86v8.595c0 1.012-.63 1.877-1.605 2.203a2.37 2.37 0 0 1-2.64-.782c-.174-.22-.354-.222-.528.001l-.716.911A3.17 3.17 0 0 1 12.001 22a3.173 3.173 0 0 1-2.513-1.212l-.715-.912c-.174-.22-.354-.222-.528.001-.629.801-1.664 1.105-2.641.781C4.63 20.331 4 19.468 4 18.455V9.86C4 5.525 7.589 2 12 2zm0 2C8.711 4 6.036 6.63 6.036 9.86v8.595c0 .193.122.275.225.31a.311.311 0 0 0 .372-.11 2.37 2.37 0 0 1 1.875-.906c.741 0 1.424.33 1.877.905l.715.912c.434.551 1.366.553 1.8 0l.716-.912a2.367 2.367 0 0 1 1.874-.905c.741 0 1.425.33 1.877.905a.31.31 0 0 0 .371.111c.103-.035.226-.117.226-.31V9.86C17.964 6.63 15.289 4 12 4zM9.096 8.076c.764 0 1.083.542 1.083 1.868 0 1.327-.319 1.87-1.083 1.87s-1.083-.543-1.083-1.87c0-1.326.32-1.868 1.083-1.868zm5.807 0c.764 0 1.083.542 1.083 1.868 0 1.327-.319 1.87-1.083 1.87s-1.083-.543-1.083-1.87c0-1.326.32-1.868 1.083-1.868z"/>
</svg>
