<svg xmlns="http://www.w3.org/2000/svg" width="24" height="24" viewBox="0 0 24 24">
    <path fill="#65676A" fill-rule="evenodd" d="M16.484 13.5a6.5 6.5 0 0 1 6.48 5.977.497.497 0 0 1-.503.523h-3.997a.497.497 0 0 1-.493-.48 8.974 8.974 0 0 0-2.657-5.909c.38-.069.77-.11 1.17-.11zm-7.5-1.5a8 8 0 0 1 7.983 7.476.504.504 0 0 1-.506.524H1.507a.504.504 0 0 1-.506-.524A8 8 0 0 1 8.984 12zm7.5-5a2.925 2.925 0 1 1 0 5.85 2.925 2.925 0 0 1 0-5.85zm-7.5-3a3.6 3.6 0 1 1 0 7.2 3.6 3.6 0 0 1 0-7.2z"/>
</svg>
