<svg xmlns="http://www.w3.org/2000/svg" width="24" height="24" viewBox="0 0 24 24">
    <path fill="#65676A" fill-rule="evenodd" d="M9 11c1.99 0 3.837.66 5.336 1.768l.774-.14c.47-.086.91-.128 1.35-.128 3.884 0 7.167 3.03 7.475 6.898.033.405-.108.812-.388 1.115-.285.31-.69.487-1.11.487H1.522c-.416 0-.818-.174-1.103-.479a1.49 1.49 0 0 1-.402-1.109C.324 14.694 4.27 11 9 11zm7.46 3.5c-.105 0-.219.024-.326.031a8.928 8.928 0 0 1 1.8 4.47h3.934c-.475-2.566-2.749-4.5-5.409-4.5zM9 13a7.015 7.015 0 0 0-6.93 6h13.86A7.014 7.014 0 0 0 9 13zm7.5-7.5c1.654 0 3 1.346 3 3s-1.346 3-3 3-3-1.346-3-3 1.346-3 3-3zM9 2c2.206 0 4 1.794 4 4s-1.794 4-4 4-4-1.794-4-4 1.794-4 4-4zm7.5 5.5c-.55 0-1 .45-1 1 0 .551.45 1 1 1 .551 0 1-.449 1-1 0-.55-.449-1-1-1zM9 4c-1.103 0-2 .897-2 2s.897 2 2 2 2-.897 2-2-.897-2-2-2z"/>
</svg>
