<svg xmlns="http://www.w3.org/2000/svg" width="24" height="24" viewBox="0 0 24 24">
    <path fill="#65676A" fill-rule="evenodd" d="M18.58 16.858A4.977 4.977 0 0 1 13.937 20h-.779a4.968 4.968 0 0 1-3.533-1.462l-5.5-5.495a.457.457 0 0 1-.136-.325c0-.072.017-.21.161-.354a.516.516 0 0 1 .362-.153h.001c.133 0 .257.053.352.147l2.26 2.264A1.1 1.1 0 0 0 9 13.841V4.5a.5.5 0 0 1 1 0V12h2V3.504c0-.277.224-.503.5-.503s.5.226.5.504V12h2V4.505c0-.279.224-.505.5-.505s.5.226.5.505V12h2v-1.005l.007-3.526a.48.48 0 0 1 .48-.476c.281 0 .511.228.511.51L19 14.678c0 .748-.142 1.482-.42 2.18zm2.418-9.355A2.513 2.513 0 0 0 18 5.043v-.538A2.506 2.506 0 0 0 15.5 2c-.315 0-.614.065-.892.17a2.492 2.492 0 0 0-2.108-1.17c-.888 0-1.665.469-2.108 1.17a2.474 2.474 0 0 0-.892-.17A2.503 2.503 0 0 0 7 4.5v7.165l-.719-.72a2.479 2.479 0 0 0-1.768-.735h-.005a2.524 2.524 0 0 0-1.798.765 2.447 2.447 0 0 0-.72 1.741c0 .66.256 1.277.721 1.742l5.5 5.494A6.957 6.957 0 0 0 13.158 22h.78a6.967 6.967 0 0 0 6.498-4.4A7.822 7.822 0 0 0 21 14.676l-.002-7.173z"/>
</svg>
