<svg xmlns="http://www.w3.org/2000/svg" width="24" height="24" viewBox="0 0 24 24">
    <path fill="#65676A" fill-rule="evenodd" d="M13.52 1.739c.944-.945 2.591-.945 3.535 0 .974.975.974 2.56 0 3.535l-.723.723h1.918a4.001 4.001 0 0 1 3.745 5.405l-2.25 6A4.018 4.018 0 0 1 16 19.997h-2.677a7.854 7.854 0 0 1-2.923-.563 6.967 6.967 0 0 1-4.4-6.5v-.776c0-1.87.728-3.628 2.05-4.95zM4.597 8.802a.5.5 0 0 1 .5.5v9.065a.5.5 0 0 1-.5.5H2.5a.5.5 0 0 1-.5-.5V9.302a.5.5 0 0 1 .5-.5zm10.69-5.795a.498.498 0 0 0-.354.146l-5.47 5.469A4.968 4.968 0 0 0 8 12.158v.776a4.977 4.977 0 0 0 3.143 4.643c.697.278 1.43.42 2.18.42H16a2.01 2.01 0 0 0 1.872-1.297l2.25-6.001a1.973 1.973 0 0 0-.229-1.842 1.972 1.972 0 0 0-1.643-.86h-4.09a1.098 1.098 0 1 1-.78-1.875L15.64 3.86a.502.502 0 0 0 0-.707.495.495 0 0 0-.354-.146z"/>
</svg>
