<svg xmlns="http://www.w3.org/2000/svg" width="24" height="24" viewBox="0 0 24 24">
    <path fill="#65676A" fill-rule="evenodd" d="M3 17.004a2.996 2.996 0 0 0 2.992 2.992v2A4.997 4.997 0 0 1 1 17.004zM6.39 2.465a2.502 2.502 0 0 1 3.535 0l5.067 5.067V6.515a2.476 2.476 0 0 1 .73-1.767c.962-.964 2.642-.932 3.557-.016.466.466.721 1.084.721 1.743l-.005 7.774a6.953 6.953 0 0 1-2.05 4.945l-.552.551a6.966 6.966 0 0 1-7.707 1.484 7.826 7.826 0 0 1-2.464-1.668L2.15 14.487a2.494 2.494 0 0 1-.734-1.777 2.498 2.498 0 0 1 1.115-2.083l-.38-.38a2.506 2.506 0 0 1-.003-3.539c.222-.222.478-.387.75-.508a2.47 2.47 0 0 1 .665-2.32 2.49 2.49 0 0 1 2.318-.663c.121-.273.287-.53.51-.752zM8.511 3.88a.5.5 0 1 0-.708.706l5.304 5.305-1.414 1.414L6.39 6v-.002l-.703-.7a.498.498 0 1 0-.856.349c0 .078.02.228.15.358l6.006 6.007-1.414 1.414-5.3-5.3a.498.498 0 0 0-.711-.004.503.503 0 0 0 .004.711l4.586 4.586.713.714-1.414 1.414-.71-.71-2.498-2.487a.478.478 0 0 0-.676 0 .512.512 0 0 0-.002.724l5.073 5.073c.528.53 1.147.95 1.837 1.245a4.978 4.978 0 0 0 5.505-1.06l.552-.552a4.97 4.97 0 0 0 1.464-3.533L18 6.473a.465.465 0 0 0-.135-.327c-.105-.103-.542-.172-.729.015a.495.495 0 0 0-.144.351l.001 3.195a1.098 1.098 0 0 1-1.875.78zM18.001 1c2.756 0 5 2.24 5 4.992h-2A3 3 0 0 0 18 3z"/>
</svg>
