<svg xmlns="http://www.w3.org/2000/svg" width="24" height="24" viewBox="0 0 24 24">
    <path fill="#65676A" fill-rule="evenodd" d="M13.52 22.258c.944.945 2.591.945 3.535 0a2.504 2.504 0 0 0 0-3.535L16.332 18h1.918a4.001 4.001 0 0 0 3.745-5.405l-2.25-6A4.018 4.018 0 0 0 16 4h-2.677c-1.005 0-1.988.19-2.923.563a6.967 6.967 0 0 0-4.4 6.5v.776c0 1.869.728 3.628 2.05 4.95zm-8.922-7.063a.5.5 0 0 0 .5-.5V5.63a.5.5 0 0 0-.5-.5H2.5a.5.5 0 0 0-.5.5v9.065a.5.5 0 0 0 .5.5zm10.69 5.795a.498.498 0 0 1-.354-.146l-5.47-5.469A4.968 4.968 0 0 1 8 11.839v-.776a4.977 4.977 0 0 1 3.143-4.643 5.858 5.858 0 0 1 2.18-.42H16a2.01 2.01 0 0 1 1.872 1.297l2.25 6.001a1.973 1.973 0 0 1-.229 1.842c-.378.547-.978.86-1.643.86h-4.09a1.098 1.098 0 1 0-.78 1.875l2.261 2.262a.502.502 0 0 1 0 .707.495.495 0 0 1-.354.146z"/>
</svg>
