<svg xmlns="http://www.w3.org/2000/svg" width="24" height="24" viewBox="0 0 24 24">
    <path fill="#65676A" fill-rule="evenodd" d="M3.971 7.05l1.56 1.56a5.949 5.949 0 0 0-.235 1.643h1.5c.827 0 1.5.673 1.5 1.5v5c0 .827-.673 1.5-1.5 1.5h-1.5v1c0 .551.449 1 1 1h5v2h-5c-1.654 0-3-1.346-3-3v-9c0-1.14.243-2.222.675-3.204zM3.164 2l2.545 2.544a7.95 7.95 0 0 1 5.587-2.29c4.411 0 8 3.588 8 8v7a.984.984 0 0 1-.244.634l2.497 2.496-1.415 1.415L1.75 3.414 3.164 2zm8.132 2.253c-1.624 0-3.087.66-4.167 1.712l7.167 7.167v-1.379c0-.827.673-1.5 1.5-1.5h1.5c0-3.309-2.691-6-6-6z"/>
</svg>
