<svg xmlns="http://www.w3.org/2000/svg" width="24" height="24" viewBox="0 0 24 24">
    <path fill="#65676A" fill-rule="evenodd" d="M5.154 3.581a7.382 7.382 0 0 1 7.871-.525 7.29 7.29 0 0 1 3.757 5.407 7.294 7.294 0 0 1-2.079 6.249 2.381 2.381 0 0 0-.702 1.695V17a5.027 5.027 0 0 1-1.999 4 5.003 5.003 0 0 1-3 .993 4.996 4.996 0 0 1-3-.993 5.02 5.02 0 0 1-2-4v-1h2v1c0 .94.447 1.836 1.2 2.401 1.06.794 2.54.794 3.6 0a3.018 3.018 0 0 0 1.2-2.401v-.593c0-1.174.456-2.279 1.287-3.109a5.315 5.315 0 0 0 1.514-4.55 5.312 5.312 0 0 0-2.736-3.936 5.376 5.376 0 0 0-5.73.382l-1.745 1.28L3.41 4.86zm13.666-.578a11.26 11.26 0 0 1 1.921 4.89c.5 3.473-.6 6.917-3.017 9.45l-1.447-1.381a9.291 9.291 0 0 0 2.485-7.784A9.278 9.278 0 0 0 17.18 4.15zM8.585 6.118a3.506 3.506 0 0 1 3.058.614A3.479 3.479 0 0 1 13.001 9.5h-2c0-.467-.212-.9-.583-1.187a1.514 1.514 0 0 0-1.333-.26 1.478 1.478 0 0 0-1.03 1.03c-.125.485-.032.958.26 1.334.286.37.72.583 1.186.583v2c-1.09 0-2.1-.495-2.768-1.358a3.518 3.518 0 0 1-.614-3.058 3.484 3.484 0 0 1 2.466-2.466z"/>
</svg>
