<svg xmlns="http://www.w3.org/2000/svg" width="16" height="16" viewBox="0 0 16 16">
    <path fill="#A7A7AA" fill-rule="evenodd" d="M8 1.333a6.667 6.667 0 1 1 0 13.334A6.667 6.667 0 0 1 8 1.333zm-.04 9.124a.829.829 0 1 0 0 1.658.829.829 0 0 0 0-1.658zM8 4.017c-1.389 0-2.561 1.056-2.561 2.307h1.267c0-.554.604-1.04 1.294-1.04.627 0 1.294.364 1.294 1.04 0 .339-.314.6-.892.965-.698.44-1.114 1.162-1.114 1.933v.472h1.267v-.472c0-.48.365-.762.523-.861.555-.35 1.483-.935 1.483-2.037C10.56 5.03 9.435 4.016 8 4.016z"/>
</svg>
