<svg xmlns="http://www.w3.org/2000/svg" width="24" height="24" viewBox="0 0 24 24">
    <path fill="#65676A" fill-rule="evenodd" d="M12.996 3c1.567.004 1.912.017 2.724.054.958.044 1.612.196 2.184.419A4.397 4.397 0 0 1 19.5 4.51c.5.5.808 1.002 1.038 1.594.222.572.374 1.226.418 2.184.039.849.051 1.187.054 2.946v1.53c-.003 1.76-.015 2.097-.054 2.946-.044.958-.196 1.613-.418 2.185A4.411 4.411 0 0 1 19.5 19.49c-.5.5-1.003.808-1.595 1.038-.572.222-1.226.375-2.184.419-.845.038-1.184.05-2.919.052h-1.584c-1.735-.002-2.074-.014-2.919-.052-.958-.044-1.612-.197-2.184-.42A4.411 4.411 0 0 1 4.52 19.49c-.5-.5-.809-1.002-1.039-1.594-.222-.572-.374-1.227-.418-2.185-.036-.813-.05-1.157-.053-2.724v-2.008c.003-1.538.017-1.884.053-2.69.044-.958.196-1.612.418-2.184a4.414 4.414 0 0 1 1.04-1.594 4.385 4.385 0 0 1 1.593-1.038c.572-.223 1.226-.375 2.184-.42.812-.036 1.157-.05 2.725-.052zm-.709 1.62h-.556c-2.149.002-2.448.013-3.359.054-.877.04-1.354.187-1.67.31-.42.164-.72.358-1.035.674a2.772 2.772 0 0 0-.674 1.035c-.123.316-.27.793-.31 1.67-.04.874-.05 1.184-.052 3.1v1.074c.002 1.916.013 2.227.052 3.1.04.878.187 1.354.31 1.67.163.42.36.72.674 1.036.314.315.614.51 1.034.673.317.124.794.27 1.671.31.797.036 1.126.048 2.635.051h2.005c1.509-.003 1.837-.015 2.634-.051.877-.04 1.354-.186 1.671-.31.42-.163.72-.358 1.035-.673.315-.315.51-.615.673-1.035.123-.317.27-.793.31-1.671.038-.835.05-1.155.053-2.859v-1.557c-.003-1.702-.015-2.022-.053-2.857-.04-.878-.187-1.355-.31-1.671a2.77 2.77 0 0 0-.673-1.035 2.788 2.788 0 0 0-1.035-.674c-.317-.123-.794-.27-1.67-.31-.95-.043-1.235-.053-3.638-.053zm-.278 2.758a4.622 4.622 0 1 1 0 9.245 4.622 4.622 0 0 1 0-9.245zm0 1.622a3 3 0 1 0 0 6 3 3 0 0 0 0-6zm4.805-2.885a1.08 1.08 0 1 1-.002 2.161 1.08 1.08 0 0 1 .002-2.16z"/>
</svg>
