<svg xmlns="http://www.w3.org/2000/svg" width="16" height="16" viewBox="0 0 16 16">
    <path fill="#4A26FF" fill-rule="evenodd" d="M10 1.333c.368 0 .667.3.667.667v4.284c0 .25.07.495.202.707l2.726 4.36c.264.424.405.914.405 1.414V14a.667.667 0 0 1-.667.667H2.667A.667.667 0 0 1 2 14v-1.235c0-.5.14-.99.405-1.414l2.726-4.36c.132-.212.202-.457.202-.707V2c0-.368.3-.667.667-.667zm-.667 1.334H6.667v3.617c0 .5-.14.99-.406 1.413l-2.725 4.361a1.331 1.331 0 0 0-.203.707v.568h9.334v-.568c0-.25-.07-.495-.203-.707L9.74 7.698a2.66 2.66 0 0 1-.406-1.414V2.667zM9.142 8l2.778 4.446a.526.526 0 0 1 .077.22H4.003a.526.526 0 0 1 .077-.22L6.858 8h2.284z"/>
</svg>
