<svg xmlns="http://www.w3.org/2000/svg" width="24" height="24" viewBox="0 0 24 24">
    <path fill="#65676A" fill-rule="evenodd" d="M9.251 9.182l1.414 1.414-3.948 3.948a3.249 3.249 0 0 0-.957 2.311c0 .873.34 1.694.957 2.311 1.235 1.234 3.387 1.234 4.623 0l2.328-2.327 1.414 1.414-2.328 2.327a5.248 5.248 0 0 1-3.725 1.541 5.248 5.248 0 0 1-3.726-1.54 5.274 5.274 0 0 1 0-7.45l3.948-3.949zm8.75 8.404l2.827 2.828-1.414 1.414L16.586 19 18 17.586zM22 14v2h-4v-2h4zM18.618 3.42a5.274 5.274 0 0 1 0 7.45l-3.948 3.948-1.414-1.414 3.948-3.948a3.247 3.247 0 0 0 .957-2.311c0-.873-.34-1.694-.957-2.311-1.237-1.235-3.388-1.235-4.623 0l-2.328 2.327-1.414-1.414 2.328-2.327a5.272 5.272 0 0 1 7.45 0zM6 8v2H2V8h4zM4.585 2.172L7.415 5 6 6.414 3.171 3.586l1.414-1.414z"/>
</svg>
