<svg xmlns="http://www.w3.org/2000/svg" width="24" height="24" viewBox="0 0 24 24">
    <path fill="#65676A" fill-rule="evenodd" d="M6.871 9.91a5.351 5.351 0 0 1 7.567 0l.708.707-1.415 1.414-.707-.707a3.351 3.351 0 0 0-4.739 0l-3.304 3.304a3.351 3.351 0 0 0 4.74 4.738l2.358-2.359 1.415 1.415-2.36 2.359a5.351 5.351 0 0 1-7.567-7.568zm6.342-6.343a5.351 5.351 0 0 1 7.567 7.567l-3.304 3.304a5.351 5.351 0 0 1-7.567 0l-.707-.707 1.414-1.414.707.707a3.351 3.351 0 0 0 4.74 0l3.303-3.304a3.351 3.351 0 0 0-4.739-4.739l-2.359 2.36-1.414-1.415z"/>
</svg>
