<svg xmlns="http://www.w3.org/2000/svg" width="24" height="24" viewBox="0 0 24 24">
    <path fill="#65676A" fill-rule="evenodd" d="M4.5 10C5.875 10 7 11.125 7 12.5c0 1.32-1.037 2.41-2.336 2.495L4.5 15A2.507 2.507 0 0 1 2 12.5C2 11.125 3.125 10 4.5 10zm7.5 0c1.375 0 2.5 1.125 2.5 2.5 0 1.32-1.037 2.41-2.336 2.495L12 15a2.507 2.507 0 0 1-2.5-2.5c0-1.375 1.125-2.5 2.5-2.5zm7.5 0c1.375 0 2.5 1.125 2.5 2.5 0 1.32-1.037 2.41-2.336 2.495L19.5 15a2.507 2.507 0 0 1-2.5-2.5c0-1.375 1.125-2.5 2.5-2.5z"/>
</svg>
