<svg xmlns="http://www.w3.org/2000/svg" width="24" height="24" viewBox="0 0 24 24">
    <path fill="#65676A" fill-rule="evenodd" d="M12.245 2c1.55 0 2.708.278 3.686.801.977.523 1.745 1.29 2.268 2.268.523.978.801 2.136.801 3.686v6.49c0 1.55-.278 2.708-.801 3.686-.523.977-1.29 1.745-2.268 2.268-.978.523-2.136.801-3.686.801h-.49c-1.55 0-2.708-.278-3.686-.801-.977-.523-1.745-1.29-2.268-2.268C5.278 17.953 5 16.795 5 15.245v-6.49c0-1.55.278-2.708.801-3.686.523-.977 1.29-1.745 2.268-2.268C9.047 2.278 10.205 2 11.755 2h.49zm0 2h-.49c-1.192 0-2.04.19-2.742.565-.63.337-1.111.818-1.448 1.448-.345.644-.532 1.41-.561 2.45L7 8.756v6.49c0 1.192.19 2.04.565 2.742.337.63.818 1.111 1.448 1.448.644.345 1.41.532 2.45.561l.292.004h.49c1.192 0 2.04-.19 2.742-.565.63-.337 1.111-.818 1.448-1.448.345-.644.532-1.41.561-2.45l.004-.292v-6.49c0-1.192-.19-2.04-.565-2.742-.337-.63-.818-1.111-1.448-1.448-.644-.345-1.41-.532-2.45-.561L12.244 4zM12 6c.552 0 1 .448 1 1v3c0 .552-.448 1-1 1s-1-.448-1-1V7c0-.552.448-1 1-1z"/>
</svg>
