<?xml version="1.0" encoding="UTF-8"?>
<svg width="34px" height="34px" viewBox="0 0 34 34" version="1.1" xmlns="http://www.w3.org/2000/svg" xmlns:xlink="http://www.w3.org/1999/xlink">
    <!-- Generator: sketchtool 63.1 (101010) - https://sketch.com -->
    <title>A020BB70-D888-4A8C-A1C6-AACE08AB9A8D</title>
    <desc>Created with sketchtool.</desc>
    <g id="Marketing" stroke="none" stroke-width="1" fill="none" fill-rule="evenodd">
        <g id="campaign-filter" transform="translate(-150.000000, -2117.000000)">
            <g id="Group-12" transform="translate(88.000000, 1891.000000)">
                <g id="Group-27" transform="translate(62.000000, 170.000000)">
                    <g id="Group-11" transform="translate(0.000000, 56.000000)">
                        <g id="no-person">
                            <circle id="Oval-1-Copy-9" fill="#E4E4E5" cx="17" cy="17" r="17"></circle>
                            <g id="icon/person-filled" transform="translate(5.000000, 5.000000)" fill="#A7A7AA">
                                <path d="M11.9869,12.0001 C17.3349,12.0001 21.7019,16.1981 21.9739,21.4781 C21.9879,21.7611 21.7509,22.0001 21.4669,22.0001 L2.5079,22.0001 C2.2239,22.0001 1.9859,21.7611 2.0009,21.4781 C2.2719,16.1981 6.6399,12.0001 11.9869,12.0001 Z M11.9874,2.0001 C14.4724,2.0001 16.4874,4.0151 16.4874,6.5001 C16.4874,8.9851 14.4724,11.0001 11.9874,11.0001 C9.5024,11.0001 7.4874,8.9851 7.4874,6.5001 C7.4874,4.0151 9.5024,2.0001 11.9874,2.0001 Z" id="Combined-Shape"></path>
                            </g>
                        </g>
                    </g>
                </g>
            </g>
        </g>
    </g>
</svg>