<svg xmlns="http://www.w3.org/2000/svg" width="24" height="24" viewBox="0 0 24 24">
    <path fill="#65676A" fill-rule="evenodd" d="M12.002 2a6.144 6.144 0 0 1 6.144 6.144c0 1.555.436 3.08 1.259 4.4l2.352 3.776a1.1 1.1 0 0 1-.935 1.68l-4.82.001a4 4 0 0 1-8 0h-4.82a1.1 1.1 0 0 1-.932-1.685l2.35-3.77a8.332 8.332 0 0 0 1.257-4.402A6.144 6.144 0 0 1 12.002 2zm2 16l-4 .001a2 2 0 0 0 4 0zm-2-14a4.144 4.144 0 0 0-4.145 4.144c0 1.929-.54 3.819-1.56 5.458L4.803 16h14.398l-1.494-2.398a10.324 10.324 0 0 1-1.56-5.458A4.144 4.144 0 0 0 12.001 4z"/>
</svg>
