<svg xmlns="http://www.w3.org/2000/svg" width="24" height="24" viewBox="0 0 24 24">
    <path fill="#65676A" fill-rule="evenodd" d="M5.544 7.987c-.002.054-.01.106-.01.161a8.31 8.31 0 0 1-1.257 4.399l-2.35 3.774a1.1 1.1 0 0 0 .933 1.682h4.82c0 2.206 1.794 4 4 4a3.999 3.999 0 0 0 3.989-3.89l-2.11-2.11H4.48l1.493-2.398a10.304 10.304 0 0 0 1.41-3.777zM3.548 1.75L2.134 3.164l18.385 18.385 1.414-1.415-2.132-2.131h.699a1.1 1.1 0 0 0 .933-1.682l-2.35-3.774a8.313 8.313 0 0 1-1.258-4.399 6.152 6.152 0 0 0-6.145-6.145 6.125 6.125 0 0 0-5.114 2.765L3.548 1.75zM9.68 18.003h4c0 1.103-.897 2-2 2s-2-.897-2-2zm2-14a4.15 4.15 0 0 1 4.145 4.145c0 1.93.539 3.817 1.56 5.457l1.494 2.398h-1.078L8.028 6.23c.695-1.317 2.062-2.227 3.652-2.227z"/>
</svg>
