<svg xmlns="http://www.w3.org/2000/svg" width="24" height="24" viewBox="0 0 24 24">
    <path fill="#65676A" fill-rule="evenodd" d="M17 12a5 5 0 1 1 0 10 5 5 0 0 1 0-10zm-7.516 0c1.183 0 2.302.264 3.312.726A5.978 5.978 0 0 0 11 17c0 1.093.3 2.116.812 3H2.007a.503.503 0 0 1-.506-.524A8 8 0 0 1 9.484 12zM19.7 15.715L15.715 19.7c.391.187.823.301 1.285.301 1.654 0 3-1.346 3-3 0-.462-.114-.894-.3-1.285zM17 14c-1.654 0-3 1.346-3 3 0 .462.113.894.301 1.285l3.984-3.984a2.954 2.954 0 0 0-1.285-.3zM9.484 4a3.5 3.5 0 1 1 0 7 3.5 3.5 0 0 1 0-7z"/>
</svg>
