<svg xmlns="http://www.w3.org/2000/svg" width="24" height="24" viewBox="0 0 24 24">
    <path fill="#65676A" fill-rule="evenodd" d="M21 4h.01c.025 0 .05.002.074.004L21 4c.046 0 .091.003.135.009l.04.007a.72.72 0 0 1 .074.015l.018.006a.9.9 0 0 1 .19.072c.002.003.005.004.008.006a.88.88 0 0 1 .166.108l.025.022a.941.941 0 0 1 .209.254l-.06-.092c.066.09.117.19.15.295l.008.027a.978.978 0 0 1-.024.618l-.012.028a.678.678 0 0 1-.06.125L12.83 21.15c-.442.765-1.588.622-1.828-.23L8.55 12.215 2.28 5.693C1.667 5.058 2.118 4 3 4h18zm-2.74 3.745l-7.643 4.432 1.668 5.919L18.26 7.745zM17.282 6H5.35l4.272 4.443L17.282 6z"/>
</svg>
