<svg xmlns="http://www.w3.org/2000/svg" width="24" height="24" viewBox="0 0 24 24">
    <path fill="#65676A" fill-rule="evenodd" d="M21 4c.082 0 .162.013.24.032.006.001.013 0 .02.002.109.03.209.083.302.148.025.016.047.034.07.052.089.074.169.158.229.259l.004.005.001.001c.06.105.092.218.112.332.005.03.009.059.011.088.017.199-.02.402-.123.581l-3.818 6.614C20.305 12.596 22 14.599 22 17c0 2.762-2.239 5-5 5-1.474 0-2.785-.649-3.7-1.663l-.469.813c-.18.311-.512.5-.866.5-.041 0-.083-.003-.124-.008-.399-.05-.73-.334-.839-.721l-2.453-8.706-6.27-6.522c-.278-.289-.356-.715-.199-1.085C2.237 4.239 2.599 4 3 4zm-1.3 11.715L15.714 19.7c.391.187.823.301 1.285.301 1.654 0 3-1.346 3-3 0-.462-.114-.894-.3-1.285zM17 14c-1.654 0-3 1.346-3 3 0 .462.113.894.301 1.285l3.984-3.984c-.39-.188-.824-.3-1.285-.3zm1.261-6.255l-7.644 4.433 1.397 4.957C12.012 17.089 12 17.046 12 17c0-2.306 1.569-4.227 3.691-4.805l2.57-4.45zM17.283 6H5.348l4.273 4.443L17.283 6z"/>
</svg>
