<svg xmlns="http://www.w3.org/2000/svg" width="24" height="24" viewBox="0 0 24 24">
    <path fill="#65676A" fill-rule="evenodd" d="M18.379 12.757l3.182 3.182a1.501 1.501 0 0 1 0 2.121l-3.182 3.182-1.414-1.414L18.794 18h-3.752a3.004 3.004 0 0 1-2.458-1.28l-1.168-1.669 1.22-1.744 1.587 2.266a1 1 0 0 0 .819.427h3.752l-1.83-1.829 1.415-1.414zm0-10L21.56 5.94a1.504 1.504 0 0 1 0 2.122l-3.183 3.182-1.414-1.414L18.794 8H15.04a1 1 0 0 0-.819.426L8.416 16.72A3 3 0 0 1 5.958 18H2v-2h3.958c.327 0 .633-.16.82-.427l5.805-8.293A3.004 3.004 0 0 1 15.041 6h3.752l-1.829-1.829 1.414-1.414zM5.958 6c.978 0 1.896.478 2.457 1.28l1.169 1.668-1.221 1.744-1.586-2.266A1 1 0 0 0 5.959 8H2V6z"/>
</svg>
