<svg xmlns="http://www.w3.org/2000/svg" width="20" height="20" viewBox="0 0 20 20">
    <path fill="#65676A" fill-rule="evenodd" d="M10.5 1.667a2 2 0 0 1 2 2v2.166h-1.667V4.167H4.167v11.666h6.666v-1.667H12.5v2.167a2 2 0 0 1-2 2h-6a2 2 0 0 1-2-2V3.667a2 2 0 0 1 2-2h6zM13.333 7.5l.002.014a1 1 0 0 1 .832.986v4h-1.042V8.75h-.73v3.75h-1.04l-.002-3.75h-.729l.001 3.75H9.583v-4a1 1 0 0 1 .833-.986V7.5h2.917zm-4.583 0v1.25h-2.5v.833h1.5a1 1 0 0 1 1 1v.917a1 1 0 0 1-1 1H5v-1.25h2.5v-.833H5.833v-.014A1 1 0 0 1 5 9.417V8.5a1 1 0 0 1 .833-.986V7.5H8.75zm10 0v1.25h-2.5v.833h1.5a1 1 0 0 1 1 1v.917a1 1 0 0 1-1 1H15v-1.25h2.5v-.833h-1.667v-.014A1 1 0 0 1 15 9.417V8.5a1 1 0 0 1 .833-.986V7.5h2.917z"/>
</svg>
