<svg xmlns="http://www.w3.org/2000/svg" width="24" height="24" viewBox="0 0 24 24">
    <path fill="#65676A" fill-rule="evenodd" d="M20.5 3a1.5 1.5 0 0 1 1.493 1.356L22 4.5v4.922l-.512.495a5.22 5.22 0 0 1-.486.391L21 19.5a1.5 1.5 0 0 1-1.355 1.493L19.5 21h-15a1.5 1.5 0 0 1-1.493-1.355L3 19.5v-9.19a5.138 5.138 0 0 1-.329-.254l-.158-.138L2 9.427V4.5a1.5 1.5 0 0 1 1.356-1.493L3.5 3h17zM8.993 10.305l-.084.06a5.21 5.21 0 0 1-3.908.799L5 19h3.5v-6h7v6H19v-7.832a5.2 5.2 0 0 1-3.672-.636l-.236-.15-.103-.074-.084.06a5.206 5.206 0 0 1-5.628.125l-.206-.133-.078-.055zM13.5 15h-3v4h3v-4zM20 5H4v3.556l.182.137c1.14.787 2.68.749 3.793-.123l.024-.022L8 7h2v1.562l.024.022a3.201 3.201 0 0 0 3.977-.033L14 7h2v1.564l.037.031a3.2 3.2 0 0 0 3.776.101l.161-.118.026-.022V5z"/>
</svg>
