<svg xmlns="http://www.w3.org/2000/svg" width="24" height="24" viewBox="0 0 24 24">
    <path fill="#65676A" fill-rule="evenodd" d="M17.698 15.336c0 .868-.16 1.626-.48 2.274a4.691 4.691 0 0 1-1.28 1.61 5.456 5.456 0 0 1-1.873.96c-.716.213-1.47.32-2.263.32a8.492 8.492 0 0 1-3.084-.583c-.905-.35-1.662-.85-2.27-1.502l-.198-.223 2.056-1.92.155.201c.376.455.854.822 1.433 1.102.663.32 1.314.48 1.954.48.335 0 .678-.042 1.028-.126.35-.083.667-.224.949-.422.281-.198.51-.446.685-.743.175-.297.263-.666.263-1.108 0-.427-.1-.78-.297-1.063a2.54 2.54 0 0 0-.594-.593h3.64c.117.394.176.84.176 1.336zM12.876 3.5c.823 0 1.657.145 2.502.434a6.16 6.16 0 0 1 1.966 1.092l.24.21-1.874 2.057-.139-.166c-.291-.323-.676-.6-1.152-.828a3.852 3.852 0 0 0-2.685-.274c-.335.084-.64.213-.914.388a2.147 2.147 0 0 0-.674.686c-.175.282-.263.62-.263 1.017 0 .365.076.677.229.936.152.26.361.48.628.663.266.183.59.343.971.48.38.137.8.274 1.257.411.345.112.699.234 1.061.366l.076.028H21v2l-3.963-.001V13H3v-2l4.848.002a4.294 4.294 0 0 1-.524-.841c-.244-.51-.366-1.147-.366-1.908 0-.823.172-1.531.514-2.125a4.546 4.546 0 0 1 1.349-1.474 6 6 0 0 1 1.896-.868 8.282 8.282 0 0 1 2.16-.286z"/>
</svg>
