<svg xmlns="http://www.w3.org/2000/svg" width="24" height="24" viewBox="0 0 24 24">
    <path fill="#65676A" fill-rule="evenodd" d="M10.266 16.667c-.015 0-.028-.006-.043-.008a.3.3 0 0 1-.188-.093.284.284 0 0 1-.083-.195V7.65c0-.08.036-.143.083-.194.012-.014.026-.024.04-.035a.311.311 0 0 1 .148-.06c.015 0 .028-.007.043-.006.062.003.124.02.178.065l5.23 4.36a.3.3 0 0 1 0 .46l-5.23 4.36a.298.298 0 0 1-.178.066M12 2C6.477 2 2 6.478 2 12c0 5.523 4.477 10 10 10s10-4.477 10-10c0-5.522-4.477-10-10-10"/>
</svg>
