<?xml version="1.0" encoding="UTF-8"?>
<svg width="24px" height="24px" viewBox="0 0 24 24" version="1.1" xmlns="http://www.w3.org/2000/svg" xmlns:xlink="http://www.w3.org/1999/xlink">
    <!-- Generator: sketchtool 61 (101010) - https://sketch.com -->
    <title>73D11E98-2B0A-46AB-93E9-D7AD2F0ED523</title>
    <desc>Created with sketchtool.</desc>
    <g id="Symbols" stroke="none" stroke-width="1" fill="none" fill-rule="evenodd">
        <g id="icons" transform="translate(-870.000000, -602.000000)" fill="#65676A">
            <g id="Group" transform="translate(122.000000, 250.000000)">
                <g id="icon/variants" transform="translate(748.000000, 352.000000)">
                    <path d="M6.0002,7.0001 L6.0002,18.0001 L17.0002,18.0001 L17.0002,20.5001 C17.0002,20.7761 16.7762,21.0001 16.5002,21.0001 L3.5002,21.0001 C3.2242,21.0001 3.0002,20.7761 3.0002,20.5001 L3.0002,7.5001 C3.0002,7.2241 3.2242,7.0001 3.5002,7.0001 L6.0002,7.0001 Z M20.5002,3.0001 C20.7762,3.0001 21.0002,3.2241 21.0002,3.5001 L21.0002,15.5001 C21.0002,15.7761 20.7762,16.0001 20.5002,16.0001 L8.5002,16.0001 C8.2242,16.0001 8.0002,15.7761 8.0002,15.5001 L8.0002,3.5001 C8.0002,3.2241 8.2242,3.0001 8.5002,3.0001 L20.5002,3.0001 Z" id="Combined-Shape"></path>
                </g>
            </g>
        </g>
    </g>
</svg>