<svg xmlns="http://www.w3.org/2000/svg" width="24" height="24" viewBox="0 0 24 24">
    <path fill="#65676A" fill-rule="evenodd" d="M13.96 2a1 1 0 0 1 1 1v18a1 1 0 0 1-1 1h-1a1 1 0 0 1-.707-.293l-4.708-4.708H2.96a1 1 0 0 1-.993-.883L1.96 16V8a1 1 0 0 1 1-1l4.585-.001 4.708-4.707a1 1 0 0 1 .576-.284L12.96 2zm-1 2.413L8.667 8.707A1 1 0 0 1 7.96 9l-4-.001v6h4a1 1 0 0 1 .608.207l.1.086 4.292 4.293V4.413zm7.1 1.294a8.9 8.9 0 0 1 .2 12.38l-.2.206-1.414-1.414a6.9 6.9 0 0 0 .18-9.572l-.18-.186 1.414-1.414zm-2.416 2.416a5.483 5.483 0 0 1 .173 7.572l-.173.182-1.414-1.415a3.483 3.483 0 0 0 .14-4.776l-.14-.148 1.414-1.415z"/>
</svg>
