<svg xmlns="http://www.w3.org/2000/svg" width="24" height="24" viewBox="0 0 24 24">
    <path fill="#65676A" fill-rule="evenodd" d="M10 6.453c1.47 0 2.85.721 3.693 1.928l.458.656a4.98 4.98 0 0 1 2.818 1.835 5.069 5.069 0 0 1 5.03 5.064A5.069 5.069 0 0 1 16.938 21H8.216A4.222 4.222 0 0 1 4 16.784v-.276a4.21 4.21 0 0 1 1.97-3.555 4.486 4.486 0 0 1-.47-2c0-2.48 2.019-4.5 4.5-4.5zm3.04 4.453c-1.448 0-2.696 1.087-2.904 2.53l-.123.856H8.216A2.218 2.218 0 0 0 6 16.508v.276C6 18.006 6.994 19 8.216 19h8.72A3.067 3.067 0 0 0 20 15.936a3.067 3.067 0 0 0-3.063-3.064h-1.073l-.29-.495a2.918 2.918 0 0 0-2.534-1.47zM10 8.453a2.503 2.503 0 0 0-2.5 2.5c0 .491.145.962.414 1.37.102-.008.198-.03.302-.03h.144a4.982 4.982 0 0 1 3.323-3.182A2.5 2.5 0 0 0 10 8.453zm-6 1.5v2H1.5v-2H4zm11.293-5.707l1.414 1.414-1.757 1.757-1.414-1.414 1.757-1.757zm-10.585 0l1.756 1.757-1.413 1.414L3.293 5.66l1.414-1.414zM11 2.453v2.5H9v-2.5h2z"/>
</svg>
