<svg xmlns="http://www.w3.org/2000/svg" width="24" height="24" viewBox="0 0 24 24">
    <path fill="#65676A" fill-rule="evenodd" d="M16.91 14.01a2 2 0 1 1-1.732 3.001l-2.765-.001A5.75 5.75 0 0 1 1 16.01h2a3.75 3.75 0 1 0 7.5 0v-1h4.678a2 2 0 0 1 1.732-1zm-5.08-8.799a2 2 0 0 1 1.733 3l1.382 2.394a5.751 5.751 0 0 1 4.84 10.385l-1-1.732a3.75 3.75 0 0 0-3.75-6.496l-.866.5-2.338-4.051a2 2 0 0 1-1.995-1.85l-.006-.15a2 2 0 0 1 2-2zm-4.98-.875a5.75 5.75 0 0 1 7.855-2.105l-1 1.732a3.75 3.75 0 0 0-3.75 6.495l.866.5-2.338 4.053a2 2 0 1 1-1.733-1v-.001l1.382-2.394a5.752 5.752 0 0 1-1.282-7.28z"/>
</svg>
