<svg xmlns="http://www.w3.org/2000/svg" width="24" height="24" viewBox="0 0 24 24">
    <path fill="#65676A" fill-rule="evenodd" d="M20.516 3.013c.269 0 .487.218.487.486v17.027a.487.487 0 0 1-.487.487H3.49a.487.487 0 0 1-.487-.487V3.5c0-.268.218-.486.487-.486zm-5.355 9.557h-1.012a.105.105 0 0 0-.105.105v5.074c0 .058.047.105.105.105h1.012a.105.105 0 0 0 .105-.105v-5.074a.105.105 0 0 0-.105-.105zm-6.726.014H7.263a.108.108 0 0 0-.092.163l2.066 3.4a.207.207 0 0 1 .031.11v1.49c0 .06.048.107.107.107h1.018a.107.107 0 0 0 .107-.108v-1.489c0-.039.011-.078.031-.11l2.066-3.4a.107.107 0 0 0-.091-.163h-1.173a.12.12 0 0 0-.102.058L9.926 14.88a.048.048 0 0 1-.083 0l-1.306-2.237a.12.12 0 0 0-.102-.058zm6.22-6.29a2.81 2.81 0 1 0 0 5.619 2.81 2.81 0 0 0 0-5.62zm-2.995.175H7.353a.107.107 0 0 0-.107.107v.86c0 .06.048.107.107.107h2.89c.013 0 .018.014.01.023l-3.068 3.118a.107.107 0 0 0-.032.075v.88c0 .06.048.107.107.107h4.479a.107.107 0 0 0 .107-.107v-.854a.107.107 0 0 0-.107-.107h-3.05c-.012 0-.017-.015-.009-.023l3.055-3.117a.107.107 0 0 0 .033-.077v-.885a.108.108 0 0 0-.108-.107zm2.995.958a1.676 1.676 0 1 1 0 3.353 1.676 1.676 0 0 1 0-3.353z"/>
</svg>
