<svg xmlns="http://www.w3.org/2000/svg" width="24" height="24" viewBox="0 0 24 24">
    <path fill="#65676A" fill-rule="evenodd" d="M20 5c1.104 0 2 .896 2 2v10c0 1.104-.896 2-2 2H4c-1.104 0-2-.896-2-2V7c0-1.104.896-2 2-2zm-2.5 2h-1c-.276 0-.5.224-.5.5v9c0 .276.224.5.5.5h3c.276 0 .5-.224.5-.5v-1c0-.276-.224-.5-.5-.5H18V7.5c0-.276-.224-.5-.5-.5zm-5 0h-1c-.276 0-.5.224-.5.5v9c0 .276.224.5.5.5h3c.276 0 .5-.224.5-.5v-1c0-.276-.224-.5-.5-.5H13V7.5c0-.276-.224-.5-.5-.5zM8 7H6c-1.104 0-2 .896-2 2v7.5c0 .276.224.5.5.5h1c.276 0 .5-.224.5-.5V14h2v2.5c0 .276.224.5.5.5h1c.276 0 .5-.224.5-.5V9c0-1.104-.896-2-2-2zm-.5 2c.276 0 .5.224.5.5V12H6V9.5c0-.276.224-.5.5-.5z"/>
</svg>
