<svg xmlns="http://www.w3.org/2000/svg" width="24" height="24" viewBox="0 0 24 24">
    <path fill="#65676A" fill-rule="evenodd" d="M13.8 5.5h.9v-.9h-.9v.9zm-4.5 0h.9v-.9h-.9v.9zm5.877-2.556l1.17-1.17c.18-.18.18-.459 0-.639s-.459-.18-.639 0l-1.332 1.332C13.665 2.107 12.855 1.9 12 1.9c-.864 0-1.674.207-2.394.567L8.265 1.135c-.18-.18-.459-.18-.639 0s-.18.459 0 .639l1.179 1.179C7.473 3.934 6.6 5.509 6.6 7.3h10.8c0-1.791-.873-3.375-2.223-4.356zM19.65 8.2c-.747 0-1.35.603-1.35 1.35v6.3c0 .747.603 1.35 1.35 1.35.747 0 1.35-.603 1.35-1.35v-6.3c0-.747-.603-1.35-1.35-1.35zm-15.3 0C3.603 8.2 3 8.803 3 9.55v6.3c0 .747.603 1.35 1.35 1.35.747 0 1.35-.603 1.35-1.35v-6.3c0-.747-.603-1.35-1.35-1.35zm2.25 9c0 .495.405.9.9.9h.9v3.15c0 .747.603 1.35 1.35 1.35.747 0 1.35-.603 1.35-1.35V18.1h1.8v3.15c0 .747.603 1.35 1.35 1.35.747 0 1.35-.603 1.35-1.35V18.1h.9c.495 0 .9-.405.9-.9v-9H6.6v9z"/>
</svg>
