<svg xmlns="http://www.w3.org/2000/svg" width="24" height="24" fill="none" viewBox="0 0 24 24">
    <path fill="#65676A" fill-rule="evenodd" d="M22 6.5c0 2.483-2.014 4.497-4.499 4.497-2.484 0-4.499-2.014-4.499-4.498 0-2.485 2.015-4.499 4.5-4.499C19.985 2 22 4.014 22 6.5zm-3 10.573V12h2v5.073C21 19.241 19.241 21 17.073 21H6.927C4.758 21 3 19.242 3 17.073V6.927C3 4.76 4.758 3 6.927 3H12v2H6.927C5.863 5 5 5.863 5 6.927v10.146C5 18.137 5.863 19 6.927 19h10.146C18.137 19 19 18.137 19 17.073z" clip-rule="evenodd"/>
</svg>
