<svg width="24" height="24" viewBox="0 0 24 24" fill="none" xmlns="http://www.w3.org/2000/svg">
<g id="app-push">
<path id="Combined Shape" fill-rule="evenodd" clip-rule="evenodd" d="M22.0001 6.49918C22.0001 8.98318 19.9861 10.9972 17.5011 10.9972C15.0171 10.9972 13.0021 8.98318 13.0021 6.49918C13.0021 4.01418 15.0171 2.00018 17.5011 2.00018C19.9861 2.00018 22.0001 4.01418 22.0001 6.49918ZM19.0002 17.0731V12.0001H21.0002V17.0731C21.0002 19.2414 19.2415 21.0001 17.0732 21.0001H6.9272C4.75821 21.0001 3.0002 19.2417 3.0002 17.0731V6.92708C3.0002 4.75851 4.75821 3.00008 6.9272 3.00008H12.0002V5.00008H6.9272C5.86288 5.00008 5.0002 5.86297 5.0002 6.92708V17.0731C5.0002 18.1372 5.86288 19.0001 6.9272 19.0001H17.0732C18.1369 19.0001 19.0002 18.1368 19.0002 17.0731Z" fill="#313234"/>
</g>
</svg>
