<svg width="24" height="24" viewBox="0 0 24 24" fill="none" xmlns="http://www.w3.org/2000/svg">
<g id="app-plus">
<path id="Combined Shape" fill-rule="evenodd" clip-rule="evenodd" d="M16 6V3H18V6H21V8H18V11H16V8H13V6H16ZM19.0002 12.0001V17.0731C19.0002 18.1368 18.1369 19.0001 17.0732 19.0001H6.9272C5.86288 19.0001 5.0002 18.1372 5.0002 17.0731V6.9271C5.0002 5.86299 5.86288 5.0001 6.9272 5.0001H12.0002V3.0001H6.9272C4.75821 3.0001 3.0002 4.75852 3.0002 6.9271V17.0731C3.0002 19.2417 4.75821 21.0001 6.9272 21.0001H17.0732C19.2415 21.0001 21.0002 19.2414 21.0002 17.0731V12.0001H19.0002Z" fill="#313234"/>
</g>
</svg>
