<svg width="24" height="24" viewBox="0 0 24 24" fill="none" xmlns="http://www.w3.org/2000/svg">
<g id="app-check">
<path id="Combined Shape" fill-rule="evenodd" clip-rule="evenodd" d="M17.0732 19.0003C18.1362 19.0003 19.0002 18.1353 19.0002 17.0733V12.0003H21.0002V17.0733C21.0002 19.2383 19.2382 21.0003 17.0732 21.0003H6.92718C4.76218 21.0003 3.00018 19.2383 3.00018 17.0733V6.92731C3.00018 4.76131 4.76218 3.00031 6.92718 3.00031H12.0002V5.00031H6.92718C5.86418 5.00031 5.00018 5.86431 5.00018 6.92731V17.0733C5.00018 18.1353 5.86418 19.0003 6.92718 19.0003H17.0732ZM10.811 8.01211L14.965 12.0001L22 5.38911L20.631 3.93211L14.98 9.24111L12.196 6.56811L10.811 8.01211Z" fill="#313234"/>
</g>
</svg>
