<svg xmlns="http://www.w3.org/2000/svg" width="24" height="24" viewBox="0 0 24 24">
    <path fill="#65676A" fill-rule="evenodd" d="M10 13c.552 0 1 .447 1 1v6c0 .552-.448 1-1 1H4c-.552 0-1-.448-1-1v-6c0-.553.448-1 1-1zm10 0c.552 0 1 .447 1 1v6c0 .552-.448 1-1 1h-6c-.552 0-1-.448-1-1v-6c0-.553.448-1 1-1zM9 15H5v4h4v-4zm10 0h-4v4h4v-4zM10 3c.552 0 1 .447 1 1v6c0 .552-.448 1-1 1H4c-.552 0-1-.448-1-1V4c0-.553.448-1 1-1zm10 0c.552 0 1 .447 1 1v6c0 .552-.448 1-1 1h-6c-.552 0-1-.448-1-1V4c0-.553.448-1 1-1zM9 5H5v4h4V5zm10 0h-4v4h4V5z"/>
</svg>
