<svg xmlns="http://www.w3.org/2000/svg" width="24" height="24" fill="none" viewBox="0 0 24 24">
    <path fill="#65676A" fill-rule="evenodd" d="M4 3h6c.552 0 1 .447 1 1v6c0 .552-.448 1-1 1H4c-.552 0-1-.448-1-1V4c0-.553.448-1 1-1zm5 6H5V5h4v4zm5-6h6c.552 0 1 .447 1 1v6c0 .552-.448 1-1 1h-6c-.552 0-1-.448-1-1V4c0-.553.448-1 1-1zm5 6h-4V5h4v4zm-9 4H4c-.552 0-1 .447-1 1v6c0 .552.448 1 1 1h6c.552 0 1-.448 1-1v-6c0-.553-.448-1-1-1zm-5 6h4v-4H5v4zm9-6h6c.552 0 1 .447 1 1v6c0 .552-.448 1-1 1h-6c-.552 0-1-.448-1-1v-6c0-.553.448-1 1-1zm5 6h-4v-4h4v4z" clip-rule="evenodd"/>
</svg>
