<svg xmlns="http://www.w3.org/2000/svg" width="24" height="24" fill="none" viewBox="0 0 24 24">
    <path fill="#65676A" fill-rule="evenodd" d="M9 9H5V5h4v4zM3.5 3h7c.276 0 .5.224.5.5v7c0 .276-.224.5-.5.5h-7c-.276 0-.5-.224-.5-.5v-7c0-.276.224-.5.5-.5zM19 9h-4V5h4v4zm1.5 2h-7c-.276 0-.5-.224-.5-.5v-7c0-.276.224-.5.5-.5h7c.276 0 .5.224.5.5v7c0 .276-.224.5-.5.5zM5 19h4v-4H5v4zm5.5-6h-7c-.276 0-.5.224-.5.5v7c0 .276.224.5.5.5h7c.276 0 .5-.224.5-.5v-7c0-.276-.224-.5-.5-.5zm7.5 3h3v2h-3v3h-2v-3h-3v-2h3v-3h2v3z" clip-rule="evenodd"/>
</svg>
