<svg xmlns="http://www.w3.org/2000/svg" width="24" height="24" viewBox="0 0 24 24">
    <path fill="#65676A" fill-rule="evenodd" d="M10.5 13c.276 0 .5.224.5.5v7c0 .276-.224.5-.5.5h-7c-.276 0-.5-.224-.5-.5v-7c0-.276.224-.5.5-.5zm7.5 0v3h3v2h-3v3h-2v-3h-3v-2h3v-3h2zm-9 2H5v4h4v-4zm1.5-12c.276 0 .5.224.5.5v7c0 .276-.224.5-.5.5h-7c-.276 0-.5-.224-.5-.5v-7c0-.276.224-.5.5-.5zm10 0c.276 0 .5.224.5.5v7c0 .276-.224.5-.5.5h-7c-.276 0-.5-.224-.5-.5v-7c0-.276.224-.5.5-.5zM9 5H5v4h4V5zm10 0h-4v4h4V5z"/>
</svg>
