<svg xmlns="http://www.w3.org/2000/svg" width="24" height="24" viewBox="0 0 24 24">
    <path fill="#65676A" fill-rule="evenodd" d="M8.5 13.487c3.454 0 6.28 2.688 6.5 6.086.014.232-.18.427-.413.427H2.413c-.232 0-.427-.195-.413-.427.22-3.398 3.046-6.086 6.5-6.086zM21.715 2c.157 0 .285.127.285.284v10.747c0 .244-.287.375-.47.215L18 10.182l-3.53 3.064c-.184.16-.47.03-.47-.215V2.284c0-.157.127-.284.284-.284zM8.5 6.974c1.574 0 2.85 1.276 2.85 2.849 0 1.574-1.276 2.85-2.85 2.85s-2.85-1.276-2.85-2.85c0-1.573 1.276-2.85 2.85-2.85z"/>
</svg>
