<svg width="24" height="24" viewBox="0 0 24 24" fill="none" xmlns="http://www.w3.org/2000/svg">
<g id="bank">
<g id="Combined Shape">
<path fill-rule="evenodd" clip-rule="evenodd" d="M21 6L12 2L3 6V9H21V6ZM5.673 7L12 4.188L18.326 7H5.673Z" fill="#313234"/>
<path d="M5 10H7V18H5V10Z" fill="#313234"/>
<path d="M19 10H17V18H19V10Z" fill="#313234"/>
<path d="M3 19V21H21V19H3Z" fill="#313234"/>
<path d="M12.3247 13.296L13.068 13.592C13.804 13.888 14.2433 14.3833 14.2433 15.2233C14.2433 16.0413 13.67 16.7693 12.6633 17.002V18H11.33V17.0173C10.7593 16.9033 10.1973 16.6433 9.75 16.2307L10.5573 15.2467C10.9813 15.6067 11.5327 15.8547 12.0047 15.8547C12.5327 15.8547 12.78 15.6547 12.78 15.3353C12.78 15.0146 12.4954 14.8955 12.0419 14.7058C12.009 14.6921 11.9753 14.6779 11.9407 14.6633L11.1813 14.3433C10.5573 14.096 9.974 13.576 9.974 12.7127C9.974 11.9427 10.5087 11.2953 11.33 11.0367V10H12.6633V10.966C13.1787 11.066 13.6807 11.31 14.068 11.6973L13.356 12.5927C12.964 12.2967 12.596 12.1367 12.1327 12.1367C11.6927 12.1367 11.4207 12.3127 11.4207 12.6327C11.4207 12.9428 11.7569 13.0741 12.2399 13.2628C12.2677 13.2737 12.2959 13.2847 12.3247 13.296Z" fill="#313234"/>
</g>
</g>
</svg>
