<svg width="24" height="24" viewBox="0 0 24 24" fill="none" xmlns="http://www.w3.org/2000/svg">
<g id="bold">
<path id="Combined Shape" fill-rule="evenodd" clip-rule="evenodd" d="M5.00021 3.00012H13.5002C16.5378 3.00012 19.0002 5.46255 19.0002 8.50012C19.0002 9.56642 18.6968 10.5619 18.1715 11.4048C19.294 12.4117 20.0002 13.8735 20.0002 15.5001C20.0002 18.5377 17.5378 21.0001 14.5002 21.0001H5.00021V3.00012ZM9 16.9999V14L14.5002 14.0001C15.3286 14.0001 16.0002 14.6717 16.0002 15.5001C16.0002 16.3285 15.3286 17 14.5002 17L9 16.9999ZM9 7.00012V10L13.5002 10.0001C14.3286 10.0001 15.0002 9.32858 15.0002 8.50017C15.0002 7.67177 14.3286 7.00022 13.5002 7.00022L9 7.00012Z" fill="#242428"/>
</g>
</svg>
