<svg xmlns="http://www.w3.org/2000/svg" width="24" height="24" fill="none" viewBox="0 0 24 24">
    <path fill="#65676A" fill-rule="evenodd" d="M16.071 3h4.43c.827 0 1.5.672 1.5 1.5v14c0 .828-.673 1.5-1.5 1.5h-4.43c-1.06 0-2.078.422-2.828 1.17l-.535.537c-.39.39-1.024.391-1.415 0l-.536-.536c-.75-.75-1.767-1.17-2.828-1.17H3.5c-.828 0-1.5-.673-1.5-1.5v-14C2 3.67 2.672 3 3.5 3h4.43c1.51 0 2.964.57 4.07 1.591C13.107 3.571 14.56 3 16.07 3zm3.93 2h-3.93c-1.06 0-2.078.422-2.828 1.17L13 6.415v12.431c.921-.548 1.981-.845 3.071-.845h3.93V5zm-9 13.846V6.414l-.244-.243c-.75-.75-1.767-1.17-2.828-1.17H4v13h3.93c1.09 0 2.15.296 3.07.845z" clip-rule="evenodd"/>
</svg>
