<svg xmlns="http://www.w3.org/2000/svg" width="24" height="24" viewBox="0 0 24 24">
    <path fill="#65676A" fill-rule="evenodd" d="M7.93 3c1.51 0 2.964.57 4.07 1.592C13.106 3.571 14.56 3 16.07 3h4.43c.827 0 1.5.672 1.5 1.5v14c0 .828-.673 1.5-1.5 1.5h-4.43c-1.06 0-2.078.422-2.828 1.17l-.535.537c-.39.39-1.024.391-1.415 0l-.536-.536c-.75-.75-1.767-1.17-2.828-1.17H3.5c-.828 0-1.5-.673-1.5-1.5v-14C2 3.67 2.672 3 3.5 3h4.43zm0 2H4v13h3.93c1.09 0 2.15.297 3.072.846L11 6.416l-.243-.245c-.75-.75-1.767-1.17-2.828-1.17zM20 5h-3.929c-1.06 0-2.078.422-2.828 1.17L13 6.413v12.434c.921-.55 1.981-.846 3.071-.846h3.93V5z"/>
</svg>
