<svg width="24" height="24" viewBox="0 0 24 24" fill="none" xmlns="http://www.w3.org/2000/svg">
<path fill-rule="evenodd" clip-rule="evenodd" d="M5.96399 3.047V20.355L12 15.113L18.036 20.355V3.047H5.96399ZM5.46899 22.953C5.25799 22.953 5.04399 22.908 4.84099 22.815C4.29999 22.568 3.96399 22.046 3.96399 21.451V2.547C3.96399 1.72 4.63699 1.047 5.46399 1.047H18.536C19.363 1.047 20.036 1.72 20.036 2.547V21.45C20.036 22.045 19.699 22.568 19.158 22.815C18.617 23.062 18.002 22.973 17.552 22.584L12 17.762L6.44799 22.583C6.16699 22.827 5.82099 22.953 5.46899 22.953Z" fill="#313234"/>
</svg>
