<svg xmlns="http://www.w3.org/2000/svg" width="24" height="24" fill="none" viewBox="0 0 24 24">
    <path fill="#65676A" fill-rule="evenodd" d="M12.464 4.464C13.44 3.488 14.72 3 16 3c1.28 0 2.56.488 3.535 1.464 1.953 1.953 1.953 5.12 0 7.072C18.56 12.512 17.28 13 16 13c-1.28 0-2.56-.488-3.536-1.464-1.952-1.953-1.952-5.119 0-7.072zm5.657 1.414c-.566-.566-1.32-.878-2.12-.878-.802 0-1.556.312-2.123.878C13.312 6.445 13 7.2 13 8c0 .801.312 1.555.878 2.121.567.567 1.321.88 2.122.88.801 0 1.555-.313 2.121-.88.567-.566.88-1.32.88-2.12 0-.802-.313-1.556-.88-2.123zm-6.585 13.658c-1.953 1.953-5.118 1.953-7.071 0-1.953-1.953-1.953-5.12 0-7.071 1.953-1.953 5.118-1.953 7.07 0 1.953 1.952 1.953 5.118 0 7.07z" clip-rule="evenodd"/>
</svg>
