<svg xmlns="http://www.w3.org/2000/svg" width="24" height="24" viewBox="0 0 24 24">
    <path fill="#65676A" fill-rule="evenodd" d="M20 6.996V7h3v4.244c0 1.836-1.326 3.362-3.07 3.687-.213 1.585-.953 3.003-2.045 4.069H21v2H3v-2h3.115C4.812 17.728 4 15.956 4 13.996v-7h16zm-2 2H6v5c0 2.757 2.243 5 5 5h2c2.757 0 5-2.243 5-5v-5zM21 9h-1v3.822c.59-.284 1-.882 1-1.578V9zm-3.006-7v.308C17.994 3.793 16.65 5 14.997 5c-.53 0-.997.324-.997.692V6h-2v-.308C12 4.208 13.344 3 14.997 3c.531 0 .997-.324.997-.692V2h2z"/>
</svg>
