<svg xmlns="http://www.w3.org/2000/svg" width="24" height="24" viewBox="0 0 24 24">
    <path fill="#65676A" fill-rule="evenodd" d="M21.66 9.348l-.001-.007-.045-.162-.007-.024-.045-.15-.01-.034-.046-.144-.012-.037-.047-.14-.015-.04-.049-.137-.015-.04-.052-.136-.014-.035-.016-.04-.04-.1-.006-.015c-.064-.155-.133-.308-.205-.46l-.014-.03c-.017-.037-.035-.072-.053-.108l-.031-.064-.05-.097-.038-.073-.049-.09-.042-.079-.048-.085-.046-.082-.048-.081-.05-.084-.047-.078-.054-.085-.047-.075-.057-.088-.046-.07-.063-.092-.044-.064-.072-.102-.038-.052-.112-.152c-.29-.38-.605-.738-.943-1.07-.237-.244-.489-.472-.753-.682-.154-.132-.313-.257-.478-.376-.316-.237-.662-.45-1.04-.636-.086-.045-.174-.09-.262-.132-.716-.347-1.463-.62-2.235-.79-.103-.023-.206-.044-.31-.063-.515-.098-1.039-.154-1.568-.165L12.175 2c-.699-.002-1.388.068-2.042.205-1.42.3-2.67.913-3.46 1.68l.004-.003-.004.004.006-.005.005-.003-.003.003.01-.007c.591-.354 1.407-.641 1.99-.788l.096-.024c.11-.026.223-.05.34-.073l.003-.001.097-.018c2.584-.47 5.339.3 7.257 2.136.413.394.783.836 1.082 1.322 1.224 1.985 1.109 4.48.154 5.953-.709 1.093-2.227 2.119-3.643 2.108l.086.003-.057-.001-.088-.004c-.703-.043-1.308-.212-1.814-.47-2.192-1.12-2.519-3.907-.933-5.255-.526-.113-1.516.108-2.205 1.136-.618.922-.583 2.346-.202 3.357-.232-.487-.402-.982-.49-1.58-.48-3.225 1.61-5.99 3.609-6.8l.042-.016.054-.021.097-.035c-.45-.392-1.177-.614-2.018-.638-1.162-.033-2.543.312-3.727 1.108l-.21.147-.127.096-.039.03-.086.069-.044.036-.08.068-.043.036-.094.083-.024.022-.113.105-.039.038-.073.071-.046.046-.064.067-.046.049-.065.07-.042.046-.096.11-.045.054-.054.065-.05.062-.046.06c-.017.02-.034.043-.05.065l-.043.056-.051.07-.029.041-.107.154-.03.045-.053.082-.03.047-.052.085-.025.042c-.019.03-.037.062-.055.093l-.005.009c-.045.077-.089.156-.13.236l-.002.003-.055.106-.015.03-.051.105-.015.03c-.076.162-.148.327-.213.497l-.007.017-.045.12-.009.023c-.015.04-.03.082-.043.123l-.002.004-.089.274c.036-.445.142-1.005.33-1.625l.004-.011.028-.093.008-.023.027-.085.01-.03.027-.08.013-.039.026-.073.016-.045.025-.07.019-.05.025-.066.02-.055.025-.062.023-.06.024-.059.026-.064.023-.055.03-.07.022-.05.032-.075.021-.047.037-.08.019-.042.043-.091.014-.031.056-.115.004-.008c.02-.042.042-.083.063-.125-.216.112-.451.299-.685.535l-.07.073c-.49.516-.968 1.24-1.254 1.926-.483 1.164-.725 2.502-.72 3.841.002.399.025.797.07 1.191l.008.063c.011.101.022.202.035.303l.003.02c.805 4.724 4.918 8.32 9.87 8.32C17.516 21.953 22 17.47 22 11.939c0-.896-.118-1.765-.34-2.591"/>
</svg>
