<svg xmlns="http://www.w3.org/2000/svg" width="24" height="24" viewBox="0 0 24 24">
    <path fill="#65676A" fill-rule="evenodd" d="M21.275 8.28C21.739 9.431 22 10.684 22 12c0 5.373-4.263 9.757-9.581 9.978l4.187-7.252c.022-.038.024-.08.04-.12.437-.775.707-1.656.707-2.606 0-1.447-.582-2.756-1.518-3.72zm-18.13-.912l4.191 7.259c.02.033.052.054.075.085.933 1.572 2.63 2.641 4.59 2.641.453 0 .887-.075 1.308-.181l-2.723 4.716C5.741 21.197 2 17.033 2 12c0-1.672.417-3.246 1.145-4.632zM12 8.28c2.052 0 3.721 1.668 3.721 3.72 0 2.051-1.669 3.721-3.721 3.721-2.051 0-3.72-1.67-3.72-3.72 0-2.053 1.669-3.72 3.72-3.72zM12 2c3.544 0 6.657 1.859 8.433 4.648h-8.376l-.02.004L12 6.648c-2.447 0-4.494 1.66-5.13 3.908L4.145 5.833C5.977 3.503 8.814 2 12 2z"/>
</svg>
