<svg xmlns="http://www.w3.org/2000/svg" width="24" height="24" viewBox="0 0 24 24">
    <path fill="#65676A" fill-rule="evenodd" d="M13.047 7.717c2.086 0 3.485 1.474 3.904 3.48H9.294c.38-2.006 1.666-3.48 3.753-3.48zm6.88-3.538c1.015 1.056.745 2.949.288 3.838-.965-1.54-2.413-2.746-4.13-3.408 1.081-.51 3.046-1.257 3.841-.43zM4.46 19.329c-.607-.816.135-2.696.683-3.835.619 1.63 1.726 3.02 3.146 3.99-.975.282-3.14.777-3.83-.154zM17 13.53h4.433c.043-.337.066-.682.066-1.033 0-1.468-.375-2.85-1.035-4.054.485-.993 1.27-3.051.364-4.56-1.236-2.058-5.707-.942-7.373.172-.136-.006-.271-.01-.409-.01-4.05 0-7.433 2.849-8.258 6.652 2.082-3 4.707-3.684 4.707-3.684-2.105.87-4.897 5.669-4.897 5.669l-.056.086c-.682 1.038-1.552 2.746-1.98 5.17-.373 2.1.781 4.933 6.887 2.209 1.091.514 2.31.803 3.598.803 3.708 0 6.856-2.388 7.995-5.71h-4.616c-.672 1.23-1.838 2.037-3.38 2.037-2.178 0-3.485-1.603-3.799-3.746h7.753z"/>
</svg>
