<svg xmlns="http://www.w3.org/2000/svg" width="24" height="24" fill="none" viewBox="0 0 24 24">
    <path fill="#65676A" fill-rule="evenodd" d="M4.5 21h15c.828 0 1.5-.672 1.5-1.5v-15c0-.828-.672-1.5-1.5-1.5h-15C3.672 3 3 3.672 3 4.5v15c0 .828.672 1.5 1.5 1.5zM5 8v11h14V8H5zm1.628 3.81c0-.683.553-1.237 1.237-1.237.683 0 1.237.554 1.237 1.237 0 .684-.554 1.238-1.237 1.238-.684 0-1.237-.554-1.237-1.238zm4.129 0c0-.683.554-1.237 1.237-1.237.684 0 1.237.554 1.237 1.237 0 .684-.553 1.238-1.237 1.238-.683 0-1.237-.554-1.237-1.238zm5.366-1.237c-.684 0-1.238.554-1.238 1.237 0 .684.554 1.238 1.238 1.238.683 0 1.237-.554 1.237-1.238 0-.683-.554-1.237-1.237-1.237zm-9.495 5.19c0-.684.553-1.238 1.237-1.238.683 0 1.237.554 1.237 1.237 0 .684-.554 1.238-1.237 1.238-.684 0-1.237-.553-1.237-1.238zm5.366-1.238c-.683 0-1.237.554-1.237 1.237 0 .684.554 1.238 1.237 1.238.684 0 1.237-.553 1.237-1.238 0-.683-.553-1.237-1.237-1.237zm2.891 1.237c0-.683.554-1.237 1.238-1.237.683 0 1.237.554 1.237 1.237 0 .684-.554 1.238-1.237 1.238-.684 0-1.238-.553-1.238-1.238z" clip-rule="evenodd"/>
</svg>
