<svg xmlns="http://www.w3.org/2000/svg" width="24" height="24" viewBox="0 0 24 24">
    <path fill="#65676A" fill-rule="evenodd" d="M19.5 3c.828 0 1.5.672 1.5 1.5v15c0 .828-.672 1.5-1.5 1.5h-15c-.828 0-1.5-.672-1.5-1.5v-15C3 3.672 3.672 3 4.5 3h15zm-.501 5h-14L5 19h14l-.001-11zM7.865 14.525l.126.007c.624.063 1.11.59 1.11 1.23 0 .684-.553 1.238-1.236 1.238-.684 0-1.237-.553-1.237-1.238 0-.683.553-1.237 1.237-1.237zm4.129 0l.126.007c.625.063 1.11.59 1.11 1.23 0 .684-.552 1.238-1.236 1.238-.683 0-1.237-.553-1.237-1.238 0-.683.554-1.237 1.237-1.237zm4.13 0l.126.007c.623.063 1.11.59 1.11 1.23 0 .684-.554 1.238-1.237 1.238-.684 0-1.238-.553-1.238-1.238 0-.683.554-1.237 1.238-1.237zm-8.26-3.952l.127.007c.624.063 1.11.59 1.11 1.23 0 .684-.553 1.238-1.236 1.238-.684 0-1.237-.554-1.237-1.238 0-.683.553-1.237 1.237-1.237zm4.13 0l.126.007c.625.063 1.11.59 1.11 1.23 0 .684-.552 1.238-1.236 1.238-.683 0-1.237-.554-1.237-1.238 0-.683.554-1.237 1.237-1.237zm4.13 0l.126.007c.623.063 1.11.59 1.11 1.23 0 .684-.554 1.238-1.237 1.238-.684 0-1.238-.554-1.238-1.238 0-.683.554-1.237 1.238-1.237z"/>
</svg>
