<svg xmlns="http://www.w3.org/2000/svg" width="24" height="24" viewBox="0 0 24 24">
    <path fill="#65676A" fill-rule="evenodd" d="M8.378 4.428l.786 2.668c.206.7.014 1.455-.502 1.97l-1.387 1.388c1.515 2.598 3.673 4.755 6.27 6.271l1.389-1.388c.516-.515 1.27-.708 1.97-.502l2.668.786c.955.282 1.555 1.225 1.406 2.208l-.043.28-.38 2.501c-.037.25-.27.422-.52.384l-.527-.08C11.026 19.627 4.37 12.97 3.085 4.488l-.08-.523c-.037-.25.134-.484.384-.52l2.78-.423c.985-.149 1.928.451 2.209 1.406zM19.5 3c.827 0 1.5.673 1.5 1.5V10h-2V6.418l-5.293 5.29-1.414-1.416L17.59 5H14V3z"/>
</svg>
