<svg width="24" height="24" viewBox="0 0 24 24" fill="none" xmlns="http://www.w3.org/2000/svg">
<g id="call-pull">
<path id="Combined Shape" fill-rule="evenodd" clip-rule="evenodd" d="M10.9645 8.41396C10.2189 7.66842 10.185 6.4807 10.8628 5.69496L10.9645 5.58554L14.5 2.05L15.9142 3.46422L13.3784 6H19C20.5977 6 21.9037 7.24892 21.9949 8.82372L22 9V12.5H20V9C20 8.48716 19.6139 8.06449 19.1166 8.00672L19 8H13.3789L15.9142 10.5353L14.5 11.9495L10.9645 8.41396ZM19.5076 20.9144L20.0346 20.9944C20.2846 21.0324 20.5176 20.8604 20.5556 20.6104L20.9346 18.1084L20.9776 17.8294C21.1266 16.8464 20.5266 15.9034 19.5716 15.6214L16.9046 14.8354C16.2046 14.6294 15.4496 14.8224 14.9336 15.3374L13.5456 16.7254C10.9476 15.2094 8.78959 13.0524 7.27459 10.4544L8.66159 9.06641C9.17759 8.55141 9.36959 7.79541 9.16359 7.09641L8.37759 4.42841C8.09659 3.47341 7.15359 2.87341 6.16959 3.02241L3.38859 3.44441C3.13859 3.48141 2.96759 3.71541 3.00559 3.96541L3.08459 4.48841C4.36959 12.9704 11.0256 19.6274 19.5076 20.9144Z" fill="#242428"/>
</g>
</svg>
