<svg width="24" height="24" viewBox="0 0 24 24" fill="none" xmlns="http://www.w3.org/2000/svg">
<path fill-rule="evenodd" clip-rule="evenodd" d="M19.5076 20.9144L20.0346 20.9944C20.2846 21.0324 20.5176 20.8604 20.5556 20.6104L20.9346 18.1084L20.9776 17.8294C21.1266 16.8464 20.5266 15.9034 19.5716 15.6214L16.9046 14.8354C16.2046 14.6294 15.4496 14.8224 14.9336 15.3374L13.5456 16.7254C10.9476 15.2094 8.78959 13.0524 7.27459 10.4544L8.66159 9.0664C9.17759 8.5514 9.36959 7.7954 9.16359 7.0964L8.37759 4.4284C8.09659 3.4734 7.15359 2.8734 6.16959 3.0224L3.38859 3.4444C3.13859 3.4814 2.96759 3.7154 3.00559 3.9654L3.08459 4.4884C4.36959 12.9704 11.0256 19.6274 19.5076 20.9144ZM14.0002 3.0001H19.5002C20.3272 3.0001 21.0002 3.6731 21.0002 4.5001V10.0001H19.0002V6.4181L13.7072 11.7081L12.2932 10.2921L17.5902 5.0001H14.0002V3.0001Z" fill="#65676A"/>
</svg>
