<svg xmlns="http://www.w3.org/2000/svg" width="24" height="24" viewBox="0 0 24 24">
    <path fill="#65676A" fill-rule="evenodd" d="M10 2v2H6.451L12 9.55l6.256-6.257 1.414 1.414-6.633 6.633c3.486.196 6.929 1.382 9.884 3.559l.404.297c.19.14.232.41.09.602l-1.411 1.917-.157.212c-.555.754-1.581.98-2.403.534l-2.297-1.251c-.602-.328-.976-.96-.976-1.644V13.72c-2.736-.72-5.605-.72-8.341-.001v1.847c0 .685-.375 1.316-.977 1.644l-2.297 1.25c-.822.449-1.848.22-2.403-.533l-1.57-2.13c-.14-.19-.1-.46.092-.601l.4-.295c2.956-2.178 6.4-3.365 9.887-3.561L5 5.378V9H3V4l.005-.15C3.082 2.817 3.945 2 5 2h5z"/>
</svg>
