<svg width="24" height="24" viewBox="0 0 24 24" fill="none" xmlns="http://www.w3.org/2000/svg">
<g id="call-off">
<path id="Fill 3" fill-rule="evenodd" clip-rule="evenodd" d="M23.3249 12.1959L22.9209 11.8989C16.4249 7.1139 7.57089 7.1149 1.07589 11.9009L0.674889 12.1959C0.483889 12.3369 0.442889 12.6069 0.583889 12.7979L2.15289 14.9269C2.70789 15.6809 3.73389 15.9089 4.55589 15.4609L6.85289 14.2099C7.45489 13.8819 7.82989 13.2509 7.82989 12.5659V10.7189C10.5659 9.9999 13.4349 9.9999 16.1709 10.7199V12.5659C16.1709 13.2509 16.5449 13.8819 17.1469 14.2099L19.4439 15.4609C20.2659 15.9079 21.2919 15.6809 21.8469 14.9269L22.0039 14.7149L23.4159 12.7979C23.5569 12.6059 23.5159 12.3369 23.3249 12.1959Z" fill="#242428"/>
</g>
</svg>
