<svg xmlns="http://www.w3.org/2000/svg" width="24" height="24" viewBox="0 0 24 24">
    <path fill="#65676A" fill-rule="evenodd" d="M15.691 5c.19 0 .362.106.447.276L17 7h4.5c.276 0 .5.224.5.5v12c0 .276-.224.5-.5.5h-19c-.276 0-.5-.224-.5-.5v-12c0-.276.224-.5.5-.5H7l.862-1.724C7.946 5.106 8.12 5 8.31 5zm-3.69 2.5c-3.034 0-5.5 2.467-5.5 5.5 0 3.032 2.466 5.5 5.5 5.5 3.032 0 5.5-2.468 5.5-5.5 0-3.033-2.468-5.5-5.5-5.5zM12 9c2.208 0 4 1.791 4 4 0 2.21-1.792 4-4 4-2.21 0-4-1.79-4-4 0-2.209 1.79-4 4-4z"/>
</svg>
