<svg xmlns="http://www.w3.org/2000/svg" width="24" height="24" viewBox="0 0 24 24">
    <path fill="#65676A" fill-rule="evenodd" d="M13.665 2.136c4.053.656 7.32 3.8 8.13 7.824.47 2.335.135 4.662-.97 6.73-.047.089-.118.266-.06.442l.869 2.604c.18.542.042 1.13-.363 1.535-.405.404-.994.542-1.535.362l-2.605-.868c-.175-.058-.35.013-.44.06-1.456.778-3.055 1.176-4.69 1.176-.486 0-.975-.035-1.464-.106-4.27-.617-7.726-4.01-8.404-8.251-.52-3.246.503-6.425 2.804-8.721 2.3-2.297 5.484-3.312 8.728-2.787zM11.999 4c-2.121 0-4.126.818-5.65 2.337-1.84 1.838-2.658 4.386-2.242 6.99.542 3.386 3.303 6.095 6.716 6.588 1.71.247 3.416-.048 4.926-.855.642-.342 1.358-.412 2.015-.193l1.656.55-.552-1.654c-.218-.656-.15-1.371.193-2.015.884-1.655 1.15-3.52.774-5.394-.647-3.212-3.254-5.722-6.49-6.245C12.895 4.037 12.445 4 12 4zM8.787 9.855c.845 0 1.2.61 1.2 2.105s-.355 2.105-1.2 2.105-1.198-.61-1.198-2.104c0-1.495.353-2.106 1.198-2.106zm6.427 0c.845 0 1.198.61 1.198 2.105s-.353 2.105-1.198 2.105-1.199-.61-1.199-2.104c0-1.495.354-2.106 1.2-2.106z"/>
</svg>
