<svg xmlns="http://www.w3.org/2000/svg" width="24" height="24" fill="none" viewBox="0 0 24 24">
    <path fill="#65676A" fill-rule="evenodd" d="M1 11.9C1.054 5.872 5.959 1 12 1c6.075 0 11 4.925 11 11s-4.925 11-11 11C5.959 23 1.054 18.128 1 12.1v-.2zm10.107 7.195c.295.037.592.055.89.055 1.123 0 2.221-.262 3.223-.77l1.458.626c.668.286 1.439.137 1.952-.376.514-.515.663-1.284.375-1.952l-.625-1.46c.644-1.269.89-2.688.715-4.111-.396-3.21-2.998-5.812-6.201-6.203-2.215-.269-4.385.474-5.95 2.04-1.566 1.565-2.31 3.736-2.04 5.95.39 3.202 2.994 5.805 6.203 6.201zm3.513-2.194c-.81.435-1.704.66-2.622.66-.234 0-.466-.014-.696-.043-2.486-.307-4.519-2.339-4.82-4.816-.211-1.73.366-3.415 1.586-4.635 1.218-1.219 2.903-1.796 4.634-1.586 2.478.302 4.51 2.335 4.816 4.82.143 1.156-.071 2.303-.618 3.32-.181.335-.19.74-.036 1.093l.681 1.59c.03.072.016.148-.039.202-.054.054-.131.07-.202.04l-1.593-.684c-.354-.15-.756-.142-1.091.039zm-4.538-5.89c-.61 0-.863-.443-.863-1.394 0-.95.254-1.394.863-1.394.608 0 .861.443.861 1.394 0 .951-.253 1.394-.861 1.394zm2.975-1.394c0 .951.253 1.394.862 1.394s.862-.443.862-1.394c0-.951-.253-1.394-.862-1.394-.61 0-.862.443-.862 1.394zm.455 1.787h-3.024c-.173 0-.302.16-.27.329.154.844.893 1.484 1.781 1.484.89 0 1.63-.64 1.784-1.484.03-.17-.098-.329-.271-.329z" clip-rule="evenodd"/>
</svg>
