<svg xmlns="http://www.w3.org/2000/svg" width="24" height="24" fill="none" viewBox="0 0 24 24">
    <path fill="#65676A" fill-rule="evenodd" d="M12 1C5.959 1 1.054 5.872 1 11.9v.2C1.054 18.128 5.959 23 12 23c6.075 0 11-4.925 11-11S18.075 1 12 1zm5.898 13.952c-.197.392-.233.844-.094 1.26l.448 1.345c.143.43-.266.838-.696.695l-1.344-.448c-.416-.139-.868-.103-1.26.094-1.118.563-2.415.82-3.786.65-2.96-.369-5.354-2.757-5.715-5.718-.524-4.296 3.084-7.903 7.379-7.38 2.962.362 5.35 2.756 5.718 5.717.17 1.372-.087 2.668-.65 3.785zm-8.019-3.888c-.64 0-.907-.463-.907-1.594 0-1.132.267-1.595.907-1.595s.908.463.908 1.595c0 1.131-.267 1.594-.908 1.594zm4.243.001c-.641 0-.908-.463-.908-1.595s.267-1.595.908-1.595c.64 0 .907.463.907 1.595s-.267 1.595-.907 1.595zm-3.692.316h3.14c.18 0 .313.165.281.342-.16.877-.928 1.54-1.852 1.54-.922 0-1.69-.663-1.85-1.54-.033-.177.101-.342.28-.342z" clip-rule="evenodd"/>
</svg>
