<svg xmlns="http://www.w3.org/2000/svg" width="24" height="24" viewBox="0 0 24 24">
    <path fill="#65676A" fill-rule="evenodd" d="M15.213 14.065c-.845 0-1.198-.61-1.198-2.105s.353-2.105 1.198-2.105 1.198.61 1.198 2.105-.353 2.105-1.198 2.105zm-6.427 0c-.845 0-1.198-.61-1.198-2.105s.353-2.105 1.198-2.105 1.198.61 1.198 2.105-.353 2.105-1.198 2.105zm12.008 4.317c-.21-.63-.157-1.316.142-1.91.853-1.692 1.243-3.657.985-5.735-.558-4.486-4.176-8.113-8.664-8.66-6.508-.794-11.974 4.672-11.18 11.18.547 4.488 4.174 8.107 8.66 8.664 2.078.259 4.042-.132 5.735-.984.594-.3 1.28-.353 1.91-.143l2.037.679c.651.217 1.271-.403 1.054-1.054l-.679-2.037z"/>
</svg>
