<svg xmlns="http://www.w3.org/2000/svg" width="24" height="24" fill="none" viewBox="0 0 24 24">
    <path fill="#65676A" fill-rule="evenodd" d="M7 7.5H3.5c-.276 0-.5-.224-.5-.5V3.5c0-.276.224-.5.5-.5H7c.276 0 .5.224.5.5V7c0 .276-.224.5-.5.5zm6.75 0h-3.5c-.276 0-.5-.224-.5-.5V3.5c0-.276.224-.5.5-.5h3.5c.276 0 .5.224.5.5V7c0 .276-.224.5-.5.5zm3.25 0h3.5c.276 0 .5-.224.5-.5V3.5c0-.276-.224-.5-.5-.5H17c-.276 0-.5.224-.5.5V7c0 .276.224.5.5.5zM7 14.25H3.5c-.276 0-.5-.224-.5-.5v-3.5c0-.276.224-.5.5-.5H7c.276 0 .5.224.5.5v3.5c0 .276-.224.5-.5.5zm3.25 0h3.5c.276 0 .5-.224.5-.5v-3.5c0-.276-.224-.5-.5-.5h-3.5c-.276 0-.5.224-.5.5v3.5c0 .276.224.5.5.5zm10.25 0H17c-.276 0-.5-.224-.5-.5v-3.5c0-.276.224-.5.5-.5h3.5c.276 0 .5.224.5.5v3.5c0 .276-.224.5-.5.5zM3.5 21H7c.276 0 .5-.224.5-.5V17c0-.276-.224-.5-.5-.5H3.5c-.276 0-.5.224-.5.5v3.5c0 .276.224.5.5.5zm10.25 0h-3.5c-.276 0-.5-.224-.5-.5V17c0-.276.224-.5.5-.5h3.5c.276 0 .5.224.5.5v3.5c0 .276-.224.5-.5.5zM17 21h3.5c.276 0 .5-.224.5-.5V17c0-.276-.224-.5-.5-.5H17c-.276 0-.5.224-.5.5v3.5c0 .276.224.5.5.5z" clip-rule="evenodd"/>
</svg>
