<svg xmlns="http://www.w3.org/2000/svg" width="24" height="24" fill="none" viewBox="0 0 24 24">
    <path fill="#65676A" fill-rule="evenodd" d="M1 11.9C1.054 5.872 5.959 1 12 1c6.075 0 11 4.925 11 11s-4.925 11-11 11C5.959 23 1.054 18.128 1 12.1v-.2zm10.998 7.25c-.299 0-.596-.018-.891-.055-3.21-.396-5.813-2.998-6.203-6.201-.27-2.214.474-4.385 2.04-5.95 1.565-1.566 3.735-2.309 5.95-2.04 3.203.39 5.805 2.994 6.2 6.203.176 1.423-.07 2.842-.714 4.112l.625 1.459c.288.668.14 1.437-.375 1.952-.513.513-1.284.662-1.952.376l-1.459-.626c-1.001.508-2.098.77-3.221.77zm0-1.589c.918 0 1.811-.225 2.622-.66.335-.18.737-.19 1.09-.04l1.594.684c.07.03.148.015.203-.039.054-.055.069-.13.038-.201l-.681-1.591c-.153-.352-.145-.758.036-1.094.547-1.016.76-2.163.618-3.319-.307-2.485-2.338-4.518-4.816-4.82-1.731-.21-3.416.367-4.634 1.586-1.22 1.22-1.797 2.905-1.586 4.635.301 2.477 2.334 4.51 4.82 4.816.23.029.462.043.696.043zm-2.779-5.56c0 .95.254 1.393.863 1.393.608 0 .861-.443.861-1.394 0-.95-.253-1.394-.861-1.394-.61 0-.863.443-.863 1.394zm4.7 1.393c-.61 0-.862-.443-.862-1.394 0-.95.253-1.394.862-1.394s.862.443.862 1.394c0 .952-.253 1.394-.862 1.394z" clip-rule="evenodd"/>
</svg>
