<svg xmlns="http://www.w3.org/2000/svg" width="24" height="24" fill="none" viewBox="0 0 24 24">
    <path fill="#65676A" fill-rule="evenodd" d="M12 1C5.959 1 1.054 5.872 1 11.9v.2C1.054 18.128 5.959 23 12 23c6.075 0 11-4.925 11-11S18.075 1 12 1zm5.804 15.212c-.139-.416-.103-.868.094-1.26.563-1.117.82-2.413.65-3.785-.368-2.961-2.756-5.355-5.718-5.716-4.295-.524-7.903 3.083-7.38 7.378.362 2.962 2.755 5.35 5.716 5.719 1.371.17 2.668-.087 3.786-.65.392-.197.844-.233 1.26-.094l1.344.448c.43.143.839-.266.696-.695l-.448-1.345zm-8.832-4.267c0 1.131.267 1.594.907 1.594s.908-.463.908-1.594c0-1.132-.267-1.595-.908-1.595-.64 0-.907.463-.907 1.595zm4.242 0c0 1.132.267 1.595.908 1.595.64 0 .907-.463.907-1.595s-.267-1.595-.907-1.595c-.641 0-.908.463-.908 1.595z" clip-rule="evenodd"/>
</svg>
