<svg width="24" height="24" viewBox="0 0 24 24" fill="none" xmlns="http://www.w3.org/2000/svg">
<path fill-rule="evenodd" clip-rule="evenodd" d="M6.34871 6.33709C7.87171 4.81809 9.87671 4.00009 11.9977 4.00009C12.4427 4.00009 12.8927 4.03609 13.3447 4.10909C16.5797 4.63209 19.1867 7.14209 19.8337 10.3541C20.2107 12.2281 19.9437 14.0931 19.0597 15.7481C18.7167 16.3921 18.6487 17.1071 18.8667 17.7631L19.4187 19.4181L17.7627 18.8671C17.1047 18.6481 16.3907 18.7181 15.7477 19.0601C14.2377 19.8671 12.5337 20.1621 10.8217 19.9151C7.40871 19.4221 4.64771 16.7131 4.10571 13.3271C3.68971 10.7231 4.50771 8.17509 6.34871 6.33709ZM10.5357 21.8941C11.0247 21.9651 11.5137 22.0001 11.9997 22.0001C13.6347 22.0001 15.2337 21.6021 16.6907 20.8241C16.7787 20.7771 16.9557 20.7061 17.1297 20.7641L19.7347 21.6321C20.2757 21.8121 20.8657 21.6741 21.2697 21.2701C21.6747 20.8651 21.8127 20.2771 21.6327 19.7351L20.7647 17.1311C20.7057 16.9551 20.7767 16.7781 20.8247 16.6891C21.9287 14.6211 22.2647 12.2941 21.7947 9.9591C20.9847 5.9351 17.7167 2.7911 13.6637 2.1351C10.4207 1.6101 7.2367 2.6251 4.9357 4.9221C2.6347 7.2181 1.6127 10.3971 2.1317 13.6431C2.8097 17.8841 6.2657 21.2771 10.5357 21.8941ZM7.58831 8.7022C7.58831 10.1962 7.94131 10.8072 8.78631 10.8072C9.63131 10.8072 9.98531 10.1962 9.98531 8.7022C9.98531 7.2072 9.63131 6.5972 8.78631 6.5972C7.94131 6.5972 7.58831 7.2072 7.58831 8.7022ZM15.2135 10.8072C14.3685 10.8072 14.0145 10.1962 14.0145 8.7022C14.0145 7.2072 14.3685 6.5972 15.2135 6.5972C16.0585 6.5972 16.4115 7.2072 16.4115 8.7022C16.4115 10.1962 16.0585 10.8072 15.2135 10.8072ZM9.7192 11.7124C9.9172 12.7924 10.8632 13.6104 12.0002 13.6104C13.1372 13.6104 14.0832 12.7924 14.2812 11.7124C14.3202 11.4954 14.1552 11.2924 13.9342 11.2924H10.0652C9.8452 11.2924 9.6792 11.4954 9.7192 11.7124Z" fill="#65676A"/>
</svg>
