<svg xmlns="http://www.w3.org/2000/svg" width="24" height="24" viewBox="0 0 24 24">
    <path fill="#65676A" fill-rule="evenodd" d="M7 16.5c.276 0 .5.224.5.5v3.5c0 .276-.224.5-.5.5H3.5c-.276 0-.5-.224-.5-.5V17c0-.276.224-.5.5-.5H7zm6.75 0c.276 0 .5.224.5.5v3.5c0 .276-.224.5-.5.5h-3.5c-.276 0-.5-.224-.5-.5V17c0-.276.224-.5.5-.5h3.5zm6.75 0c.276 0 .5.224.5.5v3.5c0 .276-.224.5-.5.5H17c-.276 0-.5-.224-.5-.5V17c0-.276.224-.5.5-.5h3.5zM7 9.75c.276 0 .5.224.5.5v3.5c0 .276-.224.5-.5.5H3.5c-.276 0-.5-.224-.5-.5v-3.5c0-.276.224-.5.5-.5H7zm6.75 0c.276 0 .5.224.5.5v3.5c0 .276-.224.5-.5.5h-3.5c-.276 0-.5-.224-.5-.5v-3.5c0-.276.224-.5.5-.5h3.5zm6.75 0c.276 0 .5.224.5.5v3.5c0 .276-.224.5-.5.5H17c-.276 0-.5-.224-.5-.5v-3.5c0-.276.224-.5.5-.5h3.5zM7 3c.276 0 .5.224.5.5V7c0 .276-.224.5-.5.5H3.5c-.276 0-.5-.224-.5-.5V3.5c0-.276.224-.5.5-.5H7zm6.75 0c.276 0 .5.224.5.5V7c0 .276-.224.5-.5.5h-3.5c-.276 0-.5-.224-.5-.5V3.5c0-.276.224-.5.5-.5h3.5zm6.75 0c.276 0 .5.224.5.5V7c0 .276-.224.5-.5.5H17c-.276 0-.5-.224-.5-.5V3.5c0-.276.224-.5.5-.5h3.5z"/>
</svg>
