<svg xmlns="http://www.w3.org/2000/svg" width="24" height="24" viewBox="0 0 24 24">
    <path fill="#65676A" fill-rule="evenodd" d="M15.213 10.808c-.845 0-1.198-.611-1.198-2.105 0-1.495.353-2.105 1.198-2.105s1.199.61 1.199 2.105c0 1.494-.354 2.105-1.198 2.105zm-3.212 2.803c-1.138 0-2.083-.818-2.281-1.898-.04-.217.124-.42.345-.42h3.87c.22 0 .385.203.345.42-.197 1.08-1.143 1.898-2.28 1.898zm-3.214-2.803c-.846 0-1.199-.611-1.199-2.105 0-1.495.353-2.105 1.199-2.105.845 0 1.197.61 1.197 2.105 0 1.494-.352 2.105-1.197 2.105zm11.943 7.38c-.166-.496-.148-1.046.098-1.507 1.038-1.948 1.46-4.274.966-6.728-.806-4.001-4.095-7.166-8.123-7.817C6.844 1.03 1.03 6.846 2.136 13.673c.652 4.028 3.816 7.317 7.817 8.12 2.456.495 4.783.074 6.732-.966.459-.245 1.002-.265 1.495-.1l1.924.64c.782.262 1.524-.482 1.264-1.264l-.638-1.915z"/>
</svg>
