<svg xmlns="http://www.w3.org/2000/svg" width="24" height="24" viewBox="0 0 24 24">
    <path fill="#65676A" fill-rule="evenodd" d="M12 1c6.075 0 11 4.925 11 11l-.004.288C22.843 18.23 17.98 23 12 23l-.291-.004C5.802 22.843 1.053 18.031 1 12.1v-.2l.006-.29C1.212 5.716 6.056 1 12 1zm.894 3.904c-2.215-.269-4.385.474-5.95 2.04-1.566 1.565-2.31 3.736-2.04 5.95.39 3.202 2.994 5.805 6.203 6.201.295.037.592.055.89.055l.337-.008c1.005-.047 1.984-.305 2.886-.762l1.458.626c.668.286 1.439.137 1.952-.376.514-.515.663-1.284.375-1.952l-.625-1.46c.644-1.269.89-2.688.715-4.112-.396-3.208-2.998-5.811-6.201-6.202zM8.068 8.067c1.218-1.219 2.903-1.796 4.634-1.586 2.478.302 4.51 2.335 4.816 4.82.143 1.156-.071 2.303-.618 3.32-.181.335-.19.74-.036 1.093l.681 1.59c.03.072.016.148-.038.202-.055.054-.133.07-.203.04l-1.593-.684c-.354-.15-.756-.142-1.091.039-.81.435-1.704.66-2.622.66l-.233-.005c-.155-.006-.31-.019-.463-.038-2.486-.307-4.519-2.339-4.82-4.816-.211-1.73.366-3.415 1.586-4.635zm2.014 2.54c-.61 0-.863.442-.863 1.393 0 .951.254 1.394.863 1.394l.11-.005c.529-.052.751-.497.751-1.389 0-.95-.253-1.394-.861-1.394zm3.837 0c-.61 0-.862.442-.862 1.393 0 .951.253 1.394.862 1.394l.11-.005c.53-.052.752-.497.752-1.389 0-.95-.253-1.394-.862-1.394z"/>
</svg>
