<svg xmlns="http://www.w3.org/2000/svg" width="24" height="24" viewBox="0 0 24 24">
    <path fill="#65676A" fill-rule="evenodd" d="M12 1c6.075 0 11 4.925 11 11l-.004.288C22.843 18.23 17.98 23 12 23l-.291-.004C5.802 22.843 1.053 18.031 1 12.1v-.2l.006-.29C1.212 5.716 6.056 1 12 1zm.83 4.45c-4.295-.523-7.903 3.084-7.38 7.38.362 2.961 2.755 5.35 5.716 5.718 1.371.17 2.668-.087 3.786-.65.391-.197.844-.233 1.26-.094l1.344.448.086.021c.396.068.743-.315.61-.716l-.448-1.345-.044-.157c-.084-.371-.035-.76.138-1.103.563-1.117.82-2.413.65-3.785-.368-2.961-2.756-5.355-5.718-5.716zm.74 5.931c.18 0 .313.165.282.342-.16.877-.93 1.541-1.853 1.541-.922 0-1.69-.664-1.85-1.541-.033-.177.101-.342.28-.342zm.552-3.506c.64 0 .907.463.907 1.595s-.267 1.595-.907 1.595c-.641 0-.908-.463-.908-1.595s.267-1.595.908-1.595zm-4.243 0c.64 0 .908.463.908 1.595 0 1.131-.267 1.594-.908 1.594-.64 0-.907-.463-.907-1.594 0-1.132.267-1.595.907-1.595z"/>
</svg>
