<svg xmlns="http://www.w3.org/2000/svg" width="24" height="24" viewBox="0 0 24 24">
    <path fill="#65676A" fill-rule="evenodd" d="M20.59 6.86c.58.967.984 2.01 1.203 3.1.47 2.333.135 4.66-.969 6.728-.048.09-.12.266-.06.442l.867 2.605c.181.542.042 1.13-.362 1.535-.405.404-.994.54-1.535.362l-2.604-.868c-.175-.06-.351.012-.44.06-1.457.778-3.055 1.176-4.691 1.176-.485 0-.974-.036-1.464-.106-.094-.014-.186-.042-.28-.058l-.002.013c-.285-.05-.566-.114-.844-.188l-.03-.01c-.33-.09-.653-.2-.972-.323l-.226-.092c-.275-.114-.546-.24-.812-.38-.055-.03-.11-.054-.166-.084-.025-.014-.052-.025-.078-.04-.297-.174-.59-.352-.873-.55l1.151-1.635c.24.168.491.32.747.462.34.188.693.345 1.051.479.104.039.21.07.313.105.296.097.596.177.901.237.136.028.27.065.407.084 1.712.248 3.415-.048 4.926-.854.64-.343 1.357-.412 2.015-.194l1.655.553-.552-1.656c-.218-.656-.15-1.372.193-2.017.884-1.654 1.151-3.518.773-5.392-.173-.867-.496-1.696-.958-2.465zM4.61 15.084c.342.816.82 1.57 1.42 2.24l-1.49 1.334c-.75-.837-1.346-1.78-1.775-2.801zm-2.247-5.76l1.928.534C4.098 10.551 4 11.271 4 12c0 .166.005.333.015.5l-1.996.12C2.006 12.413 2 12.206 2 12c0-.91.123-1.81.362-2.676zm3.716-5.382l1.186 1.61c-.719.529-1.342 1.17-1.85 1.905L3.768 6.32c.635-.918 1.412-1.718 2.31-2.378zm9.503-1.291c1.038.398 2 .965 2.857 1.687l-1.287 1.53c-.687-.577-1.456-1.031-2.285-1.348zM12 2l.325.005-.06 1.999L12 4c-.808 0-1.605.12-2.368.356l-.591-1.91C9.995 2.15 10.991 2 12 2z"/>
</svg>
