<svg xmlns="http://www.w3.org/2000/svg" width="24" height="24" viewBox="0 0 24 24">
    <path fill="#65676A" fill-rule="evenodd" d="M18.02 4.002c2.08 1.542 3.51 3.947 3.873 6.52.186 1.275.131 2.598-.18 3.857-.157.63-.375 1.245-.649 1.832-.065.148-.144.29-.215.435-.057.107-.062.13-.083.196-.023.085-.025.159-.014.224l.015.064.825 2.475c.237.738.106 1.141-.282 1.624-.198.216-.47.367-.705.428-.224.06-.52.085-.868-.024l-2.136-.712-.414-.138c-.12-.04-.104-.03-.168-.04-.09-.005-.207.017-.322.078-1.123.602-2.401 1-3.689 1.128-2.577.273-5.26-.52-7.269-2.156-2.018-1.611-3.414-4.043-3.662-6.636-.335-2.565.445-5.255 2.028-7.3 1.603-2.025 3.991-3.469 6.581-3.764 2.558-.357 5.274.322 7.334 1.909zm-7.073.075c-2.07.229-3.974 1.392-5.263 3.01-1.261 1.643-1.892 3.77-1.62 5.846.194 2.066 1.306 4 2.928 5.3 1.616 1.314 3.741 1.94 5.813 1.726 1.037-.107 2.03-.411 2.965-.91.4-.21.871-.33 1.364-.303.227.007.53.081.686.138l.415.14 1.185.395-.551-1.657c-.16-.473-.159-.988-.036-1.438.055-.215.164-.462.246-.612.057-.117.121-.23.172-.35.22-.47.394-.96.52-1.462.248-1.005.293-2.059.143-3.091-.293-2.053-1.427-3.968-3.1-5.21-1.648-1.27-3.804-1.807-5.867-1.522zm.994 11.608c.688 0 1.244.556 1.244 1.244 0 .687-.556 1.243-1.244 1.243-.686 0-1.243-.556-1.243-1.243 0-.688.557-1.244 1.243-1.244zm.057-9.66c2.154 0 3.842 1.52 3.842 3.46 0 1.654-1.393 2.533-2.225 3.056-.236.15-.784.573-.784 1.292v.708H10.93v-.708c0-1.156.625-2.24 1.672-2.9.867-.546 1.337-.939 1.337-1.447 0-1.014-1-1.561-1.94-1.561-1.035 0-1.942.73-1.942 1.56h-1.9c0-1.875 1.758-3.46 3.841-3.46z"/>
</svg>
