<svg xmlns="http://www.w3.org/2000/svg" width="24" height="24" viewBox="0 0 24 24">
    <path fill="#65676A" fill-rule="evenodd" d="M13.046 2.056c1.39.112 2.76.57 3.965 1.271 2.42 1.4 4.218 3.836 4.779 6.599.276 1.359.288 2.788-.011 4.157-.148.683-.365 1.353-.654 1.988-.365.743-.416.832-.371 1.016l.01.041.642 1.924c.091.297.217.601.28.891.05.292.014.51-.043.71-.111.434-.56.88-.992.99-.2.057-.42.093-.712.043-.29-.065-.594-.19-.89-.282l-1.027-.342-.894-.298c-.086-.028-.19-.031-.313.007-.042-.003-.44.226-.745.355-.319.142-.643.272-.977.379-.664.22-1.354.364-2.048.44-1.392.148-2.804-.002-4.141-.431-2.665-.87-4.917-2.88-6.056-5.446-.59-1.276-.837-2.69-.848-4.074-.01-1.393.276-2.799.859-4.071 1.14-2.558 3.385-4.582 6.05-5.45 1.332-.44 2.758-.558 4.137-.417zM9.527 4.378c-2.127.694-3.929 2.317-4.84 4.36-.468 1.016-.696 2.136-.685 3.256.013 1.124.202 2.243.672 3.257.904 2.044 2.727 3.67 4.848 4.36 1.058.34 2.2.463 3.313.343.554-.06 1.104-.174 1.633-.35.267-.086.526-.19.783-.303.279-.108.407-.24.964-.44.475-.152 1.031-.169 1.544.003l.896.3.764.254-.553-1.656c-.173-.512-.157-1.07-.006-1.544.198-.557.336-.688.44-.966.232-.51.403-1.044.521-1.59.238-1.091.231-2.231.007-3.336-.44-2.185-1.884-4.148-3.822-5.268-.97-.56-2.041-.924-3.163-1.01-1.116-.114-2.254-.023-3.316.33zM7.56 10.641c.745 0 1.353.608 1.353 1.352 0 .744-.608 1.353-1.353 1.353-.744 0-1.353-.609-1.353-1.353s.609-1.352 1.353-1.352zm4.48 0c.746 0 1.354.608 1.354 1.352 0 .744-.608 1.353-1.353 1.353-.744 0-1.353-.609-1.353-1.353s.61-1.352 1.353-1.352zm4.482 0c.743 0 1.353.608 1.353 1.352 0 .744-.61 1.353-1.353 1.353-.745 0-1.353-.609-1.353-1.353s.608-1.352 1.353-1.352z"/>
</svg>
