<svg xmlns="http://www.w3.org/2000/svg" width="24" height="24" viewBox="0 0 24 24">
    <path fill="#65676A" fill-rule="evenodd" d="M2.13 13.675C1.022 6.848 6.836 1.033 13.663 2.137c4.03.652 7.318 3.817 8.123 7.817.494 2.455.074 4.78-.965 6.729-.246.461-.265 1.011-.099 1.507l.638 1.915c.261.781-.482 1.525-1.264 1.265l-1.923-.641c-.493-.164-1.037-.145-1.496.1-1.949 1.039-4.275 1.461-6.73.967-4.002-.805-7.166-4.093-7.819-8.121zm14.45-5.581l-6.176 5.804-3.042-2.92-1.385 1.443 4.412 4.236 7.56-7.106-1.369-1.457z"/>
</svg>
