<svg width="24" height="24" viewBox="0 0 24 24" fill="none" xmlns="http://www.w3.org/2000/svg">
<path fill-rule="evenodd" clip-rule="evenodd" d="M21.4064 19.0516L20.7649 17.1281C20.7058 16.9232 20.7312 16.8717 21.0719 16.1795C21.0889 16.1451 21.1066 16.109 21.1252 16.0713C21.4144 15.4358 21.6306 14.7663 21.7787 14.0828C22.0779 12.7137 22.0659 11.2846 21.7897 9.92553C21.2293 7.16338 19.4309 4.72648 17.011 3.32739C15.8051 2.62685 14.436 2.16849 13.0459 2.0564C11.6668 1.91529 10.2407 2.03339 8.90968 2.47373C6.24361 3.3414 3.99886 5.36498 2.85897 7.92297C2.27552 9.19496 1.9893 10.6011 2.00031 11.9941C2.01131 13.3772 2.25751 14.7923 2.84797 16.0683C3.98685 18.6333 6.23861 20.6449 8.90368 21.5135C10.2407 21.9429 11.6528 22.093 13.0449 21.9449C13.7394 21.8688 14.429 21.7257 15.0935 21.5045C15.4268 21.3985 15.751 21.2684 16.0703 21.1262C16.2254 21.0604 16.4049 20.9686 16.5492 20.8948C16.688 20.8238 16.7942 20.7695 16.8148 20.771C16.9389 20.7329 17.042 20.7359 17.1281 20.764L18.0218 21.0622L19.0486 21.4045C19.1524 21.4367 19.2573 21.473 19.3621 21.5092C19.5564 21.5763 19.7508 21.6434 19.9393 21.6857C20.2305 21.7357 20.4517 21.6997 20.6508 21.6437C21.0832 21.5326 21.5315 21.0872 21.6426 20.6539C21.6996 20.4537 21.7367 20.2346 21.6866 19.9433C21.6456 19.7576 21.5796 19.5661 21.5135 19.3743C21.4764 19.2665 21.4392 19.1586 21.4064 19.0516ZM18.8604 16.2184C18.7093 16.6928 18.6933 17.2502 18.8664 17.7616L19.4189 19.4179L18.6553 19.1637L17.7586 18.8645C17.2462 18.6924 16.6897 18.7094 16.2154 18.8615C15.8766 18.9825 15.6964 19.0788 15.5445 19.16C15.4464 19.2123 15.3601 19.2584 15.2506 19.3008C14.9944 19.4139 14.7352 19.518 14.468 19.6031C13.9386 19.7802 13.3892 19.8933 12.8347 19.9543C11.7229 20.0744 10.58 19.9503 9.52216 19.6101C7.40051 18.9205 5.57809 17.2953 4.67439 15.2507C4.20402 14.2369 4.01487 13.118 4.00186 11.9941C3.99086 10.8743 4.21903 9.7544 4.6864 8.73861C5.59811 6.69501 7.39951 5.07175 9.52717 4.37821C10.589 4.02494 11.7269 3.93386 12.8427 4.04795C13.9646 4.13402 15.0365 4.4983 16.0062 5.05774C17.9437 6.17761 19.3878 8.14114 19.8282 10.3258C20.0524 11.4307 20.0594 12.5706 19.8212 13.6624C19.7031 14.2079 19.532 14.7423 19.2998 15.2517C19.2582 15.3629 19.2111 15.4506 19.1571 15.5514C19.0759 15.7028 18.9788 15.8838 18.8604 16.2184ZM6.20628 11.9928C6.20628 12.7374 6.81476 13.3459 7.55934 13.3459C8.30392 13.3459 8.91239 12.7374 8.91239 11.9928C8.91239 11.2493 8.30392 10.6408 7.55934 10.6408C6.81476 10.6408 6.20628 11.2493 6.20628 11.9928ZM10.6869 11.9928C10.6869 12.7374 11.2963 13.3459 12.0399 13.3459C12.7845 13.3459 13.393 12.7374 13.393 11.9928C13.393 11.2493 12.7845 10.6408 12.0399 10.6408C11.2963 10.6408 10.6869 11.2493 10.6869 11.9928ZM16.5209 13.3459C15.7763 13.3459 15.1679 12.7374 15.1679 11.9928C15.1679 11.2493 15.7763 10.6408 16.5209 10.6408C17.2645 10.6408 17.874 11.2493 17.874 11.9928C17.874 12.7374 17.2645 13.3459 16.5209 13.3459Z" fill="#313234"/>
</svg>
