<svg width="24" height="24" viewBox="0 0 24 24" fill="none" xmlns="http://www.w3.org/2000/svg">
<g id="chat-error">
<path id="Combined Shape" fill-rule="evenodd" clip-rule="evenodd" d="M18.9938 15.7066C18.6508 16.3506 18.5818 17.0666 18.8008 17.7236L19.3518 19.3786L17.6968 18.8266C17.0388 18.6076 16.3248 18.6766 15.6808 19.0196C14.1718 19.8256 12.4658 20.1216 10.7548 19.8746C7.34279 19.3816 4.58079 16.6726 4.03979 13.2866C3.62379 10.6826 4.44079 8.13459 6.28279 6.29759C7.80479 4.77759 9.80979 3.95959 11.9318 3.95959C12.3758 3.95959 12.8268 3.99559 13.2778 4.06859C16.5128 4.59259 19.1208 7.10259 19.7668 10.3136C20.1448 12.1886 19.8768 14.0536 18.9938 15.7066ZM20.6978 17.0916C20.6398 16.9146 20.7108 16.7386 20.7578 16.6486C21.8628 14.5816 22.1978 12.2546 21.7278 9.9196C20.9178 5.8946 17.6508 2.7506 13.5968 2.0946C10.3538 1.5706 7.1708 2.5846 4.8688 4.8816C2.5688 7.1776 1.5458 10.3566 2.0648 13.6026C2.7428 17.8436 6.1988 21.2376 10.4688 21.8536C10.9588 21.9246 11.4478 21.9596 11.9328 21.9596C13.5688 21.9596 15.1678 21.5616 16.6238 20.7836C16.7128 20.7366 16.8898 20.6666 17.0638 20.7246L19.6688 21.5926C20.2088 21.7706 20.7988 21.6346 21.2038 21.2296C21.6078 20.8256 21.7468 20.2376 21.5658 19.6946L20.6978 17.0916ZM11.9333 15.5953C11.2033 15.5953 10.6113 16.1873 10.6113 16.9183C10.6113 17.6483 11.2033 18.2403 11.9333 18.2403C12.6633 18.2403 13.2563 17.6483 13.2563 16.9183C13.2563 16.1873 12.6633 15.5953 11.9333 15.5953ZM13.1473 5.97989L13.0143 13.9869H10.8523L10.7203 5.97989H13.1473Z" fill="#242428"/>
</g>
</svg>
