<svg xmlns="http://www.w3.org/2000/svg" width="24" height="24" viewBox="0 0 24 24">
    <path fill="#65676A" fill-rule="evenodd" d="M2.13 13.675C1.022 6.848 6.836 1.033 13.663 2.137c4.03.652 7.318 3.817 8.123 7.817.494 2.455.074 4.78-.965 6.729-.246.461-.265 1.011-.099 1.507l.638 1.915c.261.781-.482 1.525-1.264 1.265l-1.923-.641c-.493-.164-1.037-.145-1.496.1-1.949 1.039-4.275 1.461-6.73.967-4.002-.805-7.166-4.093-7.819-8.121zm9.803 1.92c-.73 0-1.322.592-1.322 1.323 0 .73.592 1.322 1.322 1.322.73 0 1.323-.592 1.323-1.322 0-.73-.593-1.323-1.323-1.323zm1.214-9.615H10.72l.132 8.007h2.162l.133-8.007z"/>
</svg>
