<svg xmlns="http://www.w3.org/2000/svg" width="24" height="24" viewBox="0 0 24 24">
    <path fill="#65676A" fill-rule="evenodd" d="M19.78 12.78l-6.245 6.244c-1.952 1.952-5.118 1.952-7.07 0-1.953-1.953-1.953-5.118 0-7.07l7.075-7.077c1.169-1.17 3.064-1.17 4.233 0 1.169 1.169 1.169 3.063 0 4.232l-7.16 7.159c-.393.393-1.03.393-1.422 0-.394-.393-.394-1.03-.001-1.422l6.327-6.328-1.414-1.414-6.327 6.327c-1.175 1.173-1.175 3.078 0 4.252 1.173 1.174 3.078 1.174 4.252-.001l7.16-7.159c1.949-1.95 1.949-5.11 0-7.06-1.95-1.95-5.113-1.95-7.062 0L5.05 10.54c-2.733 2.733-2.733 7.166 0 9.9 2.734 2.733 7.166 2.733 9.9 0l6.243-6.245-1.414-1.414z" opacity=".9"/>
</svg>
