<svg xmlns="http://www.w3.org/2000/svg" width="24" height="24" viewBox="0 0 24 24">
    <path fill="#65676A" fill-rule="evenodd" d="M11.744 10.617c.143-.144.375-.144.519 0l3.657 3.657c.178.18.052.484-.2.484h-2.3v3.884c0 .197-.16.355-.354.355H10.94c-.195 0-.354-.159-.354-.355v-3.884h-2.3c-.252 0-.38-.304-.2-.483zm.305-6.237c1.889 0 3.674.929 4.786 2.457h.086c3.352 0 6.079 2.728 6.079 6.08 0 3.353-2.727 6.08-6.08 6.08h-.916v-2h.917c2.249 0 4.079-1.83 4.079-4.08s-1.83-4.08-4.08-4.08h-1.198l-.29-.494c-.72-1.23-1.984-1.963-3.383-1.963-1.932 0-3.6 1.451-3.877 3.375l-.123.857h-2.03c-1.664 0-3.02 1.355-3.02 3.02v.345c0 1.665 1.356 3.02 3.02 3.02h1.985v2H6.02c-2.768 0-5.02-2.252-5.02-5.02v-.345c0-2.768 2.252-5.02 5.02-5.02h.363c.743-2.464 3.042-4.232 5.666-4.232z"/>
</svg>
