<svg xmlns="http://www.w3.org/2000/svg" width="24" height="24" viewBox="0 0 24 24">
    <path fill="#65676A" fill-rule="evenodd" d="M12.049 4.38c1.889 0 3.674.929 4.786 2.457h.086c3.352 0 6.079 2.728 6.079 6.08 0 3.353-2.727 6.08-6.08 6.08h-.916v-2h.917c2.249 0 4.079-1.83 4.079-4.08s-1.83-4.08-4.08-4.08h-1.198l-.29-.494c-.72-1.23-1.984-1.963-3.383-1.963-1.932 0-3.6 1.451-3.877 3.375l-.123.857h-2.03c-1.664 0-3.02 1.355-3.02 3.02v.345c0 1.665 1.356 3.02 3.02 3.02h1.985v2H6.02c-2.768 0-5.02-2.252-5.02-5.02v-.345c0-2.768 2.252-5.02 5.02-5.02h.363c.743-2.464 3.042-4.232 5.666-4.232zm1.014 5.617c.194 0 .353.159.353.354v3.886h2.3c.253 0 .379.304.2.483l-3.657 3.657c-.143.143-.376.143-.518 0L8.084 14.72c-.18-.18-.053-.483.2-.483h2.3V10.35c0-.195.159-.354.354-.354z"/>
</svg>
