<svg width="24" height="24" viewBox="0 0 24 24" fill="none" xmlns="http://www.w3.org/2000/svg">
<g id="coin-recurring">
<path id="shape" fill-rule="evenodd" clip-rule="evenodd" d="M21.5 9.25H15.873C15.428 9.25 15.205 8.711 15.52 8.396L17.613 6.303C16.106 4.819 14.117 4 12 4C7.589 4 4 7.589 4 12H2C2 6.486 6.486 2 12 2C14.651 2 17.143 3.027 19.027 4.889L21.146 2.77C21.461 2.455 22 2.677 22 3.123V8.75C22 9.026 21.776 9.25 21.5 9.25ZM2.5 14.75H8.127C8.572 14.75 8.795 15.289 8.48 15.604L6.387 17.697C7.893 19.181 9.883 20 12 20C16.411 20 20 16.411 20 12H22C22 17.514 17.514 22 12 22C9.349 22 6.856 20.973 4.973 19.111L2.854 21.23C2.539 21.545 2 21.322 2 20.877V15.25C2 14.974 2.224 14.75 2.5 14.75ZM12.4919 10.9442L13.6069 11.3882C14.7109 11.8322 15.3699 12.5752 15.3699 13.8352C15.3699 15.0622 14.5099 16.1542 12.9999 16.5032V18.0002H10.9999V16.5262C10.1439 16.3552 9.30088 15.9652 8.62988 15.3462L9.84088 13.8702C10.4769 14.4102 11.3039 14.7822 12.0119 14.7822C12.8039 14.7822 13.1749 14.4822 13.1749 14.0032C13.1749 13.5221 12.748 13.3435 12.0678 13.059C12.0184 13.0383 11.9678 13.0171 11.9159 12.9952L10.7769 12.5152C9.84088 12.1442 8.96588 11.3642 8.96588 10.0692C8.96588 8.91424 9.76788 7.94324 10.9999 7.55524V6.00024H12.9999V7.44924C13.7729 7.59924 14.5259 7.96524 15.1069 8.54624L14.0389 9.88924C13.4509 9.44524 12.8989 9.20524 12.2039 9.20524C11.5439 9.20524 11.1359 9.46924 11.1359 9.94924C11.1359 10.4145 11.6402 10.6115 12.3647 10.8945C12.4064 10.9108 12.4488 10.9273 12.4919 10.9442Z" fill="#313234"/>
</g>
</svg>
