<svg xmlns="http://www.w3.org/2000/svg" width="24" height="24" viewBox="0 0 24 24">
    <path fill="#65676A" fill-rule="evenodd" d="M12 2c5.514 0 10 4.486 10 10s-4.486 10-10 10S2 17.514 2 12 6.486 2 12 2zm0 2c-4.411 0-8 3.589-8 8s3.589 8 8 8 8-3.589 8-8-3.589-8-8-8zm1 2v1.45c.773.15 1.526.515 2.107 1.096L14.039 9.89c-.588-.444-1.14-.684-1.835-.684-.66 0-1.068.264-1.068.744 0 .492.564.684 1.356.995l1.115.444c1.104.444 1.763 1.187 1.763 2.447 0 1.227-.86 2.32-2.37 2.668V18h-2v-1.474c-.856-.17-1.7-.56-2.37-1.18l1.21-1.476c.637.54 1.464.912 2.172.912.792 0 1.163-.3 1.163-.779 0-.516-.491-.684-1.26-1.008l-1.138-.48c-.936-.37-1.811-1.15-1.811-2.446 0-1.155.802-2.126 2.034-2.514V6h2z"/>
</svg>
