<svg xmlns="http://www.w3.org/2000/svg" width="24" height="24" viewBox="0 0 24 24">
    <g fill="none" fill-rule="evenodd">
        <g fill="#65676A">
            <g>
                <path d="M6.718 5c.446 0 .608.046.77.134.164.087.291.215.379.378.087.163.133.324.133.77v11.436c0 .446-.046.607-.133.77-.088.163-.215.291-.378.378-.163.088-.325.134-.77.134H3.281c-.446 0-.607-.046-.77-.134-.163-.087-.291-.215-.378-.378-.087-.163-.134-.324-.134-.77V6.282c0-.446.047-.607.134-.77.087-.163.215-.291.378-.378.163-.088.324-.134.77-.134h3.436zm7 0c.446 0 .607.046.77.134.163.087.291.215.378.378.088.163.134.324.134.77v11.436c0 .446-.046.607-.134.77-.087.163-.215.291-.378.378-.163.088-.324.134-.77.134h-3.436c-.446 0-.607-.046-.77-.134-.163-.087-.291-.215-.378-.378-.088-.163-.134-.324-.134-.77V6.282c0-.446.046-.607.134-.77.087-.163.215-.291.378-.378.163-.088.324-.134.77-.134h3.436zm7 0c.446 0 .607.046.77.134.163.087.291.215.378.378.088.163.134.324.134.77v11.436c0 .446-.046.607-.134.77-.087.163-.215.291-.378.378-.163.088-.324.134-.77.134h-3.436c-.446 0-.607-.046-.77-.134-.163-.087-.291-.215-.378-.378-.088-.163-.134-.324-.134-.77V6.282c0-.446.046-.607.134-.77.087-.163.215-.291.378-.378.163-.088.324-.134.77-.134h3.436zM6 7H4v10h2V7zm7 0h-2v10h2V7zm7 0h-2v10h2V7z" transform="translate(-672 -574) translate(672 574)"/>
            </g>
        </g>
    </g>
</svg>
