<svg xmlns="http://www.w3.org/2000/svg" width="24" height="24" fill="none" viewBox="0 0 24 24">
    <path fill="#65676A" fill-rule="evenodd" d="M7.489 5.134C7.326 5.046 7.164 5 6.719 5H3.281c-.446 0-.607.046-.77.134-.163.087-.291.215-.378.378-.087.163-.134.324-.134.77v11.436c0 .446.047.608.134.77.087.163.215.291.378.378.163.088.324.134.77.134h3.436c.446 0 .608-.046.77-.134.164-.087.291-.215.379-.378.087-.162.133-.324.133-.77V6.282c0-.446-.046-.607-.133-.77-.088-.163-.215-.291-.378-.378zM4 7h2v10H4V7zm10.488-1.866c-.162-.088-.324-.134-.77-.134h-3.436c-.446 0-.607.046-.77.134-.163.087-.291.215-.378.378-.088.163-.134.324-.134.77v11.436c0 .446.046.608.134.77.087.163.215.291.378.378.163.088.324.134.77.134h3.436c.446 0 .607-.046.77-.134.163-.087.291-.215.378-.378.088-.162.134-.324.134-.77V6.282c0-.446-.046-.607-.134-.77-.087-.163-.215-.291-.378-.378zM11 7h2v10h-2V7zm9.718-2c.446 0 .608.046.77.134.163.087.291.215.378.378.088.163.134.324.134.77v11.436c0 .446-.046.608-.134.77-.087.163-.215.291-.378.378-.162.088-.324.134-.77.134h-3.436c-.446 0-.608-.046-.77-.134-.163-.087-.291-.215-.378-.378-.088-.162-.134-.324-.134-.77V6.282c0-.446.046-.607.134-.77.087-.163.215-.291.378-.378.162-.088.324-.134.77-.134h3.436zM20 7h-2v10h2V7z" clip-rule="evenodd"/>
</svg>
