<svg width="24" height="24" viewBox="0 0 24 24" fill="none" xmlns="http://www.w3.org/2000/svg">
<path fill-rule="evenodd" clip-rule="evenodd" d="M8.5002 18.0001L11.2002 21.6001C11.6002 22.1334 12.4002 22.1334 12.8002 21.6001L15.5002 18.0001H20.0002C20.5525 18.0001 21.0002 17.5524 21.0002 17.0001V3.0001C21.0002 2.44781 20.5525 2.0001 20.0002 2.0001H4.0002C3.44791 2.0001 3.0002 2.44781 3.0002 3.0001V17.0001C3.0002 17.5524 3.44791 18.0001 4.0002 18.0001H8.5002ZM19.0002 4.0001V16.0001H15.0002C14.6854 16.0001 14.3891 16.1483 14.2002 16.4001L12.0002 19.3334L9.8002 16.4001C9.61134 16.1483 9.31496 16.0001 9.0002 16.0001H5.0002V4.0001H19.0002ZM7.0002 9.0001H17.0002V7.0001H7.0002V9.0001ZM7.0002 13.0001H17.0002V11.0001H7.0002V13.0001Z" fill="#65676A"/>
</svg>
