<svg width="24" height="24" viewBox="0 0 24 24" fill="none" xmlns="http://www.w3.org/2000/svg">
<path fill-rule="evenodd" clip-rule="evenodd" d="M19 17H8.2759L5 19.7299V5H19V17ZM19.5 19H9L4.64018 22.6332C3.98886 23.176 3 22.7128 3 21.865V4.5C3 3.67157 3.67157 3 4.5 3H19.5C20.3284 3 21 3.67157 21 4.5V17.5C21 18.3284 20.3284 19 19.5 19ZM14.8284 6.75736L16.2426 8.17157L13.4142 11L16.2426 13.8284L14.8284 15.2426L12 12.4142L9.17157 15.2426L7.75736 13.8284L10.5858 11L7.75736 8.17157L9.17157 6.75736L12 9.58579L14.8284 6.75736Z" fill="#313234"/>
</svg>
