<svg width="24" height="24" viewBox="0 0 24 24" fill="none" xmlns="http://www.w3.org/2000/svg">
<g id="contact">
<path id="Combined Shape" fill-rule="evenodd" clip-rule="evenodd" d="M19 20H10H9V4H10H19V20ZM5 20H7V4H5V20ZM19.5 2H10H8.5H4.5C3.673 2 3 2.673 3 3.5V20.5C3 21.327 3.673 22 4.5 22H8.5H10H19.5C20.327 22 21 21.327 21 20.5V3.5C21 2.673 20.327 2 19.5 2ZM14 11.0684C14.847 11.0684 15.534 10.3814 15.534 9.5344C15.534 8.6874 14.847 8.0004 14 8.0004C13.152 8.0004 12.465 8.6874 12.465 9.5344C12.465 10.3814 13.152 11.0684 14 11.0684ZM17.2772 15.0137H10.7222C10.5972 15.0137 10.4922 14.9087 10.5002 14.7847C10.6182 12.9537 12.1402 11.5067 14.0002 11.5067C15.8592 11.5067 17.3812 12.9537 17.4992 14.7847C17.5072 14.9087 17.4022 15.0137 17.2772 15.0137Z" fill="#242428"/>
</g>
</svg>
