<svg width="24" height="24" viewBox="0 0 24 24" fill="none" xmlns="http://www.w3.org/2000/svg">
<g id="contract">
<path id="Combined Shape" fill-rule="evenodd" clip-rule="evenodd" d="M20.6465 4.76419L19.2322 3.34998L14.7929 7.78932L12.8194 5.81584C12.5624 5.55881 12.4339 5.4303 12.3235 5.42162C12.2278 5.41408 12.1342 5.45284 12.0719 5.52586C12 5.61002 12 5.79176 12 6.15525V11.1964C12 11.4765 12 11.6165 12.0545 11.7234C12.1024 11.8175 12.1789 11.894 12.273 11.9419C12.38 11.9964 12.52 11.9964 12.8 11.9964H17.8412C18.2047 11.9964 18.3864 11.9964 18.4706 11.9246C18.5436 11.8622 18.5823 11.7686 18.5748 11.6729C18.5661 11.5626 18.4376 11.434 18.1806 11.177L16.2071 9.20354L20.6465 4.76419ZM11.9246 18.4705C11.9965 18.3864 11.9965 18.2046 11.9965 17.8411V12.8C11.9965 12.5199 11.9965 12.3799 11.942 12.273C11.894 12.1789 11.8175 12.1024 11.7234 12.0545C11.6165 12 11.4765 12 11.1965 12H6.15528C5.79179 12 5.61004 12 5.52588 12.0718C5.45286 12.1342 5.41411 12.2278 5.42164 12.3235C5.43033 12.4338 5.55884 12.5624 5.81587 12.8194L7.78934 14.7929L3.35001 19.2322L4.76422 20.6464L9.20355 16.2071L11.177 18.1806C11.4341 18.4376 11.5626 18.5661 11.6729 18.5748C11.7687 18.5823 11.8622 18.5436 11.9246 18.4705Z" fill="#313234"/>
</g>
</svg>
