<svg xmlns="http://www.w3.org/2000/svg" width="24" height="24" viewBox="0 0 24 24">
    <path fill="#65676A" fill-rule="evenodd" d="M19.5 2c.827 0 1.5.673 1.5 1.5v17c0 .827-.673 1.5-1.5 1.5h-15c-.827 0-1.5-.673-1.5-1.5v-17C3 2.673 3.673 2 4.5 2zM19 4H9v16h10V4zM7 4H5v16h2V4zm7 7.507c1.86 0 3.381 1.447 3.5 3.278.007.124-.098.229-.223.229h-6.555c-.125 0-.23-.105-.222-.23.118-1.83 1.64-3.277 3.5-3.277zM14 8c.847 0 1.534.687 1.534 1.534s-.687 1.534-1.534 1.534c-.848 0-1.535-.687-1.535-1.534S13.152 8 14 8z"/>
</svg>
