<svg xmlns="http://www.w3.org/2000/svg" width="24" height="24" viewBox="0 0 24 24">
    <path fill="#65676A" fill-rule="evenodd" d="M12.005 2c.59 0 1.208.06 1.833.175l.817.152v.83c.003 3.412 2.78 6.19 6.192 6.193h.83l.152.817c.118.635.176 1.235.176 1.833 0 5.514-4.486 10-10 10s-10-4.486-10-10 4.486-10 10-10zm0 2c-4.411 0-8 3.589-8 8 0 4.41 3.589 8 8 8 4.41 0 8-3.59 8-8 0-.23-.011-.461-.033-.697-3.817-.41-6.86-3.453-7.27-7.27-.235-.022-.467-.033-.697-.033zM12 15c.966 0 1.75.783 1.75 1.75 0 .966-.784 1.75-1.75 1.75-.967 0-1.75-.784-1.75-1.75 0-.967.783-1.75 1.75-1.75zm3-3.5c.966 0 1.75.783 1.75 1.75 0 .966-.784 1.75-1.75 1.75-.967 0-1.75-.784-1.75-1.75 0-.967.783-1.75 1.75-1.75zM10 7c.966 0 1.75.783 1.75 1.75 0 .966-.784 1.75-1.75 1.75-.967 0-1.75-.784-1.75-1.75C8.25 7.783 9.033 7 10 7z"/>
</svg>
