<svg width="24" height="24" viewBox="0 0 24 24" fill="none" xmlns="http://www.w3.org/2000/svg">
<path fill-rule="evenodd" clip-rule="evenodd" d="M8.0002 7.00009C9.3802 7.00009 10.5002 5.88109 10.5002 4.50009C10.5002 3.11909 9.3802 2.00009 8.0002 2.00009C6.6192 2.00009 5.5002 3.11909 5.5002 4.50009C5.5002 5.88109 6.6192 7.00009 8.0002 7.00009ZM16.0002 7.00009C17.3802 7.00009 18.5002 5.88109 18.5002 4.50009C18.5002 3.11909 17.3802 2.00009 16.0002 2.00009C14.6192 2.00009 13.5002 3.11909 13.5002 4.50009C13.5002 5.88109 14.6192 7.00009 16.0002 7.00009ZM10.5002 12.0001C10.5002 13.3811 9.3802 14.5001 8.0002 14.5001C6.6192 14.5001 5.5002 13.3811 5.5002 12.0001C5.5002 10.6191 6.6192 9.50009 8.0002 9.50009C9.3802 9.50009 10.5002 10.6191 10.5002 12.0001ZM16.0002 14.5001C17.3802 14.5001 18.5002 13.3811 18.5002 12.0001C18.5002 10.6191 17.3802 9.50009 16.0002 9.50009C14.6192 9.50009 13.5002 10.6191 13.5002 12.0001C13.5002 13.3811 14.6192 14.5001 16.0002 14.5001ZM10.5002 19.5001C10.5002 20.8811 9.3802 22.0001 8.0002 22.0001C6.6192 22.0001 5.5002 20.8811 5.5002 19.5001C5.5002 18.1191 6.6192 17.0001 8.0002 17.0001C9.3802 17.0001 10.5002 18.1191 10.5002 19.5001ZM16.0002 22.0001C17.3802 22.0001 18.5002 20.8811 18.5002 19.5001C18.5002 18.1191 17.3802 17.0001 16.0002 17.0001C14.6192 17.0001 13.5002 18.1191 13.5002 19.5001C13.5002 20.8811 14.6192 22.0001 16.0002 22.0001Z" fill="#313234"/>
</svg>
