<svg xmlns="http://www.w3.org/2000/svg" width="24" height="24" viewBox="0 0 24 24">
    <path fill="#65676A" fill-rule="evenodd" d="M8 17c1.38 0 2.5 1.12 2.5 2.5 0 1.381-1.12 2.5-2.5 2.5s-2.5-1.119-2.5-2.5C5.5 18.12 6.62 17 8 17zm8 0c1.38 0 2.5 1.12 2.5 2.5 0 1.381-1.12 2.5-2.5 2.5s-2.5-1.119-2.5-2.5c0-1.38 1.12-2.5 2.5-2.5zM8 9.5c1.38 0 2.5 1.12 2.5 2.5 0 1.381-1.12 2.5-2.5 2.5S5.5 13.381 5.5 12c0-1.38 1.12-2.5 2.5-2.5zm8 0c1.38 0 2.5 1.12 2.5 2.5 0 1.381-1.12 2.5-2.5 2.5s-2.5-1.119-2.5-2.5c0-1.38 1.12-2.5 2.5-2.5zM8 2c1.38 0 2.5 1.12 2.5 2.5C10.5 5.881 9.38 7 8 7S5.5 5.881 5.5 4.5C5.5 3.12 6.62 2 8 2zm8 0c1.38 0 2.5 1.12 2.5 2.5C18.5 5.881 17.38 7 16 7s-2.5-1.119-2.5-2.5C13.5 3.12 14.62 2 16 2z"/>
</svg>
