<svg width="24" height="24" viewBox="0 0 24 24" fill="none" xmlns="http://www.w3.org/2000/svg">
<g id="edit">
<path id="Combined Shape" fill-rule="evenodd" clip-rule="evenodd" d="M18.4646 4.1207L19.8786 5.5357L21.2936 4.1207C21.6836 3.7307 21.6836 3.0977 21.2936 2.7067H21.2926C20.9026 2.3167 20.2696 2.3167 19.8786 2.7067L18.4646 4.1207ZM20.5002 21.0001H3.50018C3.22418 21.0001 3.00018 20.7761 3.00018 20.5001V3.5001C3.00018 3.2241 3.22418 3.0001 3.50018 3.0001H14.0002V5.0001H5.00018V19.0001H19.0002V10.0001H21.0002V20.5001C21.0002 20.7761 20.7762 21.0001 20.5002 21.0001ZM10.6862 14.7276H9.27219V13.3136L17.7572 4.8286L19.1712 6.2426L10.6862 14.7276Z" fill="#313234"/>
</g>
</svg>
