<svg width="24" height="24" viewBox="0 0 24 24" fill="none" xmlns="http://www.w3.org/2000/svg">
<g id="email-unsubscribed">
<path id="Combined Shape" fill-rule="evenodd" clip-rule="evenodd" d="M20.0002 13.9997C19.1645 13.372 18.1257 13.0001 17.0002 13.0001C14.2382 13.0001 12.0002 15.2381 12.0002 18.0001C12.0002 20.7611 14.2382 23.0001 17.0002 23.0001C19.7612 23.0001 22.0002 20.7611 22.0002 18.0001C22.0002 17.8914 21.9967 17.7836 21.9899 17.6767C21.9967 17.6188 22.0002 17.5598 22.0002 17.5001V6.5001C22.0002 5.67181 21.3285 5.0001 20.5002 5.0001H3.50021C2.67193 5.0001 2.00021 5.67181 2.00021 6.5001V17.5001C2.00021 18.3284 2.67193 19.0001 3.50021 19.0001H12.1C12.0344 18.677 12 18.3425 12 18C12 17.6576 12.0344 17.3232 12.1 17.0001H4.00021V10.2831L11.0878 14.6144C11.6474 14.9572 12.353 14.9572 12.9135 14.6139L20.0002 10.2831V13.9997ZM20.0002 7.93925V7.0001H4.00021V7.93926L12.0002 12.8281L20.0002 7.93925ZM15.7152 20.6991C16.1062 20.8861 16.5382 21.0001 17.0002 21.0001C18.6542 21.0001 20.0002 19.6541 20.0002 18.0001C20.0002 17.5381 19.8862 17.1061 19.6992 16.7151L15.7152 20.6991ZM18.2852 15.3011C17.8942 15.1131 17.4612 15.0001 17.0002 15.0001C15.3462 15.0001 14.0002 16.3461 14.0002 18.0001C14.0002 18.4621 14.1132 18.8941 14.3012 19.2851L18.2852 15.3011Z" fill="#313234"/>
</g>
</svg>
