<svg xmlns="http://www.w3.org/2000/svg" width="24" height="24" viewBox="0 0 24 24">
    <path fill="#65676A" fill-rule="evenodd" d="M20.5 5c.828 0 1.5.672 1.5 1.5v11c0 .06-.003.12-.01.178l-.002-.036c.008.118.012.238.012.358 0 2.761-2.239 5-5 5-2.441 0-4.473-1.75-4.912-4.062l.012.063H3.5c-.828 0-1.5-.673-1.5-1.5v-11C2 5.67 2.672 5 3.5 5h17zm-.8 11.715L15.714 20.7c.391.187.823.301 1.285.301 1.654 0 3-1.346 3-3 0-.462-.114-.894-.3-1.285zM17 15c-1.654 0-3 1.346-3 3 0 .462.113.894.301 1.285l3.984-3.984c-.39-.188-.824-.3-1.285-.3zm3-4.718l-7.086 4.332c-.514.315-1.15.34-1.683.079l-.143-.079L4 10.284V17h8.1l-.016.083C12.514 14.76 14.551 13 17 13c1.147 0 2.205.387 3.048 1.036l-.046-.035L20 10.282zM20 7H4v.94l8 4.888 8-4.89V7z"/>
</svg>
