<svg width="24" height="24" viewBox="0 0 24 24" fill="none" xmlns="http://www.w3.org/2000/svg">
<path fill-rule="evenodd" clip-rule="evenodd" d="M20.9281 9.47057C21 9.38641 21 9.20467 21 8.84118V3.8C21 3.51997 21 3.37996 20.9455 3.273C20.8976 3.17892 20.8211 3.10243 20.727 3.0545C20.62 3 20.48 3 20.2 3H15.1588C14.7953 3 14.6136 3 14.5294 3.07188C14.4564 3.13425 14.4177 3.2278 14.4252 3.32354C14.4339 3.43387 14.5624 3.56239 14.8194 3.81941L16.7929 5.79288L12.3536 10.2322L13.7678 11.6464L18.2071 7.2071L20.1806 9.18059C20.4376 9.43761 20.5661 9.56613 20.6765 9.57481C20.7722 9.58235 20.8658 9.54359 20.9281 9.47057ZM3.07188 14.5294C3 14.6136 3 14.7953 3 15.1588V20.2C3 20.48 3 20.62 3.0545 20.727C3.10243 20.8211 3.17892 20.8976 3.273 20.9455C3.37996 21 3.51997 21 3.8 21H8.84118C9.20467 21 9.38641 21 9.47057 20.9281C9.54359 20.8658 9.58235 20.7722 9.57481 20.6765C9.56613 20.5661 9.43761 20.4376 9.18059 20.1806L7.20711 18.2071L11.6465 13.7678L10.2322 12.3535L5.79289 16.7929L3.81941 14.8194C3.56239 14.5624 3.43387 14.4339 3.32354 14.4252C3.2278 14.4177 3.13425 14.4564 3.07188 14.5294Z" fill="#65676A"/>
</svg>
