<svg xmlns="http://www.w3.org/2000/svg" width="24" height="24" viewBox="0 0 24 24">
    <path fill="#65676A" fill-rule="evenodd" d="M19.448 1.683l2.746 5.465c.536 1.07.4 2.34-.32 3.266.083.516.126 1.046.126 1.586 0 5.522-4.478 10-10 10-5.523 0-10-4.478-10-10S6.477 2 12 2c2.344 0 4.5.807 6.205 2.158l1.243-2.475zM12 4c-4.412 0-8 3.59-8 8 0 4.411 3.588 8 8 8 4.411 0 8-3.589 8-8 0-.15-.004-.3-.012-.448-.957.169-1.976-.115-2.713-.852-.456-.455-.744-1.028-.852-1.633-1.084-.12-1.977-.513-2.677-1.102-.532-.448-.853-.91-1.011-1.267-.225-.505.003-1.095.508-1.32.468-.208 1.011-.027 1.266.404l.053.104c.044.098.195.316.472.549.418.352.97.589 1.698.655l.55-1.094C15.872 4.754 14.022 4 12 4zm.004 11.247c.648 0 1.166.073 1.571.205.317.103.547.237.699.38.4.38.419 1.012.04 1.414-.351.37-.917.414-1.318.12l-.096-.08.074.068h-.02c-.192-.063-.502-.107-.951-.107-.387 0-.671.032-.867.08l-.09.026c-.043.014-.015-.002.054-.067-.402.38-1.035.36-1.414-.041-.379-.402-.36-1.035.042-1.414.151-.143.382-.276.698-.38.407-.132.927-.205 1.578-.204zM8.786 9.72c.845 0 1.198.61 1.198 2.106 0 1.495-.353 2.105-1.198 2.105s-1.199-.61-1.199-2.105c0-1.496.354-2.106 1.2-2.106zm6.428 0c.845 0 1.198.61 1.198 2.106 0 1.495-.353 2.105-1.198 2.105-.846 0-1.199-.61-1.199-2.105 0-1.496.353-2.106 1.199-2.106zm4.233-3.979L18.33 7.966c-.242.482-.148 1.065.233 1.445.488.488 1.282.488 1.77 0 .38-.38.475-.963.233-1.445l-1.119-2.225zm-8.678-.363c.504.225.732.815.507 1.32-.158.356-.478.82-1.01 1.267-.853.718-1.992 1.143-3.412 1.143-.553 0-1-.448-1-1s.447-1 1-1c.943 0 1.627-.255 2.123-.673.238-.2.382-.388.446-.5l.026-.049c.224-.505.815-.732 1.32-.508z"/>
</svg>
