<svg xmlns="http://www.w3.org/2000/svg" width="24" height="24" viewBox="0 0 24 24">
    <path fill="#65676A" fill-rule="evenodd" d="M12 2c5.522 0 10 4.478 10 10s-4.478 10-10 10C6.477 22 2 17.522 2 12S6.477 2 12 2zm0 2c-4.41 0-8 3.59-8 8 0 4.411 3.59 8 8 8 4.411 0 8-3.589 8-8 0-4.41-3.589-8-8-8zM8.786 8.982c.845 0 1.198.61 1.198 2.106s-.353 2.106-1.198 2.106-1.199-.61-1.199-2.107c0-1.495.354-2.104 1.2-2.104zm6.428 0c.845 0 1.198.61 1.198 2.106s-.353 2.106-1.198 2.106-1.199-.61-1.199-2.107c0-1.495.354-2.104 1.199-2.104z"/>
</svg>
