<svg width="24" height="24" viewBox="0 0 24 24" fill="none" xmlns="http://www.w3.org/2000/svg">
<path fill-rule="evenodd" clip-rule="evenodd" d="M11 4H13V1H11V4ZM3.29311 4.7071L5.29311 6.7071L6.70711 5.2931L4.70711 3.2931L3.29311 4.7071ZM17.2932 5.2931L18.7072 6.7071L20.7072 4.7071L19.2932 3.2931L17.2932 5.2931ZM7.00021 8.0001H17.0002C17.5522 8.0001 18.0002 8.4481 18.0002 9.0001V11.6671C18.0002 11.8831 17.9302 12.0931 17.8002 12.2671L15.2002 15.7331C15.0702 15.9061 15.0002 16.1171 15.0002 16.3331V21.0001C15.0002 21.5521 14.5522 22.0001 14.0002 22.0001H10.0002C9.44821 22.0001 9.00021 21.5521 9.00021 21.0001V16.3331C9.00021 16.1171 8.93021 15.9061 8.80021 15.7331L6.20021 12.2671C6.07021 12.0931 6.00021 11.8831 6.00021 11.6671V9.0001C6.00021 8.4481 6.44821 8.0001 7.00021 8.0001Z" fill="#313234"/>
</svg>
