<svg xmlns="http://www.w3.org/2000/svg" width="24" height="24" viewBox="0 0 24 24">
    <path fill="#65676A" fill-rule="evenodd" d="M20 2c.552 0 1 .448 1 1v2.172c0 .53-.21 1.039-.586 1.414l-4.828 4.828c-.375.375-.586.884-.586 1.414v6.554c0 .379-.214.725-.553.894l-4 2c-.494.247-1.094.047-1.341-.447-.07-.139-.106-.292-.106-.447v-8.554c0-.53-.21-1.039-.586-1.414L3.586 6.586C3.21 6.21 3 5.702 3 5.172V3c0-.552.448-1 1-1h16zm-7 11h-2v6.763l2-1V13zm6-9H5v1.172L9.828 10c.297.296.542.634.73 1h2.884c.154-.3.347-.58.574-.835l.156-.165L19 5.172V4z"/>
</svg>
