<svg xmlns="http://www.w3.org/2000/svg" width="24" height="24" viewBox="0 0 24 24">
    <path fill="#65676A" fill-rule="evenodd" d="M12 2c4.411 0 8 3.525 8 7.86v8.595c0 1.012-.63 1.877-1.605 2.203-.974.323-2.012.02-2.64-.782-.174-.22-.354-.222-.528.001l-.716.911c-.605.77-1.52 1.212-2.51 1.212-.991 0-1.907-.44-2.513-1.212l-.715-.912c-.174-.22-.354-.222-.528.001-.629.801-1.664 1.105-2.641.781C4.63 20.331 4 19.468 4 18.455V9.86C4 5.525 7.589 2 12 2zm0 2C8.711 4 6.036 6.63 6.036 9.86v8.595c0 .193.122.275.225.31.103.036.252.044.372-.11.453-.576 1.136-.906 1.875-.906.741 0 1.424.33 1.877.905l.715.912c.434.551 1.366.553 1.8 0l.716-.912c.452-.575 1.135-.905 1.874-.905.741 0 1.425.33 1.877.905.121.155.27.148.371.111.103-.035.226-.117.226-.31V9.86C17.964 6.63 15.289 4 12 4zM9.096 8.076c.764 0 1.083.542 1.083 1.868 0 1.327-.319 1.87-1.083 1.87s-1.083-.543-1.083-1.87c0-1.326.32-1.868 1.083-1.868zm5.807 0c.764 0 1.083.542 1.083 1.868 0 1.327-.319 1.87-1.083 1.87s-1.083-.543-1.083-1.87c0-1.326.32-1.868 1.083-1.868z"/>
</svg>
