<svg xmlns="http://www.w3.org/2000/svg" width="24" height="24" viewBox="0 0 24 24">
    <path fill="#65676A" fill-rule="evenodd" d="M20 8.5c0 .276-.224.5-.5.5H16v2h2.5c.276 0 .5.224.5.5v1c0 .276-.224.5-.5.5H16v3.5c0 .276-.224.5-.5.5h-1c-.276 0-.5-.224-.5-.5v-9c0-.276.224-.5.5-.5h5c.276 0 .5.224.5.5v1zm-7 8c0 .276-.224.5-.5.5h-1c-.276 0-.5-.224-.5-.5v-9c0-.276.224-.5.5-.5h1c.276 0 .5.224.5.5v9zm-3-8c0 .276-.224.5-.5.5H6v6h2v-2.5c0-.276.224-.5.5-.5h1c.276 0 .5.224.5.5v4c0 .276-.224.5-.5.5H6c-1.104 0-2-.896-2-2V9c0-1.104.896-2 2-2h3.5c.276 0 .5.224.5.5v1zM20 5H4c-1.104 0-2 .896-2 2v10c0 1.104.896 2 2 2h16c1.104 0 2-.896 2-2V7c0-1.104-.896-2-2-2z"/>
</svg>
