<svg xmlns="http://www.w3.org/2000/svg" width="24" height="24" viewBox="0 0 24 24">
    <path fill="#65676A" fill-rule="evenodd" d="M15.334 19.263c.819-1.691 1.297-3.966 1.404-6.263h3.192c-.35 2.788-2.137 5.129-4.596 6.263zM4.07 13h3.192c.109 2.297.588 4.573 1.407 6.264-2.46-1.133-4.25-3.476-4.6-6.264zm4.598-8.264C7.85 6.426 7.372 8.702 7.263 11H4.069c.35-2.79 2.14-5.131 4.6-6.264zM9.264 11c.204-4.303 1.69-7 2.738-7s2.534 2.697 2.738 7H9.261zM12 19.999c-1.047 0-2.534-2.696-2.739-7h5.476c-.204 4.304-1.69 7-2.737 7zm7.93-9h-3.193c-.107-2.296-.585-4.571-1.404-6.262C17.793 5.87 19.58 8.212 19.93 11zM12 2C6.486 2 2 6.487 2 12c0 5.515 4.485 10 10 10 5.514 0 10-4.485 10-10 0-5.513-4.486-10-10-10z"/>
</svg>
