<svg xmlns="http://www.w3.org/2000/svg" width="24" height="24" viewBox="0 0 24 24">
    <path fill="#65676A" fill-rule="evenodd" d="M12.006 10.001l.166.005c.971.083 1.743.858 1.821 1.831.05.61-.265 1.177-.719 1.587-.715.646-1.275.636-1.785.501L8 17.415v1.382c0 .13-.051.255-.141.348l-2.908 3c-.125.13-.343.041-.343-.139l-.001-2.614H1.994c-.18 0-.269-.219-.139-.344l3-2.907c.093-.09.217-.14.348-.14h1.383l3.488-3.49c-.136-.51-.146-1.073.504-1.788.413-.455.982-.769 1.594-.717zm-.006-8c5.514 0 10 4.485 10 10 0 5.513-4.486 10-10 10v-2c4.411 0 8-3.59 8-8 0-4.412-3.589-8-8-8-4.41 0-8 3.588-8 8H2C2 6.485 6.486 2 12 2z"/>
</svg>
