<svg xmlns="http://www.w3.org/2000/svg" width="24" height="24" fill="none" viewBox="0 0 24 24">
    <path fill="#65676A" fill-rule="evenodd" d="M13.776 21h-3.551c-.262 0-.474-.213-.474-.475V3.475c0-.263.212-.475.474-.475h3.55c.263 0 .476.212.476.475v17.05c0 .262-.213.475-.475.475zm6.75 0h-3.551c-.262 0-.474-.213-.474-.475V8.475c0-.263.212-.475.474-.475h3.55c.263 0 .476.212.476.475v12.05c0 .262-.213.475-.475.475zM3.52 21h3.46c.287 0 .52-.232.52-.52v-4.96c0-.288-.233-.52-.52-.52H3.52c-.288 0-.52.232-.52.52v4.96c0 .288.232.52.52.52z" clip-rule="evenodd"/>
</svg>
