<svg xmlns="http://www.w3.org/2000/svg" width="24" height="24" viewBox="0 0 24 24">
    <path fill="#65676A" fill-rule="evenodd" d="M16.484 13.5c3.414 0 6.213 2.631 6.48 5.977.021.284-.218.523-.503.523h-3.997c-.269 0-.479-.213-.493-.48-.122-2.306-1.117-4.383-2.657-5.909.38-.069.77-.11 1.17-.11zm-7.5-1.5c4.242 0 7.713 3.302 7.983 7.476.018.284-.22.524-.506.524H1.507c-.285 0-.524-.24-.506-.524C1.271 15.302 4.742 12 8.984 12zm7.5-5C18.1 7 19.41 8.31 19.41 9.925c0 1.615-1.31 2.925-2.925 2.925-1.616 0-2.925-1.31-2.925-2.925C13.56 8.31 14.87 7 16.484 7zm-7.5-3c1.988 0 3.6 1.612 3.6 3.6s-1.612 3.6-3.6 3.6-3.6-1.612-3.6-3.6S6.996 4 8.984 4z"/>
</svg>
