<svg xmlns="http://www.w3.org/2000/svg" width="24" height="24" viewBox="0 0 24 24">
    <path fill="#65676A" fill-rule="evenodd" d="M13.52 22.258c.944.945 2.591.945 3.535 0 .974-.975.974-2.56 0-3.535L16.332 18h1.918c1.311 0 2.54-.643 3.288-1.722.747-1.078.917-2.455.457-3.683l-2.25-6C19.163 5.043 17.658 4 16 4h-2.677c-1.005 0-1.988.19-2.923.563C7.727 5.632 6 8.184 6 11.063v.776c0 1.869.728 3.628 2.05 4.95zm-8.922-7.063c.276 0 .5-.224.5-.5V5.63c0-.276-.224-.5-.5-.5H2.5c-.276 0-.5.224-.5.5v9.065c0 .276.224.5.5.5zm10.69 5.795c-.078 0-.227-.019-.354-.146l-5.47-5.469C8.52 14.431 8 13.175 8 11.839v-.776c0-2.057 1.234-3.879 3.143-4.643.697-.278 1.43-.42 2.18-.42H16c.83 0 1.581.522 1.872 1.297l2.25 6.001c.234.623.151 1.294-.229 1.842-.378.547-.978.86-1.643.86h-4.09c-.446 0-.845.266-1.016.677-.17.411-.079.882.235 1.198l2.262 2.262c.194.195.194.512 0 .707-.128.128-.276.146-.354.146z"/>
</svg>
