<svg xmlns="http://www.w3.org/2000/svg" width="24" height="24" viewBox="0 0 24 24">
    <path fill="#65676A" fill-rule="evenodd" d="M10.63 4.89c1.228 0 2.224.997 2.224 2.225v3.254l5.643 2.126c1.322.495 2.219 1.724 2.298 3.122l.005.2v.599c0 .884-.169 1.762-.498 2.586-.94 2.353-3.219 3.896-5.754 3.896h-.686c-1.643 0-3.22-.654-4.382-1.816l-4.83-4.829c-.867-.869-.867-2.275.002-3.145.869-.868 2.276-.868 3.146 0l.608.609V7.115c0-1.175.91-2.137 2.066-2.219zm0 1.8c-.234 0-.424.19-.424.425v8.562c0 .884-1.073 1.323-1.687.698l-1.993-1.993c-.167-.167-.436-.167-.602-.002-.166.167-.166.435 0 .601l4.829 4.828c.824.825 1.944 1.289 3.11 1.289h.685c1.799 0 3.415-1.095 4.083-2.764.244-.611.37-1.263.37-1.918v-.598c0-.73-.453-1.382-1.137-1.638l-6.81-2.566v-4.5c0-.233-.19-.423-.424-.423zM6.44 2.743c2.32-2.321 6.1-2.323 8.423 0 1.875 1.875 2.244 4.759 1.019 7.034l-1.9-.716c.975-1.542.778-3.592-.533-4.904-1.544-1.544-4.053-1.543-5.595 0-1.39 1.39-1.545 3.617-.361 5.182.109.145.229.282.36.413L6.44 11.167c-.2-.197-.38-.406-.544-.623-1.783-2.355-1.55-5.71.543-7.802z"/>
</svg>
