<svg xmlns="http://www.w3.org/2000/svg" width="24" height="24" fill="none" viewBox="0 0 24 24">
    <path fill="#65676A" fill-rule="evenodd" d="M18.25 5.967c1.311 0 2.54.643 3.288 1.722.747 1.078.917 2.455.457 3.683l-2.25 6c-.582 1.552-2.087 2.595-3.745 2.595h-2.677c-1.005 0-1.988-.19-2.923-.563-2.673-1.07-4.4-3.621-4.4-6.5v-.776c0-1.87.728-3.628 2.05-4.95l5.47-5.47c.944-.944 2.591-.944 3.535 0 .974.976.974 2.56 0 3.536l-.723.723h1.918zm1.872 4.732l-2.25 6c-.29.776-1.043 1.298-1.872 1.298h-2.677c-.75 0-1.483-.142-2.18-.42C9.234 16.813 8 14.99 8 12.934v-.776c0-1.336.52-2.592 1.464-3.536l5.47-5.47c.127-.126.276-.145.353-.145.078 0 .226.018.354.146.194.195.194.512 0 .707L13.38 6.122c-.314.316-.406.787-.235 1.198.171.41.57.677 1.015.677h4.091c.665 0 1.265.313 1.643.86.38.548.463 1.219.23 1.842zM2 9.8c0-.28 0-.42.055-.527.048-.094.124-.17.218-.218C2.38 9 2.52 9 2.8 9h1.4c.28 0 .42 0 .527.055.094.047.17.124.219.218C5 9.38 5 9.52 5 9.8v8.4c0 .28 0 .42-.054.527-.048.094-.125.17-.219.218C4.62 19 4.48 19 4.2 19H2.8c-.28 0-.42 0-.527-.055-.094-.047-.17-.124-.218-.218C2 18.62 2 18.48 2 18.2V9.8z" clip-rule="evenodd"/>
</svg>
