<svg xmlns="http://www.w3.org/2000/svg" width="24" height="24" viewBox="0 0 24 24">
    <path fill="#65676A" fill-rule="evenodd" d="M18.58 16.858C17.816 18.767 15.994 20 13.937 20h-.779c-1.334 0-2.589-.52-3.533-1.462l-5.5-5.495c-.119-.117-.136-.253-.136-.325 0-.072.017-.21.162-.354.097-.098.226-.152.361-.153h.001c.133 0 .257.053.352.147l2.26 2.264c.317.313.786.406 1.198.235.411-.171.677-.57.677-1.016V4.5c0-.277.224-.5.5-.5s.5.223.5.5V13.495C10 14.875 11.122 16 12.5 16c.565 0 1.081-.197 1.5-.514.42.317.935.514 1.5.514 1.378 0 2.5-1.123 2.5-2.505V10.997l.007-3.526c.001-.261.216-.476.48-.476.281 0 .511.228.511.51L19 14.678c0 .748-.14 1.482-.42 2.18zM12.5 10c.276 0 .5.226.5.504v2.99c0 .279-.224.506-.5.506s-.5-.227-.5-.505v-2.991c0-.279.224-.505.5-.505zm3 0c.276 0 .5.226.5.504v2.99c0 .279-.224.506-.5.506s-.5-.227-.5-.505v-2.991c0-.279.224-.505.5-.505zm5.498-2.497c0-1.384-1.126-2.51-2.512-2.51-1.364 0-2.475 1.109-2.479 2.473v.585C15.842 8.018 15.672 8 15.5 8c-.565 0-1.08.196-1.5.513-.419-.317-.935-.513-1.5-.513-.17 0-.338.017-.5.05V4.5C12 3.12 10.878 2 9.5 2S7 3.12 7 4.5v7.165l-.719-.72c-.472-.473-1.1-.735-1.767-.735H4.51c-.668.002-1.297.264-1.8.765-.464.466-.72 1.084-.72 1.741 0 .66.257 1.277.722 1.742l5.5 5.494C9.533 21.273 11.291 22 13.158 22h.78c2.878 0 5.43-1.727 6.498-4.4.374-.934.564-1.918.564-2.923l-.002-7.173z"/>
</svg>
