<svg xmlns="http://www.w3.org/2000/svg" width="24" height="24" viewBox="0 0 24 24">
    <path fill="#65676A" fill-rule="evenodd" d="M4.51 12.213c-.129 0-.257.049-.355.146-.127.128-.146.277-.146.354 0 .077.02.226.146.354l5.47 5.468c.944.945 2.2 1.465 3.535 1.465h.777c2.056 0 3.88-1.233 4.643-3.142.278-.698.42-1.431.42-2.181V14c0-.829-.522-1.581-1.298-1.872L10 9.225V3.5c0-.275-.224-.5-.5-.5s-.5.225-.5.5v10.341c0 .445-.266.844-.677 1.015-.412.172-.882.08-1.199-.235l-2.26-2.262c-.099-.097-.227-.146-.355-.146M13.937 22h-.777c-1.87 0-3.628-.728-4.95-2.051l-5.469-5.468c-.472-.473-.732-1.1-.732-1.768 0-.669.26-1.297.733-1.769.974-.972 2.56-.973 3.535.001l.723.723V3.5C7 2.121 8.121 1 9.5 1 10.878 1 12 2.121 12 3.5v4.342l6.405 2.414C19.956 10.836 21 12.342 21 14v.677c0 1.006-.19 1.989-.564 2.923-1.069 2.673-3.62 4.4-6.499 4.4"/>
</svg>
