<svg xmlns="http://www.w3.org/2000/svg" width="24" height="24" viewBox="0 0 24 24">
    <path fill="#65676A" fill-rule="evenodd" d="M3 17.004c0 1.649 1.342 2.992 2.992 2.992v2C3.24 21.996 1 19.757 1 17.004zM6.39 2.465c.975-.975 2.56-.975 3.535 0l5.067 5.067V6.515c0-.667.257-1.295.73-1.767.962-.964 2.642-.932 3.557-.016.466.466.721 1.084.721 1.743l-.005 7.774c0 1.868-.729 3.624-2.05 4.945l-.552.551c-1.345 1.346-3.122 2.057-4.937 2.057-.93 0-1.872-.188-2.77-.573-.925-.396-1.754-.958-2.464-1.668L2.15 14.487c-.474-.475-.735-1.106-.734-1.777 0-.67.263-1.3.737-1.775.118-.117.245-.219.378-.308l-.38-.38c-.976-.978-.978-2.564-.003-3.539.222-.222.478-.387.75-.508-.04-.179-.067-.362-.067-.55-.002-.67.258-1.299.731-1.77.628-.629 1.51-.846 2.32-.663.12-.273.286-.53.51-.752zM8.511 3.88c-.195-.195-.513-.194-.708.001-.194.194-.194.51 0 .705l5.304 5.305-1.414 1.414L6.39 6v-.002l-.703-.7c-.197-.197-.516-.198-.71-.004-.127.127-.146.275-.146.352 0 .08.02.23.15.36l6.006 6.006-1.414 1.414-5.3-5.3c-.096-.096-.223-.149-.358-.15-.079 0-.227.02-.353.146-.195.195-.193.514.004.711l4.586 4.586.713.714-1.414 1.414-.71-.71-2.498-2.487c-.187-.187-.49-.186-.676 0-.097.098-.15.226-.15.363-.002.136.052.264.148.361l5.073 5.073c.528.53 1.147.95 1.837 1.245 1.891.81 4.051.393 5.505-1.06l.552-.552c.943-.943 1.463-2.198 1.464-3.533L18 6.473c0-.166-.085-.276-.135-.327-.105-.103-.542-.172-.729.015-.093.094-.144.218-.144.351l.001 3.195c0 .445-.266.844-.676 1.015-.412.173-.882.08-1.199-.235zM18.001 1c2.756 0 5 2.24 5 4.992h-2C21 4.343 19.653 3 18 3z"/>
</svg>
