<svg xmlns="http://www.w3.org/2000/svg" width="24" height="24" viewBox="0 0 24 24">
    <path fill="#65676A" fill-rule="evenodd" d="M18.58 16.858C17.816 18.767 15.994 20 13.937 20h-.779c-1.334 0-2.589-.52-3.533-1.462l-5.5-5.495c-.119-.117-.136-.253-.136-.325 0-.072.017-.21.161-.354.098-.098.227-.152.362-.153h.001c.133 0 .257.053.352.147l2.26 2.264c.317.313.786.406 1.198.235.411-.171.677-.57.677-1.016V4.5c0-.277.224-.5.5-.5s.5.223.5.5V12h2V3.504c0-.277.224-.503.5-.503s.5.226.5.504V12h2V4.505c0-.279.224-.505.5-.505s.5.226.5.505V12h2v-1.005l.007-3.526c.001-.261.216-.476.48-.476.281 0 .511.228.511.51L19 14.678c0 .748-.142 1.482-.42 2.18zm2.418-9.355c0-1.383-1.126-2.51-2.512-2.51-.166 0-.329.018-.486.05v-.538C18 3.125 16.878 2 15.5 2c-.315 0-.614.065-.892.17-.443-.7-1.219-1.17-2.108-1.17-.888 0-1.665.469-2.108 1.17-.278-.107-.577-.17-.892-.17C8.122 2 7 3.12 7 4.5v7.165l-.719-.72c-.472-.473-1.1-.735-1.768-.735h-.005c-.668.002-1.297.264-1.798.765-.465.465-.72 1.084-.72 1.741 0 .66.256 1.277.721 1.742l5.5 5.494C9.533 21.273 11.291 22 13.158 22h.78c2.878 0 5.43-1.727 6.498-4.4.374-.934.564-1.918.564-2.923l-.002-7.173z"/>
</svg>
