<svg xmlns="http://www.w3.org/2000/svg" width="24" height="24" fill="none" viewBox="0 0 24 24">
    <path fill="#65676A" d="M16.777 20.976c-.37.37-.81.514-1.24.514-.428 0-.87-.145-1.237-.512l-5.47-5.469-.202-.212C7.578 14.145 7 12.658 7 11.089v-.776l.005-.256c.099-2.462 1.62-4.625 3.924-5.548.846-.337 1.737-.509 2.644-.509h2.677l.192.006c1.272.075 2.399.899 2.85 2.102l2.25 6 .069.203c.29.95.132 1.965-.44 2.791l-.128.172c-.615.778-1.539 1.226-2.543 1.226h-3.73l2.005 2.003.113.125c.566.689.528 1.705-.11 2.348zM3.054 14.727C3 14.62 3 14.48 3 14.2V5.8c0-.28 0-.42.054-.527.048-.094.125-.17.219-.218C3.38 5 3.52 5 3.8 5h1.4c.28 0 .42 0 .527.055.094.047.17.124.218.218C6 5.38 6 5.52 6 5.8v8.4c0 .28 0 .42-.055.527-.048.094-.124.17-.218.218C5.62 15 5.48 15 5.2 15H3.8c-.28 0-.42 0-.527-.055-.094-.047-.17-.124-.219-.218z"/>
</svg>
