<svg xmlns="http://www.w3.org/2000/svg" width="24" height="24" fill="none" viewBox="0 0 24 24">
    <path fill="#65676A" d="M18 3V1c2.757 0 5 2.24 5 4.992h-2C21 4.343 19.654 3 18 3z"/>
    <path fill="#65676A" fill-rule="evenodd" d="M15.721 4.748c-.472.472-.73 1.1-.729 1.767v1.017L9.925 2.465c-.975-.975-2.56-.975-3.535 0-.223.222-.389.48-.51.752-.809-.183-1.69.034-2.319.663-.473.471-.733 1.1-.73 1.77 0 .188.025.371.065.55-.27.121-.527.286-.749.508-.975.975-.973 2.561.003 3.54l.38.38c-.133.088-.26.19-.378.307-.474.475-.737 1.105-.737 1.775 0 .671.26 1.302.734 1.777l5.073 5.074c.71.71 1.54 1.272 2.464 1.668.898.385 1.84.573 2.77.573 1.815 0 3.592-.71 4.937-2.057l.552-.55c1.321-1.322 2.05-3.078 2.05-4.946L20 6.475c0-.659-.255-1.277-.72-1.743-.916-.916-2.596-.948-3.559.016zm2.274 9.5c0 1.334-.52 2.59-1.464 3.532l-.552.551c-1.454 1.454-3.614 1.87-5.505 1.061-.69-.296-1.309-.715-1.837-1.245l-5.073-5.073c-.096-.097-.15-.225-.149-.36 0-.138.054-.266.151-.364.186-.186.49-.187.676 0l2.498 2.487.71.71 1.414-1.414-5.299-5.3c-.197-.197-.199-.516-.004-.71.126-.127.274-.147.352-.147.135.001.263.054.36.15l5.3 5.3 1.413-1.414L4.98 6.005c-.13-.13-.149-.28-.149-.359 0-.077.02-.225.145-.352.195-.194.514-.193.711.003l.702.701.002.003 5.303 5.303 1.414-1.414-5.304-5.305c-.194-.195-.194-.51 0-.705.195-.195.513-.196.708 0l6.607 6.607c.317.315.787.408 1.2.235.41-.17.675-.57.675-1.015V6.512c0-.133.05-.257.143-.35.187-.188.624-.119.73-.016.05.051.134.161.134.327l-.005 7.774z" clip-rule="evenodd"/>
    <path fill="#65676A" d="M3 17.004H1c0 2.753 2.24 4.992 4.992 4.992v-2C4.342 19.996 3 18.653 3 17.004z"/>
</svg>
