<svg width="24" height="24" viewBox="0 0 24 24" fill="none" xmlns="http://www.w3.org/2000/svg">
<path fill-rule="evenodd" clip-rule="evenodd" d="M17.996 10.2531C17.996 6.94411 15.305 4.25311 11.996 4.25311C10.372 4.25311 8.90904 4.91311 7.82904 5.96511L14.996 13.1321V11.7531C14.996 10.9261 15.669 10.2531 16.496 10.2531H17.996ZM19.996 17.2531C19.996 17.4981 19.898 17.7141 19.752 17.8881L22.249 20.3841L20.834 21.7991L2.45001 3.41412L3.86401 2.00012L6.40901 4.54412C7.85001 3.12912 9.82101 2.25312 11.996 2.25312C16.407 2.25312 19.996 5.84212 19.996 10.2531V11.2531V14.2531V17.2531ZM5.99603 18.2531V19.2531C5.99603 19.8041 6.44503 20.2531 6.99603 20.2531H11.996V22.2531H6.99603C5.34203 22.2531 3.99603 20.9071 3.99603 19.2531V18.2531V10.2531C3.99603 9.11313 4.23903 8.03113 4.67103 7.04913L6.23103 8.60913C6.08103 9.13213 5.99603 9.68213 5.99603 10.2531H7.49603C8.32303 10.2531 8.99603 10.9261 8.99603 11.7531V16.7531C8.99603 17.5801 8.32303 18.2531 7.49603 18.2531H5.99603Z" fill="#313234"/>
</svg>
