<svg width="12" height="12" viewBox="0 0 12 12" fill="none" xmlns="http://www.w3.org/2000/svg">
<path fill-rule="evenodd" clip-rule="evenodd" d="M3.94745 2.5014C3.66345 2.5014 3.38395 2.5594 3.13945 2.6699C2.90895 2.7739 2.72945 2.8899 2.60445 3.0144C1.83495 3.7839 1.80395 4.9769 2.53045 5.8499C3.45795 6.9644 5.03895 8.4409 6.00195 9.3119C6.96495 8.4404 8.54695 6.9634 9.47295 5.8499C10.1995 4.9769 10.1685 3.7844 9.39895 3.0149C9.27395 2.8899 9.09395 2.7739 8.86445 2.6699C8.07845 2.3144 6.92995 2.5004 6.44395 3.4194C6.44395 3.4194 6.19145 3.8949 6.10945 4.0479C6.05995 4.1409 5.94195 4.1409 5.89195 4.0479C5.78745 3.8534 5.55995 3.4194 5.55995 3.4194C5.22495 2.7864 4.57545 2.5014 3.94745 2.5014M6.00145 10.3994C5.82245 10.3994 5.64395 10.3354 5.50145 10.2074C4.54445 9.34691 2.78545 7.72041 1.76195 6.48991C0.696949 5.20991 0.753949 3.45091 1.89745 2.30741C2.10795 2.09691 2.38695 1.91241 2.72745 1.75891C3.85895 1.24691 5.18995 1.52091 6.00195 2.34841C6.81395 1.52141 8.14495 1.24791 9.27645 1.75891C9.61645 1.91241 9.89545 2.09691 10.1059 2.30741V2.30741C11.2494 3.45091 11.3064 5.20991 10.2414 6.48991C9.21895 7.71891 7.45995 9.34641 6.50195 10.2074C6.35945 10.3354 6.18045 10.3994 6.00145 10.3994" fill="#65676A"/>
</svg>
