<svg xmlns="http://www.w3.org/2000/svg" width="24" height="24" viewBox="0 0 24 24">
    <path fill="#65676A" fill-rule="evenodd" d="M5.154 3.581c2.29-1.68 5.38-1.884 7.871-.525 2.054 1.12 3.423 3.091 3.757 5.407.333 2.316-.424 4.594-2.079 6.249-.453.453-.702 1.055-.702 1.695V17c0 1.565-.748 3.061-1.999 4-.884.662-1.943.993-3 .993-1.06 0-2.118-.331-3-.993-1.254-.939-2-2.434-2-4v-1h2v1c0 .94.447 1.836 1.2 2.401 1.06.794 2.54.794 3.6 0 .75-.565 1.2-1.461 1.2-2.401v-.593c0-1.174.456-2.279 1.287-3.109 1.204-1.205 1.756-2.863 1.514-4.55-.244-1.685-1.24-3.121-2.736-3.936-1.814-.99-4.064-.84-5.73.382l-1.745 1.28L3.41 4.86zm13.666-.578c1.017 1.455 1.663 3.1 1.921 4.89.5 3.473-.6 6.917-3.017 9.45l-1.447-1.381c1.991-2.086 2.896-4.923 2.485-7.784-.213-1.476-.746-2.832-1.582-4.028zM8.585 6.118c1.08-.282 2.194-.056 3.058.614.863.669 1.358 1.677 1.358 2.768h-2c0-.467-.212-.9-.583-1.187-.377-.291-.85-.384-1.333-.26-.489.128-.903.542-1.03 1.03-.125.485-.032.958.26 1.334.286.37.72.583 1.186.583v2c-1.09 0-2.1-.495-2.768-1.358-.669-.863-.893-1.978-.614-3.058.308-1.19 1.276-2.158 2.466-2.466z"/>
</svg>
