<svg width="24" height="24" viewBox="0 0 24 24" fill="none" xmlns="http://www.w3.org/2000/svg">
<g id="heart">
<path id="Fill 1" fill-rule="evenodd" clip-rule="evenodd" d="M7.8949 5.00279C7.3269 5.00279 6.7679 5.11879 6.2789 5.33979C5.8179 5.54779 5.4589 5.77979 5.2089 6.02879C3.6699 7.56779 3.6079 9.95379 5.0609 11.6998C6.9159 13.9288 10.0779 16.8818 12.0039 18.6238C13.9299 16.8808 17.0939 13.9268 18.9459 11.6998C20.3989 9.95379 20.3369 7.56879 18.7979 6.02979C18.5479 5.77979 18.1879 5.54779 17.7289 5.33979C16.1569 4.62879 13.8599 5.00079 12.8879 6.83879C12.8879 6.83879 12.3829 7.78979 12.2189 8.09579C12.1199 8.28179 11.8839 8.28179 11.7839 8.09579C11.5749 7.70679 11.1199 6.83879 11.1199 6.83879C10.4499 5.57279 9.1509 5.00279 7.8949 5.00279ZM12.0029 20.7988C11.6449 20.7988 11.2879 20.6708 11.0029 20.4148C9.0889 18.6938 5.5709 15.4408 3.5239 12.9798C1.3939 10.4198 1.5079 6.90181 3.7949 4.61481C4.2159 4.19381 4.7739 3.82481 5.4549 3.51781C7.7179 2.49381 10.3799 3.04181 12.0039 4.69681C13.6279 3.04281 16.2899 2.49581 18.5529 3.51781C19.2329 3.82481 19.7909 4.19381 20.2119 4.61481C22.4989 6.90181 22.6129 10.4198 20.4829 12.9798C18.4379 15.4378 14.9199 18.6928 13.0039 20.4148C12.7189 20.6708 12.3609 20.7988 12.0029 20.7988Z" fill="#242428"/>
</g>
</svg>
