<svg xmlns="http://www.w3.org/2000/svg" width="24" height="24" fill="none" viewBox="0 0 24 24">
    <path fill="#65676A" d="M16.782 8.463c-.334-2.316-1.703-4.287-3.757-5.407-2.49-1.359-5.582-1.155-7.87.525L3.408 4.86l1.183 1.614 1.744-1.28c1.667-1.222 3.917-1.372 5.731-.382 1.495.815 2.492 2.251 2.736 3.936.242 1.687-.31 3.345-1.514 4.55-.83.83-1.288 1.935-1.288 3.109V17c0 .94-.449 1.836-1.2 2.401-1.06.794-2.54.794-3.6 0-.752-.565-1.2-1.461-1.2-2.401v-1h-2v1c0 1.566.747 3.061 2 4 .883.662 1.941.993 3 .993 1.058 0 2.117-.331 3.001-.993 1.251-.939 2-2.435 2-4v-.593c0-.64.248-1.242.701-1.695 1.655-1.655 2.412-3.933 2.08-6.249z"/>
    <path fill="#65676A" d="M20.741 7.893c-.258-1.79-.904-3.435-1.92-4.89L17.18 4.15c.835 1.196 1.368 2.552 1.581 4.028.411 2.86-.494 5.698-2.485 7.784l1.447 1.38c2.417-2.532 3.517-5.976 3.017-9.45zM10.418 8.313c-.377-.291-.85-.384-1.333-.26-.489.128-.903.542-1.03 1.03-.125.485-.032.958.26 1.334.286.37.72.583 1.186.583v2c-1.09 0-2.1-.495-2.768-1.358-.669-.863-.893-1.978-.614-3.058.308-1.19 1.276-2.158 2.466-2.466 1.08-.282 2.194-.056 3.058.614.863.669 1.358 1.677 1.358 2.768h-2c0-.467-.212-.9-.583-1.187z"/>
</svg>
