<svg xmlns="http://www.w3.org/2000/svg" width="24" height="24" viewBox="0 0 24 24">
    <path fill="#65676A" fill-rule="evenodd" d="M12 2c5.523 0 10 4.477 10 10s-4.477 10-10 10S2 17.523 2 12 6.477 2 12 2zm0 2c-4.419 0-8 3.581-8 8 0 4.419 3.581 8 8 8 4.418 0 8-3.582 8-8s-3.582-8-8-8zm-.059 11.685c.688 0 1.244.556 1.244 1.244 0 .687-.556 1.243-1.244 1.243-.686 0-1.243-.556-1.243-1.243 0-.688.557-1.244 1.243-1.244zm.057-9.66c2.154 0 3.842 1.52 3.842 3.46 0 1.654-1.393 2.533-2.225 3.056-.236.15-.784.573-.784 1.292v.708H10.93v-.708c0-1.156.625-2.24 1.672-2.9.867-.546 1.337-.939 1.337-1.447 0-1.014-1-1.561-1.94-1.561-1.035 0-1.942.73-1.942 1.56h-1.9c0-1.875 1.758-3.46 3.841-3.46z"/>
</svg>
