<svg xmlns="http://www.w3.org/2000/svg" width="24" height="24" fill="none" viewBox="0 0 24 24">
    <path fill="#65676A" fill-rule="evenodd" d="M6.385 6.3C7.873 4.837 9.87 4 12 4c4.418 0 8 3.582 8 8s-3.582 8-8 8-8-3.582-8-8H2c0 5.523 4.477 10 10 10s10-4.477 10-10c0-5.522-4.478-10-10-10C9.334 2 6.83 3.05 4.97 4.887L2.854 2.769C2.54 2.455 2 2.677 2 3.123V8.75c0 .276.224.5.5.5h5.627c.445 0 .668-.539.353-.854L6.385 6.301zM13 6h-2v6.539l4.618 2.364.912-1.78L13 11.316V6z" clip-rule="evenodd"/>
</svg>
