<svg xmlns="http://www.w3.org/2000/svg" width="24" height="24" viewBox="0 0 24 24">
    <path fill="#65676A" fill-rule="evenodd" d="M17 2c1.103 0 2 .898 2 2v2.553c0 .857-.307 1.676-.888 2.366l-2.594 3.08 2.594 3.08c.573.68.888 1.522.888 2.369V20c0 1.103-.897 2-2 2H7c-1.103 0-2-.897-2-2v-2.552c0-.86.307-1.677.89-2.368L8.481 12 5.888 8.92C5.308 8.23 5 7.41 5 6.552V4c0-1.102.897-2 2-2zm0 2H7v2.552c0 .382.145.755.418 1.08l2.895 3.437c.454.54.454 1.323 0 1.862l-2.895 3.438c-.273.325-.418.698-.418 1.079V20h10v-2.552c0-.381-.145-.754-.418-1.08l-2.895-3.436c-.455-.54-.455-1.323.001-1.864l2.894-3.437c.273-.324.418-.697.418-1.078V4zm-5 9.035c.296 0 .576.131.766.358C16 17.26 16 17.26 16 17.447V19H8l.001-1.587c.012-.168.201-.394 3.232-4.02.191-.228.47-.358.767-.358zM14.964 8l-.271.322-1.928 2.289c-.19.227-.47.356-.765.356-.296 0-.574-.129-.765-.356L9.307 8.322 9.036 8h5.928z"/>
</svg>
