<svg xmlns="http://www.w3.org/2000/svg" width="24" height="24" viewBox="0 0 24 24">
    <path fill="#65676A" fill-rule="evenodd" d="M17 2c1.103 0 2 .898 2 2v2.553c0 .857-.307 1.676-.888 2.366l-2.594 3.08 2.594 3.08c.573.68.888 1.522.888 2.369V20c0 1.103-.897 2-2 2H7c-1.103 0-2-.897-2-2v-2.552c0-.86.307-1.677.89-2.368L8.481 12 5.888 8.92C5.308 8.23 5 7.41 5 6.552V4c0-1.102.897-2 2-2zm0 2H7v2.552c0 .382.145.755.418 1.08l2.895 3.437c.454.54.454 1.323 0 1.862l-2.895 3.438c-.273.325-.418.698-.418 1.079V20h10v-2.552c0-.381-.145-.754-.418-1.08l-2.895-3.436c-.455-.54-.455-1.323.001-1.864l2.894-3.437c.273-.324.418-.697.418-1.078V4zm-5.005 12.497l.057.006c.047.005.047.005 1.837.515 2.11.603 2.11.603 2.11.982v1H8v-1.04c.003-.34.076-.36 2.105-.94 1.642-.47 1.77-.506 1.82-.514l.013-.002.058-.007zM16 5.001v1.553c0 .187 0 .187-3.234 4.053-.19.228-.47.359-.766.359-.296 0-.576-.131-.767-.359-3.03-3.624-3.22-3.85-3.232-4.02V5.002h8z"/>
</svg>
