<svg width="24" height="24" viewBox="0 0 24 24" fill="none" xmlns="http://www.w3.org/2000/svg">
<g id="image-failed">
<path id="Combined Shape" fill-rule="evenodd" clip-rule="evenodd" d="M18.986 18.9991H7.10899L8.10899 17.9991H17.986V11.9991L15.403 10.7061L18.986 7.12213V18.9991ZM20.825 2.4541L20.13 3.1501C20.1294 3.14953 20.1292 3.14928 20.1289 3.14918L20.128 3.1491L18.278 4.9991H18.28L16.572 6.7071L12.57 10.7101L12.565 10.7121L5.98599 17.2911V17.2941L4.98599 18.2931V18.2911L3.13599 20.1411C3.13599 20.1421 3.13699 20.1431 3.13699 20.1431L2.44099 20.8391L3.85499 22.2531L5.10899 20.9991H19.486C20.313 20.9991 20.986 20.3261 20.986 19.4991V5.1221L22.24 3.8681L20.825 2.4541ZM7.98599 9.99908C9.08999 9.99908 9.98599 9.10308 9.98599 7.99908C9.98599 6.89508 9.08999 5.99908 7.98599 5.99908C6.88199 5.99908 5.98599 6.89508 5.98599 7.99908C5.98599 9.10308 6.88199 9.99908 7.98599 9.99908ZM16.864 4.99908H4.98599V16.8771L2.98599 18.8771V4.49908C2.98599 3.67208 3.65899 2.99908 4.48599 2.99908H18.864L16.864 4.99908Z" fill="#313234"/>
</g>
</svg>
