<svg width="24" height="24" viewBox="0 0 24 24" fill="none" xmlns="http://www.w3.org/2000/svg">
<g id="instagram">
<path id="Combined Shape" fill-rule="evenodd" clip-rule="evenodd" d="M19.3351 15.6367C19.2951 16.5147 19.1481 16.9907 19.0251 17.3077C18.8621 17.7277 18.6671 18.0277 18.3521 18.3427C18.0371 18.6577 17.7371 18.8527 17.3171 19.0157C17.0001 19.1397 16.5231 19.2857 15.6461 19.3257C14.6971 19.3687 14.4131 19.3777 12.0091 19.3777C9.6061 19.3777 9.3211 19.3687 8.3721 19.3257C7.4951 19.2857 7.0181 19.1397 6.7011 19.0157C6.2811 18.8527 5.9811 18.6577 5.6671 18.3427C5.3521 18.0277 5.1561 17.7277 4.9931 17.3077C4.8701 16.9907 4.7231 16.5147 4.6831 15.6367C4.6401 14.6877 4.6311 14.4037 4.6311 11.9997C4.6311 9.59673 4.6401 9.31273 4.6831 8.36373C4.7231 7.48573 4.8701 7.00873 4.9931 6.69273C5.1561 6.27173 5.3521 5.97173 5.6671 5.65773C5.9811 5.34173 6.2811 5.14773 6.7011 4.98373C7.0181 4.86073 7.4951 4.71373 8.3721 4.67373C9.3211 4.63073 9.6061 4.62073 12.0091 4.62073C14.4121 4.62073 14.6971 4.63073 15.6461 4.67373C16.5231 4.71373 17.0001 4.86073 17.3171 4.98373C17.7371 5.14773 18.0371 5.34173 18.3521 5.65773C18.6671 5.97173 18.8621 6.27173 19.0251 6.69273C19.1481 7.00873 19.2951 7.48573 19.3351 8.36373C19.3781 9.31273 19.3881 9.59673 19.3881 11.9997C19.3881 14.4037 19.3781 14.6877 19.3351 15.6367ZM20.9551 8.28876C20.9111 7.33076 20.7591 6.67676 20.5371 6.10476C20.3071 5.51276 19.9991 5.01076 19.4991 4.51076C18.9981 4.00976 18.4961 3.70176 17.9041 3.47276C17.3321 3.24976 16.6781 3.09776 15.7201 3.05376C14.7601 3.00976 14.4531 2.99976 12.0091 2.99976C9.56509 2.99976 9.25809 3.00976 8.29809 3.05376C7.34009 3.09776 6.68609 3.24976 6.11409 3.47276C5.52209 3.70176 5.02009 4.00976 4.52009 4.51076C4.02009 5.01076 3.71109 5.51276 3.48109 6.10476C3.25909 6.67676 3.10709 7.33076 3.06309 8.28876C3.02009 9.24876 3.00909 9.55576 3.00909 11.9998C3.00909 14.4448 3.02009 14.7508 3.06309 15.7108C3.10709 16.6688 3.25909 17.3238 3.48109 17.8958C3.71109 18.4878 4.02009 18.9898 4.52009 19.4898C5.02009 19.9898 5.52209 20.2978 6.11409 20.5278C6.68609 20.7498 7.34009 20.9028 8.29809 20.9468C9.25809 20.9898 9.56509 20.9998 12.0091 20.9998C14.4531 20.9998 14.7601 20.9898 15.7201 20.9468C16.6781 20.9028 17.3321 20.7498 17.9041 20.5278C18.4961 20.2978 18.9981 19.9898 19.4991 19.4898C19.9991 18.9898 20.3071 18.4878 20.5371 17.8958C20.7591 17.3238 20.9111 16.6688 20.9551 15.7108C20.9991 14.7508 21.0091 14.4448 21.0091 11.9998C21.0091 9.55576 20.9991 9.24876 20.9551 8.28876ZM12.0094 15.0001C10.3524 15.0001 9.0094 13.6571 9.0094 12.0001C9.0094 10.3431 10.3524 9.00006 12.0094 9.00006C13.6664 9.00006 15.0094 10.3431 15.0094 12.0001C15.0094 13.6571 13.6664 15.0001 12.0094 15.0001ZM12.0094 7.37805C9.45639 7.37805 7.38739 9.44705 7.38739 12.0001C7.38739 14.5531 9.45639 16.6211 12.0094 16.6211C14.5614 16.6211 16.6314 14.5531 16.6314 12.0001C16.6314 9.44705 14.5614 7.37805 12.0094 7.37805ZM15.7336 7.19523C15.7336 6.59923 16.2166 6.11523 16.8136 6.11523C17.4096 6.11523 17.8936 6.59923 17.8936 7.19523C17.8936 7.79223 17.4096 8.27523 16.8136 8.27523C16.2166 8.27523 15.7336 7.79223 15.7336 7.19523Z" fill="#242428"/>
</g>
</svg>
