<svg xmlns="http://www.w3.org/2000/svg" width="24" height="24" viewBox="0 0 24 24">
    <path fill="#65676A" fill-rule="evenodd" d="M12.996 3c1.567.004 1.912.017 2.724.054.958.044 1.612.196 2.184.419.592.229 1.094.537 1.595 1.038.5.5.808 1.002 1.038 1.594.222.572.374 1.226.418 2.184.039.849.051 1.187.054 2.946v1.53c-.003 1.76-.015 2.097-.054 2.946-.044.958-.196 1.613-.418 2.185-.23.592-.538 1.094-1.038 1.594s-1.003.808-1.595 1.038c-.572.222-1.226.375-2.184.419-.845.038-1.184.05-2.919.052h-1.584c-1.735-.002-2.074-.014-2.919-.052-.958-.044-1.612-.197-2.184-.42-.592-.23-1.094-.537-1.594-1.037-.5-.5-.809-1.002-1.039-1.594-.222-.572-.374-1.227-.418-2.185-.036-.813-.05-1.157-.053-2.724v-2.008c.003-1.538.017-1.884.053-2.69.044-.958.196-1.612.418-2.184.23-.592.54-1.094 1.04-1.594.5-.501 1.001-.81 1.593-1.038.572-.223 1.226-.375 2.184-.42.812-.036 1.157-.05 2.725-.052zm-.709 1.62h-.556c-2.149.002-2.448.013-3.359.054-.877.04-1.354.187-1.67.31-.42.164-.72.358-1.035.674-.315.314-.51.614-.674 1.035-.123.316-.27.793-.31 1.67-.04.874-.05 1.184-.052 3.1v1.074c.002 1.916.013 2.227.052 3.1.04.878.187 1.354.31 1.67.163.42.36.72.674 1.036.314.315.614.51 1.034.673.317.124.794.27 1.671.31.797.036 1.126.048 2.635.051h2.005c1.509-.003 1.837-.015 2.634-.051.877-.04 1.354-.186 1.671-.31.42-.163.72-.358 1.035-.673.315-.315.51-.615.673-1.035.123-.317.27-.793.31-1.671.038-.835.05-1.155.053-2.859v-1.557c-.003-1.702-.015-2.022-.053-2.857-.04-.878-.187-1.355-.31-1.671-.163-.421-.358-.721-.673-1.035-.315-.316-.615-.51-1.035-.674-.317-.123-.794-.27-1.67-.31-.95-.043-1.235-.053-3.638-.053zm-.278 2.758c2.552 0 4.622 2.07 4.622 4.622 0 2.553-2.07 4.621-4.622 4.621-2.553 0-4.622-2.068-4.622-4.62 0-2.554 2.07-4.623 4.622-4.623zm0 1.622c-1.657 0-3 1.343-3 3s1.343 3 3 3 3-1.343 3-3-1.343-3-3-3zm4.805-2.885c.596 0 1.08.484 1.08 1.08 0 .597-.484 1.08-1.08 1.08-.597 0-1.08-.483-1.08-1.08 0-.596.483-1.08 1.08-1.08z"/>
</svg>
