<svg width="24" height="24" viewBox="0 0 24 24" fill="none" xmlns="http://www.w3.org/2000/svg">
<g id="into-page">
<g id="Combined Shape">
<path d="M4.50024 3.00012H19.5002C20.3272 3.00012 21.0002 3.67312 21.0002 4.50012V19.5001C21.0002 20.3271 20.3272 21.0001 19.5002 21.0001H12.0002V19.0001H19.0002V5.00012H5.00024V12.0001H3.00024V4.50012C3.00024 3.67312 3.67324 3.00012 4.50024 3.00012Z" fill="#242428"/>
<path d="M13.9965 15.8412C13.9965 16.2047 13.9965 16.3864 13.9246 16.4706C13.8622 16.5436 13.7687 16.5824 13.673 16.5748C13.5626 16.5661 13.4341 16.4376 13.1771 16.1806L11.2036 14.2071L5.35006 20.0607L3.93584 18.6465L9.78939 12.7929L7.8159 10.8194C7.55888 10.5624 7.43036 10.4339 7.42168 10.3236C7.41414 10.2278 7.4529 10.1343 7.52592 10.0719C7.61008 10 7.79182 10 8.15531 10H13.1965C13.4765 10 13.6165 10 13.7235 10.0545C13.8176 10.1024 13.8941 10.1789 13.942 10.273C13.9965 10.38 13.9965 10.52 13.9965 10.8V15.8412Z" fill="#242428"/>
</g>
</g>
</svg>
