<svg width="24" height="24" viewBox="0 0 24 24" fill="none" xmlns="http://www.w3.org/2000/svg">
<path fill-rule="evenodd" clip-rule="evenodd" d="M18.7612 6.45557C18.7612 6.45557 18.9722 7.72057 17.9572 8.94057C16.8742 10.2426 15.6432 10.0296 15.6432 10.0296C15.6432 10.0296 15.4112 9.00457 16.3192 7.80757C17.3412 6.46157 18.7612 6.45557 18.7612 6.45557ZM21.5869 11.7485C21.5869 11.7485 19.9059 12.6075 19.9059 14.6935C19.9059 17.0465 21.9999 17.8565 21.9999 17.8565C21.9999 17.8565 20.5359 21.9775 18.5589 21.9775C18.1109 21.9775 17.712 21.8285 17.3079 21.6776C16.8931 21.5226 16.4727 21.3655 15.9879 21.3655C15.4469 21.3655 14.9087 21.5606 14.4289 21.7346C14.0431 21.8744 13.6951 22.0005 13.4139 22.0005C11.6089 22.0005 9.3269 18.0905 9.3269 14.9495C9.3269 11.8585 11.2589 10.2365 13.0699 10.2365C13.7535 10.2365 14.3481 10.4656 14.8466 10.6576C15.2063 10.7962 15.516 10.9155 15.7729 10.9155C15.9784 10.9155 16.2529 10.8049 16.5869 10.6703C17.1062 10.4609 17.7696 10.1935 18.5419 10.1935C20.7269 10.1935 21.5869 11.7485 21.5869 11.7485Z" fill="#65676A"/>
<path fill-rule="evenodd" clip-rule="evenodd" d="M5 2C3.89543 2 3 2.89543 3 4V20C3 21.1046 3.89543 22 5 22H13C14.1046 22 15 21.1046 15 20V4C15 2.89543 14.1046 2 13 2H5ZM13 5H5V19H13V5Z" fill="#65676A"/>
</svg>
