<svg width="24" height="24" viewBox="0 0 24 24" fill="none" xmlns="http://www.w3.org/2000/svg">
<g id="ios">
<path id="Union" fill-rule="evenodd" clip-rule="evenodd" d="M3 4C3 2.89543 3.89543 2 5 2H13C14.1046 2 15 2.89543 15 4V10.7165C15.2951 10.8284 15.5532 10.9155 15.7729 10.9155C15.9784 10.9155 16.2529 10.8049 16.5869 10.6703C17.1062 10.4609 17.7696 10.1935 18.5419 10.1935C20.7269 10.1935 21.5869 11.7485 21.5869 11.7485C21.5869 11.7485 19.9059 12.6075 19.9059 14.6935C19.9059 17.0465 21.9999 17.8565 21.9999 17.8565C21.9999 17.8565 20.5359 21.9775 18.5589 21.9775C18.1109 21.9775 17.712 21.8285 17.3079 21.6776C16.8931 21.5226 16.4727 21.3655 15.9879 21.3655C15.4469 21.3655 14.9087 21.5606 14.4289 21.7346C14.0431 21.8744 13.6951 22.0005 13.4139 22.0005C13.3525 22.0005 13.2905 21.996 13.2281 21.9871C13.1532 21.9956 13.0771 22 13 22H5C3.89543 22 3 21.1046 3 20V4ZM13 10.2373C11.2095 10.2785 9.3269 11.8983 9.3269 14.9495C9.3269 16.2803 9.7365 17.749 10.3459 19H5V5H13V10.2373ZM17.9572 8.94057C18.9722 7.72057 18.7612 6.45557 18.7612 6.45557C18.7612 6.45557 17.3412 6.46157 16.3192 7.80757C15.4112 9.00457 15.6432 10.0296 15.6432 10.0296C15.6432 10.0296 16.8742 10.2426 17.9572 8.94057Z" fill="#242428"/>
</g>
</svg>
