<svg xmlns="http://www.w3.org/2000/svg" width="24" height="24" fill="none" viewBox="0 0 24 24">
    <path fill="#65676A" fill-rule="evenodd" d="M12.958 11.04c-.976-.976-.976-2.559 0-3.535.977-.977 2.559-.977 3.536 0 .976.976.976 2.56 0 3.535-.977.977-2.56.977-3.536 0m6.013-6.013c-2.344-2.343-6.142-2.343-8.485 0-1.847 1.847-2.232 4.595-1.168 6.825L2 19.17V22h2.829l.707-.708V19.17h2.12l.708-.707v-2.12h2.122l1.66-1.662c2.23 1.064 4.979.68 6.825-1.167 2.343-2.344 2.343-6.142 0-8.486" clip-rule="evenodd"/>
</svg>
