<svg xmlns="http://www.w3.org/2000/svg" width="24" height="24" viewBox="0 0 24 24">
    <path fill="#65676A" fill-rule="evenodd" d="M15 2c.552 0 1 .448 1 1v6.426c0 .375.105.742.304 1.06l4.088 6.541c.397.636.608 1.37.608 2.12V21c0 .552-.448 1-1 1H4c-.552 0-1-.448-1-1v-1.853c0-.75.21-1.484.608-2.12l4.088-6.54c.2-.319.304-.686.304-1.06V3c0-.552.448-1 1-1zm-1 2h-4v5.426c0 .751-.21 1.484-.608 2.12l-4.088 6.541c-.199.318-.304.685-.304 1.06V20h14v-.853c0-.375-.105-.742-.304-1.06l-4.088-6.54c-.398-.637-.608-1.37-.608-2.12V4zm-.287 8l4.168 6.669c.063.101.102.214.114.331H6.005c.013-.117.051-.23.115-.331L10.287 12h3.425z"/>
</svg>
