<svg xmlns="http://www.w3.org/2000/svg" width="24" height="24" viewBox="0 0 24 24">
    <path fill="#65676A" fill-rule="evenodd" d="M10.718 5.134c1.806-.378 3.654.062 5.064 1.208C17.192 7.487 18 9.185 18 11c0 1.857-.842 3.579-2.31 4.725-.432.337-.69.9-.69 1.506V21c0 .552-.448 1-1 1h-4c-.552 0-1-.448-1-1v-3.768c0-.599-.289-1.178-.79-1.588-1.703-1.388-2.494-3.518-2.119-5.699.41-2.385 2.27-4.319 4.627-4.811zm3.803 2.76c-.954-.775-2.159-1.058-3.394-.802-1.537.321-2.797 1.633-3.065 3.192-.25 1.46.276 2.885 1.411 3.81.907.741 1.453 1.789 1.52 2.906h2.013c.065-1.13.598-2.184 1.454-2.852C15.44 13.384 16 12.237 16 11c0-1.21-.539-2.342-1.479-3.106zm-9.814-4.6l2 2-1.414 1.413-2-2 1.414-1.414zm14.586 0l1.414 1.413-2 2-1.414-1.414 2-2zM13 1v3h-2V1h2z"/>
</svg>
