<svg xmlns="http://www.w3.org/2000/svg" width="24" height="24" viewBox="0 0 24 24">
    <path fill="#65676A" fill-rule="evenodd" d="M6.526 12.537l4.475 1.036-1.827 6.212 8.3-8.323-4.475-1.036 1.826-6.212-8.299 8.323zm1.62 10.5c-.263 0-.528-.072-.77-.216-.6-.355-.871-1.044-.675-1.713l1.783-6.065-3.286-.76c-.53-.123-.953-.524-1.103-1.047-.151-.524-.006-1.088.379-1.474L14.798 1.41c.491-.494 1.226-.587 1.826-.232.6.356.872 1.044.675 1.713l-1.784 6.065 3.287.761c.53.123.953.524 1.103 1.048.15.523.005 1.087-.38 1.473L9.202 22.59c-.293.294-.672.446-1.056.446z"/>
</svg>
