<svg xmlns="http://www.w3.org/2000/svg" width="24" height="24" viewBox="0 0 24 24">
    <path fill="#65676A" fill-rule="evenodd" d="M9.251 9.182l1.414 1.414-3.948 3.948c-.617.618-.957 1.438-.957 2.311s.34 1.694.957 2.311c1.235 1.234 3.387 1.234 4.623 0l2.328-2.327 1.414 1.414-2.328 2.327c-1.027 1.028-2.376 1.541-3.725 1.541-1.35 0-2.699-.513-3.726-1.54-2.054-2.055-2.054-5.397 0-7.45l3.948-3.949zm8.75 8.404l2.827 2.828-1.414 1.414L16.586 19 18 17.586zM22 14v2h-4v-2h4zM18.618 3.42c2.054 2.054 2.054 5.396 0 7.45l-3.948 3.948-1.414-1.414 3.948-3.948c.617-.617.957-1.438.957-2.311s-.34-1.694-.957-2.311c-1.237-1.235-3.388-1.235-4.623 0l-2.328 2.327-1.414-1.414 2.328-2.327c2.054-2.056 5.397-2.055 7.45 0zM6 8v2H2V8h4zM4.585 2.172L7.415 5 6 6.414 3.171 3.586l1.414-1.414z"/>
</svg>
