<svg width="24" height="24" viewBox="0 0 24 24" fill="none" xmlns="http://www.w3.org/2000/svg">
<g id="link-off">
<path id="Combined Shape" fill-rule="evenodd" clip-rule="evenodd" d="M13.2556 13.404L14.6696 14.818L18.6176 10.87C20.6716 8.816 20.6716 5.474 18.6176 3.42C16.5636 1.365 13.2206 1.364 11.1666 3.42L8.8386 5.747L10.2526 7.161L12.5806 4.834C13.8156 3.599 15.9666 3.599 17.2036 4.834C17.8206 5.451 18.1606 6.272 18.1606 7.145C18.1606 8.018 17.8206 8.839 17.2036 9.456L13.2556 13.404ZM5.30301 20.5802C6.33001 21.6082 7.67901 22.1212 9.02901 22.1212C10.378 22.1212 11.727 21.6082 12.754 20.5802L15.082 18.2532L13.668 16.8392L11.34 19.1662C10.104 20.4002 7.95201 20.4002 6.71701 19.1662C6.10001 18.5492 5.76001 17.7282 5.76001 16.8552C5.76001 15.9822 6.10001 15.1622 6.71701 14.5442L10.665 10.5962L9.25101 9.1822L5.30301 13.1302C3.24901 15.1842 3.24901 18.5262 5.30301 20.5802ZM18 16H22V14H18V16ZM18.0002 17.5862L16.5862 19.0002L19.4142 21.8282L20.8282 20.4142L18.0002 17.5862ZM6.0002 6.4142L3.1712 3.5862L4.5852 2.1722L7.4142 5.0002L6.0002 6.4142ZM6 10H2V8H6V10Z" fill="#313234"/>
</g>
</svg>
