<svg width="24" height="24" viewBox="0 0 24 24" fill="none" xmlns="http://www.w3.org/2000/svg">
<g id="link-copy">
<path id="Union" fill-rule="evenodd" clip-rule="evenodd" d="M19.3581 4.63011C18.5179 3.78996 17.1554 3.78996 16.3153 4.63011L15.6082 5.33721L14.1939 3.923L14.901 3.21589C16.5222 1.5947 19.1511 1.5947 20.7723 3.21589C22.3934 4.83705 22.3935 7.46583 20.7724 9.08703L18.1963 11.664C16.5744 13.2848 13.9461 13.2855 12.3241 11.6645L11.6168 10.9577L13.0305 9.543L13.7379 10.2499C14.5787 11.0902 15.9411 11.0902 16.7822 10.2496L19.358 7.67303C20.1981 6.83289 20.1982 5.47025 19.3581 4.63011ZM15.2426 8.74589C14.4027 7.90601 13.0396 7.90612 12.1991 8.74653L9.63011 11.3156C8.78996 12.1557 8.78996 13.5182 9.63011 14.3584C10.4702 15.1985 11.832 15.1985 12.6721 14.3584L13.3792 13.6513L14.7935 15.0655L14.0863 15.7726C12.4652 17.3938 9.83708 17.3938 8.21589 15.7726C6.5947 14.1514 6.5947 11.5225 8.21589 9.90136L10.7849 7.33232C12.4059 5.71139 15.0354 5.71022 16.6568 7.33168L17.3639 8.03878L15.9497 9.453L15.2426 8.74589ZM4 3C3.44772 3 3 3.44772 3 4V20C3 20.5523 3.44772 21 4 21H20C20.5523 21 21 20.5523 21 20V14H19V19H5V5H10V3H4Z" fill="#313234"/>
</g>
</svg>
