<svg xmlns="http://www.w3.org/2000/svg" width="24" height="24" viewBox="0 0 24 24">
    <path fill="#65676A" fill-rule="evenodd" d="M6.871 9.91c2.09-2.09 5.478-2.09 7.567 0l.708.707-1.415 1.414-.707-.707c-1.308-1.309-3.43-1.309-4.739 0l-3.304 3.304c-1.308 1.308-1.308 3.43 0 4.738 1.309 1.309 3.43 1.309 4.74 0l2.358-2.359 1.415 1.415-2.36 2.359c-2.09 2.09-5.477 2.09-7.567 0s-2.09-5.478 0-7.568zm6.342-6.343c2.09-2.09 5.478-2.09 7.567 0 2.09 2.09 2.09 5.478 0 7.567l-3.304 3.304c-2.09 2.09-5.477 2.09-7.567 0l-.707-.707 1.414-1.414.707.707c1.309 1.309 3.43 1.309 4.74 0l3.303-3.304c1.309-1.308 1.309-3.43 0-4.739-1.308-1.308-3.43-1.308-4.739 0l-2.359 2.36-1.414-1.415z"/>
</svg>
