<svg width="24" height="24" viewBox="0 0 24 24" fill="none" xmlns="http://www.w3.org/2000/svg">
<path fill-rule="evenodd" clip-rule="evenodd" d="M4.5 6.5C5.32843 6.5 6 5.82843 6 5C6 4.17157 5.32843 3.5 4.5 3.5C3.67157 3.5 3 4.17157 3 5C3 5.82843 3.67157 6.5 4.5 6.5ZM4.5 13.5C5.32843 13.5 6 12.8284 6 12C6 11.1716 5.32843 10.5 4.5 10.5C3.67157 10.5 3 11.1716 3 12C3 12.8284 3.67157 13.5 4.5 13.5ZM6 19C6 19.8284 5.32843 20.5 4.5 20.5C3.67157 20.5 3 19.8284 3 19C3 18.1716 3.67157 17.5 4.5 17.5C5.32843 17.5 6 18.1716 6 19ZM21 6H8V4H21V6ZM8 13H21V11H8V13ZM21 20H8V18H21V20Z" fill="#65676A"/>
</svg>
