<svg width="24" height="24" viewBox="0 0 24 24" fill="none" xmlns="http://www.w3.org/2000/svg">
<path fill-rule="evenodd" clip-rule="evenodd" d="M5.49982 9.0001H5.99982V7C5.99982 3.68603 8.68622 1 11.9998 1C15.3141 1 17.9998 3.68572 17.9998 7V9.0001H18.4998C19.3281 9.0001 19.9998 9.67181 19.9998 10.5001V20.5001C19.9998 21.3284 19.3281 22.0001 18.4998 22.0001H5.49982C4.67153 22.0001 3.99982 21.3284 3.99982 20.5001V10.5001C3.99982 9.67181 4.67153 9.0001 5.49982 9.0001ZM15.9998 7V9.0001H7.99982V7C7.99982 4.79066 9.79073 3 11.9998 3C14.2095 3 15.9998 4.79028 15.9998 7ZM17.9998 11.0001V20.0001H5.99982V11.0001H17.9998ZM10.9984 18.0001V13.0001H12.9984V18.0001H10.9984Z" fill="#65676A"/>
</svg>
