<svg xmlns="http://www.w3.org/2000/svg" width="24" height="24" viewBox="0 0 24 24">
    <path fill="#65676A" fill-rule="evenodd" d="M19.322 17v3H9.344l1.733-3h8.245zM11.085 3l-4.333 7.505c-.147.254-.146.56 0 .811.523.901.714 1.952.193 2.854l-.52.902 1.732 1 .44-.764c.54-.937 1.553-1.475 2.635-1.397.294.021.568-.15.716-.406L18.013 3h2.31L13.68 14.505c-.541.937-1.553 1.475-2.634 1.397-.294-.02-.57.151-.717.406l-1.441 2.496-.401.696c-.18.31-.51.5-.867.5H3.002c-.77 0-1.251-.833-.866-1.5l2.056-3.562.942-1.63c.146-.254.145-.56-.002-.812-.524-.897-.717-1.944-.197-2.844L8.775 3h2.31z"/>
</svg>
