<svg xmlns="http://www.w3.org/2000/svg" width="24" height="24" viewBox="0 0 24 24">
    <path fill="#65676A" fill-rule="evenodd" d="M20 8.5c0 .276-.224.5-.5.5H16v2h2.5c.276 0 .5.224.5.5v1c0 .276-.224.5-.5.5H16v2h3.5c.276 0 .5.224.5.5v1c0 .276-.224.5-.5.5h-5c-.276 0-.5-.224-.5-.5v-9c0-.276.224-.5.5-.5h5c.276 0 .5.224.5.5v1zm-7 8c0 .276-.224.5-.5.5h-1c-.276 0-.5-.224-.5-.5v-5.702l-2.063 3.057c-.204.303-.655.291-.843-.023L6 10.335V16.5c0 .276-.224.5-.5.5h-1c-.276 0-.5-.224-.5-.5v-9c0-.276.224-.5.5-.5l1.222.002c.173 0 .333.09.424.236l2.352 3.802 2.356-3.802c.09-.147.251-.237.424-.237H12.5c.276 0 .5.223.5.5v9zM20 5H4c-1.104 0-2 .896-2 2v10c0 1.104.896 2 2 2h16c1.104 0 2-.896 2-2V7c0-1.104-.896-2-2-2z"/>
</svg>
