<svg xmlns="http://www.w3.org/2000/svg" width="24" height="24" viewBox="0 0 24 24">
    <path fill="#65676A" fill-rule="evenodd" d="M19 17.129l-4.806-2.751c-.432-.248-.923-.378-1.42-.378H9V7.974h3.773c.498 0 .99-.131 1.421-.378L19 4.845v12.284zM5 14h2V7.974H5V14zM20.138 2.018c-.142 0-.288.036-.427.115l-6.51 3.727c-.13.075-.278.114-.428.114H4c-.552 0-1 .448-1 1V15c0 .552.448 1 1 1h.668l-.908 4.399c-.064.31.173.601.49.601h2.321c.38 0 .707-.267.783-.638L8.255 16h4.518c.15 0 .297.039.428.114l6.51 3.727c.14.079.285.115.427.115.45 0 .862-.36.862-.862V2.88c0-.502-.413-.862-.862-.862z"/>
</svg>
