<svg width="24" height="24" viewBox="0 0 24 24" fill="none" xmlns="http://www.w3.org/2000/svg">
<path fill-rule="evenodd" clip-rule="evenodd" d="M16.25 13.1871C19.7018 13.1871 22.5 10.7886 22.5 7.82995C22.5 4.87128 19.7018 2.47281 16.25 2.47281C12.7982 2.47281 10 4.87128 10 7.82995C10 9.6229 11.0276 11.2101 12.6055 12.1825C12.3941 12.8727 12.053 13.4993 11.8032 13.9048C11.689 14.0901 11.8347 14.3263 12.047 14.2783C12.6879 14.1332 13.7753 13.7925 14.7462 13.031C15.2279 13.133 15.7316 13.1871 16.25 13.1871ZM16.2503 8.72281C15.7595 8.72281 15.3571 8.32113 15.3571 7.82962C15.3571 7.33876 15.7595 6.93709 16.2503 6.93709C16.7418 6.93709 17.1435 7.33876 17.1435 7.82962C17.1435 8.32113 16.7418 8.72281 16.2503 8.72281ZM13.5718 8.72281C13.0809 8.72281 12.6786 8.32114 12.6786 7.82962C12.6786 7.33876 13.0809 6.93709 13.5718 6.93709C14.0633 6.93709 14.4649 7.33876 14.4649 7.82962C14.4649 8.32114 14.0633 8.72281 13.5718 8.72281ZM18.0357 7.82962C18.0357 8.32113 18.438 8.72281 18.9289 8.72281C19.4204 8.72281 19.8221 8.32113 19.8221 7.82962C19.8221 7.33876 19.4204 6.93709 18.9289 6.93709C18.438 6.93709 18.0357 7.33876 18.0357 7.82962ZM15.9998 21.9672C16.5509 22.0035 17 21.5523 17 21V20L17 18.618C17 18.2393 16.786 17.893 16.4472 17.7236L13.7465 16.3732C13.3142 16.1571 12.7892 16.281 12.4992 16.6677L11.0708 18.5722C8.65028 17.3295 6.67046 15.3497 5.42777 12.9292L7.33233 11.5007C7.71896 11.2108 7.84289 10.6858 7.62676 10.2535L6.27638 7.55279C6.10699 7.214 5.76073 7 5.38196 7H3.99999H2.99999C2.4477 7 1.99653 7.44911 2.03281 8.0002C2.52573 15.4875 8.51244 21.4743 15.9998 21.9672Z" fill="#313234"/>
</svg>
