<svg width="24" height="24" viewBox="0 0 24 24" fill="none" xmlns="http://www.w3.org/2000/svg">
<path fill-rule="evenodd" clip-rule="evenodd" d="M9.7782 2.89854C10.1305 3.30845 10.2744 3.92291 10.0373 4.50399C9.69328 5.34753 9.50319 6.27131 9.50319 7.24198C9.50319 11.2487 12.7513 14.4968 16.758 14.4968C17.7286 14.4968 18.6524 14.3067 19.496 13.9626C20.0771 13.7256 20.6915 13.8694 21.1014 14.2218C21.5311 14.5911 21.7829 15.2461 21.4903 15.9128C19.918 19.4949 16.3386 22 12.172 22C6.55415 22 2 17.4458 2 11.828C2 7.66132 4.50507 4.08198 8.08715 2.50969C8.75382 2.21706 9.40889 2.46887 9.7782 2.89854ZM7.79586 4.92499C5.51295 6.37532 4 8.9258 4 11.828C4 16.3412 7.65872 20 12.172 20C15.0742 20 17.6246 18.487 19.075 16.2041C18.3338 16.3952 17.5572 16.4968 16.758 16.4968C11.6467 16.4968 7.50319 12.3533 7.50319 7.24198C7.50319 6.44275 7.60473 5.66618 7.79586 4.92499Z" fill="#313234"/>
</svg>
