<svg width="24" height="24" viewBox="0 0 24 24" fill="none" xmlns="http://www.w3.org/2000/svg">
<g id="more-vertical">
<path id="Combined Shape" fill-rule="evenodd" clip-rule="evenodd" d="M9.5002 5.00009C9.5002 3.62509 10.6252 2.50009 12.0002 2.50009C13.3752 2.50009 14.5002 3.62509 14.5002 5.00009C14.5002 6.37509 13.3752 7.50009 12.0002 7.50009C10.6252 7.50009 9.5002 6.37509 9.5002 5.00009ZM9.5002 12.5001C9.5002 11.1251 10.6252 10.0001 12.0002 10.0001C13.3752 10.0001 14.5002 11.1251 14.5002 12.5001C14.5002 13.8751 13.3752 15.0001 12.0002 15.0001C10.6252 15.0001 9.5002 13.8751 9.5002 12.5001ZM12.0002 17.5001C10.6252 17.5001 9.5002 18.6251 9.5002 20.0001C9.5002 21.3751 10.6252 22.5001 12.0002 22.5001C13.3752 22.5001 14.5002 21.3751 14.5002 20.0001C14.5002 18.6251 13.3752 17.5001 12.0002 17.5001Z" fill="#313234"/>
</g>
</svg>
