<svg width="24" height="24" viewBox="0 0 24 24" fill="none" xmlns="http://www.w3.org/2000/svg">
<g id="more">
<path id="Combined Shape" fill-rule="evenodd" clip-rule="evenodd" d="M4.50018 15.0001C3.12518 15.0001 2.00018 13.8751 2.00018 12.5001C2.00018 11.1251 3.12518 10.0001 4.50018 10.0001C5.87518 10.0001 7.00018 11.1251 7.00018 12.5001C7.00018 13.8751 5.87518 15.0001 4.50018 15.0001ZM12.0002 15.0001C10.6252 15.0001 9.50018 13.8751 9.50018 12.5001C9.50018 11.1251 10.6252 10.0001 12.0002 10.0001C13.3752 10.0001 14.5002 11.1251 14.5002 12.5001C14.5002 13.8751 13.3752 15.0001 12.0002 15.0001ZM17.0002 12.5001C17.0002 13.8751 18.1252 15.0001 19.5002 15.0001C20.8752 15.0001 22.0002 13.8751 22.0002 12.5001C22.0002 11.1251 20.8752 10.0001 19.5002 10.0001C18.1252 10.0001 17.0002 11.1251 17.0002 12.5001Z" fill="#313234"/>
</g>
</svg>
