<svg width="24" height="24" viewBox="0 0 24 24" fill="none" xmlns="http://www.w3.org/2000/svg">
<path fill-rule="evenodd" clip-rule="evenodd" d="M4.50018 14.5C3.12518 14.5 2.00018 13.375 2.00018 12C2.00018 10.625 3.12518 9.5 4.50018 9.5C5.87518 9.5 7.00018 10.625 7.00018 12C7.00018 13.375 5.87518 14.5 4.50018 14.5ZM12.0002 14.5C10.6252 14.5 9.50018 13.375 9.50018 12C9.50018 10.625 10.6252 9.5 12.0002 9.5C13.3752 9.5 14.5002 10.625 14.5002 12C14.5002 13.375 13.3752 14.5 12.0002 14.5ZM17.0002 12C17.0002 13.375 18.1252 14.5 19.5002 14.5C20.8752 14.5 22.0002 13.375 22.0002 12C22.0002 10.625 20.8752 9.5 19.5002 9.5C18.1252 9.5 17.0002 10.625 17.0002 12Z" fill="#313234"/>
</svg>
