<svg xmlns="http://www.w3.org/2000/svg" width="24" height="24" fill="none" viewBox="0 0 24 24">
    <path fill="#65676A" fill-rule="evenodd" d="M12.245 2h-.49c-1.55 0-2.708.278-3.686.801-.977.523-1.745 1.29-2.268 2.268C5.278 6.047 5 7.205 5 8.755v6.49c0 1.55.278 2.708.801 3.685.523.978 1.29 1.746 2.268 2.269.978.522 2.135.801 3.686.801h.49c1.55 0 2.708-.279 3.686-.801.977-.523 1.745-1.29 2.268-2.269.522-.977.801-2.134.801-3.685v-6.49c0-1.55-.279-2.708-.801-3.686-.523-.977-1.29-1.745-2.269-2.268C14.954 2.278 13.796 2 12.245 2zm-.49 2h.49l.291.004c1.04.029 1.807.216 2.451.561.63.337 1.112.818 1.448 1.448.376.703.565 1.55.565 2.742v6.49l-.004.291c-.029 1.04-.216 1.807-.561 2.451-.336.63-.818 1.112-1.448 1.448-.703.376-1.55.565-2.742.565h-.49l-.291-.004c-1.04-.029-1.807-.216-2.451-.561-.63-.336-1.111-.818-1.448-1.448-.376-.703-.565-1.55-.565-2.742v-6.49l.004-.291c.029-1.04.216-1.807.561-2.451.337-.63.818-1.111 1.448-1.448.703-.376 1.55-.565 2.742-.565zM12 6c-.552 0-1 .448-1 1v3c0 .552.448 1 1 1s1-.448 1-1V7c0-.552-.448-1-1-1z" clip-rule="evenodd"/>
</svg>
