<svg width="24" height="24" viewBox="0 0 24 24" fill="none" xmlns="http://www.w3.org/2000/svg">
<g id="music">
<path id="Combined Shape" fill-rule="evenodd" clip-rule="evenodd" d="M7.84794 3.70408C7.36011 3.77913 7 4.19888 7 4.69245V5.83453V7.83453V15.1707C6.68722 15.0602 6.35064 15 6 15C4.34315 15 3 16.3431 3 18C3 19.6569 4.34315 21 6 21C7.65685 21 9 19.6569 9 18C9 17.9445 8.99849 17.8893 8.99551 17.8345H9V7.52684L18 6.14223V13.1707C17.6872 13.0602 17.3506 13 17 13C15.3431 13 14 14.3431 14 16C14 17.6569 15.3431 19 17 19C18.6569 19 20 17.6569 20 16C20 15.9445 19.9985 15.8893 19.9955 15.8345H20V5.83453V3.83453V3.00014C20 2.38726 19.4537 1.91858 18.8479 2.01177L7.84794 3.70408Z" fill="#242428"/>
</g>
</svg>
