<svg xmlns="http://www.w3.org/2000/svg" width="24" height="24" viewBox="0 0 24 24">
    <path fill="#65676A" fill-rule="evenodd" d="M18.857 2.946c.63 0 1.143.513 1.143 1.143v15.769c0 .629-.513 1.142-1.143 1.142H5.147c-.63 0-1.143-.513-1.143-1.142v-.898c0-2.652-.001-10.284-.004-10.643-.003-.45.14-.813.446-1.144L7.89 3.422c.295-.325.637-.476 1.076-.476h9.891zm-1.142 2.282h-8.25c-.058 0-.153.047-.202.099-.968 1.04-1.94 2.1-2.888 3.149-.048.052-.084.163-.084.257l-.002 9.982h11.426V5.228zm-6.672 1.37c.504 0 .914.41.914.914v2.47c0 .505-.41.914-.914.914H8.574c-.504 0-.914-.41-.914-.913 0-.504.41-.914.914-.914h1.555V7.512c0-.504.41-.913.914-.913z"/>
</svg>
