<svg xmlns="http://www.w3.org/2000/svg" width="24" height="24" viewBox="0 0 24 24">
    <path fill="#65676A" fill-rule="evenodd" d="M12.002 2c3.394 0 6.144 2.751 6.144 6.144 0 1.555.436 3.08 1.259 4.4l2.352 3.776c.454.731-.072 1.68-.935 1.68l-4.82.001c0 2.209-1.791 4-4 4-2.21 0-4-1.792-4-4h-4.82c-.865 0-1.391-.953-.932-1.685l2.35-3.77c.821-1.323 1.257-2.847 1.257-4.402C5.857 4.751 8.608 2 12.002 2zm2 16l-4 .001c0 1.104.896 2 2 2 1.105 0 2-.896 2-2zm-2-14c-2.29 0-4.145 1.855-4.145 4.144 0 1.929-.54 3.819-1.56 5.458L4.803 16h14.398l-1.494-2.398c-1.02-1.638-1.56-3.529-1.56-5.458C16.146 5.856 14.29 4 12.001 4z"/>
</svg>
