<svg xmlns="http://www.w3.org/2000/svg" width="24" height="24" viewBox="0 0 24 24">
    <path fill="#65676A" fill-rule="evenodd" d="M12 2c3.388 0 6.145 2.756 6.145 6.145 0 1.557.435 3.078 1.258 4.4l2.35 3.773c.212.338.223.765.029 1.115-.193.35-.562.567-.962.567H16c0 2.206-1.794 4-4 4-2.205 0-4-1.794-4-4H3.18c-.4 0-.768-.217-.962-.567-.193-.349-.183-.776.029-1.115l2.35-3.774c.823-1.32 1.258-2.843 1.258-4.399C5.855 4.756 8.612 2 12 2zm2 16h-4c0 1.103.897 2 2 2s2-.897 2-2zM12 4C9.715 4 7.855 5.86 7.855 8.145c0 1.93-.54 3.817-1.56 5.457L4.8 16h14.398l-1.493-2.398c-1.022-1.639-1.561-3.526-1.561-5.457C16.145 5.86 14.285 4 12 4zm9 4.5c.663 0 1.2.537 1.2 1.2 0 .663-.537 1.2-1.2 1.2-.663 0-1.2-.537-1.2-1.2 0-.663.537-1.2 1.2-1.2zM22 0v7h-2V0h2z"/>
</svg>
