<svg xmlns="http://www.w3.org/2000/svg" width="24" height="24" viewBox="0 0 24 24">
    <path fill="#65676A" fill-rule="evenodd" d="M5.544 7.987c-.002.054-.01.106-.01.161 0 1.557-.434 3.078-1.257 4.399l-2.35 3.774c-.211.338-.223.765-.03 1.115.195.35.563.567.963.567h4.82c0 2.206 1.794 4 4 4 2.168 0 3.929-1.736 3.989-3.89l-2.11-2.11H4.48l1.493-2.398c.722-1.158 1.189-2.443 1.41-3.777zM3.548 1.75L2.134 3.164l18.385 18.385 1.414-1.415-2.132-2.131h.699c.4 0 .768-.217.962-.567.193-.349.183-.776-.029-1.115l-2.35-3.774c-.823-1.321-1.258-2.843-1.258-4.399 0-3.389-2.757-6.145-6.145-6.145-2.138 0-4.015 1.103-5.114 2.765L3.548 1.75zM9.68 18.003h4c0 1.103-.897 2-2 2s-2-.897-2-2zm2-14c2.285 0 4.145 1.859 4.145 4.145 0 1.93.539 3.817 1.56 5.457l1.494 2.398h-1.078L8.028 6.23c.695-1.317 2.062-2.227 3.652-2.227z"/>
</svg>
