<svg xmlns="http://www.w3.org/2000/svg" width="24" height="24" viewBox="0 0 24 24">
    <path fill="#65676A" fill-rule="evenodd" d="M20 5c1.105 0 2 .895 2 2v10c0 1.105-.895 2-2 2H4c-1.105 0-2-.895-2-2V7c0-1.105.895-2 2-2h16zm-4 2h-.5l-.176.005C13.749 7.096 12.5 8.402 12.5 10v.5l.005.176c.091 1.575 1.397 2.824 2.995 2.824h.5l.231-.009c.229-.017.45-.06.663-.126-.297.948-1.182 1.635-2.227 1.635H13v2h1.667l.21-.005C17.172 16.885 19 14.99 19 12.667V10l-.005-.176C18.904 8.249 17.598 7 16 7zM8.25 7C6.455 7 5 8.455 5 10.25v3.5C5 15.545 6.455 17 8.25 17s3.25-1.455 3.25-3.25v-3.5C11.5 8.455 10.045 7 8.25 7zm0 2c.69 0 1.25.56 1.25 1.25v3.5l-.006.128C9.43 14.508 8.897 15 8.25 15 7.56 15 7 14.44 7 13.75v-3.5l.006-.128C7.07 9.492 7.603 9 8.25 9zM16 9c.552 0 1 .448 1 1v.5l-.007.117c-.057.497-.48.883-.993.883h-.5l-.117-.007c-.497-.057-.883-.48-.883-.993V10l.007-.117c.057-.497.48-.883.993-.883z"/>
</svg>
