<svg xmlns="http://www.w3.org/2000/svg" width="24" height="24" fill="none" viewBox="0 0 24 24">
    <path fill="#65676A" fill-rule="evenodd" d="M2 7c0-1.105.895-2 2-2h16c1.105 0 2 .895 2 2v10c0 1.105-.895 2-2 2H4c-1.105 0-2-.895-2-2V7zm14 0h-.5c-1.657 0-3 1.343-3 3v.5c0 1.657 1.343 3 3 3h.5c.311 0 .611-.047.894-.135-.297.947-1.182 1.635-2.227 1.635H13v2h1.667l.21-.005c2.295-.11 4.123-2.006 4.123-4.328V10c0-1.657-1.343-3-3-3zm0 4.5c.552 0 1-.448 1-1V10c0-.552-.448-1-1-1h-.5c-.552 0-1 .448-1 1v.5c0 .552.448 1 1 1h.5zM8.25 7c1.795 0 3.25 1.455 3.25 3.25v3.5c0 1.795-1.455 3.25-3.25 3.25S5 15.545 5 13.75v-3.5C5 8.455 6.455 7 8.25 7zm0 2c-.647 0-1.18.492-1.244 1.122L7 10.25v3.5c0 .69.56 1.25 1.25 1.25.647 0 1.18-.492 1.244-1.122l.006-.128v-3.5C9.5 9.56 8.94 9 8.25 9z" clip-rule="evenodd"/>
</svg>
