<svg xmlns="http://www.w3.org/2000/svg" width="24" height="24" viewBox="0 0 24 24">
    <path fill="#65676A" fill-rule="evenodd" d="M19.718 3c.446 0 .607.046.77.134.163.087.291.215.378.378.088.163.134.324.134.77v15.436c0 .446-.046.607-.134.77-.087.163-.215.291-.378.378-.163.088-.324.134-.77.134h-3.436c-.446 0-.607-.046-.77-.134-.163-.087-.291-.215-.378-.378-.088-.163-.134-.324-.134-.77v-4.436c0-.446-.046-.607-.134-.77-.087-.163-.215-.291-.378-.378-.142-.077-.284-.122-.616-.132L13.718 14h-3.436c-.446 0-.607.046-.77.134-.163.087-.291.215-.378.378-.077.142-.122.284-.132.616L9 15.282v4.436c0 .446-.046.607-.134.77-.087.163-.215.291-.378.378-.163.088-.324.134-.77.134H4.282c-.446 0-.607-.046-.77-.134-.163-.087-.291-.215-.378-.378-.088-.163-.134-.324-.134-.77V4.282c0-.446.046-.607.134-.77.087-.163.215-.291.378-.378.163-.088.324-.134.77-.134h15.436zM13.5 7h-3v3h3V7zM8 7H5v3h3V7zm11 0h-3v3h3V7z"/>
</svg>
