<svg width="24" height="24" viewBox="0 0 24 24" fill="none" xmlns="http://www.w3.org/2000/svg">
<g id="open-in-new">
<g id="Combined Shape">
<path d="M5.00024 5V19H19.0002V12H21.0002V19.5C21.0002 20.327 20.3272 21 19.5002 21H4.50024C3.67324 21 3.00024 20.327 3.00024 19.5V4.5C3.00024 3.673 3.67324 3 4.50024 3H12.0002V5H5.00024Z" fill="#313234"/>
<path d="M21 8.84118C21 9.20467 21 9.38642 20.9282 9.47058C20.8658 9.5436 20.7722 9.58235 20.6765 9.57482C20.5662 9.56613 20.4377 9.43762 20.1806 9.1806L18.2374 7.23739L12.4142 13.0606L11 11.6463L16.8232 5.82318L14.8194 3.81942C14.5624 3.5624 14.4339 3.43388 14.4252 3.32354C14.4177 3.22781 14.4564 3.13425 14.5295 3.07188C14.6136 3.00001 14.7954 3.00001 15.1589 3.00001H20.2C20.4801 3.00001 20.6201 3.00001 20.727 3.0545C20.8211 3.10244 20.8976 3.17893 20.9455 3.27301C21 3.37997 21 3.51998 21 3.80001V8.84118Z" fill="#313234"/>
</g>
</g>
</svg>
