<svg width="24" height="24" viewBox="0 0 24 24" fill="none" xmlns="http://www.w3.org/2000/svg">
<g id="pause">
<path id="shape" fill-rule="evenodd" clip-rule="evenodd" d="M5.50021 21.0001H9.50021C9.77621 21.0001 10.0002 20.7761 10.0002 20.5001V3.50012C10.0002 3.22412 9.77621 3.00012 9.50021 3.00012H5.50021C5.22421 3.00012 5.00021 3.22412 5.00021 3.50012V20.5001C5.00021 20.7761 5.22421 21.0001 5.50021 21.0001ZM14.5002 21.0001H18.5002C18.7762 21.0001 19.0002 20.7761 19.0002 20.5001V3.50012C19.0002 3.22412 18.7762 3.00012 18.5002 3.00012H14.5002C14.2242 3.00012 14.0002 3.22412 14.0002 3.50012V20.5001C14.0002 20.7761 14.2242 21.0001 14.5002 21.0001Z" fill="#313234"/>
</g>
</svg>
