<svg xmlns="http://www.w3.org/2000/svg" width="24" height="24" viewBox="0 0 24 24">
    <path fill="#65676A" fill-rule="evenodd" d="M12 2c5.523 0 10 4.477 10 10s-4.477 10-10 10S2 17.523 2 12 6.477 2 12 2zm0 2c-4.419 0-8 3.581-8 8 0 2.17.863 4.137 2.265 5.578.655-2.455 2.984-4.282 5.735-4.282 2.752 0 5.08 1.827 5.736 4.28C19.137 16.137 20 14.17 20 12c0-4.418-3.582-8-8-8zM12 7.2c1.41 0 2.551 1.143 2.551 2.552 0 1.408-1.142 2.55-2.55 2.55-1.41 0-2.553-1.142-2.553-2.55 0-1.41 1.143-2.552 2.552-2.552z"/>
</svg>
