<svg width="24" height="24" viewBox="0 0 24 24" fill="none" xmlns="http://www.w3.org/2000/svg">
<g id="person-remove">
<path id="Exclude" fill-rule="evenodd" clip-rule="evenodd" d="M10.99 10.2001C11.8734 10.2001 12.59 9.48356 12.59 8.60013C12.59 7.7167 11.8734 7.00013 10.99 7.00013C10.1066 7.00013 9.38998 7.7167 9.38998 8.60013C9.38998 9.48356 10.1066 10.2001 10.99 10.2001ZM14.59 8.60013C14.59 10.5881 12.978 12.2001 10.99 12.2001C9.00198 12.2001 7.38998 10.5881 7.38998 8.60013C7.38998 6.61213 9.00198 5.00013 10.99 5.00013C12.978 5.00013 14.59 6.61213 14.59 8.60013ZM4.99798 20.6884L4.99815 20.6851L4.99798 20.6884ZM5.33109 19.0001C6.15449 16.6703 8.37772 15.0001 10.9896 15.0001C13.6019 15.0001 15.8249 16.6702 16.6486 19.0001H5.33109ZM18.9792 20.5825C18.7616 16.3585 15.268 13.0001 10.9896 13.0001C6.71198 13.0001 3.21758 16.3585 3.00078 20.5825C2.98878 20.8089 3.17918 21.0001 3.40638 21.0001H18.5736C18.8008 21.0001 18.9904 20.8089 18.9792 20.5825ZM17.5841 7.00013L15.4628 4.87881L16.877 3.4646L18.9983 5.58592L21.1197 3.4646L22.5339 4.87881L20.4126 7.00013L22.5339 9.12145L21.1197 10.5357L18.9983 8.41435L16.877 10.5357L15.4628 9.12145L17.5841 7.00013Z" fill="#313234"/>
</g>
</svg>
