<svg xmlns="http://www.w3.org/2000/svg" width="24" height="24" viewBox="0 0 24 24">
    <path fill="#65676A" fill-rule="evenodd" d="M17 12c2.761 0 5 2.238 5 5 0 2.761-2.239 5-5 5-2.762 0-5-2.239-5-5 0-2.762 2.238-5 5-5zm-7.516 0c1.183 0 2.302.264 3.312.726C11.69 13.814 11 15.328 11 17c0 1.093.3 2.116.812 3H2.007c-.285 0-.525-.24-.506-.524C1.771 15.302 5.242 12 9.484 12zM19.7 15.715L15.715 19.7c.391.187.823.301 1.285.301 1.654 0 3-1.346 3-3 0-.462-.114-.894-.3-1.285zM17 14c-1.654 0-3 1.346-3 3 0 .462.113.894.301 1.285l3.984-3.984c-.39-.188-.824-.3-1.285-.3zM9.484 4c1.933 0 3.5 1.567 3.5 3.5s-1.567 3.5-3.5 3.5-3.5-1.567-3.5-3.5S7.551 4 9.484 4z"/>
</svg>
