<svg width="24" height="24" viewBox="0 0 24 24" fill="none" xmlns="http://www.w3.org/2000/svg">
<g id="person-circle-filled">
<path id="Combined Shape" fill-rule="evenodd" clip-rule="evenodd" d="M12.0002 2.00012C6.4769 2.00012 2.00018 6.47684 2.00018 12.0001C2.00018 17.5234 6.4769 22.0001 12.0002 22.0001C17.5228 22.0001 22.0002 17.5231 22.0002 12.0001C22.0002 6.47717 17.5228 2.00012 12.0002 2.00012ZM12.0002 4.00012C16.4183 4.00012 20.0002 7.58177 20.0002 12.0001C20.0002 14.1689 19.1372 16.136 17.7359 17.5769C17.0801 15.1232 14.7515 13.296 12.0002 13.296C9.24875 13.296 6.92005 15.1234 6.2644 17.5773C4.8631 16.1364 4.00018 14.1691 4.00018 12.0001C4.00018 7.58141 7.58147 4.00012 12.0002 4.00012ZM12.0002 12.3018C13.4092 12.3018 14.5512 11.1588 14.5512 9.75082C14.5512 8.34182 13.4092 7.19882 12.0002 7.19882C10.5912 7.19882 9.44818 8.34182 9.44818 9.75082C9.44818 11.1588 10.5912 12.3018 12.0002 12.3018Z" fill="#242428"/>
</g>
</svg>
