<svg xmlns="http://www.w3.org/2000/svg" width="24" height="24" viewBox="0 0 24 24">
    <path fill="#65676A" fill-rule="evenodd" d="M12 12c5.143 0 9.38 3.882 9.938 8.876.066.597-.394 1.124-.994 1.124H3.056c-.6 0-1.06-.527-.994-1.124C2.622 15.882 6.857 12 12 12zm0 2c-3.702 0-6.858 2.512-7.75 6h15.5c-.893-3.488-4.049-6-7.75-6zm0-12c2.485 0 4.5 2.015 4.5 4.5S14.485 11 12 11 7.5 8.985 7.5 6.5 9.515 2 12 2zm0 2c-1.379 0-2.5 1.122-2.5 2.5S10.621 9 12 9c1.378 0 2.5-1.122 2.5-2.5S13.378 4 12 4z"/>
</svg>
