<svg width="24" height="24" viewBox="0 0 24 24" fill="none" xmlns="http://www.w3.org/2000/svg">
<path fill-rule="evenodd" clip-rule="evenodd" d="M22.0003 12H12.0003V2C17.5143 2 22.0003 6.486 22.0003 12ZM12 20.0002C15.625 20.0002 18.841 17.4852 19.742 13.9932H21.79C21.7834 14.0269 21.7783 14.0609 21.7732 14.0949C21.7668 14.1377 21.7605 14.1804 21.751 14.2222C20.725 18.7282 16.624 22.0002 12 22.0002C6.486 22.0002 2 17.5142 2 12.0002C2 7.37723 5.271 3.27523 9.778 2.24923C9.81763 2.23961 9.85823 2.23415 9.89888 2.22868C9.93002 2.2245 9.9612 2.22031 9.992 2.21423V4.26223C6.508 5.16923 4 8.38123 4 12.0002C4 16.4112 7.589 20.0002 12 20.0002Z" fill="#313234"/>
</svg>
