<svg width="24" height="24" viewBox="0 0 24 24" fill="none" xmlns="http://www.w3.org/2000/svg">
<path fill-rule="evenodd" clip-rule="evenodd" d="M13 12H11V2H13V12ZM2.00018 12.0001C2.00018 17.5141 6.48618 22.0001 12.0002 22.0001C17.5142 22.0001 22.0002 17.5141 22.0002 12.0001C22.0002 8.1491 19.7442 4.5971 16.2532 2.9511L15.4002 4.7591C18.1942 6.0781 20.0002 8.9191 20.0002 12.0001C20.0002 16.4111 16.4112 20.0001 12.0002 20.0001C7.58918 20.0001 4.00018 16.4111 4.00018 12.0001C4.00018 8.9201 5.80618 6.0781 8.60018 4.7591L7.74618 2.9511C4.25518 4.5981 2.00018 8.1491 2.00018 12.0001Z" fill="#313234"/>
</svg>
