<svg width="16" height="16" viewBox="0 0 16 16" fill="none" xmlns="http://www.w3.org/2000/svg">
<path fill-rule="evenodd" clip-rule="evenodd" d="M2.66683 8.00007C2.66683 10.9407 5.0595 13.3334 8.00016 13.3334C10.9408 13.3334 13.3335 10.9407 13.3335 8.00007C13.3335 5.0594 10.9408 2.66674 8.00016 2.66674C5.0595 2.66674 2.66683 5.0594 2.66683 8.00007ZM1.3335 8.00007C1.3335 4.31807 4.31816 1.3334 8.00016 1.3334C11.6822 1.3334 14.6668 4.31807 14.6668 8.00007C14.6668 11.6821 11.6822 14.6667 8.00016 14.6667C4.31816 14.6667 1.3335 11.6821 1.3335 8.00007ZM8.00004 11.3333C9.84099 11.3333 11.3334 9.84094 11.3334 7.99999C11.3334 6.15904 9.84099 4.66666 8.00004 4.66666C6.15909 4.66666 4.66671 6.15904 4.66671 7.99999C4.66671 9.84094 6.15909 11.3333 8.00004 11.3333Z" fill="#313234"/>
</svg>
