<svg xmlns="http://www.w3.org/2000/svg" width="24" height="24" viewBox="0 0 24 24">
    <path fill="#65676A" fill-rule="evenodd" d="M12 20c-4.41 0-8-3.589-8-8 0-4.41 3.59-8 8-8 1.846 0 3.542.634 4.897 1.688l-.69.691c-2.75-2.06-6.677-1.848-9.177.651l1.061 1.061c1.913-1.912 4.887-2.119 7.04-.636l-.763.763c-.99-.624-2.19-.842-3.366-.574-.817.187-1.565.601-2.16 1.197l1.06 1.06c.395-.396.892-.67 1.434-.794.662-.153 1.328-.054 1.918.225l-.742.742C12.348 10.03 12.178 10 12 10c-1.104 0-2 .896-2 2 0 1.105.896 2 2 2s2-.895 2-2c0-.178-.03-.347-.074-.51l4.386-4.386C19.366 8.458 20 10.154 20 12c0 4.411-3.589 8-8 8m0-18C6.486 2 2 6.486 2 12s4.486 10 10 10 10-4.486 10-10S17.514 2 12 2"/>
</svg>
