<svg width="24" height="24" viewBox="0 0 24 24" fill="none" xmlns="http://www.w3.org/2000/svg">
<g id="refresh">
<path id="Fill 1" fill-rule="evenodd" clip-rule="evenodd" d="M20 12C20 16.411 16.411 20 12 20C7.589 20 4 16.411 4 12C4 7.589 7.589 4 12 4C14.117 4 16.107 4.819 17.613 6.303L15.52 8.396C15.205 8.711 15.427 9.25 15.873 9.25H21.5C21.776 9.25 22 9.026 22 8.75V3.123C22 2.677 21.461 2.455 21.146 2.77L19.027 4.889C17.143 3.027 14.651 2 12 2C6.486 2 2 6.486 2 12C2 17.514 6.486 22 12 22C17.514 22 22 17.514 22 12H20Z" fill="#313234"/>
</g>
</svg>
