<svg xmlns="http://www.w3.org/2000/svg" width="24" height="24" viewBox="0 0 24 24">
    <path fill="#65676A" fill-rule="evenodd" d="M18.275 10.097c0 .173-.14.313-.313.313H14.43c-.279 0-.419-.337-.22-.535l1.313-1.314C14.577 7.63 13.33 7.114 12 7.114c-2.769 0-5.023 2.253-5.023 5.023 0 2.77 2.254 5.022 5.023 5.022 2.77 0 5.023-2.253 5.023-5.022h1.25c0 3.458-2.814 6.272-6.273 6.272-3.459 0-6.273-2.814-6.273-6.272 0-3.459 2.814-6.273 6.273-6.273 1.663 0 3.226.644 4.408 1.812l1.331-1.332c.198-.198.536-.058.536.222v3.531zM12 2C6.477 2 2 6.477 2 12c0 5.522 4.477 10 10 10s10-4.478 10-10c0-5.523-4.477-10-10-10z"/>
</svg>
