<svg xmlns="http://www.w3.org/2000/svg" width="24" height="24" viewBox="0 0 24 24">
    <path fill="#65676A" fill-rule="evenodd" d="M7.758 20.485l-4.244-4.243 1.416-1.414 2.12 2.121 1.414-1.414-2.12-2.12L7.756 12l1.415 1.414L10.585 12l-1.414-1.414 1.415-1.415 1.415 1.414 1.414-1.414L12 7.757l1.414-1.415 2.12 2.122L16.95 7.05l-2.121-2.122 1.413-1.414 4.243 4.243L7.758 20.485zM22.252 6.696l-4.95-4.949c-.283-.283-.66-.44-1.06-.44h-.002c-.4.001-.777.157-1.059.44L1.748 15.182c-.585.585-.585 1.536 0 2.121l4.949 4.95c.292.292.676.438 1.06.438.385 0 .768-.146 1.062-.438L22.252 8.818c.585-.585.585-1.537 0-2.122z"/>
</svg>
