<svg width="24" height="24" viewBox="0 0 24 24" fill="none" xmlns="http://www.w3.org/2000/svg">
<g id="security-person">
<path id="Combined Shape" fill-rule="evenodd" clip-rule="evenodd" d="M21 5.22222L12 2L3 5.22222V9.85028C3 14.1107 5.25893 18.0517 8.93516 20.2049L12 22L15.0648 20.2049C18.7411 18.0517 21 14.1107 21 9.85028V5.22222ZM5 6.63002L12 4.12402L19 6.63102V9.8503L18.9948 10.1723C18.8848 13.5983 17.0247 16.7392 14.054 18.4791L12 19.682L9.94597 18.4791L9.67074 18.3119C6.77008 16.4855 5 13.2931 5 9.8503V6.63002ZM12.0007 10.5C13.1046 10.5 14 9.6043 14 8.5C14 7.3957 13.1046 6.5 12.0007 6.5C10.8954 6.5 10 7.3957 10 8.5C10 9.6043 10.8954 10.5 12.0007 10.5ZM15.9995 14.7388C16.0087 14.8802 15.8887 15 15.7458 15H8.25421C8.11135 15 7.99135 14.8802 8.00049 14.7388C8.13535 12.6504 9.87481 11 12.0006 11C14.1252 11 15.8646 12.6504 15.9995 14.7388Z" fill="#242428"/>
</g>
</svg>
