<svg xmlns="http://www.w3.org/2000/svg" width="24" height="24" viewBox="0 0 24 24">
    <path fill="#65676A" fill-rule="evenodd" d="M8.391 13.007l8.836-.017-10.35 5.976 1.514-5.96zm8.862-2.018l-8.857.018-1.478-5.984 10.335 5.966zm4.72.994v-.002-.004c-.002-.12-.03-.233-.07-.341l-.034-.08c-.049-.103-.109-.2-.19-.28l-.004-.003c-.06-.06-.128-.114-.203-.157l-15.588-9c-.347-.201-.78-.174-1.1.068-.322.24-.467.649-.37 1.039l2.168 8.782-2.228 8.767c-.099.389.045.8.366 1.043.177.134.39.203.603.203.172 0 .345-.044.5-.134l15.65-9.035c.18-.104.311-.261.397-.443.012-.026.022-.051.033-.08.04-.11.07-.223.07-.343z"/>
</svg>
