<svg xmlns="http://www.w3.org/2000/svg" width="24" height="24" viewBox="0 0 24 24">
    <path fill="#65676A" fill-rule="evenodd" d="M17 12c2.761 0 5 2.238 5 5 0 2.761-2.239 5-5 5-2.762 0-5-2.239-5-5 0-2.762 2.238-5 5-5zm3.919-7.99c.358 0 .687.191.866.5.156.272.176.597.058.882l-.058.119-3.28 5.68C18.026 11.066 17.52 11 17 11c-3.314 0-6 2.686-6 6 0 1.638.656 3.123 1.72 4.205-.085.135-.202.243-.336.32-.185.107-.403.155-.624.126-.36-.044-.663-.278-.8-.607l-.039-.113-2.176-7.721 9.324-6.148-.351-.607-9.97 5.021-5.55-5.772c-.278-.29-.357-.716-.199-1.085.14-.333.448-.56.801-.602l.119-.007h18zm-1.22 11.705L15.715 19.7c.391.187.823.301 1.285.301 1.654 0 3-1.346 3-3 0-.462-.114-.894-.3-1.285zM17 14c-1.654 0-3 1.346-3 3 0 .462.113.894.301 1.285l3.984-3.984c-.39-.188-.824-.3-1.285-.3z"/>
</svg>
