<svg width="24" height="24" viewBox="0 0 24 24" fill="none" xmlns="http://www.w3.org/2000/svg">
<g id="sent-failed-filled">
<path id="Combined Shape" fill-rule="evenodd" clip-rule="evenodd" d="M20.9186 4.01067L2.91896 4.01044C2.51795 4.00987 2.15509 4.24938 1.99896 4.61896C1.84147 4.98817 1.92039 5.41488 2.19803 5.70376L7.7478 11.4762L17.7177 6.45453L18.0687 7.06248L8.7452 13.2098L10.9214 20.9311C11.0307 21.3184 11.3609 21.6023 11.7599 21.6514C11.9807 21.6798 12.1992 21.6322 12.3836 21.5257C12.5175 21.4484 12.6342 21.34 12.7217 21.2066C11.6569 20.1238 11 18.6386 11 17C11 13.6863 13.6863 11 17 11C17.52 11 18.0245 11.0661 18.5057 11.1905L21.7846 5.51062C21.964 5.20147 21.9636 4.82068 21.7846 4.51064C21.6061 4.20147 21.2765 4.01068 20.9186 4.01067ZM15.7152 19.6991C16.1062 19.8861 16.5382 20.0001 17.0002 20.0001C18.6542 20.0001 20.0002 18.6541 20.0002 17.0001C20.0002 16.5381 19.8862 16.1061 19.6992 15.7151L15.7152 19.6991ZM18.2852 14.3011C17.8942 14.1131 17.4612 14.0001 17.0002 14.0001C15.3462 14.0001 14.0002 15.3461 14.0002 17.0001C14.0002 17.4621 14.1132 17.8941 14.3012 18.2851L18.2852 14.3011ZM12.0002 17.0001C12.0002 14.2381 14.2382 12.0001 17.0002 12.0001C19.7612 12.0001 22.0002 14.2381 22.0002 17.0001C22.0002 19.7611 19.7612 22.0001 17.0002 22.0001C14.2382 22.0001 12.0002 19.7611 12.0002 17.0001Z" fill="#313234"/>
</g>
</svg>
