<svg width="24" height="24" viewBox="0 0 24 24" fill="none" xmlns="http://www.w3.org/2000/svg">
<path fill-rule="evenodd" clip-rule="evenodd" d="M12 17C12 17.025 12.0036 17.0491 12.0071 17.0733L12.0071 17.0734C12.0101 17.0937 12.0131 17.114 12.014 17.135L10.617 12.178L18.261 7.745L15.691 12.195C13.569 12.773 12 14.694 12 17ZM5.34802 6H17.283L9.62102 10.443L5.34802 6ZM18.048 12.114L21.866 5.5C21.969 5.321 22.006 5.118 21.989 4.919C21.987 4.89 21.983 4.861 21.978 4.831C21.958 4.717 21.926 4.604 21.866 4.5V4.499C21.866 4.499 21.866 4.498 21.865 4.498C21.8645 4.497 21.8638 4.49625 21.863 4.4955C21.8623 4.49475 21.8615 4.494 21.861 4.493C21.801 4.392 21.721 4.308 21.632 4.234L21.6215 4.22574L21.6215 4.22572C21.6022 4.21052 21.5832 4.19554 21.562 4.182C21.469 4.117 21.369 4.064 21.26 4.034C21.2558 4.03281 21.2517 4.03268 21.2477 4.03256C21.245 4.03248 21.2424 4.0324 21.24 4.032C21.162 4.013 21.082 4 21 4H3.00002C2.59902 4 2.23702 4.239 2.08002 4.608C1.92302 4.978 2.00102 5.404 2.27902 5.693L8.54902 12.215L11.002 20.921C11.111 21.308 11.442 21.592 11.841 21.642C11.882 21.647 11.924 21.65 11.965 21.65C12.319 21.65 12.651 21.461 12.831 21.15L13.3 20.337C14.215 21.351 15.526 22 17 22C19.761 22 22 19.762 22 17C22 14.599 20.305 12.596 18.048 12.114ZM17.0002 20.0001C16.5382 20.0001 16.1062 19.8861 15.7152 19.6991L19.6992 15.7151C19.8862 16.1061 20.0002 16.5381 20.0002 17.0001C20.0002 18.6541 18.6542 20.0001 17.0002 20.0001ZM18.2852 14.3011C17.8942 14.1131 17.4612 14.0001 17.0002 14.0001C15.3462 14.0001 14.0002 15.3461 14.0002 17.0001C14.0002 17.4621 14.1132 17.8941 14.3012 18.2851L18.2852 14.3011Z" fill="#65676A"/>
</svg>
