<svg xmlns="http://www.w3.org/2000/svg" width="24" height="24" viewBox="0 0 24 24">
    <path fill="#65676A" fill-rule="evenodd" d="M7 12c0-2.76 2.239-5 5-5s5 2.24 5 5-2.239 5-5 5-5-2.24-5-5zm15 1.5v-3l-2.23-.372c-.199-.822-.523-1.594-.955-2.296l1.316-1.843-2.12-2.12-1.844 1.316c-.702-.432-1.473-.756-2.295-.955L13.5 2h-3l-.372 2.23c-.822.2-1.594.523-2.296.955L5.99 3.868 3.87 5.99l1.315 1.843c-.43.702-.756 1.474-.954 2.296L2 10.5v3l2.23.372c.198.822.523 1.594.954 2.296l-1.316 1.843 2.121 2.121 1.843-1.317c.702.431 1.474.756 2.296.955L10.5 22h3l.372-2.23c.822-.199 1.593-.524 2.295-.955l1.843 1.317 2.121-2.12-1.316-1.844c.432-.702.756-1.474.955-2.296L22 13.5z"/>
</svg>
