<svg width="20" height="20" viewBox="0 0 20 20" fill="none" xmlns="http://www.w3.org/2000/svg">
<path fill-rule="evenodd" clip-rule="evenodd" d="M19.4064 17.0516L18.7649 15.1281C18.7058 14.9232 18.7312 14.8717 19.0719 14.1795C19.0889 14.1451 19.1066 14.109 19.1252 14.0713C19.4144 13.4358 19.6306 12.7663 19.7787 12.0828C20.0779 10.7137 20.0659 9.28459 19.7897 7.92553C19.2293 5.16338 17.4309 2.72648 15.011 1.32739C13.8051 0.626847 12.436 0.16849 11.0459 0.056403C9.66683 -0.0847069 8.24072 0.0333851 6.90968 0.473728C4.24361 1.3414 1.99886 3.36498 0.858974 5.92297C0.27552 7.19496 -0.0107028 8.60105 0.000305794 9.99414C0.0113144 11.3772 0.257506 12.7923 0.847966 14.0683C1.98685 16.6333 4.23861 18.6449 6.90368 19.5135C8.24072 19.9429 9.65282 20.093 11.0449 19.9449C11.7394 19.8688 12.429 19.7257 13.0935 19.5045C13.4268 19.3985 13.751 19.2684 14.0703 19.1262C14.2254 19.0604 14.4049 18.9686 14.5492 18.8948C14.688 18.8238 14.7942 18.7695 14.8148 18.771C14.9389 18.7329 15.042 18.7359 15.1281 18.764L16.0218 19.0622L17.0486 19.4045C17.1524 19.4367 17.2573 19.473 17.3621 19.5092C17.5564 19.5763 17.7508 19.6434 17.9393 19.6857C18.2305 19.7357 18.4517 19.6997 18.6508 19.6437C19.0832 19.5326 19.5315 19.0872 19.6426 18.6539C19.6996 18.4537 19.7367 18.2346 19.6866 17.9433C19.6456 17.7576 19.5796 17.5661 19.5135 17.3743C19.4764 17.2665 19.4392 17.1586 19.4064 17.0516ZM16.8604 14.2184C16.7093 14.6928 16.6933 15.2502 16.8664 15.7616L17.4189 17.4179L16.6553 17.1637L15.7586 16.8645C15.2462 16.6924 14.6897 16.7094 14.2154 16.8615C13.8766 16.9825 13.6964 17.0788 13.5445 17.16C13.4464 17.2123 13.3601 17.2584 13.2506 17.3008C12.9944 17.4139 12.7352 17.518 12.468 17.6031C11.9386 17.7802 11.3892 17.8933 10.8347 17.9543C9.72287 18.0744 8.57998 17.9503 7.52216 17.6101C5.40051 16.9205 3.57809 15.2953 2.67439 13.2507C2.20402 12.2369 2.01487 11.118 2.00186 9.99414C1.99086 8.87427 2.21903 7.7544 2.6864 6.73861C3.59811 4.69501 5.39951 3.07175 7.52717 2.37821C8.58899 2.02494 9.72688 1.93386 10.8427 2.04795C11.9646 2.13402 13.0365 2.4983 14.0062 3.05774C15.9437 4.17761 17.3878 6.14114 17.8282 8.32584C18.0524 9.4307 18.0594 10.5706 17.8212 11.6624C17.7031 12.2079 17.532 12.7423 17.2998 13.2517C17.2582 13.3629 17.2111 13.4506 17.1571 13.5514C17.0759 13.7028 16.9788 13.8838 16.8604 14.2184ZM4.20628 9.99283C4.20628 10.7374 4.81476 11.3459 5.55934 11.3459C6.30392 11.3459 6.91239 10.7374 6.91239 9.99283C6.91239 9.24925 6.30392 8.64078 5.55934 8.64078C4.81476 8.64078 4.20628 9.24925 4.20628 9.99283ZM8.68687 9.99283C8.68687 10.7374 9.29635 11.3459 10.0399 11.3459C10.7845 11.3459 11.393 10.7374 11.393 9.99283C11.393 9.24925 10.7845 8.64078 10.0399 8.64078C9.29635 8.64078 8.68687 9.24925 8.68687 9.99283ZM14.5209 11.3459C13.7763 11.3459 13.1679 10.7374 13.1679 9.99283C13.1679 9.24925 13.7763 8.64078 14.5209 8.64078C15.2645 8.64078 15.874 9.24925 15.874 9.99283C15.874 10.7374 15.2645 11.3459 14.5209 11.3459Z" fill="#313234"/>
</svg>
