<svg xmlns="http://www.w3.org/2000/svg" width="24" height="24" viewBox="0 0 24 24">
    <path fill="#65676A" fill-rule="evenodd" d="M12 1c2.21 0 4 1.79 4 4v2h3.5c.828 0 1.5.672 1.5 1.5v8c0 2.485-2.015 4.5-4.5 4.5h-9C5.015 21 3 18.985 3 16.5v-8C3 7.672 3.672 7 4.5 7H8V5c0-2.21 1.79-4 4-4zm7 8H5v7.5c0 1.325 1.032 2.41 2.336 2.495L7.5 19h9c1.325 0 2.41-1.032 2.495-2.336L19 16.5V9zM9 10c.552 0 1 .448 1 1s-.448 1-1 1-1-.448-1-1 .448-1 1-1zm6 0c.552 0 1 .448 1 1s-.448 1-1 1-1-.448-1-1 .448-1 1-1zm-3-7c-1.054 0-1.918.816-1.995 1.85L10 5v2h4V5c0-1.054-.816-1.918-1.85-1.995L12 3z"/>
</svg>
