<svg width="24" height="24" viewBox="0 0 24 24" fill="none" xmlns="http://www.w3.org/2000/svg">
<path fill-rule="evenodd" clip-rule="evenodd" d="M15.0412 8.00011H18.7932L16.9642 9.82911L18.3782 11.2431L21.5612 8.06111C22.1452 7.47611 22.1452 6.52411 21.5612 5.93911L18.3782 2.75711L16.9642 4.17111L18.7932 6.00011H15.0412C14.0632 6.00011 13.1442 6.47911 12.5832 7.28011L6.7782 15.5731C6.5912 15.8401 6.2852 16.0001 5.9582 16.0001H2.0002V18.0001H5.9582C6.9372 18.0001 7.8552 17.5221 8.4162 16.7201L14.2222 8.42611C14.4092 8.15911 14.7152 8.00011 15.0412 8.00011ZM6.778 8.4264L8.364 10.6924L9.585 8.9484L8.416 7.2794C7.855 6.4784 6.937 6.0004 5.959 6.0004H2V8.0004H5.959C6.285 8.0004 6.591 8.1594 6.778 8.4264ZM16.9646 14.1714L18.3786 12.7574L21.5606 15.9394C22.1456 16.5244 22.1456 17.4754 21.5606 18.0604L18.3786 21.2424L16.9646 19.8284L18.7936 18.0004H15.0416C14.0636 18.0004 13.1446 17.5214 12.5836 16.7204L11.4156 15.0514L12.6366 13.3074L14.2226 15.5734C14.4096 15.8404 14.7146 16.0004 15.0416 16.0004H18.7936L16.9646 14.1714Z" fill="#65676A"/>
</svg>
