<svg xmlns="http://www.w3.org/2000/svg" width="24" height="24" viewBox="0 0 24 24">
    <path fill="#65676A" fill-rule="evenodd" d="M18.379 12.757l3.182 3.182c.585.585.585 1.536 0 2.121l-3.182 3.182-1.414-1.414L18.794 18h-3.752c-.978 0-1.897-.479-2.458-1.28l-1.168-1.669 1.22-1.744 1.587 2.266c.187.267.492.427.819.427h3.752l-1.83-1.829 1.415-1.414zm0-10L21.56 5.94c.584.585.584 1.537 0 2.122l-3.183 3.182-1.414-1.414L18.794 8H15.04c-.326 0-.632.16-.819.426L8.416 16.72c-.56.802-1.479 1.28-2.458 1.28H2v-2h3.958c.327 0 .633-.16.82-.427l5.805-8.293c.561-.8 1.48-1.28 2.458-1.28h3.752l-1.829-1.829 1.414-1.414zM5.958 6c.978 0 1.896.478 2.457 1.28l1.169 1.668-1.221 1.744-1.586-2.266C6.591 8.16 6.285 8 5.959 8H2V6z"/>
</svg>
