<svg width="24" height="24" viewBox="0 0 24 24" fill="none" xmlns="http://www.w3.org/2000/svg">
<path fill-rule="evenodd" clip-rule="evenodd" d="M11.0071 1.00009V4.00009H13.0071V1.00009H11.0071ZM3.29999 4.7072L5.29999 6.7072L6.7142 5.29298L4.7142 3.29298L3.29999 4.7072ZM12.0071 5.00009C8.14109 5.00009 5.00708 8.1341 5.00708 12.0001V20.0001H4.00708V22.0001H20.0071V20.0001H19.0071V12.0001C19.0071 8.1341 15.8731 5.00009 12.0071 5.00009ZM17.3 5.29298L19.3 3.29298L20.7142 4.7072L18.7142 6.7072L17.3 5.29298ZM9 9.99999C8.44772 9.99999 8 10.4477 8 11V17C8 17.5523 8.44772 18 9 18C9.55228 18 10 17.5523 10 17V11C10 10.4477 9.55228 9.99999 9 9.99999Z" fill="#313234"/>
</svg>
