<svg xmlns="http://www.w3.org/2000/svg" width="24" height="24" viewBox="0 0 24 24">
    <path fill="#65676A" fill-rule="evenodd" d="M13 2c1.105 0 2 .895 2 2v3h-2V5H5v14h8v-2h2v3c0 1.105-.895 2-2 2H5c-1.105 0-2-.895-2-2V4c0-1.105.895-2 2-2h8zm3 7c.552 0 1 .448 1 1v5h-1.25v-4.5h-.875V15h-1.25v-4.5h-.875V15H11.5v-5c0-.552.448-1 1-1H16zm-5.5 0v1.5h-3v1h2c.552 0 1 .448 1 1V14c0 .552-.448 1-1 1H6v-1.5h3v-1H7c-.552 0-1-.448-1-1V10c0-.552.448-1 1-1h3.5zm12 0v1.5h-3v1h2c.552 0 1 .448 1 1V14c0 .552-.448 1-1 1H18v-1.5h3v-1h-2c-.552 0-1-.448-1-1V10c0-.552.448-1 1-1h3.5z"/>
</svg>
