<svg width="24" height="24" viewBox="0 0 24 24" fill="none" xmlns="http://www.w3.org/2000/svg">
<g id="sms">
<path id="Combined Shape" fill-rule="evenodd" clip-rule="evenodd" d="M5 2C3.89543 2 3 2.89543 3 4V20C3 21.1046 3.89543 22 5 22H13C14.1046 22 15 21.1046 15 20V17H13V19H5V5H13V7H15V4C15 2.89543 14.1046 2 13 2H5ZM11.5 10C11.5 9.44772 11.9477 9 12.5 9H12.75H13.625H14.875H15.75H16C16.5523 9 17 9.44772 17 10V15H15.75V10.5H14.875V15H13.625V10.5H12.75V15H11.5V10ZM6 10C6 9.44772 6.44772 9 7 9H7.5H10.5V10.5H7.5V11.5H9H9.5C10.0523 11.5 10.5 11.9477 10.5 12.5V14C10.5 14.5523 10.0523 15 9.5 15H9H6V13.5H9V12.5H7.5H7C6.44772 12.5 6 12.0523 6 11.5V10ZM19 9C18.4477 9 18 9.44772 18 10V11.5C18 12.0523 18.4477 12.5 19 12.5H19.5H21V13.5H18V15H21H21.5C22.0523 15 22.5 14.5523 22.5 14V12.5C22.5 11.9477 22.0523 11.5 21.5 11.5H21H19.5V10.5H22.5V9H19.5H19Z" fill="#242428"/>
</g>
</svg>
