<svg width="24" height="25" viewBox="0 0 24 25" fill="none" xmlns="http://www.w3.org/2000/svg">
<path fill-rule="evenodd" clip-rule="evenodd" d="M7.05024 2.39339L2.8076 6.63603L1.39339 5.22181L5.63603 0.979172L7.05024 2.39339ZM18.364 0.979183L22.6066 5.22182L21.1924 6.63604L16.9497 2.3934L18.364 0.979183ZM4 13C4 17.4183 7.58172 21 12 21C16.4183 21 20 17.4183 20 13C20 8.58172 16.4183 5 12 5C7.58172 5 4 8.58172 4 13ZM12 3C6.47715 3 2 7.47715 2 13C2 18.5228 6.47715 23 12 23C17.5228 23 22 18.5228 22 13C22 7.47715 17.5228 3 12 3ZM11 13.5384V7H13V12.3156L16.5298 14.1229L15.6182 15.9031L11 13.5384Z" fill="#313234"/>
</svg>
