<svg width="24" height="24" viewBox="0 0 24 24" fill="none" xmlns="http://www.w3.org/2000/svg">
<path fill-rule="evenodd" clip-rule="evenodd" d="M7.50001 17H20.5C20.776 17 21 16.776 21 16.5V3.5C21 3.224 20.776 3 20.5 3H7.50001C7.22401 3 7.00001 3.224 7.00001 3.5V16.5C7.00001 16.776 7.22401 17 7.50001 17ZM19 15H9.00001V5H19V15Z" fill="#313234"/>
<path d="M3.50021 21.0001H16.5002C16.7762 21.0001 17.0002 20.7761 17.0002 20.5001V19.0001H5.00021V7.0001H3.50021C3.22421 7.0001 3.00021 7.2241 3.00021 7.5001V20.5001C3.00021 20.7761 3.22421 21.0001 3.50021 21.0001Z" fill="#313234"/>
</svg>
