<svg width="24" height="24" viewBox="0 0 24 24" fill="none" xmlns="http://www.w3.org/2000/svg">
<g id="squares-filled">
<path id="Combined Shape" fill-rule="evenodd" clip-rule="evenodd" d="M8.50021 16.0001H20.5002C20.7762 16.0001 21.0002 15.7761 21.0002 15.5001V3.50009C21.0002 3.22409 20.7762 3.00009 20.5002 3.00009H8.50021C8.22421 3.00009 8.00021 3.22409 8.00021 3.50009V15.5001C8.00021 15.7761 8.22421 16.0001 8.50021 16.0001ZM3.50021 21.0001H16.5002C16.7762 21.0001 17.0002 20.7761 17.0002 20.5001V18.0001H15.0002H6.00021V9.00009V7.00009H3.50021C3.22421 7.00009 3.00021 7.22409 3.00021 7.50009V20.5001C3.00021 20.7761 3.22421 21.0001 3.50021 21.0001Z" fill="#242428"/>
</g>
</svg>
