<svg xmlns="http://www.w3.org/2000/svg" width="24" height="24" viewBox="0 0 24 24">
    <path fill="#65676A" fill-rule="evenodd" d="M20.5 3c.78 0 1.42.595 1.493 1.356L22 4.5v4.922l-.512.495c-.156.142-.319.272-.486.391L21 19.5c0 .78-.595 1.42-1.355 1.493L19.5 21h-15c-.78 0-1.42-.595-1.493-1.355L3 19.5v-9.19c-.112-.08-.222-.164-.329-.254l-.158-.138L2 9.427V4.5c0-.78.595-1.42 1.356-1.493L3.5 3h17zM8.993 10.305l-.084.06c-1.165.79-2.579 1.056-3.908.799L5 19h3v-6h8v6h3v-7.832c-1.243.244-2.557.032-3.672-.636l-.236-.15-.103-.074-.084.06c-1.686 1.143-3.895 1.186-5.628.125l-.206-.133-.078-.055zM14 15h-4v4h4v-4zm6-10H4v3.556l.182.137c1.14.787 2.68.749 3.793-.123l.024-.022L8 7h2v1.562l.024.022c1.168.912 2.821.901 3.977-.033L14 7h2v1.564l.037.031c1.101.855 2.633.89 3.776.101l.161-.118.026-.022V5z"/>
</svg>
