<svg width="24" height="24" viewBox="0 0 24 24" fill="none" xmlns="http://www.w3.org/2000/svg">
<path d="M11.879 21C12.7177 21 13.5161 20.8871 14.2742 20.6613C15.0323 20.4355 15.6935 20.0968 16.2581 19.6452C16.8226 19.1935 17.2742 18.625 17.6129 17.9395C17.9516 17.254 18.121 16.4516 18.121 15.5323C18.121 14.957 18.047 14.4463 17.899 14H13.9081C14.2418 14.2117 14.509 14.4604 14.7097 14.746C14.9194 15.0444 15.0242 15.4194 15.0242 15.871C15.0242 16.3387 14.9315 16.7298 14.746 17.0444C14.5605 17.3589 14.3185 17.621 14.0202 17.8306C13.7218 18.0403 13.3871 18.1895 13.0161 18.2782C12.6452 18.3669 12.2823 18.4113 11.9274 18.4113C11.25 18.4113 10.5605 18.2419 9.85887 17.9032C9.15726 17.5645 8.59677 17.1048 8.17742 16.5242L6 18.5565C6.67742 19.3629 7.54839 19.9718 8.6129 20.3831C9.67742 20.7944 10.7661 21 11.879 21Z" fill="#313234"/>
<path d="M3 13V11H7.73849C7.50556 10.72 7.30509 10.4042 7.1371 10.0524C6.87903 9.5121 6.75 8.83871 6.75 8.03226C6.75 7.16129 6.93145 6.41129 7.29435 5.78226C7.65726 5.15323 8.13306 4.63306 8.72177 4.22177C9.31048 3.81048 9.97984 3.50403 10.7298 3.30242C11.4798 3.10081 12.2419 3 13.0161 3C13.8871 3 14.7702 3.15323 15.6653 3.45968C16.5605 3.76613 17.3387 4.22581 18 4.83871L16.0161 7.01613C15.6935 6.59677 15.2379 6.24597 14.6492 5.96371C14.0605 5.68145 13.4677 5.54032 12.871 5.54032C12.5161 5.54032 12.1613 5.58468 11.8065 5.67339C11.4516 5.7621 11.129 5.89919 10.8387 6.08468C10.5484 6.27016 10.3105 6.5121 10.125 6.81048C9.93952 7.10887 9.84677 7.46774 9.84677 7.8871C9.84677 8.27419 9.92742 8.60484 10.0887 8.87903C10.25 9.15323 10.4718 9.3871 10.754 9.58065C11.0363 9.77419 11.379 9.94355 11.7823 10.0887C12.1855 10.2339 12.629 10.379 13.1129 10.5242C13.5546 10.6671 14.0094 10.8257 14.4773 11H21V13H3Z" fill="#313234"/>
</svg>
