<svg xmlns="http://www.w3.org/2000/svg" width="24" height="24" viewBox="0 0 24 24">
    <path fill="#65676A" fill-rule="evenodd" d="M20 5c1.105 0 2 .895 2 2v10c0 1.105-.895 2-2 2H4c-1.105 0-2-.895-2-2V7c0-1.105.895-2 2-2h16zM9.59 7H6.41c-.238 0-.444.168-.49.402l-1.8 9c-.007.032-.01.065-.01.098 0 .276.224.5.5.5h.98c.238 0 .444-.168.49-.402L6.4 15h3.199l.32 1.6c.047.233.253.401.49.401h.981c.033 0 .066-.003.098-.01.27-.054.447-.317.392-.588l-1.8-9C10.034 7.168 9.828 7 9.59 7zM19 7h-5.5c-.276 0-.5.224-.5.5v1c0 .276.224.5.5.5h3.697l-4.098 5.505c-.064.086-.099.191-.099.299V16.5c0 .276.224.5.5.5H19c.276 0 .5-.224.5-.5v-1c0-.276-.224-.5-.5-.5h-3.699l4.1-5.505c.064-.086.099-.191.099-.299V7.5c0-.276-.224-.5-.5-.5zM8.4 9l.799 3.999h-2.4L7.6 9h.8z"/>
</svg>
