<svg xmlns="http://www.w3.org/2000/svg" width="24" height="24" viewBox="0 0 24 24">
    <path fill="#65676A" fill-rule="evenodd" d="M17.698 15.336c0 .868-.16 1.626-.48 2.274-.32.647-.747 1.184-1.28 1.61-.533.427-1.158.747-1.873.96-.716.213-1.47.32-2.263.32-1.05 0-2.079-.194-3.084-.583-.905-.35-1.662-.85-2.27-1.502l-.198-.223 2.056-1.92.155.201c.376.455.854.822 1.433 1.102.663.32 1.314.48 1.954.48.335 0 .678-.042 1.028-.126.35-.083.667-.224.949-.422.281-.198.51-.446.685-.743.175-.297.263-.666.263-1.108 0-.427-.1-.78-.297-1.063-.156-.22-.353-.419-.594-.593h3.64c.117.394.176.84.176 1.336zM12.876 3.5c.823 0 1.657.145 2.502.434.74.253 1.395.617 1.966 1.092l.24.21-1.874 2.057-.139-.166c-.291-.323-.676-.6-1.152-.828-.556-.267-1.116-.4-1.68-.4-.335 0-.67.042-1.005.126-.335.084-.64.213-.914.388-.274.175-.499.404-.674.686-.175.282-.263.62-.263 1.017 0 .365.076.677.229.936.152.26.361.48.628.663.266.183.59.343.971.48.38.137.8.274 1.257.411.345.112.699.234 1.061.366l.076.028H21v2l-3.963-.001V13H3v-2l4.848.002c-.201-.251-.376-.531-.524-.841-.244-.51-.366-1.147-.366-1.908 0-.823.172-1.531.514-2.125.343-.594.793-1.086 1.349-1.474.556-.389 1.188-.678 1.896-.868.708-.19 1.428-.286 2.16-.286z"/>
</svg>
