<svg xmlns="http://www.w3.org/2000/svg" width="24" height="24" fill="none" viewBox="0 0 24 24">
    <g clip-path="url(#clip0)">
        <path fill="#65676A" fill-rule="evenodd" d="M2 7c0-1.105.895-2 2-2h16c1.105 0 2 .895 2 2v10c0 1.105-.895 2-2 2H4c-1.105 0-2-.895-2-2V7zm4.41 0c-.238 0-.444.168-.49.402l-1.8 9c-.062.31.174.598.49.598h.98c.238 0 .444-.168.49-.402L6.4 15h3.2l.32 1.598c.046.234.252.402.49.402h.98c.316 0 .552-.289.49-.598l-1.8-9C10.034 7.168 9.828 7 9.59 7H6.41zM7.6 9l-.8 4h2.4l-.8-4h-.8zm11.9-1.5c0-.276-.224-.5-.5-.5h-5.5c-.276 0-.5.224-.5.5v1c0 .276.224.5.5.5h3.697l-4.098 5.505c-.064.086-.099.191-.099.299V16.5c0 .276.224.5.5.5H19c.276 0 .5-.224.5-.5v-1c0-.276-.224-.5-.5-.5h-3.699l4.1-5.505c.064-.086.099-.191.099-.299V7.5z" clip-rule="evenodd"/>
    </g>
    <defs>
        <clipPath id="clip0">
            <path fill="#fff" d="M0 0H24V24H0z"/>
        </clipPath>
    </defs>
</svg>
