<svg xmlns="http://www.w3.org/2000/svg" width="24" height="24" viewBox="0 0 24 24">
    <path fill="#65676A" fill-rule="evenodd" d="M22 12c0 5.514-4.486 10-10 10-2.65 0-5.144-1.027-7.027-2.889L2.854 21.23c-.315.315-.854.092-.854-.353V15.25c0-.276.224-.5.5-.5h5.627c.445 0 .668.539.353.854l-2.093 2.093C7.893 19.181 9.883 20 12 20c4.411 0 8-3.589 8-8h2zM12 2c2.651 0 5.143 1.027 7.027 2.889l2.12-2.119c.314-.315.853-.093.853.353V8.75c0 .276-.224.5-.5.5h-5.627c-.445 0-.668-.539-.353-.854l2.093-2.093C16.106 4.819 14.117 4 12 4c-4.41 0-8 3.589-8 8H2C2 6.486 6.486 2 12 2z"/>
</svg>
