<svg width="24" height="24" viewBox="0 0 24 24" fill="none" xmlns="http://www.w3.org/2000/svg">
<path fill-rule="evenodd" clip-rule="evenodd" d="M15.8732 9.25H21.5002C21.7762 9.25 22.0002 9.026 22.0002 8.75V3.123C22.0002 2.677 21.4612 2.455 21.1462 2.77L19.0272 4.889C17.1432 3.027 14.6512 2 12.0002 2C6.48618 2 2.00018 6.486 2.00018 12H4.00018C4.00018 7.589 7.58918 4 12.0002 4C14.1172 4 16.1062 4.819 17.6132 6.303L15.5202 8.396C15.2052 8.711 15.4282 9.25 15.8732 9.25ZM8.12718 14.75H2.50018C2.22418 14.75 2.00018 14.974 2.00018 15.25V20.877C2.00018 21.322 2.53918 21.545 2.85418 21.23L4.97318 19.111C6.85618 20.973 9.34918 22 12.0002 22C17.5142 22 22.0002 17.514 22.0002 12H20.0002C20.0002 16.411 16.4112 20 12.0002 20C9.88318 20 7.89318 19.181 6.38718 17.697L8.48018 15.604C8.79518 15.289 8.57218 14.75 8.12718 14.75Z" fill="#313234"/>
</svg>
