<svg width="16" height="16" viewBox="0 0 16 16" fill="none" xmlns="http://www.w3.org/2000/svg">
<path d="M4.00008 5.33334C3.63189 5.33334 3.33341 5.63182 3.33341 6.00001V10C3.33341 10.3682 3.63189 10.6667 4.00008 10.6667C4.36827 10.6667 4.66675 10.3682 4.66675 10V6.00001C4.66675 5.63182 4.36827 5.33334 4.00008 5.33334Z" fill="#313234"/>
<path fill-rule="evenodd" clip-rule="evenodd" d="M2.66675 3.33334C1.56218 3.33334 0.666748 4.22877 0.666748 5.33334V10.6667C0.666748 11.7712 1.56218 12.6667 2.66675 12.6667H13.3334C14.438 12.6667 15.3334 11.7712 15.3334 10.6667V5.33334C15.3334 4.22877 14.438 3.33334 13.3334 3.33334H2.66675ZM13.3334 4.66668H2.66675C2.29856 4.66668 2.00008 4.96515 2.00008 5.33334V10.6667C2.00008 11.0349 2.29856 11.3333 2.66675 11.3333H13.3334C13.7016 11.3333 14.0001 11.0349 14.0001 10.6667V5.33334C14.0001 4.96515 13.7016 4.66668 13.3334 4.66668Z" fill="#313234"/>
</svg>
