<svg width="24" height="24" viewBox="0 0 24 24" fill="none" xmlns="http://www.w3.org/2000/svg">
<path fill-rule="evenodd" clip-rule="evenodd" d="M2.10712 3.51421L3.52132 2.10001L7.42131 6H17V2.96568C17 2.60932 17.4308 2.43085 17.6828 2.68284L21.6464 6.64644C21.8417 6.84171 21.8417 7.15829 21.6464 7.35355L17.6828 11.3172C17.4308 11.5691 17 11.3907 17 11.0343V8H9.42131L21.9061 20.4848L20.4919 21.899L16.5929 18L14.5929 16L2.10712 3.51421ZM13.1787 16H7V12.9657C7 12.6093 6.56915 12.4309 6.31716 12.6828L2.35355 16.6464C2.15829 16.8417 2.15829 17.1583 2.35356 17.3536L6.31716 21.3172C6.56915 21.5691 7 21.3907 7 21.0343V18H15.1787L13.1787 16Z" fill="#65676A"/>
</svg>
