<svg xmlns="http://www.w3.org/2000/svg" width="24" height="24" viewBox="0 0 24 24">
    <path fill="#65676A" fill-rule="evenodd" d="M15 3c.552 0 1 .448 1 1v4h4c.552 0 1 .448 1 1v11c0 .552-.448 1-1 1H9c-.552 0-1-.448-1-1v-4H4c-.552 0-1-.448-1-1V4c0-.552.448-1 1-1zm-4.565 2h-1.58v1.813H6.232v1.58H10.1c-1.087.857-2.606 1.89-4.099 2.35l.465 1.51c1.017-.315 2.021-.84 2.92-1.413.188.144.397.297.615.45V19h9v-9h-8.082c-.055-.039-.108-.073-.164-.113 1.04-.79 1.78-1.496 1.97-1.682l.043-.043c.227-.225.295-.565.173-.86-.122-.297-.41-.489-.73-.489h-1.775V5zm4.691 6.012l3.034 6.975h-1.8l-.587-1.477h-2.604l-.567 1.477H10.84l3.016-6.975h1.271zm-.68 2.15l-.752 1.927h1.514l-.761-1.927z"/>
</svg>
