<svg width="24" height="24" viewBox="0 0 24 24" fill="none" xmlns="http://www.w3.org/2000/svg">
<path fill-rule="evenodd" clip-rule="evenodd" d="M21.6464 6.64644C21.8417 6.84171 21.8417 7.15829 21.6464 7.35355L17.6828 11.3172C17.4309 11.5691 17 11.3907 17 11.0343V8H4V6H17V2.96568C17 2.60932 17.4309 2.43085 17.6828 2.68284L21.6464 6.64644ZM7 18V21.0343C7 21.3907 6.56915 21.5691 6.31716 21.3172L2.35355 17.3536C2.15829 17.1583 2.15829 16.8417 2.35355 16.6464L6.31716 12.6828C6.56914 12.4309 7 12.6093 7 12.9657V16H20V18H7Z" fill="#65676A"/>
</svg>
