<svg width="24" height="24" viewBox="0 0 24 24" fill="none" xmlns="http://www.w3.org/2000/svg">
<g id="transfer">
<path id="Combined Shape" fill-rule="evenodd" clip-rule="evenodd" d="M21.6464 6.64645C21.8417 6.84171 21.8417 7.15829 21.6464 7.35355L17.6828 11.3172C17.4308 11.5691 17 11.3907 17 11.0343V8H3.99998V6H17V2.96569C17 2.60932 17.4308 2.43086 17.6828 2.68284L21.6464 6.64645ZM6.99998 18V21.0343C6.99998 21.3907 6.56913 21.5691 6.31714 21.3172L2.35354 17.3536C2.15828 17.1583 2.15828 16.8417 2.35354 16.6464L6.31714 12.6828C6.56913 12.4309 6.99998 12.6093 6.99998 12.9657V16H20V18H6.99998Z" fill="#242428"/>
</g>
</svg>
