<svg width="24" height="24" viewBox="0 0 24 24" fill="none" xmlns="http://www.w3.org/2000/svg">
<g id="transfer-disabled">
<path id="Combined Shape" fill-rule="evenodd" clip-rule="evenodd" d="M2.10712 3.51418L3.52132 2.09998L7.42131 5.99997H17V2.96565C17 2.60929 17.4308 2.43082 17.6828 2.68281L21.6464 6.64641C21.8417 6.84168 21.8417 7.15826 21.6464 7.35352L17.6828 11.3171C17.4308 11.5691 17 11.3906 17 11.0343V7.99997H9.42131L21.9061 20.4848L20.4919 21.899L16.5929 18L14.5929 16L2.10712 3.51418ZM13.1787 16H7V12.9657C7 12.6093 6.56915 12.4308 6.31716 12.6828L2.35355 16.6464C2.15829 16.8417 2.15829 17.1583 2.35356 17.3535L6.31716 21.3171C6.56915 21.5691 7 21.3906 7 21.0343V18H15.1787L13.1787 16Z" fill="#313234"/>
</g>
</svg>
