<svg xmlns="http://www.w3.org/2000/svg" width="24" height="24" viewBox="0 0 24 24">
    <path fill="#65676A" fill-rule="evenodd" d="M13.808 7.356c.015 0 .028.006.043.008.054.006.104.026.147.058.015.01.03.02.041.035.047.05.083.115.083.195v8.719c0 .08-.036.144-.083.195-.012.013-.026.024-.04.035-.044.032-.094.052-.148.058-.015.002-.028.009-.043.008-.062-.003-.124-.02-.178-.065l-5.23-4.36c-.145-.12-.145-.341 0-.461l5.23-4.36c.054-.044.116-.062.178-.065M12 2C6.477 2 2 6.478 2 12c0 5.522 4.477 10 10 10 5.522 0 10-4.478 10-10 0-5.523-4.478-10-10-10"/>
</svg>
