<svg xmlns="http://www.w3.org/2000/svg" width="24" height="24" viewBox="0 0 24 24">
    <path fill="#65676A" fill-rule="evenodd" d="M10.266 16.667c-.015 0-.028-.006-.043-.008-.054-.006-.104-.026-.147-.058-.015-.011-.03-.022-.041-.035-.047-.051-.083-.115-.083-.195V7.65c0-.08.036-.143.083-.194.012-.014.026-.024.04-.035.044-.032.094-.052.148-.06.015 0 .028-.007.043-.006.062.003.124.02.178.065l5.23 4.36c.145.12.145.34 0 .46l-5.23 4.36c-.054.045-.116.063-.178.066M12 2C6.477 2 2 6.478 2 12c0 5.523 4.477 10 10 10s10-4.477 10-10c0-5.522-4.477-10-10-10"/>
</svg>
