<svg xmlns="http://www.w3.org/2000/svg" width="24" height="24" fill="none" viewBox="0 0 24 24">
    <path fill="#65676A" fill-rule="evenodd" d="M16 6c-.55 0-1-.449-1-1 0-.55.45-1 1-1 .551 0 1 .45 1 1 0 .551-.449 1-1 1zm2.816-2C18.402 2.838 17.302 2 16 2c-1.302 0-2.4.838-2.815 2H3v2h10.184C13.6 7.162 14.698 8 16 8c1.302 0 2.402-.838 2.816-2H21V4h-2.184zM8 13c-.55 0-1-.449-1-1 0-.55.45-1 1-1 .551 0 1 .45 1 1 0 .551-.449 1-1 1zm0-4c-1.302 0-2.4.838-2.815 2H3v2h2.184C5.6 14.162 6.698 15 8 15c1.302 0 2.402-.838 2.816-2H21v-2H10.816C10.402 9.838 9.302 9 8 9zm7 10c0 .551.45 1 1 1 .551 0 1-.449 1-1 0-.55-.449-1-1-1-.55 0-1 .45-1 1zm-1.815-1c.414-1.162 1.513-2 2.815-2s2.402.838 2.816 2H21v2h-2.184c-.414 1.162-1.514 2-2.816 2-1.302 0-2.4-.838-2.816-2H3v-2h10.185z" clip-rule="evenodd"/>
</svg>
