<svg xmlns="http://www.w3.org/2000/svg" width="24" height="24" viewBox="0 0 24 24">
    <path fill="#65676A" fill-rule="evenodd" d="M16 16c1.302 0 2.402.838 2.816 2H21v2h-2.184c-.414 1.162-1.514 2-2.816 2-1.302 0-2.4-.838-2.816-2H3v-2h10.185c.414-1.162 1.513-2 2.815-2zm0 2c-.55 0-1 .45-1 1 0 .551.45 1 1 1 .551 0 1-.449 1-1 0-.55-.449-1-1-1zM8 9c1.302 0 2.402.838 2.816 2H21v2H10.816c-.414 1.162-1.514 2-2.816 2-1.302 0-2.4-.838-2.816-2H3v-2h2.185C5.6 9.838 6.698 9 8 9zm0 2c-.55 0-1 .45-1 1 0 .551.45 1 1 1 .551 0 1-.449 1-1 0-.55-.449-1-1-1zm8-9c1.302 0 2.402.838 2.816 2H21v2h-2.184C18.402 7.162 17.302 8 16 8c-1.302 0-2.4-.838-2.816-2H3V4h10.185C13.6 2.838 14.698 2 16 2zm0 2c-.55 0-1 .45-1 1 0 .551.45 1 1 1 .551 0 1-.449 1-1 0-.55-.449-1-1-1z"/>
</svg>
