<svg xmlns="http://www.w3.org/2000/svg" width="24" height="24" viewBox="0 0 24 24">
    <path fill="#65676A" fill-rule="evenodd" d="M8.29 20.125c7.547 0 11.675-6.252 11.675-11.675 0-.178 0-.354-.012-.53.803-.58 1.496-1.3 2.047-2.124-.75.332-1.543.55-2.356.645.856-.512 1.497-1.319 1.804-2.269-.806.477-1.687.814-2.606.996-1.554-1.652-4.154-1.732-5.806-.179-1.065 1.003-1.517 2.496-1.187 3.921-3.3-.165-6.373-1.723-8.457-4.287-1.09 1.875-.533 4.273 1.27 5.478-.652-.02-1.291-.196-1.862-.514v.052c0 1.954 1.378 3.635 3.292 4.022-.604.165-1.238.19-1.852.07.537 1.672 2.077 2.818 3.833 2.85-1.453 1.143-3.248 1.763-5.096 1.761-.326 0-.652-.02-.977-.06 1.877 1.204 4.06 1.843 6.29 1.84"/>
</svg>
