<svg xmlns="http://www.w3.org/2000/svg" width="24" height="24" viewBox="0 0 24 24">
    <path fill="#65676A" fill-rule="evenodd" d="M2.138 13.686C1.018 6.851 6.85 1.018 13.686 2.138c4.212.691 7.577 4.117 8.2 8.342.324 2.185-.055 4.335-1.052 6.21-.719 1.351-2.363 1.922-3.783 1.345-.832-.336-1.453-1.017-1.728-1.838-.959.871-2.221 1.401-3.606 1.401-3.019 0-5.451-2.513-5.451-5.598s2.432-5.598 5.45-5.598c1.312 0 2.513.475 3.452 1.265v-.432h2v8.005c0 .414.25.786.634.942.483.196 1.035.004 1.267-.431.797-1.5 1.1-3.219.84-4.979-.497-3.365-3.194-6.11-6.547-6.66-5.484-.9-10.15 3.766-9.25 9.25.541 3.3 2.983 5.833 6.25 6.476 1.738.342 3.449.135 4.969-.562l.833 1.818c-1.9.871-4.037 1.13-6.187.706-4.089-.804-7.163-3.992-7.84-8.114zm9.579-5.284c-1.9 0-3.451 1.603-3.451 3.598 0 1.994 1.552 3.598 3.45 3.598 1.899 0 3.452-1.604 3.452-3.598 0-1.994-1.553-3.598-3.451-3.598z"/>
</svg>
