<svg xmlns="http://www.w3.org/2000/svg" width="24" height="24" viewBox="0 0 24 24">
    <path fill="#65676A" fill-rule="evenodd" d="M6 5v2H5c-.513 0-.936.386-.993.883L4 8v2c0 .769-.29 1.47-.765 2 .44.49.72 1.125.76 1.824L4 14v2c0 .513.386.936.883.993L5 17h1v2H5c-1.598 0-2.904-1.249-2.995-2.824L2 16v-2c0-.513-.386-.936-.883-.993L1 13v-2c.513 0 .936-.386.993-.883L2 10V8c0-1.598 1.249-2.904 2.824-2.995L5 5h1zm13 0l.176.005c1.517.088 2.731 1.302 2.819 2.819L22 8v2l.007.117c.053.459.417.823.876.876L23 11v2l-.117.007c-.459.053-.823.417-.876.876L22 14v2l-.005.176c-.088 1.517-1.302 2.731-2.819 2.819L19 19h-1v-2h1l.117-.007c.459-.053.823-.417.876-.876L20 16v-2l.005-.176c.04-.7.32-1.334.759-1.824-.427-.477-.704-1.093-.755-1.771L20 10V8l-.007-.117c-.053-.459-.417-.823-.876-.876L19 7h-1V5h1zM7.56 10.64c.744 0 1.352.61 1.352 1.353 0 .744-.608 1.353-1.353 1.353-.744 0-1.353-.609-1.353-1.353s.609-1.352 1.353-1.352zm4.48 0c.745 0 1.353.61 1.353 1.353 0 .744-.608 1.353-1.353 1.353-.744 0-1.353-.609-1.353-1.353s.61-1.352 1.353-1.352zm4.48 0c.744 0 1.354.61 1.354 1.353 0 .744-.61 1.353-1.353 1.353-.745 0-1.353-.609-1.353-1.353s.608-1.352 1.353-1.352z"/>
</svg>
