<svg xmlns="http://www.w3.org/2000/svg" width="24" height="24" viewBox="0 0 24 24">
    <path fill="#65676A" fill-rule="evenodd" d="M3.869 1.747l4.926 4.927c1.119-.397 2.294-.631 3.514-.631 4.178 0 7.955 2.407 10.103 6.438l-1.765.94c-1.795-3.368-4.912-5.378-8.338-5.378-.654 0-1.292.084-1.915.23l1.23 1.23c.223-.039.45-.063.685-.063 2.268 0 4.107 1.838 4.107 4.107 0 .234-.024.462-.063.685l5.9 5.9-1.414 1.414L2.455 3.161l1.414-1.414zm5.136 9.38l5.724 5.723c-.68.5-1.512.804-2.42.804-2.269 0-4.108-1.838-4.108-4.107 0-.909.304-1.74.804-2.42zM5.997 8.119l1.428 1.427c-1.386.92-2.58 2.233-3.454 3.875l-1.765-.94c.967-1.814 2.276-3.278 3.79-4.362z"/>
</svg>
