<svg width="24" height="24" viewBox="0 0 24 24" fill="none" xmlns="http://www.w3.org/2000/svg">
<g id="view-off">
<path id="Combined Shape" fill-rule="evenodd" clip-rule="evenodd" d="M16.4157 13.547C16.4157 11.278 14.5767 9.44001 12.3087 9.44001C12.0747 9.44001 11.8467 9.46401 11.6237 9.50301L10.3937 8.27301C11.0167 8.12701 11.6547 8.04301 12.3087 8.04301C15.7347 8.04301 18.8517 10.053 20.6467 13.421L22.4117 12.481C20.2637 8.45001 16.4867 6.04301 12.3087 6.04301C11.0887 6.04301 9.91369 6.27701 8.79469 6.67401L3.86869 1.74701L2.45469 3.16101L20.8387 21.546L22.2527 20.132L16.3527 14.232C16.3917 14.009 16.4157 13.781 16.4157 13.547ZM8.20129 13.547C8.20129 15.816 10.0403 17.654 12.3083 17.654C13.2173 17.654 14.0493 17.35 14.7293 16.85L9.00529 11.127C8.50529 11.807 8.20129 12.638 8.20129 13.547ZM3.97069 13.4206L2.20569 12.4806C3.17269 10.6666 4.48169 9.20261 5.99669 8.11861L7.42469 9.54561C6.03869 10.4666 4.84569 11.7786 3.97069 13.4206Z" fill="#313234"/>
</g>
</svg>
