<svg xmlns="http://www.w3.org/2000/svg" width="24" height="24" fill="none" viewBox="0 0 24 24">
    <path fill="#65676A" fill-rule="evenodd" d="M13 2l-.131.009c-.217.029-.42.128-.576.284L7.585 7H3c-.552 0-1 .448-1 1v8l.007.117c.058.497.48.883.993.883h4.586l4.707 4.707c.188.188.442.293.707.293h1c.553 0 1-.448 1-1V3c0-.552-.447-1-1-1h-1zm0 2.414v15.171l-4.293-4.292-.099-.087C8.435 15.073 8.221 15 8 15H4V9h4c.265 0 .52-.105.707-.293L13 4.414zm6.417 11.648c2.167-2.355 2.109-6.023-.176-8.307L17.827 9.17l.151.16c1.41 1.572 1.36 3.99-.15 5.502l1.413 1.414.176-.183z" clip-rule="evenodd"/>
</svg>
