<svg xmlns="http://www.w3.org/2000/svg" width="24" height="24" viewBox="0 0 24 24">
    <path fill="#65676A" fill-rule="evenodd" d="M14 2c.552 0 1 .448 1 1v18c0 .552-.448 1-1 1h-1c-.265 0-.52-.105-.707-.293L7.586 17H3c-.513 0-.935-.386-.993-.883L2 16V8c0-.552.448-1 1-1h4.585l4.708-4.707c.156-.156.36-.255.576-.284L13 2zm-1 2.414L8.707 8.707C8.52 8.895 8.265 9 8 9H4v6h4c.221 0 .435.073.608.206l.1.087L13 19.585V4.414zm6.241 3.341c2.285 2.285 2.343 5.952.176 8.307l-.176.183-1.414-1.414c1.512-1.511 1.562-3.93.151-5.502l-.15-.16 1.413-1.414z"/>
</svg>
