<svg xmlns="http://www.w3.org/2000/svg" width="24" height="24" fill="none" viewBox="0 0 24 24">
    <path fill="#65676A" fill-rule="evenodd" d="M9.768 7.647L13 10.88V4.414L9.768 7.647zM15 12.88l7.253 7.253-1.414 1.414L2.453 3.161l1.414-1.414 4.486 4.486 3.94-3.94C12.48 2.106 12.734 2 13 2h1c.552 0 1 .448 1 1v9.88zm-6.293 2.414L13 19.586v-4.465l2 2v3.88c0 .551-.448 1-1 1h-1c-.265 0-.52-.106-.707-.294L7.586 17H3c-.552 0-1-.448-1-1V8c0-.552.448-1 1-1h1.88l2 2H4v6h4c.265 0 .52.106.707.293z" clip-rule="evenodd"/>
</svg>
