<svg xmlns="http://www.w3.org/2000/svg" width="24" height="24" fill="none" viewBox="0 0 24 24">
    <path fill="#65676A" fill-rule="evenodd" d="M12.96 2l-.131.008c-.217.029-.42.128-.576.284L7.545 7H2.96c-.552 0-1 .448-1 1v8l.007.117c.058.497.48.884.993.884l4.585-.001 4.708 4.708c.188.187.442.293.707.293h1c.552 0 1-.448 1-1V3c0-.553-.448-1-1-1h-1zm0 2.413v15.172l-4.293-4.293-.099-.086c-.173-.133-.387-.207-.608-.207h-4v-6h4c.265 0 .52-.105.707-.292l4.293-4.294zm7.1 1.294c3.408 3.407 3.475 8.89.2 12.38l-.2.206-1.414-1.414c2.633-2.634 2.693-6.866.18-9.572l-.18-.186 1.414-1.414zm-2.416 2.416c2.08 2.081 2.139 5.421.173 7.572l-.173.181-1.414-1.414c1.31-1.31 1.357-3.409.14-4.776l-.14-.149 1.414-1.414z" clip-rule="evenodd"/>
</svg>
