<svg xmlns="http://www.w3.org/2000/svg" width="24" height="24" viewBox="0 0 24 24">
    <path fill="#65676A" fill-rule="evenodd" d="M13.96 2c.552 0 1 .447 1 1v18c0 .552-.448 1-1 1h-1c-.265 0-.52-.106-.707-.293l-4.708-4.708H2.96c-.513 0-.935-.385-.993-.883L1.96 16V8c0-.553.448-1 1-1l4.585-.001 4.708-4.707c.156-.156.359-.255.576-.284L12.96 2zm-1 2.413L8.667 8.707C8.48 8.894 8.225 9 7.96 9l-4-.001v6h4c.221 0 .435.074.608.207l.1.086 4.292 4.293V4.413zm7.1 1.294c3.408 3.407 3.474 8.89.2 12.38l-.2.206-1.414-1.414c2.633-2.633 2.693-6.866.18-9.572l-.18-.186 1.414-1.414zm-2.416 2.416c2.08 2.081 2.139 5.421.173 7.572l-.173.182-1.414-1.415c1.31-1.31 1.357-3.408.14-4.776l-.14-.148 1.414-1.415z"/>
</svg>
