<svg xmlns="http://www.w3.org/2000/svg" width="24" height="24" viewBox="0 0 24 24">
    <path fill="#65676A" fill-rule="evenodd" d="M20.359 14.104L19.359 12.372 17.002 13.733 14 12 17.002 10.268 19.359 11.629 20.359 9.897 19.002 9.113 21.16 7.867 20.16 6.134 18.001 7.38 18.001 5.813 16.001 5.813 16.001 8.536 13 10.268 13 6.802 15.358 5.442 14.358 3.709 13 4.494 13 2 11 2 11 4.494 9.642 3.709 8.642 5.442 11 6.802 11 10.268 7.999 8.536 7.999 5.813 5.999 5.813 5.999 7.38 3.839 6.134 2.839 7.867 4.999 9.113 3.641 9.897 4.641 11.629 6.998 10.268 10 12 6.998 13.733 4.641 12.372 3.641 14.104 4.999 14.888 2.839 16.134 3.839 17.867 5.999 16.62 5.999 18.188 7.999 18.188 7.999 15.465 11 13.733 11 17.199 8.642 18.559 9.642 20.291 11 19.507 11 22 13 22 13 19.507 14.358 20.291 15.358 18.559 13 17.199 13 13.733 16.001 15.465 16.001 18.188 18.001 18.188 18.001 16.62 20.16 17.867 21.16 16.134 19.002 14.888z"/>
</svg>
