<svg xmlns="http://www.w3.org/2000/svg" width="24" height="24" viewBox="0 0 24 24">
    <path fill="#65676A" fill-rule="evenodd" d="M12.922 17.007l-2.577 5.995-1.837-.789 2.237-5.206h2.177zM12.05 2.39c1.889 0 3.674.929 4.786 2.457h.086c3.352 0 6.079 2.727 6.079 6.08 0 3.226-2.527 5.866-5.705 6.061l-2.585 6.014-1.838-.789 2.237-5.206H8.558l-2.576 5.995-1.838-.789 2.237-5.206h-.362c-2.767 0-5.02-2.252-5.02-5.021v-.344c0-2.768 2.253-5.02 5.02-5.02h.363c.743-2.465 3.042-4.232 5.667-4.232zm0 2c-1.933 0-3.6 1.451-3.877 3.375l-.123.857h-2.03c-1.664 0-3.02 1.355-3.02 3.02v.344c0 1.666 1.356 3.021 3.02 3.021H16.92c2.249 0 4.079-1.83 4.079-4.08s-1.83-4.08-4.08-4.08h-1.198l-.29-.494c-.72-1.23-1.984-1.963-3.383-1.963z"/>
</svg>
