<svg xmlns="http://www.w3.org/2000/svg" width="24" height="24" viewBox="0 0 24 24">
    <path fill="#65676A" fill-rule="evenodd" d="M10 6.453c1.47 0 2.85.721 3.693 1.928l.458.656c1.113.263 2.116.91 2.818 1.835 2.778.018 5.03 2.282 5.03 5.064C22 18.73 19.73 21 16.938 21H8.216C5.892 21 4 19.108 4 16.784v-.276c0-1.497.79-2.807 1.97-3.555-.307-.618-.47-1.299-.47-2 0-2.48 2.019-4.5 4.5-4.5zm3.04 4.453c-1.448 0-2.696 1.087-2.904 2.53l-.123.856H8.216c-1.222 0-2.216.994-2.216 2.216v.276C6 18.006 6.994 19 8.216 19h8.72C18.627 19 20 17.625 20 15.936c0-1.69-1.374-3.064-3.063-3.064h-1.073l-.29-.495c-.54-.92-1.487-1.47-2.534-1.47zM10 8.453c-1.378 0-2.5 1.121-2.5 2.5 0 .491.145.962.414 1.37.102-.008.198-.03.302-.03h.144c.518-1.547 1.779-2.73 3.323-3.182-.457-.416-1.053-.658-1.683-.658zm-6 1.5v2H1.5v-2H4zm11.293-5.707l1.414 1.414-1.757 1.757-1.414-1.414 1.757-1.757zm-10.585 0l1.756 1.757-1.413 1.414L3.293 5.66l1.414-1.414zM11 2.453v2.5H9v-2.5h2z"/>
</svg>
