<svg xmlns="http://www.w3.org/2000/svg" width="24" height="24" viewBox="0 0 24 24">
    <path fill="#65676A" fill-rule="evenodd" d="M14.28 11.533c.215-.216.577-.002.491.291l-1.226 4.168 2.542.588c.225.053.305.331.142.495l-6.076 6.093c-.215.216-.576.002-.49-.29l1.225-4.169-2.542-.588c-.225-.053-.305-.33-.142-.495zM12.05 2.39c1.889 0 3.674.929 4.786 2.457h.086c3.352 0 6.079 2.727 6.079 6.08 0 3.352-2.727 6.08-6.08 6.08v-2c2.25 0 4.08-1.83 4.08-4.08s-1.83-4.08-4.08-4.08h-1.198l-.29-.494c-.72-1.23-1.984-1.963-3.383-1.963-1.932 0-3.6 1.451-3.877 3.375l-.123.857h-2.03C4.356 8.622 3 9.977 3 11.642v.344c0 1.666 1.356 3.021 3.02 3.021h1.985v2H6.02c-2.768 0-5.02-2.252-5.02-5.021v-.344c0-2.768 2.252-5.02 5.02-5.02h.363c.743-2.465 3.042-4.232 5.666-4.232z"/>
</svg>
