<svg width="24" height="24" viewBox="0 0 24 24" fill="none" xmlns="http://www.w3.org/2000/svg">
<g id="weather-snow">
<path id="Fill 3" fill-rule="evenodd" clip-rule="evenodd" d="M20.3591 14.1036L19.3591 12.3716L17.0021 13.7326L14.0001 11.9996L17.0021 10.2676L19.3591 11.6286L20.3591 9.89663L19.0021 9.11263L21.1601 7.86663L20.1601 6.13363L18.0011 7.37963V5.81263H16.0011V8.53563L13.0001 10.2676V6.80163L15.3581 5.44163L14.3581 3.70863L13.0001 4.49363V1.99963H11.0001V4.49363L9.64211 3.70863L8.64211 5.44163L11.0001 6.80163V10.2676L7.99911 8.53563V5.81263H5.99911V7.37963L3.83911 6.13363L2.83911 7.86663L4.99911 9.11263L3.64111 9.89663L4.64111 11.6286L6.99811 10.2676L10.0001 11.9996L6.99811 13.7326L4.64111 12.3716L3.64111 14.1036L4.99911 14.8876L2.83911 16.1336L3.83911 17.8666L5.99911 16.6196V18.1876H7.99911V15.4646L11.0001 13.7326V17.1986L8.64211 18.5586L9.64211 20.2906L11.0001 19.5066V21.9996H13.0001V19.5066L14.3581 20.2906L15.3581 18.5586L13.0001 17.1986V13.7326L16.0011 15.4646V18.1876H18.0011V16.6196L20.1601 17.8666L21.1601 16.1336L19.0021 14.8876L20.3591 14.1036Z" fill="#313234"/>
</g>
</svg>
