<svg xmlns="http://www.w3.org/2000/svg" width="24" height="24" viewBox="0 0 24 24">
    <path fill="#65676A" fill-rule="evenodd" d="M6.019 10.232C4.354 10.232 3 11.586 3 13.252v.344c0 1.665 1.354 3.021 3.019 3.021h10.902c2.249 0 4.079-1.83 4.079-4.08s-1.83-4.08-4.079-4.08h-1.199l-.289-.495C14.713 6.733 13.448 6 12.049 6 10.116 6 8.45 7.451 8.172 9.375l-.123.857h-2.03zm10.902 8.385H6.019C3.251 18.617 1 16.365 1 13.597v-.345c0-2.768 2.251-5.02 5.019-5.02h.363C7.125 5.767 9.424 4 12.049 4c1.889 0 3.674.928 4.785 2.457h.087c3.352 0 6.079 2.727 6.079 6.08 0 3.352-2.727 6.08-6.079 6.08z"/>
</svg>
