<svg xmlns="http://www.w3.org/2000/svg" width="24" height="24" viewBox="0 0 24 24">
    <path fill="#65676A" fill-rule="evenodd" d="M16.91 14.01c1.104 0 2 .896 2 2s-.896 2-2 2c-.74 0-1.386-.402-1.732-.999l-2.765-.001c-.473 2.699-2.829 4.75-5.663 4.75-3.176 0-5.75-2.574-5.75-5.75h2c0 2.071 1.679 3.75 3.75 3.75 2.07 0 3.75-1.68 3.75-3.75v-1h4.678c.346-.598.992-1 1.732-1zm-5.08-8.799c1.104 0 2 .895 2 2 0 .364-.097.705-.267 1l1.382 2.394c2.573-.94 5.528.075 6.944 2.53 1.588 2.75.646 6.266-2.104 7.855l-1-1.732c1.793-1.036 2.408-3.33 1.372-5.123-1.035-1.794-3.329-2.408-5.122-1.373l-.866.5-2.338-4.051c-1.055 0-1.919-.816-1.995-1.85l-.006-.15c0-1.105.896-2 2-2zm-4.98-.875c1.588-2.75 5.105-3.693 7.855-2.105l-1 1.732c-1.793-1.035-4.087-.42-5.123 1.373-1.035 1.793-.42 4.088 1.373 5.122l.866.5-2.338 4.053c.17.294.267.635.267.999 0 1.104-.896 2-2 2s-2-.896-2-2 .896-2 2-2l1.382-2.394c-2.1-1.76-2.699-4.825-1.282-7.28z"/>
</svg>
