<svg xmlns="http://www.w3.org/2000/svg" width="24" height="24" fill="none" viewBox="0 0 24 24">
    <path fill="#65676A" fill-rule="evenodd" d="M8.75 16.01c0-.364-.098-.706-.268-1l2.34-4.052-.867-.5C8.162 9.424 7.547 7.13 8.582 5.336c1.036-1.794 3.33-2.408 5.123-1.373l1-1.732C11.955.643 8.438 1.586 6.85 4.336c-1.417 2.455-.818 5.52 1.282 7.28L6.75 14.01c-1.104 0-2 .896-2 2s.896 2 2 2 2-.896 2-2zm3.08-10.799c1.104 0 2 .895 2 2 0 .364-.097.706-.268 1l1.383 2.394c2.573-.94 5.528.075 6.944 2.53 1.588 2.75.646 6.266-2.104 7.855l-1-1.732c1.793-1.036 2.408-3.33 1.372-5.123-1.035-1.794-3.329-2.408-5.122-1.373l-.866.5-2.338-4.05c-1.105 0-2-.897-2-2 0-1.106.895-2 2-2zm5.08 8.799c-.74 0-1.386.402-1.732 1H10.5v1c0 2.07-1.68 3.75-3.75 3.75-2.071 0-3.75-1.679-3.75-3.75H1c0 3.176 2.574 5.75 5.75 5.75 2.834 0 5.19-2.051 5.663-4.75h2.765c.345.598.992 1 1.732 1 1.104 0 2-.896 2-2s-.896-2-2-2z" clip-rule="evenodd"/>
</svg>
