<svg xmlns="http://www.w3.org/2000/svg" width="24" height="24" viewBox="0 0 24 24">
    <path fill="#65676A" fill-rule="evenodd" d="M3.868 1.747l3.804 3.804c1.387-.43 2.837-.677 4.331-.677 3.94 0 7.644 1.534 10.431 4.321l-2.122 2.121c-2.219-2.219-5.17-3.442-8.309-3.442-.627 0-1.243.06-1.85.158l2.138 2.139c2.332.066 4.642.974 6.417 2.749l-1.833 1.833 5.378 5.379-1.414 1.414L2.454 3.161l1.414-1.414zm5.348 15.091c1.54-1.539 4.036-1.539 5.575 0l-2.789 2.788zm-.57-6.071l2.45 2.45c-1.347.189-2.645.792-3.678 1.824l-2.12-2.121c.98-.98 2.126-1.693 3.347-2.153zM4.697 6.819l2.22 2.221c-1.178.567-2.272 1.323-3.224 2.276l-2.121-2.12c.943-.944 1.998-1.73 3.125-2.377z"/>
</svg>
