<svg xmlns="http://www.w3.org/2000/svg" width="24" height="24" viewBox="0 0 24 24">
    <path fill="#65676A" fill-rule="evenodd" d="M10.146 14.947v-5.99l4.909 2.995-4.909 2.995zm11.761-5.92c-.125-1.941-1.629-3.509-3.562-3.715C16.34 5.109 14.209 5 12 5c-2.209 0-4.34.109-6.345.311-1.933.207-3.437 1.775-3.562 3.716C2.032 9.983 2 10.96 2 11.952c0 .992.032 1.969.093 2.925.125 1.941 1.629 3.509 3.562 3.715 2.005.203 4.136.312 6.345.312 2.209 0 4.34-.109 6.345-.311 1.933-.207 3.437-1.775 3.562-3.716.061-.956.093-1.933.093-2.925 0-.992-.032-1.969-.093-2.925z"/>
</svg>
