<svg xmlns="http://www.w3.org/2000/svg" width="24" height="24" viewBox="0 0 24 24">
    <path fill="#65676A" fill-rule="evenodd" d="M20.516 3.013c.269 0 .487.218.487.486v17.027c0 .27-.218.487-.487.487H3.49c-.269 0-.487-.218-.487-.487V3.5c0-.268.218-.486.487-.486zm-5.355 9.557h-1.012c-.058 0-.105.047-.105.105v5.074c0 .058.047.105.105.105h1.012c.058 0 .105-.047.105-.105v-5.074c0-.058-.047-.105-.105-.105zm-6.726.014H7.263c-.084 0-.135.092-.092.163l2.066 3.4c.021.032.031.071.031.11v1.49c0 .06.048.107.107.107h1.018c.059 0 .107-.048.107-.108v-1.489c0-.039.011-.078.031-.11l2.066-3.4c.043-.07-.008-.163-.091-.163h-1.173c-.041 0-.08.022-.102.058L9.926 14.88c-.019.032-.064.032-.083 0l-1.306-2.237c-.022-.036-.06-.058-.102-.058zm6.22-6.29c-1.552 0-2.81 1.257-2.81 2.81 0 1.551 1.258 2.81 2.81 2.81s2.81-1.259 2.81-2.81c0-1.553-1.258-2.81-2.81-2.81zm-2.995.175H7.353c-.059 0-.107.048-.107.107v.86c0 .06.048.107.107.107h2.89c.013 0 .018.014.01.023l-3.068 3.118c-.02.02-.032.047-.032.075v.88c0 .06.048.107.107.107h4.479c.059 0 .107-.048.107-.107v-.854c0-.059-.048-.107-.107-.107h-3.05c-.012 0-.017-.015-.009-.023l3.055-3.117c.021-.02.033-.048.033-.077v-.885c0-.059-.049-.107-.108-.107zm2.995.958c.925 0 1.676.75 1.676 1.676 0 .925-.751 1.676-1.676 1.676-.925 0-1.676-.75-1.676-1.676 0-.926.751-1.676 1.676-1.676z"/>
</svg>
