<svg width="194" height="38" viewBox="0 0 194 38" fill="none" xmlns="http://www.w3.org/2000/svg">
<g id="ch-logo-en">
<path id="Union" fill-rule="evenodd" clip-rule="evenodd" d="M73.8208 14.98C73.0386 14.5401 72.1342 14.3201 71.1321 14.3201C70.2591 14.3201 69.4525 14.4842 68.7332 14.8124C68.143 15.0813 67.6472 15.4375 67.2456 15.874V10.3533C67.2456 10.2451 67.1583 10.1543 67.0466 10.1543H63.8865C63.7782 10.1543 63.6874 10.2416 63.6874 10.3533V27.5507C63.6874 27.659 63.7747 27.7498 63.8865 27.7498H67.0466C67.1548 27.7498 67.2456 27.6625 67.2456 27.5507V20.4483C67.2456 19.4601 67.497 18.6954 67.9929 18.1681C68.4852 17.6478 69.1731 17.3824 70.0321 17.3824C70.8911 17.3824 71.5511 17.6478 72.0365 18.1681C72.5253 18.6919 72.7698 19.4601 72.7698 20.4483V27.5507C72.7698 27.659 72.8571 27.7498 72.9688 27.7498H76.1289C76.2372 27.7498 76.328 27.6625 76.328 27.5507V20.0048C76.328 18.8176 76.108 17.784 75.668 16.9355C75.228 16.08 74.6065 15.4235 73.8208 14.9835V14.98ZM61.5537 16.4918C61.6899 16.4918 61.7911 16.3556 61.7423 16.2264C61.1696 14.6586 60.1604 13.2514 58.844 12.354C57.4542 11.4077 55.8131 10.9258 53.9694 10.9258C52.391 10.9258 50.9489 11.2889 49.6779 12.0083C48.4068 12.7276 47.3872 13.7437 46.6539 15.0322C45.9206 16.3207 45.547 17.7943 45.547 19.418C45.547 21.0417 45.9206 22.5153 46.6539 23.7933C47.3872 25.0748 48.4068 26.0874 49.6779 26.8033C50.9489 27.5226 52.391 27.8857 53.9694 27.8857C55.8305 27.8857 57.4752 27.4074 58.8545 26.4681C60.1674 25.5776 61.1696 24.1669 61.7423 22.5816C61.7876 22.4524 61.6899 22.3162 61.5537 22.3162H57.9082C57.8349 22.3162 57.7685 22.3581 57.7336 22.4245C57.3739 23.1298 56.8432 23.7374 56.2251 24.1006C55.5721 24.4847 54.8039 24.6767 53.9449 24.6767C53.0231 24.6767 52.192 24.4602 51.4797 24.0307C50.7638 23.6012 50.2016 22.9832 49.8001 22.1905C49.3985 21.3944 49.196 20.462 49.196 19.411C49.196 18.36 49.3985 17.4067 49.8001 16.621C50.1982 15.8388 50.7638 15.2243 51.4797 14.7948C52.1955 14.3653 53.0266 14.1488 53.9449 14.1488C54.8039 14.1488 55.5721 14.3373 56.2251 14.7144C56.8432 15.0706 57.3704 15.6747 57.7301 16.3801C57.765 16.4464 57.8314 16.4883 57.9047 16.4883H61.5502L61.5537 16.4918ZM86.709 14.8967C87.3166 15.225 87.8334 15.6265 88.2454 16.0979V16.0944V14.7012C88.2454 14.5894 88.3362 14.5021 88.4444 14.5021H91.6255C91.7373 14.5021 91.8246 14.5929 91.8246 14.7012V27.5477C91.8246 27.6595 91.7338 27.7468 91.6255 27.7468H88.4444C88.3327 27.7468 88.2454 27.656 88.2454 27.5477V26.1231C87.8438 26.6014 87.327 27.01 86.709 27.3417C85.9512 27.7503 85.0643 27.9563 84.0796 27.9563C82.9692 27.9563 81.9391 27.6665 81.0242 27.0938C80.1094 26.5211 79.3761 25.704 78.8453 24.6635C78.3145 23.6299 78.0457 22.4077 78.0457 21.0808C78.0457 19.7539 78.3145 18.5597 78.8453 17.5296C79.3761 16.496 80.1094 15.6929 81.0242 15.1342C81.9391 14.579 82.9762 14.2961 84.104 14.2961C85.0888 14.2961 85.9652 14.4987 86.709 14.8967ZM83.3323 17.8788C82.84 18.1616 82.4384 18.5806 82.1311 19.1254C81.8239 19.6701 81.6702 20.3266 81.6702 21.0808C81.6702 21.835 81.8239 22.4985 82.1311 23.0607C82.4349 23.6194 82.8435 24.0559 83.3428 24.3527C84.352 24.9568 85.5846 24.9358 86.5833 24.3632C87.0896 24.0733 87.4981 23.6508 87.7949 23.1061C88.0952 22.5614 88.2454 21.8944 88.2454 21.1262C88.2454 20.358 88.0952 19.691 87.7949 19.1463C87.4946 18.6016 87.0861 18.1791 86.5833 17.8892C86.077 17.5994 85.5252 17.4528 84.9456 17.4528C84.3659 17.4528 83.8247 17.5959 83.3323 17.8788ZM105.374 15.8224C104.4 14.8237 103.108 14.3174 101.529 14.3174C100.702 14.3174 99.93 14.485 99.2351 14.8097C98.6625 15.0786 98.1666 15.4383 97.7616 15.8782V14.7015C97.7616 14.5932 97.6743 14.5025 97.5625 14.5025H94.4024C94.2942 14.5025 94.2034 14.5897 94.2034 14.7015V27.548C94.2034 27.6563 94.2907 27.7471 94.4024 27.7471H97.5625C97.6708 27.7471 97.7616 27.6598 97.7616 27.548V20.4456C97.7616 19.4574 98.013 18.6927 98.5088 18.1654C99.0012 17.6451 99.6891 17.3797 100.548 17.3797C101.407 17.3797 102.067 17.6451 102.552 18.1654C103.041 18.6892 103.286 19.4574 103.286 20.4456V27.548C103.286 27.6563 103.373 27.7471 103.485 27.7471H106.645C106.753 27.7471 106.844 27.6598 106.844 27.548V20.0021C106.844 18.2248 106.352 16.821 105.377 15.8224H105.374ZM116.523 14.3174C118.101 14.3174 119.393 14.8237 120.367 15.8224H120.371C121.345 16.821 121.838 18.2248 121.838 20.0021V27.548C121.838 27.6598 121.747 27.7471 121.639 27.7471H118.478C118.367 27.7471 118.279 27.6563 118.279 27.548V20.4456C118.279 19.4574 118.035 18.6892 117.546 18.1654C117.061 17.6451 116.401 17.3797 115.542 17.3797C114.683 17.3797 113.995 17.6451 113.502 18.1654C113.007 18.6927 112.755 19.4574 112.755 20.4456V27.548C112.755 27.6598 112.664 27.7471 112.556 27.7471H109.396C109.284 27.7471 109.197 27.6563 109.197 27.548V14.7015C109.197 14.5897 109.288 14.5025 109.396 14.5025H112.556C112.668 14.5025 112.755 14.5932 112.755 14.7015V15.8782C113.16 15.4383 113.656 15.0786 114.229 14.8097C114.924 14.485 115.695 14.3174 116.523 14.3174ZM136.749 22.2474C136.847 22.2474 136.931 22.1776 136.945 22.0798C136.997 21.7167 137.035 21.2523 137.035 20.8437C137.035 19.5622 136.76 18.4099 136.211 17.4182C135.663 16.423 134.881 15.6478 133.886 15.1066C132.894 14.5688 131.759 14.293 130.509 14.293C129.259 14.293 128.047 14.5758 127.049 15.131C126.047 15.6862 125.257 16.4928 124.702 17.5264C124.147 18.5565 123.868 19.7682 123.868 21.1265C123.868 22.4849 124.154 23.6721 124.716 24.7022C125.278 25.7358 126.078 26.5459 127.087 27.1081C128.093 27.6703 129.245 27.9566 130.513 27.9566C132.08 27.9566 133.425 27.5411 134.504 26.724C135.509 25.9628 136.267 24.8349 136.676 23.6546C136.721 23.5289 136.62 23.3963 136.487 23.3963H133.072C132.999 23.3963 132.933 23.4382 132.901 23.501C132.402 24.4368 131.574 24.9641 130.446 24.9641C129.643 24.9641 128.959 24.7092 128.411 24.2064C127.894 23.7315 127.583 23.075 127.489 22.2509H136.756L136.749 22.2474ZM130.418 17.2645C131.239 17.2645 131.937 17.509 132.503 17.9909C133.034 18.4448 133.317 19.0279 133.362 19.7682H127.517C127.653 19.007 127.971 18.4029 128.463 17.9664C128.987 17.502 129.647 17.2645 130.418 17.2645ZM139.383 10.1543H142.539C142.649 10.1543 142.738 10.2434 142.738 10.3533V27.5473C142.738 27.6572 142.649 27.7463 142.539 27.7463H139.383C139.273 27.7463 139.184 27.6572 139.184 27.5473V10.3533C139.184 10.2434 139.273 10.1543 139.383 10.1543ZM159.581 11.1358H147.719C147.611 11.1358 147.52 11.2231 147.52 11.3348V13.863C147.52 13.9712 147.607 14.062 147.719 14.062H151.874V27.5511C151.874 27.6593 151.962 27.7501 152.073 27.7501H155.233C155.342 27.7501 155.432 27.6628 155.432 27.5511V14.062H159.584C159.692 14.062 159.783 13.9747 159.783 13.863V11.3348C159.783 11.2266 159.696 11.1358 159.584 11.1358H159.581ZM169.011 16.0939C168.599 15.6243 168.084 15.224 167.478 14.8967C166.734 14.4987 165.858 14.2961 164.873 14.2961C163.745 14.2961 162.708 14.579 161.793 15.1342C160.878 15.6929 160.145 16.496 159.611 17.5296C159.08 18.5597 158.811 19.7539 158.811 21.0808C158.811 22.4077 159.08 23.6299 159.611 24.6635C160.142 25.704 160.875 26.5211 161.79 27.0938C162.705 27.6665 163.735 27.9563 164.845 27.9563C165.83 27.9563 166.717 27.7503 167.474 27.3417C168.093 27.01 168.609 26.6014 169.011 26.1231V27.5477C169.011 27.656 169.098 27.7468 169.21 27.7468H172.391C172.499 27.7468 172.59 27.6595 172.59 27.5477V14.7012C172.59 14.5929 172.503 14.5021 172.391 14.5021H169.21C169.102 14.5021 169.011 14.5894 169.011 14.7012V16.0939ZM164.101 17.8788C163.609 18.1616 163.204 18.5806 162.9 19.1254C162.593 19.6701 162.439 20.3266 162.439 21.0808C162.439 21.835 162.593 22.4985 162.9 23.0607C163.204 23.6194 163.612 24.0559 164.112 24.3527C165.121 24.9568 166.354 24.9358 167.352 24.3632C167.859 24.0733 168.267 23.6508 168.564 23.1061C168.864 22.5614 169.014 21.8944 169.014 21.1262C169.014 20.358 168.864 19.691 168.564 19.1463C168.264 18.6016 167.859 18.1791 167.352 17.8892C166.846 17.5994 166.294 17.4528 165.715 17.4528C165.135 17.4528 164.594 17.5959 164.101 17.8788ZM178.476 10.1543H175.319C175.209 10.1543 175.12 10.2434 175.12 10.3533V27.5473C175.12 27.6572 175.209 27.7463 175.319 27.7463H178.476C178.586 27.7463 178.675 27.6572 178.675 27.5473V10.3533C178.675 10.2434 178.586 10.1543 178.476 10.1543ZM193.316 14.8334L187.774 21.1467L187.77 21.1502L193.357 27.4181C193.473 27.5438 193.382 27.7463 193.211 27.7463H189.111C189.052 27.7463 188.996 27.7218 188.958 27.673L184.827 22.4875V27.5507C184.827 27.6625 184.736 27.7498 184.628 27.7498H181.468C181.356 27.7498 181.269 27.659 181.269 27.5507V10.3533C181.269 10.2416 181.359 10.1543 181.468 10.1543H184.628C184.74 10.1543 184.827 10.2451 184.827 10.3533V19.7429L188.912 14.582C188.947 14.5331 189.007 14.5052 189.066 14.5052H193.165C193.336 14.5052 193.427 14.7042 193.316 14.8334Z" fill="black"/>
<g id="Group 4">
<path id="Rectangle 5261" d="M-0.000366211 13.7821C-0.000366211 6.18718 6.15652 0.0302734 13.7514 0.0302734H24.2181C31.813 0.0302734 37.9699 6.18716 37.9699 13.7821V24.2487C37.9699 31.8436 31.813 38.0005 24.2181 38.0005H13.7514C6.15654 38.0005 -0.000366211 31.8436 -0.000366211 24.2487V13.7821Z" fill="#572DFF"/>
<path id="Vector" d="M29.484 23.382C30.0532 22.0271 30.3675 20.5431 30.3675 18.9822C30.3675 12.7144 25.2554 7.5918 18.9875 7.5918C12.6952 7.5918 7.59356 12.6899 7.59705 18.9822C7.59705 25.2501 12.7196 30.3657 18.9875 30.3657C20.5484 30.3657 22.0324 30.0514 23.3872 29.4823C24.2288 29.1296 25.1646 29.0667 26.0515 29.2867L28.5273 29.9048C29.3618 30.1143 30.1161 29.3566 29.9066 28.5255L29.2885 26.0498C29.0685 25.1628 29.1314 24.227 29.484 23.3855V23.382Z" fill="white"/>
<path id="Vector_2" d="M18.9776 25.3061C21.8653 25.3061 24.3795 23.6929 25.661 21.3149C25.8041 21.0495 25.7099 20.7178 25.448 20.5607L23.4087 19.3385C23.1224 19.1674 22.7558 19.2827 22.6021 19.5795C21.9247 20.8959 20.5559 21.7968 18.9741 21.7968C17.3923 21.7968 16.0234 20.8959 15.346 19.5795C15.1924 19.2827 14.8292 19.1674 14.5394 19.3385L12.5002 20.5607C12.2418 20.7178 12.144 21.0495 12.2872 21.3149C13.5687 23.6894 16.0828 25.3061 18.9706 25.3061H18.9776Z" fill="#572DFF"/>
</g>
</g>
</svg>
