<svg width="24" height="24" viewBox="0 0 24 24" fill="none" xmlns="http://www.w3.org/2000/svg">
<path fill-rule="evenodd" clip-rule="evenodd" d="M19.2929 3.29289C19.6834 2.90237 20.3166 2.90237 20.7071 3.29289C21.0976 3.68342 21.0976 4.31658 20.7071 4.70711L16.4142 9H20C20.5523 9 21 9.44772 21 10C21 10.5523 20.5523 11 20 11H14C13.4477 11 13 10.5523 13 10V4C13 3.44772 13.4477 3 14 3C14.5523 3 15 3.44772 15 4V7.58579L19.2929 3.29289ZM11.3492 9.82288C11.3492 11.3969 10.0742 12.6729 8.50021 12.6729C6.92621 12.6729 5.65021 11.3969 5.65021 9.82288C5.65021 8.24988 6.92621 6.97388 8.50021 6.97388C10.0742 6.97388 11.3492 8.24988 11.3492 9.82288ZM2.00021 19.5729C2.22021 16.1749 5.04621 13.4869 8.50021 13.4869C11.9542 13.4869 14.7792 16.1749 14.9992 19.5729C15.0142 19.8049 14.8192 19.9999 14.5872 19.9999H2.41321C2.18121 19.9999 1.98621 19.8049 2.00021 19.5729Z" fill="#313234"/>
</svg>
