<svg width="24" height="24" viewBox="0 0 24 24" fill="none" xmlns="http://www.w3.org/2000/svg">
<path fill-rule="evenodd" clip-rule="evenodd" d="M18.1051 15H7.89509L7.11709 8H10.0001V6H6.89509L6.61109 3.444C6.58309 3.191 6.36909 3 6.11409 3H3.00009C2.44781 3 2.00009 3.44772 2.00009 4C2.00009 4.55228 2.44781 5 3.00009 5H4.77209L6.05509 16.555C6.08409 16.809 6.29709 17 6.55209 17H19.4471C19.7021 17 19.9161 16.809 19.9441 16.555L20.4501 12H18.4381L18.1051 15ZM5.99969 20C5.99969 18.899 6.89969 18 7.99969 18C9.09969 18 9.99969 18.899 9.99969 20C9.99969 21.1 9.09969 22 7.99969 22C6.89969 22 5.99969 21.1 5.99969 20ZM15.9997 20C15.9997 18.899 16.8997 18 17.9997 18C19.0997 18 19.9997 18.899 19.9997 20C19.9997 21.1 19.0997 22 17.9997 22C16.8997 22 15.9997 21.1 15.9997 20ZM16.3009 11.5986C16.1109 11.7706 15.8259 11.7706 15.6359 11.5986C14.5439 10.6126 12.7459 8.9346 11.6849 7.6596C10.6989 6.4746 10.7239 4.8366 11.8009 3.7606C12.0039 3.5576 12.2709 3.3946 12.5589 3.2636C13.7549 2.7236 15.3199 3.1176 15.9689 4.3426C16.6169 3.1176 18.1819 2.7236 19.3779 3.2636C19.6659 3.3946 19.9329 3.5576 20.1359 3.7606C21.2129 4.8366 21.2379 6.4746 20.2529 7.6596C19.1909 8.9346 17.3929 10.6126 16.3009 11.5986Z" fill="#313234"/>
</svg>
