<svg width="24" height="24" viewBox="0 0 24 24" fill="none" xmlns="http://www.w3.org/2000/svg">
<path fill-rule="evenodd" clip-rule="evenodd" d="M14 13V6C14 4.89543 13.1046 4 12 4C10.8954 4 10 4.89543 10 6V13C10 14.1046 10.8954 15 12 15C13.1046 15 14 14.1046 14 13ZM12 2C9.79086 2 8 3.79086 8 6V13C8 15.2091 9.79086 17 12 17C14.2091 17 16 15.2091 16 13V6C16 3.79086 14.2091 2 12 2ZM11 20.9381C7.05369 20.446 4 17.0796 4 13H6C6 16.3137 8.68629 19 12 19C15.3137 19 18 16.3137 18 13H20C20 17.0796 16.9463 20.446 13 20.9381V23H11V20.9381Z" fill="#313234"/>
</svg>
