<svg width="24" height="24" viewBox="0 0 24 24" fill="none" xmlns="http://www.w3.org/2000/svg">
<path d="M18.7929 13L16.379 15.4139C15.9885 15.8044 15.9885 16.4376 16.379 16.8281C16.7695 17.2186 17.4027 17.2186 17.7932 16.8281L21.5611 13.0602C22.1466 12.4747 22.1466 11.5245 21.5611 10.939L17.7932 7.1711C17.4027 6.78057 16.7695 6.78057 16.379 7.1711C15.9885 7.56162 15.9885 8.19479 16.379 8.58531L18.7937 11H9.00009C8.44781 11 8.00009 11.4477 8.00009 12C8.00009 12.5523 8.44781 13 9.00009 13H18.7929Z" fill="#313234"/>
<path d="M2 6C2 3.79086 3.79086 2 6 2H11C11.5523 2 12 2.44772 12 3C12 3.55228 11.5523 4 11 4H6C4.89543 4 4 4.89543 4 6V18C4 19.1046 4.89543 20 6 20H11C11.5523 20 12 20.4477 12 21C12 21.5523 11.5523 22 11 22H6C3.79086 22 2 20.2091 2 18V6Z" fill="#313234"/>
</svg>
