<svg width="24" height="24" viewBox="0 0 24 24" fill="none" xmlns="http://www.w3.org/2000/svg">
<path d="M14.6715 10.5357C14.281 10.1453 14.281 9.51218 14.6715 9.12172L15.7935 7.99972H4.00049V14.9997C4.00049 15.552 3.55277 15.9997 3.00049 15.9997C2.4482 15.9997 2.00049 15.552 2.00049 14.9997V6.99972C2.00049 6.44772 2.44749 5.99972 3.00049 5.99972H15.7935L14.6718 4.87862C14.2812 4.48824 14.2811 3.85511 14.6716 3.46462C15.062 3.07421 15.695 3.07421 16.0854 3.46462L18.5605 5.93972C19.1455 6.52472 19.1455 7.47572 18.5605 8.06072L16.0855 10.5357C15.695 10.9262 15.062 10.9262 14.6715 10.5357Z" fill="#313234"/>
<path d="M20.0002 9.00012C20.0002 8.44784 20.4479 8.00012 21.0002 8.00012C21.5525 8.00012 22.0002 8.44784 22.0002 9.00012V17.0001C22.0002 17.5521 21.5522 18.0001 21.0002 18.0001H8.20718L9.32847 19.122C9.7188 19.5126 9.71872 20.1456 9.32827 20.536C8.93776 20.9265 8.3046 20.9265 7.91408 20.536L5.43918 18.0611C4.85418 17.4761 4.85418 16.5241 5.43918 15.9391L7.91408 13.4642C8.3046 13.0737 8.93776 13.0737 9.32827 13.4642C9.71872 13.8547 9.7188 14.4877 9.32847 14.8782L8.20718 16.0001H20.0002V9.00012Z" fill="#313234"/>
</svg>
