<svg xmlns="http://www.w3.org/2000/svg" width="24" height="24" fill="none" viewBox="0 0 24 24"><path fill="#313234" d="M2.707 2.707a1 1 0 0 1 1.414 0l1.331 1.331Q5.722 4.001 6 4h12a4 4 0 0 1 4 4v8c0 1.254-.58 2.37-1.482 3.104l.574.574a1 1 0 1 1-1.414 1.414L2.707 4.122a1 1 0 0 1 0-1.415m4.55 7.451L6.01 16.402A.5.5 0 0 0 6.5 17h.98a.5.5 0 0 0 .49-.402L8.29 15h3.2l.32 1.598a.5.5 0 0 0 .49.402h.98c.226 0 .41-.149.474-.347L17.1 20H6a4 4 0 0 1-4-4V8c0-.875.281-1.683.758-2.342zm7.634 3.319 2 2V7h-2zM10.1 13H8.69l.235-1.175zm2.658-1.656-.787-3.942A.5.5 0 0 0 11.48 7H8.414z"/></svg>