<svg xmlns="http://www.w3.org/2000/svg" width="24" height="24" fill="none" viewBox="0 0 24 24"><path fill="#313234" fill-rule="evenodd" d="M2.707 2.707a1 1 0 0 0 0 1.414l16.97 16.97a1 1 0 0 0 1.415-1.413l-.572-.572A4 4 0 0 0 22 16V8a4 4 0 0 0-4-4H6q-.28 0-.548.037l-1.33-1.33a1 1 0 0 0-1.415 0M8.414 7l4.345 4.345-.788-3.943A.5.5 0 0 0 11.48 7H8.413m6.476 6.476 2 2V7h-2zM2 8c0-.875.28-1.684.757-2.343L7.26 10.16l-1.25 6.243A.5.5 0 0 0 6.5 17h.98a.5.5 0 0 0 .49-.402L8.29 15h3.2l.32 1.598a.5.5 0 0 0 .49.402h.98a.5.5 0 0 0 .476-.344L17.1 20H6a4 4 0 0 1-4-4zm6.69 5 .235-1.175L10.1 13z" clip-rule="evenodd" style="fill:#313234;fill:color(display-p3 .1922 .1961 .2039);fill-opacity:1"/></svg>