<svg xmlns="http://www.w3.org/2000/svg" width="24" height="24" fill="none" viewBox="0 0 24 24"><path fill="#313234" fill-rule="evenodd" d="M6 4a4 4 0 0 0-4 4v8a4 4 0 0 0 4 4h12a4 4 0 0 0 4-4V8a4 4 0 0 0-4-4zm2.3 3a.5.5 0 0 0-.49.402l-1.8 9A.5.5 0 0 0 6.5 17h.98a.5.5 0 0 0 .49-.402L8.29 15h3.2l.32 1.598a.5.5 0 0 0 .49.402h.98a.5.5 0 0 0 .49-.598l-1.8-9A.5.5 0 0 0 11.48 7H8.3m1.19 2-.8 4h2.4l-.8-4zm5.4-1.2c0-.28 0-.42.055-.527a.5.5 0 0 1 .218-.218C15.27 7 15.41 7 15.69 7h.4c.28 0 .42 0 .527.055a.5.5 0 0 1 .219.218c.054.107.054.247.054.527v8.4c0 .28 0 .42-.054.527a.5.5 0 0 1-.219.219C16.51 17 16.37 17 16.09 17h-.4c-.28 0-.42 0-.527-.054a.5.5 0 0 1-.218-.219c-.055-.107-.055-.247-.055-.527z" clip-rule="evenodd"/></svg>