<svg xmlns="http://www.w3.org/2000/svg" width="24" height="24" fill="none" viewBox="0 0 24 24"><path fill="#313234" d="M18 4a4 4 0 0 1 4 4v8a4 4 0 0 1-4 4H6a4 4 0 0 1-4-4V8a4 4 0 0 1 4-4zM8.3 7a.5.5 0 0 0-.49.402l-1.8 9A.5.5 0 0 0 6.5 17h.98a.5.5 0 0 0 .49-.402L8.29 15h3.2l.32 1.598a.5.5 0 0 0 .49.402h.98a.5.5 0 0 0 .49-.598l-1.8-9A.5.5 0 0 0 11.48 7zm7.39 0c-.28 0-.42 0-.527.055a.5.5 0 0 0-.219.218c-.054.107-.053.247-.053.527v8.4c0 .28-.001.42.053.527a.5.5 0 0 0 .22.218c.106.055.246.055.526.055h.4c.28 0 .42 0 .527-.055a.5.5 0 0 0 .219-.218c.054-.106.055-.247.055-.527V7.8c0-.28 0-.42-.055-.527a.5.5 0 0 0-.219-.218C16.51 7 16.37 7 16.09 7zm-5.4 2 .8 4h-2.4l.8-4z"/></svg>