<svg xmlns="http://www.w3.org/2000/svg" width="24" height="24" fill="none" viewBox="0 0 24 24"><path fill="#313234" d="M12 14.628c.59 0 1.118.307 1.415.82l.001.004 1.171 2.043.003.005a3.04 3.04 0 0 1-.439 3.57c-.568.6-1.333.93-2.156.93-.822 0-1.588-.33-2.156-.929a3.04 3.04 0 0 1-.429-3.57l.008-.013 1.166-2.035.002-.005c.296-.513.824-.82 1.414-.82M18.022 12.49c1.309.006 2.479.89 2.85 2.168q.123.423.123.85c0 .52-.135 1.032-.4 1.495a2.96 2.96 0 0 1-1.877 1.417 2.99 2.99 0 0 1-3.284-1.41l-.008-.014-1.166-2.034-.003-.005a1.64 1.64 0 0 1 .002-1.643 1.62 1.62 0 0 1 1.41-.824zM5.992 12.491H8.33c.59.002 1.116.31 1.41.823.296.515.296 1.128.003 1.643l-.003.005-1.17 2.042-.004.007a2.99 2.99 0 0 1-3.287 1.4 2.96 2.96 0 0 1-1.877-1.415 3 3 0 0 1-.28-2.346 3 3 0 0 1 2.857-2.16zM5.282 5.58a2.99 2.99 0 0 1 3.283 1.408l.009.016L9.74 9.04l.003.005c.146.257.22.536.22.819s-.075.566-.223.823a1.62 1.62 0 0 1-1.41.824H5.978a3 3 0 0 1-2.85-2.168 3 3 0 0 1 .278-2.345A2.96 2.96 0 0 1 5.282 5.58M15.431 6.993a2.99 2.99 0 0 1 3.29-1.405c.8.196 1.466.699 1.877 1.416a3 3 0 0 1 .28 2.346 3 3 0 0 1-2.857 2.16l-.013-.001H15.67a1.62 1.62 0 0 1-1.41-.823 1.64 1.64 0 0 1-.003-1.645l.002-.003 1.17-2.042zM12.004 2c.822 0 1.588.33 2.156.929.541.57.823 1.323.823 2.08 0 .514-.13 1.03-.395 1.494l-.006.01-1.166 2.035-.002.003A1.62 1.62 0 0 1 12 9.37c-.59 0-1.118-.306-1.414-.818l-.003-.005-1.17-2.043L9.41 6.5a3.04 3.04 0 0 1 .438-3.57c.568-.6 1.333-.93 2.156-.93"/></svg>