<svg xmlns="http://www.w3.org/2000/svg" width="24" height="24" fill="none" viewBox="0 0 24 24"><path fill="#313234" fill-rule="evenodd" d="M2.436 6.184C2 7.04 2 8.16 2 10.4v3.2c0 2.24 0 3.36.436 4.216a4 4 0 0 0 1.748 1.748C5.04 20 6.16 20 8.4 20h7.2c2.24 0 3.36 0 4.216-.436a4 4 0 0 0 1.748-1.748C22 16.96 22 15.84 22 13.6v-3.2c0-2.24 0-3.36-.436-4.216a4 4 0 0 0-1.748-1.748C18.96 4 17.84 4 15.6 4H8.4c-2.24 0-3.36 0-4.216.436a4 4 0 0 0-1.748 1.748m3.173 1.673a.444.444 0 0 1 .436-.357h1.938c.211 0 .394.15.435.357l1.6 8a.444.444 0 0 1-.435.532H8.71a.444.444 0 0 1-.436-.357l-.284-1.42H6.036l-.284 1.42a.444.444 0 0 1-.436.357h-.871a.444.444 0 0 1-.436-.532zm2.027 4.976-.622-3.11-.623 3.11zm3.426-5.09c-.048.095-.048.22-.048.468v7.467c0 .249 0 .373.048.468.043.084.11.152.194.195.095.048.22.048.469.048h.355c.139 0 .238 0 .316-.008.078.008.177.008.315.008h1.245c.248 0 .373 0 .468-.049a.44.44 0 0 0 .194-.194c.049-.095.049-.22.049-.468v-.356c0-.249 0-.373-.049-.468a.44.44 0 0 0-.194-.194c-.095-.049-.22-.049-.468-.049H12.79v-6.4c0-.249 0-.373-.048-.468a.44.44 0 0 0-.194-.194c-.095-.049-.22-.049-.469-.049h-.355c-.25 0-.374 0-.469.049a.44.44 0 0 0-.194.194m4.542 0c-.048.095-.048.22-.048.468v7.467c0 .249 0 .373.048.468.043.084.11.152.194.195.095.048.22.048.469.048h.355c.25 0 .374 0 .469-.048a.45.45 0 0 0 .194-.195c.048-.095.048-.22.048-.468v-2.845h1.165c.248 0 .373 0 .468-.048a.44.44 0 0 0 .194-.194c.049-.095.049-.22.049-.469v-.355c0-.25 0-.374-.049-.469a.44.44 0 0 0-.194-.194c-.095-.048-.22-.048-.469-.048h-1.164V9.278h1.956c.249 0 .373 0 .468-.049a.45.45 0 0 0 .195-.194C20 8.94 20 8.815 20 8.567V8.21c0-.249 0-.373-.048-.468a.45.45 0 0 0-.195-.195c-.095-.048-.22-.048-.468-.048h-2.133c-.112 0-.198 0-.268.004-.07-.004-.155-.004-.266-.004h-.355c-.25 0-.374 0-.469.049a.44.44 0 0 0-.194.194" clip-rule="evenodd"/></svg>