<svg xmlns="http://www.w3.org/2000/svg" width="24" height="24" fill="none" viewBox="0 0 24 24"><path fill="#313234" d="M15.6 4c2.24 0 3.36 0 4.216.436a4 4 0 0 1 1.749 1.748C22 7.039 22 8.16 22 10.4v3.2c0 2.24 0 3.36-.436 4.216a4 4 0 0 1-1.748 1.749C18.961 20 17.84 20 15.6 20H8.4c-2.24 0-3.36 0-4.216-.436a4 4 0 0 1-1.748-1.748C2 16.961 2 15.84 2 13.6v-3.2c0-2.24 0-3.36.436-4.216a4 4 0 0 1 1.748-1.748C5.039 4 6.16 4 8.4 4zM6.045 7.5a.445.445 0 0 0-.437.357l-1.6 8a.444.444 0 0 0 .436.532h.871c.212 0 .395-.15.437-.358l.284-1.42h1.955l.284 1.42a.445.445 0 0 0 .436.358h.872c.28 0 .49-.257.436-.532l-1.601-8a.444.444 0 0 0-.436-.357zm5.68 0c-.25 0-.374 0-.47.049a.45.45 0 0 0-.194.194c-.048.095-.047.22-.047.468v7.467c0 .249 0 .373.048.468.042.084.11.152.194.195.095.048.22.048.469.048h.355c.138 0 .239 0 .316-.008.078.008.177.008.315.008h1.244c.249 0 .374 0 .469-.048a.45.45 0 0 0 .194-.195c.049-.095.049-.22.049-.468v-.356c0-.249 0-.373-.049-.468a.45.45 0 0 0-.194-.195c-.095-.048-.22-.048-.469-.048h-1.164v-6.4c0-.248 0-.373-.048-.468a.45.45 0 0 0-.194-.194c-.095-.049-.22-.049-.469-.049zm4.542 0c-.25 0-.374 0-.47.049a.45.45 0 0 0-.194.194c-.048.095-.047.22-.047.468v7.467c0 .249 0 .373.048.468.042.084.11.152.194.195.095.048.22.048.469.048h.355c.249 0 .374 0 .469-.048a.45.45 0 0 0 .194-.195c.049-.095.048-.22.048-.468v-2.845h1.164c.249 0 .374 0 .469-.048a.45.45 0 0 0 .194-.194c.049-.095.049-.22.049-.469v-.355c0-.25 0-.374-.049-.47a.45.45 0 0 0-.194-.194c-.095-.048-.22-.047-.469-.047h-1.164V9.277h1.956c.249 0 .374 0 .469-.048a.45.45 0 0 0 .193-.194C20 8.94 20 8.815 20 8.566v-.355c0-.249 0-.374-.049-.469a.45.45 0 0 0-.193-.193c-.095-.049-.22-.049-.469-.049h-2.134q-.163-.001-.267.004c-.07-.004-.156-.004-.266-.004zm-8.631 5.333H6.392l.622-3.11z"/></svg>