<svg xmlns="http://www.w3.org/2000/svg" width="24" height="24" fill="none" viewBox="0 0 24 24"><path fill="#313234" fill-rule="evenodd" d="M19.5 17a.5.5 0 0 0 .5-.5v-1a.5.5 0 0 0-.5-.5H18V7.5a.5.5 0 0 0-.5-.5h-1a.5.5 0 0 0-.5.5v9a.5.5 0 0 0 .5.5zm-5 0a.5.5 0 0 0 .5-.5v-1a.5.5 0 0 0-.5-.5H13V7.5a.5.5 0 0 0-.5-.5h-1a.5.5 0 0 0-.5.5v9a.5.5 0 0 0 .5.5zm-5 0a.5.5 0 0 0 .5-.5V9a2 2 0 0 0-2-2H6a2 2 0 0 0-2 2v7.5a.5.5 0 0 0 .5.5h1a.5.5 0 0 0 .5-.5V14h2v2.5a.5.5 0 0 0 .5.5zM4 5h16a2 2 0 0 1 2 2v10a2 2 0 0 1-2 2H4a2 2 0 0 1-2-2V7a2 2 0 0 1 2-2m2.5 4h1a.5.5 0 0 1 .5.5V12H6V9.5a.5.5 0 0 1 .5-.5" clip-rule="evenodd" style="fill:#313234;fill:color(display-p3 .1922 .1961 .2039);fill-opacity:1"/></svg>