<svg xmlns="http://www.w3.org/2000/svg" width="24" height="24" fill="none" viewBox="0 0 24 24"><path fill="#313234" fill-rule="evenodd" d="M13.8 5.5h.9v-.9h-.9zm-4.5 0h.9v-.9h-.9zm5.877-2.556 1.17-1.17a.446.446 0 0 0 0-.639.446.446 0 0 0-.639 0l-1.332 1.332A5.26 5.26 0 0 0 12 1.9c-.864 0-1.674.207-2.394.567L8.265 1.135a.446.446 0 0 0-.639 0 .446.446 0 0 0 0 .639l1.179 1.179A5.39 5.39 0 0 0 6.6 7.3h10.8a5.37 5.37 0 0 0-2.223-4.356M19.65 8.2c-.747 0-1.35.603-1.35 1.35v6.3c0 .747.603 1.35 1.35 1.35S21 16.597 21 15.85v-6.3c0-.747-.603-1.35-1.35-1.35m-15.3 0C3.603 8.2 3 8.803 3 9.55v6.3c0 .747.603 1.35 1.35 1.35s1.35-.603 1.35-1.35v-6.3c0-.747-.603-1.35-1.35-1.35m2.25 9c0 .495.405.9.9.9h.9v3.15c0 .747.603 1.35 1.35 1.35s1.35-.603 1.35-1.35V18.1h1.8v3.15c0 .747.603 1.35 1.35 1.35s1.35-.603 1.35-1.35V18.1h.9c.495 0 .9-.405.9-.9v-9H6.6z" clip-rule="evenodd"/></svg>