<svg xmlns="http://www.w3.org/2000/svg" width="24" height="24" fill="none" viewBox="0 0 24 24"><path fill="#313234" d="M20 5a2 2 0 0 1 2 2v10a2 2 0 0 1-2 2H4a2 2 0 0 1-2-2V7a2 2 0 0 1 2-2zM6 7a2 2 0 0 0-2 2v7.5a.5.5 0 0 0 .5.5h1a.5.5 0 0 0 .5-.5V14h2v2.5a.5.5 0 0 0 .5.5h1a.5.5 0 0 0 .5-.5V9a2 2 0 0 0-2-2zm5.8 0c-.28 0-.42 0-.526.055a.5.5 0 0 0-.22.219C11.002 7.38 11 7.52 11 7.8v8.4c0 .28 0 .42.055.527.048.094.125.17.219.218.107.055.247.055.526.055h.4c.28 0 .42 0 .528-.055a.5.5 0 0 0 .217-.218C13 16.62 13 16.48 13 16.2V14h.8c1.12 0 1.68 0 2.108-.218a2 2 0 0 0 .874-.874C17 12.48 17 11.92 17 10.8v-.6c0-1.12 0-1.68-.218-2.108a2 2 0 0 0-.874-.874C15.481 7 14.92 7 13.8 7zm7 0c-.28 0-.42 0-.527.055a.5.5 0 0 0-.218.219C18 7.38 18 7.52 18 7.8v8.4c0 .28 0 .42.055.527a.5.5 0 0 0 .218.218c.107.055.247.055.527.055h.4c.28 0 .42 0 .527-.055a.5.5 0 0 0 .218-.218C20 16.62 20 16.48 20 16.2V7.8c0-.28 0-.42-.055-.526a.5.5 0 0 0-.218-.22C19.62 7 19.48 7 19.2 7zM7.5 9a.5.5 0 0 1 .5.5V12H6V9.5a.5.5 0 0 1 .5-.5zm6.7 0c.28 0 .42 0 .527.055.094.048.17.124.218.218C15 9.38 15 9.52 15 9.8v1.4c0 .28 0 .42-.055.527a.5.5 0 0 1-.218.218C14.62 12 14.48 12 14.2 12H13V9z"/></svg>