<svg xmlns="http://www.w3.org/2000/svg" width="24" height="24" fill="none" viewBox="0 0 24 24"><path fill="#313234" d="M12 5h-1.6c-1.136 0-1.929 0-2.546.051-.605.05-.953.142-1.216.276a3 3 0 0 0-1.31 1.31c-.135.264-.228.613-.277 1.218C5 8.47 5 9.263 5 10.4v3.2c0 1.136 0 1.929.05 2.546.05.605.143.952.277 1.215a3 3 0 0 0 1.31 1.312c.264.134.612.226 1.217.275.617.05 1.41.052 2.546.052h3.2c1.136 0 1.929-.001 2.545-.052.606-.049.954-.14 1.217-.275a3 3 0 0 0 1.31-1.311c.135-.264.228-.611.277-1.216.05-.617.051-1.41.051-2.546V12h2v1.643c0 1.083 0 1.958-.058 2.666-.06.729-.185 1.368-.487 1.96a5 5 0 0 1-2.185 2.186c-.593.302-1.233.428-1.961.488C15.6 21 14.726 21 13.643 21h-3.286c-1.083 0-1.958 0-2.666-.057-.728-.06-1.368-.186-1.96-.488a5 5 0 0 1-2.186-2.185c-.302-.593-.428-1.232-.487-1.961C3 15.6 3 14.726 3 13.643v-3.285c0-1.084 0-1.959.058-2.666.06-.73.185-1.37.487-1.962A5 5 0 0 1 5.73 3.545c.593-.302 1.233-.428 1.961-.487C8.4 3 9.274 3 10.357 3H12zm6-3a4 4 0 1 1 0 8 4 4 0 0 1 0-8"/></svg>