<svg xmlns="http://www.w3.org/2000/svg" width="24" height="24" fill="none" viewBox="0 0 24 24"><path fill="#313234" d="M12 5h-1.6c-1.136 0-1.929 0-2.546.05-.605.05-.953.143-1.216.277a3 3 0 0 0-1.31 1.31c-.135.264-.228.612-.277 1.217C5 8.471 5 9.264 5 10.4v3.2c0 1.136 0 1.929.05 2.545.05.606.143.954.277 1.217a3 3 0 0 0 1.31 1.31c.264.135.612.228 1.217.277.617.05 1.41.051 2.546.051h3.2c1.136 0 1.929 0 2.545-.05.606-.05.954-.143 1.217-.277a3 3 0 0 0 1.31-1.31c.135-.264.228-.612.277-1.218C19 15.53 19 14.736 19 13.6V13h2v.643c0 1.083 0 1.958-.058 2.666-.06.728-.185 1.368-.487 1.96a5 5 0 0 1-2.185 2.186c-.593.302-1.233.428-1.961.487C15.6 21 14.726 21 13.643 21h-3.286c-1.083 0-1.958 0-2.666-.058-.728-.06-1.368-.185-1.96-.487a5 5 0 0 1-2.186-2.185c-.302-.593-.428-1.233-.487-1.961C3 15.6 3 14.726 3 13.643v-3.286c0-1.083 0-1.958.058-2.666.06-.728.185-1.368.487-1.96A5 5 0 0 1 5.73 3.544c.593-.302 1.233-.428 1.961-.487C8.4 3 9.274 3 10.357 3H12zm7.469.293a1 1 0 1 1 1.414 1.414l-5.82 5.82a.44.44 0 0 1-.618 0l-3.152-3.153a1 1 0 0 1 1.414-1.414l2.048 2.047z"/></svg>