<svg xmlns="http://www.w3.org/2000/svg" width="24" height="24" fill="none" viewBox="0 0 24 24"><path fill="#313234" d="M15.552 5.81c2.81 0 3.917 2 3.917 2s-2.163 1.105-2.163 3.79c0 3.005 2.657 4.054 2.694 4.069 0 0-1.883 5.302-4.427 5.302-1.17 0-2.078-.788-3.309-.788-1.254 0-2.5.817-3.311.817-2.322 0-5.257-5.029-5.257-9.07 0-3.978 2.484-6.064 4.814-6.064 1.515 0 2.69.873 3.478.873.676 0 1.93-.929 3.564-.929m.28-4.81s.272 1.629-1.033 3.198c-1.394 1.675-2.98 1.4-2.98 1.4-.005-.025-.285-1.332.873-2.857C13.994 1.026 15.799 1 15.832 1"/></svg>