<svg width="24" height="24" viewBox="0 0 24 24" fill="none" xmlns="http://www.w3.org/2000/svg">
<path fill-rule="evenodd" clip-rule="evenodd" d="M4.00018 12.0001C4.00018 16.4111 7.58918 20.0001 12.0002 20.0001C16.4112 20.0001 20.0002 16.4111 20.0002 12.0001C20.0002 7.58912 16.4112 4.00012 12.0002 4.00012C7.58918 4.00012 4.00018 7.58912 4.00018 12.0001ZM2.00018 12.0001C2.00018 6.47712 6.47718 2.00012 12.0002 2.00012C17.5232 2.00012 22.0002 6.47712 22.0002 12.0001C22.0002 17.5231 17.5232 22.0001 12.0002 22.0001C6.47718 22.0001 2.00018 17.5231 2.00018 12.0001ZM11 8C11 7.44771 11.4477 7 12 7C12.5523 7 13 7.44772 13 8V13.5858L14.7929 11.7929C15.1834 11.4024 15.8166 11.4024 16.2071 11.7929C16.5976 12.1834 16.5976 12.8166 16.2071 13.2071L12.7071 16.7071C12.3166 17.0976 11.6834 17.0976 11.2929 16.7071L7.79289 13.2071C7.40237 12.8166 7.40237 12.1834 7.79289 11.7929C8.18342 11.4024 8.81658 11.4024 9.20711 11.7929L11 13.5858V8Z" fill="#313234"/>
</svg>
