<svg xmlns="http://www.w3.org/2000/svg" width="24" height="24" fill="none" viewBox="0 0 24 24"><path fill="#313234" fill-rule="evenodd" d="M21.716 2h-7.432a.284.284 0 0 0-.284.284v10.747c0 .244.287.375.47.215L18 10.182l3.53 3.064c.183.16.47.03.47-.215V2.284A.285.285 0 0 0 21.716 2M8.5 12.673a2.85 2.85 0 1 0 0-5.698 2.85 2.85 0 0 0 0 5.698m-6.5 6.9a6.514 6.514 0 0 1 13 0 .41.41 0 0 1-.413.427H2.413A.41.41 0 0 1 2 19.573" clip-rule="evenodd" style="fill:#313234;fill:color(display-p3 .1922 .1961 .2039);fill-opacity:1"/></svg>