<svg width="24" height="24" viewBox="0 0 24 24" fill="none" xmlns="http://www.w3.org/2000/svg">
<path d="M12 2.5C12.5523 2.5 13 2.94772 13 3.5V10.268L18.8612 6.88397C19.3395 6.60783 19.9511 6.77171 20.2272 7.25C20.5034 7.72829 20.3395 8.33988 19.8612 8.61603L14 12L19.8612 15.384C20.3395 15.6601 20.5034 16.2717 20.2272 16.75C19.9511 17.2283 19.3395 17.3922 18.8612 17.116L13 13.7321V20.5C13 21.0523 12.5523 21.5 12 21.5C11.4477 21.5 11 21.0523 11 20.5V13.7321L5.13878 17.116C4.66049 17.3922 4.0489 17.2283 3.77276 16.75C3.49662 16.2717 3.66049 15.6601 4.13878 15.384L10 12L4.13878 8.61603C3.66049 8.33988 3.49661 7.72829 3.77275 7.25C4.04889 6.77171 4.66049 6.60783 5.13878 6.88397L11 10.2679V3.5C11 2.94772 11.4477 2.5 12 2.5Z" fill="#313234"/>
</svg>
