<svg xmlns="http://www.w3.org/2000/svg" width="24" height="24" fill="none" viewBox="0 0 24 24"><path fill="#313234" d="M18.97 5.03a3.002 3.002 0 0 1 2.122 5.122L9.243 22H5v-4.243L16.85 5.908a3 3 0 0 1 2.12-.879m-.296 10.185a.355.355 0 0 1 .652 0l.738 1.722 1.721.737a.355.355 0 0 1 0 .652l-1.721.738-.738 1.721a.355.355 0 0 1-.652 0l-.737-1.721-1.722-.738a.355.355 0 0 1 0-.652l1.722-.737zM7 18.585V20h1.414L17 11.5 15.5 10zM6.72 2.184a.304.304 0 0 1 .56 0L8.64 5.36l3.176 1.36a.304.304 0 0 1 0 .56L8.64 8.64l-1.36 3.176a.304.304 0 0 1-.56 0L5.36 8.64 2.184 7.28a.304.304 0 0 1 0-.56L5.36 5.36zm12.25 4.845a1 1 0 0 0-.707.293L17 8.586 18.414 10l1.264-1.264a1.001 1.001 0 0 0-.708-1.707"/></svg>