<svg xmlns="http://www.w3.org/2000/svg" width="24" height="24" fill="none" viewBox="0 0 24 24"><path fill="#313234" fill-rule="evenodd" d="M11.674 8.785a.355.355 0 0 0 .652 0l.738-1.721 1.721-.738a.355.355 0 0 0 0-.652l-1.721-.738-.738-1.721a.355.355 0 0 0-.652 0l-.738 1.721-1.721.738a.355.355 0 0 0 0 .652l1.721.738zm6 12a.355.355 0 0 0 .652 0l.738-1.721 1.721-.738a.355.355 0 0 0 0-.652l-1.721-.738-.738-1.721a.355.355 0 0 0-.652 0l-.738 1.721-1.721.738a.355.355 0 0 0 0 .652l1.721.738zM4.121 11.192l4.95 4.95L19.432 5.78a1 1 0 1 1 1.414 1.414L9.778 18.263a1 1 0 0 1-1.414 0l-5.657-5.657a1 1 0 0 1 1.414-1.414" clip-rule="evenodd"/></svg>