<svg xmlns="http://www.w3.org/2000/svg" width="24" height="24" fill="none" viewBox="0 0 24 24"><path fill="#313234" fill-rule="evenodd" d="M7.28 11.816a.304.304 0 0 1-.56 0L5.36 8.64 2.184 7.28a.304.304 0 0 1 0-.56L5.36 5.36l1.36-3.176a.304.304 0 0 1 .56 0L8.64 5.36l3.176 1.36a.304.304 0 0 1 0 .56L8.64 8.64zm12.398-3.08L18.414 10 17 8.586l1.263-1.264a.997.997 0 0 1 1.415 0 1 1 0 0 1 0 1.414M7 20v-1.415L15.5 10l1.5 1.5L8.414 20zM21.092 5.908a3 3 0 0 0-2.122-.879c-.767 0-1.535.293-2.121.88L4.999 17.756V22h4.244l11.849-11.849a3 3 0 0 0 0-4.243m-1.766 14.877a.355.355 0 0 1-.652 0l-.738-1.721-1.721-.738a.355.355 0 0 1 0-.652l1.721-.738.738-1.721a.355.355 0 0 1 .652 0l.738 1.721 1.721.738a.355.355 0 0 1 0 .652l-1.721.738z" clip-rule="evenodd"/></svg>