<svg xmlns="http://www.w3.org/2000/svg" width="24" height="24" fill="none" viewBox="0 0 24 24"><path fill="#313234" fill-rule="evenodd" d="M12 2C6.479 2 2 6.477 2 12s4.478 10 10 10 10-4.477 10-10S17.524 2 12 2m0 2a7.96 7.96 0 0 0-4.728 1.546A8.97 8.97 0 0 1 10 12a8.97 8.97 0 0 1-2.727 6.454A7.96 7.96 0 0 0 12 20a7.96 7.96 0 0 0 4.727-1.546A8.97 8.97 0 0 1 14 12a8.97 8.97 0 0 1 2.728-6.455A7.96 7.96 0 0 0 12 4m6.182 2.922A6.98 6.98 0 0 0 16 12c0 2 .838 3.803 2.182 5.078A7.97 7.97 0 0 0 20.001 12a7.97 7.97 0 0 0-1.819-5.078M4 12c0-1.928.682-3.697 1.818-5.078A6.98 6.98 0 0 1 8 12a6.98 6.98 0 0 1-2.182 5.078A7.97 7.97 0 0 1 4 12" clip-rule="evenodd"/></svg>