<svg xmlns="http://www.w3.org/2000/svg" width="24" height="24" fill="none" viewBox="0 0 24 24"><path fill="#313234" fill-rule="evenodd" d="M12 2A9.97 9.97 0 0 0 5.21 4.66a10 10 0 0 0-1.334 1.51A9.96 9.96 0 0 0 2 12c0 2.175.695 4.189 1.875 5.83a10 10 0 0 0 1.334 1.51A9.97 9.97 0 0 0 12.001 22c5.522 0 10-4.477 10-10S17.523 2 12 2m-7.938 9a7.95 7.95 0 0 1 1.313-3.485A6.97 6.97 0 0 1 6.929 11zm2.646-5a8.97 8.97 0 0 1 2.237 5H11V4.062A7.97 7.97 0 0 0 6.708 6m-2.646 7H6.93a6.97 6.97 0 0 1-1.554 3.485A7.95 7.95 0 0 1 4.062 13m4.883 0a8.97 8.97 0 0 1-2.236 5A7.97 7.97 0 0 0 11 19.938V13zM13 4.062V11h2.055a8.97 8.97 0 0 1 2.237-5A7.97 7.97 0 0 0 13 4.062m5.626 3.452A6.97 6.97 0 0 0 17.07 11h2.868a7.95 7.95 0 0 0-1.313-3.486M15.055 13H13v6.938A7.97 7.97 0 0 0 17.292 18a8.97 8.97 0 0 1-2.237-5m3.57 3.485A6.97 6.97 0 0 1 17.072 13h2.868a7.95 7.95 0 0 1-1.313 3.485" clip-rule="evenodd"/></svg>