<svg xmlns="http://www.w3.org/2000/svg" width="24" height="24" fill="none" viewBox="0 0 24 24"><path fill="#313234" fill-rule="evenodd" d="M16.755 3.007c-.65.04-1.27.235-1.814.563l-.04.025-.276-.105a7.77 7.77 0 0 0-5.261.005l-.265.1-.04-.025A4 4 0 0 0 3 7l.005.228c.047.83.35 1.611.852 2.248l.027.033-1.03 1.951a5.8 5.8 0 0 0-.675 2.72l.004.223a5.82 5.82 0 0 0 5.141 5.558l.244.023.31.309A5.83 5.83 0 0 0 12 22l.272-.006a5.83 5.83 0 0 0 3.85-1.701l.308-.31a5.8 5.8 0 0 0 2.29-.658l.205-.113a5.82 5.82 0 0 0 2.22-7.752L20.114 9.51l.028-.033A4 4 0 0 0 17 3zm-6.77 7.543c0 1.495-.354 2.105-1.199 2.105s-1.199-.61-1.199-2.105.354-2.106 1.2-2.106c.844 0 1.197.61 1.197 2.106m6.427 0c0 1.495-.353 2.105-1.198 2.105s-1.199-.61-1.199-2.105.354-2.106 1.199-2.106 1.198.61 1.198 2.106M11 12a1 1 0 1 0 0 2l-.007.117A1 1 0 0 1 10 15l-.117.007A1 1 0 0 0 10 17c.768 0 1.47-.289 2-.764A3 3 0 0 0 14 17a1 1 0 0 0 .117-1.993L14 15a1 1 0 0 1-.993-.883L13 14a1 1 0 1 0 0-2z" clip-rule="evenodd" style="fill:#313234;fill:color(display-p3 .1922 .1961 .2039);fill-opacity:1"/></svg>