<svg xmlns="http://www.w3.org/2000/svg" width="24" height="24" fill="none" viewBox="0 0 24 24"><path fill="#313234" fill-rule="evenodd" d="M6 5v15.355l6-5.242 6 5.242V5zm-.531 17.953c-.211 0-.425-.045-.628-.138a1.48 1.48 0 0 1-.877-1.364V4.998c0-1.105.895-1.998 2-1.998h12.04c1.103 0 1.998.892 2 1.995.01 4.35.032 14.46.032 16.455 0 .595-.337 1.118-.878 1.365a1.49 1.49 0 0 1-1.606-.231L12 17.762l-5.552 4.821c-.281.244-.627.37-.979.37" clip-rule="evenodd" style="fill:#313234;fill:color(display-p3 .1922 .1961 .2039);fill-opacity:1"/></svg>