<svg xmlns="http://www.w3.org/2000/svg" width="24" height="24" fill="none" viewBox="0 0 24 24"><path fill="#313234" d="M7.929 3C9.44 3 10.894 3.57 12 4.592A6 6 0 0 1 16.072 3H20.5A1.5 1.5 0 0 1 22 4.5v14a1.5 1.5 0 0 1-1.5 1.5h-4.428c-1.061 0-2.079.422-2.829 1.171l-.535.535a1 1 0 0 1-1.415.001l-.536-.536a4 4 0 0 0-2.828-1.17H3.5A1.5 1.5 0 0 1 2 18.5v-14A1.5 1.5 0 0 1 3.5 3zm8.143 2c-1.061 0-2.079.422-2.829 1.171L13 6.414v12.433A6 6 0 0 1 16.072 18H20V5zM4 18H7.93c1.09 0 2.15.297 3.071.846V6.414l-.243-.243a4 4 0 0 0-2.828-1.17H4z"/></svg>