<svg xmlns="http://www.w3.org/2000/svg" width="24" height="24" fill="none" viewBox="0 0 24 24"><path fill="#313234" fill-rule="evenodd" d="M12.464 4.464A4.99 4.99 0 0 1 16 3a5 5 0 1 1-3.536 1.464m5.657 1.414A2.98 2.98 0 0 0 16.001 5c-.802 0-1.556.312-2.123.878A2.99 2.99 0 0 0 13 8c0 .801.312 1.555.878 2.121a2.98 2.98 0 0 0 2.122.88c.801 0 1.555-.313 2.121-.88.567-.566.88-1.32.88-2.12 0-.802-.313-1.556-.88-2.123m-6.585 13.658a5 5 0 0 1-7.071 0 5 5 0 0 1 0-7.071 5 5 0 1 1 7.07 7.07" clip-rule="evenodd" style="fill:#313234;fill:color(display-p3 .1922 .1961 .2039);fill-opacity:1"/></svg>