<svg xmlns="http://www.w3.org/2000/svg" width="24" height="24" fill="none" viewBox="0 0 24 24"><path fill="#313234" d="M19.822 5.975c1.206 0 2.182.976 2.182 2.182v9.634a2.183 2.183 0 0 1-2.182 2.184H4.187a2.183 2.183 0 0 1-2.183-2.184V8.157c0-1.206.977-2.182 2.183-2.182zM8.165 10.459c-1.01 0-1.432.73-1.432 2.516s.422 2.515 1.432 2.515 1.431-.729 1.431-2.515-.422-2.516-1.431-2.516m7.68 0c-1.01 0-1.432.73-1.432 2.516s.422 2.515 1.431 2.515 1.433-.729 1.433-2.515-.423-2.516-1.433-2.516m-3.84-8.457a2.975 2.975 0 0 1 2.975 2.976H9.028a2.977 2.977 0 0 1 2.976-2.976"/></svg>