<svg xmlns="http://www.w3.org/2000/svg" width="24" height="24" fill="none" viewBox="0 0 24 24"><path fill="#313234" fill-rule="evenodd" d="M12.023 2a3 3 0 0 1 3 3h-6a3 3 0 0 1 3-3M20 19.998H4a2 2 0 0 1-2-2v-10a2 2 0 0 1 2-2h16a2 2 0 0 1 2 2v10a2 2 0 0 1-2 2m0-2v-10H4v10zM6.742 12.972c0 1.787.422 2.516 1.432 2.516s1.432-.729 1.432-2.516-.422-2.515-1.432-2.515-1.432.73-1.432 2.515m9.112 2.516c-1.01 0-1.432-.729-1.432-2.516s.422-2.515 1.432-2.515 1.432.73 1.432 2.515c0 1.787-.422 2.516-1.432 2.516" clip-rule="evenodd" style="fill:#313234;fill:color(display-p3 .1922 .1961 .2039);fill-opacity:1"/></svg>