<svg xmlns="http://www.w3.org/2000/svg" width="24" height="24" fill="none" viewBox="0 0 24 24"><path fill="#313234" fill-rule="evenodd" d="M14.997 5c-.53 0-.997.323-.997.692V6h-2v-.308C12 4.208 13.344 3 14.997 3c.531 0 .997-.324.997-.693V2h2v.307C17.994 3.792 16.65 5 14.997 5M20 12.822c.59-.284 1-.882 1-1.578V9h-1zm0-5.826V7h2a1 1 0 0 1 1 1v3.244a3.76 3.76 0 0 1-3.07 3.687A6.98 6.98 0 0 1 17.885 19H20a1 1 0 1 1 0 2H4a1 1 0 1 1 0-2h2.115A6.98 6.98 0 0 1 4 13.996v-6a1 1 0 0 1 1-1z" clip-rule="evenodd" style="fill:#313234;fill:color(display-p3 .1922 .1961 .2039);fill-opacity:1"/></svg>