<svg xmlns="http://www.w3.org/2000/svg" width="24" height="24" fill="none" viewBox="0 0 24 24"><path fill="#313234" fill-rule="evenodd" d="M6.343 17.657a8 8 0 0 1 0-11.314A1 1 0 0 0 4.93 4.93c-3.905 3.905-3.905 10.237 0 14.142a1 1 0 0 0 1.414-1.414M19.071 4.929a1 1 0 1 0-1.414 1.414 8 8 0 0 1 0 11.314 1 1 0 1 0 1.414 1.414c3.905-3.905 3.905-10.237 0-14.142m-9.9 4.243a4 4 0 0 0 0 5.656 1 1 0 1 1-1.414 1.415 6 6 0 0 1 0-8.486 1 1 0 1 1 1.415 1.415m5.657-1.415a1 1 0 0 1 1.415 0 6 6 0 0 1 0 8.486 1 1 0 0 1-1.415-1.415 4 4 0 0 0 0-5.656 1 1 0 0 1 0-1.415M13 13.732a2 2 0 1 0-2 0V21a1 1 0 1 0 2 0z" clip-rule="evenodd" style="fill:#313234;fill:color(display-p3 .1922 .1961 .2039);fill-opacity:1"/></svg>