<svg xmlns="http://www.w3.org/2000/svg" width="24" height="24" fill="none" viewBox="0 0 24 24"><path fill="#000" fill-opacity=".4" d="M12 10a2 2 0 0 1 1 3.73V21a1 1 0 1 1-2 0v-7.27A1.997 1.997 0 0 1 12 10M4.929 4.929c3.905-3.906 10.237-3.906 14.142 0 3.906 3.905 3.906 10.237 0 14.142a1 1 0 0 1-1.414-1.414 8 8 0 1 0-11.314 0 1 1 0 1 1-1.414 1.414c-3.906-3.905-3.906-10.237 0-14.142m2.829 2.829a5.999 5.999 0 1 1 8.484 8.484 1 1 0 1 1-1.414-1.414 4 4 0 1 0-5.656 0 1 1 0 0 1-1.414 1.414 6 6 0 0 1 0-8.484"/></svg>