<svg xmlns="http://www.w3.org/2000/svg" width="24" height="24" fill="none" viewBox="0 0 24 24"><path fill="#313234" fill-rule="evenodd" d="M17.657 6.343A8 8 0 0 0 6.343 17.657 1 1 0 1 1 4.93 19.07c-3.905-3.905-3.905-10.237 0-14.142s10.237-3.905 14.142 0 3.905 10.237 0 14.142a1 1 0 0 1-1.414-1.414 8 8 0 0 0 0-11.314M9.172 9.172a4 4 0 1 1 5.656 5.656 1 1 0 0 0 1.415 1.415 6 6 0 1 0-8.486 0 1 1 0 1 0 1.415-1.415 4 4 0 0 1 0-5.656M11 13.732a2 2 0 1 1 2 0V21a1 1 0 1 1-2 0z" clip-rule="evenodd" style="fill:#313234;fill:color(display-p3 .1922 .1961 .2039);fill-opacity:1"/></svg>