<svg xmlns="http://www.w3.org/2000/svg" width="24" height="24" fill="none" viewBox="0 0 24 24"><path fill="#313234" d="M21.275 8.28A9.9 9.9 0 0 1 22 12c0 5.374-4.263 9.757-9.58 9.978l4.187-7.252c.022-.038.024-.08.04-.12A5.3 5.3 0 0 0 17.354 12a5.33 5.33 0 0 0-1.519-3.721zM7.336 14.627c.02.033.052.054.075.085.933 1.572 2.63 2.641 4.59 2.641.453 0 .887-.075 1.308-.181l-2.723 4.716C5.741 21.198 2 17.033 2 12c0-1.672.417-3.246 1.145-4.632zM12 8.28A3.724 3.724 0 0 1 15.72 12 3.726 3.726 0 0 1 12 15.72 3.726 3.726 0 0 1 8.28 12 3.724 3.724 0 0 1 12 8.28M12 2c3.544 0 6.657 1.86 8.433 4.648h-8.376l-.019.004Q12.02 6.65 12 6.648c-2.447 0-4.495 1.66-5.13 3.907L4.144 5.833C5.977 3.503 8.814 2 12 2"/></svg>