<svg xmlns="http://www.w3.org/2000/svg" width="24" height="24" fill="none" viewBox="0 0 24 24"><path fill="#313234" d="M4.11 8.624C5.88 7.206 8.022 6.97 9.436 7.222a6.4 6.4 0 0 1 2.912 1.33 5.1 5.1 0 0 1 1.315 1.583 2.49 2.49 0 0 0-2.37-.525c-.793.162-1.64.623-2.361 1.302-.991.934-1.63 2.147-1.797 3.417-.296 2.246.456 4.484 2.013 5.987.678.656 1.686 1.34 3.118 1.696q-.147.003-.295.004C6.448 21.996 1.918 17.376 2 11.855v-.002a.7.7 0 0 1 .034-.2c.402-1.223 1.103-2.25 2.076-3.029m5.467 2.791q-.07.286-.07.593c0 3.979 5.609 7.49 10.535 4.87.298-.157.612.181.433.466a10.1 10.1 0 0 1-2.573 2.752c-1.754 1.28-4.018 1.668-6.064.943a5.85 5.85 0 0 1-2.13-1.303c-1.374-1.326-2.037-3.308-1.774-5.301.143-1.086.693-2.129 1.55-2.935q.046-.043.093-.085M12.008 2c5.129 0 9.542 3.319 9.967 7.812.094.995-.07 2.004-.522 2.897-1.375 2.725-5.457 3.316-7.31 2.012a.53.53 0 0 1-.109-.768c.79-.975 1.031-2.149.678-3.366-.585-2.015-2.697-3.726-5.136-4.16-2.026-.36-4.314.24-5.97 1.567a7 7 0 0 0-1.22 1.255C3.584 5.064 7.438 2 12.008 2"/></svg>