<svg xmlns="http://www.w3.org/2000/svg" width="24" height="24" fill="none" viewBox="0 0 24 24"><path fill="#313234" fill-rule="evenodd" d="M21.975 9.812C21.549 5.319 17.136 2 12.007 2c-4.57 0-8.424 3.064-9.622 7.25a7 7 0 0 1 1.22-1.256c1.657-1.327 3.944-1.928 5.97-1.567 2.439.434 4.55 2.145 5.136 4.16.353 1.218.111 2.391-.678 3.366a.53.53 0 0 0 .109.767c1.853 1.305 5.935.714 7.31-2.011.451-.893.616-1.902.521-2.897M7.132 14.329c.168-1.27.806-2.483 1.797-3.417.722-.679 1.569-1.14 2.36-1.301q.388-.117.817-.104a2.5 2.5 0 0 1 1.555.628 5.1 5.1 0 0 0-1.315-1.582 6.37 6.37 0 0 0-2.912-1.331C8.02 6.97 5.88 7.206 4.11 8.624c-.973.78-1.673 1.807-2.075 3.03a.7.7 0 0 0-.034.2c-.083 5.522 4.447 10.141 9.97 10.161q.146 0 .293-.003c-1.432-.357-2.44-1.04-3.118-1.696-1.556-1.503-2.309-3.742-2.013-5.987m2.373-2.321c0 3.979 5.61 7.49 10.536 4.87.298-.157.612.181.432.466a10.1 10.1 0 0 1-2.572 2.751c-1.753 1.28-4.018 1.67-6.065.944a5.85 5.85 0 0 1-2.13-1.303c-1.374-1.327-2.036-3.308-1.773-5.302.143-1.085.693-2.128 1.55-2.934l.078-.072.015-.013a2.5 2.5 0 0 0-.071.593" clip-rule="evenodd"/></svg>