<svg xmlns="http://www.w3.org/2000/svg" width="24" height="24" fill="none" viewBox="0 0 24 24"><path fill="#313234" fill-rule="evenodd" d="m21.659 9.34-.045-.161-.007-.024-.045-.15-.01-.034-.046-.144-.012-.037-.047-.14-.015-.04-.049-.137-.015-.04-.052-.136-.014-.035-.015-.04-.041-.1-.006-.015a10 10 0 0 0-.204-.46l-.015-.03q-.026-.055-.053-.108-.015-.033-.032-.064l-.049-.097-.038-.073-.049-.09-.042-.079a9 9 0 0 0-.293-.495l-.047-.075-.057-.088-.047-.07-.062-.092-.044-.064-.072-.102-.038-.052-.112-.152a10 10 0 0 0-.943-1.07 8 8 0 0 0-.753-.682 7 7 0 0 0-.478-.376 6.5 6.5 0 0 0-1.04-.636q-.13-.068-.262-.132a10.1 10.1 0 0 0-2.545-.853A9.4 9.4 0 0 0 12.175 2a9.8 9.8 0 0 0-2.042.205c-1.42.3-2.67.913-3.46 1.68l.004-.003.002-.001.012-.007c.591-.354 1.407-.641 1.99-.788l.096-.024a9 9 0 0 1 .44-.092c2.584-.47 5.339.3 7.257 2.136a6.7 6.7 0 0 1 1.082 1.322c1.224 1.985 1.108 4.48.154 5.953-.709 1.093-2.227 2.119-3.643 2.108l.086.003-.057-.001-.088-.004a4.6 4.6 0 0 1-1.814-.47c-2.192-1.12-2.519-3.907-.933-5.255-.526-.113-1.516.108-2.205 1.136-.618.922-.583 2.346-.202 3.357a5.4 5.4 0 0 1-.49-1.58c-.48-3.225 1.61-5.99 3.609-6.8l.042-.016.054-.021.097-.035c-.45-.392-1.177-.614-2.018-.638-1.162-.033-2.543.312-3.727 1.108a6 6 0 0 0-.337.243l-.039.03a7 7 0 0 0-.21.173l-.043.036-.094.083-.024.022-.113.105-.039.038a7 7 0 0 0-.183.184l-.046.049-.065.07-.042.046-.096.11-.045.054-.054.065a7 7 0 0 0-.146.187l-.043.056-.051.07-.029.041q-.054.075-.107.154l-.03.045-.053.082-.03.047-.052.085-.025.042-.055.093-.005.009a7 7 0 0 0-.187.345l-.015.03-.051.105-.015.03a8 8 0 0 0-.213.497l-.007.017-.045.12-.009.023q-.023.06-.043.123l-.002.004-.089.274a8 8 0 0 1 .33-1.625l.004-.011.028-.093.008-.023.027-.085.01-.03L4.163 7l.016-.045.025-.07.019-.05.046-.121.024-.062.023-.06.024-.059.026-.064.023-.055.03-.07.022-.05.032-.075.021-.047.037-.08.019-.042.043-.091.014-.031.056-.115.004-.008q.03-.062.063-.125a2.9 2.9 0 0 0-.685.535l-.07.073A6.7 6.7 0 0 0 2.72 8.215c-.483 1.164-.725 2.502-.72 3.841q.003.6.07 1.191l.008.063q.016.152.035.303l.003.02c.805 4.724 4.918 8.32 9.87 8.32C17.516 21.953 22 17.47 22 11.939c0-.896-.118-1.765-.34-2.591z" clip-rule="evenodd"/></svg>