<svg xmlns="http://www.w3.org/2000/svg" width="24" height="24" fill="none" viewBox="0 0 24 24"><path fill="#313234" d="M12 12c5.143 0 9.379 3.882 9.938 8.876A1.007 1.007 0 0 1 20.944 22H3.056c-.6 0-1.06-.527-.994-1.124C2.62 15.882 6.857 12 12 12m-1.664 2.172a8 8 0 0 0-2.765 1.16l2 4.668h.63l.638-3.196a1 1 0 0 1 .98-.804h.361a1 1 0 0 1 .98.804L13.8 20h.63l1.998-4.667a8 8 0 0 0-2.764-1.16l-.387.774a1 1 0 0 1-.895.553h-.764a1 1 0 0 1-.894-.553zM12 2a4.5 4.5 0 1 1 0 9.001 4.5 4.5 0 0 1 0-9m0 2a2.503 2.503 0 0 0-2.5 2.5C9.5 7.878 10.621 9 12 9c1.378 0 2.5-1.122 2.5-2.5S13.378 4 12 4"/></svg>