<svg width="24" height="24" viewBox="0 0 24 24" fill="none" xmlns="http://www.w3.org/2000/svg">
<path fill-rule="evenodd" clip-rule="evenodd" d="M4 4V3H2V4V7V15C2 16.6569 3.34315 18 5 18H8V16H5C4.44772 16 4 15.5523 4 15V9.82929C4.31278 9.93985 4.64936 10 5 10H8V8H5C4.44772 8 4 7.55228 4 7V4ZM9 8C9 6.89543 9.89543 6 11 6H20C21.1046 6 22 6.89543 22 8V10C22 11.1046 21.1046 12 20 12H11C9.89543 12 9 11.1046 9 10V8ZM11 14C9.89543 14 9 14.8954 9 16V18C9 19.1046 9.89543 20 11 20H20C21.1046 20 22 19.1046 22 18V16C22 14.8954 21.1046 14 20 14H11Z" fill="#313234"/>
</svg>
