<svg xmlns="http://www.w3.org/2000/svg" width="24" height="24" fill="none" viewBox="0 0 24 24"><path fill="#313234" d="M19.5 3A1.5 1.5 0 0 1 21 4.5v15a1.5 1.5 0 0 1-1.5 1.5h-15A1.5 1.5 0 0 1 3 19.5v-15A1.5 1.5 0 0 1 4.5 3zM5 19h14V8H5zm2.865-4.475A1.237 1.237 0 1 1 7.863 17a1.237 1.237 0 0 1 .002-2.475m4.13 0c.683 0 1.236.555 1.236 1.238a1.237 1.237 0 1 1-1.237-1.238m4.128 0a1.238 1.238 0 1 1 0 2.476 1.238 1.238 0 0 1 0-2.476m-8.258-3.952a1.237 1.237 0 1 1-.002 2.475 1.237 1.237 0 0 1 .002-2.475m4.13 0a1.237 1.237 0 1 1-.001 2.473 1.237 1.237 0 0 1 0-2.473m4.128 0a1.238 1.238 0 1 1 0 2.476 1.238 1.238 0 0 1 0-2.476"/></svg>