<svg xmlns="http://www.w3.org/2000/svg" width="24" height="24" fill="none" viewBox="0 0 24 24"><path fill="#313234" fill-rule="evenodd" d="M4.5 21h15a1.5 1.5 0 0 0 1.5-1.5v-15A1.5 1.5 0 0 0 19.5 3h-15A1.5 1.5 0 0 0 3 4.5v15A1.5 1.5 0 0 0 4.5 21M5 8v11h14V8zm1.628 3.81a1.237 1.237 0 1 1 2.473 0 1.237 1.237 0 0 1-2.473 0m4.129 0a1.237 1.237 0 1 1 2.474 0 1.237 1.237 0 0 1-2.474 0m5.366-1.237a1.237 1.237 0 1 0 0 2.475 1.237 1.237 0 0 0 0-2.475m-9.495 5.19a1.237 1.237 0 1 1 2.473-.001 1.237 1.237 0 0 1-2.473 0m5.366-1.238a1.237 1.237 0 1 0 0 2.475 1.237 1.237 0 0 0 0-2.475m2.891 1.237a1.237 1.237 0 1 1 2.475.001 1.237 1.237 0 0 1-2.475 0" clip-rule="evenodd"/></svg>