<svg xmlns="http://www.w3.org/2000/svg" width="24" height="24" fill="none" viewBox="0 0 24 24"><path fill="#313234" fill-rule="evenodd" d="M6.553 4.53c-.38.075-.798.284-1.146.632-.48.48-.897 1.613-.498 3.391.392 1.749 1.564 4.008 4.049 6.493s4.745 3.657 6.493 4.05c1.778.398 2.91-.018 3.391-.499.348-.348.557-.766.631-1.146.076-.387.001-.66-.1-.805l-.005-.008-.005-.007c-.168-.252-.555-.648-1.057-.98-.51-.337-.993-.512-1.34-.512-.247 0-.563.167-1.059.58l-.195.165a11 11 0 0 1-.512.422c-.194.146-.623.458-1.158.447-.555-.01-1.293-.278-1.999-.65a10 10 0 0 1-2.378-1.764 10 10 0 0 1-1.763-2.378c-.373-.706-.64-1.444-.65-1.999-.012-.535.3-.964.446-1.158.118-.158.28-.347.422-.512l.165-.195c.413-.496.58-.812.58-1.06 0-.346-.174-.828-.512-1.339-.332-.501-.727-.889-.98-1.057l-.007-.005-.008-.005c-.146-.101-.417-.176-.805-.1M8.49 2.983c-.696-.48-1.551-.565-2.321-.414a4.28 4.28 0 0 0-2.176 1.18C2.859 4.88 2.469 6.816 2.958 8.992c.495 2.206 1.906 4.788 4.586 7.468s5.262 4.091 7.469 4.587c2.176.488 4.11.098 5.243-1.036a4.28 4.28 0 0 0 1.18-2.176c.15-.77.066-1.625-.414-2.321-.35-.52-.947-1.09-1.613-1.531-.661-.437-1.535-.844-2.442-.844-1.044 0-1.864.647-2.34 1.044-.115.095-.208.175-.29.245-.128.111-.229.197-.336.278l-.037.027a2 2 0 0 1-.228-.066 5 5 0 0 1-.759-.333 8 8 0 0 1-1.898-1.41 8 8 0 0 1-1.409-1.897 5 5 0 0 1-.333-.759 2 2 0 0 1-.066-.228l.027-.036c.08-.108.167-.208.278-.337.07-.082.15-.175.245-.29.397-.475 1.044-1.296 1.044-2.34 0-.907-.407-1.78-.844-2.442-.44-.666-1.01-1.264-1.53-1.613m5.385 11.806.005-.001z" clip-rule="evenodd"/></svg>