<svg xmlns="http://www.w3.org/2000/svg" width="24" height="24" fill="none" viewBox="0 0 24 24"><path fill="#313234" fill-rule="evenodd" d="M15 3h4.5c.827 0 1.5.673 1.5 1.5V9a1 1 0 1 1-2 0V6.418l-4.585 4.583A1 1 0 0 1 13 9.585L17.59 5H15a1 1 0 1 1 0-2M7.75 16.253C2.587 11.088 2.587 6.57 4.2 4.955c.968-.969 2.384-1.231 3.228-.646.775.517 1.937 1.974 1.937 3.228 0 .757-.558 1.407-1.018 1.943-.325.379-.601.701-.596.963.012.631.707 2.275 2.121 3.689s3.058 2.109 3.69 2.121c.261.005.583-.27.962-.596.536-.46 1.187-1.018 1.943-1.018 1.254 0 2.711 1.162 3.228 1.937.585.844.323 2.26-.646 3.228-1.614 1.614-6.133 1.614-11.298-3.55" clip-rule="evenodd" style="fill:#313234;fill:color(display-p3 .1922 .1961 .2039);fill-opacity:1"/></svg>