<svg xmlns="http://www.w3.org/2000/svg" width="24" height="24" fill="none" viewBox="0 0 24 24"><path fill="#000" fill-opacity=".4" d="M4.2 4.955c.969-.968 2.384-1.23 3.228-.645.774.516 1.937 1.973 1.937 3.227 0 1.291-1.626 2.274-1.614 2.906.012.631.707 2.275 2.121 3.689s3.058 2.109 3.69 2.121c.631.012 1.614-1.614 2.905-1.614 1.254 0 2.712 1.163 3.228 1.937.585.844.322 2.26-.646 3.228-1.614 1.614-6.133 1.614-11.298-3.55-5.165-5.166-5.165-9.685-3.55-11.299m11.042-2.248a1 1 0 0 1 1.414 1.414l-1.879 1.88H19a3 3 0 0 1 2.994 2.822L22 9v2.5a1 1 0 0 1-2 0V9a1 1 0 0 0-.884-.993L19 8h-4.121l1.777 1.778a1 1 0 1 1-1.414 1.415l-2.828-2.829a2 2 0 0 1-.101-2.72l.101-.109z"/></svg>