<svg xmlns="http://www.w3.org/2000/svg" width="24" height="24" fill="none" viewBox="0 0 24 24"><path fill="#000" fill-opacity=".4" d="M4.2 4.955c.969-.968 2.384-1.23 3.228-.645.774.516 1.937 1.973 1.937 3.227 0 1.291-1.626 2.274-1.614 2.906.012.631.707 2.275 2.121 3.689s3.058 2.109 3.69 2.121c.631.012 1.614-1.614 2.905-1.614 1.254 0 2.712 1.163 3.228 1.937.586.844.322 2.26-.646 3.228-1.614 1.614-6.133 1.614-11.298-3.551S2.586 6.569 4.201 4.955M19.5 3c.827 0 1.5.673 1.5 1.5V9a1 1 0 1 1-2 0V6.418l-4.585 4.583A1 1 0 0 1 13 9.585L17.59 5H15a1 1 0 0 1 0-2z"/></svg>