<svg xmlns="http://www.w3.org/2000/svg" width="24" height="24" fill="none" viewBox="0 0 24 24"><path fill="#000" fill-opacity=".4" d="M4.2 4.955c.969-.968 2.384-1.23 3.228-.645.774.516 1.937 1.973 1.937 3.227 0 1.291-1.626 2.274-1.614 2.905.012.632.707 2.276 2.121 3.69s3.058 2.108 3.69 2.12c.631.013 1.614-1.612 2.905-1.612 1.254 0 2.712 1.161 3.228 1.936.586.844.322 2.26-.646 3.228-1.614 1.614-6.133 1.614-11.298-3.551S2.586 6.569 4.201 4.955M14 6a4 4 0 0 1 4 4 1 1 0 1 1-2 0 2 2 0 0 0-2-2 1 1 0 1 1 0-2m0-4a8 8 0 0 1 8 8 1 1 0 1 1-2 0 6 6 0 0 0-6-6 1 1 0 1 1 0-2"/></svg>