<svg xmlns="http://www.w3.org/2000/svg" width="24" height="24" fill="none" viewBox="0 0 24 24"><path fill="#313234" d="M4.2 4.955c.968-.968 2.384-1.231 3.228-.645.774.516 1.937 1.973 1.937 3.227 0 1.291-1.627 2.274-1.614 2.905.012.632.707 2.276 2.12 3.69 1.415 1.414 3.059 2.108 3.69 2.12.632.013 1.614-1.613 2.906-1.613 1.254 0 2.712 1.163 3.228 1.937.585.844.322 2.26-.646 3.228-1.614 1.614-6.133 1.614-11.298-3.551S2.586 6.569 4.2 4.955m11.042-2.248a1 1 0 0 1 1.414 1.414L14.777 6H19a3 3 0 0 1 2.994 2.823L22 9v2.5a1 1 0 0 1-2 0V9a1 1 0 0 0-.884-.993L19 8h-4.121l1.777 1.778a1 1 0 1 1-1.414 1.414l-2.828-2.828a2 2 0 0 1-.102-2.72l.102-.109z"/></svg>