<svg xmlns="http://www.w3.org/2000/svg" width="24" height="24" fill="none" viewBox="0 0 24 24"><path fill="#000" fill-opacity=".4" d="M4.2 4.955c.968-.968 2.384-1.23 3.228-.645.775.516 1.937 1.973 1.937 3.227 0 1.291-1.626 2.274-1.614 2.906.013.631.707 2.275 2.121 3.689s3.058 2.109 3.69 2.121 1.614-1.614 2.905-1.614c1.254 0 2.711 1.163 3.228 1.937.585.844.322 2.26-.646 3.228-1.614 1.614-6.133 1.614-11.298-3.551C2.587 11.088 2.586 6.569 4.2 4.955m14.678-1.248a1 1 0 0 1 1.415 1.416l-4.59 4.585h2.59a1 1 0 0 1 0 2h-4.5c-.827 0-1.5-.673-1.5-1.5v-4.5a1 1 0 1 1 2 0V8.29z"/></svg>