<svg xmlns="http://www.w3.org/2000/svg" width="24" height="24" fill="none" viewBox="0 0 24 24"><path fill="#313234" d="M4.2 4.955c.969-.968 2.384-1.231 3.228-.646.775.517 1.936 1.975 1.936 3.229 0 1.29-1.625 2.273-1.613 2.905s.707 2.275 2.121 3.689 3.058 2.11 3.69 2.122c.631.012 1.614-1.615 2.905-1.615 1.254 0 2.71 1.162 3.228 1.937.585.844.322 2.26-.646 3.228-1.614 1.614-6.133 1.614-11.298-3.55-5.165-5.165-5.165-9.685-3.55-11.3m14.678-1.247a1 1 0 0 1 1.415 1.415l-4.59 4.585h2.59a1 1 0 0 1 0 2h-4.5c-.827 0-1.5-.673-1.5-1.5v-4.5a1 1 0 0 1 2 0V8.29z"/></svg>