<svg xmlns="http://www.w3.org/2000/svg" width="24" height="24" fill="none" viewBox="0 0 24 24"><path fill="#313234" d="M4.2 4.955c.968-.968 2.384-1.23 3.228-.645.774.516 1.937 1.973 1.937 3.227 0 1.291-1.626 2.274-1.614 2.905.012.632.707 2.276 2.12 3.69 1.415 1.414 3.059 2.108 3.69 2.12.632.013 1.614-1.612 2.906-1.612 1.254 0 2.712 1.161 3.228 1.936.585.844.322 2.26-.646 3.228-1.614 1.614-6.133 1.614-11.298-3.551S2.586 6.569 4.2 4.955M17 2a1 1 0 0 1 1 1v8a1 1 0 1 1-2 0V3a1 1 0 0 1 1-1m-3 2a1 1 0 0 1 1 1v4a1 1 0 1 1-2 0V5a1 1 0 0 1 1-1m6 1a1 1 0 0 1 1 1v2a1 1 0 1 1-2 0V6a1 1 0 0 1 1-1"/></svg>