<svg xmlns="http://www.w3.org/2000/svg" width="24" height="24" fill="none" viewBox="0 0 24 24"><path fill="#313234" fill-rule="evenodd" d="M3.707 2.707a1 1 0 0 0 0 1.414l16.97 16.97a1 1 0 0 0 1.415-1.413l-3.598-3.598c.794.217 1.647.244 2.18.137 1.01-.182 1.826-1.37 1.826-2.739C22.5 11.196 19.304 8 12 8q-.801 0-1.536.05L5.12 2.707a1 1 0 0 0-1.414 0m9.84 8.425 2.91 2.912c-.047-.283-.069-.568-.09-.833-.037-.498-.07-.92-.258-1.102-.331-.318-1.294-.76-2.563-.977M1.5 13.478c0-1.637 1.645-3.745 5.273-4.805L9.46 11.36c-.768.227-1.332.52-1.57.748-.188.181-.22.604-.259 1.102-.054.704-.119 1.559-.654 2.093-.886.887-2.739 1.096-3.652.913-1.01-.182-1.826-1.37-1.826-2.739" clip-rule="evenodd"/></svg>