<svg xmlns="http://www.w3.org/2000/svg" width="24" height="24" fill="none" viewBox="0 0 24 24"><path fill="#313234" d="M3.707 2.707a1 1 0 0 1 1.414 0l5.345 5.345Q11.2 8.002 12 8c7.304 0 10.5 3.196 10.5 5.479 0 1.369-.816 2.556-1.826 2.739-.535.107-1.39.075-2.186-.144l3.604 3.604a1 1 0 1 1-1.414 1.414L3.707 4.122a1 1 0 0 1 0-1.415m5.755 8.655c-.769.227-1.333.518-1.57.746-.456.438 0 2.284-.913 3.197-.887.886-2.74 1.095-3.653.913-1.01-.183-1.826-1.37-1.826-2.74 0-1.637 1.645-3.745 5.272-4.805zm7 2.686c-.14-.815-.064-1.661-.354-1.94-.33-.317-1.293-.757-2.56-.974z"/></svg>