<svg width="24" height="24" viewBox="0 0 24 24" fill="none" xmlns="http://www.w3.org/2000/svg">
<path fill-rule="evenodd" clip-rule="evenodd" d="M9.23607 3C8.09975 3 7.06096 3.64201 6.55279 4.65836L6.38197 5H5C3.34315 5 2 6.34315 2 8V17C2 18.6569 3.34315 20 5 20H19C20.6569 20 22 18.6569 22 17V8C22 6.34315 20.6569 5 19 5H17.618L17.4472 4.65836C16.939 3.64201 15.9002 3 14.7639 3H9.23607ZM8.34164 5.55279C8.51103 5.214 8.8573 5 9.23607 5H14.7639C15.1427 5 15.489 5.214 15.6584 5.55279L16.1056 6.44721C16.275 6.786 16.6212 7 17 7H19C19.5523 7 20 7.44772 20 8V17C20 17.5523 19.5523 18 19 18H5C4.44772 18 4 17.5523 4 17V8C4 7.44772 4.44772 7 5 7H7C7.37877 7 7.72504 6.786 7.89443 6.44721L8.34164 5.55279ZM7 12C7 14.7564 9.24273 17 12 17C14.7573 17 17 14.7564 17 12C17 9.24273 14.7573 7 12 7C9.24273 7 7 9.24273 7 12ZM9 12C9 10.3432 10.3433 9 12 9C13.6567 9 15 10.3432 15 12C15 13.6567 13.6567 15 12 15C10.3433 15 9 13.6567 9 12Z" fill="#313234"/>
</svg>
