<svg xmlns="http://www.w3.org/2000/svg" width="24" height="24" fill="none" viewBox="0 0 24 24"><path fill="#313234" d="M14.764 3a3 3 0 0 1 2.683 1.658l.171.342H19a3 3 0 0 1 3 3v9a3 3 0 0 1-3 3H5a3 3 0 0 1-3-3V8a3 3 0 0 1 3-3h1.382l.17-.342A3 3 0 0 1 9.237 3zM9.236 5a1 1 0 0 0-.894.553l-.447.894A1 1 0 0 1 7 7H5a1 1 0 0 0-1 1v9a1 1 0 0 0 1 1h14a1 1 0 0 0 1-1V8a1 1 0 0 0-1-1h-2a1 1 0 0 1-.895-.553l-.447-.894A1 1 0 0 0 14.764 5zm-1.723 7.009 2.964.804a.25.25 0 0 1 .078.447l-1.075.753a3.252 3.252 0 0 0 5.666-1.242l1.453.373a4.751 4.751 0 0 1-8.35 1.73l-.916.642a.25.25 0 0 1-.392-.226l.257-3.06a.25.25 0 0 1 .315-.221M12 7.25c1.524 0 2.88.718 3.749 1.833l.916-.64a.25.25 0 0 1 .393.225l-.258 3.06a.25.25 0 0 1-.315.221l-2.963-.804a.25.25 0 0 1-.079-.447l1.074-.752A3.24 3.24 0 0 0 12 8.75a3.25 3.25 0 0 0-3.147 2.437l-1.454-.373A4.75 4.75 0 0 1 12 7.25"/></svg>