<svg xmlns="http://www.w3.org/2000/svg" width="24" height="24" fill="none" viewBox="0 0 24 24"><path fill="#313234" fill-rule="evenodd" d="M16.583 4.471a2 2 0 0 0-1.715-.971H9.132a2 2 0 0 0-1.715.971l-.626 1.043A1 1 0 0 1 5.934 6H5a3 3 0 0 0-3 3v8a3 3 0 0 0 3 3h14a3 3 0 0 0 3-3V9a3 3 0 0 0-3-3h-.934a1 1 0 0 1-.857-.486zM12 18a5.506 5.506 0 0 1-5.5-5.5C6.5 9.467 8.967 7 12 7s5.5 2.467 5.5 5.5S15.033 18 12 18m-4-5.5a4 4 0 1 1 8 0 4 4 0 0 1-8 0" clip-rule="evenodd" style="fill:#313234;fill:color(display-p3 .1922 .1961 .2039);fill-opacity:1"/></svg>