<svg xmlns="http://www.w3.org/2000/svg" width="24" height="24" fill="none" viewBox="0 0 24 24"><path fill="#313234" d="M14.764 3a3 3 0 0 1 2.683 1.658l.171.342H19a3 3 0 0 1 3 3v9a3 3 0 0 1-3 3H5a3 3 0 0 1-3-3V8a3 3 0 0 1 3-3h1.382l.17-.342A3 3 0 0 1 9.237 3zM9.236 5a1 1 0 0 0-.894.553l-.447.894A1 1 0 0 1 7 7H5a1 1 0 0 0-1 1v9a1 1 0 0 0 1 1h14a1 1 0 0 0 1-1V8a1 1 0 0 0-1-1h-2a1 1 0 0 1-.895-.553l-.447-.894A1 1 0 0 0 14.764 5zM12 7c2.757 0 5 2.243 5 5 0 2.756-2.243 5-5 5s-5-2.244-5-5c0-2.757 2.243-5 5-5m0 2a3 3 0 1 0 0 6 3 3 0 0 0 0-6"/></svg>