<svg xmlns="http://www.w3.org/2000/svg" width="24" height="24" fill="none" viewBox="0 0 24 24"><path fill="#313234" fill-rule="evenodd" d="M12 20c-4.41 0-8-3.589-8-8s3.59-8 8-8 8 3.59 8 8-3.589 8-8 8M2 12c0 5.523 4.477 10 10 10s10-4.477 10-10S17.523 2 12 2 2 6.477 2 12m14.243-4.243a1 1 0 0 0-1.415 0l-.707.707L12 10.586 9.879 8.464l-.707-.707a1 1 0 0 0-1.415 1.415l.707.706L10.586 12l-2.122 2.121-.707.707a1 1 0 1 0 1.415 1.415l.705-.706.002-.002L12 13.416l2.121 2.12.001.002.706.706a1 1 0 1 0 1.415-1.415l-.707-.707L13.414 12l2.122-2.121v-.002l.707-.705a1 1 0 0 0 0-1.415" clip-rule="evenodd" style="fill:#313234;fill:color(display-p3 .1922 .1961 .2039);fill-opacity:1"/></svg>