<svg xmlns="http://www.w3.org/2000/svg" width="24" height="24" fill="none" viewBox="0 0 24 24"><path fill="#313234" fill-rule="evenodd" d="M4.92 4.92c3.895-3.893 10.266-3.893 14.16 0 3.894 3.895 3.894 10.266 0 14.16s-10.265 3.894-14.16 0c-3.893-3.894-3.893-10.265 0-14.16m9.908 2.837a1 1 0 1 1 1.415 1.415L13.414 12l2.829 2.828a1 1 0 1 1-1.415 1.415L12 13.414l-2.828 2.829a1 1 0 1 1-1.415-1.415L10.586 12 7.757 9.172a1 1 0 0 1 1.415-1.415L12 10.586z" clip-rule="evenodd" style="fill:#313234;fill:color(display-p3 .1922 .1961 .2039);fill-opacity:1"/></svg>