<svg xmlns="http://www.w3.org/2000/svg" width="24" height="24" fill="none" viewBox="0 0 24 24"><path fill="#313234" d="M12 2c5.523 0 10 4.477 10 10s-4.477 10-10 10S2 17.523 2 12 6.477 2 12 2m0 2c-4.41 0-8 3.59-8 8s3.59 8 8 8 8-3.589 8-8-3.589-8-8-8m2.828 3.757a1 1 0 0 1 1.414 1.415L13.414 12l2.828 2.828a1 1 0 1 1-1.414 1.414L12 13.414l-2.12 2.121-.01.007-.699.7a1 1 0 1 1-1.414-1.414L10.587 12 8.463 9.88l-.707-.707a1.001 1.001 0 0 1 1.414-1.415l.698.698.01.009L12 10.586l2.121-2.122.002-.003z"/></svg>