<svg xmlns="http://www.w3.org/2000/svg" width="24" height="24" fill="none" viewBox="0 0 24 24"><path fill="#313234" d="M5 13.5a1.5 1.5 0 1 1 3 0 1.5 1.5 0 0 1-3 0M17.5 12a1.5 1.5 0 1 0 0 3 1.5 1.5 0 0 0 0-3" style="fill:#313234;fill:color(display-p3 .1922 .1961 .2039);fill-opacity:1"/><path fill="#313234" fill-rule="evenodd" d="M14.962 3a5 5 0 0 1 4.814 3.646l.968 3.443A4 4 0 0 1 22 13v4a1 1 0 0 1-1 1v2a1 1 0 0 1-1 1h-2a1 1 0 0 1-1-1v-2H7v2a1 1 0 0 1-1 1H4a1 1 0 0 1-1-1v-2a1 1 0 0 1-1-1v-4c0-1.147.483-2.181 1.256-2.91l.968-3.444A5 5 0 0 1 9.038 3zm3.398 6-.51-1.812a3 3 0 0 0-2.706-2.183L14.963 5H9.038a3 3 0 0 0-2.834 2.014l-.054.174L5.639 9zM6 11a2 2 0 0 0-1.995 1.85L4 13v3h16v-3a2 2 0 0 0-1.85-1.995L18 11z" clip-rule="evenodd" style="fill:#313234;fill:color(display-p3 .1922 .1961 .2039);fill-opacity:1"/></svg>