<svg xmlns="http://www.w3.org/2000/svg" width="24" height="24" fill="none" viewBox="0 0 24 24"><path fill="#313234" fill-rule="evenodd" d="M2 5h2.775l.935 8.44A4 4 0 0 0 9.686 17h6.629a4 4 0 0 0 3.975-3.558L20.45 12h-2.012l-.135 1.22A2 2 0 0 1 16.315 15h-6.63a2 2 0 0 1-1.987-1.78L7.119 8H10V6H6.898l-.135-1.22A2 2 0 0 0 4.775 3H2zm4 15c0-1.101.9-2 2-2s2 .899 2 2-.9 2-2 2-2-.9-2-2m10 0c0-1.101.9-2 2-2s2 .899 2 2-.9 2-2 2-2-.9-2-2m.3-8.401a.493.493 0 0 1-.664 0c-1.092-.986-2.89-2.664-3.951-3.94-.986-1.184-.961-2.822.116-3.898.203-.203.47-.366.758-.497 1.196-.54 2.76-.146 3.41 1.079.648-1.225 2.213-1.62 3.409-1.08.288.132.555.295.758.498 1.077 1.076 1.102 2.714.117 3.899-1.062 1.275-2.86 2.953-3.952 3.939" clip-rule="evenodd"/></svg>