<svg width="24" height="24" viewBox="0 0 24 24" fill="none" xmlns="http://www.w3.org/2000/svg">
<path fill-rule="evenodd" clip-rule="evenodd" d="M21.0002 10.0001H19.0002V5.00009H14.0002V3.00009H19.5002C20.3272 3.00009 21.0002 3.67309 21.0002 4.50009V10.0001ZM19.5002 21.0001H14.0002V19.0001H19.0002V14.0001H21.0002V19.5001C21.0002 20.3271 20.3272 21.0001 19.5002 21.0001ZM4.50018 21.0001H10.0002V19.0001H5.00018V14.0001H3.00018V19.5001C3.00018 20.3271 3.67318 21.0001 4.50018 21.0001ZM5.00018 10.0001H3.00018V4.50009C3.00018 3.67309 3.67318 3.00009 4.50018 3.00009H10.0002V5.00009H5.00018V10.0001ZM12 16C14.2091 16 16 14.2091 16 12C16 9.79086 14.2091 8 12 8C9.79086 8 8 9.79086 8 12C8 14.2091 9.79086 16 12 16Z" fill="#313234"/>
</svg>
