<svg xmlns="http://www.w3.org/2000/svg" width="24" height="24" fill="none" viewBox="0 0 24 24"><path fill="#313234" fill-rule="evenodd" d="M12 8c1.11 0 2.08-.604 2.6-1.5a7.02 7.02 0 0 1 4.348 5.633 1 1 0 1 0 1.984-.246 9.02 9.02 0 0 0-5.974-7.389A3 3 0 1 0 12 8m4.402 10.5a3 3 0 1 1 1.553 1.312 9.02 9.02 0 0 1-9.384 1.48 1 1 0 0 1 .778-1.843 7.02 7.02 0 0 0 7.053-.949M8 17a3 3 0 1 1-4.914-2.31 9 9 0 0 1 3.412-8.868 1 1 0 0 1 1.204 1.596A7 7 0 0 0 4.998 14H5a3 3 0 0 1 3 3" clip-rule="evenodd"/></svg>