<svg xmlns="http://www.w3.org/2000/svg" width="24" height="24" fill="none" viewBox="0 0 24 24"><path fill="#313234" d="M7 16.5a.5.5 0 0 1 .5.5v3.5a.5.5 0 0 1-.5.5H3.5a.5.5 0 0 1-.5-.5V17a.5.5 0 0 1 .5-.5zm6.75 0a.5.5 0 0 1 .5.5v3.5a.5.5 0 0 1-.5.5h-3.5a.5.5 0 0 1-.5-.5V17a.5.5 0 0 1 .5-.5zm6.75 0a.5.5 0 0 1 .5.5v3.5a.5.5 0 0 1-.5.5H17a.5.5 0 0 1-.5-.5V17a.5.5 0 0 1 .5-.5zM7 9.75a.5.5 0 0 1 .5.5v3.5a.5.5 0 0 1-.5.5H3.5a.5.5 0 0 1-.5-.5v-3.5a.5.5 0 0 1 .5-.5zm6.75 0a.5.5 0 0 1 .5.5v3.5a.5.5 0 0 1-.5.5h-3.5a.5.5 0 0 1-.5-.5v-3.5a.5.5 0 0 1 .5-.5zm6.75 0a.5.5 0 0 1 .5.5v3.5a.5.5 0 0 1-.5.5H17a.5.5 0 0 1-.5-.5v-3.5a.5.5 0 0 1 .5-.5zM7 3a.5.5 0 0 1 .5.5V7a.5.5 0 0 1-.5.5H3.5A.5.5 0 0 1 3 7V3.5a.5.5 0 0 1 .5-.5zm6.75 0a.5.5 0 0 1 .5.5V7a.5.5 0 0 1-.5.5h-3.5a.5.5 0 0 1-.5-.5V3.5a.5.5 0 0 1 .5-.5zm6.75 0a.5.5 0 0 1 .5.5V7a.5.5 0 0 1-.5.5H17a.5.5 0 0 1-.5-.5V3.5A.5.5 0 0 1 17 3z"/></svg>