<svg xmlns="http://www.w3.org/2000/svg" width="24" height="24" fill="none" viewBox="0 0 24 24"><path fill="#313234" fill-rule="evenodd" d="M9.279 2h5.442A7.28 7.28 0 0 1 22 9.279v5.442A7.28 7.28 0 0 1 14.721 22H9.279A7.28 7.28 0 0 1 2 14.721V9.279A7.28 7.28 0 0 1 9.279 2m6.87 11.888 1.684.797a.41.41 0 0 1 .172.59c-.973 1.543-2.922 2.275-4.685 1.689a4 4 0 0 1-2.327-1.995q-.221.18-.451.348a11.7 11.7 0 0 1-2.401 1.36c-.123.053-.444.17-.698.261a.41.41 0 0 1-.509-.209l-.819-1.708a.36.36 0 0 1 .22-.501h.004c.196-.055.416-.128.61-.195a9 9 0 0 0 1.169-.53c.088-.045.194-.108.292-.166l.126-.074.139-.09.176-.114.263-.186.256-.196.153-.126.096-.079c.35-.299.686-.638.986-.987q.074-.083.136-.174c.41-.604.278-1.471-.305-1.915a1.41 1.41 0 0 0-1.45-.177 1.4 1.4 0 0 0-.53.421.41.41 0 0 1-.501.12l-1.684-.797a.41.41 0 0 1-.172-.59c.973-1.543 2.922-2.275 4.685-1.689a4 4 0 0 1 2.327 1.995q.221-.18.451-.348a11.7 11.7 0 0 1 2.401-1.36c.123-.053.444-.17.698-.261a.41.41 0 0 1 .509.209l.819 1.708a.36.36 0 0 1-.22.501h-.004c-.196.055-.416.128-.61.195a9 9 0 0 0-1.461.696l-.126.074-.139.09-.176.114-.263.186-.25.192-.006.004-.153.126-.096.079c-.35.299-.686.638-.986.987a2 2 0 0 0-.136.174c-.41.604-.278 1.471.305 1.915.401.321.986.394 1.45.177a1.4 1.4 0 0 0 .53-.421.41.41 0 0 1 .501-.12" clip-rule="evenodd" style="fill:#313234;fill:color(display-p3 .1922 .1961 .2039);fill-opacity:1"/></svg>