<svg xmlns="http://www.w3.org/2000/svg" width="24" height="24" fill="none" viewBox="0 0 24 24"><path fill="#313234" d="M14.72 2A7.28 7.28 0 0 1 22 9.28v5.44A7.28 7.28 0 0 1 14.72 22H9.28A7.28 7.28 0 0 1 2 14.72V9.28A7.28 7.28 0 0 1 9.28 2zM9.28 3.25c-3.33 0-6.03 2.7-6.03 6.03v5.44c0 3.33 2.7 6.03 6.03 6.03h5.44c3.33 0 6.03-2.7 6.03-6.03V9.28l-.008-.311a6.03 6.03 0 0 0-6.021-5.719zm2.723 3.07c3.127 0 5.677 2.556 5.677 5.682a5.65 5.65 0 0 1-.44 2.194v.002c-.177.42-.21.887-.1 1.33l.31 1.234a.566.566 0 0 1-.688.687l-1.236-.308a2.13 2.13 0 0 0-1.329.098 5.65 5.65 0 0 1-2.194.44c-3.127 0-5.683-2.55-5.683-5.677-.002-3.139 2.556-5.682 5.683-5.682m-1.818 5.98a.287.287 0 0 0-.402-.12l-1.017.61a.284.284 0 0 0-.107.375 3.79 3.79 0 0 0 3.334 1.991h.004c1.44 0 2.694-.805 3.334-1.991a.28.28 0 0 0-.106-.376l-1.017-.61a.29.29 0 0 0-.402.12 2.035 2.035 0 0 1-3.62 0"/></svg>