<svg xmlns="http://www.w3.org/2000/svg" width="24" height="24" fill="none" viewBox="0 0 24 24"><path fill="#313234" d="M14.72 2A7.28 7.28 0 0 1 22 9.28v5.44A7.28 7.28 0 0 1 14.72 22H9.28A7.28 7.28 0 0 1 2 14.72V9.28A7.28 7.28 0 0 1 9.28 2zm-2.713 4a6 6 0 0 0-6.003 6.002c0 3.303 2.7 5.999 6.003 5.999.822 0 1.604-.166 2.318-.466a2.24 2.24 0 0 1 1.404-.102l1.304.325a.6.6 0 0 0 .728-.727l-.326-1.304a2.24 2.24 0 0 1 .103-1.405c.3-.715.465-1.497.465-2.32C18.003 8.699 15.31 6 12.007 6m-2.345 6.191a.303.303 0 0 1 .425.127 2.149 2.149 0 0 0 3.824 0 .304.304 0 0 1 .425-.127l1.074.644a.3.3 0 0 1 .113.397A4 4 0 0 1 12 15.336h-.004a4 4 0 0 1-3.521-2.104.3.3 0 0 1 .11-.397z"/></svg>