<svg xmlns="http://www.w3.org/2000/svg" width="24" height="24" fill="none" viewBox="0 0 24 24"><path fill="#313234" fill-rule="evenodd" d="M14.72 2H9.28A7.28 7.28 0 0 0 2 9.28v5.44A7.28 7.28 0 0 0 9.28 22h5.44A7.28 7.28 0 0 0 22 14.72V9.28A7.28 7.28 0 0 0 14.72 2m2.818 12.32c.3-.713.465-1.495.465-2.318C18.003 8.7 15.31 6 12.007 6a6 6 0 0 0-6.003 6.002c0 3.303 2.7 6 6.003 6 .822 0 1.604-.166 2.318-.466a2.24 2.24 0 0 1 1.404-.104l1.305.326c.44.11.837-.289.726-.727l-.325-1.304a2.24 2.24 0 0 1 .103-1.404zm-2.015-1.088A4 4 0 0 1 12 15.336h-.004a4 4 0 0 1-3.522-2.104.3.3 0 0 1 .112-.397l1.075-.644a.304.304 0 0 1 .425.127 2.149 2.149 0 0 0 3.824 0 .304.304 0 0 1 .425-.127l1.074.644a.3.3 0 0 1 .113.397" clip-rule="evenodd" style="fill:#313234;fill:color(display-p3 .1922 .1961 .2039);fill-opacity:1"/></svg>