<svg width="24" height="24" viewBox="0 0 24 24" fill="none" xmlns="http://www.w3.org/2000/svg">
<path fill-rule="evenodd" clip-rule="evenodd" d="M9.28026 2H14.722C18.7431 2 22.0023 5.25881 22.0023 9.27942V14.7206C22.0023 18.7412 18.7431 22 14.722 22H9.28026C5.25919 22 2 18.7412 2 14.7206V9.27942C2 5.25881 5.25919 2 9.28026 2ZM18.491 16.8477L18.1653 15.5431L18.1597 15.5468C18.0806 15.234 18.1045 14.9046 18.226 14.6157C18.5738 13.7877 18.7505 12.9099 18.7505 12.0064C18.7523 10.2087 18.0493 8.51578 16.7722 7.23691C15.495 5.95805 13.8019 5.25329 12.0039 5.25329H12.0021C10.1986 5.25329 8.50365 5.95437 7.22831 7.22955C5.95298 8.50474 5.25182 10.2013 5.25182 12.0046C5.25366 13.8024 5.95666 15.4953 7.23568 16.7723C8.51469 18.0475 10.2078 18.7504 12.0039 18.7504H12.0076C12.9112 18.7504 13.789 18.5737 14.6172 18.226C14.9061 18.1045 15.2355 18.0806 15.5483 18.1597L16.8531 18.4854C17.3187 18.6013 17.7972 18.4689 18.1358 18.1303C18.4744 17.7917 18.6069 17.3114 18.491 16.8477ZM12.0032 6.7485H12.005V6.74666C13.4018 6.7485 14.7195 7.295 15.7132 8.2905C16.707 9.28599 17.2536 10.6035 17.2536 12.0001C17.2536 12.703 17.1174 13.3857 16.8469 14.0279C16.6021 14.6131 16.5524 15.2792 16.7088 15.903L16.9131 16.7237C16.9407 16.8341 16.8413 16.9334 16.7309 16.9058L15.9101 16.7016C15.2863 16.547 14.6201 16.5949 14.0349 16.8414C13.3926 17.1101 12.7098 17.2481 12.0068 17.2481C10.6082 17.2518 9.2924 16.7016 8.29679 15.7079C7.30118 14.7143 6.75277 13.3968 6.75277 12.0001C6.75277 10.598 7.29934 9.27863 8.29127 8.28682C9.28135 7.295 10.6009 6.7485 12.0032 6.7485ZM12.0013 15.2258C13.4809 15.2258 14.7655 14.3996 15.4188 13.1815H15.4151C15.4906 13.0398 15.4409 12.865 15.3047 12.7822L14.3385 12.2025C14.1876 12.1124 13.9944 12.1694 13.9152 12.3258C13.5601 13.0232 12.8368 13.5016 11.9995 13.5016C11.164 13.5016 10.4389 13.0232 10.0837 12.3258C10.0046 12.1694 9.81136 12.1124 9.66046 12.2025L8.69429 12.7822C8.55811 12.865 8.50842 13.0398 8.58388 13.1815C9.23719 14.3978 10.5236 15.2258 12.0013 15.2258Z" fill="#313234"/>
</svg>
