<svg xmlns="http://www.w3.org/2000/svg" width="24" height="24" fill="none" viewBox="0 0 24 24"><path fill="#313234" fill-rule="evenodd" d="M7 7.5H3.5A.5.5 0 0 1 3 7V3.5a.5.5 0 0 1 .5-.5H7a.5.5 0 0 1 .5.5V7a.5.5 0 0 1-.5.5m6.75 0h-3.5a.5.5 0 0 1-.5-.5V3.5a.5.5 0 0 1 .5-.5h3.5a.5.5 0 0 1 .5.5V7a.5.5 0 0 1-.5.5m3.25 0h3.5A.5.5 0 0 0 21 7V3.5a.5.5 0 0 0-.5-.5H17a.5.5 0 0 0-.5.5V7a.5.5 0 0 0 .5.5M7 14.25H3.5a.5.5 0 0 1-.5-.5v-3.5a.5.5 0 0 1 .5-.5H7a.5.5 0 0 1 .5.5v3.5a.5.5 0 0 1-.5.5m3.25 0h3.5a.5.5 0 0 0 .5-.5v-3.5a.5.5 0 0 0-.5-.5h-3.5a.5.5 0 0 0-.5.5v3.5a.5.5 0 0 0 .5.5m10.25 0H17a.5.5 0 0 1-.5-.5v-3.5a.5.5 0 0 1 .5-.5h3.5a.5.5 0 0 1 .5.5v3.5a.5.5 0 0 1-.5.5M3.5 21H7a.5.5 0 0 0 .5-.5V17a.5.5 0 0 0-.5-.5H3.5a.5.5 0 0 0-.5.5v3.5a.5.5 0 0 0 .5.5m10.25 0h-3.5a.5.5 0 0 1-.5-.5V17a.5.5 0 0 1 .5-.5h3.5a.5.5 0 0 1 .5.5v3.5a.5.5 0 0 1-.5.5M17 21h3.5a.5.5 0 0 0 .5-.5V17a.5.5 0 0 0-.5-.5H17a.5.5 0 0 0-.5.5v3.5a.5.5 0 0 0 .5.5" clip-rule="evenodd" style="fill:#313234;fill:color(display-p3 .1922 .1961 .2039);fill-opacity:1"/></svg>