<svg xmlns="http://www.w3.org/2000/svg" width="24" height="24" fill="none" viewBox="0 0 24 24"><path fill="#313234" fill-rule="evenodd" d="M9.28 3.25h5.44a6.03 6.03 0 0 1 6.03 6.03v5.44c0 3.33-2.7 6.03-6.03 6.03H9.28c-3.33 0-6.03-2.7-6.03-6.03V9.28c0-3.33 2.7-6.03 6.03-6.03M22 14.72V9.28A7.28 7.28 0 0 0 14.72 2H9.28A7.28 7.28 0 0 0 2 9.28v5.44C2 18.742 5.259 22 9.28 22h5.44c4.021 0 7.28-3.259 7.28-7.28m-4.761-.522c-.176.42-.208.887-.098 1.33l.309 1.234a.566.566 0 0 1-.688.688l-1.235-.309a2.13 2.13 0 0 0-1.33.098 5.65 5.65 0 0 1-2.194.441c-3.127 0-5.683-2.552-5.683-5.678-.002-3.139 2.556-5.682 5.683-5.682s5.677 2.555 5.677 5.682c0 .778-.157 1.518-.441 2.194zm-5.242.958c1.44 0 2.694-.805 3.334-1.99a.283.283 0 0 0-.106-.377l-1.017-.61a.29.29 0 0 0-.403.121 2.034 2.034 0 0 1-3.62 0 .287.287 0 0 0-.402-.12l-1.017.61a.284.284 0 0 0-.106.375 3.79 3.79 0 0 0 3.333 1.992z" clip-rule="evenodd" style="fill:#313234;fill:color(display-p3 .1922 .1961 .2039);fill-opacity:1"/></svg>