<svg xmlns="http://www.w3.org/2000/svg" width="24" height="24" fill="none" viewBox="0 0 24 24"><path fill="#313234" d="m21.61 16.148-2.8-1.324a.68.68 0 0 0-.833.2q-.06.076-.125.147c-.21.234-.468.42-.756.552-.771.36-1.743.24-2.41-.294-.969-.738-1.188-2.18-.507-3.183.068-.1.145-.2.226-.29a15 15 0 0 1 1.64-1.64c.134-.11.277-.235.413-.34l.426-.327c.096-.066.337-.237.437-.309.17-.113.354-.228.523-.339.208-.12.484-.29.695-.399a14.6 14.6 0 0 1 1.943-.88 19 19 0 0 1 1.014-.325h.007a.6.6 0 0 0 .365-.833l-1.361-2.839a.683.683 0 0 0-.846-.347 29 29 0 0 0-1.16.434 19.4 19.4 0 0 0-4.74 2.839 6.65 6.65 0 0 0-3.869-3.316c-2.93-.974-6.17.242-7.787 2.807a.682.682 0 0 0 .286.98l2.8 1.326c.288.138.636.054.832-.2q.06-.077.124-.148c.212-.234.47-.42.757-.552a2.35 2.35 0 0 1 2.41.295c.969.738 1.188 2.179.507 3.183-.068.1-.145.2-.226.289a15 15 0 0 1-1.64 1.64c-.134.11-.277.235-.413.341l-.425.326c-.097.066-.338.238-.438.31-.17.112-.354.227-.523.338-.208.12-.484.291-.695.4-.617.338-1.283.636-1.943.88-.323.111-.688.233-1.014.324h-.007a.6.6 0 0 0-.365.833l1.361 2.839a.683.683 0 0 0 .846.347 29 29 0 0 0 1.16-.434 19.4 19.4 0 0 0 4.74-2.838 6.65 6.65 0 0 0 3.869 3.316c2.93.974 6.17-.243 7.787-2.808a.683.683 0 0 0-.286-.98"/></svg>