<svg width="24" height="24" viewBox="0 0 24 24" fill="none" xmlns="http://www.w3.org/2000/svg">
<path fill-rule="evenodd" clip-rule="evenodd" d="M9.8 3H14.2C17.9555 3 21 6.04446 21 9.8V14.2C21 17.9555 17.9555 21 14.2 21H9.8C6.04446 21 3 17.9555 3 14.2V9.8C3 6.04446 6.04446 3 9.8 3ZM1 9.8C1 4.93989 4.93989 1 9.8 1H14.2C19.0601 1 23 4.93989 23 9.8V14.2C23 19.0601 19.0601 23 14.2 23H9.8C4.93989 23 1 19.0601 1 14.2V9.8ZM17.9957 11.9826C17.9957 12.8047 17.8302 13.5864 17.5304 14.3V14.3019C17.3446 14.7451 17.3115 15.238 17.4274 15.7052L17.7529 17.0093C17.8633 17.447 17.466 17.8461 17.0264 17.7358L15.7224 17.4102C15.2552 17.2943 14.7623 17.3275 14.319 17.5132C13.6054 17.813 12.8237 17.9785 12.0015 17.9785C8.70006 17.9785 6.00186 15.284 6.00186 11.9826C6.00002 8.6682 8.68719 5.98288 12.0015 5.98288C15.303 5.98288 17.9957 8.68108 17.9957 11.9826ZM15.5167 13.211C14.8417 14.4635 13.5174 15.3133 11.9963 15.3133H11.9927C10.4716 15.3133 9.14732 14.4617 8.47231 13.211C8.3969 13.0712 8.4484 12.8965 8.5845 12.8137L9.65863 12.17C9.81129 12.0798 10.0026 12.1405 10.0835 12.2969C10.4403 12.9903 11.1613 13.4648 11.9945 13.4648C12.8277 13.4648 13.5487 12.9903 13.9055 12.2969C13.9864 12.1405 14.1795 12.0798 14.3304 12.17L15.4045 12.8137C15.5424 12.8965 15.5921 13.0712 15.5167 13.211Z" fill="#313234"/>
</svg>
