<svg xmlns="http://www.w3.org/2000/svg" width="24" height="24" fill="none" viewBox="0 0 24 24"><path fill="#313234" d="M4.936 4.923c2.301-2.297 5.48-3.312 8.729-2.788q.213.035.424.079a5.5 5.5 0 0 0-.905 1.872A8.4 8.4 0 0 0 12 4a7.93 7.93 0 0 0-5.65 2.338c-1.84 1.837-2.659 4.385-2.243 6.989.542 3.385 3.303 6.095 6.716 6.588a8 8 0 0 0 4.927-.855c.642-.344 1.357-.412 2.015-.193l1.656.552-.553-1.656c-.218-.655-.15-1.372.193-2.015a7.95 7.95 0 0 0 .853-4.934 5.5 5.5 0 0 0 1.871-.903l.012.049c.47 2.333.134 4.66-.971 6.728-.048.09-.119.268-.06.444l.869 2.602c.18.543.041 1.131-.364 1.535a1.5 1.5 0 0 1-1.535.364l-2.604-.869c-.174-.059-.352.012-.44.06A9.9 9.9 0 0 1 12 22q-.73 0-1.465-.107c-4.27-.616-7.725-4.01-8.403-8.25-.52-3.247.502-6.425 2.803-8.721M18.5 2a3.5 3.5 0 1 1 0 7 3.5 3.5 0 0 1 0-7"/></svg>