<svg xmlns="http://www.w3.org/2000/svg" width="24" height="24" fill="none" viewBox="0 0 24 24"><path fill="#000" d="M4.937 4.922c2.3-2.297 5.478-3.31 8.727-2.787q.17.028.336.06v2.05A8.423 8.423 0 0 0 11.998 4c-2.12 0-4.126.817-5.648 2.337-1.841 1.837-2.66 4.385-2.243 6.99.542 3.385 3.303 6.094 6.715 6.587a7.98 7.98 0 0 0 4.926-.854c.642-.344 1.357-.412 2.015-.193l1.656.551-.552-1.655c-.218-.656-.15-1.372.194-2.016A7.9 7.9 0 0 0 19.999 12H22a9.9 9.9 0 0 1-1.175 4.689c-.048.089-.118.267-.06.443l.868 2.603c.18.543.042 1.13-.362 1.535a1.5 1.5 0 0 1-1.536.363l-2.605-.868c-.174-.059-.35.012-.44.06A9.9 9.9 0 0 1 12 22q-.73 0-1.464-.106c-4.27-.616-7.726-4.01-8.404-8.251-.519-3.246.504-6.424 2.805-8.72M19 3.225c0-.644.752-.967 1.192-.512l2.552 2.648c.34.353.34.926 0 1.279l-2.552 2.647c-.44.456-1.192.133-1.192-.511V7h-1.1A2.9 2.9 0 0 0 15 9.9v.1a1 1 0 0 1-2 0v-.1A4.9 4.9 0 0 1 17.9 5H19z"/></svg>