<svg xmlns="http://www.w3.org/2000/svg" width="24" height="24" fill="none" viewBox="0 0 24 24"><path fill="#313234" d="M11 4.281a7.7 7.7 0 0 0-4.497 2.214 7.73 7.73 0 0 0-2.28 5.502c0 2.07.814 4.022 2.289 5.494a7.7 7.7 0 0 0 5.497 2.282 7.8 7.8 0 0 0 3.005-.602 4.45 4.45 0 0 1 2.778-.207l1.216.303c.163.04.31-.106.27-.27l-.303-1.217a4.45 4.45 0 0 1 .205-2.778c.27-.643.448-1.314.536-2.002h2.235a10 10 0 0 1-.728 2.873 2.2 2.2 0 0 0-.098 1.38l.008-.006.482 1.934a1.99 1.99 0 0 1-.526 1.9 1.99 1.99 0 0 1-1.9.526l-1.933-.482a2.2 2.2 0 0 0-1.38.098A9.9 9.9 0 0 1 12.01 22h-.006a9.95 9.95 0 0 1-7.065-2.93A9.94 9.94 0 0 1 2 12.003a9.94 9.94 0 0 1 2.929-7.075A9.92 9.92 0 0 1 11 2.049zm5.373-.901a3.003 3.003 0 1 1 4.247 4.247l-5.787 5.787a2 2 0 0 1-1.414.586H11a1 1 0 0 1-1-1v-2.419a2 2 0 0 1 .586-1.414zm2.832 1.415a1 1 0 0 0-1.416 0l-5.787 5.787v1.416h1.416l5.787-5.787c.39-.391.39-1.025 0-1.416"/></svg>