<svg xmlns="http://www.w3.org/2000/svg" width="24" height="24" fill="none" viewBox="0 0 24 24"><path fill="#313234" d="M14.72 2A7.28 7.28 0 0 1 22 9.28v5.44A7.28 7.28 0 0 1 14.72 22H9.28A7.28 7.28 0 0 1 2 14.72V9.28A7.28 7.28 0 0 1 9.28 2zM13 6.082a6.008 6.008 0 0 0-6.92 6.923 5.991 5.991 0 0 0 8.729 4.292c.274-.147.601-.158.897-.06l1.153.385a.6.6 0 0 0 .76-.759l-.384-1.15a1.15 1.15 0 0 1 .059-.903 6 6 0 0 0 .579-4.037c-.483-2.4-2.456-4.3-4.873-4.691m-1.04 8.075a.794.794 0 1 1 0 1.589.794.794 0 0 1 0-1.589m.73-5.77-.08 4.805h-1.297l-.08-4.804z"/></svg>