<svg xmlns="http://www.w3.org/2000/svg" width="24" height="24" fill="none" viewBox="0 0 24 24"><path fill="#313234" d="M2.13 13.675A10.013 10.013 0 0 1 13.664 2.137c4.028.652 7.318 3.817 8.123 7.817.494 2.455.074 4.78-.965 6.73-.246.46-.266 1.01-.1 1.506l.639 1.915a1 1 0 0 1-1.265 1.265l-1.923-.64c-.493-.165-1.037-.146-1.496.099-1.949 1.039-4.275 1.46-6.73.967-4.001-.805-7.166-4.093-7.819-8.12m9.803 1.92a1.322 1.322 0 1 0 .002 2.645 1.322 1.322 0 0 0-.002-2.645m-1.081-1.608h2.162l.133-8.007H10.72z"/></svg>