<svg xmlns="http://www.w3.org/2000/svg" width="24" height="24" fill="none" viewBox="0 0 24 24"><path fill="#313234" fill-rule="evenodd" d="M1.5 12c0-5.125 4.869-9 10.5-9s10.5 3.875 10.5 9-4.869 9-10.5 9q-.881 0-1.725-.12c-1.483 1.145-3.098 1.703-4.15 1.97a1.44 1.44 0 0 1-1.571-.61 1.52 1.52 0 0 1-.034-1.605c.27-.458.575-1.043.815-1.677C3.031 17.335 1.5 14.848 1.5 12M12 5c-4.862 0-8.5 3.288-8.5 7 0 2.283 1.343 4.375 3.536 5.679l.655.39-.202.735a11 11 0 0 1-.65 1.722c.799-.31 1.696-.775 2.503-1.465l.361-.309.467.085q.884.162 1.83.163c4.862 0 8.5-3.288 8.5-7S16.862 5 12 5m-1.004 9.58.753 1.754c.094.221.408.221.502 0l.753-1.755a3 3 0 0 1 1.575-1.575l1.755-.753a.273.273 0 0 0 0-.502l-1.755-.753a3 3 0 0 1-1.575-1.575l-.753-1.755a.273.273 0 0 0-.502 0l-.753 1.755a3 3 0 0 1-1.575 1.576l-1.755.752a.273.273 0 0 0 0 .502l1.755.753a3 3 0 0 1 1.576 1.575" clip-rule="evenodd" style="fill:#313234;fill:color(display-p3 .1922 .1961 .2039);fill-opacity:1"/></svg>