<svg xmlns="http://www.w3.org/2000/svg" width="24" height="24" fill="none" viewBox="0 0 24 24"><path fill="#313234" d="M2.13 13.675A10.013 10.013 0 0 1 13.663 2.137c4.03.652 7.318 3.817 8.124 7.817.494 2.455.074 4.78-.965 6.73-.246.46-.266 1.01-.1 1.506l.639 1.915a1 1 0 0 1-1.265 1.265l-1.923-.64c-.493-.165-1.037-.146-1.496.099-1.949 1.039-4.275 1.46-6.73.967-4.001-.805-7.166-4.093-7.819-8.12m15.135-4.852a1 1 0 0 0-1.413-.044l-5.448 5.12-2.32-2.228A1 1 0 0 0 6.7 13.114l2.985 2.866c.395.38 1.017.383 1.416.008l6.121-5.752a1 1 0 0 0 .044-1.413"/></svg>