<svg xmlns="http://www.w3.org/2000/svg" width="24" height="24" fill="none" viewBox="0 0 24 24"><path fill="#313234" fill-rule="evenodd" d="M20.723 18.19c-.166-.496-.147-1.046.1-1.507 1.038-1.949 1.458-4.274.964-6.729-.805-4-4.094-7.165-8.123-7.817A10.013 10.013 0 0 0 2.13 13.675c.653 4.028 3.817 7.316 7.818 8.121 2.456.494 4.782.072 6.731-.967.46-.245 1.003-.264 1.496-.1l1.923.641a1 1 0 0 0 1.264-1.265zm-4.754-7.055-2.542-.588 1.226-4.168c.086-.293-.276-.507-.49-.291l-6.077 6.093a.295.295 0 0 0 .142.495l2.542.588-1.225 4.168c-.086.293.275.507.49.291l6.076-6.093a.295.295 0 0 0-.142-.495" clip-rule="evenodd" style="fill:#313234;fill:color(display-p3 .1922 .1961 .2039);fill-opacity:1"/></svg>