<svg xmlns="http://www.w3.org/2000/svg" width="24" height="24" fill="none" viewBox="0 0 24 24"><path fill="#313234" fill-rule="evenodd" d="M20.822 16.683c-.246.461-.265 1.011-.099 1.507l.638 1.915a1 1 0 0 1-1.264 1.265l-1.37-.457-.553-.184c-.493-.164-1.037-.145-1.496.1-1.949 1.039-4.275 1.461-6.73.967-4.002-.805-7.166-4.093-7.819-8.121A10.013 10.013 0 0 1 13.664 2.137c4.03.652 7.318 3.817 8.123 7.817.494 2.455.074 4.78-.965 6.729M8.084 11.671l2.32 2.227 5.448-5.12a1 1 0 0 1 1.37 1.457L11.1 15.989a1.03 1.03 0 0 1-1.416-.008L6.7 13.113a1 1 0 0 1 1.385-1.442" clip-rule="evenodd"/></svg>