<svg xmlns="http://www.w3.org/2000/svg" width="24" height="24" fill="none" viewBox="0 0 24 24"><path fill="#313234" d="M4.937 4.922c2.302-2.297 5.484-3.31 8.727-2.787 4.054.656 7.321 3.8 8.131 7.825.47 2.335.135 4.662-.97 6.729-.047.09-.118.266-.06.443l.868 2.603a1.499 1.499 0 0 1-1.896 1.898l-2.606-.868c-.174-.058-.35.013-.44.06A9.9 9.9 0 0 1 12.002 22q-.73 0-1.465-.106c-4.27-.616-7.726-4.01-8.404-8.251-.519-3.246.505-6.425 2.805-8.72M11.999 4a7.93 7.93 0 0 0-5.65 2.338c-1.841 1.837-2.657 4.386-2.241 6.99.54 3.385 3.303 6.094 6.715 6.587a7.97 7.97 0 0 0 4.925-.855c.644-.343 1.358-.411 2.016-.192l1.655.551-.55-1.655c-.22-.657-.15-1.373.193-2.017.883-1.653 1.15-3.518.772-5.393A7.946 7.946 0 0 0 12 4m2.163 2.088c.215-.216.578-.002.492.291l-1.227 4.168 2.542.588a.295.295 0 0 1 .143.495l-6.077 6.093c-.215.216-.576.002-.49-.291l1.225-4.168-2.542-.588a.295.295 0 0 1-.142-.495z"/></svg>