<svg xmlns="http://www.w3.org/2000/svg" width="24" height="24" fill="none" viewBox="0 0 24 24"><path fill="#313234" d="M21.025 12.425c.609-.04 1.124.456 1.035 1.06a10 10 0 0 1-1.09 3.294c-.05.09-.121.271-.061.45l.602 1.806.282.848a1.52 1.52 0 0 1-.37 1.565 1.52 1.52 0 0 1-1.563.37l-.957-.319-1.695-.565c-.177-.06-.357.01-.447.06a10.2 10.2 0 0 1-3.25 1.083c-.554.085-1.033-.35-1.065-.91-.032-.564.404-1.04.961-1.14a8 8 0 0 0 2.395-.83c.311-.168.64-.272.971-.31a2.5 2.5 0 0 1 1.08.111l1.686.564-.563-1.688a2.5 2.5 0 0 1-.111-.51 2.65 2.65 0 0 1 .308-1.545q.21-.396.376-.806.317-.792.463-1.624c.088-.513.494-.93 1.013-.964M6.782 19.57c.32-.464.952-.574 1.452-.315q.46.238.944.417c.528.194.873.735.747 1.283-.127.549-.676.896-1.21.715a10 10 0 0 1-1.645-.727c-.492-.271-.607-.91-.288-1.373m-3.63-5.117c.542-.15 1.097.173 1.313.693q.199.48.457.93c.279.488.196 1.123-.252 1.461-.45.34-1.094.252-1.386-.23a10 10 0 0 1-.795-1.617c-.202-.525.121-1.087.663-1.237m4.53-3.756c.72 0 1.308.587 1.308 1.305 0 .72-.588 1.308-1.308 1.308a1.31 1.31 0 0 1-1.306-1.308 1.31 1.31 0 0 1 1.306-1.306m4.317 0a1.31 1.31 0 0 1 1.306 1.305A1.31 1.31 0 0 1 12 13.31c-.72 0-1.308-.589-1.308-1.308A1.31 1.31 0 0 1 12 10.696m4.315 0a1.31 1.31 0 0 1 1.307 1.305 1.31 1.31 0 0 1-1.307 1.308c-.72 0-1.307-.589-1.307-1.308a1.31 1.31 0 0 1 1.307-1.306M2.677 7.892c.227-.515.854-.685 1.343-.406.489.277.653.897.439 1.417q-.198.48-.334.982c-.147.543-.656.934-1.213.855-.557-.078-.95-.595-.817-1.141a10 10 0 0 1 .581-1.707m16.626-1.396c.449-.339 1.092-.25 1.384.23q.469.774.795 1.618c.202.524-.12 1.087-.662 1.236s-1.098-.172-1.313-.691a8 8 0 0 0-.458-.93c-.279-.488-.195-1.124.253-1.463M8.313 2.51c.525-.203 1.09.121 1.238.664.15.542-.172 1.097-.692 1.313a8 8 0 0 0-.925.457c-.488.28-1.125.196-1.464-.254s-.25-1.092.23-1.384a10 10 0 0 1 1.613-.796m4.947.423c.078-.558.596-.951 1.143-.818q.877.215 1.702.581c.514.228.684.855.406 1.344-.277.49-.899.655-1.42.44a8 8 0 0 0-.975-.333c-.543-.148-.935-.657-.857-1.214"/></svg>