<svg xmlns="http://www.w3.org/2000/svg" width="24" height="24" fill="none" viewBox="0 0 24 24"><path fill="#000" fill-opacity=".4" d="M4.936 4.922c2.302-2.297 5.485-3.311 8.728-2.787 4.054.656 7.322 3.8 8.132 7.825.47 2.335.134 4.662-.971 6.73-.047.09-.117.265-.06.442l.869 2.603c.18.543.041 1.131-.363 1.535-.405.405-.995.54-1.535.363l-2.604-.867c-.174-.058-.352.011-.44.058A9.9 9.9 0 0 1 12 22q-.728 0-1.464-.105c-4.27-.617-7.725-4.01-8.403-8.251-.52-3.246.503-6.426 2.803-8.722M12 4A7.93 7.93 0 0 0 6.35 6.338c-1.842 1.837-2.659 4.385-2.243 6.99.541 3.385 3.303 6.094 6.715 6.587a7.97 7.97 0 0 0 4.926-.854c.644-.343 1.359-.413 2.017-.194l1.655.552-.552-1.654c-.219-.657-.15-1.374.193-2.018.883-1.653 1.15-3.518.773-5.392a7.945 7.945 0 0 0-6.488-6.246A8.4 8.4 0 0 0 11.999 4m4.244 5.172L13.413 12l2.83 2.83-1.414 1.413-2.83-2.829-2.827 2.83-1.414-1.415L10.586 12 7.758 9.172l1.414-1.414L12 10.586l2.829-2.828z"/></svg>