<svg xmlns="http://www.w3.org/2000/svg" width="24" height="24" fill="none" viewBox="0 0 24 24"><path fill="#313234" fill-rule="evenodd" d="M19.061 15.747c-.343.644-.412 1.36-.193 2.017l.551 1.655-1.655-.552c-.658-.219-1.372-.15-2.016.193a7.97 7.97 0 0 1-4.926.855c-3.412-.493-6.174-3.202-6.715-6.588-.416-2.604.401-5.152 2.243-6.989A7.93 7.93 0 0 1 12 4c.443 0 .894.036 1.345.11a7.945 7.945 0 0 1 6.49 6.244c.377 1.875.11 3.74-.774 5.393m1.704 1.385c-.058-.177.013-.353.06-.443 1.105-2.067 1.44-4.394.97-6.729-.81-4.025-4.077-7.169-8.13-7.825-3.244-.524-6.427.49-8.729 2.787-2.3 2.296-3.323 5.475-2.804 8.721.678 4.241 4.134 7.635 8.404 8.251Q11.272 22 12 22a9.9 9.9 0 0 0 4.691-1.176c.09-.047.266-.117.44-.059l2.605.868c.54.178 1.13.042 1.535-.363.404-.404.543-.992.362-1.535zm-8.832-1.537a1.322 1.322 0 1 0 .001 2.645 1.322 1.322 0 0 0 0-2.645m1.214-9.615-.133 8.007h-2.162L10.72 5.98z" clip-rule="evenodd" style="fill:#313234;fill:color(display-p3 .1922 .1961 .2039);fill-opacity:1"/></svg>