<svg xmlns="http://www.w3.org/2000/svg" width="24" height="24" fill="none" viewBox="0 0 24 24"><path fill="#313234" fill-rule="evenodd" d="M3.707 2.707a1 1 0 0 0 0 1.414l16.97 16.97a1 1 0 0 0 1.415-1.413l-1.967-1.968C21.599 16.177 22.5 14.204 22.5 12c0-5.125-4.869-9-10.5-9-1.922 0-3.755.451-5.336 1.25L5.121 2.707a1 1 0 0 0-1.414 0M8.163 5.75l10.543 10.543C19.84 15.086 20.5 13.582 20.5 12c0-3.712-3.638-7-8.5-7-1.4 0-2.698.272-3.837.749M1.5 12c0-2.33 1.006-4.4 2.633-5.967l1.416 1.416C4.26 8.695 3.5 10.303 3.5 12c0 2.283 1.343 4.375 3.536 5.679l.655.39-.202.735a11 11 0 0 1-.65 1.722c.799-.31 1.696-.775 2.503-1.465l.361-.309.467.085q.884.162 1.83.163c1.548 0 2.971-.333 4.193-.907l1.48 1.48C16.018 20.48 14.06 21 12 21q-.881 0-1.725-.12c-1.483 1.145-3.098 1.703-4.15 1.97a1.44 1.44 0 0 1-1.571-.61 1.52 1.52 0 0 1-.034-1.605c.27-.458.575-1.043.815-1.677C3.031 17.335 1.5 14.848 1.5 12" clip-rule="evenodd" style="fill:#313234;fill:color(display-p3 .1922 .1961 .2039);fill-opacity:1"/></svg>