<svg xmlns="http://www.w3.org/2000/svg" width="24" height="24" fill="none" viewBox="0 0 24 24"><path fill="#313234" d="M10.687 2.093c2.557-.357 5.273.322 7.333 1.909a9.95 9.95 0 0 1 3.874 6.52 10.1 10.1 0 0 1-.18 3.858 10 10 0 0 1-.65 1.83c-.065.149-.144.291-.215.436-.057.107-.062.13-.083.197a.5.5 0 0 0 0 .287l.826 2.475c.237.738.106 1.141-.282 1.625-.198.215-.47.365-.705.426-.224.06-.52.086-.867-.023l-2.136-.711-.414-.139c-.12-.04-.105-.03-.17-.04a.63.63 0 0 0-.32.078 10 10 0 0 1-3.69 1.128c-2.577.273-5.26-.52-7.268-2.156-2.018-1.61-3.415-4.043-3.664-6.636-.334-2.565.446-5.255 2.03-7.3 1.603-2.025 3.99-3.47 6.58-3.764M16.814 5.6c-1.648-1.27-3.804-1.808-5.866-1.523-2.071.23-3.976 1.392-5.264 3.009-1.262 1.644-1.891 3.772-1.62 5.847.194 2.066 1.306 4 2.928 5.3a7.99 7.99 0 0 0 5.813 1.726 8 8 0 0 0 2.965-.91c.4-.21.871-.33 1.364-.303.227.007.53.082.686.139l.415.138 1.185.396-.55-1.657a2.5 2.5 0 0 1-.037-1.438c.055-.215.164-.462.246-.612.057-.117.121-.229.172-.349q.331-.707.52-1.463a8.1 8.1 0 0 0 .142-3.091 7.95 7.95 0 0 0-3.1-5.21m-4.872 10.086a1.243 1.243 0 1 1 0 2.485 1.243 1.243 0 0 1 0-2.485m.056-9.662c2.154 0 3.842 1.521 3.842 3.462 0 1.653-1.392 2.532-2.224 3.055-.236.15-.786.574-.786 1.292v.708h-1.9v-.708c0-1.155.625-2.24 1.672-2.9.867-.546 1.338-.939 1.338-1.447 0-1.013-1.001-1.561-1.942-1.561-1.034 0-1.94.73-1.94 1.561H8.157c0-1.876 1.758-3.462 3.841-3.462"/></svg>