<svg xmlns="http://www.w3.org/2000/svg" width="24" height="24" fill="none" viewBox="0 0 24 24"><path fill="#313234" d="M20.59 6.86c.58.966.984 2.01 1.203 3.099.47 2.334.135 4.66-.969 6.729-.048.09-.12.266-.06.442l.867 2.604a1.497 1.497 0 0 1-1.896 1.897l-2.605-.867c-.175-.06-.351.011-.44.06A9.9 9.9 0 0 1 11.999 22q-.728-.001-1.464-.106c-.094-.014-.186-.042-.28-.058l-.002.013q-.427-.076-.844-.189l-.031-.01a10 10 0 0 1-.97-.322q-.114-.046-.226-.093a10 10 0 0 1-.813-.38c-.055-.029-.11-.053-.166-.084q-.038-.02-.078-.04l.004-.006a10 10 0 0 1-.877-.543l1.151-1.635q.361.25.747.462c.34.188.693.344 1.051.478.104.04.209.07.313.106q.444.146.901.237c.136.028.27.065.407.084a7.97 7.97 0 0 0 4.926-.854 2.54 2.54 0 0 1 2.015-.194l1.655.553-.552-1.656c-.219-.656-.15-1.372.194-2.017.884-1.654 1.15-3.518.772-5.392a7.7 7.7 0 0 0-.958-2.465zM4.609 15.083a8 8 0 0 0 1.421 2.24l-1.49 1.334a10 10 0 0 1-1.775-2.802zM4.29 9.858a8 8 0 0 0-.275 2.643l-1.996.12a10.059 10.059 0 0 1 .344-3.297zm2.975-4.306a8 8 0 0 0-1.852 1.905L3.77 6.319a10 10 0 0 1 2.308-2.378zM15.58 2.65a10 10 0 0 1 2.857 1.688l-1.287 1.53a8 8 0 0 0-2.285-1.348zm-3.256-.645-.06 1.999L12 4c-.808 0-1.605.12-2.368.355L9.04 2.446A10 10 0 0 1 12 2z"/></svg>