<svg xmlns="http://www.w3.org/2000/svg" width="24" height="24" fill="none" viewBox="0 0 24 24"><path fill="#313234" d="M12 3c5.631 0 10.5 3.875 10.5 9s-4.869 9-10.5 9a12 12 0 0 1-1.725-.121c-1.483 1.145-3.098 1.704-4.151 1.97a1.44 1.44 0 0 1-1.57-.609 1.52 1.52 0 0 1-.033-1.605c.27-.458.574-1.043.814-1.677C3.031 17.335 1.5 14.848 1.5 12c0-5.125 4.869-9 10.5-9m0 2c-4.862 0-8.5 3.288-8.5 7 0 2.283 1.344 4.374 3.536 5.679l.655.39-.203.735c-.17.617-.404 1.203-.648 1.721.798-.31 1.695-.774 2.502-1.464l.361-.309.467.085q.883.162 1.83.163c4.862 0 8.5-3.288 8.5-7S16.862 5 12 5m-.251 2.666a.273.273 0 0 1 .502 0l.753 1.755a3 3 0 0 0 1.575 1.575l1.755.753c.22.095.22.407 0 .502l-1.755.753a3 3 0 0 0-1.575 1.575l-.753 1.755a.273.273 0 0 1-.502 0l-.753-1.755a3 3 0 0 0-1.575-1.575l-1.755-.753a.273.273 0 0 1 0-.502l1.755-.753a3 3 0 0 0 1.575-1.575z"/></svg>