<svg xmlns="http://www.w3.org/2000/svg" width="24" height="24" fill="none" viewBox="0 0 24 24"><path fill="#000" fill-rule="evenodd" d="M2.13 13.675A10.013 10.013 0 0 1 13.663 2.137c4.03.652 7.319 3.817 8.124 7.817.493 2.455.073 4.78-.965 6.729-.246.46-.266 1.01-.1 1.507l.639 1.915a1 1 0 0 1-1.265 1.265l-1.923-.641c-.493-.164-1.037-.145-1.496.1-1.949 1.04-4.275 1.46-6.73.967-4.001-.805-7.166-4.093-7.819-8.121m9.812 2.01a1.244 1.244 0 1 0 0 2.489 1.244 1.244 0 0 0 0-2.488m.056-9.66c-2.082 0-3.841 1.586-3.841 3.461h1.9c0-.83.907-1.561 1.941-1.561.94 0 1.94.548 1.94 1.561 0 .508-.47.902-1.336 1.448-1.046.66-1.672 1.744-1.672 2.9v.707h1.9v-.708c0-.718.548-1.143.785-1.292.832-.523 2.225-1.401 2.225-3.055 0-1.94-1.688-3.461-3.842-3.461" clip-rule="evenodd"/></svg>