<svg xmlns="http://www.w3.org/2000/svg" width="24" height="24" fill="none" viewBox="0 0 24 24"><path fill="#313234" fill-rule="evenodd" d="M21.997 12.006c0 1.37-.276 2.674-.776 3.864v.003a3.73 3.73 0 0 0-.172 2.34l.543 2.174a.998.998 0 0 1-1.211 1.211l-2.174-.543a3.73 3.73 0 0 0-2.34.172c-1.19.5-2.493.776-3.864.776C6.5 22.003 2 17.51 2 12.006 1.997 6.48 6.477 2.003 12.003 2.003c5.505 0 9.994 4.499 9.994 10.003m-15.79-.013c0 .744.608 1.353 1.352 1.353s1.353-.609 1.353-1.353-.608-1.352-1.353-1.352c-.744 0-1.353.608-1.353 1.352m5.833 1.353a1.357 1.357 0 0 1-1.353-1.353c0-.744.61-1.352 1.353-1.352.745 0 1.353.608 1.353 1.352s-.609 1.353-1.353 1.353m3.128-1.353c0 .744.608 1.353 1.353 1.353.744 0 1.353-.609 1.353-1.353s-.61-1.352-1.353-1.352c-.745 0-1.353.608-1.353 1.352" clip-rule="evenodd"/></svg>