<svg xmlns="http://www.w3.org/2000/svg" width="24" height="24" fill="none" viewBox="0 0 24 24"><path fill="#313234" fill-rule="evenodd" d="m12 4 .266.004.059-1.999L12 2c-1.01 0-2.005.15-2.959.446l.591 1.91A8 8 0 0 1 12 4m-5.922-.058 1.186 1.61a8 8 0 0 0-1.85 1.905L3.768 6.32a10 10 0 0 1 2.31-2.378m14.746 12.746c-.048.09-.12.266-.06.442l.867 2.605c.181.542.042 1.13-.362 1.535a1.5 1.5 0 0 1-1.535.362l-2.604-.868c-.175-.06-.351.012-.44.06A9.9 9.9 0 0 1 11.999 22q-.728 0-1.464-.106-.075-.013-.15-.031-.064-.016-.13-.027l-.002.013a10 10 0 0 1-.862-.194l-.013-.004a10 10 0 0 1-.97-.323q-.115-.045-.227-.092a10 10 0 0 1-.812-.38l-.074-.038-.092-.046q-.017-.01-.036-.019l-.042-.021.004-.007a10 10 0 0 1-.877-.543l1.151-1.635a8 8 0 0 0 .747.462c.34.188.693.345 1.051.479q.103.037.206.07l.107.035q.444.146.901.237l.136.03c.09.02.18.041.271.054a7.97 7.97 0 0 0 4.926-.854 2.54 2.54 0 0 1 2.015-.194l1.656.553-.553-1.656c-.218-.656-.15-1.372.194-2.017.883-1.654 1.15-3.518.772-5.392a7.7 7.7 0 0 0-.957-2.465l1.715-1.03c.58.968.984 2.01 1.203 3.1.47 2.334.135 4.661-.969 6.729M15.581 2.65c1.038.398 2 .965 2.857 1.687l-1.287 1.53a8 8 0 0 0-2.285-1.348zM4 12c0-.73.098-1.45.29-2.142l-1.928-.534a10 10 0 0 0-.343 3.297l1.996-.12A8 8 0 0 1 4 12m.539 6.658a10 10 0 0 1-1.775-2.801l1.845-.773a8 8 0 0 0 1.42 2.24z" clip-rule="evenodd"/></svg>