<svg xmlns="http://www.w3.org/2000/svg" width="24" height="24" fill="none" viewBox="0 0 24 24"><path fill="#313234" d="M4.937 4.922c2.302-2.297 5.484-3.31 8.727-2.787a9.95 9.95 0 0 1 8.131 7.825c.47 2.335.135 4.662-.97 6.729-.047.09-.118.266-.06.443l.868 2.603a1.499 1.499 0 0 1-1.896 1.898l-2.606-.868c-.174-.058-.35.013-.44.06A9.9 9.9 0 0 1 12.002 22q-.73 0-1.465-.106c-4.27-.616-7.726-4.01-8.404-8.251-.519-3.246.505-6.425 2.805-8.72M11.999 4a7.93 7.93 0 0 0-5.65 2.338c-1.841 1.837-2.657 4.386-2.241 6.99.54 3.385 3.303 6.094 6.715 6.587a7.97 7.97 0 0 0 4.925-.855c.644-.343 1.358-.411 2.016-.192l1.655.551-.55-1.655c-.22-.657-.15-1.373.193-2.017.883-1.653 1.15-3.518.772-5.393A7.946 7.946 0 0 0 12 4m4.243 5.171L13.413 12l2.83 2.83-1.415 1.413L12 13.414l-2.828 2.83-1.414-1.414 2.828-2.83-2.828-2.828 1.414-1.414L12 10.585l2.83-2.828z"/></svg>