<svg xmlns="http://www.w3.org/2000/svg" width="24" height="24" fill="none" viewBox="0 0 24 24"><path fill="#313234" fill-rule="evenodd" d="M12 3C6.369 3 1.5 6.875 1.5 12c0 2.848 1.531 5.335 3.835 6.958-.24.634-.545 1.219-.815 1.677-.311.529-.266 1.15.034 1.606a1.44 1.44 0 0 0 1.57.609c1.053-.267 2.668-.825 4.15-1.97Q11.12 21 12 21c3.09 0 5.951-1.167 7.904-3.068a6.05 6.05 0 0 1-2.9-.272C15.62 18.496 13.903 19 12 19q-.946-.001-1.83-.163l-.467-.085-.36.309c-.808.69-1.705 1.155-2.503 1.465a11 11 0 0 0 .649-1.722l.202-.735-.655-.39C4.843 16.375 3.5 14.283 3.5 12c0-3.712 3.638-7 8.5-7 1.904 0 3.62.504 5.003 1.34a6 6 0 0 1 2.9-.272C17.952 4.168 15.09 3 12 3m6 6a1 1 0 1 1 2 0v2h2a1 1 0 1 1 0 2h-2v2a1 1 0 1 1-2 0v-2h-2a1 1 0 1 1 0-2h2z" clip-rule="evenodd" style="fill:#313234;fill:color(display-p3 .1922 .1961 .2039);fill-opacity:1"/></svg>