<svg xmlns="http://www.w3.org/2000/svg" width="24" height="24" fill="none" viewBox="0 0 24 24"><path fill="#313234" fill-rule="evenodd" d="m20.767 17.13.825 2.475c.237.738.106 1.141-.282 1.624-.198.216-.47.367-.705.428a1.53 1.53 0 0 1-.868-.024l-2.135-.712-.415-.138c-.094-.031-.104-.032-.136-.036l-.032-.004a.63.63 0 0 0-.322.078 10 10 0 0 1-3.689 1.128c-2.577.273-5.26-.52-7.269-2.156-2.018-1.611-3.414-4.043-3.662-6.636-.335-2.565.445-5.255 2.028-7.3 1.603-2.025 3.991-3.469 6.581-3.764 2.557-.357 5.274.322 7.334 1.909a9.95 9.95 0 0 1 3.873 6.52 10.1 10.1 0 0 1-.18 3.857 10 10 0 0 1-.786 2.112q-.04.078-.078.155c-.053.1-.061.126-.079.182l-.004.014a.5.5 0 0 0 0 .288m-1.898.632a2.5 2.5 0 0 1-.036-1.438c.055-.215.164-.462.246-.612q.03-.062.063-.125.058-.109.11-.224.33-.707.518-1.463a8.1 8.1 0 0 0 .143-3.091 7.95 7.95 0 0 0-3.099-5.21c-1.648-1.27-3.804-1.807-5.866-1.522-2.071.229-3.975 1.392-5.264 3.01-1.261 1.643-1.892 3.77-1.62 5.846.194 2.066 1.306 4 2.928 5.3a7.99 7.99 0 0 0 5.813 1.726 8 8 0 0 0 2.965-.91c.4-.21.871-.33 1.364-.303.227.007.53.081.686.138l.415.14 1.185.395zm-5.684-.833a1.243 1.243 0 1 1-2.486.001 1.243 1.243 0 0 1 2.486-.001M10.93 14.54h1.9v-.708c0-.719.549-1.143.785-1.292.832-.523 2.225-1.402 2.225-3.055 0-1.941-1.688-3.462-3.842-3.462-2.083 0-3.841 1.586-3.841 3.462h1.9c0-.832.907-1.561 1.941-1.561.94 0 1.941.547 1.941 1.56 0 .509-.47.902-1.337 1.448-1.047.66-1.672 1.744-1.672 2.9z" clip-rule="evenodd"/></svg>