<svg xmlns="http://www.w3.org/2000/svg" width="24" height="24" fill="none" viewBox="0 0 24 24"><path fill="#000" fill-opacity=".4" d="M5.55 7.45C4.26 8.696 3.5 10.304 3.5 12c0 2.283 1.344 4.375 3.536 5.679l.655.39-.203.735c-.17.617-.404 1.203-.648 1.722.798-.31 1.695-.775 2.502-1.465l.361-.309.467.085Q11.053 19 12 19c1.547 0 2.97-.334 4.191-.908l1.48 1.479A11.8 11.8 0 0 1 12 21a12 12 0 0 1-1.725-.122c-1.483 1.145-3.098 1.704-4.151 1.97a1.44 1.44 0 0 1-1.57-.609 1.52 1.52 0 0 1-.033-1.605c.27-.458.574-1.043.814-1.677C3.031 17.335 1.5 14.848 1.5 12c0-2.33 1.007-4.4 2.634-5.966zM3.707 2.707a1 1 0 0 1 1.414 0L6.663 4.25A11.9 11.9 0 0 1 12 3c5.631 0 10.5 3.875 10.5 9 0 2.204-.903 4.175-2.378 5.708l1.97 1.97a1 1 0 1 1-1.414 1.414L3.707 4.122a1 1 0 0 1 0-1.415M12 5c-1.4 0-2.696.275-3.835.751L18.703 16.29C19.837 15.083 20.5 13.581 20.5 12c0-3.712-3.638-7-8.5-7"/></svg>