<svg xmlns="http://www.w3.org/2000/svg" width="24" height="24" fill="none" viewBox="0 0 24 24"><path fill="#313234" d="M4.936 4.922c2.301-2.297 5.48-3.31 8.729-2.787 4.053.656 7.32 3.8 8.13 7.825.47 2.334.135 4.66-.97 6.729-.048.089-.119.267-.06.443l.869 2.603c.18.543.041 1.13-.364 1.535a1.5 1.5 0 0 1-1.535.363l-2.604-.868c-.174-.059-.352.012-.44.06A9.9 9.9 0 0 1 12 22q-.73 0-1.465-.106c-4.27-.616-7.725-4.01-8.403-8.251-.52-3.246.502-6.424 2.803-8.72M12 4a7.93 7.93 0 0 0-5.65 2.338c-1.84 1.837-2.659 4.385-2.243 6.99.542 3.385 3.303 6.094 6.716 6.587a8 8 0 0 0 4.927-.854c.642-.344 1.357-.412 2.014-.193l1.657.551-.553-1.655c-.218-.656-.15-1.372.193-2.016.884-1.655 1.152-3.52.775-5.394A7.95 7.95 0 0 0 11.999 4m3.853 4.779a1 1 0 0 1 1.37 1.457L11.1 15.988a1.03 1.03 0 0 1-1.416-.007L6.7 13.114a1 1 0 1 1 1.385-1.443l2.32 2.227z"/></svg>