<svg xmlns="http://www.w3.org/2000/svg" width="24" height="24" fill="none" viewBox="0 0 24 24"><path fill="#313234" fill-rule="evenodd" d="M18.5 10a3.5 3.5 0 1 0 0-7 3.5 3.5 0 0 0 0 7M12 4q.791 0 1.547.106a5.5 5.5 0 0 0 7.9 7.04q.053.42.053.854c0 4.418-4.253 8-9.5 8q-1.035-.002-2.008-.179c-1.416 1.211-3.053 1.791-4.113 2.06-.422.106-.718-.364-.497-.739.388-.659.865-1.595 1.143-2.604C4.09 17.09 2.5 14.701 2.5 12c0-4.418 4.253-8 9.5-8" clip-rule="evenodd" style="fill:#313234;fill:color(display-p3 .1922 .1961 .2039);fill-opacity:1"/></svg>