<svg xmlns="http://www.w3.org/2000/svg" width="24" height="24" fill="none" viewBox="0 0 24 24"><path fill="#313234" d="M12.003 2.003c5.504 0 9.994 4.498 9.994 10.003 0 1.37-.276 2.674-.776 3.864v.003a3.73 3.73 0 0 0-.171 2.34l.542 2.174a1 1 0 0 1-1.211 1.212l-2.174-.543a3.73 3.73 0 0 0-2.34.171c-1.19.5-2.493.776-3.864.776C6.499 22.003 2 17.51 2 12.006 1.997 6.48 6.477 2.003 12.003 2.003M7.56 10.64c-.745 0-1.354.609-1.354 1.352 0 .745.61 1.353 1.354 1.353s1.352-.608 1.352-1.353c0-.743-.608-1.352-1.352-1.352m4.48 0c-.743 0-1.353.609-1.353 1.352 0 .745.61 1.353 1.353 1.353.745 0 1.352-.608 1.353-1.353 0-.743-.608-1.352-1.353-1.352m4.48 0c-.744 0-1.352.609-1.352 1.352 0 .745.608 1.352 1.352 1.353s1.354-.608 1.354-1.353c0-.743-.61-1.352-1.354-1.352"/></svg>