<svg xmlns="http://www.w3.org/2000/svg" width="24" height="24" fill="none" viewBox="0 0 24 24"><path fill="#313234" d="M12.004 2a9.92 9.92 0 0 1 7.065 2.94A9.93 9.93 0 0 1 22 12.006a9.9 9.9 0 0 1-.777 3.866 2.2 2.2 0 0 0-.098 1.38l.008-.006.482 1.934a1.99 1.99 0 0 1-.526 1.9 1.99 1.99 0 0 1-1.9.526l-1.933-.482a2.2 2.2 0 0 0-1.38.098A9.9 9.9 0 0 1 12.01 22h-.006a9.95 9.95 0 0 1-7.065-2.93A9.94 9.94 0 0 1 2 12.003a9.94 9.94 0 0 1 2.929-7.075A9.93 9.93 0 0 1 12 2zm.002 2.216h-.003c-2.078 0-4.033.81-5.5 2.28a7.73 7.73 0 0 0-2.28 5.501c0 2.07.814 4.022 2.289 5.494a7.7 7.7 0 0 0 5.497 2.282 7.8 7.8 0 0 0 3.005-.602 4.45 4.45 0 0 1 2.778-.207l1.216.303c.163.04.31-.106.27-.27l-.303-1.217a4.45 4.45 0 0 1 .205-2.778c.4-.952.602-1.963.602-3.005 0-2.07-.81-4.021-2.282-5.496a7.73 7.73 0 0 0-5.494-2.288zM7.56 10.64c.744 0 1.352.609 1.352 1.352 0 .745-.608 1.353-1.352 1.353a1.357 1.357 0 0 1-1.354-1.353c0-.743.609-1.352 1.354-1.352m4.48 0c.745 0 1.353.609 1.353 1.352 0 .745-.609 1.353-1.353 1.353a1.357 1.357 0 0 1-1.353-1.353c0-.743.61-1.352 1.353-1.352m4.48 0c.744 0 1.354.609 1.354 1.352 0 .745-.61 1.353-1.354 1.353a1.356 1.356 0 0 1-1.352-1.353c0-.743.608-1.352 1.352-1.352"/></svg>