<svg xmlns="http://www.w3.org/2000/svg" width="24" height="24" fill="none" viewBox="0 0 24 24"><path fill="#313234" d="M23.298 5.703a.994.994 0 0 0-1.406 0L11.367 16.228l-4.294-4.294a.993.993 0 0 0-1.405 1.404l4.991 4.993a1 1 0 0 0 1.415 0L23.297 7.109a.994.994 0 0 0 0-1.406"/><path fill="#313234" d="M18.332 5.703a.994.994 0 0 0-1.406 0l-6.264 6.265a.993.993 0 1 0 1.405 1.405l6.265-6.264a.994.994 0 0 0 0-1.406M.703 13.339a.993.993 0 0 1 1.405-1.405l4.997 4.997A.993.993 0 1 1 5.7 18.336z"/></svg>