<svg xmlns="http://www.w3.org/2000/svg" width="24" height="24" fill="none" viewBox="0 0 24 24"><path fill="#313234" fill-rule="evenodd" d="M13.36 1.26a2 2 0 0 0-2.72 0l-1.054.976a1.5 1.5 0 0 1-1.175.392L6.998 2.48a2 2 0 0 0-2.166 1.58l-.325 1.553a1.5 1.5 0 0 1-.692.976l-1.332.806a2 2 0 0 0-.806 2.492l.648 1.527a1.5 1.5 0 0 1 0 1.172l-.648 1.527a2 2 0 0 0 .806 2.492l1.332.806a1.5 1.5 0 0 1 .692.976l.325 1.553a2 2 0 0 0 2.166 1.58l1.413-.148a1.5 1.5 0 0 1 1.175.392l1.055.977a2 2 0 0 0 2.718 0l1.055-.977a1.5 1.5 0 0 1 1.175-.392l1.413.148a2 2 0 0 0 2.166-1.58l.325-1.553a1.5 1.5 0 0 1 .692-.976l1.332-.806a2 2 0 0 0 .806-2.492l-.648-1.527a1.5 1.5 0 0 1 0-1.172l.648-1.527a2 2 0 0 0-.806-2.492l-1.332-.806a1.5 1.5 0 0 1-.692-.976l-.325-1.553a2 2 0 0 0-2.166-1.58l-1.412.148a1.5 1.5 0 0 1-1.176-.392zM8.083 11.67l2.32 2.228 5.448-5.12a1 1 0 0 1 1.37 1.457L11.1 15.989a1.03 1.03 0 0 1-1.416-.008L6.7 13.113a1 1 0 0 1 1.385-1.442" clip-rule="evenodd"/></svg>