<svg width="24" height="24" viewBox="0 0 24 24" fill="none" xmlns="http://www.w3.org/2000/svg">
<path fill-rule="evenodd" clip-rule="evenodd" d="M22 12C22 17.523 17.5226 22 12 22C6.47672 22 2 17.5233 2 12C2 6.47672 6.47672 2 12 2C17.5226 2 22 6.47704 22 12ZM20 12C20 7.58165 16.4181 4 12 4C7.58128 4 4 7.58128 4 12C4 16.4187 7.58128 20 12 20C16.4181 20 20 16.4184 20 12ZM8.08406 11.6708L10.4035 13.898L15.852 8.77854C16.2544 8.40048 16.887 8.42018 17.2651 8.82254C17.6431 9.22487 17.6234 9.85746 17.2212 10.2355L11.1002 15.9881C10.7014 16.3629 10.0788 16.3596 9.68408 15.9805L6.69867 13.1135C6.30037 12.731 6.28747 12.0981 6.66987 11.6997C7.05239 11.3011 7.6856 11.2882 8.08406 11.6708Z" fill="#313234"/>
</svg>
