<svg width="24" height="24" viewBox="0 0 24 24" fill="none" xmlns="http://www.w3.org/2000/svg">
<path fill-rule="evenodd" clip-rule="evenodd" d="M10.4035 13.898L8.08406 11.6708C7.6856 11.2882 7.05239 11.3011 6.66987 11.6997C6.28747 12.0981 6.30037 12.731 6.69867 13.1135L9.68408 15.9805C10.0788 16.3596 10.7014 16.3629 11.1002 15.9881L17.2212 10.2355C17.6234 9.85746 17.6431 9.22487 17.2651 8.82254C16.887 8.42018 16.2544 8.40048 15.852 8.77854L10.4035 13.898ZM12.0002 2.0004C6.48624 2.0004 2.00024 6.4864 2.00024 12.0004C2.00024 17.5134 6.48624 22.0004 12.0002 22.0004C17.5142 22.0004 22.0002 17.5134 22.0002 12.0004C22.0002 6.4864 17.5142 2.0004 12.0002 2.0004Z" fill="#313234"/>
</svg>
