<svg xmlns="http://www.w3.org/2000/svg" width="24" height="24" fill="none" viewBox="0 0 24 24"><path fill="#313234" d="M10.641 1.259a2 2 0 0 1 2.719 0l1.053.978c.317.293.746.436 1.176.391l1.413-.148a2 2 0 0 1 2.166 1.58l.325 1.552a1.5 1.5 0 0 0 .692.977l1.332.806a2 2 0 0 1 .806 2.493l-.648 1.526a1.5 1.5 0 0 0 0 1.172l.648 1.527a2 2 0 0 1-.806 2.493l-1.332.804c-.356.216-.607.57-.692.978l-.325 1.553a2 2 0 0 1-2.166 1.579l-1.413-.148a1.5 1.5 0 0 0-1.176.392l-1.053.976a2 2 0 0 1-2.719 0l-1.055-.976a1.5 1.5 0 0 0-1.176-.392l-1.412.148a2 2 0 0 1-2.166-1.58l-.325-1.552a1.5 1.5 0 0 0-.691-.978l-1.332-.804a2 2 0 0 1-.807-2.494l.648-1.526a1.5 1.5 0 0 0 0-1.172l-.648-1.526a2 2 0 0 1 .807-2.493l1.332-.806a1.5 1.5 0 0 0 .691-.977l.325-1.552a2 2 0 0 1 2.166-1.58l1.412.148a1.5 1.5 0 0 0 1.176-.391zm6.624 7.563a1 1 0 0 0-1.413-.043l-5.448 5.119-2.32-2.227A1 1 0 0 0 6.7 13.114l2.985 2.867a1.03 1.03 0 0 0 1.416.008l6.121-5.754a1 1 0 0 0 .044-1.413"/></svg>