<svg xmlns="http://www.w3.org/2000/svg" width="24" height="24" fill="none" viewBox="0 0 24 24"><path fill="#313234" fill-rule="evenodd" d="M20.049 11.999c0 4.438-3.611 8.049-8.049 8.049s-8.049-3.611-8.049-8.049S7.562 3.951 12 3.951 20.049 7.562 20.049 12M2 11.999c0 5.515 4.485 10 10 10s10-4.485 10-10S17.515 2 12 2 2 6.484 2 11.999m10-5.978a1 1 0 0 1 1 1v4.315l2.64 1.352a1 1 0 0 1-.912 1.78l-3.184-1.63a1 1 0 0 1-.544-.89V7.02a1 1 0 0 1 1-1" clip-rule="evenodd" style="fill:#313234;fill:color(display-p3 .1922 .1961 .2039);fill-opacity:1"/></svg>