<svg width="24" height="24" viewBox="0 0 24 24" fill="none" xmlns="http://www.w3.org/2000/svg">
<path fill-rule="evenodd" clip-rule="evenodd" d="M2 11.999C2 17.5144 6.4846 21.999 12 21.999C17.5154 21.999 22 17.5144 22 11.999C22 6.48443 17.5152 2 12 2C6.48477 2 2 6.48443 2 11.999ZM13 7C13.5523 7 14 7.44771 14 8V12.3156L16.6397 13.6671C17.1312 13.9188 17.3257 14.5214 17.074 15.013C16.8223 15.5046 16.2197 15.6991 15.7281 15.4473L12.5442 13.8171C12.2102 13.646 12 13.3023 12 12.927V8C12 7.44772 12.4477 7 13 7Z" fill="#313234"/>
</svg>
