<svg width="24" height="24" viewBox="0 0 24 24" fill="none" xmlns="http://www.w3.org/2000/svg">
<path fill-rule="evenodd" clip-rule="evenodd" d="M17 19H16H8H6.25C3.35051 19 1 16.6495 1 13.75C1 10.8708 3.31768 8.53296 6.18914 8.50035C6.85537 5.91199 9.2039 4 12 4C14.2235 4 16.1628 5.20939 17.1989 7.00324C20.4206 7.10818 23 9.75286 23 13C23 16.3137 20.3137 19 17 19ZM15.7071 11.2071C16.0976 10.8166 16.0976 10.1834 15.7071 9.79289C15.3166 9.40237 14.6834 9.40237 14.2929 9.79289L11 13.0858L9.20711 11.2929C8.81658 10.9024 8.18342 10.9024 7.79289 11.2929C7.40237 11.6834 7.40237 12.3166 7.79289 12.7071L10.2929 15.2071C10.6834 15.5976 11.3166 15.5976 11.7071 15.2071L15.7071 11.2071Z" fill="#313234"/>
</svg>
