<svg xmlns="http://www.w3.org/2000/svg" width="24" height="24" fill="none" viewBox="0 0 24 24"><path fill="#313234" fill-rule="evenodd" d="M12 6a4 4 0 0 0-3.98 3.599l-.09.901H6.25a3.25 3.25 0 0 0 0 6.5H8a1 1 0 1 1 0 2H6.25a5.25 5.25 0 0 1-.06-10.5 6.002 6.002 0 0 1 11.009-1.497A6 6 0 0 1 17 19h-1a1 1 0 1 1 0-2h1a4 4 0 0 0 0-8h-1.07l-.262-.6A4 4 0 0 0 12 6m-.707 4.293a1 1 0 0 1 1.414 0l2.927 2.927a.8.8 0 0 1-.565 1.366H13V18a1 1 0 1 1-2 0v-3.414H8.931a.8.8 0 0 1-.565-1.366z" clip-rule="evenodd" style="fill:#313234;fill:color(display-p3 .1922 .1961 .2039);fill-opacity:1"/></svg>