<svg xmlns="http://www.w3.org/2000/svg" width="24" height="24" fill="none" viewBox="0 0 24 24"><path fill="#000" fill-rule="evenodd" d="m8 5.054-.121.008c-.71.058-1.035.16-1.241.266a3 3 0 0 0-1.31 1.31c-.106.206-.208.532-.266 1.241C5.002 8.613 5 9.568 5 11v2c0 1.433.002 2.388.062 3.122.058.71.16 1.035.265 1.24a3 3 0 0 0 1.31 1.311c.207.105.532.208 1.242.266.733.06 1.688.061 3.121.061h2c1.433 0 2.388-.001 3.121-.061.71-.058 1.036-.16 1.241-.266a3 3 0 0 0 1.31-1.31c.106-.206.209-.532.267-1.241.026-.324.04-.69.048-1.122h2c-.03 1.54-.136 2.492-.532 3.27a5 5 0 0 1-2.185 2.186C17.2 21 15.8 21 13 21h-2c-2.8 0-4.2 0-5.27-.544a5 5 0 0 1-2.185-2.186C3 17.2 3 15.8 3 13v-2c0-2.8 0-4.2.545-5.27A5 5 0 0 1 5.73 3.545c.594-.302 1.29-.434 2.27-.494zm8.586-1.96a1.001 1.001 0 0 1 1.828.812l-4 9a1 1 0 0 1-1.828-.813zm1.707 4.198a1 1 0 0 1 1.414 0l2 2a1 1 0 0 1 0 1.415l-2 2a1 1 0 1 1-1.414-1.415L19.586 10l-1.293-1.293a1 1 0 0 1 0-1.414m-7-4a1 1 0 0 1 1.414 1.415l-1.293 1.292 1.293 1.293a1 1 0 0 1-1.414 1.415l-2-2a1 1 0 0 1 0-1.415z" clip-rule="evenodd"/></svg>