<svg xmlns="http://www.w3.org/2000/svg" width="24" height="24" fill="none" viewBox="0 0 24 24"><path fill="#313234" d="m8 5.054-.121.008c-.71.058-1.035.161-1.241.266a3 3 0 0 0-1.31 1.31c-.106.206-.208.532-.266 1.242C5.002 8.613 5 9.568 5 11v2c0 1.434.002 2.389.062 3.122.058.71.16 1.035.265 1.241a3 3 0 0 0 1.31 1.31c.207.105.532.208 1.242.266.733.06 1.688.062 3.121.062h2c1.433 0 2.388-.002 3.121-.062.71-.058 1.036-.16 1.241-.265a3 3 0 0 0 1.31-1.311c.106-.206.209-.531.267-1.241.026-.323.04-.69.048-1.121h2c-.03 1.539-.136 2.492-.532 3.27a5 5 0 0 1-2.185 2.185C17.2 21 15.8 21 13 21h-2c-2.8 0-4.2 0-5.27-.545a5 5 0 0 1-2.185-2.186C3 17.2 3 15.8 3 13v-2c0-2.8 0-4.2.545-5.27A5 5 0 0 1 5.73 3.546c.594-.303 1.29-.435 2.27-.494zm8.586-1.96a1 1 0 1 1 1.827.813l-4 9a1 1 0 0 1-1.827-.812zm1.706 4.2c.39-.39 1.024-.39 1.415 0l2 2a1 1 0 0 1 0 1.414l-2 2a1.001 1.001 0 0 1-1.415-1.414L19.585 10l-1.293-1.293a1 1 0 0 1 0-1.414m-7-4a1.001 1.001 0 0 1 1.415 1.414L11.414 6l1.293 1.293a1 1 0 0 1-1.415 1.414l-2-2a1 1 0 0 1 0-1.414z"/></svg>