<svg xmlns="http://www.w3.org/2000/svg" width="24" height="24" fill="none" viewBox="0 0 24 24"><path fill="#313234" d="M21 12c.552 0 1.005.45.95.999C21.447 18.046 17.177 22 12 22a9.93 9.93 0 0 1-7.027-2.889l-2.12 2.12A.5.5 0 0 1 2 20.877V15.25a.5.5 0 0 1 .5-.5h5.627a.5.5 0 0 1 .353.854l-2.093 2.093A7.95 7.95 0 0 0 12 20c4.073 0 7.446-3.06 7.939-7.002.068-.548.509-.998 1.061-.998m-9-6a1 1 0 0 1 1 1v.45c.773.15 1.525.515 2.106 1.096L14.04 9.89c-.588-.444-1.14-.685-1.835-.685-.66 0-1.068.264-1.068.744 0 .492.564.684 1.356.995l1.114.445c1.104.444 1.764 1.186 1.764 2.446 0 1.227-.86 2.319-2.37 2.668V17a1 1 0 0 1-2 0v-.474c-.856-.17-1.7-.56-2.37-1.18l1.21-1.476c.637.54 1.464.912 2.172.912.792 0 1.163-.3 1.163-.78 0-.515-.491-.683-1.259-1.007l-1.139-.48c-.936-.37-1.811-1.15-1.811-2.446 0-1.155.802-2.125 2.034-2.513V7a1 1 0 0 1 1-1m0-4a9.93 9.93 0 0 1 7.027 2.889l2.12-2.12a.5.5 0 0 1 .853.354V8.75a.5.5 0 0 1-.5.5h-5.627a.5.5 0 0 1-.353-.854l2.093-2.093A7.95 7.95 0 0 0 12 4c-4.073 0-7.446 3.06-7.938 7.002C3.993 11.55 3.552 12 3 12s-1.005-.45-.95-.999C2.553 5.954 6.823 2 12 2"/></svg>