<svg xmlns="http://www.w3.org/2000/svg" width="24" height="24" fill="none" viewBox="0 0 24 24"><path fill="#313234" d="M12 2c5.514 0 10 4.486 10 10s-4.486 10-10 10S2 17.514 2 12 6.486 2 12 2m0 2c-4.411 0-8 3.589-8 8s3.589 8 8 8 8-3.589 8-8-3.589-8-8-8m0 2a1 1 0 0 1 1 1v.45c.773.15 1.525.515 2.106 1.096L14.04 9.89c-.588-.444-1.14-.685-1.835-.685-.66 0-1.068.264-1.068.744 0 .492.564.684 1.356.995l1.114.445c1.104.444 1.764 1.186 1.764 2.446 0 1.227-.86 2.319-2.37 2.668V17a1 1 0 0 1-2 0v-.474c-.856-.17-1.7-.56-2.37-1.18l1.21-1.476c.637.54 1.464.912 2.172.912.792 0 1.163-.3 1.163-.78 0-.515-.491-.683-1.259-1.007l-1.139-.48c-.936-.37-1.811-1.15-1.811-2.446 0-1.155.802-2.125 2.034-2.513V7a1 1 0 0 1 1-1"/></svg>