<svg xmlns="http://www.w3.org/2000/svg" width="24" height="24" fill="none" viewBox="0 0 24 24"><path fill="#313234" d="M10 10.5a.5.5 0 0 1 .5-.5H14a.5.5 0 0 1 .5.5v10a.5.5 0 0 1-.5.5h-3.5a.5.5 0 0 1-.5-.5zM3 16.5a.5.5 0 0 1 .5-.5H7a.5.5 0 0 1 .5.5v4a.5.5 0 0 1-.5.5H3.5a.5.5 0 0 1-.5-.5zM17 13.5a.5.5 0 0 1 .5-.5H21a.5.5 0 0 1 .5.5v7a.5.5 0 0 1-.5.5h-3.5a.5.5 0 0 1-.5-.5z"/><path fill="#313234" d="M12.25 2.7a2.25 2.25 0 0 1 2.25 2.25c0 .106-.011.21-.025.313l3.61 2.063a2.25 2.25 0 1 1-1.074 1.69L13.34 6.917a2.24 2.24 0 0 1-1.954.11l-4.17 4.17A2.25 2.25 0 1 1 5.25 10.04q.14 0 .277.019l4.546-4.546A2.25 2.25 0 0 1 12.25 2.7"/></svg>