<svg xmlns="http://www.w3.org/2000/svg" width="24" height="24" fill="none" viewBox="0 0 24 24"><path fill="#313234" d="M17 3a4 4 0 0 1 4 4v8a4 4 0 0 1-4 4h-6.947c-.454 0-.896.155-1.25.439L5.437 22.13C4.456 22.916 3 22.218 3 20.96V7a4 4 0 0 1 4-4zM7 5a2 2 0 0 0-2 2v12.919l2.554-2.042A4 4 0 0 1 10.053 17H17a2 2 0 0 0 2-2V7a2 2 0 0 0-2-2zm7.121 2.465a1 1 0 1 1 1.414 1.414L13.415 11l2.12 2.121a1 1 0 1 1-1.414 1.414L12 12.415l-2.121 2.12a1 1 0 1 1-1.414-1.414L10.585 11l-2.12-2.121a1 1 0 1 1 1.414-1.414L12 9.585z"/></svg>