<svg xmlns="http://www.w3.org/2000/svg" width="24" height="24" fill="none" viewBox="0 0 24 24"><path fill="#313234" fill-rule="evenodd" d="M9.781 16.962A5.96 5.96 0 0 1 9 14a6 6 0 1 1 10.954 3.386L21 20l-2.614-1.046A5.97 5.97 0 0 1 15 20a6 6 0 0 1-5.219-3.038M7 14a8 8 0 0 1 7.219-7.962 6 6 0 1 0-10.173 6.348L3 15l2.614-1.046c.434.297.908.538 1.414.714A8 8 0 0 1 7 14M9 1a8 8 0 0 1 7.472 5.135 8.003 8.003 0 0 1 5.7 11.411l.685 1.711a2 2 0 0 1-2.6 2.6l-1.71-.684a8.003 8.003 0 0 1-11.018-4.308 8 8 0 0 1-2.075-.693l-1.711.685a2 2 0 0 1-2.6-2.6l.684-1.71A8 8 0 0 1 9 1m4 13a1 1 0 1 1-2 0 1 1 0 0 1 2 0m2 1a1 1 0 1 0 0-2 1 1 0 0 0 0 2m3 0a1 1 0 1 0 0-2 1 1 0 0 0 0 2" clip-rule="evenodd"/></svg>