<svg xmlns="http://www.w3.org/2000/svg" width="24" height="24" fill="none" viewBox="0 0 24 24"><path fill="#313234" d="M15.8 8.6a1 1 0 1 0-1.6-1.2l-6 8a1 1 0 0 0 1.6 1.2z" style="fill:#313234;fill:color(display-p3 .1922 .1961 .2039);fill-opacity:1"/><path fill="#313234" fill-rule="evenodd" d="M3 8a5 5 0 0 1 5-5h8a5 5 0 0 1 5 5v8a5 5 0 0 1-5 5H8a5 5 0 0 1-5-5zm5-3h8a3 3 0 0 1 3 3v8a3 3 0 0 1-3 3H8a3 3 0 0 1-3-3V8a3 3 0 0 1 3-3" clip-rule="evenodd" style="fill:#313234;fill:color(display-p3 .1922 .1961 .2039);fill-opacity:1"/></svg>