<svg xmlns="http://www.w3.org/2000/svg" width="24" height="24" fill="none" viewBox="0 0 24 24"><path fill="#313234" d="M9 1a8 8 0 0 1 7.47 5.136 8 8 0 0 1 5.703 11.41l.684 1.71a2 2 0 0 1-2.6 2.601l-1.711-.684a8.001 8.001 0 0 1-11.017-4.31 8 8 0 0 1-2.075-.69l-1.71.684a2 2 0 0 1-2.6-2.6l.683-1.711A8 8 0 0 1 9 1m6 7a6 6 0 0 0-5.916 6.997l.05.262a5.996 5.996 0 0 0 9.252 3.695L21 20l-1.046-2.614A6.001 6.001 0 0 0 15 8M9 3a6 6 0 0 0-4.954 9.386L3 15l2.614-1.046c.434.297.91.538 1.415.714a8 8 0 0 1 7.187-8.63A5.99 5.99 0 0 0 9 3m3 10a1 1 0 1 1 0 2 1 1 0 0 1 0-2m3 0a1 1 0 1 1 0 2 1 1 0 0 1 0-2m3 0a1 1 0 1 1 0 2 1 1 0 0 1 0-2"/></svg>