<svg width="24" height="24" viewBox="0 0 24 24" fill="none" xmlns="http://www.w3.org/2000/svg">
<path fill-rule="evenodd" clip-rule="evenodd" d="M19.9393 4.05711C19.5488 3.66659 18.9157 3.66659 18.5251 4.05711L14.7929 7.78935L14.1851 7.18156C13.4997 6.49616 13.157 6.15345 12.8628 6.1303C12.6075 6.11021 12.358 6.21355 12.1917 6.40827C12 6.6327 12 7.11735 12 8.08665V10.3965C12 10.9565 12 11.2365 12.109 11.4505C12.2049 11.6386 12.3578 11.7916 12.546 11.8875C12.7599 11.9965 13.0399 11.9965 13.6 11.9965H15.9098C16.8791 11.9965 17.3638 11.9965 17.5882 11.8048C17.7829 11.6385 17.8863 11.389 17.8662 11.1337C17.843 10.8395 17.5003 10.4968 16.8149 9.81139L16.8149 9.81137L16.8149 9.81137L16.2071 9.20357L19.9393 5.47133C20.3299 5.0808 20.3299 4.44764 19.9393 4.05711ZM11.9965 15.9098C11.9965 16.8791 11.9965 17.3638 11.8048 17.5882C11.6385 17.7829 11.389 17.8863 11.1337 17.8662C10.8395 17.843 10.4968 17.5003 9.81136 16.8149L9.20356 16.2071L5.47133 19.9393C5.0808 20.3299 4.44764 20.3299 4.05711 19.9393C3.66659 19.5488 3.66659 18.9156 4.05711 18.5251L7.78934 14.7929L7.18155 14.1851C6.49615 13.4997 6.15345 13.157 6.13029 12.8628C6.1102 12.6075 6.21354 12.358 6.40827 12.1917C6.63269 12 7.11734 12 8.08665 12H10.3965C10.9565 12 11.2365 12 11.4504 12.109C11.6386 12.2049 11.7916 12.3579 11.8875 12.546C11.9965 12.7599 11.9965 13.0399 11.9965 13.6V15.9098Z" fill="#313234"/>
</svg>
