<svg xmlns="http://www.w3.org/2000/svg" width="24" height="24" fill="none" viewBox="0 0 24 24"><path fill="#313234" d="M9.396 13c.56 0 .84 0 1.055.109a1 1 0 0 1 .436.437c.109.214.11.494.11 1.054v2.31c0 .969 0 1.454-.192 1.678a.8.8 0 0 1-.672.278c-.294-.024-.637-.366-1.322-1.051l-.607-.608L5.47 19.94a1 1 0 0 1-1.414-1.415l2.731-2.733-.607-.607c-.685-.685-1.027-1.028-1.05-1.322a.8.8 0 0 1 .278-.671c.224-.192.708-.193 1.677-.193zm9.129-8.943a1 1 0 0 1 1.414 1.414l-2.733 2.732.609.608c.685.685 1.027 1.028 1.05 1.322a.8.8 0 0 1-.277.672c-.224.192-.71.191-1.678.191H14.6c-.56 0-.84 0-1.054-.109a1 1 0 0 1-.437-.436c-.11-.214-.11-.495-.11-1.055v-2.31c0-.969.001-1.453.193-1.677a.8.8 0 0 1 .67-.279c.295.024.638.366 1.323 1.051l.607.607z"/></svg>