<svg xmlns="http://www.w3.org/2000/svg" width="24" height="24" fill="none" viewBox="0 0 24 24"><path fill="#313234" d="M14.6 2c2.24 0 3.36 0 4.216.436a4 4 0 0 1 1.749 1.748C21 5.039 21 6.16 21 8.4v7.2c0 2.24 0 3.36-.436 4.216a4 4 0 0 1-1.748 1.749C17.961 22 16.84 22 14.6 22H9.4c-2.24 0-3.36 0-4.216-.436a4 4 0 0 1-1.748-1.748c-.335-.656-.412-1.469-.43-2.824a1.2 1.2 0 0 1-.389-.068 1 1 0 0 1-.54-.541C2 16.199 2 15.966 2 15.5s0-.699.076-.883a1 1 0 0 1 .541-.54c.102-.043.22-.06.383-.07V9.992a1.1 1.1 0 0 1-.383-.067 1 1 0 0 1-.54-.541C2 9.199 2 8.966 2 8.5s0-.699.076-.883a1 1 0 0 1 .541-.54c.103-.044.222-.062.389-.07.018-1.354.095-2.167.43-2.823a4 4 0 0 1 1.748-1.748C6.039 2 7.16 2 9.4 2zM12 12.491a4.51 4.51 0 0 0-4.5 4.215c-.01.16.125.294.285.294h8.429c.16 0 .295-.135.285-.294a4.51 4.51 0 0 0-4.499-4.215M12 7.5a2 2 0 1 0 0 4 2 2 0 0 0 0-4"/></svg>