<svg xmlns="http://www.w3.org/2000/svg" width="24" height="24" fill="none" viewBox="0 0 24 24"><path fill="#313234" d="M14.6 2c2.24 0 3.36 0 4.216.436a4 4 0 0 1 1.749 1.748C21 5.039 21 6.16 21 8.4v7.2c0 2.24 0 3.36-.436 4.216a4 4 0 0 1-1.748 1.749C17.961 22 16.84 22 14.6 22H9.4c-2.24 0-3.36 0-4.216-.436a4 4 0 0 1-1.748-1.748c-.335-.656-.412-1.469-.43-2.824a1.2 1.2 0 0 1-.389-.068 1 1 0 0 1-.54-.541C2 16.199 2 15.966 2 15.5s0-.699.076-.883a1 1 0 0 1 .541-.54c.102-.043.22-.06.383-.07V9.992a1.1 1.1 0 0 1-.383-.067 1 1 0 0 1-.54-.541C2 9.199 2 8.966 2 8.5s0-.699.076-.883a1 1 0 0 1 .541-.54c.103-.044.222-.062.389-.07.018-1.354.095-2.167.43-2.823a4 4 0 0 1 1.748-1.748C6.039 2 7.16 2 9.4 2zM9.4 4c-1.153 0-1.898.002-2.464.048-.544.044-.745.12-.844.17a2 2 0 0 0-.874.874c-.05.099-.126.3-.17.844C5.002 6.502 5 7.247 5 8.4v7.2c0 1.153.002 1.898.048 2.464.044.544.12.745.17.844a2 2 0 0 0 .874.874c.099.05.3.126.844.17.566.046 1.311.048 2.464.048h5.2c1.153 0 1.898-.002 2.464-.048.544-.044.745-.12.844-.17a2 2 0 0 0 .874-.874c.05-.099.126-.3.17-.844.046-.566.048-1.311.048-2.464V8.4c0-1.153-.002-1.898-.048-2.464-.044-.544-.12-.745-.17-.844a2 2 0 0 0-.874-.874c-.099-.05-.3-.126-.844-.17C16.499 4.002 15.753 4 14.6 4zm2.601 8.49a4.51 4.51 0 0 1 4.499 4.215.284.284 0 0 1-.285.295H7.786a.284.284 0 0 1-.285-.295 4.51 4.51 0 0 1 4.5-4.215M12 7.5a2 2 0 1 1 0 4 2 2 0 0 1 0-4"/></svg>