<svg xmlns="http://www.w3.org/2000/svg" width="24" height="24" fill="none" viewBox="0 0 24 24"><path fill="#313234" d="M12.005 2c.59 0 1.208.06 1.833.174l.817.153v.83a6.206 6.206 0 0 0 6.191 6.192h.831l.152.818c.118.635.176 1.235.176 1.833 0 5.514-4.486 10-10 10s-10-4.486-10-10 4.486-10 10-10m0 2c-4.411 0-8 3.589-8 8s3.589 8 8 8 8-3.59 8-8q0-.344-.034-.698a8.216 8.216 0 0 1-7.27-7.27A8 8 0 0 0 12.006 4M12 15A1.75 1.75 0 1 1 12 18.502a1.75 1.75 0 0 1 0-3.5m3-3.5A1.75 1.75 0 1 1 15 15.002a1.75 1.75 0 0 1 0-3.5M10 7A1.75 1.75 0 1 1 10 10.502a1.75 1.75 0 0 1 0-3.5"/></svg>