<svg xmlns="http://www.w3.org/2000/svg" width="24" height="24" fill="none" viewBox="0 0 24 24"><path fill="#313234" d="M20.5 5A1.5 1.5 0 0 1 22 6.5v4a.5.5 0 0 1-.5.5H21a1 1 0 0 0-.116 1.993L21 13h.5a.5.5 0 0 1 .5.5v4a1.5 1.5 0 0 1-1.5 1.5h-17A1.5 1.5 0 0 1 2 17.5v-4a.5.5 0 0 1 .5-.5H3a1 1 0 0 0 .116-1.993L3 11h-.5a.5.5 0 0 1-.5-.5v-4A1.5 1.5 0 0 1 3.5 5zM4 9.172l.04.014a3 3 0 0 1 1.954 2.632L6 12a3 3 0 0 1-1.817 2.758L4 14.829V17h16v-2.173l-.04-.012a3 3 0 0 1-1.954-2.633L18 12c0-1.237.749-2.299 1.817-2.758L20 9.17V7H4zM9 8a1 1 0 0 1 1 1v6a1 1 0 1 1-2 0V9a1 1 0 0 1 1-1"/></svg>