<svg xmlns="http://www.w3.org/2000/svg" width="24" height="24" fill="none" viewBox="0 0 24 24"><path fill="#313234" d="M13 12c0-1.697.01-2.47.135-3.015l.06-.221a4 4 0 0 1 2.344-2.488l.225-.08C16.328 6.011 17.06 6 19 6a1 1 0 1 0 0-2c-1.783 0-2.913-.012-3.854.294l-.337.121a6 6 0 0 0-3.515 3.73l-.054.18C10.99 9.232 11 10.328 11 12c0 1.94-.012 2.672-.195 3.236l-.081.225a4 4 0 0 1-2.488 2.344l-.221.06C7.47 17.991 6.697 18 5 18a1 1 0 1 0 0 2c1.672 0 2.768.01 3.675-.24l.18-.054a6 6 0 0 0 3.73-3.515l.121-.336c.306-.942.294-2.072.294-3.855"/></svg>