<svg xmlns="http://www.w3.org/2000/svg" width="24" height="24" fill="none" viewBox="0 0 24 24"><path fill="#313234" fill-rule="evenodd" d="M6 6a1 1 0 0 0-1 1v12a1 1 0 1 1-2 0V7a3 3 0 0 1 3-3h12a3 3 0 0 1 3 3v12a1 1 0 1 1-2 0V7a1 1 0 0 0-1-1z" clip-rule="evenodd" style="fill:#313234;fill:color(display-p3 .1922 .1961 .2039);fill-opacity:1"/><path fill="#313234" d="M6 8a1 1 0 0 1 1-1h10a1 1 0 0 1 1 1v4a1 1 0 0 1-1 1H7a1 1 0 0 1-1-1z" style="fill:#313234;fill:color(display-p3 .1922 .1961 .2039);fill-opacity:1"/></svg>