<svg xmlns="http://www.w3.org/2000/svg" width="24" height="24" fill="none" viewBox="0 0 24 24"><path fill="#313234" fill-rule="evenodd" d="M18 18a1 1 0 0 0 1-1V5a1 1 0 1 1 2 0v12a3 3 0 0 1-3 3H6a3 3 0 0 1-3-3V5a1 1 0 1 1 2 0v12a1 1 0 0 0 1 1z" clip-rule="evenodd" style="fill:#313234;fill:color(display-p3 .1922 .1961 .2039);fill-opacity:1"/><path fill="#313234" d="M18 16a1 1 0 0 1-1 1H7a1 1 0 0 1-1-1v-4a1 1 0 0 1 1-1h10a1 1 0 0 1 1 1z" style="fill:#313234;fill:color(display-p3 .1922 .1961 .2039);fill-opacity:1"/></svg>