<svg width="24" height="24" viewBox="0 0 24 24" fill="none" xmlns="http://www.w3.org/2000/svg">
<path fill-rule="evenodd" clip-rule="evenodd" d="M20.5002 3.00012H16.0712C14.5597 3.00012 13.1065 3.57071 11.9998 4.59215C10.894 3.57075 9.44075 3.00012 7.92921 3.00012H3.50021C2.67193 3.00012 2.00021 3.67184 2.00021 4.50012V18.5001C2.00021 19.3284 2.67193 20.0001 3.50021 20.0001H7.92921C8.98982 20.0001 10.0075 20.4216 10.7571 21.1712L11.2931 21.7072C11.6839 22.098 12.3176 22.0977 12.708 21.7066L13.243 21.1706C13.9927 20.4216 15.0106 20.0001 16.0712 20.0001H20.5002C21.3285 20.0001 22.0002 19.3284 22.0002 18.5001V4.50012C22.0002 3.67184 21.3285 3.00012 20.5002 3.00012ZM16.0712 5.00012H20.0002V18.0001H16.0712C14.9812 18.0001 13.9215 18.2969 13.0002 18.8454V6.41379L13.243 6.17057C13.9927 5.42164 15.0106 5.00012 16.0712 5.00012ZM11.0002 6.41434V18.8456C10.0792 18.2969 9.01936 18.0001 7.92921 18.0001H4.00021V5.00012H7.92921C8.98982 5.00012 10.0075 5.42164 10.7571 6.17123L11.0002 6.41434ZM5 9C5 8.44772 5.44772 8 6 8H9C9.55228 8 10 8.44772 10 9C10 9.55228 9.55228 10 9 10H6C5.44772 10 5 9.55228 5 9ZM15 8C14.4477 8 14 8.44772 14 9C14 9.55228 14.4477 10 15 10H18C18.5523 10 19 9.55228 19 9C19 8.44772 18.5523 8 18 8H15ZM15 12C14.4477 12 14 12.4477 14 13C14 13.5523 14.4477 14 15 14H18C18.5523 14 19 13.5523 19 13C19 12.4477 18.5523 12 18 12H15ZM6 12C5.44772 12 5 12.4477 5 13C5 13.5523 5.44772 14 6 14H9C9.55228 14 10 13.5523 10 13C10 12.4477 9.55228 12 9 12H6Z" fill="#313234"/>
</svg>
