<svg xmlns="http://www.w3.org/2000/svg" width="24" height="24" fill="none" viewBox="0 0 24 24"><path fill="#313234" fill-rule="evenodd" d="M20.5 3h-4.429C14.56 3 13.106 3.57 12 4.592A6 6 0 0 0 7.93 3H3.5A1.5 1.5 0 0 0 2 4.5v14A1.5 1.5 0 0 0 3.5 20h4.43a4 4 0 0 1 2.827 1.171l.536.536a1 1 0 0 0 1.415 0l.535-.536A4 4 0 0 1 16.071 20h4.43a1.5 1.5 0 0 0 1.5-1.5v-14A1.5 1.5 0 0 0 20.5 3m-4.429 2h3.93v13h-3.93c-1.09 0-2.15.297-3.07.845V6.414l.242-.243A4 4 0 0 1 16.071 5m-5.07 1.414v12.432A6 6 0 0 0 7.928 18H4V5h3.93a4 4 0 0 1 2.827 1.171zM5 8a1 1 0 0 1 1-1h3a1 1 0 0 1 0 2H6a1 1 0 0 1-1-1m10-1a1 1 0 1 0 0 2h3a1 1 0 1 0 0-2zm0 3a1 1 0 1 0 0 2h3a1 1 0 1 0 0-2zm-9 0a1 1 0 1 0 0 2h3a1 1 0 1 0 0-2z" clip-rule="evenodd"/></svg>