<svg xmlns="http://www.w3.org/2000/svg" width="24" height="24" fill="none" viewBox="0 0 24 24"><path fill="#313234" fill-rule="evenodd" d="M8.25 7a2.25 2.25 0 1 0 0-4.5 2.25 2.25 0 0 0 0 4.5m7.5 0a2.25 2.25 0 1 0 0-4.5 2.25 2.25 0 0 0 0 4.5m-5.25 5A2.25 2.25 0 1 1 6 12a2.25 2.25 0 0 1 4.5 0m5.25 2.25a2.25 2.25 0 1 0 0-4.5 2.25 2.25 0 0 0 0 4.5m-5.25 5a2.25 2.25 0 1 1-4.5 0 2.25 2.25 0 0 1 4.5 0m5.25 2.25a2.25 2.25 0 1 0 0-4.5 2.25 2.25 0 0 0 0 4.5" clip-rule="evenodd" style="fill:#313234;fill:color(display-p3 .1922 .1961 .2039);fill-opacity:1"/></svg>