<svg xmlns="http://www.w3.org/2000/svg" width="24" height="24" fill="none" viewBox="0 0 24 24"><path fill="#313234" d="M17 8.25a2.25 2.25 0 1 0 4.5 0 2.25 2.25 0 0 0-4.5 0M17 15.75a2.25 2.25 0 1 0 4.5 0 2.25 2.25 0 0 0-4.5 0M12 10.5A2.25 2.25 0 1 1 12 6a2.25 2.25 0 0 1 0 4.5M9.75 15.75a2.25 2.25 0 1 0 4.5 0 2.25 2.25 0 0 0-4.5 0M4.75 10.5a2.25 2.25 0 1 1 0-4.5 2.25 2.25 0 0 1 0 4.5M2.5 15.75a2.25 2.25 0 1 0 4.5 0 2.25 2.25 0 0 0-4.5 0" style="fill:#313234;fill:color(display-p3 .1922 .1961 .2039);fill-opacity:1"/></svg>