<svg xmlns="http://www.w3.org/2000/svg" width="24" height="24" fill="none" viewBox="0 0 24 24"><path fill="#313234" d="M11 6H9.4c-1.136 0-1.929 0-2.546.051-.605.05-.953.142-1.216.277a3 3 0 0 0-1.31 1.31c-.135.263-.228.611-.277 1.216C4 9.47 4 10.264 4 11.4v3.2c0 1.137 0 1.929.05 2.546.05.605.143.952.277 1.216a3 3 0 0 0 1.31 1.311c.264.134.612.226 1.217.276.617.05 1.41.051 2.546.051h3.2c1.136 0 1.929-.001 2.546-.051.605-.05.953-.142 1.216-.276a3 3 0 0 0 1.31-1.311c.135-.264.228-.611.277-1.216.05-.617.051-1.41.051-2.546V13h2v1.643c0 1.084 0 1.958-.058 2.666-.06.729-.185 1.369-.487 1.96a5 5 0 0 1-2.185 2.187c-.593.301-1.233.427-1.961.487C14.6 22 13.726 22 12.643 22H9.357c-1.083 0-1.958 0-2.666-.057-.728-.06-1.368-.186-1.96-.488a5 5 0 0 1-2.186-2.185c-.302-.592-.428-1.232-.487-1.961C2 16.601 2 15.727 2 14.643v-3.285c0-1.084 0-1.958.058-2.666.06-.73.185-1.37.487-1.962A5 5 0 0 1 4.73 4.545c.593-.301 1.233-.427 1.961-.487C7.4 4 8.274 4 9.357 4H11zm5.373-2.62a3.003 3.003 0 0 1 4.247 4.247l-7.787 7.787a2 2 0 0 1-1.414.586H9a1 1 0 0 1-1-1v-2.419a2 2 0 0 1 .586-1.414zm2.832 1.415a1 1 0 0 0-1.416 0l-7.787 7.787v1.416h1.416l7.787-7.787c.39-.39.39-1.025 0-1.416"/></svg>