<svg xmlns="http://www.w3.org/2000/svg" width="24" height="24" fill="none" viewBox="0 0 24 24"><path fill="#313234" fill-rule="evenodd" d="M11.419 16a2 2 0 0 0 1.414-.586l7.787-7.787a3.003 3.003 0 0 0-4.247-4.247l-7.787 7.787A2 2 0 0 0 8 12.58V15a1 1 0 0 0 1 1zm-1.417-2.002h1.416l7.787-7.787a1.001 1.001 0 1 0-1.416-1.416l-7.787 7.787zM11 4H9.357C8.273 4 7.4 4 6.691 4.058c-.728.06-1.369.185-1.96.487A5 5 0 0 0 2.544 6.73c-.302.592-.428 1.233-.487 1.961C2 9.4 2 10.273 2 11.357v3.286c0 1.084 0 1.958.058 2.666.06.729.185 1.369.487 1.961a5 5 0 0 0 2.185 2.185c.592.302 1.233.428 1.961.487C7.4 22 8.273 22 9.357 22h3.286c1.084 0 1.958 0 2.666-.058.729-.06 1.369-.185 1.961-.487a5 5 0 0 0 2.185-2.185c.302-.592.428-1.232.487-1.961C20 16.6 20 15.727 20 14.643V13h-2v1.6c0 1.137 0 1.929-.051 2.546-.05.605-.142.953-.276 1.216a3 3 0 0 1-1.311 1.311c-.263.134-.611.226-1.216.276-.617.05-1.41.051-2.546.051H9.4c-1.137 0-1.929 0-2.546-.051-.605-.05-.953-.142-1.216-.276a3 3 0 0 1-1.311-1.311c-.134-.263-.226-.611-.276-1.216C4.001 16.529 4 15.736 4 14.6v-3.2c0-1.137 0-1.929.051-2.546.05-.605.142-.953.276-1.216a3 3 0 0 1 1.311-1.311c.263-.134.611-.226 1.216-.276C7.471 6.001 8.264 6 9.4 6H11z" clip-rule="evenodd"/></svg>