<svg xmlns="http://www.w3.org/2000/svg" width="24" height="24" fill="none" viewBox="0 0 24 24"><path fill="#313234" d="M20 13.225c0-.644.752-.967 1.192-.512l2.552 2.647c.34.354.34.927 0 1.28l-2.552 2.647c-.44.456-1.192.133-1.192-.512V17h-1.1a2.9 2.9 0 0 0-2.9 2.9v.1a1 1 0 1 1-2 0v-.1a4.9 4.9 0 0 1 4.9-4.9H20zM15.6 4c2.24 0 3.36 0 4.217.436a4 4 0 0 1 1.748 1.748c.368.723.425 1.636.434 3.254a148.637 148.637 0 0 1 .001.683l-8.658 4.326a3 3 0 0 1-2.684 0L4 11.118V13.6c0 1.153.002 1.898.048 2.464.044.544.12.745.17.844a2 2 0 0 0 .874.874c.099.05.3.126.844.17.566.046 1.311.048 2.465.048H12v2H8.4c-2.24 0-3.36 0-4.216-.436a4 4 0 0 1-1.748-1.748C2 16.961 2 15.84 2 13.6v-3.2l.001-.85a1 1 0 0 1 .001-.11c.009-1.62.066-2.533.435-3.256a4 4 0 0 1 1.748-1.748C5.04 4 6.16 4 8.4 4zM8.4 6c-1.153 0-1.898.002-2.464.048-.543.044-.745.12-.844.17a2 2 0 0 0-.874.874c-.05.099-.126.3-.17.844-.022.268-.034.577-.04.95l7.545 3.772a1 1 0 0 0 .894 0l7.545-3.772a15 15 0 0 0-.04-.95c-.044-.544-.12-.745-.17-.844a2 2 0 0 0-.874-.874c-.099-.05-.3-.126-.843-.17C17.498 6.002 16.753 6 15.6 6z"/></svg>