<svg xmlns="http://www.w3.org/2000/svg" width="24" height="24" fill="none" viewBox="0 0 24 24"><path fill="#313234" fill-rule="evenodd" d="M2.002 9.44a1 1 0 0 0 0 .11q-.003.396-.002.85v3.2c0 2.24 0 3.36.436 4.216a4 4 0 0 0 1.748 1.748C5.04 20 6.16 20 8.4 20H13v-2H8.4c-1.153 0-1.897-.002-2.464-.048-.543-.044-.745-.12-.844-.17a2 2 0 0 1-.874-.874c-.05-.099-.126-.3-.17-.844C4.002 15.498 4 14.754 4 13.6v-2.482l6.659 3.33a3 3 0 0 0 2.683 0L22 10.12 22 9.44c-.01-1.619-.066-2.531-.435-3.255a4 4 0 0 0-1.748-1.748C18.961 4 17.84 4 15.6 4H8.4c-2.24 0-3.36 0-4.216.436a4 4 0 0 0-1.748 1.748c-.368.724-.425 1.636-.434 3.255M8.4 6h7.2c1.153 0 1.898.002 2.464.048.544.044.745.12.844.17a2 2 0 0 1 .874.874c.05.099.126.3.17.844.022.268.034.577.04.95l-7.545 3.772a1 1 0 0 1-.894 0L4.008 8.886c.006-.373.018-.682.04-.95.044-.544.12-.745.17-.844a2 2 0 0 1 .874-.874c.1-.05.3-.126.844-.17C6.503 6.002 7.247 6 8.4 6m11.1 16a4.5 4.5 0 1 0 0-9 4.5 4.5 0 0 0 0 9m0-1.6a2.9 2.9 0 0 0 2.537-4.306l-3.943 3.943c.417.231.896.363 1.406.363m1.406-5.437-3.943 3.943a2.9 2.9 0 0 1 3.943-3.943" clip-rule="evenodd" style="fill:#313234;fill:color(display-p3 .1922 .1961 .2039);fill-opacity:1"/></svg>