<svg xmlns="http://www.w3.org/2000/svg" width="24" height="24" fill="none" viewBox="0 0 24 24"><path fill="#313234" d="M15.6 4c2.24 0 3.36 0 4.216.436a4 4 0 0 1 1.748 1.748c.369.723.426 1.636.435 3.254a1 1 0 0 1 0 .112v4.05c0 2.24.001 3.36-.435 4.216a4 4 0 0 1-1.748 1.749C18.961 20 17.84 20 15.601 20H8.4c-2.24 0-3.36 0-4.217-.436a4 4 0 0 1-1.748-1.748C2 16.961 2 15.84 2 13.6V9.55a1 1 0 0 1 .002-.11c.009-1.62.066-2.533.434-3.256a4 4 0 0 1 1.748-1.748C5.04 4 6.16 4 8.4 4zm-2.258 10.447a3 3 0 0 1-2.684 0L4 11.118V13.6c0 1.153.001 1.898.048 2.464.044.544.12.745.17.844a2 2 0 0 0 .874.874c.099.05.3.126.843.17.567.046 1.312.048 2.465.048h7.2c1.153 0 1.898-.002 2.464-.048.544-.044.745-.12.844-.17a2 2 0 0 0 .874-.874c.05-.099.126-.3.17-.844.046-.566.048-1.311.048-2.464v-2.482zM8.4 6c-1.153 0-1.898.002-2.465.048-.543.044-.744.12-.843.17a2 2 0 0 0-.874.874c-.05.099-.126.3-.17.844-.022.268-.034.577-.04.95l7.545 3.772a1 1 0 0 0 .894 0l7.545-3.772a15 15 0 0 0-.04-.95c-.044-.544-.12-.745-.17-.844a2 2 0 0 0-.874-.874c-.099-.05-.3-.126-.844-.17-.566-.046-1.31-.048-2.463-.048z"/></svg>