<svg xmlns="http://www.w3.org/2000/svg" width="24" height="24" fill="none" viewBox="0 0 24 24"><path fill="#313234" d="M15.6 4c.816 0 1.484 0 2.043.021a4.5 4.5 0 0 0-1.387 1.982Q15.953 6.002 15.6 6H8.4c-1.154 0-1.899.002-2.466.048-.542.044-.744.12-.843.17a2 2 0 0 0-.874.874c-.05.099-.126.3-.17.844-.022.268-.034.577-.04.95l7.545 3.772a1 1 0 0 0 .894 0l4.583-2.292a4.5 4.5 0 0 0 1.827 1.322l-5.515 2.76a3 3 0 0 1-2.684 0L4 11.117V13.6c0 1.153.001 1.898.048 2.464.044.544.12.745.17.844.191.376.498.682.874.874.099.05.3.126.843.17.567.046 1.312.048 2.465.048h7.2c1.153 0 1.898-.002 2.464-.048.543-.044.745-.12.844-.17a2 2 0 0 0 .874-.874c.05-.099.126-.3.17-.844.046-.566.048-1.311.048-2.464v-1.63q.246.03.5.03c.526 0 1.03-.092 1.5-.258V13.6c0 2.24 0 3.36-.436 4.216a4 4 0 0 1-1.748 1.749C18.961 20 17.84 20 15.601 20H8.4c-2.24 0-3.36 0-4.216-.436a4 4 0 0 1-1.749-1.748C2.001 16.961 2 15.84 2 13.6V9.55a1 1 0 0 1 .002-.11c.009-1.62.066-2.533.434-3.256a4 4 0 0 1 1.749-1.748C5.04 4 6.16 4 8.4 4zm4.9 1a2.5 2.5 0 1 1 0 5 2.5 2.5 0 0 1 0-5"/></svg>