<svg xmlns="http://www.w3.org/2000/svg" width="24" height="24" fill="none" viewBox="0 0 24 24"><path fill="#313234" d="M15.6 4c2.24 0 3.36 0 4.216.436a4 4 0 0 1 1.749 1.748C22 7.039 22 8.16 22 10.4v3.2c0 2.24 0 3.36-.436 4.216a4 4 0 0 1-1.748 1.749C18.961 20 17.84 20 15.6 20H8.4c-2.24 0-3.36 0-4.216-.436a4 4 0 0 1-1.748-1.748C2 16.961 2 15.84 2 13.6v-3.2c0-2.24 0-3.36.436-4.216a4 4 0 0 1 1.748-1.748C5.039 4 6.16 4 8.4 4zm4.295 6.053a1 1 0 0 0-1.342-.448l-6.106 3.053a1 1 0 0 1-.894 0L5.447 9.605a1 1 0 0 0-.894 1.79l6.105 3.052a3 3 0 0 0 2.684 0l6.105-3.052a1 1 0 0 0 .448-1.342"/></svg>