<svg xmlns="http://www.w3.org/2000/svg" width="24" height="24" fill="none" viewBox="0 0 24 24"><path fill="#000" fill-rule="evenodd" d="M19.754 13.015c1.103-.888 2.753-.87 3.707.383.937 1.23.573 2.836-.519 3.714l-5.72 4.602q-.13.106-.29.163h-.002a1 1 0 0 1-.328.06l-2.565.038c-.67.01-1.167-.62-1-1.269l.651-2.552a1 1 0 0 1 .13-.296v-.002q.09-.136.216-.24zM15.6 4c2.24 0 3.36 0 4.215.436a4 4 0 0 1 1.749 1.748c.368.723.425 1.636.434 3.254a148.637 148.637 0 0 1 .001.683l-8.658 4.326a3 3 0 0 1-2.683 0L4 11.118V13.6c0 1.153.002 1.898.048 2.464.044.544.12.745.17.844.193.376.499.682.875.874.099.05.3.126.843.17.566.046 1.311.048 2.464.048H11v2H8.4c-2.24 0-3.36 0-4.215-.436a4 4 0 0 1-1.748-1.748C2 16.961 2 15.84 2 13.6v-3.2l.001-.85a1 1 0 0 1 .001-.11c.009-1.62.066-2.533.435-3.256a4 4 0 0 1 1.748-1.748C5.04 4 6.16 4 8.4 4zm5.903 10.398a.7.7 0 0 0-.496.174l-5.464 4.395-.252.99.94-.015 5.457-4.387c.363-.293.375-.69.181-.946a.5.5 0 0 0-.366-.211M8.4 6c-1.153 0-1.898.002-2.464.048-.543.044-.744.12-.843.17a2 2 0 0 0-.874.874c-.05.099-.127.3-.171.844-.022.268-.034.577-.04.95l7.545 3.772a1 1 0 0 0 .894 0l7.546-3.772a15 15 0 0 0-.04-.95c-.045-.544-.12-.745-.17-.844a2 2 0 0 0-.875-.874c-.099-.05-.3-.126-.844-.17-.566-.046-1.31-.048-2.463-.048z" clip-rule="evenodd"/></svg>