<svg xmlns="http://www.w3.org/2000/svg" width="24" height="24" fill="none" viewBox="0 0 24 24"><path fill="#313234" d="M19.5 13a4.5 4.5 0 1 1 0 9 4.5 4.5 0 0 1 0-9m-1.405 7.037a2.9 2.9 0 0 0 3.942-3.942zM15.6 4c2.24 0 3.36 0 4.216.436a4 4 0 0 1 1.748 1.748c.368.723.425 1.636.434 3.254a148.637 148.637 0 0 1 .001.683l-8.658 4.326a3 3 0 0 1-2.684 0L4 11.118V13.6c0 1.153.002 1.898.048 2.464.044.544.12.745.17.844a2 2 0 0 0 .874.874c.099.05.3.126.844.17.566.046 1.311.048 2.465.048H13v2H8.4c-2.24 0-3.36 0-4.216-.436a4 4 0 0 1-1.748-1.748C2 16.961 2 15.84 2 13.6v-3.2l.001-.85a1 1 0 0 1 .001-.11c.009-1.62.066-2.533.435-3.256a4 4 0 0 1 1.748-1.748C5.04 4 6.16 4 8.4 4zm3.9 10.6a2.9 2.9 0 0 0-2.538 4.305l3.942-3.942A2.9 2.9 0 0 0 19.5 14.6M8.4 6c-1.154 0-1.899.002-2.465.048-.543.044-.745.12-.844.17a2 2 0 0 0-.874.874c-.05.099-.126.3-.17.844-.022.268-.034.577-.04.95l7.545 3.772a1 1 0 0 0 .894 0l7.545-3.772a15 15 0 0 0-.04-.95c-.044-.544-.12-.745-.17-.844a2 2 0 0 0-.874-.874c-.099-.05-.3-.126-.843-.17C17.498 6.002 16.753 6 15.6 6z"/></svg>