<svg xmlns="http://www.w3.org/2000/svg" width="24" height="24" fill="none" viewBox="0 0 24 24"><path fill="#313234" fill-rule="evenodd" d="M14.9 2.149a3 3 0 0 0-4.243 0L2.879 9.927a3 3 0 0 0 0 4.243l4.95 4.95c.599.599 1.389.891 2.174.877L10 20h10v-2h-6.81l6.66-6.659a3 3 0 0 0 0-4.243zm3.535 6.364-4.95-4.95a1 1 0 0 0-1.414 0l-4.95 4.95 6.364 6.364 4.95-4.95a1 1 0 0 0 0-1.414M4.293 11.34l1.414-1.414 6.364 6.364-1.414 1.414a1 1 0 0 1-1.414 0l-4.95-4.95a1 1 0 0 1 0-1.414" clip-rule="evenodd" style="fill:#313234;fill:color(display-p3 .1922 .1961 .2039);fill-opacity:1"/></svg>