<svg xmlns="http://www.w3.org/2000/svg" width="24" height="24" fill="none" viewBox="0 0 24 24"><path fill="#313234" fill-rule="evenodd" d="M6.343 4.657c1.98-1.98 2.97-2.97 4.112-3.341a5 5 0 0 1 3.09 0c1.142.37 2.132 1.36 4.112 3.34l1.686 1.687c1.98 1.98 2.97 2.97 3.341 4.112a5 5 0 0 1 0 3.09c-.37 1.142-1.36 2.132-3.34 4.112l-1.687 1.686c-1.98 1.98-2.97 2.97-4.112 3.341a5 5 0 0 1-3.09 0c-1.142-.37-2.132-1.36-4.112-3.34l-1.686-1.687c-1.98-1.98-2.97-2.97-3.341-4.112a5 5 0 0 1 0-3.09c.37-1.142 1.36-2.132 3.34-4.112zM12.001 18.8a1.4 1.4 0 1 1 0-2.801 1.4 1.4 0 0 1 0 2.801M12 6a1.41 1.41 0 0 0-1.406 1.497l.344 5.505a1.064 1.064 0 0 0 2.124 0l.344-5.505A1.41 1.41 0 0 0 12 6" clip-rule="evenodd" style="fill:#313234;fill:color(display-p3 .1922 .1961 .2039);fill-opacity:1"/></svg>