<svg xmlns="http://www.w3.org/2000/svg" width="24" height="24" fill="none" viewBox="0 0 24 24"><path fill="#313234" fill-rule="evenodd" d="M20.158 16.737 13.29 5.117a1.5 1.5 0 0 0-2.582 0l-6.867 11.62A1.5 1.5 0 0 0 5.134 19h13.732a1.5 1.5 0 0 0 1.292-2.263M15.013 4.099c-1.354-2.292-4.671-2.292-6.026 0L2.12 15.72C.742 18.053 2.424 21 5.134 21h13.732c2.71 0 4.392-2.947 3.014-5.28zM12.001 17.8a1.4 1.4 0 1 1 0-2.801 1.4 1.4 0 0 1 0 2.801M12 7a1 1 0 0 0-1 1v5a1 1 0 1 0 2 0V8a1 1 0 0 0-1-1" clip-rule="evenodd" style="fill:#313234;fill:color(display-p3 .1922 .1961 .2039);fill-opacity:1"/></svg>