<svg xmlns="http://www.w3.org/2000/svg" width="24" height="24" fill="none" viewBox="0 0 24 24"><path fill="#313234" d="M6.243 5.332a7.54 7.54 0 0 1 12.514 0c1.762 2.573 1.596 6.014-.147 8.6l-5.666 8.407a.534.534 0 0 1-.888 0L6.39 13.932c-1.743-2.586-1.907-6.027-.146-8.6m6.896-.367c-.201-.62-1.076-.62-1.278 0l-.871 2.679H8.174c-.651 0-.922.834-.396 1.216l2.28 1.656-.87 2.678c-.202.62.506 1.135 1.034.752l2.279-1.655 2.278 1.655c.527.383 1.235-.132 1.034-.752l-.87-2.678 2.278-1.656c.527-.382.257-1.216-.394-1.216H14.01z"/></svg>