<svg xmlns="http://www.w3.org/2000/svg" width="24" height="24" fill="none" viewBox="0 0 24 24"><path fill="#313234" fill-rule="evenodd" d="m8.366 11.505 2.927-2.928a1 1 0 0 0 0-1.414L8.366 4.236A.8.8 0 0 0 7 4.802V7a6 6 0 1 0 0 12h2a1 1 0 1 0 0-2H7a4 4 0 0 1 0-8v1.939a.8.8 0 0 0 1.366.566M13.016 7a1 1 0 0 0 1 1h8a1 1 0 1 0 0-2h-8a1 1 0 0 0-1 1M13 12.5a1 1 0 0 0 1 1h8a1 1 0 1 0 0-2h-8a1 1 0 0 0-1 1m9.016 6.5a1 1 0 1 0 0-2h-8a1 1 0 1 0 0 2z" clip-rule="evenodd" style="fill:#313234;fill:color(display-p3 .1922 .1961 .2039);fill-opacity:1"/></svg>