<svg xmlns="http://www.w3.org/2000/svg" width="24" height="24" fill="none" viewBox="0 0 24 24"><path fill="#313234" d="M9.525 13.06a1 1 0 0 1 1.415 1.415l-2.733 2.732.607.607c.686.686 1.029 1.03 1.052 1.324a.8.8 0 0 1-.278.67C9.363 20 8.878 20 7.91 20H5.6c-.56 0-.84 0-1.054-.11a1 1 0 0 1-.437-.436C4 19.24 4 18.96 4 18.4v-2.31c0-.969 0-1.453.191-1.678a.8.8 0 0 1 .671-.278c.295.023.638.366 1.324 1.051l.607.608zM18.4 4c.56 0 .84 0 1.054.11.188.095.34.248.437.436C20 4.76 20 5.04 20 5.6v2.31c0 .969 0 1.453-.191 1.678a.8.8 0 0 1-.671.278c-.295-.023-.638-.366-1.324-1.052l-.607-.607-2.732 2.733a1 1 0 0 1-1.415-1.415l2.733-2.732-.607-.607c-.686-.686-1.03-1.03-1.052-1.324a.8.8 0 0 1 .278-.67C14.637 4 15.122 4 16.09 4z"/></svg>