<svg xmlns="http://www.w3.org/2000/svg" width="24" height="24" fill="none" viewBox="0 0 24 24"><path fill="#313234" fill-rule="evenodd" d="M20 7.91c0 .97 0 1.454-.192 1.678a.8.8 0 0 1-.67.278c-.295-.023-.638-.366-1.323-1.051l-.608-.608-2.732 2.732a1 1 0 0 1-1.414-1.414l2.732-2.732-.608-.608c-.685-.685-1.028-1.028-1.051-1.322a.8.8 0 0 1 .278-.671C14.636 4 15.12 4 16.09 4h2.31c.56 0 .84 0 1.054.109a1 1 0 0 1 .437.437C20 4.76 20 5.04 20 5.6zM4 16.09c0-.97 0-1.454.192-1.678a.8.8 0 0 1 .67-.278c.295.023.638.366 1.323 1.051l.608.608 2.732-2.732a1 1 0 1 1 1.414 1.414l-2.732 2.732.608.608c.685.685 1.028 1.028 1.051 1.322a.8.8 0 0 1-.278.671C9.364 20 8.88 20 7.91 20H5.6c-.56 0-.84 0-1.054-.109a1 1 0 0 1-.437-.437C4 19.24 4 18.96 4 18.4z" clip-rule="evenodd" style="fill:#313234;fill:color(display-p3 .1922 .1961 .2039);fill-opacity:1"/></svg>