<svg xmlns="http://www.w3.org/2000/svg" width="24" height="24" fill="none" viewBox="0 0 24 24"><path fill="#313234" d="M12 2q.507 0 1 .05v2.013A8 8 0 1 0 19.936 11h2.014q.05.493.05 1c0 5.523-4.477 10-10 10S2 17.523 2 12 6.477 2 12 2m3.65 11.477a.999.999 0 1 1 1.898.625c-.048.147-1.237 3.606-5.554 3.606h-.004c-4.307-.004-5.49-3.46-5.539-3.607a.999.999 0 0 1 1.897-.632c.035.099.82 2.237 3.643 2.239h.003c2.886 0 3.647-2.208 3.655-2.231M8.785 7.614c.845 0 1.198.612 1.198 2.107 0 1.494-.353 2.104-1.198 2.104s-1.199-.61-1.2-2.104.355-2.107 1.2-2.107m6.428 0c.845 0 1.198.612 1.198 2.107 0 1.494-.353 2.104-1.198 2.104-.846 0-1.2-.61-1.2-2.104s.354-2.107 1.2-2.107M20 4h3v2h-3v3h-2V6h-3V4h3V1h2z"/></svg>