<svg xmlns="http://www.w3.org/2000/svg" width="24" height="24" fill="none" viewBox="0 0 24 24"><path fill="#313234" fill-rule="evenodd" d="M12 20c-4.41 0-8-3.589-8-8s3.59-8 8-8 8 3.59 8 8-3.589 8-8 8m0-18C6.477 2 2 6.478 2 12s4.477 10 10 10 10-4.478 10-10S17.522 2 12 2M8.786 8.983c-.845 0-1.199.61-1.199 2.105s.354 2.106 1.2 2.106c.844 0 1.197-.61 1.197-2.107 0-1.494-.353-2.104-1.198-2.104m5.229 2.105c0-1.495.354-2.105 1.199-2.105s1.198.61 1.198 2.105-.353 2.106-1.198 2.106-1.199-.61-1.199-2.107" clip-rule="evenodd" style="fill:#313234;fill:color(display-p3 .1922 .1961 .2039);fill-opacity:1"/></svg>