<svg xmlns="http://www.w3.org/2000/svg" width="24" height="24" fill="none" viewBox="0 0 24 24"><path fill="#313234" d="M12 2c5.522 0 10 4.478 10 10s-4.478 10-10 10S2 17.522 2 12 6.477 2 12 2m0 2c-4.412 0-8 3.59-8 8s3.588 8 8 8c4.411 0 8-3.589 8-8s-3.589-8-8-8m3.65 9.477a.998.998 0 1 1 1.898.625c-.048.147-1.237 3.606-5.554 3.606h-.004c-4.307-.004-5.49-3.46-5.539-3.607a.999.999 0 0 1 1.897-.632c.035.099.82 2.237 3.643 2.24h.003c2.887 0 3.648-2.21 3.656-2.232M8.786 7.614c.845 0 1.198.611 1.199 2.106 0 1.495-.354 2.105-1.199 2.105s-1.199-.61-1.199-2.105.354-2.106 1.2-2.106m6.428 0c.845 0 1.198.611 1.198 2.106s-.353 2.105-1.198 2.105c-.846 0-1.2-.61-1.2-2.105s.354-2.106 1.2-2.106"/></svg>