<svg xmlns="http://www.w3.org/2000/svg" width="24" height="24" fill="none" viewBox="0 0 24 24"><path fill="#313234" d="M6 5a1 1 0 0 0-1 1v2a1 1 0 0 1-2 0V6a3 3 0 0 1 3-3h2a1 1 0 0 1 0 2zM19 6a1 1 0 0 0-1-1h-2a1 1 0 1 1 0-2h2a3 3 0 0 1 3 3v2a1 1 0 1 1-2 0zM6 19a1 1 0 0 1-1-1v-2a1 1 0 1 0-2 0v2a3 3 0 0 0 3 3h2a1 1 0 1 0 0-2zM18 19a1 1 0 0 0 1-1v-2a1 1 0 1 1 2 0v2a3 3 0 0 1-3 3h-2a1 1 0 1 1 0-2zM7.5 9.248a.748.748 0 0 1 1.496 0v1.354a.748.748 0 0 1-1.496 0zM15.748 8.5a.75.75 0 0 0-.748.748v1.354a.748.748 0 0 0 1.497 0V9.248a.75.75 0 0 0-.749-.748M11.7 9.285a.775.775 0 1 1 1.55 0v3.375c0 .835-.68 1.513-1.514 1.513h-.386a.775.775 0 1 1 0-1.55h.35zM14.306 14.886a.775.775 0 0 1 1.052 1.138A4.94 4.94 0 0 1 12 17.337a4.94 4.94 0 0 1-3.358-1.313.775.775 0 0 1 1.052-1.138c.63.582 1.448.902 2.306.902s1.677-.32 2.306-.902" style="fill:#313234;fill:color(display-p3 .1922 .1961 .2039);fill-opacity:1"/></svg>