<svg xmlns="http://www.w3.org/2000/svg" width="24" height="24" fill="none" viewBox="0 0 24 24"><path fill="#313234" fill-rule="evenodd" d="M18 1h2v3h3v2h-3v3h-2V6h-3V4h3zm-5 1.05Q12.507 2 12 2C6.477 2 2 6.477 2 12s4.477 10 10 10 10-4.477 10-10q0-.507-.05-1h-2.012q.062.492.062 1a8 8 0 1 1-7-7.938zm-4.214 9.775c-.845 0-1.199-.61-1.199-2.105s.354-2.106 1.2-2.106c.844 0 1.197.611 1.197 2.106s-.353 2.105-1.198 2.105m3.208 5.883h-.004c-4.307-.004-5.49-3.46-5.539-3.607a.999.999 0 0 1 1.897-.632c.035.1.82 2.237 3.643 2.24h.003c2.864 0 3.635-2.174 3.655-2.23v-.002a.998.998 0 1 1 1.9.625c-.049.147-1.238 3.606-5.555 3.606m2.021-7.988c0 1.495.353 2.105 1.199 2.105.845 0 1.198-.61 1.198-2.105s-.353-2.106-1.198-2.106c-.846 0-1.199.611-1.199 2.106" clip-rule="evenodd" style="fill:#313234;fill:color(display-p3 .1922 .1961 .2039);fill-opacity:1"/></svg>