<svg xmlns="http://www.w3.org/2000/svg" width="24" height="24" fill="none" viewBox="0 0 24 24"><path fill="#313234" d="M12 2c5.522 0 10 4.478 10 10s-4.478 10-10 10S2 17.522 2 12 6.477 2 12 2m0 2c-4.41 0-8 3.59-8 8s3.59 8 8 8 8-3.589 8-8-3.589-8-8-8m5.714 9.47c.25 0 .444.246.367.484-.828 2.576-3.234 4.45-6.08 4.45-2.848 0-5.254-1.874-6.082-4.45-.077-.238.116-.484.367-.484zM8.786 7.444c.845 0 1.199.61 1.199 2.107 0 1.495-.354 2.104-1.199 2.104s-1.199-.61-1.199-2.104c0-1.496.354-2.107 1.2-2.107m6.428 0c.845 0 1.198.61 1.198 2.107 0 1.495-.353 2.104-1.198 2.104s-1.2-.61-1.2-2.104c0-1.496.355-2.107 1.2-2.107"/></svg>