<svg xmlns="http://www.w3.org/2000/svg" width="24" height="24" fill="none" viewBox="0 0 24 24"><path fill="#313234" fill-rule="evenodd" d="M4 12c0 4.411 3.59 8 8 8s8-3.589 8-8-3.589-8-8-8-8 3.59-8 8m-2 0C2 6.478 6.477 2 12 2s10 4.478 10 10-4.478 10-10 10S2 17.522 2 12m4.286 1.47h11.428c.25 0 .444.246.367.484-.828 2.576-3.234 4.45-6.081 4.45s-5.253-1.874-6.081-4.45c-.077-.238.116-.484.367-.484m2.5-1.815c.845 0 1.198-.61 1.198-2.105s-.353-2.106-1.198-2.106-1.199.61-1.199 2.106.354 2.105 1.2 2.105m7.626-2.105c0 1.495-.353 2.105-1.198 2.105s-1.199-.61-1.199-2.105.354-2.106 1.199-2.106 1.198.61 1.198 2.106" clip-rule="evenodd" style="fill:#313234;fill:color(display-p3 .1922 .1961 .2039);fill-opacity:1"/></svg>