<svg xmlns="http://www.w3.org/2000/svg" width="24" height="24" fill="none" viewBox="0 0 24 24"><path fill="#313234" d="M12 2c5.522 0 10 4.478 10 10s-4.478 10-10 10S2 17.522 2 12 6.477 2 12 2m4.911 10.839a1 1 0 0 0-1.261.638c-.008.022-.769 2.231-3.656 2.231h-.003c-2.823-.002-3.608-2.14-3.643-2.24a.999.999 0 0 0-1.897.633c.048.147 1.232 3.603 5.54 3.607h.003c4.317 0 5.506-3.46 5.554-3.606a1 1 0 0 0-.637-1.263M8.786 7.614c-.845 0-1.199.611-1.199 2.106s.354 2.105 1.2 2.105c.844 0 1.198-.61 1.198-2.105S9.63 7.614 8.786 7.614m6.428 0c-.846 0-1.2.611-1.2 2.106s.354 2.105 1.2 2.105c.845 0 1.198-.61 1.198-2.105s-.353-2.106-1.198-2.106"/></svg>