<svg xmlns="http://www.w3.org/2000/svg" width="24" height="24" fill="none" viewBox="0 0 24 24"><path fill="#313234" d="M12 2c5.522 0 10 4.478 10 10s-4.478 10-10 10S2 17.522 2 12 6.477 2 12 2m0 2c-4.41 0-8 3.59-8 8s3.59 8 8 8 8-3.589 8-8-3.589-8-8-8m.006 9.708c2.228.002 3.33 1.329 3.629 2.111a.999.999 0 0 1-1.86.736c-.046-.103-.433-.846-1.77-.847h-.002c-1.358 0-1.741.762-1.781.85-.222.495-.802.74-1.302.528a.99.99 0 0 1-.556-1.267c.302-.785 1.408-2.11 3.64-2.11zM5.708 7.656a1 1 0 0 1 1.35-.424l3.766 1.963a1 1 0 0 1-.923 1.774l-.083-.043v.009c0 1.608-.38 2.264-1.29 2.264-.908 0-1.289-.656-1.289-2.264 0-.53.046-.949.135-1.283l-1.241-.647a1 1 0 0 1-.425-1.349m11.235-.424a1 1 0 0 1 .925 1.773l-1.27.661c.086.332.13.746.13 1.269 0 1.608-.379 2.264-1.287 2.264s-1.287-.655-1.289-2.258l-.052.028a1 1 0 0 1-1.35-.425 1 1 0 0 1 .425-1.349z"/></svg>