<svg xmlns="http://www.w3.org/2000/svg" width="24" height="24" fill="none" viewBox="0 0 24 24"><path fill="#313234" d="M20.46 18.3v.01c.46 0 .88-.32.98-.79.708-3.355.526-5.965.501-6.324l-.001-.016c-.14-1.76-.74-3.44-1.72-4.87a.997.997 0 0 0-1.39-.26c-.46.31-.57.93-.26 1.39a8.14 8.14 0 0 1 1.38 3.9c.01.1.2 2.57-.47 5.75a.998.998 0 0 0 .98 1.21M1.9 15.21c.19.16.42.24.65.24.28 0 .56-.12.76-.35.5-.6.69-1.97.67-2.62-.1-1.44.2-2.88.86-4.16.25-.49.06-1.1-.43-1.35s-1.1-.06-1.35.43a9.9 9.9 0 0 0-1.08 5.16c.01.47-.15 1.14-.2 1.24-.35.42-.3 1.05.12 1.41M5.42 5.72c.2.24.48.36.77.36l-.01-.02c.22 0 .45-.07.64-.23a7.86 7.86 0 0 1 4.43-1.81c.23-.02.48-.03.73-.03 1.53 0 3 .42 4.27 1.22.47.3 1.08.16 1.38-.31s.16-1.09-.31-1.38C15.74 2.53 13.89 2 11.99 2c-.31 0-.63.01-.9.04-2.04.16-3.96.95-5.55 2.27-.42.36-.47.99-.12 1.41M15.53 22.06c.14.08.3.11.45.11l.01.01c.36 0 .71-.2.89-.55.57-1.13 1.04-2.34 1.38-3.62.14-.54-.18-1.09-.71-1.23-.54-.14-1.09.18-1.23.71-.31 1.14-.72 2.23-1.23 3.23a1 1 0 0 0 .44 1.34M2.87 18.16c.2.21.47.31.73.31.25 0 .5-.09.69-.27.19-.17.38-.34.59-.48 2.158-1.516 2.114-4.988 2.11-5.32v-.02a1.01 1.01 0 0 0-1.04-.96c-.55.02-.98.49-.96 1.04.03.87-.24 2.9-1.26 3.62-.29.2-.56.43-.82.67a.996.996 0 0 0-.04 1.41"/><path fill="#313234" d="M17.82 15.16h.08c.52 0 .96-.39 1-.91.14-1.6.05-2.7.04-2.82-.31-3.66-3.3-6.42-6.96-6.42-.23 0-.46.01-.64.03a6.96 6.96 0 0 0-5.4 3.38c-.28.47-.12 1.09.35 1.37s1.09.12 1.37-.35a4.98 4.98 0 0 1 3.86-2.41c.14-.02.3-.02.46-.02 2.62 0 4.75 1.97 4.97 4.59l.002.038c.013.198.075 1.125-.042 2.442-.05.55.36 1.03.91 1.08"/><path fill="#313234" d="M8.36 22.33a.99.99 0 0 1-.77-.36 1 1 0 0 1 .12-1.41c.46-.39.88-.83 1.25-1.33.54-.72.98-1.56 1.31-2.48.831-2.32.7-4.5.69-4.66v-.01c-.04-.55.37-1.03.92-1.08a.99.99 0 0 1 1.08.91l.002.052c.02.393.142 2.811-.802 5.448-.4 1.12-.94 2.13-1.6 3.01-.46.62-.99 1.17-1.57 1.66-.19.16-.42.23-.64.23zM11.875 23h.015-.03z"/><path fill="#313234" d="M11.26 22.78c.186.146.4.217.615.22a1.02 1.02 0 0 0 .765-.37c3.77-4.66 3.31-10.7 3.29-10.96C15.75 9.58 14.05 8 11.96 8c-.12 0-.24.01-.36.02-2.18.17-3.81 2.1-3.64 4.28.01.04.22 4.31-2.53 6.23-.2.14-.39.3-.56.48a.996.996 0 0 0 .01 1.41c.4.39 1.03.38 1.42-.01.08-.09.18-.17.28-.24 3.641-2.548 3.404-7.706 3.39-7.998v-.012c-.09-1.1.73-2.06 1.82-2.15 1.12-.1 2.08.72 2.17 1.83.02.22.42 5.49-2.85 9.53-.35.43-.28 1.06.15 1.41"/></svg>