<svg xmlns="http://www.w3.org/2000/svg" width="24" height="24" fill="none" viewBox="0 0 24 24"><path fill="#313234" d="M17 8a1 1 0 0 1 1 1v2.667c0 .216-.07.427-.2.6l-2.6 3.466a1 1 0 0 0-.2.6V21a1 1 0 0 1-1 1h-4a1 1 0 0 1-1-1v-4.667a1 1 0 0 0-.2-.6l-2.6-3.465c-.13-.174-.2-.385-.2-.601V9a1 1 0 0 1 1-1zM3.707 2.707a1 1 0 0 1 1.414 0l1.414 1.414a1 1 0 1 1-1.414 1.414L3.707 4.121a1 1 0 0 1 0-1.414m15.414 0a1 1 0 0 1 1.414 1.414l-1.414 1.414a1 1 0 1 1-1.414-1.414zM12 0a1 1 0 0 1 1 1v2a1 1 0 0 1-2 0V1a1 1 0 0 1 1-1"/></svg>