<svg xmlns="http://www.w3.org/2000/svg" width="24" height="24" fill="none" viewBox="0 0 24 24"><path fill="#313234" fill-rule="evenodd" d="M11 3a1 1 0 1 0 2 0V1a1 1 0 1 0-2 0zM5.121 5.536A1 1 0 0 0 6.536 4.12L5.12 2.707a1 1 0 1 0-1.414 1.414zm12.586 0a1 1 0 0 1 0-1.415l1.414-1.414a1 1 0 1 1 1.415 1.414L19.12 5.536a1 1 0 0 1-1.414 0M7 8h10a1 1 0 0 1 1 1v2.667c0 .216-.07.426-.2.6l-2.6 3.466a1 1 0 0 0-.2.6V21a1 1 0 0 1-1 1h-4a1 1 0 0 1-1-1v-4.667a1 1 0 0 0-.2-.6l-2.6-3.466c-.13-.174-.2-.384-.2-.6V9a1 1 0 0 1 1-1" clip-rule="evenodd"/></svg>