<svg xmlns="http://www.w3.org/2000/svg" width="24" height="24" fill="none" viewBox="0 0 24 24"><path fill="#313234" fill-rule="evenodd" d="M1.707 2.703a1 1 0 0 0 0 1.414l16.97 16.97a1 1 0 0 0 1.415-1.413l-.7-.7A3 3 0 0 0 22 16V8a3 3 0 0 0-3-3h-6.172a1 1 0 0 1-.707-.293l-.828-.828A3 3 0 0 0 9.172 3H5c-.462 0-.9.104-1.29.291l-.589-.588a1 1 0 0 0-1.414 0M5.418 5l2 2h1.754a1 1 0 0 0 .707-.293L10.586 6l-.707-.707A1 1 0 0 0 9.172 5zM9.41 8.99l8.01 8.01H19a1 1 0 0 0 1-1V8a1 1 0 0 0-1-1h-6.172a1 1 0 0 0-.707.293l-.828.828a3 3 0 0 1-1.884.87" clip-rule="evenodd"/><path fill="#313234" d="M2 6q0-.05.002-.098L5.1 9H5a1 1 0 0 0-1 1v6a1 1 0 0 0 1 1h8.1l2 2H5a3 3 0 0 1-3-3z"/></svg>