<svg xmlns="http://www.w3.org/2000/svg" width="24" height="24" fill="none" viewBox="0 0 24 24"><path fill="#313234" fill-rule="evenodd" d="M5 3a3 3 0 0 0-3 3v10a3 3 0 0 0 3 3h14a3 3 0 0 0 3-3V8a3 3 0 0 0-3-3h-6.172a1 1 0 0 1-.707-.293l-.828-.828A3 3 0 0 0 9.172 3zm5.586 3-.707-.707A1 1 0 0 0 9.172 5H5a1 1 0 0 0-1 1v1.17c.313-.11.65-.17 1-.17h4.172a1 1 0 0 0 .707-.293zM4 10v6a1 1 0 0 0 1 1h14a1 1 0 0 0 1-1V8a1 1 0 0 0-1-1h-6.172a1 1 0 0 0-.707.293l-.828.828A3 3 0 0 1 9.172 9H5a1 1 0 0 0-1 1" clip-rule="evenodd"/></svg>