<svg xmlns="http://www.w3.org/2000/svg" width="24" height="24" fill="none" viewBox="0 0 24 24"><path fill="#313234" fill-rule="evenodd" d="M15 12.828V11h-4.442a4 4 0 0 0-.73-1L5 5.172V4h8V2H4a1 1 0 0 0-1 1v2.172a2 2 0 0 0 .586 1.414l4.828 4.828A2 2 0 0 1 9 12.828v8.554a1 1 0 0 0 1.447.894l4-2a1 1 0 0 0 .553-.894v-6.554M13 13v5.763l-2 1V13zm1.463-9.121L16.584 6l-2.121 2.121 1.414 1.415 2.121-2.122 2.122 2.122 1.414-1.415-2.121-2.12 2.12-2.122-1.413-1.414-2.122 2.12-2.121-2.12z" clip-rule="evenodd" style="fill:#313234;fill:color(display-p3 .1922 .1961 .2039);fill-opacity:1"/></svg>