<svg xmlns="http://www.w3.org/2000/svg" width="24" height="24" fill="none" viewBox="0 0 24 24"><path fill="#313234" fill-rule="evenodd" d="M20 2a1 1 0 0 1 1 1v2.172a2 2 0 0 1-.586 1.414l-4.828 4.828A2 2 0 0 0 15 12.828v6.554a1 1 0 0 1-.553.894l-4 2A1 1 0 0 1 9 21.382v-8.554a2 2 0 0 0-.586-1.414L3.586 6.586A2 2 0 0 1 3 5.172V3a1 1 0 0 1 1-1zm-1 2H5v1.172L9.828 10c.297.296.542.634.73 1h2.884q.232-.451.574-.835l.156-.165L19 5.172zm-6 9h-2v6.763l2-1z" clip-rule="evenodd" style="fill:#313234;fill:color(display-p3 .1922 .1961 .2039);fill-opacity:1"/></svg>