<svg xmlns="http://www.w3.org/2000/svg" width="24" height="24" fill="none" viewBox="0 0 24 24"><path fill="#313234" d="M12 2c4.411 0 8 3.526 8 7.86v8.595c0 1.012-.63 1.877-1.605 2.203a2.37 2.37 0 0 1-2.64-.782c-.174-.22-.355-.222-.528.001l-.716.911A3.17 3.17 0 0 1 12 22c-.99 0-1.907-.44-2.513-1.212l-.715-.912c-.174-.22-.354-.222-.528.001-.629.801-1.664 1.105-2.641.781C4.63 20.331 4 19.468 4 18.455V9.86C4 5.526 7.589 2 12 2m0 2C8.711 4 6.036 6.63 6.036 9.86v8.595c0 .193.122.275.225.31a.31.31 0 0 0 .372-.11 2.37 2.37 0 0 1 1.875-.906c.74 0 1.424.33 1.877.906l.715.912c.434.55 1.366.552 1.8-.001l.716-.912a2.37 2.37 0 0 1 1.874-.905h.001c.74 0 1.424.33 1.876.906a.31.31 0 0 0 .371.11c.103-.035.226-.117.226-.31V9.86C17.964 6.63 15.289 4 12 4M9.097 8.076c.764 0 1.083.543 1.083 1.869s-.32 1.868-1.083 1.869c-.764 0-1.083-.543-1.083-1.87 0-1.325.319-1.868 1.083-1.868m5.806 0c.764 0 1.083.543 1.083 1.869s-.319 1.869-1.083 1.869-1.083-.543-1.083-1.87c0-1.325.32-1.868 1.083-1.868"/></svg>