<svg xmlns="http://www.w3.org/2000/svg" width="24" height="24" fill="none" viewBox="0 0 24 24"><path fill="#313234" d="M12 20v2c1.96 0 3.79-.567 5.335-1.545l-1.458-1.458A7.95 7.95 0 0 1 12 20"/><path fill="#313234" fill-rule="evenodd" d="M19.647 18.438A9.96 9.96 0 0 0 22 12c0-5.514-4.486-10-10-10-2.45 0-4.697.886-6.438 2.354l-1.44-1.441a1 1 0 0 0-1.415 1.414l16.97 16.97a1 1 0 0 0 1.415-1.413zM6.982 5.774A7.96 7.96 0 0 1 12 4c4.411 0 8 3.59 8 8a7.96 7.96 0 0 1-1.774 5.018z" clip-rule="evenodd"/><path fill="#313234" d="m3.545 6.665 1.459 1.459A7.95 7.95 0 0 0 4 12H2c0-1.96.567-3.79 1.545-5.335M8 17.414l3.147-3.147-1.414-1.414L6.586 16H4.914a1 1 0 0 0-.707.293l-2.28 2.28a.25.25 0 0 0 .177.427H5v2.896c0 .223.27.335.427.177l2.28-2.28A1 1 0 0 0 8 19.086z"/></svg>