<svg xmlns="http://www.w3.org/2000/svg" width="24" height="24" fill="none" viewBox="0 0 24 24"><path fill="#313234" d="M12 10.198v3.85h5.4a4.63 4.63 0 0 1-1.998 3.04v.002c-.896.608-2.052.953-3.399.953-2.608 0-4.82-1.76-5.614-4.126h-.004a6 6 0 0 1 0-3.83c.79-2.37 3.006-4.13 5.615-4.13a5.43 5.43 0 0 1 3.836 1.5l2.855-2.855A9.6 9.6 0 0 0 12 2.001a10 10 0 0 0-8.936 5.511 10 10 0 0 0 0 8.98A10 10 0 0 0 12 22c2.697 0 4.971-.886 6.628-2.414l-.002-.002c1.891-1.741 2.978-4.312 2.978-7.354 0-.68-.055-1.363-.172-2.032z" style="fill:#313234;fill:color(display-p3 .1922 .1961 .2039);fill-opacity:1"/></svg>