<svg xmlns="http://www.w3.org/2000/svg" width="24" height="24" fill="none" viewBox="0 0 24 24"><path fill="#313234" d="m13 12-7.926 7.502c.244.861 1.071 1.491 2.054 1.491.391 0 .76-.098 1.078-.28l.023-.014 8.85-4.836z" opacity=".4" style="fill:#313234;fill:color(display-p3 .1922 .1961 .2039);fill-opacity:1"/><path fill="#313234" d="M20.9 10.25h-.008l-3.82-2.106L13 12l4.087 3.87 3.805-2.078c.665-.343 1.115-1.008 1.115-1.771s-.443-1.428-1.108-1.764z" opacity=".6" style="fill:#313234;fill:color(display-p3 .1922 .1961 .2039);fill-opacity:1"/><path fill="#313234" d="M5.074 4.498A2 2 0 0 0 5 5.016V18.99c0 .182.022.35.074.518L13 12z" style="fill:#313234;fill:color(display-p3 .1922 .1961 .2039);fill-opacity:1"/><path fill="#313234" d="m13 12 4.074-3.855-8.853-4.858A2.2 2.2 0 0 0 7.121 3c-.976 0-1.81.65-2.047 1.504z" opacity=".8" style="fill:#313234;fill:color(display-p3 .1922 .1961 .2039);fill-opacity:1"/></svg>