<svg width="24" height="24" viewBox="0 0 24 24" fill="none" xmlns="http://www.w3.org/2000/svg">
<path opacity="0.4" d="M13 12L5.07388 19.5024C5.31769 20.3632 6.14516 20.993 7.12777 20.993C7.51934 20.993 7.88875 20.895 8.20643 20.7131L8.2286 20.6991L17.0795 15.8632L13 12Z" fill="#313234"/>
<path opacity="0.6" d="M20.8992 10.2503H20.8918L17.0721 8.1438L13 12L17.0869 15.8701L20.8918 13.7915C21.5567 13.4486 22.0074 12.7838 22.0074 12.0209C22.0074 11.2581 21.5641 10.5933 20.8992 10.2573V10.2503Z" fill="#313234"/>
<path d="M5.07388 4.49768C5.02955 4.66564 5 4.83361 5 5.01557V18.9915C5 19.1734 5.02216 19.3414 5.07388 19.5093L13 12L5.07388 4.49768Z" fill="#313234"/>
<path opacity="0.8" d="M13 12L17.0742 8.14453L8.22121 3.28694C7.90352 3.10498 7.52673 3 7.12038 3C6.14516 3 5.31064 3.6501 5.07422 4.50391L13 12Z" fill="#313234"/>
</svg>
