<svg xmlns="http://www.w3.org/2000/svg" width="24" height="24" fill="none" viewBox="0 0 24 24"><path fill="#313234" fill-rule="evenodd" d="M13.776 21h-3.551a.475.475 0 0 1-.474-.475V3.475c0-.263.212-.475.474-.475h3.55c.263 0 .476.212.476.475v17.05a.475.475 0 0 1-.475.475m6.75 0h-3.551a.475.475 0 0 1-.474-.475V8.475c0-.263.212-.475.474-.475h3.55c.263 0 .476.212.476.475v12.05a.475.475 0 0 1-.475.475M3.52 21h3.46a.52.52 0 0 0 .52-.52v-4.96a.52.52 0 0 0-.52-.52H3.52a.52.52 0 0 0-.52.52v4.96c0 .288.232.52.52.52" clip-rule="evenodd" style="fill:#313234;fill:color(display-p3 .1922 .1961 .2039);fill-opacity:1"/></svg>