<svg xmlns="http://www.w3.org/2000/svg" width="24" height="24" fill="none" viewBox="0 0 24 24"><path fill="#313234" d="M8.985 12a8 8 0 0 1 7.982 7.476.503.503 0 0 1-.506.524H1.507a.504.504 0 0 1-.506-.524A8 8 0 0 1 8.985 12m7.5 1.5a6.5 6.5 0 0 1 6.478 5.977.497.497 0 0 1-.502.523h-3.997a.497.497 0 0 1-.493-.48 8.98 8.98 0 0 0-2.656-5.909c.38-.069.77-.111 1.17-.111M8.985 4a3.6 3.6 0 1 1-.002 7.2A3.6 3.6 0 0 1 8.985 4m10.422.273a.934.934 0 0 1 1.32 1.32L18.82 7.5l1.906 1.906a.934.934 0 0 1-1.32 1.32L17.5 8.82l-1.906 1.906a.934.934 0 0 1-1.32-1.32L16.18 7.5l-1.906-1.906a.934.934 0 0 1 1.32-1.32L17.5 6.178z"/></svg>