<svg xmlns="http://www.w3.org/2000/svg" width="24" height="24" fill="none" viewBox="0 0 24 24"><path fill="#313234" fill-rule="evenodd" d="M8.984 11.2a3.6 3.6 0 1 0 0-7.2 3.6 3.6 0 0 0 0 7.2M19.41 9.925a2.926 2.926 0 1 1-5.85 0 2.926 2.926 0 0 1 5.85 0m-4.095 3.686c.38-.069.77-.11 1.17-.11a6.5 6.5 0 0 1 6.48 5.976.497.497 0 0 1-.503.523h-3.997a.497.497 0 0 1-.493-.48 8.97 8.97 0 0 0-2.657-5.909M1.001 19.476a8 8 0 0 1 15.966 0 .504.504 0 0 1-.506.524H1.507a.504.504 0 0 1-.506-.524" clip-rule="evenodd"/></svg>