<svg xmlns="http://www.w3.org/2000/svg" width="24" height="24" fill="none" viewBox="0 0 24 24"><path fill="#313234" fill-rule="evenodd" d="M11 6c0-1.103-.897-2-2-2s-2 .897-2 2 .897 2 2 2 2-.897 2-2m2 0c0 2.206-1.794 4-4 4S5 8.206 5 6s1.794-4 4-4 4 1.794 4 4m3.5 1.5c.551 0 1 .45 1 1 0 .551-.449 1-1 1s-1-.449-1-1 .45-1 1-1m0 4c1.654 0 3-1.346 3-3s-1.346-3-3-3-3 1.346-3 3 1.346 3 3 3m1.434 7.5a8.93 8.93 0 0 0-1.8-4.469q.067-.006.136-.014.096-.015.19-.017c2.66 0 4.933 1.935 5.408 4.5zm-2.994 0H2.07A7.015 7.015 0 0 1 9 13a7.014 7.014 0 0 1 6.93 6zm1.52-6.5c-.44 0-.88.042-1.35.127l-.774.141A8.96 8.96 0 0 0 9 11C4.27 11 .324 14.694.018 19.412a1.5 1.5 0 0 0 .402 1.11c.285.304.687.478 1.103.478h20.914c.42 0 .825-.177 1.11-.487.28-.303.421-.71.388-1.115-.308-3.868-3.59-6.898-7.476-6.898" clip-rule="evenodd"/></svg>