<svg xmlns="http://www.w3.org/2000/svg" width="24" height="24" fill="none" viewBox="0 0 24 24"><path fill="#313234" fill-rule="evenodd" d="M9 4c1.103 0 2 .897 2 2s-.897 2-2 2-2-.897-2-2 .897-2 2-2m0 6c2.206 0 4-1.794 4-4s-1.794-4-4-4-4 1.794-4 4 1.794 4 4 4m8.934 9a8.93 8.93 0 0 0-1.8-4.469q.067-.006.136-.014.096-.015.19-.017c2.66 0 4.933 1.935 5.408 4.5zm-2.994 0H2.07A7.015 7.015 0 0 1 9 13a7.014 7.014 0 0 1 6.93 6zm1.52-6.5c-.44 0-.88.042-1.35.127l-.774.141A8.96 8.96 0 0 0 9 11C4.27 11 .324 14.694.018 19.412a1.5 1.5 0 0 0 .402 1.11c.285.304.687.478 1.103.478h20.914c.42 0 .825-.177 1.11-.487.28-.303.421-.71.388-1.115-.308-3.868-3.59-6.898-7.476-6.898m4.267-1.773a.933.933 0 0 1-1.32 0L17.5 8.82l-1.907 1.907a.933.933 0 1 1-1.32-1.32L16.18 7.5l-1.907-1.907a.933.933 0 1 1 1.32-1.32L17.5 6.18l1.907-1.907a.933.933 0 1 1 1.32 1.32L18.82 7.5l1.907 1.907a.933.933 0 0 1 0 1.32" clip-rule="evenodd"/></svg>