<svg xmlns="http://www.w3.org/2000/svg" width="24" height="24" fill="none" viewBox="0 0 24 24"><path fill="#313234" d="M9 11c1.99 0 3.837.66 5.336 1.768l.774-.14c.469-.086.91-.128 1.349-.128 3.885 0 7.168 3.03 7.476 6.899.033.404-.108.811-.387 1.114-.285.31-.69.487-1.112.487H1.523c-.416 0-.818-.173-1.103-.478a1.5 1.5 0 0 1-.402-1.11C.324 14.694 4.268 11 9 11m0 2a7.015 7.015 0 0 0-6.93 6h13.86A7.015 7.015 0 0 0 9 13m7.459 1.5c-.104 0-.218.024-.325.031a8.93 8.93 0 0 1 1.8 4.47h3.934c-.475-2.566-2.75-4.5-5.41-4.5m.04-9c1.655 0 3 1.346 3 3s-1.345 3-3 3c-1.653 0-3-1.346-3-3s1.347-3 3-3M9 2c2.207 0 4 1.794 4 4s-1.793 4-4 4c-2.205 0-4-1.794-4-4s1.795-4 4-4m7.5 5.5c-.55 0-1 .45-1 1 0 .551.45 1 1 1 .552 0 1-.449 1-1s-.448-1-1-1M9 4c-1.102 0-2 .897-2 2s.898 2 2 2c1.104 0 2-.897 2-2s-.896-2-2-2"/></svg>