<svg xmlns="http://www.w3.org/2000/svg" width="24" height="24" fill="none" viewBox="0 0 24 24"><path fill="#313234" fill-rule="evenodd" d="M12.584 7.6a3.6 3.6 0 1 1-7.2 0 3.6 3.6 0 0 1 7.2 0m8.143 3.127a.933.933 0 0 1-1.32 0L17.5 8.82l-1.907 1.907a.933.933 0 1 1-1.32-1.32L16.18 7.5l-1.907-1.907a.933.933 0 1 1 1.32-1.32L17.5 6.18l1.907-1.907a.933.933 0 1 1 1.32 1.32L18.82 7.5l1.907 1.907a.933.933 0 0 1 0 1.32M8.984 12a8 8 0 0 0-7.983 7.476.504.504 0 0 0 .506.524h14.954c.285 0 .524-.24.506-.524A8 8 0 0 0 8.984 12m6.33 1.611c.38-.069.77-.11 1.17-.11a6.5 6.5 0 0 1 6.48 5.976.497.497 0 0 1-.503.523h-3.997a.497.497 0 0 1-.493-.48 8.97 8.97 0 0 0-2.657-5.909" clip-rule="evenodd"/></svg>