<svg xmlns="http://www.w3.org/2000/svg" width="24" height="24" fill="none" viewBox="0 0 24 24"><path fill="#313234" d="M16.777 20.976c-.37.37-.81.514-1.24.514-.428 0-.87-.145-1.237-.512l-5.47-5.469-.202-.212A6.22 6.22 0 0 1 7 11.089v-.776l.005-.256A6.23 6.23 0 0 1 10.93 4.51 7.1 7.1 0 0 1 13.573 4h2.677l.192.006a3.26 3.26 0 0 1 2.85 2.102l2.25 6 .069.203a3.22 3.22 0 0 1-.44 2.791l-.128.172A3.22 3.22 0 0 1 18.5 16.5h-3.73l2.005 2.003.113.125a1.753 1.753 0 0 1-.11 2.348M3.054 14.727C3 14.62 3 14.48 3 14.2V5.8c0-.28 0-.42.054-.527a.5.5 0 0 1 .219-.218C3.38 5 3.52 5 3.8 5h1.4c.28 0 .42 0 .527.055a.5.5 0 0 1 .218.218C6 5.38 6 5.52 6 5.8v8.4c0 .28 0 .42-.055.527a.5.5 0 0 1-.218.218C5.62 15 5.48 15 5.2 15H3.8c-.28 0-.42 0-.527-.055a.5.5 0 0 1-.219-.218"/></svg>