<svg xmlns="http://www.w3.org/2000/svg" width="24" height="24" fill="none" viewBox="0 0 24 24"><path fill="#313234" fill-rule="evenodd" d="M10.184 3.017a1 1 0 0 1 .799 1.167L10.455 7h4.965l.597-3.184a1 1 0 0 1 1.966.368L17.455 7H20a1 1 0 1 1 0 2h-2.92l-1.125 6H19a1 1 0 1 1 0 2h-3.42l-.597 3.184a1 1 0 0 1-1.966-.368L13.545 17H8.58l-.597 3.184a1 1 0 0 1-1.966-.368L6.545 17H4a1 1 0 1 1 0-2h2.92l1.125-6H5a1 1 0 0 1 0-2h3.42l.597-3.184a1 1 0 0 1 1.167-.799M13.92 15l1.125-6H10.08l-1.125 6z" clip-rule="evenodd"/></svg>