<svg xmlns="http://www.w3.org/2000/svg" width="24" height="24" fill="none" viewBox="0 0 24 24"><path fill="#313234" fill-rule="evenodd" d="M10.679 5.516a1 1 0 0 1 .805 1.163L11.244 8h2.967l.305-1.679a1 1 0 0 1 1.968.358L16.244 8H17.5a1 1 0 1 1 0 2h-1.62l-.727 4H16.5a1 1 0 1 1 0 2h-1.71l-.306 1.679a1 1 0 1 1-1.968-.358l.24-1.321H9.79l-.305 1.679a1 1 0 1 1-1.968-.358L7.756 16H6.5a1 1 0 1 1 0-2h1.62l.727-4H7.5a1 1 0 0 1 0-2h1.71l.306-1.679a1 1 0 0 1 1.163-.805M13.12 14l.727-4H10.88l-.727 4z" clip-rule="evenodd"/></svg>