<svg xmlns="http://www.w3.org/2000/svg" width="24" height="24" fill="none" viewBox="0 0 24 24"><path fill="#313234" fill-rule="evenodd" d="M4.5 5a.5.5 0 0 0-.5.5v12a.5.5 0 0 0 .5.5H6a.5.5 0 0 0 .5-.5V13h5v4.5a.5.5 0 0 0 .5.5h1.5a.5.5 0 0 0 .5-.5v-12a.5.5 0 0 0-.5-.5H12a.5.5 0 0 0-.5.5v5h-5v-5A.5.5 0 0 0 6 5zm16 7.383c0-1.26-1.654-1.728-2.315-.655l-3.35 5.443A1.2 1.2 0 0 0 15.859 19H18.5v1.5a.5.5 0 0 0 .5.5h1a.5.5 0 0 0 .5-.5V19h1a.5.5 0 0 0 .5-.5v-1a.5.5 0 0 0-.5-.5h-1zm-2 2.417V17h-1.3z" clip-rule="evenodd"/></svg>