<svg xmlns="http://www.w3.org/2000/svg" width="24" height="24" fill="none" viewBox="0 0 24 24"><path fill="#313234" d="M17.657 6.343a8 8 0 0 0-11.314 0C4.818 7.87 4 10.246 4 12.707c0 .557.042 1.11.125 1.65a3 3 0 0 1 3.632.471l1.415 1.415a3 3 0 0 1-4.243 4.242C2.939 18.496 2 15.56 2 12.707s.94-5.789 2.929-7.778c3.905-3.905 10.237-3.905 14.142 0C21.061 6.919 22 9.855 22 12.707s-.94 5.79-2.929 7.778a3 3 0 0 1-4.243-4.242l1.415-1.415a3 3 0 0 1 3.633-.47c.082-.54.124-1.094.124-1.65 0-2.463-.818-4.84-2.343-6.365" style="fill:#313234;fill:color(display-p3 .1922 .1961 .2039);fill-opacity:1"/></svg>