<svg xmlns="http://www.w3.org/2000/svg" width="24" height="24" fill="none" viewBox="0 0 24 24"><path fill="#313234" d="M17.14 11.09c1.643-.357 3.57.41 3.834 2.258.15 1.047-.317 1.988-1.065 2.652.748.664 1.214 1.605 1.065 2.652-.265 1.848-2.19 2.615-3.833 2.258a4 4 0 0 1-1.423-.616c-.227-.157-.24-.477-.055-.68l.809-.887c.111-.123.3-.13.44-.04.187.12.409.216.652.27.958.207 1.389-.3 1.43-.588.055-.383-.331-1.114-1.3-1.325a3 3 0 0 0-.31-.033.426.426 0 0 1-.407-.42v-1.183c0-.226.18-.404.407-.419.16-.01.272-.025.31-.033.969-.21 1.355-.942 1.3-1.325-.041-.288-.472-.795-1.43-.587a2 2 0 0 0-.653.27c-.14.089-.328.082-.44-.04l-.808-.887c-.186-.204-.172-.524.055-.68a4 4 0 0 1 1.423-.617M6 5a.5.5 0 0 1 .5.5v5h5v-5A.5.5 0 0 1 12 5h1.5a.5.5 0 0 1 .5.5v12a.5.5 0 0 1-.5.5H12a.5.5 0 0 1-.5-.5V13h-5v4.5a.5.5 0 0 1-.5.5H4.5a.5.5 0 0 1-.5-.5v-12a.5.5 0 0 1 .5-.5z"/></svg>