<svg xmlns="http://www.w3.org/2000/svg" width="24" height="24" fill="none" viewBox="0 0 24 24"><path fill="#313234" fill-rule="evenodd" d="M4.5 5a.5.5 0 0 0-.5.5v12a.5.5 0 0 0 .5.5H6a.5.5 0 0 0 .5-.5V13h5v4.5a.5.5 0 0 0 .5.5h1.5a.5.5 0 0 0 .5-.5v-12a.5.5 0 0 0-.5-.5H12a.5.5 0 0 0-.5.5v5h-5v-5A.5.5 0 0 0 6 5zm12.477 10.408c0-.227.181-.404.407-.418.161-.01.271-.025.31-.034.969-.21 1.355-.942 1.3-1.325-.042-.289-.472-.795-1.43-.587a2 2 0 0 0-.653.27c-.14.089-.328.082-.44-.04l-.808-.887c-.186-.205-.172-.524.055-.681a4 4 0 0 1 1.422-.616c1.643-.357 3.57.41 3.834 2.257.15 1.048-.317 1.99-1.064 2.653.747.664 1.213 1.605 1.064 2.653-.265 1.847-2.19 2.614-3.834 2.257a4 4 0 0 1-1.422-.616c-.227-.157-.24-.476-.055-.68l.808-.888c.112-.122.3-.129.44-.04.188.122.41.217.654.27.957.208 1.387-.299 1.429-.587.055-.383-.331-1.115-1.3-1.325a3 3 0 0 0-.31-.034.425.425 0 0 1-.407-.418z" clip-rule="evenodd"/></svg>