<svg xmlns="http://www.w3.org/2000/svg" width="24" height="24" fill="none" viewBox="0 0 24 24"><path fill="#313234" d="M16.308 12.737a2.78 2.78 0 1 1 4.495 3.235L18.186 19H21a.5.5 0 0 1 .5.5v1a.5.5 0 0 1-.5.5h-3.907c-1.284 0-1.975-1.509-1.135-2.48l3.331-3.855a.78.78 0 1 0-1.26-.907l-.414.697a.5.5 0 0 1-.685.175l-.86-.51a.5.5 0 0 1-.175-.685zM6 5a.5.5 0 0 1 .5.5v5h5v-5A.5.5 0 0 1 12 5h1.5a.5.5 0 0 1 .5.5v12a.5.5 0 0 1-.5.5H12a.5.5 0 0 1-.5-.5V13h-5v4.5a.5.5 0 0 1-.5.5H4.5a.5.5 0 0 1-.5-.5v-12a.5.5 0 0 1 .5-.5z"/></svg>