<svg xmlns="http://www.w3.org/2000/svg" width="24" height="24" fill="none" viewBox="0 0 24 24"><path fill="#000" d="M5.785 4.164c3.926-3.121 9.655-2.867 13.286.764C21.061 6.917 22 9.855 22 12.706c0 2.118-.521 4.281-1.602 6.07l1.148 1.148a1.001 1.001 0 0 1-1.414 1.415L2.81 4.018a1 1 0 0 1 1.414-1.414zm-.57 3.672C4.42 9.23 4 10.946 4 12.706c0 .558.042 1.111.125 1.65a3 3 0 0 1 3.633.471l1.414 1.415a3 3 0 0 1-4.243 4.243C2.939 18.495 2 15.558 2 12.706c0-2.219.572-4.488 1.762-6.324zM18.38 21a3 3 0 0 1-4.067-4.066zm-.722-14.656a8 8 0 0 0-10.443-.75l9.136 9.135a3 3 0 0 1 3.526-.371c.082-.54.124-1.094.124-1.65 0-2.462-.818-4.839-2.343-6.364"/></svg>