<svg xmlns="http://www.w3.org/2000/svg" width="24" height="24" fill="none" viewBox="0 0 24 24"><path fill="#313234" fill-rule="evenodd" d="M4.5 5a.5.5 0 0 0-.5.5v12a.5.5 0 0 0 .5.5H6a.5.5 0 0 0 .5-.5V13h5v4.5a.5.5 0 0 0 .5.5h1.5a.5.5 0 0 0 .5-.5v-12a.5.5 0 0 0-.5-.5H12a.5.5 0 0 0-.5.5v5h-5v-5A.5.5 0 0 0 6 5zm16.393 7.448c-1.203-1.547-3.586-1.396-4.585.29l-.413.697a.5.5 0 0 0 .175.685l.86.51a.5.5 0 0 0 .685-.175l.413-.698a.78.78 0 1 1 1.261.908l-3.331 3.854c-.84.972-.15 2.481 1.135 2.481H21a.5.5 0 0 0 .5-.5v-1a.5.5 0 0 0-.5-.5h-2.814l2.616-3.028a2.78 2.78 0 0 0 .091-3.524" clip-rule="evenodd"/></svg>