<svg xmlns="http://www.w3.org/2000/svg" width="24" height="24" fill="none" viewBox="0 0 24 24"><path fill="#313234" d="M5.786 4.165c3.926-3.122 9.654-2.867 13.285.764C21.061 6.918 22 9.855 22 12.707c0 2.118-.521 4.28-1.602 6.068l1.148 1.149a1.001 1.001 0 0 1-1.414 1.415L2.81 4.018a1 1 0 0 1 1.414-1.414zm-.57 3.672C4.42 9.23 4 10.947 4 12.707c0 .557.042 1.11.125 1.65a3 3 0 0 1 3.633.471l1.414 1.414a3 3 0 0 1-4.243 4.243C2.939 18.496 2 15.56 2 12.707c0-2.22.572-4.489 1.762-6.324zM18.379 21a3 3 0 0 1-4.067-4.066zm-.722-14.657a8 8 0 0 0-10.443-.75l9.136 9.136a3 3 0 0 1 3.526-.371c.082-.54.124-1.094.124-1.65 0-2.462-.817-4.84-2.343-6.365"/></svg>