<svg xmlns="http://www.w3.org/2000/svg" width="24" height="24" fill="none" viewBox="0 0 24 24"><path fill="#313234" fill-rule="evenodd" d="m7.211 5.59 9.138 9.137a3 3 0 0 1 3.526-.37q.125-.812.125-1.65c0-2.462-.818-4.838-2.343-6.364A8 8 0 0 0 7.21 5.59m13.19 13.189C21.48 16.99 22 14.825 22 12.707c0-2.852-.94-5.789-2.929-7.778-3.631-3.631-9.36-3.886-13.285-.765l-1.561-1.56A1 1 0 0 0 2.81 4.018l17.32 17.32a1 1 0 0 0 1.415-1.413zM3.758 6.38l1.456 1.455C4.418 9.229 4 10.946 4 12.707c0 .557.042 1.11.125 1.65a3 3 0 0 1 3.632.471l1.415 1.415a3 3 0 0 1-4.243 4.242C2.939 18.496 2 15.56 2 12.707c0-2.22.57-4.49 1.76-6.326m10.553 10.552 4.068 4.069a3.001 3.001 0 0 1-4.068-4.069" clip-rule="evenodd" style="fill:#313234;fill:color(display-p3 .1922 .1961 .2039);fill-opacity:1"/></svg>