<svg xmlns="http://www.w3.org/2000/svg" width="24" height="24" fill="none" viewBox="0 0 24 24"><path fill="#313234" d="M16.782 8.463a7.29 7.29 0 0 0-3.757-5.407 7.38 7.38 0 0 0-7.87.525L3.408 4.86l1.183 1.614 1.744-1.28a5.38 5.38 0 0 1 5.731-.382 5.31 5.31 0 0 1 2.736 3.936 5.32 5.32 0 0 1-1.514 4.55 4.37 4.37 0 0 0-1.288 3.109V17c0 .94-.449 1.836-1.2 2.401a3.02 3.02 0 0 1-3.6 0A3.02 3.02 0 0 1 6.001 17v-1h-2v1a5.02 5.02 0 0 0 2 4 5 5 0 0 0 3 .993A5 5 0 0 0 12.002 21a5.03 5.03 0 0 0 2-4v-.593c0-.64.248-1.242.701-1.695a7.3 7.3 0 0 0 2.08-6.249" style="fill:#313234;fill:color(display-p3 .1922 .1961 .2039);fill-opacity:1"/><path fill="#313234" d="M20.741 7.893a11.26 11.26 0 0 0-1.92-4.89L17.18 4.15a9.3 9.3 0 0 1 1.581 4.028 9.29 9.29 0 0 1-2.485 7.784l1.447 1.38a11.28 11.28 0 0 0 3.017-9.45M10.418 8.313a1.51 1.51 0 0 0-1.333-.26 1.48 1.48 0 0 0-1.03 1.03c-.125.485-.032.958.26 1.334.286.37.72.583 1.186.583v2c-1.09 0-2.1-.495-2.768-1.358a3.52 3.52 0 0 1-.614-3.058 3.48 3.48 0 0 1 2.466-2.466 3.5 3.5 0 0 1 3.058.614A3.48 3.48 0 0 1 13.001 9.5h-2c0-.467-.212-.9-.583-1.187" style="fill:#313234;fill:color(display-p3 .1922 .1961 .2039);fill-opacity:1"/></svg>