<svg xmlns="http://www.w3.org/2000/svg" width="24" height="24" fill="none" viewBox="0 0 24 24"><path fill="#313234" d="M12 2c5.523 0 10 4.477 10 10s-4.477 10-10 10S2 17.523 2 12 6.477 2 12 2m0 2a8 8 0 0 0-8 8 8 8 0 1 0 8-8m-.056 11.637a1.243 1.243 0 1 1 .002 2.486 1.243 1.243 0 0 1-.002-2.487m.058-9.662c2.154 0 3.842 1.521 3.842 3.462 0 1.654-1.394 2.532-2.226 3.055-.236.15-.784.574-.784 1.292v.708h-1.9v-.708c0-1.155.625-2.24 1.671-2.9.867-.545 1.337-.939 1.337-1.447 0-1.013-1-1.561-1.94-1.561-1.035 0-1.942.73-1.942 1.561h-1.9c0-1.876 1.759-3.462 3.842-3.462"/></svg>