<svg xmlns="http://www.w3.org/2000/svg" width="24" height="24" fill="none" viewBox="0 0 24 24"><path fill="#313234" d="M12 2c5.523 0 10 4.477 10 10s-4.477 10-10 10S2 17.523 2 12 6.477 2 12 2m-.058 13.686a1.244 1.244 0 1 0 0 2.488 1.244 1.244 0 0 0 0-2.488m.056-9.661c-2.083 0-3.842 1.586-3.842 3.461h1.9c0-.83.908-1.561 1.942-1.561.94 0 1.94.548 1.94 1.561 0 .508-.47.902-1.336 1.448-1.046.66-1.672 1.744-1.672 2.9v.707h1.9v-.708c0-.718.548-1.142.784-1.292.833-.523 2.226-1.401 2.226-3.055 0-1.94-1.688-3.461-3.842-3.461"/></svg>