<svg xmlns="http://www.w3.org/2000/svg" width="24" height="24" fill="none" viewBox="0 0 24 24"><path fill="#313234" d="M17 2c1.103 0 2 .898 2 2v2.553c0 .856-.307 1.676-.887 2.366l-2.595 3.08 2.595 3.08c.572.68.887 1.522.887 2.369V20c0 1.103-.897 2-2 2H7c-1.103 0-2-.897-2-2v-2.552c0-.859.307-1.677.889-2.368L8.483 12 5.888 8.92C5.307 8.23 5 7.41 5 6.552V4c0-1.102.897-2 2-2zM7 6.552c0 .382.145.755.418 1.08l2.896 3.437c.453.54.453 1.323 0 1.861L7.418 16.37c-.273.325-.418.698-.418 1.079V20h10v-2.552c0-.38-.145-.754-.418-1.08l-2.895-3.437a1.44 1.44 0 0 1 .002-1.863l2.893-3.437c.273-.324.418-.697.418-1.078V4H7zm5 6.483c.296 0 .576.131.766.358C15.999 17.26 16 17.26 16 17.447V19H8v-1.553c0-.187.001-.188 3.234-4.054a1 1 0 0 1 .766-.358M14.964 8l-.271.322-1.928 2.29a1 1 0 0 1-.765.355 1 1 0 0 1-.765-.356L9.307 8.322 9.035 8z"/></svg>