<svg xmlns="http://www.w3.org/2000/svg" width="24" height="24" fill="none" viewBox="0 0 24 24"><path fill="#313234" d="M17 2c1.103 0 2 .898 2 2v2.553c0 .857-.307 1.677-.889 2.367L15.519 12l2.595 3.08c.571.679.887 1.52.887 2.368V20c0 1.103-.897 2-2 2H7c-1.103 0-2-.897-2-2v-2.552c0-.859.307-1.677.889-2.368L8.483 12 5.888 8.92C5.307 8.23 5 7.41 5 6.552V4c0-1.102.897-2 2-2zM7 6.552c0 .382.145.755.418 1.079l2.896 3.438c.453.54.453 1.323 0 1.861L7.418 16.37c-.273.325-.418.698-.418 1.079V20h10v-2.552c0-.382-.145-.754-.417-1.08l-2.896-3.437a1.44 1.44 0 0 1 0-1.86l2.895-3.44c.273-.324.418-.697.418-1.078V4H7zm5 8.387c.514 0 1.009.156 1.43.45C16 17.186 16 17.187 16 17.447v1.554H8v-1.554c0-.261.002-.262 2.57-2.057.422-.295.915-.45 1.43-.45m3.535-7.617-2.77 3.29a1 1 0 0 1-.765.355 1 1 0 0 1-.764-.356L8.465 7.322 7.773 6.5h8.454z"/></svg>