<svg xmlns="http://www.w3.org/2000/svg" width="24" height="24" fill="none" viewBox="0 0 24 24"><path fill="#313234" fill-rule="evenodd" d="M17 6.553c0 .38-.145.754-.418 1.078l-2.894 3.437a1.44 1.44 0 0 0 0 1.864l2.894 3.437c.273.325.418.698.418 1.079V20H7v-2.552c0-.381.145-.754.418-1.08l2.895-3.437a1.44 1.44 0 0 0 0-1.862L7.418 7.632C7.145 7.307 7 6.934 7 6.552V4h10zm2 0V4c0-1.102-.897-2-2-2H7c-1.103 0-2 .898-2 2v2.552c0 .858.307 1.678.888 2.368L8.482 12 5.89 15.08C5.307 15.77 5 16.589 5 17.448V20c0 1.103.897 2 2 2h10c1.103 0 2-.897 2-2v-2.552c0-.847-.315-1.688-.888-2.368L15.518 12l2.594-3.081c.581-.69.888-1.51.888-2.366m-7.005 9.944-.058.007c-.052.007-.056.008-1.833.515-1.652.473-2.007.574-2.083.78C8 17.855 8 17.919 8 18v1h8v-1c0-.081 0-.145-.021-.201-.076-.206-.432-.307-2.09-.78v-.001c-1.745-.497-1.79-.51-1.834-.515h-.003zM15.5 5.001h.5v1.577c-.006.17-.145.336-3.234 4.029a.996.996 0 0 1-1.533 0C8.145 6.914 8.007 6.749 8 6.578V5.001h7.5" clip-rule="evenodd"/></svg>