<svg xmlns="http://www.w3.org/2000/svg" width="24" height="24" fill="none" viewBox="0 0 24 24"><path fill="#313234" fill-rule="evenodd" d="M18.013 10.344c.09.208.385.208.474 0l1.157-2.7 2.7-1.157a.258.258 0 0 0 0-.474l-2.7-1.157-1.157-2.7a.258.258 0 0 0-.474 0l-1.157 2.7-2.7 1.157a.258.258 0 0 0 0 .474l2.7 1.157zM4.5 3H13v2H5v14h14v-7h2v7.5c0 .827-.673 1.5-1.5 1.5h-15c-.827 0-1.5-.673-1.5-1.5v-15C3 3.673 3.673 3 4.5 3M18 18v-6l-3.995-2L6 14v4zM10 8A2 2 0 1 1 6 8 2 2 0 0 1 10 8" clip-rule="evenodd" style="fill:#313234;fill:color(display-p3 .1922 .1961 .2039);fill-opacity:1"/></svg>