<svg width="24" height="24" viewBox="0 0 24 24" fill="none" xmlns="http://www.w3.org/2000/svg">
<path fill-rule="evenodd" clip-rule="evenodd" d="M18.0127 10.3435C18.1021 10.5522 18.3979 10.5522 18.4873 10.3435L19.6442 7.64417L22.3435 6.4873C22.5522 6.39789 22.5522 6.10211 22.3435 6.0127L19.6442 4.85583L18.4873 2.15648C18.3979 1.94784 18.1021 1.94784 18.0127 2.15648L16.8558 4.85583L14.1565 6.0127C13.9478 6.10211 13.9478 6.39789 14.1565 6.4873L16.8558 7.64417L18.0127 10.3435ZM4.5 3H13V5H5V19H19V12H21V19.5C21 20.327 20.327 21 19.5 21H4.5C3.673 21 3 20.327 3 19.5V4.5C3 3.673 3.673 3 4.5 3ZM18.0002 18.0001V12.0001L14.0052 10.0001L6.0002 14.0001V18.0001H18.0002ZM10.0002 8.00012C10.0002 9.10412 9.1042 10.0001 8.0002 10.0001C6.8962 10.0001 6.0002 9.10412 6.0002 8.00012C6.0002 6.89612 6.8962 6.00012 8.0002 6.00012C9.1042 6.00012 10.0002 6.89612 10.0002 8.00012Z" fill="#313234"/>
</svg>
