<svg xmlns="http://www.w3.org/2000/svg" width="24" height="24" fill="none" viewBox="0 0 24 24"><path fill="#313234" fill-rule="evenodd" d="M18.986 19H7.109l1-1h9.877v-6l-2.583-1.294 3.583-3.584zm1.839-16.546-.695.696h-.002L18.278 5h.002l-1.708 1.707-4.002 4.003-.005.002-6.579 6.58v.002l-1 1v-.003l-1.85 1.85.001.002-.696.696 1.414 1.414L5.109 21h14.377c.827 0 1.5-.673 1.5-1.5V5.122l1.254-1.254zM7.986 10a2 2 0 1 0-.001-4.001 2 2 0 0 0 .001 4.001m8.878-5H4.986v11.878l-2 2V4.5c0-.827.673-1.5 1.5-1.5h14.378z" clip-rule="evenodd" style="fill:#313234;fill:color(display-p3 .1922 .1961 .2039);fill-opacity:1"/></svg>