<svg xmlns="http://www.w3.org/2000/svg" width="24" height="24" fill="none" viewBox="0 0 24 24"><path fill="#313234" d="M10.379 15.414 12.793 13H3a1 1 0 1 1 0-2h9.794l-2.415-2.415a1 1 0 0 1 1.414-1.414l3.768 3.768a1.5 1.5 0 0 1 0 2.121l-3.768 3.768a1 1 0 0 1-1.414-1.414" style="fill:#313234;fill:color(display-p3 .1922 .1961 .2039);fill-opacity:1"/><path fill="#313234" d="M18 2a4 4 0 0 1 4 4v12a4 4 0 0 1-4 4h-5a1 1 0 1 1 0-2h5a2 2 0 0 0 2-2V6a2 2 0 0 0-2-2h-5a1 1 0 1 1 0-2z" style="fill:#313234;fill:color(display-p3 .1922 .1961 .2039);fill-opacity:1"/></svg>