<svg width="24" height="24" viewBox="0 0 24 24" fill="none" xmlns="http://www.w3.org/2000/svg">
<path fill-rule="evenodd" clip-rule="evenodd" d="M6 4C3.79086 4 2 5.79086 2 8V16C2 18.2091 3.79086 20 6 20H18C20.2091 20 22 18.2091 22 16V8C22 5.79086 20.2091 4 18 4H6ZM20 8C20 6.89543 19.1046 6 18 6H6C4.89543 6 4 6.89543 4 8V11C4 11.5523 4.44772 12 5 12H8C8.55228 12 8.98368 12.46 9.16434 12.9819C9.57097 14.1566 10.6869 15 12 15C13.3131 15 14.429 14.1566 14.8357 12.9819C15.0163 12.46 15.4477 12 16 12H19C19.5523 12 20 11.5523 20 11V8Z" fill="#313234"/>
</svg>
