<svg width="24" height="24" viewBox="0 0 24 24" fill="none" xmlns="http://www.w3.org/2000/svg">
<path fill-rule="evenodd" clip-rule="evenodd" d="M17 7V6C17 3.23858 14.7614 1 12 1H6C3.23858 1 1 3.23858 1 6V12C1 14.7614 3.23858 17 6 17H7V18C7 20.7614 9.23858 23 12 23H18C20.7614 23 23 20.7614 23 18V12C23 9.23858 20.7614 7 18 7H17ZM9 18V17H12C14.7614 17 17 14.7614 17 12V9H18C19.6569 9 21 10.3431 21 12V18C21 19.6569 19.6569 21 18 21H12C10.3431 21 9 19.6569 9 18ZM15 7V6C15 4.34315 13.6569 3 12 3H6C4.34315 3 3 4.34315 3 6V12C3 13.6569 4.34315 15 6 15H7V12C7 9.23858 9.23858 7 12 7H15Z" fill="#313234"/>
</svg>
