<svg xmlns="http://www.w3.org/2000/svg" width="24" height="24" fill="none" viewBox="0 0 24 24"><path fill="#313234" d="M13 2a2 2 0 0 1 2 2v5h-2V5H5v14h5.347c-.61-1.25-1.02-2.72-1.02-4.05 0-3.09 1.932-4.713 3.743-4.713 1.177 0 2.09.679 2.703.679.526 0 1.5-.722 2.769-.722 2.174 0 3.037 1.54 3.045 1.555-.02.01-1.68.872-1.68 2.945 0 2.353 2.093 3.163 2.093 3.163-.023.064-1.48 4.12-3.44 4.122-.908 0-1.615-.613-2.572-.613-.976 0-1.943.635-2.574.635q-.093-.001-.188-.016Q13.114 22 13 22H5a2 2 0 0 1-2-2V4a2 2 0 0 1 2-2zm5.762 4.456c.005.03.198 1.28-.805 2.485-1.07 1.287-2.286 1.094-2.313 1.09 0 0-.232-1.026.675-2.223 1.022-1.346 2.443-1.352 2.443-1.352"/></svg>