<svg xmlns="http://www.w3.org/2000/svg" width="24" height="24" fill="none" viewBox="0 0 24 24"><path fill="#313234" d="m9.676 9.673.633 1.8H9.044z"/><path fill="#313234" fill-rule="evenodd" d="M12 2C5.93 2 1 5.864 1 10.676c0 3.094 2.063 5.81 5.156 7.356l-.214.748c-.326 1.138-.875 3.05-.906 3.24a.29.29 0 0 0 .103.261.34.34 0 0 0 .261 0c.344-.048 4.015-2.626 4.647-3.073q.972.138 1.953.138c6.078 0 11-3.878 11-8.67S18.07 2 12 2M5.478 13.53c.12.114.28.175.445.171a.62.62 0 0 0 .618-.605V9.322h1.004a.619.619 0 1 0 0-1.238H4.293a.619.619 0 0 0 0 1.238h.99v3.774c.006.165.076.32.195.434m5.698.113a.53.53 0 0 0 .308.058v-.007c.14-.002.278-.033.406-.089.151-.082.344-.303.151-.9l-1.52-3.995a.887.887 0 0 0-1.69 0l-1.52 3.994c-.192.598-.027.819.152.901a1 1 0 0 0 .405.09.52.52 0 0 0 .523-.283l.316-.825h1.96l.288.832a.53.53 0 0 0 .22.223m1.654-.069q.11.041.229.038l2.062-.007a.583.583 0 1 0 0-1.162h-1.375V8.717a.646.646 0 0 0-1.292 0v4.317a.58.58 0 0 0 .376.54m3.308-.062a.64.64 0 0 0 .448.19v-.008a.64.64 0 0 0 .447-.185.7.7 0 0 0 .185-.454V11.68l.22-.22 1.492 1.973a.6.6 0 0 0 .502.248.6.6 0 0 0 .385-.124.6.6 0 0 0 .165-.186.7.7 0 0 0 .082-.234.61.61 0 0 0-.123-.467l-1.561-2.062 1.444-1.451a.48.48 0 0 0 .144-.385.6.6 0 0 0-.192-.399.6.6 0 0 0-.433-.192.5.5 0 0 0-.351.144l-1.774 1.767V8.717a.633.633 0 0 0-1.265 0v4.345c0 .168.067.33.185.45" clip-rule="evenodd"/></svg>