<svg xmlns="http://www.w3.org/2000/svg" width="24" height="24" fill="none" viewBox="0 0 24 24"><path fill="#313234" d="M6.05 13.295c.11.103.256.16.407.156a.566.566 0 0 0 .566-.553V9.445h.918a.566.566 0 0 0 0-1.132H4.966a.566.566 0 1 0 0 1.132h.906v3.453c.005.15.069.293.178.396"/><path fill="#313234" fill-rule="evenodd" d="M11.263 13.397a.5.5 0 0 0 .282.054v-.006a1 1 0 0 0 .37-.082c.14-.075.315-.277.14-.824l-1.39-3.654a.81.81 0 0 0-1.548 0l-1.39 3.654c-.176.547-.025.749.138.824q.177.08.372.082a.47.47 0 0 0 .478-.258l.289-.755h1.792l.264.761a.5.5 0 0 0 .203.204M9.89 9.765l.578 1.648H9.312z" clip-rule="evenodd"/><path fill="#313234" d="M12.776 13.335a.5.5 0 0 0 .209.034l1.887-.006a.535.535 0 1 0 0-1.063h-1.258V8.891a.591.591 0 0 0-1.182 0v3.95a.535.535 0 0 0 .344.494M15.802 13.278c.108.109.256.171.41.173v-.006c.153-.001.3-.062.408-.17a.63.63 0 0 0 .17-.415v-1.258l.201-.201 1.365 1.805a.55.55 0 0 0 .46.226.54.54 0 0 0 .352-.113.6.6 0 0 0 .15-.17.6.6 0 0 0 .076-.214.56.56 0 0 0-.113-.427l-1.428-1.887 1.32-1.327a.44.44 0 0 0 .133-.352.56.56 0 0 0-.176-.365.55.55 0 0 0-.396-.176.45.45 0 0 0-.321.132l-1.623 1.616V8.891a.579.579 0 0 0-1.157 0v3.975c0 .154.06.302.169.412"/><path fill="#313234" fill-rule="evenodd" d="M5.25 22.29c.192.11.409.17.63.17q.172-.002.34-.04c.26-.06.84-.33 4.26-2.73.52.08 1.01.08 1.52.08 6.07 0 11-3.99 11-8.88S18.07 2 12 2 1 6 1 10.89a8.43 8.43 0 0 0 4.5 7.19 31 31 0 0 0-.82 3 1.22 1.22 0 0 0 .57 1.21M3 10.89C3 7.09 7 4 12 4s9.03 3.1 9.03 6.89-4 6.88-9 6.88a13 13 0 0 1-1.64-.11L10 17.6l-.35.23-2.49 1.72q.129-.46.285-.998l.205-.712.23-.8-.75-.37C4.54 15.39 3 13.23 3 10.89" clip-rule="evenodd"/></svg>