<svg xmlns="http://www.w3.org/2000/svg" width="24" height="24" fill="none" viewBox="0 0 24 24"><path fill="#313234" fill-rule="evenodd" d="M4 15h16V5H4zM20.5 3h-17C2.673 3 2 3.673 2 4.5v11c0 .827.673 1.5 1.5 1.5h17c.827 0 1.5-.673 1.5-1.5v-11c0-.827-.673-1.5-1.5-1.5M6 8h2V6H6zm12 0h-2V6h2zM9.333 8h2V6h-2zm5.333 0h-2V6h2zM6 11h2V9H6zm12 0h-2V9h2zm-8.667 0h2V9h-2zm5.333 0h-2V9h2zM8 14h8v-1.98H8zm1.394 3.83a1 1 0 1 0-.788 1.84l3.5 1.5a1 1 0 0 0 .788 0l3.5-1.5a1 1 0 0 0-.788-1.84L12.5 19.163z" clip-rule="evenodd"/></svg>