<svg xmlns="http://www.w3.org/2000/svg" width="24" height="24" fill="none" viewBox="0 0 24 24"><path fill="#313234" d="M5.25 16.5a2.25 2.25 0 1 1 0 4.5 2.25 2.25 0 0 1 0-4.5m6.75 0a2.25 2.25 0 1 1 0 4.5 2.25 2.25 0 0 1 0-4.5m6.75 0a2.25 2.25 0 1 1 0 4.5 2.25 2.25 0 0 1 0-4.5M5.25 9.75a2.25 2.25 0 1 1 0 4.5 2.25 2.25 0 0 1 0-4.5m6.75 0a2.25 2.25 0 1 1 0 4.5 2.25 2.25 0 0 1 0-4.5m6.75 0a2.25 2.25 0 1 1 0 4.5 2.25 2.25 0 0 1 0-4.5M5.25 3a2.25 2.25 0 1 1 0 4.5 2.25 2.25 0 0 1 0-4.5M12 3a2.25 2.25 0 1 1 0 4.5A2.25 2.25 0 0 1 12 3m6.75 0a2.25 2.25 0 1 1 0 4.5 2.25 2.25 0 0 1 0-4.5"/></svg>