<svg xmlns="http://www.w3.org/2000/svg" width="24" height="24" fill="none" viewBox="0 0 24 24"><path fill="#313234" fill-rule="evenodd" d="M7.5 5.25a2.25 2.25 0 1 1-4.5 0 2.25 2.25 0 0 1 4.5 0m0 13.5a2.25 2.25 0 1 1-4.5 0 2.25 2.25 0 0 1 4.5 0m-2.25-4.5a2.25 2.25 0 1 0 0-4.5 2.25 2.25 0 0 0 0 4.5m9-9a2.25 2.25 0 1 1-4.5 0 2.25 2.25 0 0 1 4.5 0M12 21a2.25 2.25 0 1 0 0-4.5 2.25 2.25 0 0 0 0 4.5m2.25-9a2.25 2.25 0 1 1-4.5 0 2.25 2.25 0 0 1 4.5 0m4.5-4.5a2.25 2.25 0 1 0 0-4.5 2.25 2.25 0 0 0 0 4.5M21 18.75a2.25 2.25 0 1 1-4.5 0 2.25 2.25 0 0 1 4.5 0m-2.25-4.5a2.25 2.25 0 1 0 0-4.5 2.25 2.25 0 0 0 0 4.5" clip-rule="evenodd" style="fill:#313234;fill:color(display-p3 .1922 .1961 .2039);fill-opacity:1"/></svg>