<svg xmlns="http://www.w3.org/2000/svg" width="24" height="24" fill="none" viewBox="0 0 24 24"><path fill="#313234" fill-rule="evenodd" d="M9 2h6a1 1 0 0 1 1 1v6.426c0 .375.105.742.304 1.06l4.088 6.541c.397.636.608 1.37.608 2.12V21a1 1 0 0 1-1 1H4a1 1 0 0 1-1-1v-1.853c0-.75.21-1.484.608-2.12l4.088-6.54c.2-.319.304-.686.304-1.06V3a1 1 0 0 1 1-1m5 7.426V4h-4v5.426c0 .751-.21 1.484-.608 2.12l-4.088 6.541A2 2 0 0 0 5 19.147V20h14v-.853c0-.375-.105-.742-.304-1.06l-4.088-6.54A4 4 0 0 1 14 9.426M13.713 12l4.168 6.669a.8.8 0 0 1 .114.331H6.006a.8.8 0 0 1 .115-.331L10.287 12z" clip-rule="evenodd"/></svg>