<svg xmlns="http://www.w3.org/2000/svg" width="24" height="24" fill="none" viewBox="0 0 24 24"><path fill="#313234" d="M13.914 9a3 3 0 0 1 1.92.695l3.727 3.106A4 4 0 0 1 21 15.873V18a2 2 0 0 1-2 2H5a2 2 0 0 1-2-2v-2.127a4 4 0 0 1 1.44-3.072l3.726-3.106A3 3 0 0 1 10.086 9zM12 12a2.5 2.5 0 1 0 0 5 2.5 2.5 0 0 0 0-5m0-9c6.26 0 9 2.926 9 5.016 0 1.254-.7 2.34-1.565 2.507-.783.168-2.37-.024-3.13-.835-.783-.836-.393-2.525-.784-2.926-.39-.401-1.807-1.015-3.521-1.015s-3.13.614-3.521 1.015c-.39.4-.001 2.09-.784 2.926-.76.811-2.347 1.002-3.13.835C3.7 10.356 3 9.27 3 8.016 3 5.926 5.74 3 12 3"/></svg>