<svg xmlns="http://www.w3.org/2000/svg" width="24" height="24" fill="none" viewBox="0 0 24 24"><path fill="#313234" fill-rule="evenodd" d="m21.133 17.247.483 1.934a1.99 1.99 0 0 1-.527 1.9 1.99 1.99 0 0 1-1.9.526l-1.933-.482a2.2 2.2 0 0 0-1.38.098 9.9 9.9 0 0 1-3.867.777h-.005a9.95 9.95 0 0 1-7.065-2.931A9.93 9.93 0 0 1 2 12.004a9.94 9.94 0 0 1 2.928-7.076A9.94 9.94 0 0 1 12.001 2h.003a9.92 9.92 0 0 1 7.065 2.94A9.93 9.93 0 0 1 22 12.006c0 1.339-.262 2.64-.777 3.866a2.2 2.2 0 0 0-.098 1.38zM12.006 4.216h-.003c-2.078 0-4.033.81-5.5 2.28a7.73 7.73 0 0 0-2.28 5.502c0 2.069.813 4.021 2.289 5.494a7.7 7.7 0 0 0 5.496 2.282 7.75 7.75 0 0 0 3.005-.603 4.45 4.45 0 0 1 2.779-.207l1.216.303c.163.04.31-.107.27-.27l-.303-1.216a4.45 4.45 0 0 1 .204-2.779c.401-.951.603-1.963.603-3.004 0-2.07-.81-4.022-2.282-5.497a7.73 7.73 0 0 0-5.494-2.288zM12 16.777a5.74 5.74 0 0 0 5.064-3.029h-.006a.447.447 0 0 0-.163-.592l-1.432-.859a.445.445 0 0 0-.627.183 3.182 3.182 0 0 1-5.677 0 .445.445 0 0 0-.627-.183l-1.432.86a.447.447 0 0 0-.163.591A5.75 5.75 0 0 0 12 16.778" clip-rule="evenodd"/></svg>