<svg xmlns="http://www.w3.org/2000/svg" width="24" height="24" fill="none" viewBox="0 0 24 24"><path fill="#313234" d="M12.004 2a9.92 9.92 0 0 1 7.065 2.94A9.93 9.93 0 0 1 22 12.006a9.9 9.9 0 0 1-.777 3.866 2.2 2.2 0 0 0-.098 1.38l.008-.006.482 1.934a1.99 1.99 0 0 1-.526 1.9 1.99 1.99 0 0 1-1.9.526l-1.933-.482a2.2 2.2 0 0 0-1.38.098A9.9 9.9 0 0 1 12.01 22h-.006a9.95 9.95 0 0 1-7.065-2.93A9.94 9.94 0 0 1 2 12.003a9.94 9.94 0 0 1 2.929-7.075A9.93 9.93 0 0 1 12 2zm.002 2.216h-.003c-2.078 0-4.033.81-5.5 2.28a7.73 7.73 0 0 0-2.28 5.501c0 2.07.814 4.022 2.289 5.494a7.7 7.7 0 0 0 5.497 2.282 7.8 7.8 0 0 0 3.005-.602 4.45 4.45 0 0 1 2.778-.207l1.216.303c.163.04.31-.106.27-.27l-.303-1.217a4.45 4.45 0 0 1 .205-2.778c.4-.952.602-1.963.602-3.005 0-2.07-.81-4.021-2.282-5.496a7.73 7.73 0 0 0-5.494-2.288zm2.83 8.264a.445.445 0 0 1 .627-.182l1.432.858a.447.447 0 0 1 .164.592h.005a5.745 5.745 0 0 1-10.127 0 .447.447 0 0 1 .164-.592l1.431-.858a.445.445 0 0 1 .627.182 3.183 3.183 0 0 0 5.677 0"/></svg>