<svg xmlns="http://www.w3.org/2000/svg" width="24" height="24" fill="none" viewBox="0 0 24 24"><path fill="#313234" fill-rule="evenodd" d="M21.997 12.006c0 1.37-.276 2.674-.776 3.864v.003a3.73 3.73 0 0 0-.172 2.34l.543 2.174a.998.998 0 0 1-1.211 1.211l-2.174-.543a3.73 3.73 0 0 0-2.34.172c-1.19.5-2.493.776-3.864.776C6.5 22.003 2 17.51 2 12.006 1.997 6.48 6.477 2.003 12.003 2.003c5.505 0 9.994 4.499 9.994 10.003m-4.134 2.049a6.66 6.66 0 0 1-5.87 3.505h-.005a6.67 6.67 0 0 1-5.87-3.505.5.5 0 0 1 .187-.663l1.791-1.073a.506.506 0 0 1 .708.211 3.58 3.58 0 0 0 6.373 0 .507.507 0 0 1 .708-.211l1.791 1.073c.23.138.313.43.187.663" clip-rule="evenodd" style="fill:#313234;fill:color(display-p3 .1922 .1961 .2039);fill-opacity:1"/></svg>