<svg xmlns="http://www.w3.org/2000/svg" width="24" height="24" fill="none" viewBox="0 0 24 24"><path fill="#313234" fill-rule="evenodd" d="M11 3a1 1 0 1 0 2 0V1a1 1 0 1 0-2 0zM5.121 5.536A1 1 0 0 0 6.536 4.12L5.12 2.707a1 1 0 1 0-1.414 1.414zm12.586 0a1 1 0 0 1 0-1.415l1.414-1.414a1 1 0 1 1 1.415 1.414L19.12 5.536a1 1 0 0 1-1.414 0M13.007 17c.064-1.13.597-2.184 1.453-2.852A3.97 3.97 0 0 0 16 11c0-1.21-.539-2.342-1.479-3.106-.954-.775-2.159-1.058-3.394-.802-1.537.321-2.797 1.633-3.065 3.192-.25 1.46.276 2.885 1.411 3.81.907.741 1.453 1.789 1.52 2.906zM10.717 5.134a6.03 6.03 0 0 1 5.064 1.208A5.98 5.98 0 0 1 18 11a5.96 5.96 0 0 1-2.31 4.725c-.432.337-.69.9-.69 1.506V21a1 1 0 0 1-1 1h-4a1 1 0 0 1-1-1v-3.768c0-.599-.289-1.178-.79-1.588-1.703-1.388-2.494-3.518-2.119-5.699.41-2.385 2.27-4.319 4.627-4.811" clip-rule="evenodd" style="fill:#313234;fill:color(display-p3 .1922 .1961 .2039);fill-opacity:1"/></svg>