<svg xmlns="http://www.w3.org/2000/svg" width="24" height="24" fill="none" viewBox="0 0 24 24"><path fill="#313234" d="M10.718 5.134a6.04 6.04 0 0 1 5.064 1.208A5.98 5.98 0 0 1 18 11a5.96 5.96 0 0 1-2.31 4.725c-.431.337-.69.9-.69 1.506V21a1 1 0 0 1-1 1h-4a1 1 0 0 1-1-1v-3.768c0-.599-.289-1.178-.791-1.588-1.702-1.388-2.493-3.518-2.118-5.699.41-2.385 2.269-4.32 4.627-4.811m3.803 2.76c-.954-.775-2.16-1.058-3.394-.802-1.537.32-2.797 1.633-3.065 3.192-.251 1.46.276 2.885 1.41 3.81.908.74 1.454 1.789 1.521 2.906h2.013c.065-1.13.598-2.184 1.454-2.852A3.97 3.97 0 0 0 16 11c0-1.21-.54-2.342-1.48-3.106M3.707 2.707a1 1 0 0 1 1.414 0l1.414 1.414a1 1 0 0 1-1.414 1.414L3.707 4.121a1 1 0 0 1 0-1.414m15.414 0a1 1 0 0 1 1.414 1.414l-1.414 1.414a1 1 0 1 1-1.414-1.414zM12 0a1 1 0 0 1 1 1v2a1 1 0 0 1-2 0V1a1 1 0 0 1 1-1"/></svg>