<svg xmlns="http://www.w3.org/2000/svg" width="24" height="24" fill="none" viewBox="0 0 24 24"><path fill="#313234" fill-rule="evenodd" d="m6.526 12.537 4.475 1.036-1.827 6.212 8.3-8.323-4.475-1.036 1.826-6.212zm1.62 10.5c-.263 0-.528-.072-.77-.216a1.48 1.48 0 0 1-.675-1.713l1.783-6.065-3.286-.76a1.5 1.5 0 0 1-.724-2.52L14.798 1.41a1.48 1.48 0 0 1 1.826-.232c.6.356.872 1.044.675 1.713l-1.784 6.065 3.287.761a1.5 1.5 0 0 1 .723 2.521L9.202 22.59a1.49 1.49 0 0 1-1.056.446" clip-rule="evenodd"/></svg>