<svg xmlns="http://www.w3.org/2000/svg" width="24" height="24" fill="none" viewBox="0 0 24 24"><path fill="#313234" fill-rule="evenodd" d="M13.335 1.932c1.271-1.365 3.495.017 2.834 1.761L14.345 8.5h3.209c2.184 0 3.318 2.605 1.83 4.204l-8.719 9.364c-1.271 1.365-3.495-.017-2.834-1.761L9.655 15.5H6.446c-2.184 0-3.318-2.605-1.83-4.203zm.42 2.483L6.08 12.659a.5.5 0 0 0 .366.841h5.382a.5.5 0 0 1 .467.677l-2.05 5.408 7.675-8.244a.5.5 0 0 0-.366-.841h-5.382a.5.5 0 0 1-.467-.677z" clip-rule="evenodd"/></svg>