<svg xmlns="http://www.w3.org/2000/svg" width="24" height="24" fill="none" viewBox="0 0 24 24"><path fill="#313234" d="M12 2.5c5.523 0 10 4.477 10 10a9.99 9.99 0 0 1-3.924 7.942 2.8 2.8 0 0 1-1.704.558H7.628c-.578 0-1.19-.164-1.704-.558A9.99 9.99 0 0 1 2 12.5c0-5.523 4.477-10 10-10m0 2a8 8 0 0 0-4.86 14.356.8.8 0 0 0 .488.144h8.744a.8.8 0 0 0 .488-.145A8 8 0 0 0 12 4.5m2.658 7.17a.5.5 0 0 1 .671.672l-1.816 3.633a1.855 1.855 0 1 1-2.488-2.488zM7.793 8.023a5.95 5.95 0 0 1 9.878 2.406 1 1 0 1 1-1.906.604 3.95 3.95 0 0 0-7.53 0 1 1 0 0 1-1.906-.604 5.9 5.9 0 0 1 1.464-2.406"/></svg>