<svg xmlns="http://www.w3.org/2000/svg" width="24" height="24" fill="none" viewBox="0 0 24 24"><path fill="#313234" fill-rule="evenodd" d="M2 12.5c0-5.523 4.477-10 10-10s10 4.477 10 10a9.99 9.99 0 0 1-3.924 7.943 2.8 2.8 0 0 1-1.704.557H7.628c-.578 0-1.19-.164-1.704-.557A9.99 9.99 0 0 1 2 12.5m10-8a8 8 0 0 0-4.86 14.355.8.8 0 0 0 .488.145h8.744c.21 0 .377-.06.488-.145A8 8 0 0 0 12 4.5m-2 10.646c0-.702.397-1.344 1.025-1.658l3.633-1.817a.5.5 0 0 1 .671.67l-1.817 3.634a1.854 1.854 0 0 1-3.512-.83m7.671-4.718a5.95 5.95 0 0 0-11.343 0 1 1 0 0 0 1.907.604 3.95 3.95 0 0 1 7.53 0 1 1 0 0 0 1.906-.604" clip-rule="evenodd"/></svg>