<svg xmlns="http://www.w3.org/2000/svg" width="24" height="24" fill="none" viewBox="0 0 24 24"><path fill="#313234" fill-rule="evenodd" d="M12 3.136c5.513 0 10 3.64 10 8.115 0 1.791-.695 3.403-2.143 4.993-2.098 2.414-6.789 5.355-7.856 5.805-1.04.438-.918-.248-.87-.518l.003-.02.143-.857c.033-.255.068-.65-.033-.904-.112-.278-.556-.423-.88-.493C5.557 18.622 2 15.262 2 11.251c0-4.474 4.486-8.115 10-8.115m-3.563 10.66c.101 0 .184-.082.184-.183v-.68c0-.1-.083-.183-.184-.183H6.61V9.433c0-.1-.082-.184-.183-.184h-.68a.183.183 0 0 0-.182.184v4.18c0 .1.081.183.183.183zm9.952 0h-2.69a.183.183 0 0 1-.183-.183v-4.18c0-.1.081-.183.183-.183h2.69c.1 0 .183.083.183.184v.679a.183.183 0 0 1-.183.183H16.56v.706h1.829c.1 0 .183.082.183.183v.68a.183.183 0 0 1-.183.182H16.56v.706h1.829c.1 0 .183.082.183.183v.68a.183.183 0 0 1-.183.182zM9.379 9.25h.678c.1 0 .183.082.183.184v4.179a.183.183 0 0 1-.183.183h-.679a.183.183 0 0 1-.183-.183v-4.18c0-.1.082-.183.183-.183m5.3 0h-.678a.183.183 0 0 0-.184.184v2.481l-1.911-2.582-.008-.01-.003-.004-.004-.005-.011-.012-.004-.003-.01-.008-.003-.002-.002-.002q-.005-.004-.01-.006l-.003-.002-.003-.002-.01-.005-.005-.003-.013-.005-.004-.001h-.003l-.002-.002-.006-.002-.006-.001-.007-.002-.004-.001-.008-.001h-.7c-.101 0-.184.08-.184.182v4.18c0 .1.082.182.183.182h.68a.183.183 0 0 0 .183-.183v-2.482l1.914 2.586a.2.2 0 0 0 .053.05l.008.005.006.003.004.002.005.002.007.003h.002l.002.002h.003l.013.004h.002a.2.2 0 0 0 .048.007h.675c.1 0 .183-.082.183-.184V9.434c0-.1-.082-.183-.183-.183z" clip-rule="evenodd" style="fill:#313234;fill:color(display-p3 .1922 .1961 .2039);fill-opacity:1"/></svg>