<svg xmlns="http://www.w3.org/2000/svg" width="24" height="24" fill="none" viewBox="0 0 24 24"><path fill="#313234" d="M19.603 3H4.398C3.626 3 3 3.626 3 4.398v15.205c0 .773.626 1.398 1.398 1.398h15.205c.773 0 1.398-.625 1.398-1.398V4.398A1.4 1.4 0 0 0 19.603 3M8.46 18.299H5.784v-8.55H8.46zM7.116 8.57a1.547 1.547 0 1 1 0-3.095 1.547 1.547 0 0 1 0 3.095m11.315 5.991q-.002 1.869-.001 3.738h-2.668v-3.67c0-.832.104-2.153-.701-2.592-.53-.29-1.28-.22-1.725.207-.323.308-.444.758-.497 1.2a6 6 0 0 0-.037.684V18.3h-2.68V9.75h2.544l-.002 1.161h.01c.036-.061.09-.113.117-.179.715-1.681 3.868-1.751 4.964-.117.24.358.384.771.482 1.187.132.56.175 1.13.189 1.702.008.352.005.705.005 1.057" style="fill:#313234;fill:color(display-p3 .1922 .1961 .2039);fill-opacity:1"/></svg>