<svg xmlns="http://www.w3.org/2000/svg" width="24" height="24" fill="none" viewBox="0 0 24 24"><path fill="#313234" d="M13.963 14.111a1 1 0 0 0 1.414 0l3.24-3.241a5.274 5.274 0 0 0 0-7.45 5.27 5.27 0 0 0-7.45 0L9.546 5.04a1 1 0 0 0 1.414 1.414l1.62-1.62c1.236-1.235 3.387-1.235 4.624 0 .617.617.957 1.438.957 2.311s-.34 1.694-.957 2.311l-3.241 3.241a1 1 0 0 0 0 1.414M5.303 20.58a5.25 5.25 0 0 0 3.726 1.541 5.25 5.25 0 0 0 3.725-1.54l1.62-1.62a1 1 0 0 0-1.413-1.415l-1.621 1.62c-1.236 1.234-3.388 1.234-4.623 0a3.25 3.25 0 0 1-.957-2.31c0-.874.34-1.694.957-2.312l3.241-3.24a1 1 0 1 0-1.414-1.415L5.303 13.13a5.274 5.274 0 0 0 0 7.45M18 15a1 1 0 0 0 1 1h2a1 1 0 1 0 0-2h-2a1 1 0 0 0-1 1M18.707 21.121a1 1 0 1 0 1.414-1.414l-1.414-1.414a1 1 0 1 0-1.414 1.414zM6.707 5.707a1 1 0 0 1-1.414 0L3.878 4.293A1 1 0 0 1 5.292 2.88l1.415 1.414a1 1 0 0 1 0 1.414M3 10a1 1 0 0 1 0-2h2a1 1 0 0 1 0 2z"/></svg>