<svg xmlns="http://www.w3.org/2000/svg" width="24" height="24" fill="none" viewBox="0 0 24 24"><path fill="#313234" d="M9.879 14.121a6 6 0 0 0 8.485 0l1.414-1.414a6 6 0 0 0-8.485-8.485l-.864.864A1 1 0 1 0 11.843 6.5l.864-.864a4 4 0 1 1 5.657 5.657l-1.414 1.414a4 4 0 0 1-5.657 0 1 1 0 1 0-1.414 1.414" style="fill:#313234;fill:color(display-p3 .1922 .1961 .2039);fill-opacity:1"/><path fill="#313234" d="M14.121 9.879a6 6 0 0 0-8.485 0l-1.414 1.414a6 6 0 0 0 8.485 8.485l.864-.864a1 1 0 0 0-1.414-1.414l-.864.864a4 4 0 0 1-5.657-5.657l1.414-1.414a4 4 0 0 1 5.657 0 1 1 0 0 0 1.414-1.414" style="fill:#313234;fill:color(display-p3 .1922 .1961 .2039);fill-opacity:1"/></svg>