<svg width="24" height="24" viewBox="0 0 24 24" fill="none" xmlns="http://www.w3.org/2000/svg">
<path d="M9.87866 14.1213C12.2218 16.4644 16.0208 16.4644 18.3639 14.1213L19.7782 12.7071C22.1213 10.3639 22.1213 6.56492 19.7782 4.22178C17.435 1.87863 13.636 1.87863 11.2929 4.22178L10.4289 5.08579C10.0383 5.47631 10.0383 6.10948 10.4289 6.5C10.8194 6.89052 11.4526 6.89052 11.8431 6.5L12.7071 5.63599C14.2692 4.07389 16.8019 4.07389 18.3639 5.63599C19.926 7.19809 19.926 9.73075 18.3639 11.2928L16.9497 12.7071C15.3876 14.2692 12.855 14.2692 11.2929 12.7071C10.9024 12.3165 10.2692 12.3165 9.87867 12.7071C9.48814 13.0976 9.48814 13.7307 9.87866 14.1213Z" fill="#313234"/>
<path d="M14.1213 9.87865C11.7782 7.5355 7.97917 7.5355 5.63602 9.87865L4.22181 11.2929C1.87866 13.636 1.87866 17.435 4.22181 19.7781C6.56495 22.1213 10.3639 22.1213 12.7071 19.7781L13.571 18.9142C13.9615 18.5237 13.9615 17.8905 13.571 17.5C13.1805 17.1095 12.5473 17.1095 12.1568 17.5L11.2929 18.3639C9.73078 19.926 7.19812 19.926 5.63602 18.3639C4.07392 16.8018 4.07392 14.2692 5.63602 12.7071L7.05023 11.2929C8.61233 9.73076 11.145 9.73076 12.7071 11.2929C13.0976 11.6834 13.7308 11.6834 14.1213 11.2929C14.5118 10.9023 14.5118 10.2692 14.1213 9.87865Z" fill="#313234"/>
</svg>
