<svg xmlns="http://www.w3.org/2000/svg" width="24" height="24" fill="none" viewBox="0 0 24 24"><path fill="#313234" d="M2.436 15.915a2.056 2.056 0 1 1 3.163 2.593L4.56 19.546H5.75a.75.75 0 0 1 0 1.5h-3a.75.75 0 0 1-.53-1.28l2.318-2.319a.555.555 0 1 0-.854-.7l-.31.465a.75.75 0 1 1-1.248-.832zM20 18a1 1 0 1 1 0 2H9a1 1 0 1 1 0-2zm0-7a1 1 0 1 1 0 2H9a1 1 0 1 1 0-2zM3.834 3.126A.75.75 0 0 1 5 3.75v5a.75.75 0 1 1-1.5 0V5.15l-.334.223a.75.75 0 0 1-.832-1.248zM20 4a1 1 0 1 1 0 2H9a1 1 0 1 1 0-2z"/></svg>