<svg xmlns="http://www.w3.org/2000/svg" width="24" height="24" fill="none" viewBox="0 0 24 24"><path fill="#313234" fill-rule="evenodd" d="M4.604 3.089A.75.75 0 0 1 5 3.75v5a.75.75 0 0 1-1.5 0V5.151l-.334.223a.75.75 0 0 1-.832-1.248l1.5-1a.75.75 0 0 1 .77-.037M8 5a1 1 0 0 0 1 1h11a1 1 0 1 0 0-2H9a1 1 0 0 0-1 1m1 8a1 1 0 1 1 0-2h11a1 1 0 1 1 0 2zm0 7a1 1 0 1 1 0-2h11a1 1 0 1 1 0 2zm-5.316-3.253a.555.555 0 1 1 .854.7L2.22 19.767a.75.75 0 0 0 .53 1.28h3a.75.75 0 1 0 0-1.5H4.56L5.6 18.508a2.055 2.055 0 1 0-3.163-2.593l-.31.465a.75.75 0 0 0 1.248.832z" clip-rule="evenodd"/></svg>