<svg xmlns="http://www.w3.org/2000/svg" width="24" height="24" fill="none" viewBox="0 0 24 24"><path fill="#313234" d="M20 5a2 2 0 0 1 2 2v10a2 2 0 0 1-2 2H4a2 2 0 0 1-2-2V7a2 2 0 0 1 2-2zM5.25 8.5a.25.25 0 0 0-.25.25v6.5c0 .138.112.25.25.25h3a.25.25 0 0 0 .25-.25v-1a.25.25 0 0 0-.25-.25H6.5V8.75a.25.25 0 0 0-.25-.25zm4 0a.25.25 0 0 0-.25.25v6.5c0 .138.112.25.25.25h1a.25.25 0 0 0 .25-.25v-6.5a.25.25 0 0 0-.25-.25zm2.06 0a.25.25 0 0 0-.245.303l1.393 6.5a.25.25 0 0 0 .244.197h1.096a.25.25 0 0 0 .244-.197l1.394-6.5a.25.25 0 0 0-.245-.303h-.979a.25.25 0 0 0-.247.21l-.665 3.994c-.01.056-.09.056-.1 0l-.665-3.995a.25.25 0 0 0-.247-.209zm4.94 0a.25.25 0 0 0-.25.25v6.5c0 .138.112.25.25.25h3a.25.25 0 0 0 .25-.25v-1a.25.25 0 0 0-.25-.25H17.5v-1.25h1.25a.25.25 0 0 0 .25-.25v-1a.25.25 0 0 0-.25-.25H17.5V10h1.75a.25.25 0 0 0 .25-.25v-1a.25.25 0 0 0-.25-.25z"/></svg>