<svg xmlns="http://www.w3.org/2000/svg" width="24" height="24" fill="none" viewBox="0 0 24 24"><path fill="#313234" fill-rule="evenodd" d="M9.25 8.5a.25.25 0 0 0-.25.25v6.5c0 .138.112.25.25.25h1a.25.25 0 0 0 .25-.25v-6.5a.25.25 0 0 0-.25-.25zm-3 0a.25.25 0 0 1 .25.25V14h1.75a.25.25 0 0 1 .25.25v1a.25.25 0 0 1-.25.25h-3a.25.25 0 0 1-.25-.25v-6.5a.25.25 0 0 1 .25-.25zm6.285.209a.25.25 0 0 0-.247-.209h-.979a.25.25 0 0 0-.244.302l1.393 6.5a.25.25 0 0 0 .244.198h1.096a.25.25 0 0 0 .244-.198l1.393-6.5a.25.25 0 0 0-.244-.302h-.98a.25.25 0 0 0-.246.209l-.666 3.995c-.009.056-.089.056-.098 0zM16 8.75a.25.25 0 0 1 .25-.25h3a.25.25 0 0 1 .25.25v1a.25.25 0 0 1-.25.25H17.5v1.25h1.25a.25.25 0 0 1 .25.25v1a.25.25 0 0 1-.25.25H17.5V14h1.75a.25.25 0 0 1 .25.25v1a.25.25 0 0 1-.25.25h-3a.25.25 0 0 1-.25-.25zM20 5H4a2 2 0 0 0-2 2v10a2 2 0 0 0 2 2h16a2 2 0 0 0 2-2V7a2 2 0 0 0-2-2" clip-rule="evenodd" style="fill:#313234;fill:color(display-p3 .1922 .1961 .2039);fill-opacity:1"/></svg>