<svg xmlns="http://www.w3.org/2000/svg" width="24" height="24" fill="none" viewBox="0 0 24 24"><path fill="#313234" d="m11.085 3-4.333 7.505a.8.8 0 0 0 0 .811c.523.901.713 1.952.192 2.854l-.52.902 1.732 1 .44-.764a2.79 2.79 0 0 1 2.636-1.397c.293.021.567-.15.715-.406L18.013 3h2.31L13.68 14.505a2.79 2.79 0 0 1-2.634 1.397c-.294-.02-.57.15-.718.406l-1.44 2.496-.402.696c-.179.31-.509.5-.867.5H3.002a1 1 0 0 1-.866-1.5L4.19 14.94h.001l.942-1.631a.8.8 0 0 0-.002-.812c-.524-.897-.717-1.944-.197-2.844L8.775 3zM19 18v2H9.344l1.156-2z"/></svg>