<svg xmlns="http://www.w3.org/2000/svg" width="24" height="24" fill="none" viewBox="0 0 24 24"><path fill="#313234" fill-rule="evenodd" d="M11.948 13.505 18.013 3h2.31L13.68 14.505a2.79 2.79 0 0 1-2.634 1.397c-.294-.02-.57.151-.717.406l-1.441 2.496-.401.696c-.18.31-.51.5-.867.5H3.002a1 1 0 0 1-.866-1.5l2.056-3.562.942-1.63a.8.8 0 0 0-.002-.812c-.524-.897-.717-1.944-.197-2.844L8.775 3h2.31l-4.333 7.505a.8.8 0 0 0 0 .811c.523.901.714 1.952.193 2.854l-.52.902 1.732 1 .44-.764a2.79 2.79 0 0 1 2.635-1.397c.294.021.568-.15.716-.406M9.344 20l1.156-2H19v2z" clip-rule="evenodd"/></svg>