<svg xmlns="http://www.w3.org/2000/svg" width="24" height="24" fill="none" viewBox="0 0 24 24"><path fill="#313234" fill-rule="evenodd" d="M20 8.5a.5.5 0 0 1-.5.5H16v2h2.5a.5.5 0 0 1 .5.5v1a.5.5 0 0 1-.5.5H16v2h3.5a.5.5 0 0 1 .5.5v1a.5.5 0 0 1-.5.5h-5a.5.5 0 0 1-.5-.5v-9a.5.5 0 0 1 .5-.5h5a.5.5 0 0 1 .5.5zm-7 8a.5.5 0 0 1-.5.5h-1a.5.5 0 0 1-.5-.5v-5.702l-2.063 3.057a.5.5 0 0 1-.843-.023L6 10.335V16.5a.5.5 0 0 1-.5.5h-1a.5.5 0 0 1-.5-.5v-9a.5.5 0 0 1 .5-.5l1.222.002a.5.5 0 0 1 .424.236l2.352 3.802 2.356-3.802a.5.5 0 0 1 .424-.237H12.5a.5.5 0 0 1 .5.5zM20 5H4a2 2 0 0 0-2 2v10a2 2 0 0 0 2 2h16a2 2 0 0 0 2-2V7a2 2 0 0 0-2-2" clip-rule="evenodd" style="fill:#313234;fill:color(display-p3 .1922 .1961 .2039);fill-opacity:1"/></svg>