<svg xmlns="http://www.w3.org/2000/svg" width="24" height="24" fill="none" viewBox="0 0 24 24"><path fill="#313234" fill-rule="evenodd" d="m19 17.13-4.806-2.752a2.86 2.86 0 0 0-1.42-.378H9V7.974h3.773c.498 0 .99-.13 1.421-.378L19 4.846zM5 14h2V7.974H5zM20.138 2.018a.86.86 0 0 0-.427.115l-6.51 3.727a.86.86 0 0 1-.428.114H4a1 1 0 0 0-1 1V15a1 1 0 0 0 1 1h.668l-.908 4.4a.5.5 0 0 0 .49.6h2.321a.8.8 0 0 0 .783-.638L8.255 16h4.518a.86.86 0 0 1 .428.114l6.51 3.727a.86.86 0 0 0 1.29-.747V2.88a.86.86 0 0 0-.863-.862" clip-rule="evenodd"/></svg>