<svg xmlns="http://www.w3.org/2000/svg" width="24" height="24" fill="none" viewBox="0 0 24 24"><path fill="#313234" d="M7.5 13a1.5 1.5 0 1 0 0 3 1.5 1.5 0 0 0 0-3M15 14.5a1.5 1.5 0 1 1 3 0 1.5 1.5 0 0 1-3 0" style="fill:#313234;fill:color(display-p3 .1922 .1961 .2039);fill-opacity:1"/><path fill="#313234" fill-rule="evenodd" d="M17 2a4 4 0 0 1 4 4v12a1 1 0 0 1-1 1h-3l2.146 2.146a.5.5 0 0 1-.353.854h-2.379a1 1 0 0 1-.707-.293L13 19h-2l-2.707 2.707a1 1 0 0 1-.707.293H5.207a.5.5 0 0 1-.353-.854L7 19H4a1 1 0 0 1-1-1V6a4 4 0 0 1 4-4zm2 4v4h-6V4h4l.15.005A2 2 0 0 1 19 6m-8-2H7a2 2 0 0 0-1.995 1.85L5 6v4h6zM5 17h14v-5H5z" clip-rule="evenodd" style="fill:#313234;fill:color(display-p3 .1922 .1961 .2039);fill-opacity:1"/></svg>