<svg xmlns="http://www.w3.org/2000/svg" width="24" height="24" fill="none" viewBox="0 0 24 24"><path fill="#313234" fill-rule="evenodd" d="M14 13V6a2 2 0 1 0-4 0v7a2 2 0 1 0 4 0M12 2a4 4 0 0 0-4 4v7a4 4 0 0 0 8 0V6a4 4 0 0 0-4-4m-1 18.938a8.004 8.004 0 0 1-6.938-6.94C3.993 13.45 4.448 13 5 13s.991.451 1.082.996a6.002 6.002 0 0 0 11.836 0c.09-.545.53-.996 1.082-.996s1.007.45.938.998A8.004 8.004 0 0 1 13 20.938V23h-2z" clip-rule="evenodd" style="fill:#313234;fill:color(display-p3 .1922 .1961 .2039);fill-opacity:1"/></svg>