<svg xmlns="http://www.w3.org/2000/svg" width="24" height="24" fill="none" viewBox="0 0 24 24"><path fill="#313234" d="M2.794 8.798c.81-.81 1.992-1.03 2.697-.54.648.432 1.618 1.65 1.618 2.698 0 1.079-1.359 1.9-1.348 2.428s.591 1.9 1.772 3.082 2.555 1.763 3.083 1.773 1.349-1.35 2.428-1.35c1.048 0 2.266.973 2.697 1.62.49.705.27 1.888-.539 2.697-1.349 1.349-5.125 1.35-9.441-2.967-4.316-4.315-4.316-8.092-2.967-9.441M16.25 2.473c3.452 0 6.25 2.399 6.25 5.357s-2.798 5.357-6.25 5.357a7.3 7.3 0 0 1-1.504-.158c-.971.762-2.058 1.104-2.7 1.25-.211.047-.357-.19-.243-.375.25-.405.59-1.033.801-1.724C11.029 11.207 10 9.622 10 7.83c0-2.958 2.798-5.357 6.25-5.357m-2.678 4.464a.896.896 0 0 0-.893.892c0 .492.402.894.893.894a.896.896 0 0 0 .893-.894.896.896 0 0 0-.893-.892m2.678 0a.896.896 0 0 0-.893.892c0 .492.402.894.893.894a.896.896 0 0 0 .893-.894.896.896 0 0 0-.893-.892m2.679 0a.896.896 0 0 0-.893.892c0 .492.402.894.893.894a.896.896 0 0 0 .893-.894.896.896 0 0 0-.893-.892"/></svg>