<svg xmlns="http://www.w3.org/2000/svg" width="24" height="24" fill="none" viewBox="0 0 24 24"><path fill="#313234" fill-rule="evenodd" d="M2.5 12a2.257 2.257 0 0 0 2.25 2.25A2.257 2.257 0 0 0 7 12a2.257 2.257 0 0 0-2.25-2.25A2.257 2.257 0 0 0 2.5 12m9.5 2.25A2.257 2.257 0 0 1 9.75 12 2.257 2.257 0 0 1 12 9.75 2.257 2.257 0 0 1 14.25 12 2.257 2.257 0 0 1 12 14.25m7.25 0A2.257 2.257 0 0 1 17 12a2.257 2.257 0 0 1 2.25-2.25A2.257 2.257 0 0 1 21.5 12a2.257 2.257 0 0 1-2.25 2.25" clip-rule="evenodd" style="fill:#313234;fill:color(display-p3 .1922 .1961 .2039);fill-opacity:1"/></svg>