<svg xmlns="http://www.w3.org/2000/svg" width="24" height="24" fill="none" viewBox="0 0 24 24"><path fill="#313234" fill-rule="evenodd" d="M9.75 4.75A2.257 2.257 0 0 0 12 7a2.257 2.257 0 0 0 2.25-2.25A2.257 2.257 0 0 0 12 2.5a2.257 2.257 0 0 0-2.25 2.25m2.25 9.5A2.257 2.257 0 0 1 9.75 12 2.257 2.257 0 0 1 12 9.75 2.257 2.257 0 0 1 14.25 12 2.257 2.257 0 0 1 12 14.25m0 7.25a2.257 2.257 0 0 1-2.25-2.25A2.257 2.257 0 0 1 12 17a2.257 2.257 0 0 1 2.25 2.25A2.257 2.257 0 0 1 12 21.5" clip-rule="evenodd" style="fill:#313234;fill:color(display-p3 .1922 .1961 .2039);fill-opacity:1"/></svg>