<svg xmlns="http://www.w3.org/2000/svg" width="24" height="24" fill="none" viewBox="0 0 24 24"><path fill="#313234" d="M12.245 2c1.55 0 2.708.279 3.686.802a5.45 5.45 0 0 1 2.267 2.267c.523.978.802 2.136.802 3.686v6.49c0 1.55-.279 2.708-.802 3.686a5.45 5.45 0 0 1-2.267 2.267c-.978.523-2.136.802-3.686.802h-.49c-1.55 0-2.708-.279-3.686-.802a5.45 5.45 0 0 1-2.267-2.267C5.279 17.953 5 16.795 5 15.245v-6.49c0-1.55.279-2.708.802-3.686a5.45 5.45 0 0 1 2.267-2.267C9.047 2.279 10.205 2 11.755 2zm-.49 2c-1.191 0-2.04.19-2.742.565q-.944.505-1.448 1.448c-.344.644-.532 1.41-.561 2.45L7 8.756v6.49c0 1.191.19 2.04.565 2.742q.505.944 1.448 1.448c.644.344 1.41.532 2.45.561l.292.004h.49c1.191 0 2.04-.19 2.742-.565a3.45 3.45 0 0 0 1.448-1.448c.344-.644.532-1.41.561-2.45l.004-.292v-6.49c0-1.191-.19-2.04-.565-2.742a3.45 3.45 0 0 0-1.448-1.448c-.644-.344-1.41-.532-2.45-.561L12.244 4zM12 6a1 1 0 0 1 1 1v3a1 1 0 1 1-2 0V7a1 1 0 0 1 1-1"/></svg>