<svg xmlns="http://www.w3.org/2000/svg" width="24" height="24" fill="none" viewBox="0 0 24 24"><path fill="#313234" fill-rule="evenodd" d="M12 2c5.522 0 10 4.478 10 10s-4.478 10-10 10S2 17.522 2 12 6.477 2 12 2M7 7.508v9.016h3.374l.02-4.475 3.03 4.474h3.396V7.508L13.47 7.5l-.01 4.49-3.087-4.482zm-4.068 4.506.001-.134v.268zm9.292-8.995h-.583a9 9 0 0 1 .583 0m8.704 9.274v-.56a9 9 0 0 1 0 .56M11.65 21.01h.563a10 10 0 0 1-.563 0" clip-rule="evenodd" style="fill:#313234;fill:color(display-p3 .1922 .1961 .2039);fill-opacity:1"/></svg>