<svg xmlns="http://www.w3.org/2000/svg" width="24" height="24" fill="none" viewBox="0 0 24 24"><path fill="#313234" fill-rule="evenodd" d="M5.202 4.545C9.132.74 15.394.771 19.292 4.638v.01c3.825 3.982 3.742 10.306-.177 14.215a12.36 12.36 0 0 1-7.122 3.297c-1.637.174-3.29.167-4.925-.021a23.7 23.7 0 0 1-4.551-1.099.93.93 0 0 1-.425-1.451 9 9 0 0 0 1.203-2.022 2.3 2.3 0 0 0-.073-1.815 9.72 9.72 0 0 1 1.98-11.207m8.43 7.289V7.54h2.54v8.025h-2.55l-2.924-4.292v4.292h-2.54V7.541h2.55z" clip-rule="evenodd"/></svg>