<svg xmlns="http://www.w3.org/2000/svg" width="24" height="24" fill="none" viewBox="0 0 24 24"><path fill="#313234" d="M12.829 2.008 12.96 2h1a1 1 0 0 1 1 1v18a1 1 0 0 1-1 1h-1a1 1 0 0 1-.707-.293l-4.708-4.708H2.96a1 1 0 0 1-.993-.883L1.96 16V8a1 1 0 0 1 1-1h4.585l4.708-4.707a1 1 0 0 1 .576-.284M23.127 15.227a.933.933 0 0 1-1.32 0L19.9 13.32l-1.907 1.907a.933.933 0 1 1-1.32-1.32L18.58 12l-1.907-1.907a.933.933 0 1 1 1.32-1.32L19.9 10.68l1.907-1.907a.933.933 0 1 1 1.32 1.32L21.22 12l1.907 1.907a.933.933 0 0 1 0 1.32" style="fill:#313234;fill:color(display-p3 .1922 .1961 .2039);fill-opacity:1"/></svg>