<svg xmlns="http://www.w3.org/2000/svg" width="24" height="24" fill="none" viewBox="0 0 24 24"><path fill="#313234" fill-rule="evenodd" d="M17.715 18.715H6.29l.002-9.982c0-.094.036-.205.084-.257.948-1.05 1.92-2.108 2.888-3.15a.34.34 0 0 1 .202-.098h8.25zM20 4.089c0-.63-.513-1.143-1.143-1.143h-9.89c-.44 0-.782.15-1.077.476l-3.444 3.75A1.58 1.58 0 0 0 4 8.318c.003.433.004 11.418.004 11.54 0 .63.513 1.143 1.142 1.143h13.711c.63 0 1.143-.513 1.143-1.142zM7.66 9.983c0 .504.41.913.914.913h2.47a.914.914 0 0 0 .913-.913V7.512a.914.914 0 0 0-1.828 0v1.557H8.574a.915.915 0 0 0-.914.914" clip-rule="evenodd" style="fill:#313234;fill:color(display-p3 .1922 .1961 .2039);fill-opacity:1"/></svg>