<svg width="24" height="24" viewBox="0 0 24 24" fill="none" xmlns="http://www.w3.org/2000/svg">
<path fill-rule="evenodd" clip-rule="evenodd" d="M3 6C3 3.79086 4.79086 2 7 2H17C19.2091 2 21 3.79086 21 6V9H19V6C19 4.89543 18.1046 4 17 4H7C5.89543 4 5 4.89543 5 6V18C5 19.1046 5.89543 20 7 20H9V22H7C4.79086 22 3 20.2091 3 18V6ZM7 8C7 7.44772 7.44772 7 8 7H16C16.5523 7 17 7.44772 17 8C17 8.55228 16.5523 9 16 9H8C7.44772 9 7 8.55228 7 8ZM8 11C7.44772 11 7 11.4477 7 12C7 12.5523 7.44772 13 8 13H14C14.5523 13 15 12.5523 15 12C15 11.4477 14.5523 11 14 11H8ZM7 16C7 15.4477 7.44772 15 8 15H12C12.5523 15 13 15.4477 13 16C13 16.5523 12.5523 17 12 17H8C7.44772 17 7 16.5523 7 16ZM21.1975 13.2955L19.7037 11.8027L21.1975 10.3088C21.6103 9.89707 22.2775 9.89707 22.6903 10.3088C23.1031 10.7216 23.1031 11.3899 22.6903 11.8027L21.1975 13.2955ZM12.4928 22.0001H11V20.5073L18.9579 12.5494L20.4507 14.0422L12.4928 22.0001Z" fill="#313234"/>
</svg>
