<svg xmlns="http://www.w3.org/2000/svg" width="24" height="24" fill="none" viewBox="0 0 24 24"><path fill="#313234" d="M18.858 2.946c.63 0 1.142.513 1.142 1.142v15.77c0 .629-.513 1.142-1.142 1.142H5.147a1.144 1.144 0 0 1-1.143-1.142c0-.123 0-11.106-.004-11.541-.003-.45.14-.814.446-1.145l3.444-3.75a1.37 1.37 0 0 1 1.076-.476zM9.465 5.228a.34.34 0 0 0-.202.099c-.968 1.04-1.94 2.1-2.888 3.15a.43.43 0 0 0-.084.256l-.002 9.982h11.426V5.228zm1.578 1.37c.504 0 .914.41.914.913v2.472c0 .504-.41.913-.914.913H8.574a.915.915 0 0 1 0-1.827h1.555V7.511c0-.503.41-.913.914-.913"/></svg>