<svg xmlns="http://www.w3.org/2000/svg" width="24" height="24" fill="none" viewBox="0 0 24 24"><path fill="#313234" fill-rule="evenodd" d="M3 6a4 4 0 0 1 4-4h10a4 4 0 0 1 4 4v3h-2V6a2 2 0 0 0-2-2H7a2 2 0 0 0-2 2v12a2 2 0 0 0 2 2h2v2H7a4 4 0 0 1-4-4zm4 2a1 1 0 0 1 1-1h8a1 1 0 1 1 0 2H8a1 1 0 0 1-1-1m1 3a1 1 0 1 0 0 2h6a1 1 0 1 0 0-2zm-1 5a1 1 0 0 1 1-1h4a1 1 0 1 1 0 2H8a1 1 0 0 1-1-1m14.198-2.704-1.494-1.493 1.494-1.494a1.056 1.056 0 0 1 1.492 1.494zM12.493 22H11v-1.493l7.958-7.958 1.493 1.493z" clip-rule="evenodd" style="fill:#313234;fill:color(display-p3 .1922 .1961 .2039);fill-opacity:1"/></svg>