<svg xmlns="http://www.w3.org/2000/svg" width="24" height="24" fill="none" viewBox="0 0 24 24"><path fill="#313234" fill-rule="evenodd" d="M20 6a1 1 0 0 0 2 0V1a1 1 0 0 0-2 0zm1 4.9a1.2 1.2 0 1 0 0-2.4 1.2 1.2 0 0 0 0 2.4M6.295 13.602 4.8 16h14.398l-1.493-2.398a10.3 10.3 0 0 1-1.561-5.457A4.15 4.15 0 0 0 12 4a4.15 4.15 0 0 0-4.145 4.145c0 1.93-.54 3.817-1.56 5.457M10 18c0 1.103.897 2 2 2s2-.897 2-2zm8.145-9.855a8.3 8.3 0 0 0 1.258 4.4l2.35 3.773A1.1 1.1 0 0 1 20.82 18H16c0 2.206-1.794 4-4 4s-4-1.794-4-4H3.18a1.1 1.1 0 0 1-.933-1.682l2.35-3.774a8.3 8.3 0 0 0 1.258-4.399A6.15 6.15 0 0 1 12 2a6.15 6.15 0 0 1 6.145 6.145" clip-rule="evenodd" style="fill:#313234;fill:color(display-p3 .1922 .1961 .2039);fill-opacity:1"/></svg>