<svg xmlns="http://www.w3.org/2000/svg" width="24" height="24" fill="none" viewBox="0 0 24 24"><path fill="#313234" fill-rule="evenodd" d="M4.6 12.545a8.33 8.33 0 0 0 1.257-4.4 6.144 6.144 0 0 1 12.29 0c0 1.554.435 3.078 1.258 4.4l2.352 3.775a1.1 1.1 0 0 1-.935 1.68h-4.82a4 4 0 1 1-8 0h-4.82a1.1 1.1 0 0 1-.932-1.684zM10.001 18a2 2 0 1 0 4 0zm9.2-2-1.495-2.398a10.3 10.3 0 0 1-1.56-5.458 4.144 4.144 0 1 0-8.29 0c0 1.929-.54 3.819-1.56 5.458L4.803 16z" clip-rule="evenodd" style="fill:#313234;fill:color(display-p3 .1922 .1961 .2039);fill-opacity:1"/></svg>