<svg xmlns="http://www.w3.org/2000/svg" width="24" height="24" fill="none" viewBox="0 0 24 24"><path fill="#313234" fill-rule="evenodd" d="m17.385 13.605 1.494 2.398h-1.078L8.028 6.23c.695-1.317 2.062-2.227 3.652-2.227a4.15 4.15 0 0 1 4.145 4.145c0 1.93.539 3.817 1.56 5.457M4.255 2.457A1 1 0 0 0 2.84 3.871l16.97 16.97a1 1 0 0 0 1.415-1.414L19.8 18.003h.699a1.1 1.1 0 0 0 .933-1.682l-2.35-3.774a8.3 8.3 0 0 1-1.258-4.399 6.15 6.15 0 0 0-6.145-6.145 6.13 6.13 0 0 0-5.114 2.765zm9.425 15.546c0 1.103-.897 2-2 2s-2-.897-2-2zm-9.403-5.456-2.35 3.774a1.1 1.1 0 0 0 .933 1.682h4.82c0 2.206 1.794 4 4 4a4 4 0 0 0 3.989-3.89l-2.11-2.11H4.48l1.493-2.398a10.3 10.3 0 0 0 1.41-3.777l-1.84-1.84-.004.066q-.005.046-.005.094a8.3 8.3 0 0 1-1.258 4.4" clip-rule="evenodd" style="fill:#313234;fill:color(display-p3 .1922 .1961 .2039);fill-opacity:1"/></svg>