<svg xmlns="http://www.w3.org/2000/svg" width="24" height="24" fill="none" viewBox="0 0 24 24"><path fill="#313234" d="M12 2a6.15 6.15 0 0 1 6.144 6.146c0 1.556.435 3.077 1.258 4.398l2.352 3.774A1.1 1.1 0 0 1 20.819 18H16c0 2.206-1.793 4-4 4-2.204 0-4-1.794-4-4H3.18a1.1 1.1 0 0 1-.932-1.682l2.35-3.774a8.3 8.3 0 0 0 1.257-4.398A6.153 6.153 0 0 1 12 2m-2 16c0 1.103.897 2 2 2s2-.897 2-2zm2-14a4.15 4.15 0 0 0-4.146 4.146c0 1.93-.538 3.817-1.56 5.456L4.802 16h14.398l-1.493-2.398a10.3 10.3 0 0 1-1.562-5.456A4.15 4.15 0 0 0 12 4m9 4.5a1.2 1.2 0 1 1 0 2.4 1.2 1.2 0 0 1 0-2.4M21 0a1 1 0 0 1 1 1v5a1 1 0 0 1-2 0V1a1 1 0 0 1 1-1"/></svg>