<svg xmlns="http://www.w3.org/2000/svg" width="24" height="24" fill="none" viewBox="0 0 24 24"><path fill="#313234" d="M5.535 8.148a8.3 8.3 0 0 1-1.258 4.399l-2.35 3.774a1.1 1.1 0 0 0 .933 1.682h4.82c0 2.206 1.794 4 4 4a4 4 0 0 0 3.99-3.89l-2.111-2.11H4.48l1.493-2.398a10.3 10.3 0 0 0 1.41-3.777l-1.84-1.84c-.002.053-.009.105-.009.16m6.145-6.145a6.13 6.13 0 0 0-5.114 2.765l-2.31-2.31A1 1 0 0 0 2.84 3.87l16.97 16.97a1 1 0 0 0 1.415-1.414L19.8 18.003h.7a1.1 1.1 0 0 0 .932-1.682l-2.35-3.774a8.3 8.3 0 0 1-1.257-4.4 6.15 6.15 0 0 0-6.146-6.144m2 16c0 1.103-.897 2-2 2s-2-.897-2-2zm-2-14a4.15 4.15 0 0 1 4.146 4.145c0 1.93.538 3.817 1.56 5.457l1.493 2.398h-1.078L8.03 6.23c.695-1.317 2.061-2.227 3.651-2.227"/></svg>