<svg xmlns="http://www.w3.org/2000/svg" width="24" height="24" fill="none" viewBox="0 0 24 24"><path fill="#313234" d="M20 5a2 2 0 0 1 2 2v10a2 2 0 0 1-2 2H4a2 2 0 0 1-2-2V7a2 2 0 0 1 2-2zM8.25 7A3.25 3.25 0 0 0 5 10.25v3.5a3.25 3.25 0 0 0 6.5 0v-3.5A3.25 3.25 0 0 0 8.25 7m7.25 0a3 3 0 0 0-3 3v.5a3 3 0 0 0 3 3h.5c.31 0 .61-.047.89-.135A2.33 2.33 0 0 1 14.668 15H13v2h1.667l.21-.005A4.334 4.334 0 0 0 19 12.667V10a3 3 0 0 0-3-3zM8.25 9c.69 0 1.25.56 1.25 1.25v3.5l-.007.128A1.25 1.25 0 0 1 7 13.75v-3.5l.007-.128A1.25 1.25 0 0 1 8.25 9M16 9a1 1 0 0 1 1 1v.5a1 1 0 0 1-1 1h-.5a1 1 0 0 1-1-1V10a1 1 0 0 1 1-1z"/></svg>