<svg xmlns="http://www.w3.org/2000/svg" width="24" height="24" fill="none" viewBox="0 0 24 24"><path fill="#313234" d="M10 13.667c0-.368.299-.667.667-.667h.666c.368 0 .667.299.667.667v.666a.667.667 0 0 1-.667.667h-.666a.667.667 0 0 1-.667-.667zM10.667 16a.667.667 0 0 0-.667.667v.666c0 .369.299.667.667.667h.666a.667.667 0 0 0 .667-.667v-.666a.667.667 0 0 0-.667-.667zM13 13.667c0-.368.299-.667.667-.667h.666c.368 0 .667.299.667.667v.666a.667.667 0 0 1-.667.667h-.666a.667.667 0 0 1-.667-.667zM13.667 16a.667.667 0 0 0-.667.667v.666c0 .369.299.667.667.667h.666a.667.667 0 0 0 .667-.667v-.666a.667.667 0 0 0-.667-.667zM16 13.667c0-.368.299-.667.667-.667h.666c.369 0 .667.299.667.667v.666a.667.667 0 0 1-.667.667h-.666a.667.667 0 0 1-.667-.667zM16.667 16a.667.667 0 0 0-.667.667v.666c0 .369.299.667.667.667h.666a.667.667 0 0 0 .667-.667v-.666a.667.667 0 0 0-.667-.667z"/><path fill="#313234" fill-rule="evenodd" d="M10 7a1 1 0 0 1 1-1h6a1 1 0 0 1 1 1v2a1 1 0 0 1-1 1h-6a1 1 0 0 1-1-1zm1.5 1.5v-1h5v1z" clip-rule="evenodd"/><path fill="#313234" fill-rule="evenodd" d="M2 5a3 3 0 0 1 3-3h14a3 3 0 0 1 3 3v14a3 3 0 0 1-3 3H5a3 3 0 0 1-3-3zm2.02-.202A1 1 0 0 1 6 5v14a1 1 0 1 1-2 0V5q0-.103.02-.202M8 19c0 .35-.06.687-.17 1H19a1 1 0 0 0 1-1V5a1 1 0 0 0-1-1H7.83c.11.313.17.65.17 1z" clip-rule="evenodd"/></svg>