<svg xmlns="http://www.w3.org/2000/svg" width="24" height="24" fill="none" viewBox="0 0 24 24"><path fill="#313234" fill-rule="evenodd" d="M13 2.577a2 2 0 0 0-2 0L4 6.62A2 2 0 0 0 3 8.35v8.083a2 2 0 0 0 1 1.732l7 4.041a2 2 0 0 0 2 0l7-4.041a2 2 0 0 0 1-1.732V8.35a2 2 0 0 0-1-1.732zm-3.07 2.8L12 4.182l6.304 3.64-2.106 1.21zM7.94 6.526 5.696 7.822 12 11.447l2.25-1.294zM4.89 9.665v6.833L11 20.026v-6.847zM13 20.025l6.11-3.527V9.665l-2.117 1.218Q17 10.94 17 11v2a1 1 0 1 1-2 0v-.971l-2 1.15z" clip-rule="evenodd" style="fill:#313234;fill:color(display-p3 .1922 .1961 .2039);fill-opacity:1"/></svg>