<svg xmlns="http://www.w3.org/2000/svg" width="24" height="24" fill="none" viewBox="0 0 24 24"><path fill="#313234" fill-rule="evenodd" d="M6 5a1 1 0 0 1 1-1h4v5a2 2 0 0 0 2 2h7v-1a1 1 0 0 0-.293-.707l-7-7A1 1 0 0 0 12 2H7a3 3 0 0 0-3 3v14a3 3 0 0 0 3 3h6v-2H7a1 1 0 0 1-1-1zm10.586 4L13 5.414V9z" clip-rule="evenodd" style="fill:#313234;fill:color(display-p3 .1922 .1961 .2039);fill-opacity:1"/><path fill="#313234" d="M21.793 16.793 20 18.586V13h-2v5.586l-1.793-1.793-1.414 1.414 3.5 3.5a1 1 0 0 0 1.414 0l3.5-3.5z" style="fill:#313234;fill:color(display-p3 .1922 .1961 .2039);fill-opacity:1"/></svg>