<svg xmlns="http://www.w3.org/2000/svg" width="24" height="24" fill="none" viewBox="0 0 24 24"><path fill="#313234" d="M13 12v2h-2v-2zM13 18v-2h-2v2z" style="fill:#313234;fill:color(display-p3 .1922 .1961 .2039);fill-opacity:1"/><path fill="#313234" fill-rule="evenodd" d="M7 2a3 3 0 0 0-3 3v14a3 3 0 0 0 3 3h10a3 3 0 0 0 3-3v-9a1 1 0 0 0-.293-.707l-7-7A1 1 0 0 0 12 2zM6 5a1 1 0 0 1 1-1h4v6h2V5.414l5 5V19a1 1 0 0 1-1 1H7a1 1 0 0 1-1-1z" clip-rule="evenodd" style="fill:#313234;fill:color(display-p3 .1922 .1961 .2039);fill-opacity:1"/></svg>