<svg xmlns="http://www.w3.org/2000/svg" width="24" height="24" fill="none" viewBox="0 0 24 24"><path fill="#313234" fill-rule="evenodd" d="M17.455 7.455h-.91v-.91a4.547 4.547 0 0 0-4.31-4.54L12 2H6.546l-.234.006A4.546 4.546 0 0 0 2 6.546V12a4.545 4.545 0 0 0 4.312 4.54l.234.006h.909v.909a4.545 4.545 0 0 0 4.311 4.539L12 22h5.454l.235-.006a4.545 4.545 0 0 0 4.305-4.305l.006-.235V12a4.546 4.546 0 0 0-4.311-4.54zM12 14.545H6.545A2.546 2.546 0 0 1 4 12V6.546A2.546 2.546 0 0 1 6.546 4H12a2.546 2.546 0 0 1 2.546 2.546V12A2.546 2.546 0 0 1 12 14.546" clip-rule="evenodd"/></svg>