<svg xmlns="http://www.w3.org/2000/svg" width="24" height="24" fill="none" viewBox="0 0 24 24"><path fill="#313234" fill-rule="evenodd" d="M16.546 6.455v-.91a4.547 4.547 0 0 0-4.312-4.54L12 1H6.546l-.235.006A4.546 4.546 0 0 0 2 5.546V11a4.545 4.545 0 0 0 4.311 4.54l.235.006h.908v.909a4.545 4.545 0 0 0 4.312 4.539L12 21h5.454l.235-.006a4.545 4.545 0 0 0 4.304-4.305l.007-.235V11a4.547 4.547 0 0 0-4.311-4.54l-.235-.005zm-4.546 2h5.454A2.546 2.546 0 0 1 20 11v5.454A2.546 2.546 0 0 1 17.454 19H12a2.546 2.546 0 0 1-2.546-2.546V11A2.546 2.546 0 0 1 12 8.455" clip-rule="evenodd"/></svg>