<svg xmlns="http://www.w3.org/2000/svg" width="24" height="24" fill="none" viewBox="0 0 24 24"><path fill="#313234" fill-rule="evenodd" d="M6.546 16.546h.908v.908a4.545 4.545 0 0 0 4.312 4.54L12 22h5.454l.235-.007a4.545 4.545 0 0 0 4.304-4.304l.007-.235V12a4.546 4.546 0 0 0-4.311-4.54l-.235-.006h-.908v-.908a4.547 4.547 0 0 0-4.312-4.54L12 2H6.546l-.235.006A4.546 4.546 0 0 0 2 6.546V12a4.545 4.545 0 0 0 4.311 4.539zm9-4.546V8.454H12a3.546 3.546 0 0 0-3.541 3.363L8.454 12v3.546H12a3.546 3.546 0 0 0 3.54-3.364z" clip-rule="evenodd"/></svg>