<svg xmlns="http://www.w3.org/2000/svg" width="24" height="24" fill="none" viewBox="0 0 24 24"><path fill="#313234" fill-rule="evenodd" d="M16.546 7.454v-.908a4.547 4.547 0 0 0-4.312-4.54L12 2H6.546l-.235.006A4.546 4.546 0 0 0 2 6.546V12a4.545 4.545 0 0 0 4.311 4.539l.235.007h.908v.908a4.545 4.545 0 0 0 4.312 4.54L12 22h5.454l.235-.007a4.545 4.545 0 0 0 4.304-4.304l.007-.235V12a4.547 4.547 0 0 0-4.311-4.54l-.235-.006zm3.454 10A2.546 2.546 0 0 1 17.454 20H12a2.546 2.546 0 0 1-2.546-2.546v-.908H12l.234-.007a4.545 4.545 0 0 0 4.305-4.305l.007-.234V9.454h.908A2.546 2.546 0 0 1 20 12zM7.454 12a4.546 4.546 0 0 1 4.312-4.54L12 7.454h2.546v-.908A2.546 2.546 0 0 0 12 4H6.546A2.546 2.546 0 0 0 4 6.546V12a2.546 2.546 0 0 0 2.546 2.546h.908z" clip-rule="evenodd"/></svg>