<svg xmlns="http://www.w3.org/2000/svg" width="24" height="24" fill="none" viewBox="0 0 24 24"><path fill="#313234" fill-rule="evenodd" d="M8 5A2 2 0 1 1 4 5 2 2 0 0 1 8 5M4 16h1v4a1 1 0 1 0 2 0v-4h1V9a1 1 0 0 0-1-1H5a1 1 0 0 0-1 1zm6 0h1v4a1 1 0 1 0 2 0v-4h1V9a1 1 0 0 0-1-1h-2a1 1 0 0 0-1 1zm7 0h-1V9a1 1 0 0 1 1-1h2a1 1 0 0 1 1 1v7h-1v4a1 1 0 1 1-2 0zm-5-9A2 2 0 1 0 12 3 2 2 0 0 0 12 7m8-2A2 2 0 1 1 16 5 2 2 0 0 1 20 5" clip-rule="evenodd" style="fill:#313234;fill:color(display-p3 .1922 .1961 .2039);fill-opacity:1"/></svg>