<svg xmlns="http://www.w3.org/2000/svg" width="24" height="24" fill="none" viewBox="0 0 24 24"><path fill="#313234" fill-rule="evenodd" d="M12 12.296c2.918 0 5.474 1.784 6.467 4.395A7.95 7.95 0 0 0 20 12c0-4.411-3.59-8-8-8-4.412 0-8 3.589-8 8 0 1.753.572 3.371 1.532 4.691.994-2.612 3.55-4.395 6.468-4.395m-4.762 5.537-.13.483a7.946 7.946 0 0 0 9.783 0l-.13-.483c-.558-2.082-2.516-3.537-4.76-3.537-2.246 0-4.204 1.455-4.763 3.537M2 12C2 6.486 6.486 2 12 2s10 4.486 10 10-4.485 10-10 10S2 17.514 2 12m9-3c0 .551.45 1 1 1 .551 0 1-.449 1-1s-.449-1-1-1-1 .45-1 1M9 9c0-1.654 1.346-3 3-3s3 1.346 3 3-1.346 3-3 3-3-1.346-3-3" clip-rule="evenodd" style="fill:#313234;fill:color(display-p3 .1922 .1961 .2039);fill-opacity:1"/></svg>