<svg xmlns="http://www.w3.org/2000/svg" width="24" height="24" fill="none" viewBox="0 0 24 24"><path fill="#313234" d="M12 2c5.515 0 10 4.486 10 10s-4.485 10-10 10S2 17.514 2 12 6.486 2 12 2m0 12.296c-2.244 0-4.202 1.455-4.761 3.537l-.13.483a7.946 7.946 0 0 0 9.782 0l-.13-.483c-.559-2.082-2.516-3.537-4.76-3.537M12 4c-4.41 0-8 3.589-8 8a7.95 7.95 0 0 0 1.534 4.691c.994-2.612 3.55-4.395 6.467-4.395s5.472 1.784 6.465 4.395A7.95 7.95 0 0 0 20 12c0-4.411-3.588-8-8-8m0 2c1.654 0 3 1.346 3 3s-1.346 3-3 3-3-1.346-3-3 1.347-3 3-3m0 2c-.55 0-1 .449-1 1s.45 1 1 1c.551 0 1-.45 1-1s-.449-1-1-1"/></svg>