<svg xmlns="http://www.w3.org/2000/svg" width="24" height="24" fill="none" viewBox="0 0 24 24"><path fill="#313234" fill-rule="evenodd" d="M10.99 10.2a1.6 1.6 0 1 0 0-3.2 1.6 1.6 0 0 0 0 3.2m3.6-1.6a3.6 3.6 0 1 1-7.2 0 3.6 3.6 0 0 1 7.2 0M4.998 20.688v-.003zM5.331 19a6.003 6.003 0 0 1 11.318 0zm13.648 1.582a8 8 0 0 0-15.978 0 .405.405 0 0 0 .405.418h15.168a.405.405 0 0 0 .405-.418m1.928-10.855a.933.933 0 0 0 1.32-1.32L20.32 6.5l1.907-1.907a.933.933 0 1 0-1.32-1.32L19 5.18l-1.907-1.907a.933.933 0 1 0-1.32 1.32L17.68 6.5l-1.907 1.907a.933.933 0 1 0 1.32 1.32L19 7.82z" clip-rule="evenodd" style="fill:#313234;fill:color(display-p3 .1922 .1961 .2039);fill-opacity:1"/></svg>