<svg width="24" height="24" viewBox="0 0 24 24" fill="none" xmlns="http://www.w3.org/2000/svg">
<path fill-rule="evenodd" clip-rule="evenodd" d="M20.9067 9.72663C21.2712 10.0911 21.8621 10.0911 22.2266 9.72663C22.5911 9.36214 22.5911 8.77119 22.2266 8.4067L20.3199 6.5L22.2266 4.5933C22.5911 4.22881 22.5911 3.63786 22.2266 3.27337C21.8621 2.90888 21.2712 2.90888 20.9067 3.27337L19 5.18007L17.0933 3.27337C16.7288 2.90888 16.1379 2.90888 15.7734 3.27337C15.4089 3.63786 15.4089 4.22881 15.7734 4.5933L17.6801 6.5L15.7734 8.4067C15.4089 8.77119 15.4089 9.36214 15.7734 9.72663C16.1379 10.0911 16.7288 10.0911 17.0933 9.72663L19 7.81993L20.9067 9.72663ZM11.014 12.1998C13.002 12.1998 14.614 10.5878 14.614 8.59982C14.614 6.61182 13.002 4.99982 11.014 4.99982C9.02596 4.99982 7.41396 6.61182 7.41396 8.59982C7.41396 10.5878 9.02596 12.1998 11.014 12.1998ZM3.03095 20.4761C3.30095 16.3021 6.77195 13.0001 11.014 13.0001C15.256 13.0001 18.727 16.3021 18.997 20.4761C19.015 20.7601 18.776 21.0001 18.491 21.0001H3.53695C3.25195 21.0001 3.01295 20.7601 3.03095 20.4761Z" fill="#313234"/>
</svg>
