<svg xmlns="http://www.w3.org/2000/svg" width="24" height="24" fill="none" viewBox="0 0 24 24"><path fill="#313234" d="M10.99 13a8 8 0 0 1 7.99 7.582.406.406 0 0 1-.407.418H3.406a.405.405 0 0 1-.405-.418A8 8 0 0 1 10.99 13m0 2a6 6 0 0 0-5.659 4h11.317a6 6 0 0 0-5.659-4m0-10a3.6 3.6 0 1 1 0 7.2 3.6 3.6 0 0 1 0-7.2m0 2a1.6 1.6 0 1 0 0 3.202 1.6 1.6 0 0 0 0-3.202m9.916-3.726a.934.934 0 0 1 1.32 1.32L20.32 6.5l1.907 1.907a.934.934 0 0 1-1.32 1.32L19 7.82l-1.906 1.906a.934.934 0 0 1-1.32-1.32L17.68 6.5l-1.906-1.906a.934.934 0 0 1 1.32-1.32L19 5.18z"/></svg>