<svg xmlns="http://www.w3.org/2000/svg" width="24" height="24" fill="none" viewBox="0 0 24 24"><path fill="#313234" d="M17 12a5 5 0 1 1 0 10 5 5 0 0 1 0-10m-7.515 0c1.182 0 2.301.264 3.311.726A5.98 5.98 0 0 0 11 17c0 1.093.3 2.116.813 3H2.007a.504.504 0 0 1-.506-.524A8 8 0 0 1 9.485 12m6.23 7.7c.391.186.823.3 1.285.3 1.654 0 3-1.346 3-3 0-.462-.114-.894-.3-1.285zM17 14c-1.654 0-3 1.346-3 3 0 .462.113.894.301 1.285l3.984-3.984A2.96 2.96 0 0 0 17 14M9.485 4a3.5 3.5 0 1 1-.001 7 3.5 3.5 0 0 1 0-7"/></svg>