<svg xmlns="http://www.w3.org/2000/svg" width="24" height="24" fill="none" viewBox="0 0 24 24"><path fill="#313234" fill-rule="evenodd" d="M9.484 11a3.5 3.5 0 1 0 0-7 3.5 3.5 0 0 0 0 7M11 17c0-1.672.69-3.186 1.796-4.274A7.9 7.9 0 0 0 9.484 12a8 8 0 0 0-7.983 7.476.503.503 0 0 0 .506.524h9.805A5.96 5.96 0 0 1 11 17m4.715 2.7c.391.186.823.3 1.285.3 1.654 0 3-1.346 3-3 0-.462-.114-.894-.3-1.285zm2.57-5.399a2.95 2.95 0 0 0-1.285-.3c-1.654 0-3 1.345-3 3 0 .461.113.893.301 1.284zM12 17.001a5 5 0 1 1 10 0 5 5 0 0 1-10 0" clip-rule="evenodd"/></svg>