<svg xmlns="http://www.w3.org/2000/svg" width="24" height="24" fill="none" viewBox="0 0 24 24"><path fill="#313234" fill-rule="evenodd" d="M20.907 9.727a.933.933 0 0 0 1.32-1.32L20.32 6.5l1.907-1.907a.933.933 0 1 0-1.32-1.32L19 5.18l-1.907-1.907a.933.933 0 1 0-1.32 1.32L17.68 6.5l-1.907 1.907a.933.933 0 1 0 1.32 1.32L19 7.82zM11.014 12.2a3.6 3.6 0 1 0 0-7.2 3.6 3.6 0 0 0 0 7.2m-7.983 8.276a8 8 0 0 1 15.966 0 .504.504 0 0 1-.506.524H3.537a.504.504 0 0 1-.506-.524" clip-rule="evenodd" style="fill:#313234;fill:color(display-p3 .1922 .1961 .2039);fill-opacity:1"/></svg>