<svg xmlns="http://www.w3.org/2000/svg" width="24" height="24" fill="none" viewBox="0 0 24 24"><path fill="#313234" fill-rule="evenodd" d="M13 12a1 1 0 0 1-1-1V3c0-.552.45-1.005.999-.95 4.718.47 8.482 4.233 8.952 8.951.055.55-.398.999-.95.999zm-1 8c3.625 0 6.841-2.515 7.742-6.007h2.048q-.01.051-.017.102-.008.064-.022.127C20.725 18.728 16.624 22 12 22 6.486 22 2 17.514 2 12c0-4.623 3.271-8.725 7.778-9.75q.06-.014.12-.021.048-.007.094-.015v2.048C6.508 5.17 4 8.382 4 12c0 4.411 3.589 8 8 8" clip-rule="evenodd"/></svg>