<svg xmlns="http://www.w3.org/2000/svg" width="24" height="24" fill="none" viewBox="0 0 24 24"><path fill="#313234" d="M3 2.5a1 1 0 0 0 0 1.414L20.086 21a1 1 0 0 0 1.414-1.414l-6.037-6.037a2 2 0 0 1 .123-.135l1.568-1.568a2 2 0 0 1 .813-.493l1.74-.548c1.433-.451 1.875-2.26.814-3.322L16.528 3.49c-1.057-1.057-2.86-.622-3.318.802l-.562 1.748a2 2 0 0 1-.49.802l-1.572 1.572a2 2 0 0 1-.135.123L4.414 2.5A1 1 0 0 0 3 2.5M5.397 9h.689L15 17.914v.796a2 2 0 0 1-.54 1.367l-.113.12a1 1 0 0 1-1.436.023l-3.845-3.844-5.213 5.212a1 1 0 0 1-1.414-1.414l5.213-5.213-3.808-3.808a1 1 0 0 1-.04-1.372l.1-.11A2 2 0 0 1 5.396 9" style="fill:#313234;fill:color(display-p3 .1922 .1961 .2039);fill-opacity:1"/></svg>