<svg xmlns="http://www.w3.org/2000/svg" width="24" height="24" fill="none" viewBox="0 0 24 24"><path fill="#313234" fill-rule="evenodd" d="M20.52 7.483c1.063 1.061.62 2.87-.812 3.322l-1.74.548a2 2 0 0 0-.814.493l-1.568 1.568A2 2 0 0 0 15 14.828v3.882a2 2 0 0 1-.54 1.367l-.113.12a1 1 0 0 1-1.436.023l-3.845-3.844-5.213 5.212a1 1 0 0 1-1.414-1.414l5.213-5.213-3.808-3.808a1 1 0 0 1-.04-1.372l.1-.11A2 2 0 0 1 5.396 9h3.775a2 2 0 0 0 1.414-.586l1.572-1.572a2 2 0 0 0 .49-.802l.562-1.748c.458-1.424 2.26-1.86 3.319-.802zm-1.413 1.414-3.993-3.992-.562 1.748a4 4 0 0 1-.98 1.603L12 9.828A4 4 0 0 1 9.172 11H6.519L13 17.482v-2.654A4 4 0 0 1 14.172 12l1.567-1.568a4 4 0 0 1 1.627-.987z" clip-rule="evenodd"/></svg>