<svg xmlns="http://www.w3.org/2000/svg" width="24" height="24" fill="none" viewBox="0 0 24 24"><path fill="#313234" d="M9 13a2 2 0 0 1 2 2v4a2 2 0 0 1-2 2H5a2 2 0 0 1-2-2v-4a2 2 0 0 1 2-2zm4.643-10c1.083 0 1.958 0 2.666.058.728.06 1.368.185 1.96.487a5 5 0 0 1 2.186 2.185c.302.593.428 1.233.487 1.961C21 8.4 21 9.274 21 10.357v3.286c0 1.083 0 1.958-.058 2.666-.06.728-.185 1.368-.487 1.96a5 5 0 0 1-2.185 2.186c-.593.302-1.233.428-1.961.487C15.6 21 14.726 21 13.643 21H12v-2h1.6c1.136 0 1.929 0 2.545-.05.606-.05.954-.143 1.217-.277a3 3 0 0 0 1.31-1.31c.135-.264.228-.612.277-1.218C19 15.53 19 14.736 19 13.6v-3.2c0-1.136 0-1.929-.05-2.546-.05-.605-.143-.953-.277-1.216a3 3 0 0 0-1.31-1.31c-.264-.135-.612-.228-1.218-.277C15.53 5 14.736 5 13.6 5h-3.2c-1.136 0-1.929 0-2.546.05-.605.05-.953.143-1.216.277a3 3 0 0 0-1.31 1.31c-.135.264-.228.612-.277 1.217C5 8.471 5 9.264 5 10.4V12H3v-1.643c0-1.083 0-1.958.058-2.666.06-.728.185-1.368.487-1.96A5 5 0 0 1 5.73 3.544c.593-.302 1.233-.428 1.961-.487C8.4 3 9.274 3 10.357 3zM5 19h4v-4H5z"/></svg>