<svg width="24" height="24" viewBox="0 0 24 24" fill="none" xmlns="http://www.w3.org/2000/svg">
<path fill-rule="evenodd" clip-rule="evenodd" d="M2 12.0001C2 6.50012 6.5 2.00012 12 2.00012C17.5 2.00012 22 6.50012 22 12.0001C22 17.5001 17.5 22.0001 12 22.0001C6.5 22.0001 2 17.5001 2 12.0001ZM11 8C11 7.44772 11.4477 7 12 7C12.5523 7 13 7.44772 13 8V11H16C16.5523 11 17 11.4477 17 12C17 12.5523 16.5523 13 16 13H13V16C13 16.5523 12.5523 17 12 17C11.4477 17 11 16.5523 11 16V13H8C7.44772 13 7 12.5523 7 12C7 11.4477 7.44772 11 8 11H11V8Z" fill="#313234"/>
</svg>
