<svg xmlns="http://www.w3.org/2000/svg" width="24" height="24" fill="none" viewBox="0 0 24 24"><path fill="#313234" fill-rule="evenodd" d="M6.109 3.546C6 3.76 6 4.04 6 4.6V7h-.6c-.84 0-1.26 0-1.581.163a1.5 1.5 0 0 0-.656.656C3 8.139 3 8.559 3 9.4v5.2c0 .84 0 1.26.163 1.581a1.5 1.5 0 0 0 .656.656c.32.163.74.163 1.581.163H6v2.4c0 .56 0 .84.109 1.054a1 1 0 0 0 .437.437C6.76 21 7.04 21 7.6 21h8.8c.56 0 .84 0 1.054-.109a1 1 0 0 0 .437-.437C18 20.24 18 19.96 18 19.4V17h.6c.84 0 1.26 0 1.581-.163a1.5 1.5 0 0 0 .656-.656c.163-.32.163-.74.163-1.581V9.4c0-.84 0-1.26-.163-1.581a1.5 1.5 0 0 0-.656-.656C19.861 7 19.441 7 18.6 7H18V4.6c0-.56 0-.84-.109-1.054a1 1 0 0 0-.437-.437C17.24 3 16.96 3 16.4 3H7.6c-.56 0-.84 0-1.054.109a1 1 0 0 0-.437.437M16 5H8v2h8zm0 9H8v5h8zm0-3a1 1 0 1 1 2 0 1 1 0 0 1-2 0" clip-rule="evenodd" style="fill:#313234;fill:color(display-p3 .1922 .1961 .2039);fill-opacity:1"/></svg>