<svg xmlns="http://www.w3.org/2000/svg" width="24" height="24" fill="none" viewBox="0 0 24 24"><path fill="#313234" fill-rule="evenodd" d="M7 5a4 4 0 1 1 8 0c.459 0 .86.003 1.195.03.395.033.789.104 1.167.297a3 3 0 0 1 1.311 1.311c.193.378.264.772.296 1.167.028.336.03.736.031 1.195a4 4 0 0 1 0 8c0 .459-.003.86-.03 1.195-.033.395-.104.789-.297 1.167a3 3 0 0 1-1.311 1.311c-.378.193-.772.264-1.167.296-.375.031-.83.031-1.356.031h-1.634c-.335 0-.503 0-.62-.069a.5.5 0 0 1-.22-.268c-.044-.13-.01-.294.056-.622l.049-.24q.03-.145.03-.301a1.5 1.5 0 1 0-2.97.301l.049.24c.066.328.1.493.056.622a.5.5 0 0 1-.22.268C9.298 21 9.13 21 8.795 21H7.16c-.527 0-.981 0-1.356-.03-.395-.033-.789-.104-1.167-.297a3 3 0 0 1-1.311-1.311c-.193-.378-.264-.772-.296-1.167A18 18 0 0 1 3 16.838v-1.633c0-.335 0-.503.069-.62a.5.5 0 0 1 .268-.22c.13-.044.293-.01.622.056l.24.049q.144.03.301.03a1.5 1.5 0 1 0-.301-2.97l-.24.049c-.329.066-.493.1-.622.056a.5.5 0 0 1-.268-.22C3 11.298 3 11.13 3 10.795V9.16c0-.527 0-.981.03-1.356.033-.395.104-.789.297-1.167a3 3 0 0 1 1.311-1.311c.378-.193.772-.264 1.167-.296C6.141 5.003 6.541 5 7 5m4-2a2 2 0 0 0-1.886 2.667l.094.266c.127.36.19.54.156.683a.5.5 0 0 1-.215.304C9.025 7 8.835 7 8.454 7H7.2c-.577 0-.949 0-1.232.024-.272.022-.373.06-.422.085a1 1 0 0 0-.437.437c-.025.05-.063.15-.085.422C5 8.25 5 8.623 5 9.2v.335a3.5 3.5 0 0 1 0 6.93v.335c0 .577 0 .949.024 1.232.022.272.06.372.085.422a1 1 0 0 0 .437.437c.05.025.15.063.422.085C6.25 19 6.623 19 7.2 19h.335a3.5 3.5 0 0 1 6.93 0h.335c.577 0 .949 0 1.232-.024.272-.022.372-.06.422-.085a1 1 0 0 0 .437-.437c.025-.05.063-.15.085-.422C17 17.75 17 17.377 17 16.8v-1.254c0-.38 0-.571.08-.695a.5.5 0 0 1 .304-.215c.144-.034.323.03.683.156l.266.095q.313.111.667.113a2 2 0 1 0-.667-3.886l-.266.094c-.36.127-.54.19-.683.156a.5.5 0 0 1-.304-.215c-.08-.124-.08-.314-.08-.695V9.2c0-.577 0-.949-.024-1.232-.022-.272-.06-.373-.085-.422a1 1 0 0 0-.437-.437c-.05-.025-.15-.063-.422-.085C15.75 7 15.377 7 14.8 7h-1.254c-.38 0-.571 0-.695-.08a.5.5 0 0 1-.215-.304c-.034-.144.03-.323.156-.683l.095-.266Q12.998 5.355 13 5a2 2 0 0 0-2-2" clip-rule="evenodd" style="fill:#313234;fill:color(display-p3 .1922 .1961 .2039);fill-opacity:1"/></svg>