<svg xmlns="http://www.w3.org/2000/svg" width="24" height="24" fill="none" viewBox="0 0 24 24"><path fill="#313234" fill-rule="evenodd" d="M5 5h4v4H5zM3 5a2 2 0 0 1 2-2h4a2 2 0 0 1 2 2v4a2 2 0 0 1-2 2H5a2 2 0 0 1-2-2zm2 10h4v4H5zm-2 0a2 2 0 0 1 2-2h4a2 2 0 0 1 2 2v4a2 2 0 0 1-2 2H5a2 2 0 0 1-2-2zM19 5h-4v4h4zm-4-2a2 2 0 0 0-2 2v4a2 2 0 0 0 2 2h4a2 2 0 0 0 2-2V5a2 2 0 0 0-2-2zm-.5 10a1.5 1.5 0 1 0 0 3 1.5 1.5 0 0 0 0-3m1 4a1.5 1.5 0 1 1 3 0 1.5 1.5 0 0 1-3 0m-1 1a1.5 1.5 0 1 0 0 3 1.5 1.5 0 0 0 0-3m3.5-3.5a1.5 1.5 0 1 1 3 0 1.5 1.5 0 0 1-3 0m1.5 3.5a1.5 1.5 0 1 0 0 3 1.5 1.5 0 0 0 0-3" clip-rule="evenodd"/></svg>