<svg xmlns="http://www.w3.org/2000/svg" width="24" height="24" fill="none" viewBox="0 0 24 24"><path fill="#313234" d="M9 13a2 2 0 0 1 2 2v4a2 2 0 0 1-2 2H5a2 2 0 0 1-2-2v-4a2 2 0 0 1 2-2zm5.5 5a1.5 1.5 0 1 1 0 3 1.5 1.5 0 0 1 0-3m5 0a1.5 1.5 0 1 1 0 3 1.5 1.5 0 0 1 0-3M5 19h4v-4H5zm12-3.5a1.5 1.5 0 1 1 0 3 1.5 1.5 0 0 1 0-3M14.5 13a1.5 1.5 0 1 1 0 3 1.5 1.5 0 0 1 0-3m5 0a1.5 1.5 0 1 1 0 3 1.5 1.5 0 0 1 0-3M9 3a2 2 0 0 1 2 2v4a2 2 0 0 1-2 2H5a2 2 0 0 1-2-2V5a2 2 0 0 1 2-2zm10 0a2 2 0 0 1 2 2v4a2 2 0 0 1-2 2h-4a2 2 0 0 1-2-2V5a2 2 0 0 1 2-2zM5 9h4V5H5zm10 0h4V5h-4z"/></svg>