<svg xmlns="http://www.w3.org/2000/svg" width="24" height="24" fill="none" viewBox="0 0 24 24"><path fill="#313234" fill-rule="evenodd" d="M11.496 5.067c0 .626-.511 1.122-1.127 1.235a6.24 6.24 0 0 0-4.616 3.708A3 3 0 0 1 6 10h2a3 3 0 0 1 3 3v2a3 3 0 0 1-3 3H6a3 3 0 0 1-3-3v-2.57c0-4.309 3.208-7.869 7.366-8.421.62-.083 1.13.432 1.13 1.058m9.5 0c0 .626-.511 1.122-1.127 1.235a6.24 6.24 0 0 0-4.616 3.708A3 3 0 0 1 15.5 10h2a3 3 0 0 1 3 3v2a3 3 0 0 1-3 3h-2a3 3 0 0 1-3-3v-2.57c0-4.309 3.208-7.869 7.366-8.421.62-.083 1.13.432 1.13 1.058" clip-rule="evenodd" style="fill:#313234;fill:color(display-p3 .1922 .1961 .2039);fill-opacity:1"/></svg>