<svg width="24" height="24" viewBox="0 0 24 24" fill="none" xmlns="http://www.w3.org/2000/svg">
<path fill-rule="evenodd" clip-rule="evenodd" d="M13.994 18.882L15.997 19.882L17 19.382V4L7 4.001V19.383L7.997 19.882L9.995 18.882L11.995 19.882L13.994 18.882ZM7.997 22.118L5 20.617V3.5C5 2.672 5.672 2 6.5 2L17.5 2.001C18.329 2.001 19 2.673 19 3.501V20.618L15.997 22.118L13.995 21.118L11.995 22.118L9.995 21.118L7.997 22.118ZM9 11C9 10.4477 9.44772 10 10 10H14C14.5523 10 15 10.4477 15 11C15 11.5523 14.5523 12 14 12H10C9.44772 12 9 11.5523 9 11ZM10 6C9.44772 6 9 6.44772 9 7C9 7.55228 9.44772 8 10 8H14C14.5523 8 15 7.55228 15 7C15 6.44772 14.5523 6 14 6H10Z" fill="#313234"/>
</svg>
