<svg xmlns="http://www.w3.org/2000/svg" width="24" height="24" fill="none" viewBox="0 0 24 24"><path fill="#313234" fill-rule="evenodd" d="M21 12c-.552 0-.993.45-1.062.998C19.445 16.94 16.073 20 12 20c-4.411 0-8-3.589-8-8s3.589-8 8-8c2.117 0 4.107.819 5.613 2.303L15.52 8.396a.5.5 0 0 0 .353.854H21.5a.5.5 0 0 0 .5-.5V3.123a.5.5 0 0 0-.854-.353l-2.119 2.119A9.93 9.93 0 0 0 12 2C6.486 2 2 6.486 2 12s4.486 10 10 10c5.177 0 9.448-3.954 9.95-9.001.055-.55-.398-.999-.95-.999" clip-rule="evenodd"/></svg>