<svg xmlns="http://www.w3.org/2000/svg" width="24" height="24" fill="none" viewBox="0 0 24 24"><path fill="#313234" fill-rule="evenodd" d="M18.275 10.097a.313.313 0 0 1-.313.313H14.43a.313.313 0 0 1-.22-.535l1.313-1.314A4.99 4.99 0 0 0 12 7.114a5.03 5.03 0 0 0-5.023 5.023A5.03 5.03 0 0 0 12 17.16a5.03 5.03 0 0 0 5.023-5.022h1.25A6.28 6.28 0 0 1 12 18.41a6.28 6.28 0 0 1-6.273-6.272A6.28 6.28 0 0 1 12 5.864a6.23 6.23 0 0 1 4.408 1.812l1.331-1.332a.314.314 0 0 1 .536.222zM12 2C6.477 2 2 6.477 2 12s4.477 10 10 10 10-4.478 10-10S17.523 2 12 2" clip-rule="evenodd"/></svg>