<svg xmlns="http://www.w3.org/2000/svg" width="24" height="24" fill="none" viewBox="0 0 24 24"><path fill="#313234" d="M14 3.931V6H7a5 5 0 0 0-5 5v4a1 1 0 1 0 2 0v-4a3 3 0 0 1 3-3h7v2.069a.8.8 0 0 0 1.366.565l2.927-2.927a1 1 0 0 0 0-1.414l-2.927-2.927A.8.8 0 0 0 14 3.93" style="fill:#313234;fill:color(display-p3 .1922 .1961 .2039);fill-opacity:1"/><path fill="#313234" d="M10 16v-2.069a.8.8 0 0 0-1.366-.566l-2.927 2.928a1 1 0 0 0 0 1.414l2.927 2.927A.8.8 0 0 0 10 20.068V18h7a5 5 0 0 0 5-5V9a1 1 0 1 0-2 0v4a3 3 0 0 1-3 3z" style="fill:#313234;fill:color(display-p3 .1922 .1961 .2039);fill-opacity:1"/></svg>