<svg xmlns="http://www.w3.org/2000/svg" width="24" height="24" fill="none" viewBox="0 0 24 24"><path fill="#313234" fill-rule="evenodd" d="M12.003 2.218a9.93 9.93 0 0 0-7.027 2.889l-2.119-2.12a.5.5 0 0 0-.854.354v5.627a.5.5 0 0 0 .5.5H8.13a.5.5 0 0 0 .353-.854L6.39 6.52a7.94 7.94 0 0 1 5.613-2.303c4.411 0 8 3.589 8 8s-3.589 8-8 8c-4.073 0-7.445-3.06-7.938-7.002-.068-.548-.51-.998-1.062-.998s-1.005.449-.95.999c.502 5.046 4.773 9 9.95 9 5.514 0 10-4.485 10-10 0-5.513-4.486-10-10-10" clip-rule="evenodd"/></svg>