<svg xmlns="http://www.w3.org/2000/svg" width="24" height="24" fill="none" viewBox="0 0 24 24"><path fill="#313234" fill-rule="evenodd" d="m7.757 20.485-4.243-4.243 1.415-1.414L7.05 16.95l1.414-1.414-2.12-2.12L7.756 12l1.414 1.414L10.586 12 9.17 10.586l1.415-1.415 1.415 1.414 1.414-1.414L12 7.757l1.414-1.415 2.12 2.122L16.95 7.05l-2.121-2.122 1.413-1.414 4.243 4.243zM22.254 6.696l-4.95-4.949a1.5 1.5 0 0 0-1.061-.44h-.002a1.5 1.5 0 0 0-1.059.44L1.747 15.182a1.5 1.5 0 0 0 0 2.121l4.95 4.95c.292.292.676.438 1.06.438s.768-.146 1.061-.438L22.254 8.818a1.5 1.5 0 0 0 0-2.122" clip-rule="evenodd"/></svg>