<svg xmlns="http://www.w3.org/2000/svg" width="24" height="24" fill="none" viewBox="0 0 24 24"><path fill="#313234" d="M7.086 11.639 8.5 10.225l2.36 2.361 4.726-4.725L17 9.275l-6.14 6.14z" style="fill:#313234;fill:color(display-p3 .1922 .1961 .2039);fill-opacity:1"/><path fill="#313234" fill-rule="evenodd" d="m21 5.307-9-3.375-9 3.375V10c0 4.669 2.638 8.937 6.814 11.025L12 22.118l2.186-1.093A12.33 12.33 0 0 0 21 10zM5 10V6.693l7-2.625 7 2.625V10c0 3.911-2.21 7.487-5.708 9.236L12 19.882l-1.292-.646A10.33 10.33 0 0 1 5 10" clip-rule="evenodd" style="fill:#313234;fill:color(display-p3 .1922 .1961 .2039);fill-opacity:1"/></svg>