<svg xmlns="http://www.w3.org/2000/svg" width="24" height="24" fill="none" viewBox="0 0 24 24"><path fill="#313234" d="M17 13a5 5 0 1 1 0 10 5 5 0 0 1 0-10m3.919-7.99a1 1 0 0 1 .866 1.5l-3.28 5.68a6 6 0 0 0-5.784 10.014.995.995 0 0 1-.96.447 1 1 0 0 1-.84-.72L8.746 14.21l9.323-6.148-.35-.607-9.97 5.021-5.55-5.772a1 1 0 0 1 .72-1.694zM15.716 20.7c.39.187.822.3 1.284.3 1.654 0 3-1.345 3-3 0-.461-.114-.893-.3-1.283zm1.284-5.7c-1.654 0-3 1.347-3 3 0 .463.114.895.302 1.286l3.983-3.983A2.96 2.96 0 0 0 17 15"/></svg>