<svg xmlns="http://www.w3.org/2000/svg" width="24" height="24" fill="none" viewBox="0 0 24 24"><path fill="#313234" d="M21 5q.123.002.24.032.01 0 .02.002a1 1 0 0 1 .302.148q.036.024.07.052c.089.074.17.158.23.26l.003.004.001.001V5.5c.06.104.091.217.111.331q.008.045.012.088a1 1 0 0 1-.123.581l-3.818 6.614A5 5 0 0 1 22 18a5 5 0 0 1-5 5 4.97 4.97 0 0 1-3.7-1.663l-.47.813a1 1 0 0 1-.99.492 1 1 0 0 1-.838-.721l-2.453-8.706-6.27-6.522A1 1 0 0 1 3 5zm-5.285 15.7c.39.186.823.3 1.285.3 1.654 0 3-1.346 3-3 0-.462-.114-.894-.301-1.285zM17 15c-1.654 0-3 1.346-3 3 0 .462.113.894.3 1.285l3.985-3.984C17.894 15.113 17.46 15 17 15m-6.383-1.822 1.396 4.957c-.002-.046-.013-.09-.013-.135 0-2.306 1.57-4.227 3.691-4.805l2.57-4.45zm-.996-1.735L17.283 7H5.347z"/></svg>