<svg xmlns="http://www.w3.org/2000/svg" width="24" height="24" fill="none" viewBox="0 0 24 24"><path fill="#313234" fill-rule="evenodd" d="M12 18q.001.038.007.073.005.03.007.062l-1.397-4.957 7.644-4.433-2.57 4.45C13.569 13.773 12 15.694 12 18M5.348 7h11.935l-7.662 4.443zm12.7 6.114L21.866 6.5a1 1 0 0 0 .112-.669 1 1 0 0 0-.112-.331v-.001l-.001-.001-.002-.003-.002-.002a1 1 0 0 0-.229-.259l-.01-.008q-.03-.023-.06-.044a1 1 0 0 0-.314-.15h-.008A1 1 0 0 0 21 5H3a1 1 0 0 0-.721 1.693l6.27 6.522 2.453 8.706a1 1 0 0 0 1.829.229l.469-.813A4.97 4.97 0 0 0 17 23a5 5 0 0 0 5-5 5 5 0 0 0-3.952-4.886M17 21c-.462 0-.894-.114-1.285-.3l3.984-3.985c.187.391.301.823.301 1.285 0 1.654-1.346 3-3 3m1.285-5.699a2.95 2.95 0 0 0-1.285-.3c-1.654 0-3 1.345-3 3 0 .461.113.893.301 1.284z" clip-rule="evenodd"/></svg>