<svg xmlns="http://www.w3.org/2000/svg" width="24" height="24" fill="none" viewBox="0 0 24 24"><path fill="#313234" fill-rule="evenodd" d="M7 12a5 5 0 1 1 10 0 5 5 0 0 1-10 0m15 1.5v-3l-2.23-.372a8 8 0 0 0-.955-2.296l1.316-1.843-2.12-2.12-1.844 1.316a8 8 0 0 0-2.295-.955L13.5 2h-3l-.372 2.23a8 8 0 0 0-2.296.955L5.99 3.868 3.87 5.99l1.315 1.843a8 8 0 0 0-.954 2.296L2 10.5v3l2.23.372c.198.822.523 1.594.954 2.296l-1.316 1.843 2.121 2.121 1.843-1.317a8 8 0 0 0 2.296.955L10.5 22h3l.372-2.23a8 8 0 0 0 2.295-.955l1.843 1.317 2.121-2.12-1.316-1.844a8 8 0 0 0 .955-2.296z" clip-rule="evenodd"/></svg>