<svg width="24" height="24" viewBox="0 0 24 24" fill="none" xmlns="http://www.w3.org/2000/svg">
<path d="M3 9C2.44772 9 2 8.55228 2 8C2 7.44772 2.44772 7 3 7H4.576C5.04486 4.69319 7.07998 3 9.47521 3H17.4137C20.3937 3 22.7122 5.59033 22.3831 8.55216L21.4942 16.5522C21.2129 19.0843 19.0725 21 16.5248 21H8.58632C6.14333 21 4.14497 19.2592 3.68533 17H2C1.44772 17 1 16.5523 1 16C1 15.4477 1.44772 15 2 15H9C9.55229 15 10 14.5523 10 14C10 13.4477 9.55229 13 9 13H2.5C1.94772 13 1.5 12.5523 1.5 12C1.5 11.4477 1.94772 11 2.5 11H12C12.5523 11 13 10.5523 13 10C13 9.44772 12.5523 9 12 9H3Z" fill="#313234"/>
</svg>
