<svg xmlns="http://www.w3.org/2000/svg" width="24" height="24" fill="none" viewBox="0 0 24 24"><path fill="#313234" d="M6.702 7H11a1 1 0 1 1 0 2H3a1 1 0 0 1 0-2h1.632a5 5 0 0 1 4.9-4h7.937a5 5 0 0 1 4.961 5.62l-1 8A5 5 0 0 1 16.47 21H8.53a5 5 0 0 1-4.9-4H2a1 1 0 1 1 0-2h4a1 1 0 1 1 0 2h-.299c.41 1.154 1.511 2 2.83 2h7.938a3 3 0 0 0 2.977-2.628l1-8A3 3 0 0 0 17.469 5H9.53a3 3 0 0 0-2.829 2" style="fill:#313234;fill:color(display-p3 .1922 .1961 .2039);fill-opacity:1"/><path fill="#313234" d="M8 13H2.5a1 1 0 1 1 0-2H8a1 1 0 1 1 0 2" style="fill:#313234;fill:color(display-p3 .1922 .1961 .2039);fill-opacity:1"/></svg>