<svg width="24" height="24" viewBox="0 0 24 24" fill="none" xmlns="http://www.w3.org/2000/svg">
<path d="M6.70225 7H11C11.5523 7 12 7.44772 12 8C12 8.55228 11.5523 9 11 9H3C2.44772 9 2 8.55228 2 8C2 7.44772 2.44772 7 3 7H4.63197C5.10168 4.69005 7.13881 3 9.53112 3H17.4689C20.4764 3 22.8033 5.63591 22.4303 8.62017L21.4303 16.6202C21.1175 19.1223 18.9905 21 16.4689 21H8.53112C6.08467 21 4.08994 19.2569 3.63035 17H2C1.44772 17 1 16.5523 1 16C1 15.4477 1.44772 15 2 15H6C6.55228 15 7 15.4477 7 16C7 16.5523 6.55228 17 6 17H5.7011C6.11028 18.1542 7.21219 19 8.53112 19H16.4689C17.9818 19 19.258 17.8734 19.4457 16.3721L20.4457 8.3721C20.6695 6.58154 19.2734 5 17.4689 5H9.53112C8.23781 5 7.11751 5.82322 6.70225 7Z" fill="#313234"/>
<path d="M8 13L2.5 13C1.94772 13 1.5 12.5523 1.5 12C1.5 11.4477 1.94772 11 2.5 11L8 11C8.55228 11 9 11.4477 9 12C9 12.5523 8.55228 13 8 13Z" fill="#313234"/>
</svg>
