<svg xmlns="http://www.w3.org/2000/svg" width="24" height="24" fill="none" viewBox="0 0 24 24"><path fill="#313234" fill-rule="evenodd" d="M16 5a4 4 0 0 0-8 0v2H4.5A1.5 1.5 0 0 0 3 8.5v8A4.5 4.5 0 0 0 7.5 21h9a4.5 4.5 0 0 0 4.5-4.5v-8A1.5 1.5 0 0 0 19.5 7H16zm-2 2V5a2 2 0 0 0-1.85-1.995L12 3a2 2 0 0 0-1.995 1.85L10 5v2zM8 9H5v7.5a2.5 2.5 0 0 0 2.336 2.495L7.5 19h9a2.5 2.5 0 0 0 2.495-2.336L19 16.5V9H8m1 3a1 1 0 1 0 0-2 1 1 0 0 0 0 2m6 0a1 1 0 1 0 0-2 1 1 0 0 0 0 2" clip-rule="evenodd" style="fill:#313234;fill:color(display-p3 .1922 .1961 .2039);fill-opacity:1"/></svg>