<svg xmlns="http://www.w3.org/2000/svg" width="24" height="24" fill="none" viewBox="0 0 24 24"><path fill="#313234" d="M4.929 4.929a1 1 0 0 1 1.414 1.414 8 8 0 0 0 0 11.313 1 1 0 0 1-1.414 1.414c-3.905-3.905-3.905-10.236 0-14.141m12.728 0a1 1 0 0 1 1.414 0c3.905 3.905 3.905 10.236 0 14.141a1 1 0 1 1-1.414-1.414 8 8 0 0 0 0-11.313 1 1 0 0 1 0-1.414m-9.9 2.828A1 1 0 0 1 9.173 9.17a4 4 0 0 0 0 5.657 1 1 0 0 1-1.414 1.414 6 6 0 0 1 0-8.485m7.071 0a1 1 0 0 1 1.414 0 6 6 0 0 1 0 8.485 1 1 0 0 1-1.414-1.414 4 4 0 0 0 0-5.657 1 1 0 0 1 0-1.414M12 10a2 2 0 1 1 0 4 2 2 0 0 1 0-4"/></svg>