<svg xmlns="http://www.w3.org/2000/svg" width="24" height="24" fill="none" viewBox="0 0 24 24"><path fill="#313234" d="M18.5 12a2.5 2.5 0 0 1 2.5 2.5v.586a1.5 1.5 0 0 1 1 1.414v3a1.5 1.5 0 0 1-1.5 1.5h-4a1.5 1.5 0 0 1-1.5-1.5v-3a1.5 1.5 0 0 1 1-1.414V14.5a2.5 2.5 0 0 1 2.5-2.5M4.929 4.93a1 1 0 0 1 1.414 1.414 8 8 0 0 0 0 11.313 1 1 0 0 1-1.414 1.414c-3.905-3.905-3.905-10.236 0-14.141m2.829 2.828A1 1 0 0 1 9.172 9.17a4 4 0 0 0 0 5.657 1 1 0 0 1-1.414 1.414 6 6 0 0 1 0-8.485M18.5 13.5a1 1 0 0 0-1 1v.5h2v-.5a1 1 0 0 0-1-1M12 10a2 2 0 1 1 0 4 2 2 0 0 1 0-4m2.828-2.247a1 1 0 0 1 1.414 0 6 6 0 0 1 1.26 1.848 1 1 0 0 1-1.833.797 4 4 0 0 0-.84-1.23 1 1 0 0 1 0-1.415m2.83-2.82a1 1 0 0 1 1.413 0 9.96 9.96 0 0 1 2.679 4.845 1 1 0 1 1-1.95.444 7.96 7.96 0 0 0-2.143-3.875 1 1 0 0 1 0-1.414"/></svg>