<svg xmlns="http://www.w3.org/2000/svg" width="24" height="24" fill="none" viewBox="0 0 24 24"><path fill="#313234" fill-rule="evenodd" d="M15.5 11.4c.4.3.4.9 0 1.2l-10 7.5a.75.75 0 0 1-1.2-.6v-15a.75.75 0 0 1 1.2-.6z" clip-rule="evenodd" style="fill:#313234;fill:color(display-p3 .1922 .1961 .2039);fill-opacity:1"/><path fill="#313234" d="M16.3 4.2a.6.6 0 0 1 .6-.6h2.2a.6.6 0 0 1 .6.6v15.6a.6.6 0 0 1-.6.6h-2.2a.6.6 0 0 1-.6-.6z" style="fill:#313234;fill:color(display-p3 .1922 .1961 .2039);fill-opacity:1"/></svg>