<svg xmlns="http://www.w3.org/2000/svg" width="24" height="24" fill="none" viewBox="0 0 24 24"><path fill="#313234" fill-rule="evenodd" d="M15.3 4.2a1.6 1.6 0 0 1 1.6-1.6h2.2a1.6 1.6 0 0 1 1.6 1.6v15.6a1.6 1.6 0 0 1-1.6 1.6h-2.2a1.6 1.6 0 0 1-1.6-1.6V14l-8 6c-1.648 1.236-4 .06-4-2V6c0-2.06 2.352-3.236 4-2l8 6zm2 .4v14.8h1.4V4.6zm-11.2 1a.5.5 0 0 0-.8.4v12a.5.5 0 0 0 .8.4l8-6a.5.5 0 0 0 0-.8z" clip-rule="evenodd" style="fill:#313234;fill:color(display-p3 .1922 .1961 .2039);fill-opacity:1"/></svg>