<svg xmlns="http://www.w3.org/2000/svg" width="24" height="24" fill="none" viewBox="0 0 24 24"><path fill="#313234" fill-rule="evenodd" d="M21.5 12c0 4.418-4.253 8-9.5 8q-1.035-.002-2.008-.179c-1.416 1.211-3.053 1.791-4.113 2.06-.422.106-.718-.364-.497-.739.388-.659.865-1.595 1.143-2.604C4.09 17.09 2.5 14.701 2.5 12c0-4.418 4.253-8 9.5-8s9.5 3.582 9.5 8M6 12c0 .825.676 1.5 1.5 1.5.826 0 1.501-.675 1.501-1.5s-.675-1.5-1.5-1.5S6 11.175 6 12m4.5 0c0 .825.676 1.5 1.5 1.5.826 0 1.501-.675 1.501-1.5s-.675-1.5-1.5-1.5-1.501.675-1.501 1.5m6 1.5c-.824 0-1.5-.675-1.5-1.5s.676-1.5 1.5-1.5c.826 0 1.501.675 1.501 1.5s-.675 1.5-1.5 1.5" clip-rule="evenodd"/></svg>