<svg xmlns="http://www.w3.org/2000/svg" width="24" height="24" fill="none" viewBox="0 0 24 24"><path fill="#313234" d="M12 4c5.247 0 9.5 3.582 9.5 8s-4.253 8-9.5 8c-.69 0-1.363-.064-2.012-.182-1.416 1.21-3.05 1.794-4.11 2.062-.42.107-.716-.362-.496-.737.388-.66.863-1.599 1.14-2.609C4.09 17.086 2.5 14.7 2.5 12c0-4.418 4.253-8 9.5-8m-4.499 6.5c-.825 0-1.5.675-1.501 1.499 0 .826.676 1.501 1.501 1.501.826 0 1.5-.675 1.5-1.501 0-.824-.675-1.499-1.5-1.499m4.5 0c-.824 0-1.5.675-1.501 1.499 0 .826.676 1.501 1.501 1.501s1.5-.675 1.5-1.501c0-.824-.675-1.499-1.5-1.499m4.5 0c-.825 0-1.5.675-1.501 1.499 0 .826.676 1.501 1.501 1.501s1.5-.675 1.5-1.501c0-.824-.675-1.499-1.5-1.499"/></svg>