<svg width="24" height="24" viewBox="0 0 24 24" fill="none" xmlns="http://www.w3.org/2000/svg">
<path fill-rule="evenodd" clip-rule="evenodd" d="M6.34314 2.12132C6.73366 1.7308 6.73366 1.09763 6.34314 0.707108C5.95261 0.316584 5.31945 0.316584 4.92892 0.707108L2.1005 3.53554C1.70997 3.92606 1.70997 4.55922 2.1005 4.94975C2.49102 5.34027 3.12418 5.34027 3.51471 4.94975L6.34314 2.12132ZM19.0711 0.707119C18.6805 0.316594 18.0474 0.316595 17.6569 0.707119C17.2663 1.09764 17.2663 1.73081 17.6569 2.12133L20.4853 4.94976C20.8758 5.34028 21.509 5.34028 21.8995 4.94976C22.29 4.55924 22.29 3.92607 21.8995 3.53555L19.0711 0.707119ZM12 21.999C6.4846 21.999 2 17.5144 2 11.999C2 6.48443 6.48477 2 12 2C17.5152 2 22 6.48443 22 11.999C22 17.5144 17.5154 21.999 12 21.999ZM14 7C14 6.44771 13.5523 6 13 6C12.4477 6 12 6.44772 12 7V11.927C12 12.3023 12.2102 12.646 12.5442 12.8171L15.7281 14.4473C16.2197 14.6991 16.8223 14.5046 17.074 14.013C17.3257 13.5214 17.1312 12.9188 16.6397 12.6671L14 11.3156V7Z" fill="#313234"/>
</svg>
