<svg xmlns="http://www.w3.org/2000/svg" width="24" height="24" fill="none" viewBox="0 0 24 24"><path fill="#313234" d="M12 2.02c5.523 0 10 4.478 10 10s-4.477 10-10 10-10-4.477-10-10 4.477-10 10-10m0 2a8 8 0 1 0 0 16 8 8 0 0 0 0-16m0 2a1 1 0 0 1 1 1v4.316l2.64 1.351a1 1 0 0 1-.912 1.78l-3.184-1.63a1 1 0 0 1-.544-.89V7.021a1 1 0 0 1 1-1M4.929.708a1 1 0 0 1 1.414 1.414L3.514 4.95A1 1 0 1 1 2.1 3.535zm12.728 0a1 1 0 0 1 1.414 0L21.9 3.535a1 1 0 0 1-1.414 1.414l-2.828-2.828a1 1 0 0 1 0-1.414"/></svg>