<svg xmlns="http://www.w3.org/2000/svg" width="24" height="24" fill="none" viewBox="0 0 24 24"><path fill="#313234" d="M15.804 13.236 12 15.999l-3.804-2.764 1.453-4.472h4.702z" style="fill:#313234;fill:color(display-p3 .1922 .1961 .2039);fill-opacity:1"/><path fill="#313234" fill-rule="evenodd" d="M12 22a9.96 9.96 0 0 1-6.649-2.531 10 10 0 0 1-1.694-1.955A9.95 9.95 0 0 1 2 12q.002-1.036.203-2.014A9.989 9.989 0 0 1 4.09 5.88a10.03 10.03 0 0 1 4.447-3.264A10 10 0 0 1 12 2q.48 0 .95.044a10 10 0 0 1 2.512.571A10 10 0 0 1 22 12c0 5.523-4.478 10-10 10m-5.706-8.027-2.29-2.232c.047-1.47.49-2.839 1.226-4.005l3.243-.471 1.481-3.001A8 8 0 0 1 12.001 4c.706 0 1.392.091 2.045.263l1.48 3.002 3.245.47a7.96 7.96 0 0 1 1.225 4.006l-2.29 2.232.523 3.048a8 8 0 0 1-3.535 2.514L12 18.119l-2.694 1.416c-1.4-.5-2.62-1.38-3.535-2.515z" clip-rule="evenodd" style="fill:#313234;fill:color(display-p3 .1922 .1961 .2039);fill-opacity:1"/></svg>