<svg xmlns="http://www.w3.org/2000/svg" width="24" height="24" fill="none" viewBox="0 0 24 24"><path fill="#313234" fill-rule="evenodd" d="M3.016 5a1 1 0 0 0 1 1h16a1 1 0 1 0 0-2h-16a1 1 0 0 0-1 1M3 12a1 1 0 0 0 1 1h9a1 1 0 1 0 0-2H4a1 1 0 0 0-1 1m1.016 8a1 1 0 1 1 0-2h5a1 1 0 1 1 0 2zm14.999-2.208 2.535-2.535 1.414 1.414-3.89 3.89a1.5 1.5 0 0 1-1.06.438c-.384 0-.768-.146-1.06-.439l-3.89-3.889 1.415-1.414 2.536 2.537.004-7.795 2 .001z" clip-rule="evenodd" style="fill:#313234;fill:color(display-p3 .1922 .1961 .2039);fill-opacity:1"/></svg>