<svg width="24" height="24" viewBox="0 0 24 24" fill="none" xmlns="http://www.w3.org/2000/svg">
<path fill-rule="evenodd" clip-rule="evenodd" d="M5 4C3.34315 4 2 5.34315 2 7V17C2 18.6569 3.34315 20 5 20H19C20.6569 20 22 18.6569 22 17V7C22 5.34315 20.6569 4 19 4H5ZM19 6H5C4.44772 6 4 6.44772 4 7V17C4 17.5523 4.44772 18 5 18H19C19.5523 18 20 17.5523 20 17V7C20 6.44771 19.5523 6 19 6ZM7 15V9H11V15H7ZM5 8C5 7.44772 5.44772 7 6 7H12C12.5523 7 13 7.44772 13 8V16C13 16.5523 12.5523 17 12 17H6C5.44772 17 5 16.5523 5 16V8Z" fill="#313234"/>
</svg>
