<svg width="24" height="24" viewBox="0 0 24 24" fill="none" xmlns="http://www.w3.org/2000/svg">
<path fill-rule="evenodd" clip-rule="evenodd" d="M5 6H19C19.5523 6 20 6.44771 20 7V17C20 17.5523 19.5523 18 19 18H5C4.44772 18 4 17.5523 4 17V7C4 6.44772 4.44772 6 5 6ZM2 7C2 5.34315 3.34315 4 5 4H19C20.6569 4 22 5.34315 22 7V17C22 18.6569 20.6569 20 19 20H5C3.34315 20 2 18.6569 2 17V7ZM13 15V9H17V15H13ZM11 8C11 7.44772 11.4477 7 12 7H18C18.5523 7 19 7.44772 19 8V16C19 16.5523 18.5523 17 18 17H12C11.4477 17 11 16.5523 11 16V8Z" fill="#313234"/>
</svg>
