<svg xmlns="http://www.w3.org/2000/svg" width="24" height="24" fill="none" viewBox="0 0 24 24"><path fill="#313234" d="M17.916 10.865c-3.224-1.914-8.54-2.09-11.618-1.156a.935.935 0 1 1-.543-1.79c3.532-1.072 9.404-.865 13.115 1.337a.935.935 0 1 1-.955 1.61M17.81 13.7a.78.78 0 0 1-1.073.257c-2.687-1.652-6.785-2.13-9.964-1.165a.78.78 0 0 1-.973-.52.78.78 0 0 1 .52-.972c3.631-1.102 8.146-.568 11.233 1.328a.78.78 0 0 1 .256 1.072m-1.223 2.723a.623.623 0 0 1-.857.207c-2.348-1.435-5.304-1.759-8.785-.964a.623.623 0 0 1-.279-1.214h.002c3.809-.87 7.076-.496 9.712 1.114.294.18.387.564.207.857M12 2C6.477 2 2 6.477 2 12s4.477 10 10 10 10-4.477 10-10c0-5.524-4.477-10-10-10"/></svg>