<svg width="24" height="24" viewBox="0 0 24 24" fill="none" xmlns="http://www.w3.org/2000/svg">
<path fill-rule="evenodd" clip-rule="evenodd" d="M13 15V20C13 20.5523 12.5523 21 12 21C11.4477 21 11 20.5523 11 20V17H10C5.58172 17 2 13.4183 2 9V7C2 6.44772 2.44772 6 3 6H5C7.65891 6 10.0149 7.29716 11.4695 9.29318C12.579 6.20699 15.5318 4 19 4H21C21.5523 4 22 4.44772 22 5V7C22 11.4183 18.4183 15 14 15H13ZM10 15H11V14C11 10.6863 8.31371 8 5 8H4V9C4 12.3137 6.68629 15 10 15ZM13 13H14C17.3137 13 20 10.3137 20 7V6H19C15.6863 6 13 8.68629 13 12V13Z" fill="#313234"/>
</svg>
