<svg xmlns="http://www.w3.org/2000/svg" width="24" height="24" fill="none" viewBox="0 0 24 24"><path fill="#313234" fill-rule="evenodd" d="M12 2c5.523 0 10 4.477 10 10s-4.477 10-10 10S2 17.523 2 12 6.477 2 12 2m2.735 14.849L12 14.948l-2.734 1.901c-.633.44-1.484-.152-1.242-.864l1.044-3.076-2.734-1.901c-.632-.44-.307-1.398.475-1.398h3.38l1.044-3.076c.242-.712 1.293-.712 1.535 0l1.044 3.076h3.38c.781 0 1.106.958.474 1.398l-2.734 1.9 1.044 3.077c.241.712-.609 1.304-1.242.864" clip-rule="evenodd"/></svg>