<svg xmlns="http://www.w3.org/2000/svg" width="24" height="24" fill="none" viewBox="0 0 24 24"><path fill="#313234" fill-rule="evenodd" d="M20.5 3h-17A1.5 1.5 0 0 0 2 4.5v4.927l.513.491q.235.213.487.392v9.19l.007.145A1.5 1.5 0 0 0 4.5 21h15l.145-.007A1.5 1.5 0 0 0 21 19.5v-9.19q.253-.18.488-.393L22 9.422V4.5A1.5 1.5 0 0 0 20.5 3M19 11.168a5.2 5.2 0 0 1-3.908-.786l-.103-.074-.085.06a5.21 5.21 0 0 1-5.833-.008l-.078-.055-.084.06A5.2 5.2 0 0 1 5 11.164V19h3v-6h8v6h3zM14 19v-4h-4v4zm6-14v3.556l-.026.022A3.2 3.2 0 0 1 16 8.566V7h-2v1.552a3.2 3.2 0 0 1-4 .013V7H8v1.55a3.2 3.2 0 0 1-3.818.143L4 8.556V5z" clip-rule="evenodd"/></svg>