<svg xmlns="http://www.w3.org/2000/svg" width="24" height="24" fill="none" viewBox="0 0 24 24"><path fill="#313234" d="M20.5 3A1.5 1.5 0 0 1 22 4.5v4.922l-.512.495a5 5 0 0 1-.488.39V19.5a1.5 1.5 0 0 1-1.355 1.493L19.5 21h-15a1.5 1.5 0 0 1-1.493-1.355L3 19.5V10.31a5 5 0 0 1-.487-.39L2 9.426V4.5A1.5 1.5 0 0 1 3.5 3zM8.91 10.365a5.2 5.2 0 0 1-3.91.798V19h3v-6h8v6h3v-7.834a5.2 5.2 0 0 1-3.908-.784l-.103-.074-.085.06a5.21 5.21 0 0 1-5.833-.008l-.078-.055zM10 19h4v-4h-4zM4 8.556l.182.137A3.2 3.2 0 0 0 8 8.545V7h2v1.564a3.2 3.2 0 0 0 4-.013V7h2v1.56a3.2 3.2 0 0 0 3.974.017L20 8.556V5H4z"/></svg>