<svg xmlns="http://www.w3.org/2000/svg" width="24" height="24" fill="none" viewBox="0 0 24 24"><path fill="#313234" fill-rule="evenodd" d="M17.207 5.29c-2.29-2.618-6.257-2.931-8.959-.77A4.8 4.8 0 0 0 6.7 6.738 4.73 4.73 0 0 0 7.337 11H4a1 1 0 1 0 0 2h8.785a2.758 2.758 0 0 1 1.717 4.918c-1.88 1.504-4.63 1.274-6.204-.525l-.045-.052a1 1 0 0 0-1.506 1.317l.046.052c2.29 2.618 6.257 2.931 8.959.77a4.8 4.8 0 0 0 1.548-2.217A4.73 4.73 0 0 0 16.663 13H20a1 1 0 1 0 0-2h-8.785a2.758 2.758 0 0 1-1.717-4.918c1.88-1.504 4.63-1.274 6.204.525l.045.051a1 1 0 0 0 1.506-1.317z" clip-rule="evenodd"/></svg>