<svg xmlns="http://www.w3.org/2000/svg" width="24" height="24" fill="none" viewBox="0 0 24 24"><path fill="#313234" d="M20 5a2 2 0 0 1 2 2v10a2 2 0 0 1-2 2H4a2 2 0 0 1-2-2V7a2 2 0 0 1 2-2zM6.41 7a.5.5 0 0 0-.491.402l-1.8 9a.5.5 0 0 0 .49.598h.98a.5.5 0 0 0 .491-.402L6.4 15h3.2l.319 1.598a.5.5 0 0 0 .49.402h.98a.5.5 0 0 0 .49-.598l-1.799-9A.5.5 0 0 0 9.59 7zm7.09 0a.5.5 0 0 0-.5.5v1a.5.5 0 0 0 .5.5h3.697L13.1 14.505a.5.5 0 0 0-.099.299V16.5a.5.5 0 0 0 .5.5H19a.5.5 0 0 0 .5-.5v-1a.5.5 0 0 0-.5-.5h-3.7l4.101-5.505a.5.5 0 0 0 .099-.299V7.5A.5.5 0 0 0 19 7zm-4.3 6H6.8l.8-4h.8z"/></svg>