<svg xmlns="http://www.w3.org/2000/svg" width="24" height="24" fill="none" viewBox="0 0 24 24"><path fill="#313234" fill-rule="evenodd" d="M9 2a1 1 0 0 0-1 1H7a3 3 0 0 0-3 3v13a3 3 0 0 0 3 3h10a3 3 0 0 0 3-3v-3.5h-2V19a1 1 0 0 1-1 1H7a1 1 0 0 1-1-1V6a1 1 0 0 1 1-1h1a1 1 0 0 0 1 1h6a1 1 0 0 0 1-1h1a1 1 0 0 1 1 1v1.5h2V6a3 3 0 0 0-3-3h-1a1 1 0 0 0-1-1zm5.154 14.068L10 12.08l1.385-1.444 2.784 2.673L19.82 8l1.369 1.457z" clip-rule="evenodd" style="fill:#313234;fill:color(display-p3 .1922 .1961 .2039);fill-opacity:1"/></svg>