<svg xmlns="http://www.w3.org/2000/svg" width="24" height="24" fill="none" viewBox="0 0 24 24"><path fill="#313234" fill-rule="evenodd" d="m19.97 11.071-7.899 7.9a2 2 0 0 1-2.828 0L5 14.728A2 2 0 0 1 5 11.9L12.9 4h7.07zm-8.485-8.485A2 2 0 0 1 12.9 2h7.07a2 2 0 0 1 2 2v7.071a2 2 0 0 1-.585 1.414l-7.9 7.9a4 4 0 0 1-5.657 0l-4.242-4.243a4 4 0 0 1 0-5.657zm7 4.9a1.999 1.999 0 1 1-4 0 2 2 0 1 1 4 0" clip-rule="evenodd" style="fill:#313234;fill:color(display-p3 .1922 .1961 .2039);fill-opacity:1"/></svg>