<svg xmlns="http://www.w3.org/2000/svg" width="24" height="24" fill="none" viewBox="0 0 24 24"><path fill="#313234" d="M11.08 2.582a1.017 1.017 0 0 1 1.84 0l1.229 2.595a9.83 9.83 0 0 0 4.674 4.674l2.596 1.23c.775.367.775 1.47 0 1.838l-2.596 1.23a9.83 9.83 0 0 0-4.674 4.674l-1.23 2.596a1.017 1.017 0 0 1-1.838 0l-1.23-2.596a9.83 9.83 0 0 0-4.674-4.674l-2.595-1.23a1.017 1.017 0 0 1 0-1.838l2.595-1.23A9.83 9.83 0 0 0 9.85 5.177z" style="fill:#313234;fill:color(display-p3 .1922 .1961 .2039);fill-opacity:1"/></svg>