<svg xmlns="http://www.w3.org/2000/svg" width="24" height="24" fill="none" viewBox="0 0 24 24"><path fill="#313234" d="M22 12.009a.7.7 0 0 0-.561-.696l-1.662-.456c-3.281-.897-5.85-3.534-6.745-6.92l-.36-1.363s-.003-.014-.006-.02l-.01-.046A.69.69 0 0 0 12 2a.69.69 0 0 0-.656.508l-.01.045-.006.021-.36 1.364c-.895 3.385-3.464 6.022-6.745 6.92l-1.661.455a.71.71 0 0 0-.562.7.7.7 0 0 0 .562.695l1.66.456c3.282.897 5.851 3.534 6.746 6.92l.376 1.429h.007c.09.282.346.487.649.487a.69.69 0 0 0 .649-.487h.007l.376-1.43c.895-3.385 3.464-6.022 6.745-6.92l1.662-.455a.71.71 0 0 0 .561-.7"/></svg>