<svg xmlns="http://www.w3.org/2000/svg" width="24" height="24" fill="none" viewBox="0 0 24 24"><path fill="#313234" d="M11.081 2.582a1.017 1.017 0 0 1 1.838 0l1.23 2.595a9.83 9.83 0 0 0 4.674 4.674l2.595 1.23c.775.367.775 1.47 0 1.838l-2.595 1.23-.38.19a9.83 9.83 0 0 0-4.294 4.484l-1.23 2.595-.077.137a1.018 1.018 0 0 1-1.684 0l-.077-.137-1.23-2.595a9.83 9.83 0 0 0-4.294-4.484l-.38-.19-2.595-1.23a1.017 1.017 0 0 1 0-1.838l2.595-1.23A9.83 9.83 0 0 0 9.66 5.557l.19-.38zm.577 3.451A11.83 11.83 0 0 1 6.49 11.43l-.457.228-.721.342.721.342.457.228a11.83 11.83 0 0 1 5.168 5.397l.342.72.342-.72.228-.457a11.83 11.83 0 0 1 5.397-5.168l.72-.342-.72-.342A11.83 11.83 0 0 1 12.57 6.49l-.228-.457L12 5.312z" style="fill:#313234;fill:color(display-p3 .1922 .1961 .2039);fill-opacity:1"/></svg>