<svg xmlns="http://www.w3.org/2000/svg" width="24" height="24" fill="none" viewBox="0 0 24 24"><path fill="#313234" fill-rule="evenodd" d="M21.439 12.708a.71.71 0 0 0 .561-.7.7.7 0 0 0-.561-.695l-1.662-.456c-3.21-.878-5.74-3.422-6.685-6.702l-.06-.217-.274-1.04-.085-.324-.007-.02-.01-.046A.69.69 0 0 0 12 2a.69.69 0 0 0-.656.508l-.01.045-.006.021-.092.347-.268 1.017-.06.217c-.945 3.28-3.474 5.824-6.685 6.702l-1.661.456a.71.71 0 0 0-.562.7.7.7 0 0 0 .562.695l1.66.456c3.212.878 5.74 3.422 6.686 6.702l.026.091.034.126.376 1.43h.007c.09.282.346.487.649.487a.69.69 0 0 0 .649-.487h.007l.376-1.43.034-.126.026-.09c.945-3.281 3.474-5.825 6.685-6.703zm-4.472-.698A11.8 11.8 0 0 0 12 16.965a11.8 11.8 0 0 0-4.967-4.955A11.8 11.8 0 0 0 12 7.056a11.8 11.8 0 0 0 4.967 4.954" clip-rule="evenodd"/></svg>