<svg xmlns="http://www.w3.org/2000/svg" width="24" height="24" fill="none" viewBox="0 0 24 24"><path fill="#313234" d="M16.79 11.27a6 6 0 0 0-.263-.119c-.154-2.845-1.708-4.473-4.319-4.49h-.035c-1.562 0-2.86.667-3.658 1.88l1.435.984c.597-.905 1.533-1.099 2.224-1.099h.024c.86.005 1.507.255 1.927.743q.459.534.61 1.463-1.143-.195-2.466-.118c-2.482.142-4.076 1.59-3.97 3.6.054 1.02.562 1.898 1.431 2.471.735.485 1.68.722 2.663.668 1.298-.07 2.315-.567 3.026-1.472.54-.687.88-1.578 1.031-2.7.619.372 1.077.864 1.33 1.454.43 1.004.455 2.654-.89 3.998-1.18 1.178-2.597 1.688-4.739 1.703-2.376-.017-4.173-.779-5.342-2.264-1.093-1.39-1.659-3.4-1.68-5.971.021-2.57.587-4.58 1.68-5.97 1.17-1.486 2.966-2.248 5.342-2.265 2.393.017 4.222.783 5.434 2.276.595.732 1.043 1.652 1.339 2.725l1.682-.45c-.358-1.32-.922-2.459-1.69-3.402C17.364 3 15.089 2.02 12.158 2h-.011C9.22 2.02 6.972 3.004 5.46 4.925 4.117 6.635 3.423 9.012 3.4 11.993v.014c.023 2.982.717 5.36 2.061 7.068 1.51 1.92 3.76 2.904 6.685 2.925h.011c2.6-.018 4.433-.699 5.943-2.207 1.975-1.974 1.916-4.447 1.265-5.966-.467-1.088-1.358-1.973-2.575-2.557m-4.49 4.22c-1.088.062-2.218-.427-2.273-1.472-.042-.775.552-1.64 2.34-1.744q.307-.017.603-.018c.65 0 1.257.064 1.81.184-.207 2.573-1.415 2.99-2.48 3.049z"/></svg>