<svg xmlns="http://www.w3.org/2000/svg" width="24" height="24" fill="none" viewBox="0 0 24 24"><path fill="#313234" fill-rule="evenodd" d="M18.756 5.332a7.54 7.54 0 0 0-12.513 0c-1.76 2.573-1.597 6.013.146 8.599l5.667 8.408a.534.534 0 0 0 .888 0l5.666-8.408c1.743-2.586 1.908-6.026.146-8.599M18 9.5a5.5 5.5 0 1 1-11 0 5.5 5.5 0 0 1 11 0M13.5 6a1 1 0 1 0-2 0v3.5a1 1 0 0 0 .486.857l2.5 1.5a1 1 0 0 0 1.028-1.714L13.5 8.933z" clip-rule="evenodd" style="fill:#313234;fill:color(display-p3 .1922 .1961 .2039);fill-opacity:1"/></svg>