<svg xmlns="http://www.w3.org/2000/svg" width="24" height="24" fill="none" viewBox="0 0 24 24"><path fill="#313234" d="M6.664 6.664a1 1 0 0 1-1.411.003L3.836 5.25a2 2 0 0 0 0 2.828l.943.943a2.67 2.67 0 0 0 3.192.44l2.385 2.683-1.935 1.934 1.415 1.415 1.851-1.852 5.67 6.377a1.886 1.886 0 1 0 2.662-2.662l-6.378-5.669L17.2 8.13l.707.707 2.828-4.243-1.414-1.414-4.243 2.828.707.707-3.641 3.642L9.46 7.971a2.67 2.67 0 0 0-.44-3.192l-.943-.943a2 2 0 0 0-2.828 0l2.357 2.357-.94-.94a1 1 0 0 1-.003 1.411M10.543 16.2 6.3 20.442a2 2 0 1 1-2.828-2.828l4.242-4.243z"/></svg>