<svg xmlns="http://www.w3.org/2000/svg" width="24" height="24" fill="none" viewBox="0 0 24 24"><path fill="#313234" d="M15 3a1 1 0 0 1 1 1v4h4a1 1 0 0 1 1 1v11a1 1 0 0 1-1 1H9a1 1 0 0 1-1-1v-4H4a1 1 0 0 1-1-1V4a1 1 0 0 1 1-1zM8.856 5v1.814H6.233v1.579h3.866c-1.087.857-2.606 1.89-4.099 2.35l.465 1.509c1.017-.314 2.021-.84 2.92-1.412.188.144.397.297.615.45V19h9v-9h-8.082c-.055-.039-.108-.073-.164-.113a21 21 0 0 0 2.013-1.725.79.79 0 0 0-.557-1.348h-1.775V5zm6.27 6.013 3.034 6.974h-1.8l-.587-1.476h-2.604l-.566 1.476h-1.764l3.017-6.974zm-1.432 4.076h1.514l-.761-1.927z"/></svg>