<svg xmlns="http://www.w3.org/2000/svg" width="24" height="24" fill="none" viewBox="0 0 24 24"><path fill="#313234" fill-rule="evenodd" d="M10.266 16.667c-.015 0-.028-.006-.043-.008a.3.3 0 0 1-.188-.093.28.28 0 0 1-.083-.195V7.65c0-.08.036-.143.083-.194q.018-.02.04-.035a.3.3 0 0 1 .148-.06c.015 0 .028-.007.043-.006.062.003.124.02.178.065l5.23 4.36a.3.3 0 0 1 0 .46l-5.23 4.36a.3.3 0 0 1-.178.066M12 2C6.477 2 2 6.478 2 12s4.477 10 10 10 10-4.477 10-10S17.523 2 12 2" clip-rule="evenodd" style="fill:#313234;fill:color(display-p3 .1922 .1961 .2039);fill-opacity:1"/></svg>