<svg xmlns="http://www.w3.org/2000/svg" width="24" height="24" fill="none" viewBox="0 0 24 24"><path fill="#313234" fill-rule="evenodd" d="M13.808 7.356c.015 0 .028.006.043.008a.3.3 0 0 1 .147.058q.023.014.041.035a.28.28 0 0 1 .083.195v8.719c0 .08-.036.144-.083.195q-.018.019-.04.035a.3.3 0 0 1-.148.058c-.015.002-.028.009-.043.008a.3.3 0 0 1-.178-.065l-5.23-4.36a.3.3 0 0 1 0-.461l5.23-4.36a.3.3 0 0 1 .178-.065M12 2C6.477 2 2 6.478 2 12s4.477 10 10 10 10-4.478 10-10S17.522 2 12 2" clip-rule="evenodd"/></svg>