<svg xmlns="http://www.w3.org/2000/svg" width="24" height="24" fill="none" viewBox="0 0 24 24"><path fill="#313234" fill-rule="evenodd" d="M18.816 4A2.995 2.995 0 0 0 16 2a2.99 2.99 0 0 0-2.815 2H4a1 1 0 0 0 0 2h9.184A3 3 0 0 0 16 8a2.995 2.995 0 0 0 2.816-2H20a1 1 0 1 0 0-2zM16 6c-.55 0-1-.449-1-1s.45-1 1-1c.551 0 1 .45 1 1 0 .551-.449 1-1 1M8 9a2.99 2.99 0 0 0-2.815 2H4a1 1 0 1 0 0 2h1.184A3 3 0 0 0 8 15a2.995 2.995 0 0 0 2.816-2H20a1 1 0 1 0 0-2h-9.184A2.995 2.995 0 0 0 8 9m0 4c-.55 0-1-.449-1-1s.45-1 1-1c.551 0 1 .45 1 1 0 .551-.449 1-1 1M13.185 18A2.99 2.99 0 0 1 16 16c1.302 0 2.402.838 2.816 2H20a1 1 0 1 1 0 2h-1.184A2.995 2.995 0 0 1 16 22a3 3 0 0 1-2.816-2H4a1 1 0 1 1 0-2zM15 19c0 .551.45 1 1 1 .551 0 1-.449 1-1s-.449-1-1-1-1 .45-1 1" clip-rule="evenodd" style="fill:#313234;fill:color(display-p3 .1922 .1961 .2039);fill-opacity:1"/></svg>