<svg xmlns="http://www.w3.org/2000/svg" width="24" height="24" fill="none" viewBox="0 0 24 24"><path fill="#313234" d="M2.05 3.011c-.009.012.656.88 1.472 1.925l3.856 4.938 2.372 3.037-.152.165-3.873 4.007C3.682 19.201 2.005 20.945 2 20.965c-.008.02.349.035.862.031l.873-.004.288-.302a4740 4740 0 0 0 6.42-6.651l.103-.114.82 1.052 2.76 3.54L16.073 21h2.974c2.474 0 2.97-.008 2.954-.051-.013-.032-.768-1.006-1.678-2.173-.911-1.163-1.953-2.498-2.314-2.962-.365-.463-1.436-1.842-2.388-3.056-.951-1.218-1.731-2.232-1.731-2.247 0-.028 5.03-5.257 6.74-7.005l.489-.499h-.899l-.894.004-1.046 1.084c-.575.597-1.982 2.059-3.13 3.241l-2.08 2.153-2.524-3.23-2.527-3.232-2.974-.02C3.407 2.995 2.057 3 2.049 3.011m7.047 3.48c.973 1.25 2.474 3.171 3.336 4.275.861 1.1 2.773 3.552 4.25 5.441 1.477 1.894 2.7 3.461 2.72 3.489.024.035-.267.047-1.33.047h-1.357l-2.692-3.45C7.814 8.347 4.68 4.332 4.642 4.274c-.025-.036.254-.048 1.325-.048h1.358z"/></svg>