<svg width="24" height="24" viewBox="0 0 24 24" fill="none" xmlns="http://www.w3.org/2000/svg">
<path fill-rule="evenodd" clip-rule="evenodd" d="M12 6C10.8954 6 10 6.89543 10 8C10 9.10457 10.8954 10 12 10C13.1046 10 14 9.10457 14 8C14 6.89543 13.1046 6 12 6ZM8 8C8 5.79086 9.79086 4 12 4C14.2091 4 16 5.79086 16 8C16 10.2091 14.2091 12 12 12C9.79086 12 8 10.2091 8 8ZM7 14C5.89543 14 5 14.8954 5 16C5 17.1046 5.89543 18 7 18C8.10457 18 9 17.1046 9 16C9 14.8954 8.10457 14 7 14ZM3 16C3 13.7909 4.79086 12 7 12C9.20914 12 11 13.7909 11 16C11 18.2091 9.20914 20 7 20C4.79086 20 3 18.2091 3 16ZM15 16C15 14.8954 15.8954 14 17 14C18.1046 14 19 14.8954 19 16C19 17.1046 18.1046 18 17 18C15.8954 18 15 17.1046 15 16ZM17 12C14.7909 12 13 13.7909 13 16C13 18.2091 14.7909 20 17 20C19.2091 20 21 18.2091 21 16C21 13.7909 19.2091 12 17 12Z" fill="#313234"/>
</svg>
