<svg xmlns="http://www.w3.org/2000/svg" width="24" height="24" fill="none" viewBox="0 0 24 24"><path fill="#313234" d="M7.242 9.656 5 11.9a2 2 0 0 0 0 2.829l4.243 4.243a2 2 0 0 0 2.828 0l2.242-2.244 1.414 1.415-2.242 2.243a4 4 0 0 1-5.657 0l-4.242-4.242a4 4 0 0 1 0-5.658l2.242-2.243zM19.971 2a2 2 0 0 1 2 2v7.071a2 2 0 0 1-.586 1.414l-3.244 3.242 3.359 3.359a1 1 0 0 1-1.414 1.414L3.5 3.914A1 1 0 0 1 4.914 2.5l3.328 3.328 3.243-3.242A2 2 0 0 1 12.9 2zM9.656 7.242l7.071 7.071 3.244-3.242V4h-7.072zm6.83-1.757a1.999 1.999 0 1 1 0 4 2 2 0 1 1 0-4"/></svg>