<svg xmlns="http://www.w3.org/2000/svg" width="24" height="24" fill="none" viewBox="0 0 24 24"><path fill="#313234" fill-rule="evenodd" d="m18.142 15.728 3.243-3.243a2 2 0 0 0 .586-1.414V4a2 2 0 0 0-2-2H12.9a2 2 0 0 0-1.415.586L8.243 5.828 4.914 2.5A1 1 0 0 0 3.5 3.914L20.086 20.5a1 1 0 0 0 1.414-1.414zm-1.414-1.414 3.243-3.243V4H12.9L9.657 7.243zM5 11.899l2.243-2.242-1.415-1.414-2.242 2.242a4 4 0 0 0 0 5.657l4.242 4.243a4 4 0 0 0 5.657 0l2.243-2.243-1.414-1.414-2.243 2.243a2 2 0 0 1-2.828 0L5 14.728A2 2 0 0 1 5 11.9m13.485-4.414a1.999 1.999 0 1 1-4 0 2 2 0 1 1 4 0" clip-rule="evenodd" style="fill:#313234;fill:color(display-p3 .1922 .1961 .2039);fill-opacity:1"/></svg>