<svg width="24" height="24" viewBox="0 0 24 24" fill="none" xmlns="http://www.w3.org/2000/svg">
<path d="M13 15C13 15.5523 12.5523 16 12 16C11.4477 16 11 15.5523 11 15L11 5.41421L7.20711 9.20711C6.81658 9.59763 6.18342 9.59763 5.79289 9.20711C5.40237 8.81658 5.40237 8.18342 5.79289 7.79289L11.2929 2.29289C11.6834 1.90237 12.3166 1.90237 12.7071 2.29289L18.2071 7.79289C18.5976 8.18342 18.5976 8.81658 18.2071 9.20711C17.8166 9.59763 17.1834 9.59763 16.7929 9.20711L13 5.41421L13 15Z" fill="#313234"/>
<path d="M5 19C4.44772 19 4 19.4477 4 20C4 20.5523 4.44772 21 5 21H19C19.5523 21 20 20.5523 20 20C20 19.4477 19.5523 19 19 19H5Z" fill="#313234"/>
</svg>
