<svg xmlns="http://www.w3.org/2000/svg" width="24" height="24" fill="none" viewBox="0 0 24 24"><path fill="#313234" d="M2.138 13.686A10.012 10.012 0 0 1 13.686 2.138c4.212.692 7.577 4.117 8.2 8.342a10.02 10.02 0 0 1-1.052 6.21c-.719 1.351-2.363 1.922-3.783 1.345a3.01 3.01 0 0 1-1.727-1.84 5.35 5.35 0 0 1-3.607 1.403c-3.018 0-5.451-2.514-5.451-5.598s2.433-5.598 5.451-5.598A5.34 5.34 0 0 1 15.2 7.696a.942.942 0 0 1 1.851.245v7.299c0 .413.367.786.75.941.484.197 1.036.005 1.268-.43.797-1.5 1.1-3.219.84-4.979-.497-3.365-3.195-6.11-6.547-6.66a8.01 8.01 0 0 0-9.25 9.25c.541 3.3 2.983 5.833 6.25 6.476a8.15 8.15 0 0 0 4.123-.23c.477-.157 1.016.038 1.225.494.251.548.011 1.202-.56 1.392-1.632.54-3.398.656-5.173.306-4.089-.804-7.163-3.991-7.84-8.114m9.579-5.284c-1.9 0-3.451 1.603-3.451 3.598s1.552 3.598 3.451 3.598c1.898 0 3.451-1.605 3.451-3.598 0-1.995-1.553-3.598-3.451-3.598"/></svg>