<svg xmlns="http://www.w3.org/2000/svg" width="24" height="24" fill="none" viewBox="0 0 24 24"><path fill="#313234" d="M6 7H5a1 1 0 0 0-.993.884L4 8v2c0 .769-.291 1.468-.767 1.999.44.49.721 1.124.762 1.824L4 14v2a1 1 0 0 0 .884.993L5 17h1v2H5a3 3 0 0 1-2.995-2.823L2 16v-2a1 1 0 0 0-.884-.993L1 13v-2a1 1 0 0 0 .993-.884L2 10V8a3 3 0 0 1 2.823-2.995L5 5h1zm13.177-1.995A3 3 0 0 1 22 8v2l.007.116A1 1 0 0 0 23 11v2l-.116.007A1 1 0 0 0 22 14v2l-.005.177A3 3 0 0 1 19 19h-1v-2h1l.116-.007A1 1 0 0 0 20 16v-2l.005-.177c.04-.7.322-1.334.76-1.824A3 3 0 0 1 20 10V8l-.007-.116A1 1 0 0 0 19 7h-1V5h1zM7.56 10.64c.744 0 1.352.609 1.352 1.352s-.608 1.352-1.352 1.353a1.357 1.357 0 0 1-1.354-1.353c0-.743.61-1.352 1.354-1.352m4.48 0c.744 0 1.353.609 1.353 1.352s-.609 1.352-1.353 1.353a1.36 1.36 0 0 1-1.353-1.353c0-.743.61-1.352 1.353-1.352m4.48 0c.744 0 1.354.609 1.354 1.352 0 .745-.61 1.353-1.354 1.353a1.356 1.356 0 0 1-1.352-1.353c0-.743.608-1.352 1.352-1.352"/></svg>