<svg xmlns="http://www.w3.org/2000/svg" width="24" height="24" fill="none" viewBox="0 0 24 24"><path fill="#313234" fill-rule="evenodd" d="M16 13.172V7.5a1.5 1.5 0 0 0-3 0v2.672zm-5-5V4.5a1.5 1.5 0 0 0-3 0v.672zM8 9l3 3v7.5a1.5 1.5 0 0 1-3 0zm5 5 2.936 2.936A1.5 1.5 0 0 1 13 16.5zM3 9.5a1.5 1.5 0 1 1 3 0v5a1.5 1.5 0 0 1-3 0zM19.5 9a1.5 1.5 0 0 0-1.5 1.5v3a1.5 1.5 0 0 0 3 0v-3A1.5 1.5 0 0 0 19.5 9" clip-rule="evenodd" style="fill:#313234;fill:color(display-p3 .1922 .1961 .2039);fill-opacity:1"/><path fill="#313234" fill-rule="evenodd" d="M21 21 3 3l1.414-1.414 18 18z" clip-rule="evenodd" style="fill:#313234;fill:color(display-p3 .1922 .1961 .2039);fill-opacity:1"/></svg>