<svg xmlns="http://www.w3.org/2000/svg" width="24" height="24" fill="none" viewBox="0 0 24 24"><path fill="#313234" d="M11 12v7.5a1.5 1.5 0 0 1-3 0V9zM3.707 2.293a1 1 0 0 1 1.414 0L8 5.172V4.5a1.5 1.5 0 0 1 3 0v3.672l2 2V7.5a1.5 1.5 0 0 1 3 0v5.672l5.707 5.707a1 1 0 0 1-1.414 1.414L3.707 3.707a1 1 0 0 1 0-1.414m12.229 14.643A1.5 1.5 0 0 1 13 16.5V14zM4.5 8A1.5 1.5 0 0 1 6 9.5v5a1.5 1.5 0 0 1-3 0v-5A1.5 1.5 0 0 1 4.5 8m15 1a1.5 1.5 0 0 1 1.5 1.5v3a1.5 1.5 0 0 1-3 0v-3A1.5 1.5 0 0 1 19.5 9"/></svg>