<svg xmlns="http://www.w3.org/2000/svg" width="24" height="24" fill="none" viewBox="0 0 24 24"><path fill="#313234" d="M13.96 2a1 1 0 0 1 1 1v18a1 1 0 0 1-1 1h-1a1 1 0 0 1-.707-.294L7.545 17H2.96a1 1 0 0 1-.993-.883l-.007-.117V8a1 1 0 0 1 1-1h4.585l4.708-4.707a1 1 0 0 1 .575-.284L12.96 2zM8.667 8.707A1 1 0 0 1 7.96 9l-4-.001v6h4a1 1 0 0 1 .608.207l.1.087 4.292 4.291V4.413zm10.74-2.293c.39-.39 1.029-.394 1.373.038a8.92 8.92 0 0 1 0 11.095c-.344.432-.982.429-1.373.038-.39-.39-.384-1.02-.053-1.462a6.92 6.92 0 0 0 0-8.247c-.33-.442-.337-1.072.053-1.462M16.99 8.83c.39-.39 1.034-.395 1.347.06a5.5 5.5 0 0 1 0 6.218c-.313.454-.956.45-1.347.06-.39-.39-.374-1.02-.11-1.505a3.5 3.5 0 0 0 0-3.329c-.264-.485-.28-1.114.11-1.504"/></svg>