<svg xmlns="http://www.w3.org/2000/svg" width="24" height="24" fill="none" viewBox="0 0 24 24"><path fill="#313234" d="M14 2a1 1 0 0 1 1 1v18a1 1 0 0 1-1 1h-1a1 1 0 0 1-.707-.293L7.586 17H3a1 1 0 0 1-.993-.884L2 16V8a1 1 0 0 1 1-1h4.585l4.708-4.707a1 1 0 0 1 .575-.284L13 2zM8.707 8.707A1 1 0 0 1 8 9H4v6h4c.221 0 .435.073.609.206l.098.087L13 19.585V4.415zm9.827-.245c.39-.39 1.033-.394 1.347.06 1.406 2.033 1.345 4.838-.014 6.919-.304.465-.954.476-1.347.083-.383-.383-.368-1-.102-1.47.704-1.244.656-2.846-.044-4.113-.257-.466-.252-1.066.123-1.442z"/></svg>