<svg xmlns="http://www.w3.org/2000/svg" width="24" height="24" fill="none" viewBox="0 0 24 24"><path fill="#313234" fill-rule="evenodd" d="m12.96 2-.131.008a1 1 0 0 0-.576.284L7.545 7H2.96a1 1 0 0 0-1 1v8l.007.117A1 1 0 0 0 2.96 17l4.585-.001 4.708 4.708a1 1 0 0 0 .707.293h1a1 1 0 0 0 1-1V3a1 1 0 0 0-1-1zm0 2.413v15.172l-4.293-4.293-.099-.086a1 1 0 0 0-.608-.207h-4v-6h4a1 1 0 0 0 .707-.292zm6.447 2c.39-.39 1.029-.393 1.373.039a8.92 8.92 0 0 1 0 11.095c-.344.432-.983.429-1.373.039s-.383-1.02-.053-1.463a6.92 6.92 0 0 0 0-8.247c-.33-.442-.338-1.072.053-1.462M16.99 8.83c.39-.39 1.034-.394 1.347.06a5.5 5.5 0 0 1 0 6.219c-.314.455-.956.45-1.346.06s-.374-1.02-.11-1.505a3.5 3.5 0 0 0 0-3.329c-.264-.485-.281-1.114.11-1.505" clip-rule="evenodd" style="fill:#313234;fill:color(display-p3 .1922 .1961 .2039);fill-opacity:1"/></svg>