<svg xmlns="http://www.w3.org/2000/svg" width="24" height="24" fill="none" viewBox="0 0 24 24"><path fill="#313234" fill-rule="evenodd" d="m12.96 2-.131.008a1 1 0 0 0-.576.284L7.545 7H2.96a1 1 0 0 0-1 1v8l.007.117A1 1 0 0 0 2.96 17l4.585-.001 4.708 4.708a1 1 0 0 0 .707.293h1a1 1 0 0 0 1-1V3a1 1 0 0 0-1-1zm0 2.413v15.172l-4.293-4.293-.099-.086a1 1 0 0 0-.608-.207h-4v-6h4a1 1 0 0 0 .707-.292zm7.167 1.995a.75.75 0 0 0-1.21.592v3.477l-1.473-1.081a.75.75 0 1 0-.888 1.208l1.9 1.396-1.9 1.396a.75.75 0 1 0 .888 1.208l1.473-1.081V17a.75.75 0 0 0 1.21.592l3.334-2.593a.75.75 0 0 0-.017-1.196L20.99 12l2.454-1.803a.75.75 0 0 0 .017-1.196zm1.63 8.017-1.34-.985v2.027zm-1.34-5.892v2.027l1.34-.985z" clip-rule="evenodd" style="fill:#313234;fill:color(display-p3 .1922 .1961 .2039);fill-opacity:1"/></svg>