<svg xmlns="http://www.w3.org/2000/svg" width="24" height="24" fill="none" viewBox="0 0 24 24"><path fill="#313234" d="M14.014 2a1 1 0 0 1 1 1v18a1 1 0 0 1-1 1h-1a1 1 0 0 1-.707-.294L7.6 17H3.014a1 1 0 0 1-1-1V8a1 1 0 0 1 1-1H7.6l4.707-4.708A1 1 0 0 1 13.014 2zm5.393 4.414c.39-.39 1.029-.394 1.373.038a8.92 8.92 0 0 1 0 11.095c-.344.432-.982.429-1.373.038-.39-.39-.384-1.02-.053-1.462a6.92 6.92 0 0 0 0-8.247c-.33-.442-.337-1.072.053-1.462M16.99 8.83c.39-.39 1.034-.394 1.347.06a5.5 5.5 0 0 1 0 6.219c-.313.454-.956.45-1.347.06-.39-.39-.374-1.02-.11-1.505a3.5 3.5 0 0 0 0-3.329c-.264-.485-.28-1.115.11-1.505"/></svg>