<svg xmlns="http://www.w3.org/2000/svg" width="24" height="24" fill="none" viewBox="0 0 24 24"><path fill="#313234" d="M13.96 2a1 1 0 0 1 1 1v18a1 1 0 0 1-1 1h-1a1 1 0 0 1-.707-.294L7.545 17H2.96a1 1 0 0 1-.993-.883l-.007-.117V8a1 1 0 0 1 1-1h4.585l4.708-4.707a1 1 0 0 1 .575-.284L12.96 2zm5.377 4.327a.75.75 0 0 1 .79.08L23.46 9a.75.75 0 0 1-.015 1.197L20.989 12l2.456 1.802A.75.75 0 0 1 23.46 15l-3.333 2.593a.75.75 0 0 1-1.21-.591v-3.478l-1.473 1.081a.75.75 0 0 1-.888-1.208l1.9-1.396-1.9-1.396a.75.75 0 1 1 .889-1.208l1.472 1.081V7a.75.75 0 0 1 .42-.673m1.08 9.14 1.339-1.043-1.339-.984zm0-4.907 1.339-.984-1.339-1.042z"/></svg>