<svg xmlns="http://www.w3.org/2000/svg" width="24" height="24" fill="none" viewBox="0 0 24 24"><path fill="#313234" fill-rule="evenodd" d="M11 6h2V2h-2zM5.636 4.222 8.464 7.05 7.051 8.464 4.22 5.636zM12 14.5A2.503 2.503 0 0 1 9.5 12c0-1.379 1.122-2.5 2.5-2.5s2.5 1.121 2.5 2.5-1.122 2.5-2.5 2.5m0-7A4.505 4.505 0 0 0 7.5 12c0 2.481 2.02 4.5 4.5 4.5s4.5-2.019 4.5-4.5-2.019-4.5-4.5-4.5M2 13h4v-2H2zm16.364-8.778 1.414 1.414-2.828 2.828-1.414-1.414zM18 13h4v-2h-4zm.364 6.778-2.828-2.829 1.414-1.414 2.828 2.83zM11 22h2v-4h-2zm-5.364-2.222-1.414-1.414 2.829-2.829 1.414 1.414z" clip-rule="evenodd"/></svg>