<svg xmlns="http://www.w3.org/2000/svg" width="24" height="24" fill="none" viewBox="0 0 24 24"><path fill="#313234" fill-rule="evenodd" d="M11 4.953H9v-2.5h2zm-4.535 1.05L4.708 4.246 3.294 5.66 5.05 7.417zM1.5 11.953H4v-2H1.5zM16.707 5.66l-1.414-1.414-1.757 1.757 1.414 1.414zM8.216 19h8.72A3.067 3.067 0 0 0 20 15.936a3.067 3.067 0 0 0-3.063-3.064h-1.073l-.29-.495a2.92 2.92 0 0 0-2.534-1.47c-1.448 0-2.696 1.086-2.904 2.528l-.123.857H8.216A2.22 2.22 0 0 0 6 16.508v.276C6 18.006 6.994 19 8.216 19M10 8.453a2.503 2.503 0 0 0-2.5 2.5c0 .491.145.962.414 1.37q.063-.007.123-.015.087-.014.179-.016h.144a4.98 4.98 0 0 1 3.323-3.18A2.5 2.5 0 0 0 10 8.452m4.15.584a4.98 4.98 0 0 1 2.819 1.835 5.07 5.07 0 0 1 5.03 5.064A5.07 5.07 0 0 1 16.938 21H8.216A4.22 4.22 0 0 1 4 16.784v-.276a4.21 4.21 0 0 1 1.97-3.555 4.5 4.5 0 0 1-.47-2c0-2.48 2.019-4.5 4.5-4.5 1.47 0 2.85.721 3.693 1.928z" clip-rule="evenodd" style="fill:#313234;fill:color(display-p3 .1922 .1961 .2039);fill-opacity:1"/></svg>