<svg xmlns="http://www.w3.org/2000/svg" width="24" height="24" fill="none" viewBox="0 0 24 24"><path fill="#313234" d="M13 22h-2v-4h2zm-4.535-5.05-2.83 2.828-1.413-1.414 2.829-2.829zm11.312 1.414-1.414 1.414-2.827-2.829 1.414-1.414zM12 7.5c2.481 0 4.5 2.02 4.5 4.5s-2.019 4.5-4.5 4.5-4.5-2.02-4.5-4.5S9.52 7.5 12 7.5m0 2A2.503 2.503 0 0 0 9.5 12c0 1.379 1.122 2.5 2.5 2.5s2.5-1.121 2.5-2.5-1.122-2.5-2.5-2.5M6 13H2v-2h4zm16 0h-4v-2h4zM8.465 7.05 7.05 8.464 4.22 5.636l1.415-1.414zm11.313-1.414L16.95 8.464 15.536 7.05l2.828-2.828zM13 6h-2V2h2z"/></svg>