<svg xmlns="http://www.w3.org/2000/svg" width="24" height="24" fill="none" viewBox="0 0 24 24"><path fill="#313234" d="M10 6.453c1.47 0 2.85.721 3.692 1.928l.458.656a4.98 4.98 0 0 1 2.819 1.835A5.07 5.07 0 0 1 22 15.936 5.07 5.07 0 0 1 16.936 21h-8.72A4.22 4.22 0 0 1 4 16.784v-.276a4.21 4.21 0 0 1 1.97-3.555 4.5 4.5 0 0 1-.47-2c0-2.48 2.019-4.5 4.5-4.5m3.04 4.453c-1.448 0-2.696 1.087-2.904 2.53l-.123.856H8.216A2.22 2.22 0 0 0 6 16.508v.276C6 18.006 6.994 19 8.216 19h8.72A3.067 3.067 0 0 0 20 15.936a3.067 3.067 0 0 0-3.064-3.064h-1.073l-.29-.495a2.92 2.92 0 0 0-2.533-1.47M10 8.453a2.503 2.503 0 0 0-2.5 2.5c0 .491.145.962.414 1.37.102-.008.198-.031.302-.031h.143a4.98 4.98 0 0 1 3.324-3.18A2.5 2.5 0 0 0 10 8.452m-6 3.5H1.5v-2H4zm2.465-5.95L5.05 7.417 3.294 5.66l1.413-1.414zm10.242-.343L14.95 7.417l-1.414-1.414 1.757-1.757zM11 4.953H9v-2.5h2z"/></svg>