<svg xmlns="http://www.w3.org/2000/svg" width="24" height="24" fill="none" viewBox="0 0 24 24"><path fill="#313234" d="M16.91 14.01a2.001 2.001 0 0 1 0 4c-.74 0-1.385-.403-1.73-1h-2.767A5.75 5.75 0 0 1 1 16.01h2a3.75 3.75 0 1 0 7.5 0v-1h4.68c.346-.597.99-1 1.73-1m-5.08-8.8a2 2 0 0 1 2 2c0 .365-.1.705-.27.999l1.384 2.395a5.75 5.75 0 0 1 4.84 10.385l-.999-1.731a3.751 3.751 0 0 0-3.75-6.496l-.866.5L11.83 9.21a2 2 0 0 1 0-4m-4.98-.874a5.75 5.75 0 0 1 7.855-2.105l-1 1.732a3.75 3.75 0 0 0-3.75 6.495l.866.5-2.34 4.054a2 2 0 1 1-1.73-1.002l1.382-2.395a5.75 5.75 0 0 1-1.282-7.28"/></svg>