<svg xmlns="http://www.w3.org/2000/svg" width="24" height="24" fill="none" viewBox="0 0 24 24"><path fill="#000" fill-rule="evenodd" d="M16.664 9.5c3.645 0 6.6 2.455 6.6 5.482 0 1.586-.81 3.013-2.106 4.014a.64.64 0 0 0-.246.613l.238 1.309a.269.269 0 0 1-.392.284l-1.553-.847a1.08 1.08 0 0 0-.76-.093 8 8 0 0 1-1.78.202c-3.646 0-6.602-2.454-6.602-5.482S13.018 9.5 16.664 9.5M8.944 3c3.958 0 7.24 2.407 7.843 5.556a7 7 0 0 0-.348-.006c-4.258.044-7.359 2.804-7.359 6.265 0 .474.062.943.18 1.387-.097.003-.219 0-.317 0a9.4 9.4 0 0 1-2.472-.327 1.07 1.07 0 0 0-.84.11l-1.667 1.026a.268.268 0 0 1-.405-.273l.234-1.41c.064-.384-.105-.765-.406-1.01C1.914 13.118 1 11.447 1 9.6 1 5.955 4.556 3 8.943 3m5.46 9.297a.896.896 0 1 0 .001 1.792.896.896 0 0 0 0-1.792m4.385 0a.895.895 0 1 0 .002 1.79.895.895 0 0 0-.002-1.79M6.26 6.58a1.008 1.008 0 1 0 0 2.016 1.008 1.008 0 0 0 0-2.016m5.145 0a1.007 1.007 0 1 0 .001 2.014 1.007 1.007 0 0 0 0-2.014" clip-rule="evenodd"/></svg>