<svg xmlns="http://www.w3.org/2000/svg" width="24" height="24" fill="none" viewBox="0 0 24 24"><path fill="#fff" d="M.5.5h23v23H.5z"/><path stroke="#000" d="M.5.5h23v23H.5z"/><path fill="#313234" fill-rule="evenodd" d="M19 5.96c0-.336 0-.504-.065-.632a.6.6 0 0 0-.263-.263C18.544 5 18.376 5 18.04 5H5.96c-.336 0-.504 0-.632.065a.6.6 0 0 0-.263.263C5 5.456 5 5.624 5 5.96v2.08c0 .336 0 .504.065.632a.6.6 0 0 0 .263.263C5.456 9 5.624 9 5.96 9h12.08c.336 0 .504 0 .632-.065a.6.6 0 0 0 .263-.263C19 8.544 19 8.376 19 8.04zM5 3a2 2 0 0 0-2 2v4a2 2 0 0 0 2 2h14a2 2 0 0 0 2-2V5a2 2 0 0 0-2-2zm4 12.96c0-.336 0-.504-.065-.632a.6.6 0 0 0-.263-.263C8.544 15 8.376 15 8.04 15H5.96c-.336 0-.504 0-.632.065a.6.6 0 0 0-.263.263C5 15.456 5 15.624 5 15.96v2.08c0 .336 0 .504.065.632a.6.6 0 0 0 .263.263c.128.065.296.065.632.065h2.08c.336 0 .504 0 .632-.065a.6.6 0 0 0 .263-.263C9 18.544 9 18.376 9 18.04zM5 13a2 2 0 0 0-2 2v4a2 2 0 0 0 2 2h4a2 2 0 0 0 2-2v-4a2 2 0 0 0-2-2zm12 6a2 2 0 1 1 0-4 2 2 0 0 1 0 4m-4-2a4 4 0 1 1 8 0 4 4 0 0 1-8 0" clip-rule="evenodd"/></svg>