<svg xmlns="http://www.w3.org/2000/svg" width="24" height="24" fill="none" viewBox="0 0 24 24"><path fill="#313234" d="M9 13a2 2 0 0 1 2 2v4a2 2 0 0 1-2 2H5a2 2 0 0 1-2-2v-4a2 2 0 0 1 2-2zm8 0a4 4 0 1 1 0 8 4 4 0 0 1 0-8M5.96 15c-.336 0-.505 0-.633.065a.6.6 0 0 0-.262.262C5 15.456 5 15.624 5 15.96v2.08c0 .336 0 .505.065.633a.6.6 0 0 0 .262.262c.128.065.297.065.633.065h2.08c.336 0 .505 0 .633-.065a.6.6 0 0 0 .262-.262C9 18.545 9 18.376 9 18.04v-2.08c0-.336 0-.505-.065-.633a.6.6 0 0 0-.262-.262C8.545 15 8.376 15 8.04 15zM17 15a2 2 0 1 0 0 4 2 2 0 0 0 0-4m2-12a2 2 0 0 1 2 2v4a2 2 0 0 1-2 2H5a2 2 0 0 1-2-2V5a2 2 0 0 1 2-2zM5.96 5c-.336 0-.505 0-.633.065a.6.6 0 0 0-.262.262C5 5.455 5 5.624 5 5.96v2.08c0 .336 0 .505.065.633a.6.6 0 0 0 .262.262C5.455 9 5.624 9 5.96 9h12.08c.336 0 .505 0 .633-.065a.6.6 0 0 0 .262-.262C19 8.545 19 8.376 19 8.04V5.96c0-.336 0-.505-.065-.633a.6.6 0 0 0-.262-.262C18.545 5 18.376 5 18.04 5z"/></svg>