<svg xmlns="http://www.w3.org/2000/svg" width="24" height="24" fill="none" viewBox="0 0 24 24"><path fill="#313234" d="M3.814 1.807a1 1 0 0 0 0 1.414l15.97 15.971a1 1 0 0 0 1.415-1.414l-3.643-3.643.943-.995c.21-.22.2-.57-.03-.767a9.96 9.96 0 0 0-4.93-2.255l-2.105-2.105Q11.716 8 12 8c3.017 0 5.774 1.114 7.883 2.952a.517.517 0 0 0 .714-.027l1.341-1.415c.209-.22.2-.57-.028-.77A14.94 14.94 0 0 0 12 5c-1.109 0-2.19.12-3.23.349L5.228 1.807a1 1 0 0 0-1.414 0M2.09 8.74a15 15 0 0 1 3.516-2.313L7.898 8.72c-1.4.51-2.68 1.272-3.78 2.233a.517.517 0 0 1-.715-.027L2.062 9.51a.535.535 0 0 1 .028-.77M5.532 12.373a10 10 0 0 1 3.963-2.057l2.686 2.686L12 13a6.97 6.97 0 0 0-4.44 1.588.53.53 0 0 1-.718-.033L5.5 13.14a.527.527 0 0 1 .03-.767M8.94 16.77c-.21-.221-.202-.572.04-.755A4.98 4.98 0 0 1 12 15c1.134 0 2.18.378 3.02 1.015.242.183.25.534.04.754l-2.697 2.848a.5.5 0 0 1-.726 0z" style="fill:#313234;fill:color(display-p3 .1922 .1961 .2039);fill-opacity:1"/></svg>