<svg width="24" height="24" viewBox="0 0 24 24" fill="none" xmlns="http://www.w3.org/2000/svg">
<path d="M8.98028 16.0145C8.73834 16.1981 8.73058 16.5489 8.93946 16.7694L11.637 19.6169C11.8342 19.825 12.1658 19.825 12.363 19.6169L15.0605 16.7694C15.2694 16.5489 15.2617 16.1981 15.0197 16.0145C14.1807 15.3778 13.1345 15 12 15C10.8655 15 9.81929 15.3778 8.98028 16.0145Z" fill="#313234"/>
<path d="M16.4393 14.5875C16.6528 14.7628 16.9682 14.7558 17.1581 14.5553L18.4993 13.1397C18.7081 12.9192 18.6997 12.5698 18.4682 12.3733C16.7245 10.893 14.4665 10 12 10C9.53348 10 7.27553 10.893 5.53182 12.3733C5.30028 12.5698 5.29185 12.9192 5.50073 13.1397L6.84184 14.5553C7.03178 14.7558 7.34723 14.7628 7.56066 14.5875C8.76873 13.5955 10.3148 13 12 13C13.6852 13 15.2313 13.5955 16.4393 14.5875Z" fill="#313234"/>
<path d="M19.8829 10.9522C20.0911 11.1337 20.4069 11.126 20.5969 10.9255L21.938 9.50989C22.1469 9.28941 22.1382 8.94052 21.9102 8.73978C19.2674 6.412 15.7986 5 12 5C8.20138 5 4.73255 6.412 2.08975 8.73978C1.86183 8.94053 1.85312 9.28941 2.062 9.50989L3.40311 10.9255C3.59305 11.126 3.90889 11.1337 4.11704 10.9522C6.22556 9.11358 8.98273 8 12 8C15.0173 8 17.7744 9.11358 19.8829 10.9522Z" fill="#313234"/>
</svg>
