<svg width="24" height="24" viewBox="0 0 24 24" fill="none" xmlns="http://www.w3.org/2000/svg">
<path fill-rule="evenodd" clip-rule="evenodd" d="M2 6C2 4.067 3.567 2.5 5.5 2.5C7.08551 2.5 8.42479 3.55426 8.85506 5H13.9333C16.1425 5 17.9333 6.79086 17.9333 9C17.9333 11.2091 16.1425 13 13.9333 13H10C8.89543 13 8 13.8954 8 15C8 16.1046 8.89543 17 10 17H16.1449C16.5752 15.5543 17.9145 14.5 19.5 14.5C21.433 14.5 23 16.067 23 18C23 19.933 21.433 21.5 19.5 21.5C17.9145 21.5 16.5752 20.4457 16.1449 19H10C7.79086 19 6 17.2091 6 15C6 12.7909 7.79086 11 10 11H13.9333C15.0379 11 15.9333 10.1046 15.9333 9C15.9333 7.89543 15.0379 7 13.9333 7H8.85506C8.42479 8.44574 7.08551 9.5 5.5 9.5C3.567 9.5 2 7.933 2 6ZM18.3333 18C18.3333 18.6443 18.8557 19.1667 19.5 19.1667C20.1443 19.1667 20.6667 18.6443 20.6667 18C20.6667 17.3557 20.1443 16.8333 19.5 16.8333C18.8557 16.8333 18.3333 17.3557 18.3333 18Z" fill="#313234"/>
</svg>
