<svg width="24" height="24" viewBox="0 0 24 24" fill="none" xmlns="http://www.w3.org/2000/svg">
<path fill-rule="evenodd" clip-rule="evenodd" d="M12 3H10.3572H10.3572C9.27341 2.99999 8.39927 2.99998 7.69139 3.05782C6.96254 3.11737 6.32235 3.24318 5.73006 3.54497C4.78925 4.02434 4.02435 4.78924 3.54498 5.73005C3.2432 6.32234 3.11738 6.96253 3.05783 7.69138C3 8.39925 3.00001 9.27341 3.00002 10.3572V10.3572V13.6428C3.00001 14.7266 3 15.6007 3.05783 16.3086C3.11738 17.0375 3.2432 17.6777 3.54498 18.27C4.02435 19.2108 4.78925 19.9757 5.73006 20.455C6.32235 20.7568 6.96254 20.8826 7.69139 20.9422C8.39924 21 9.27336 21 10.3571 21H10.3572H13.6428H13.643C14.7267 21 15.6008 21 16.3086 20.9422C17.0375 20.8826 17.6777 20.7568 18.27 20.455C19.2108 19.9757 19.9757 19.2108 20.455 18.27C20.7568 17.6777 20.8826 17.0375 20.9422 16.3086C21 15.6008 21 14.7267 21 13.6429V13.6428V12H19V13.6C19 14.7366 18.9992 15.5289 18.9488 16.1458C18.8994 16.7509 18.8072 17.0986 18.673 17.362C18.3854 17.9265 17.9265 18.3854 17.362 18.673C17.0986 18.8072 16.7509 18.8994 16.1458 18.9488C15.5289 18.9992 14.7366 19 13.6 19H10.4C9.26341 19 8.4711 18.9992 7.85426 18.9488C7.24909 18.8994 6.9014 18.8072 6.63804 18.673C6.07356 18.3854 5.61462 17.9265 5.327 17.362C5.19281 17.0986 5.10064 16.7509 5.05119 16.1458C5.00079 15.5289 5.00002 14.7366 5.00002 13.6V10.4C5.00002 9.2634 5.00079 8.47108 5.05119 7.85424C5.10064 7.24907 5.19281 6.90139 5.327 6.63803C5.61462 6.07354 6.07356 5.6146 6.63804 5.32698C6.9014 5.1928 7.24909 5.10062 7.85426 5.05118C8.4711 5.00078 9.26341 5 10.4 5H12V3ZM16 3V6H13V8H16V11H18V8H21V6H18V3H16Z" fill="#313234"/>
</svg>
