<svg width="24" height="24" viewBox="0 0 24 24" fill="none" xmlns="http://www.w3.org/2000/svg">
<path fill-rule="evenodd" clip-rule="evenodd" d="M22.0001 6.49918C22.0001 8.98318 19.9861 10.9972 17.5011 10.9972C15.0171 10.9972 13.0021 8.98318 13.0021 6.49918C13.0021 4.01418 15.0171 2.00018 17.5011 2.00018C19.9861 2.00018 22.0001 4.01418 22.0001 6.49918ZM12 3L10.3572 3C9.2734 2.99999 8.39925 2.99998 7.69137 3.05782C6.96252 3.11737 6.32233 3.24318 5.73004 3.54497C4.78923 4.02433 4.02433 4.78924 3.54496 5.73005C3.24317 6.32234 3.11736 6.96253 3.05781 7.69138C2.99998 8.39925 2.99998 9.2734 2.99999 10.3572V10.3572V13.6428V13.6428C2.99998 14.7266 2.99998 15.6007 3.05781 16.3086C3.11736 17.0375 3.24317 17.6777 3.54496 18.27C4.02433 19.2108 4.78923 19.9757 5.73004 20.455C6.32233 20.7568 6.96252 20.8826 7.69137 20.9422C8.39922 21 9.27333 21 10.3571 21H10.3572H13.6428H13.6429C14.7267 21 15.6008 21 16.3086 20.9422C17.0375 20.8826 17.6777 20.7568 18.2699 20.455C19.2108 19.9757 19.9757 19.2108 20.455 18.27C20.7568 17.6777 20.8826 17.0375 20.9422 16.3086C21 15.6008 21 14.7267 21 13.6429V13.6428V12H19V13.6C19 14.7366 18.9992 15.5289 18.9488 16.1458C18.8994 16.7509 18.8072 17.0986 18.673 17.362C18.3854 17.9265 17.9265 18.3854 17.362 18.673C17.0986 18.8072 16.7509 18.8994 16.1458 18.9488C15.5289 18.9992 14.7366 19 13.6 19H10.4C9.26339 19 8.47108 18.9992 7.85423 18.9488C7.24907 18.8994 6.90138 18.8072 6.63802 18.673C6.07354 18.3854 5.61459 17.9265 5.32697 17.362C5.19279 17.0986 5.10061 16.7509 5.05117 16.1458C5.00077 15.5289 4.99999 14.7366 4.99999 13.6V10.4C4.99999 9.26339 5.00077 8.47108 5.05117 7.85424C5.10061 7.24907 5.19279 6.90138 5.32697 6.63803C5.61459 6.07354 6.07354 5.6146 6.63802 5.32698C6.90138 5.19279 7.24907 5.10062 7.85423 5.05118C8.47108 5.00078 9.26339 5 10.4 5H12V3Z" fill="#313234"/>
</svg>
