<svg width="24" height="24" viewBox="0 0 24 24" fill="none" xmlns="http://www.w3.org/2000/svg">
<path fill-rule="evenodd" clip-rule="evenodd" d="M15.832 1.00043C15.832 1.00043 16.104 2.62843 14.799 4.19743C13.405 5.87243 11.82 5.59743 11.82 5.59743C11.82 5.59743 11.523 4.28043 12.692 2.74043C14.006 1.00943 15.832 1.00043 15.832 1.00043ZM19.4688 7.80975C19.4688 7.80975 17.3058 8.91475 17.3058 11.5988C17.3058 14.6258 19.9998 15.6688 19.9998 15.6688C19.9998 15.6688 18.1168 20.9708 15.5728 20.9708C14.9959 20.9708 14.4822 20.7788 13.962 20.5844C13.4281 20.3849 12.8873 20.1828 12.2638 20.1828C11.5688 20.1828 10.8762 20.4337 10.2587 20.6575C9.76221 20.8374 9.31429 20.9998 8.9528 20.9998C6.6308 20.9998 3.6958 15.9708 3.6958 11.9288C3.6958 7.95175 6.1798 5.86575 8.5098 5.86575C9.39023 5.86575 10.1562 6.16059 10.7978 6.40758C11.2603 6.58559 11.6582 6.73875 11.9878 6.73875C12.2524 6.73875 12.6056 6.59641 13.0354 6.42317C13.7037 6.15381 14.5574 5.80975 15.5518 5.80975C18.3628 5.80975 19.4688 7.80975 19.4688 7.80975Z" fill="#313234"/>
</svg>
