<svg width="24" height="24" viewBox="0 0 24 24" fill="none" xmlns="http://www.w3.org/2000/svg">
<path fill-rule="evenodd" clip-rule="evenodd" d="M9 9.00012H5V5.00012H9V9.00012ZM3.5 3.00012H10.5C10.776 3.00012 11 3.22412 11 3.50012V10.5001C11 10.7761 10.776 11.0001 10.5 11.0001H3.5C3.224 11.0001 3 10.7761 3 10.5001V3.50012C3 3.22412 3.224 3.00012 3.5 3.00012ZM19 9.00012H15V5.00012H19V9.00012ZM20.5 11.0001H13.5C13.224 11.0001 13 10.7761 13 10.5001V3.50012C13 3.22412 13.224 3.00012 13.5 3.00012H20.5C20.776 3.00012 21 3.22412 21 3.50012V10.5001C21 10.7761 20.776 11.0001 20.5 11.0001ZM5 19.0001H9V15.0001H5V19.0001ZM10.5 13.0001H3.5C3.224 13.0001 3 13.2241 3 13.5001V20.5001C3 20.7761 3.224 21.0001 3.5 21.0001H10.5C10.776 21.0001 11 20.7761 11 20.5001V13.5001C11 13.2241 10.776 13.0001 10.5 13.0001ZM18.0002 16.0001H21.0002V18.0001H18.0002V21.0001H16.0002V18.0001H13.0002V16.0001H16.0002V13.0001H18.0002V16.0001Z" fill="#313234"/>
</svg>
