<svg width="24" height="24" viewBox="0 0 24 24" fill="none" xmlns="http://www.w3.org/2000/svg">
<path fill-rule="evenodd" clip-rule="evenodd" d="M17.9971 6.00016V6.00012H17.9971C17.9971 6.00013 17.9971 6.00013 17.9971 6.00014C17.9971 6.00014 17.9971 6.00015 17.9971 6.00016ZM17.9971 7.41433C17.9971 7.41434 17.9971 7.41434 17.9971 7.41435L5.41132 20.0001C5.02079 20.3907 4.38763 20.3907 3.9971 20.0001C3.60658 19.6096 3.60658 18.9764 3.9971 18.5859L16.5829 6.00014C16.5829 6.00013 16.5829 6.00013 16.5829 6.00012H4.99712C4.44484 6.00012 3.99712 5.55241 3.99712 5.00012C3.99712 4.44784 4.44484 4.00012 4.99712 4.00012H18.4971C19.3256 4.00012 19.9971 4.67169 19.9971 5.50012V19.0001C19.9971 19.5524 19.5494 20.0001 18.9971 20.0001C18.4448 20.0001 17.9971 19.5524 17.9971 19.0001V7.41433Z" fill="#313234"/>
</svg>
