<svg width="24" height="24" viewBox="0 0 24 24" fill="none" xmlns="http://www.w3.org/2000/svg">
<path fill-rule="evenodd" clip-rule="evenodd" d="M21 6.64985C21 6.25467 20.7673 5.89654 20.4061 5.73604L12.4061 2.18049C12.1476 2.06557 11.8524 2.06557 11.5939 2.18049L3.59386 5.73604C3.23273 5.89654 3 6.25467 3 6.64985V7.99998C3 8.55227 3.44772 8.99998 4 8.99998H20C20.5523 8.99998 21 8.55227 21 7.99998V6.64985ZM5.673 6.99998L12 4.18798L18.326 6.99998H5.673Z" fill="#313234"/>
<path d="M5 11C5 10.4477 5.44772 9.99998 6 9.99998C6.55228 9.99998 7 10.4477 7 11V17C7 17.5523 6.55228 18 6 18C5.44772 18 5 17.5523 5 17V11Z" fill="#313234"/>
<path d="M19 11C19 10.4477 18.5523 9.99998 18 9.99998C17.4477 9.99998 17 10.4477 17 11V17C17 17.5523 17.4477 18 18 18C18.5523 18 19 17.5523 19 17V11Z" fill="#313234"/>
<path d="M4 19C3.44772 19 3 19.4477 3 20C3 20.5523 3.44772 21 4 21H20C20.5523 21 21 20.5523 21 20C21 19.4477 20.5523 19 20 19H4Z" fill="#313234"/>
<path d="M12.3247 13.296L13.068 13.592C13.804 13.888 14.2433 14.3833 14.2433 15.2233C14.2433 16.0413 13.67 16.7693 12.6633 17.002V18H11.33V17.0173C10.7593 16.9033 10.1973 16.6433 9.75 16.2306L10.5573 15.2466C10.9813 15.6066 11.5327 15.8546 12.0047 15.8546C12.5327 15.8546 12.78 15.6546 12.78 15.3353C12.78 15.0146 12.4954 14.8955 12.0419 14.7058C12.009 14.692 11.9753 14.6779 11.9407 14.6633L11.1813 14.3433C10.5573 14.096 9.974 13.576 9.974 12.7126C9.974 11.9426 10.5087 11.2953 11.33 11.0366V9.99998H12.6633V10.966C13.1787 11.066 13.6807 11.31 14.068 11.6973L13.356 12.5926C12.964 12.2966 12.596 12.1366 12.1327 12.1366C11.6927 12.1366 11.4207 12.3126 11.4207 12.6326C11.4207 12.9428 11.7569 13.0741 12.2399 13.2628C12.2677 13.2737 12.2959 13.2847 12.3247 13.296Z" fill="#313234"/>
</svg>
