<svg width="24" height="24" viewBox="0 0 24 24" fill="none" xmlns="http://www.w3.org/2000/svg">
<path fill-rule="evenodd" clip-rule="evenodd" d="M17.6569 6.34321C14.5327 3.21901 9.46734 3.21901 6.34315 6.34321C3.21895 9.4674 3.21895 14.5327 6.34315 17.6569C6.73367 18.0474 6.73367 18.6806 6.34315 19.0711C5.95262 19.4617 5.31946 19.4617 4.92893 19.0711C1.02369 15.1659 1.02369 8.83424 4.92893 4.92899C8.83418 1.02375 15.1658 1.02375 19.0711 4.92899C22.9763 8.83424 22.9763 15.1659 19.0711 19.0711C18.6805 19.4617 18.0474 19.4617 17.6569 19.0711C17.2663 18.6806 17.2663 18.0474 17.6569 17.6569C20.781 14.5327 20.781 9.4674 17.6569 6.34321ZM9.17157 9.17164C10.7337 7.60954 13.2663 7.60954 14.8284 9.17164C16.3905 10.7337 16.3905 13.2664 14.8284 14.8285C14.4379 15.219 14.4379 15.8522 14.8284 16.2427C15.219 16.6332 15.8521 16.6332 16.2426 16.2427C18.5858 13.8996 18.5858 10.1006 16.2426 7.75743C13.8995 5.41428 10.1005 5.41428 7.75736 7.75743C5.41421 10.1006 5.41421 13.8996 7.75736 16.2427C8.14788 16.6332 8.78105 16.6332 9.17157 16.2427C9.5621 15.8522 9.5621 15.219 9.17157 14.8285C7.60948 13.2664 7.60948 10.7337 9.17157 9.17164ZM11 13.7325C10.4022 13.3866 10 12.7403 10 12C10 10.8954 10.8954 10 12 10C13.1046 10 14 10.8954 14 12C14 12.7403 13.5978 13.3866 13 13.7325V21.0001C13 21.5523 12.5523 22.0001 12 22.0001C11.4477 22.0001 11 21.5523 11 21.0001V13.7325Z" fill="#313234"/>
</svg>
