<svg width="24" height="24" viewBox="0 0 24 24" fill="none" xmlns="http://www.w3.org/2000/svg">
<path fill-rule="evenodd" clip-rule="evenodd" d="M11.9998 6.64782C9.55278 6.64782 7.50578 8.30882 6.87078 10.5558L4.14378 5.83282C5.97678 3.50382 8.81378 1.99982 11.9998 1.99982C15.5438 1.99982 18.6568 3.85882 20.4328 6.64782H12.0568L12.0378 6.65182C12.0313 6.65182 12.025 6.65082 12.0188 6.64982L12.0188 6.64982C12.0125 6.64882 12.0063 6.64782 11.9998 6.64782ZM12 15.7211C9.94898 15.7211 8.27998 14.0511 8.27998 12.0001C8.27998 9.94809 9.94898 8.28009 12 8.28009C14.052 8.28009 15.721 9.94809 15.721 12.0001C15.721 14.0511 14.052 15.7211 12 15.7211ZM21.2746 8.2804H15.8356C16.7716 9.2444 17.3536 10.5534 17.3536 12.0004C17.3536 12.9504 17.0836 13.8314 16.6466 14.6054C16.64 14.6218 16.6358 14.6387 16.6316 14.6555C16.6256 14.6798 16.6196 14.704 16.6066 14.7264L12.4196 21.9784C17.7376 21.7574 22.0006 17.3734 22.0006 12.0004C22.0006 10.6844 21.7386 9.4314 21.2746 8.2804ZM12.0002 17.353C12.4542 17.353 12.8882 17.278 13.3092 17.172L10.5862 21.888C5.74118 21.197 2.00018 17.033 2.00018 12C2.00018 10.328 2.41718 8.75404 3.14518 7.36804L7.33618 14.627C7.34734 14.6455 7.36224 14.6601 7.37723 14.6749C7.38909 14.6866 7.40102 14.6983 7.41118 14.712C8.34418 16.284 10.0412 17.353 12.0002 17.353Z" fill="#313234"/>
</svg>
