<svg width="24" height="24" viewBox="0 0 24 24" fill="none" xmlns="http://www.w3.org/2000/svg">
<path fill-rule="evenodd" clip-rule="evenodd" d="M18.2932 11.7081H13.7932C12.9662 11.7081 12.2932 11.0351 12.2932 10.2081V5.70812C12.2932 5.15583 12.7409 4.70812 13.2932 4.70812C13.8455 4.70812 14.2932 5.15583 14.2932 5.70812V8.29012L18.8786 3.70732C19.2693 3.31679 19.9031 3.31743 20.2934 3.70835C20.6836 4.09909 20.6836 4.73245 20.2929 5.12273L15.7032 9.70812L18.2932 9.70812C18.8455 9.70812 19.2932 10.1558 19.2932 10.7081C19.2932 11.2604 18.8455 11.7081 18.2932 11.7081ZM7.75088 16.2533C2.58593 11.0883 2.58593 6.56898 4.19998 4.95493C5.16841 3.9865 6.58425 3.72373 7.42807 4.3093C8.20282 4.82581 9.36494 6.28349 9.36493 7.53741C9.36493 8.29365 8.80701 8.94394 8.34719 9.47989C8.0219 9.85905 7.7457 10.181 7.75088 10.4427C7.76339 11.0744 8.45799 12.7177 9.8722 14.1319C11.2864 15.5462 12.9298 16.2408 13.5615 16.2533C13.8232 16.2584 14.1451 15.9823 14.5243 15.657C15.0602 15.1971 15.7105 14.6392 16.4667 14.6392C17.7207 14.6392 19.1783 15.8013 19.6948 16.5761C20.2804 17.4199 20.0176 18.8357 19.0492 19.8042C17.4352 21.4182 12.9158 21.4182 7.75088 16.2533Z" fill="#313234"/>
</svg>
