<svg width="24" height="24" viewBox="0 0 24 24" fill="none" xmlns="http://www.w3.org/2000/svg">
<path fill-rule="evenodd" clip-rule="evenodd" d="M12.4142 8.36393C11.6686 7.61839 11.6348 6.43067 12.3125 5.64493L12.4142 5.5355L15.2426 2.70708C15.6331 2.31655 16.2663 2.31655 16.6568 2.70708C17.0474 3.0976 17.0474 3.73077 16.6568 4.12129L14.7782 5.99997H19C20.5977 5.99997 21.9036 7.24889 21.9949 8.8237L22 8.99997V11.5C22 12.0523 21.5523 12.5 21 12.5C20.4477 12.5 20 12.0523 20 11.5V8.99997C20 8.48714 19.6139 8.06446 19.1166 8.0067L19 7.99997H14.8787L16.6568 9.77815C17.0474 10.1687 17.0474 10.8018 16.6568 11.1924C16.2663 11.5829 15.6331 11.5829 15.2426 11.1924L12.4142 8.36393ZM7.75088 16.2532C2.58593 11.0883 2.58593 6.56893 4.19998 4.95488C5.16841 3.98645 6.58425 3.72368 7.42807 4.30926C8.20282 4.82576 9.36494 6.28344 9.36493 7.53736C9.36493 8.2936 8.80701 8.94389 8.34719 9.47984C8.0219 9.859 7.7457 10.1809 7.75088 10.4426C7.76339 11.0743 8.45799 12.7177 9.8722 14.1319C11.2864 15.5461 12.9298 16.2407 13.5615 16.2532C13.8232 16.2584 14.1451 15.9822 14.5243 15.6569C15.0602 15.1971 15.7105 14.6392 16.4667 14.6392C17.7207 14.6392 19.1783 15.8013 19.6948 16.576C20.2804 17.4198 20.0176 18.8357 19.0492 19.8041C17.4352 21.4182 12.9158 21.4182 7.75088 16.2532Z" fill="#313234"/>
</svg>
