<svg width="24" height="24" viewBox="0 0 24 24" fill="none" xmlns="http://www.w3.org/2000/svg">
<path fill-rule="evenodd" clip-rule="evenodd" d="M15.0002 3.00012H19.5002C20.3272 3.00012 21.0002 3.67312 21.0002 4.50012V9.00012C21.0002 9.55241 20.5525 10.0001 20.0002 10.0001C19.4479 10.0001 19.0002 9.55241 19.0002 9.00012V6.41812L14.4148 11.0009C14.024 11.3914 13.3903 11.3908 13 10.9999C12.6098 10.6092 12.6098 9.97579 13.0005 9.58552L17.5902 5.00012H15.0002C14.4479 5.00012 14.0002 4.55241 14.0002 4.00012C14.0002 3.44784 14.4479 3.00012 15.0002 3.00012ZM7.75088 16.2533C2.58593 11.0883 2.58593 6.56898 4.19998 4.95493C5.16841 3.98651 6.58425 3.72373 7.42807 4.30931C8.20282 4.82581 9.36494 6.2835 9.36493 7.53741C9.36493 8.29365 8.80701 8.94395 8.34719 9.4799C8.0219 9.85905 7.7457 10.181 7.75088 10.4427C7.76339 11.0744 8.45799 12.7177 9.8722 14.132C11.2864 15.5462 12.9298 16.2408 13.5615 16.2533C13.8232 16.2585 14.1451 15.9823 14.5243 15.657C15.0602 15.1971 15.7105 14.6392 16.4667 14.6392C17.7207 14.6392 19.1783 15.8013 19.6948 16.5761C20.2804 17.4199 20.0176 18.8357 19.0492 19.8042C17.4352 21.4182 12.9158 21.4182 7.75088 16.2533Z" fill="#313234"/>
</svg>
