<svg width="24" height="24" viewBox="0 0 24 24" fill="none" xmlns="http://www.w3.org/2000/svg">
<path d="M19.071 6.34309C19.4616 5.95257 19.4616 5.3194 19.071 4.92888C18.6805 4.53836 18.0474 4.53835 17.6568 4.92888L12 10.5857L6.34314 4.92888C5.95262 4.53836 5.31945 4.53836 4.92893 4.92888C4.5384 5.3194 4.5384 5.95257 4.92893 6.34309L10.5858 11.9999L4.92891 17.6568C4.53839 18.0473 4.53839 18.6805 4.92891 19.071C5.31943 19.4615 5.9526 19.4615 6.34312 19.071L12 13.4142L17.6568 19.071C18.0474 19.4615 18.6805 19.4615 19.0711 19.071C19.4616 18.6805 19.4616 18.0473 19.0711 17.6568L13.4142 11.9999L19.071 6.34309Z" fill="#313234"/>
</svg>
