<svg width="24" height="24" viewBox="0 0 24 24" fill="none" xmlns="http://www.w3.org/2000/svg">
<path fill-rule="evenodd" clip-rule="evenodd" d="M16.9499 8.46442C17.3404 8.07395 17.3404 7.44088 16.9499 7.05042C16.5594 6.65995 15.9264 6.65995 15.5359 7.05042L11.9999 10.5864L8.4649 7.05058C8.07445 6.66004 7.44131 6.66 7.05081 7.0505C6.66038 7.44093 6.66034 8.07394 7.05073 8.46442L10.5859 12.0004L7.0509 15.5354C6.66043 15.9259 6.66043 16.559 7.0509 16.9494C7.44136 17.3399 8.07443 17.3399 8.4649 16.9494L11.9999 13.4144L15.5359 16.9496C15.9264 17.34 16.5594 17.3399 16.9498 16.9495C17.3403 16.559 17.3403 15.9259 16.9497 15.5354L13.4139 12.0004L16.9499 8.46442Z" fill="#313234"/>
</svg>
