<svg width="24" height="24" viewBox="0 0 24 24" fill="none" xmlns="http://www.w3.org/2000/svg">
<path fill-rule="evenodd" clip-rule="evenodd" d="M6.34871 6.33711C7.87171 4.81811 9.87671 4.00011 11.9977 4.00011C12.4427 4.00011 12.8927 4.03611 13.3447 4.10911C16.5797 4.63211 19.1867 7.14211 19.8337 10.3541C20.2107 12.2281 19.9437 14.0931 19.0597 15.7481C18.7167 16.3921 18.6487 17.1071 18.8667 17.7631L19.4187 19.4181L17.7627 18.8671C17.1047 18.6481 16.3907 18.7181 15.7477 19.0601C14.2377 19.8671 12.5337 20.1621 10.8217 19.9151C7.40871 19.4221 4.64771 16.7131 4.10571 13.3271C3.68971 10.7231 4.50771 8.17511 6.34871 6.33711ZM10.5357 21.8941C11.0247 21.9651 11.5137 22.0001 11.9997 22.0001C13.6347 22.0001 15.2337 21.6021 16.6907 20.8241C16.7787 20.7771 16.9557 20.7061 17.1297 20.7641L19.7347 21.6321C20.2757 21.8121 20.8657 21.6741 21.2697 21.2701C21.6747 20.8651 21.8127 20.2771 21.6327 19.7351L20.7647 17.1311C20.7057 16.9551 20.7767 16.7781 20.8247 16.6891C21.9287 14.6211 22.2647 12.2941 21.7947 9.95911C20.9847 5.93511 17.7167 2.79111 13.6637 2.13511C10.4207 1.61011 7.2367 2.62511 4.9357 4.92211C2.6347 7.21811 1.6127 10.3971 2.1317 13.6431C2.8097 17.8841 6.2657 21.2771 10.5357 21.8941ZM9.92309 9.07695C9.92309 10.224 9.62021 11.1539 8.71155 11.1539C7.80289 11.1539 7.5 10.224 7.5 9.07695C7.5 7.92989 7.80289 7.00002 8.71155 7.00002C9.62021 7.00002 9.92309 7.92989 9.92309 9.07695ZM12.0001 13.9232C10.6005 13.9232 9.87998 12.7914 9.65547 11.9922C9.58078 11.7264 9.80084 11.5001 10.077 11.5001H13.9232C14.1993 11.5001 14.4194 11.7264 14.3447 11.9922C14.1202 12.7914 13.3996 13.9232 12.0001 13.9232ZM16.5 9.07695C16.5 10.224 16.1971 11.1539 15.2885 11.1539C14.3798 11.1539 14.0769 10.224 14.0769 9.07695C14.0769 7.92989 14.3798 7.00002 15.2885 7.00002C16.1971 7.00002 16.5 7.92989 16.5 9.07695Z" fill="#313234"/>
</svg>
