<svg width="24" height="24" viewBox="0 0 24 24" fill="none" xmlns="http://www.w3.org/2000/svg">
<path fill-rule="evenodd" clip-rule="evenodd" d="M4.93635 4.92219C6.84199 3.01986 9.34915 1.99751 12 2V4.00019L11.9983 4.00019C9.87734 4.00019 7.87134 4.81819 6.34934 6.33819C4.50834 8.17519 3.69033 10.7232 4.10633 13.3272C4.64833 16.7132 7.40933 19.4222 10.8223 19.9152C12.5333 20.1622 14.2383 19.8662 15.7483 19.0612C16.3903 18.7172 17.1053 18.6482 17.7633 18.8672L19.4193 19.4192L18.8673 17.7642C18.6493 17.1082 18.7173 16.3922 19.0603 15.7482C19.6844 14.5799 20.0009 13.3069 20.0005 12H22V11.8069C22.0341 13.5076 21.6379 15.1684 20.8253 16.6892C20.7773 16.7782 20.7063 16.9562 20.7653 17.1322L21.6333 19.7352C21.8133 20.2782 21.6753 20.8662 21.2703 21.2702C20.8663 21.6752 20.2773 21.8112 19.7353 21.6332L17.1303 20.7652C16.9563 20.7062 16.7793 20.7762 16.6903 20.8242C15.2343 21.6022 13.6363 22.0002 12.0003 22.0002C11.5143 22.0002 11.0253 21.9652 10.5363 21.8942C6.26635 21.2782 2.81035 17.8842 2.13235 13.6432C1.61335 10.3972 2.63535 7.21919 4.93635 4.92219ZM17.2929 3.70711L19.5858 6H14V8H19.5858L17.2929 10.2929L18.7071 11.7071L22.7071 7.70711C22.8946 7.51957 23 7.26522 23 7C23 6.73478 22.8946 6.48043 22.7071 6.29289L18.7071 2.29289L17.2929 3.70711Z" fill="#313234"/>
</svg>
