<svg width="24" height="24" viewBox="0 0 24 24" fill="none" xmlns="http://www.w3.org/2000/svg">
<path fill-rule="evenodd" clip-rule="evenodd" d="M4.93638 4.92219C6.84202 3.01986 9.34918 1.99751 12 2V4.00019L11.9984 4.00019C9.87737 4.00019 7.87137 4.81819 6.34937 6.33819C4.50837 8.17519 3.69037 10.7232 4.10637 13.3272C4.64837 16.7132 7.40937 19.4222 10.8224 19.9152C12.5334 20.1622 14.2384 19.8662 15.7484 19.0612C16.3904 18.7172 17.1054 18.6482 17.7634 18.8672L19.4194 19.4192L18.8674 17.7642C18.6494 17.1082 18.7174 16.3922 19.0604 15.7482C19.6844 14.5799 20.001 13.3069 20.0006 12H22V11.8069C22.0342 13.5076 21.638 15.1684 20.8254 16.6892C20.7774 16.7782 20.7064 16.9562 20.7654 17.1322L21.6334 19.7352C21.8134 20.2782 21.6754 20.8662 21.2704 21.2702C20.8664 21.6752 20.2774 21.8112 19.7354 21.6332L17.1304 20.7652C16.9564 20.7062 16.7794 20.7762 16.6904 20.8242C15.2344 21.6022 13.6364 22.0002 12.0004 22.0002C11.5144 22.0002 11.0254 21.9652 10.5364 21.8942C6.26638 21.2782 2.81038 17.8842 2.13238 13.6432C1.61338 10.3972 2.63538 7.21919 4.93638 4.92219ZM17.2929 3.70711L19.5858 6H14V8H19.5858L17.2929 10.2929L18.7071 11.7071L22.7071 7.70711C22.8947 7.51957 23 7.26522 23 7C23 6.73478 22.8947 6.48043 22.7071 6.29289L18.7071 2.29289L17.2929 3.70711Z" fill="#313234"/>
</svg>
