<svg width="24" height="24" viewBox="0 0 24 24" fill="none" xmlns="http://www.w3.org/2000/svg">
<path fill-rule="evenodd" clip-rule="evenodd" d="M18.8683 17.7642C18.6493 17.1072 18.7183 16.3912 19.0613 15.7472C19.9443 14.0942 20.2123 12.2292 19.8343 10.3542C19.1883 7.14318 16.5803 4.63318 13.3453 4.10918C12.8943 4.03618 12.4433 4.00018 11.9993 4.00018C9.87729 4.00018 7.87229 4.81818 6.35029 6.33818C4.50829 8.17518 3.69129 10.7232 4.10729 13.3272C4.64829 16.7132 7.41029 19.4222 10.8223 19.9152C12.5333 20.1622 14.2393 19.8662 15.7483 19.0602C16.3923 18.7172 17.1063 18.6482 17.7643 18.8672L19.4193 19.4192L18.8683 17.7642ZM20.8253 16.6892C20.7783 16.7792 20.7073 16.9552 20.7653 17.1322L21.6333 19.7352C21.8143 20.2782 21.6753 20.8662 21.2713 21.2702C20.8663 21.6752 20.2763 21.8112 19.7363 21.6332L17.1313 20.7652C16.9573 20.7072 16.7803 20.7772 16.6913 20.8242C15.2353 21.6022 13.6363 22.0002 12.0003 22.0002C11.5153 22.0002 11.0263 21.9652 10.5363 21.8942C6.2663 21.2782 2.8103 17.8842 2.1323 13.6432C1.6133 10.3972 2.6363 7.21818 4.9363 4.92218C7.2383 2.62518 10.4213 1.61118 13.6643 2.13518C17.7183 2.79118 20.9853 5.93518 21.7953 9.96018C22.2653 12.2952 21.9303 14.6222 20.8253 16.6892ZM10.9939 7.61043C11.0549 7.06152 10.6593 6.5671 10.1104 6.50611C9.56152 6.44512 9.0671 6.84066 9.00611 7.38956L8.88273 8.5H8C7.44772 8.5 7 8.94772 7 9.5C7 10.0523 7.44771 10.5 8 10.5H8.66051L8.32718 13.5H7.5C6.94772 13.5 6.5 13.9477 6.5 14.5C6.5 15.0523 6.94771 15.5 7.5 15.5H8.10495L8.00611 16.3896C7.94512 16.9385 8.34066 17.4329 8.88956 17.4939C9.43847 17.5549 9.93289 17.1593 9.99388 16.6104L10.1173 15.5H13.105L13.0061 16.3896C12.9451 16.9385 13.3407 17.4329 13.8896 17.4939C14.4385 17.5549 14.9329 17.1593 14.9939 16.6104L15.1173 15.5H16.5C17.0523 15.5 17.5 15.0523 17.5 14.5C17.5 13.9477 17.0523 13.5 16.5 13.5H15.3395L15.6728 10.5H17C17.5523 10.5 18 10.0523 18 9.5C18 8.94772 17.5523 8.5 17 8.5H15.895L15.9939 7.61043C16.0549 7.06152 15.6593 6.5671 15.1104 6.50611C14.5615 6.44512 14.0671 6.84066 14.0061 7.38956L13.8827 8.5H10.895L10.9939 7.61043ZM13.6605 10.5L13.3272 13.5H10.3395L10.6728 10.5H13.6605Z" fill="#313234"/>
</svg>
