<svg width="24" height="24" viewBox="0 0 24 24" fill="none" xmlns="http://www.w3.org/2000/svg">
<path fill-rule="evenodd" clip-rule="evenodd" d="M19.0613 15.7472C18.7183 16.3912 18.6493 17.1072 18.8683 17.7642L19.4193 19.4192L17.7643 18.8672C17.1063 18.6482 16.3923 18.7172 15.7483 19.0602C14.2393 19.8662 12.5333 20.1622 10.8223 19.9152C7.41029 19.4222 4.64829 16.7132 4.10729 13.3272C3.69129 10.7232 4.50829 8.17518 6.35029 6.33818C7.87229 4.81818 9.87729 4.00018 11.9993 4.00018C12.4433 4.00018 12.8943 4.03618 13.3453 4.10918C16.5803 4.63318 19.1883 7.14318 19.8343 10.3542C20.2123 12.2292 19.9443 14.0942 19.0613 15.7472ZM20.7653 17.1322C20.7073 16.9552 20.7783 16.7792 20.8253 16.6892C21.9303 14.6222 22.2653 12.2952 21.7953 9.96018C20.9853 5.93518 17.7183 2.79118 13.6643 2.13518C10.4213 1.61118 7.2383 2.62518 4.9363 4.92218C2.6363 7.21818 1.6133 10.3972 2.1323 13.6432C2.8103 17.8842 6.2663 21.2782 10.5363 21.8942C11.0263 21.9652 11.5153 22.0002 12.0003 22.0002C13.6363 22.0002 15.2353 21.6022 16.6913 20.8242C16.7803 20.7772 16.9573 20.7072 17.1313 20.7652L19.7363 21.6332C20.2763 21.8112 20.8663 21.6752 21.2713 21.2702C21.6753 20.8662 21.8143 20.2782 21.6333 19.7352L20.7653 17.1322Z" fill="#313234"/>
<path fill-rule="evenodd" clip-rule="evenodd" d="M10.1104 6.50611C10.6593 6.5671 11.0549 7.06152 10.9939 7.61043L10.895 8.5H13.8827L14.0061 7.38957C14.0671 6.84066 14.5615 6.44512 15.1104 6.50611C15.6593 6.5671 16.0549 7.06152 15.9939 7.61043L15.895 8.5H17C17.5523 8.5 18 8.94772 18 9.5C18 10.0523 17.5523 10.5 17 10.5H15.6728L15.3395 13.5H16.5C17.0523 13.5 17.5 13.9477 17.5 14.5C17.5 15.0523 17.0523 15.5 16.5 15.5H15.1173L14.9939 16.6104C14.9329 17.1593 14.4385 17.5549 13.8896 17.4939C13.3407 17.4329 12.9451 16.9385 13.0061 16.3896L13.105 15.5H10.1173L9.99388 16.6104C9.93289 17.1593 9.43847 17.5549 8.88956 17.4939C8.34066 17.4329 7.94512 16.9385 8.00611 16.3896L8.10495 15.5H7.5C6.94771 15.5 6.5 15.0523 6.5 14.5C6.5 13.9477 6.94772 13.5 7.5 13.5H8.32718L8.66051 10.5H8C7.44771 10.5 7 10.0523 7 9.5C7 8.94772 7.44772 8.5 8 8.5H8.88273L9.00611 7.38957C9.0671 6.84066 9.56152 6.44512 10.1104 6.50611ZM13.3272 13.5L13.6605 10.5H10.6728L10.3395 13.5H13.3272Z" fill="#313234"/>
</svg>
