<svg width="24" height="24" viewBox="0 0 24 24" fill="none" xmlns="http://www.w3.org/2000/svg">
<path fill-rule="evenodd" clip-rule="evenodd" d="M7.0002 3.00012H17.0002C19.2092 3.00012 21.0002 4.79112 21.0002 7.00012V17.0001C21.0002 19.2091 19.2092 21.0001 17.0002 21.0001H7.0002C4.7912 21.0001 3.0002 19.2091 3.0002 17.0001V7.00012C3.0002 4.79112 4.7912 3.00012 7.0002 3.00012ZM19.0002 7.00012C19.0002 5.89712 18.1032 5.00012 17.0002 5.00012H7.0002C5.8972 5.00012 5.0002 5.89712 5.0002 7.00012V17.0001C5.0002 18.1031 5.8972 19.0001 7.0002 19.0001H17.0002C18.1032 19.0001 19.0002 18.1031 19.0002 17.0001V7.00012ZM6.58598 12.1392L8.00044 10.7252L10.8603 13.5861L17.0002 7.44621L18.4144 8.86042L10.8601 16.4148L6.58598 12.1392Z" fill="#313234"/>
</svg>
