<svg width="24" height="24" viewBox="0 0 24 24" fill="none" xmlns="http://www.w3.org/2000/svg">
<path fill-rule="evenodd" clip-rule="evenodd" d="M12.6485 1.75275C12.2748 1.43423 11.7251 1.43423 11.3513 1.75275L8.93993 3.80771C8.77977 3.94421 8.58063 4.02669 8.37086 4.04343L5.21267 4.29546C4.72316 4.33452 4.33445 4.72323 4.29539 5.21274L4.04336 8.37093C4.02662 8.58069 3.94414 8.77983 3.80765 8.94L1.75268 11.3514C1.43417 11.7251 1.43417 12.2749 1.75268 12.6486L3.80765 15.06C3.94414 15.2202 4.02662 15.4193 4.04336 15.6291L4.29539 18.7873C4.33445 19.2768 4.72316 19.6655 5.21267 19.7045L8.37086 19.9566C8.58063 19.9733 8.77977 20.0558 8.93993 20.1923L11.3513 22.2473C11.7251 22.5658 12.2748 22.5658 12.6485 22.2473L15.0599 20.1923C15.2201 20.0558 15.4192 19.9733 15.629 19.9566L18.7872 19.7045C19.2767 19.6655 19.6654 19.2768 19.7045 18.7873L19.9565 15.6291C19.9732 15.4193 20.0557 15.2202 20.1922 15.06L22.2472 12.6486C22.5657 12.2749 22.5657 11.7251 22.2472 11.3514L20.1922 8.94C20.0557 8.77983 19.9732 8.58069 19.9565 8.37093L19.7045 5.21274C19.6654 4.72323 19.2767 4.33452 18.7872 4.29546L15.629 4.04343C15.4192 4.02669 15.2201 3.94421 15.0599 3.80771L12.6485 1.75275ZM6.65521 12.4164L10.8092 16.4044L17.8442 9.7944L16.4752 8.3374L10.8242 13.6464L8.04021 10.9734L6.65521 12.4164Z" fill="#313234"/>
</svg>
