<svg width="24" height="24" viewBox="0 0 24 24" fill="none" xmlns="http://www.w3.org/2000/svg">
<path fill-rule="evenodd" clip-rule="evenodd" d="M13.3592 1.25926C12.5923 0.548779 11.4077 0.548779 10.6408 1.25926L9.58614 2.23633C9.26899 2.53015 8.84048 2.67284 8.4105 2.62782L6.99803 2.47991C5.97768 2.37306 5.04197 3.05559 4.83205 4.05981L4.50746 5.61258C4.42229 6.02005 4.17162 6.3738 3.81541 6.58921L2.48329 7.39479C1.63205 7.90958 1.28854 8.97174 1.67716 9.88749L2.32497 11.414C2.48389 11.7885 2.48389 12.2115 2.32497 12.586L1.67716 14.1125C1.28854 15.0283 1.63204 16.0904 2.48329 16.6052L3.81541 17.4108C4.17162 17.6262 4.42229 17.98 4.50746 18.3874L4.83205 19.9402C5.04197 20.9444 5.97768 21.6269 6.99803 21.5201L8.4105 21.3722C8.84048 21.3272 9.26899 21.4699 9.58614 21.7637L10.6408 22.7407C11.4077 23.4512 12.5923 23.4512 13.3592 22.7407L14.4139 21.7637C14.731 21.4699 15.1595 21.3272 15.5895 21.3722L17.002 21.5201C18.0223 21.6269 18.958 20.9444 19.1679 19.9402L19.4925 18.3874C19.5777 17.98 19.8284 17.6262 20.1846 17.4108L21.5167 16.6052C22.368 16.0904 22.7115 15.0283 22.3228 14.1125L21.675 12.586C21.5161 12.2115 21.5161 11.7885 21.675 11.414L22.3228 9.88749C22.7115 8.97174 22.368 7.90957 21.5167 7.39479L20.1846 6.58921C19.8284 6.3738 19.5777 6.02005 19.4925 5.61258L19.1679 4.05981C18.958 3.05559 18.0223 2.37306 17.002 2.47991L15.5895 2.62782C15.1595 2.67284 14.731 2.53015 14.4139 2.23633L13.3592 1.25926ZM6.65521 12.4164L10.8092 16.4044L17.8442 9.7944L16.4752 8.3374L10.8242 13.6464L8.04021 10.9734L6.65521 12.4164Z" fill="#313234"/>
</svg>
