<svg width="24" height="24" viewBox="0 0 24 24" fill="none" xmlns="http://www.w3.org/2000/svg">
<path fill-rule="evenodd" clip-rule="evenodd" d="M10.3596 1.76218C9.63958 1.34231 8.71535 1.58996 8.30172 2.31359L7.79345 3.2028C7.52521 3.67209 7.02522 3.96076 6.48469 3.95842L5.46047 3.95399C4.62697 3.95038 3.95039 4.62697 3.95399 5.46046L3.95842 6.48468C3.96076 7.02522 3.67209 7.5252 3.20281 7.79344L2.31359 8.30172C1.58996 8.71534 1.34232 9.63958 1.76218 10.3596L2.27813 11.2444C2.55042 11.7113 2.55042 12.2887 2.27813 12.7556L1.76218 13.6404C1.34232 14.3604 1.58996 15.2847 2.31359 15.6983L3.20281 16.2066C3.67209 16.4748 3.96076 16.9748 3.95842 17.5153L3.95399 18.5395C3.95039 19.373 4.62698 20.0496 5.46047 20.046L6.48469 20.0416C7.02522 20.0392 7.52521 20.3279 7.79345 20.7972L8.30172 21.6864C8.71535 22.41 9.63958 22.6577 10.3596 22.2378L11.2444 21.7219C11.7113 21.4496 12.2887 21.4496 12.7556 21.7219L13.6404 22.2378C14.3604 22.6577 15.2847 22.41 15.6983 21.6864L16.2066 20.7972C16.4748 20.3279 16.9748 20.0392 17.5153 20.0416L18.5395 20.046C19.373 20.0496 20.0496 19.373 20.046 18.5395L20.0416 17.5153C20.0392 16.9748 20.3279 16.4748 20.7972 16.2066L21.6864 15.6983C22.41 15.2847 22.6577 14.3604 22.2378 13.6404L21.7219 12.7556C21.4496 12.2887 21.4496 11.7113 21.7219 11.2444L22.2378 10.3596C22.6577 9.63958 22.41 8.71534 21.6864 8.30172L20.7972 7.79344C20.3279 7.5252 20.0392 7.02522 20.0416 6.48468L20.046 5.46046C20.0496 4.62697 19.373 3.95038 18.5395 3.95399L17.5153 3.95842C16.9748 3.96075 16.4748 3.67209 16.2066 3.2028L15.6983 2.31359C15.2847 1.58996 14.3604 1.34231 13.6404 1.76218L12.7556 2.27813C12.2887 2.55042 11.7113 2.55042 11.2444 2.27813L10.3596 1.76218ZM6.65522 12.4164L10.8092 16.4044L17.8442 9.7944L16.4752 8.3374L10.8242 13.6464L8.04022 10.9734L6.65522 12.4164Z" fill="#313234"/>
</svg>
