<svg width="24" height="24" viewBox="0 0 24 24" fill="none" xmlns="http://www.w3.org/2000/svg">
<path d="M23.2975 5.7028C22.9092 5.31456 22.2798 5.31456 21.8915 5.7028L11.3665 16.2278L7.07251 11.9339C6.68475 11.5461 6.0561 11.546 5.66821 11.9336C5.28014 12.3214 5.28 12.9504 5.6679 13.3384L10.6594 18.3307C11.0499 18.7212 11.6831 18.7213 12.0736 18.3308L23.2974 7.1088C23.6857 6.72057 23.6857 6.09106 23.2975 5.7028Z" fill="#313234"/>
<path d="M18.3322 5.70283C17.9439 5.31458 17.3145 5.3146 16.9262 5.70288L10.6616 11.9683C10.2737 12.3563 10.2737 12.9853 10.6617 13.3733C11.0497 13.7613 11.6787 13.7613 12.0667 13.3734L18.3321 7.10878C18.7204 6.72056 18.7204 6.09108 18.3322 5.70283Z" fill="#313234"/>
<path d="M0.702484 13.3388C0.314504 12.9509 0.314504 12.3218 0.702484 11.9338C1.09046 11.5459 1.7195 11.5459 2.10748 11.9338L7.10448 16.9308C7.49246 17.3188 7.49246 17.9479 7.10448 18.3358C6.7165 18.7238 6.08747 18.7238 5.69949 18.3358L0.702484 13.3388Z" fill="#313234"/>
</svg>
