<svg width="24" height="24" viewBox="0 0 24 24" fill="none" xmlns="http://www.w3.org/2000/svg">
<path fill-rule="evenodd" clip-rule="evenodd" d="M19.9393 4.05711C19.5488 3.66659 18.9157 3.66659 18.5251 4.05711L14.7929 7.78936L12.8194 5.81587C12.5624 5.55885 12.4339 5.43034 12.3235 5.42165C12.2278 5.41412 12.1342 5.45287 12.0719 5.52589C12 5.61005 12 5.7918 12 6.15529V11.1965C12 11.4765 12 11.6165 12.0545 11.7235C12.1024 11.8175 12.1789 11.894 12.273 11.942C12.38 11.9965 12.52 11.9965 12.8 11.9965H17.8412C18.2047 11.9965 18.3864 11.9965 18.4706 11.9246C18.5436 11.8622 18.5823 11.7687 18.5748 11.6729C18.5661 11.5626 18.4376 11.4341 18.1806 11.1771L18.1806 11.1771L18.1806 11.1771L16.2071 9.20357L19.9393 5.47133C20.3299 5.0808 20.3299 4.44764 19.9393 4.05711ZM11.9246 18.4706C11.9965 18.3864 11.9965 18.2047 11.9965 17.8412V12.8C11.9965 12.52 11.9965 12.38 11.942 12.273C11.894 12.1789 11.8175 12.1024 11.7234 12.0545C11.6165 12 11.4765 12 11.1965 12H6.15527C5.79179 12 5.61004 12 5.52588 12.0719C5.45286 12.1342 5.41411 12.2278 5.42164 12.3235C5.43032 12.4339 5.55884 12.5624 5.81586 12.8194L7.78934 14.7929L4.05711 18.5251C3.66659 18.9156 3.66659 19.5488 4.05711 19.9393C4.44764 20.3299 5.0808 20.3299 5.47133 19.9393L9.20355 16.2071L11.177 18.1806C11.4341 18.4376 11.5626 18.5661 11.6729 18.5748C11.7687 18.5823 11.8622 18.5436 11.9246 18.4706Z" fill="#313234"/>
</svg>
