<svg width="24" height="24" viewBox="0 0 24 24" fill="none" xmlns="http://www.w3.org/2000/svg">
<path fill-rule="evenodd" clip-rule="evenodd" d="M3.50008 5.00011H20.5C21.327 5.00011 22 5.67311 22 6.50011V9.0001H20V7.0001H4.00008V17H14.0001L13.9999 19L1.00001 19.0001C0.447684 19.0001 -5.05581e-05 18.5523 4.28207e-09 17.9999C5.05661e-05 17.4477 0.447713 17.0001 0.999936 17L2.00009 17V6.50011C2.00009 5.67311 2.67308 5.00011 3.50008 5.00011ZM20.0061 19.9999H17.0061V12H20.0061V19.9999ZM15.5061 9.99997H21.506C21.782 9.99997 22.006 10.224 22.006 10.5V21.4999C22.006 21.7759 21.782 21.9999 21.506 21.9999H15.5061C15.2291 21.9999 15.0061 21.7759 15.0061 21.4999V10.5C15.0061 10.224 15.2291 9.99997 15.5061 9.99997Z" fill="#313234"/>
</svg>
