<svg width="24" height="24" viewBox="0 0 24 24" fill="none" xmlns="http://www.w3.org/2000/svg">
<path fill-rule="evenodd" clip-rule="evenodd" d="M21.6464 6.64647C21.8417 6.84173 21.8417 7.15832 21.6464 7.35358L18.0243 10.9758C17.6463 11.3537 17 11.086 17 10.5515V8H16.0985C15.2646 8 14.4683 8.34713 13.9007 8.9581L11.6291 11.4032C11.3884 11.6622 11.1231 11.8928 10.8383 12.0927C11.0508 12.2623 11.2505 12.4502 11.435 12.6552L13.5516 15.0069C14.1205 15.639 14.931 16 15.7814 16H17V13.6012C17 13.0667 17.6463 12.799 18.0243 13.1769L21.6464 16.7991C21.8417 16.9944 21.8417 17.311 21.6464 17.5062L18.0243 21.1284C17.6463 21.5064 17 21.2387 17 20.7041V18H15.7814C14.364 18 13.0132 17.3984 12.065 16.3448L9.94843 13.9931C9.37951 13.361 8.56901 13 7.71855 13H3C2.44772 13 2 12.5523 2 12C2 11.4477 2.44772 11 3 11H7.71855H7.96599C8.79994 11 9.59625 10.6529 10.1639 10.0419L12.4354 7.59684C13.3814 6.57855 14.7086 6 16.0985 6H17V3.44855C17 2.91401 17.6463 2.64631 18.0243 3.02429L21.6464 6.64647Z" fill="#313234"/>
</svg>
