<svg width="24" height="24" viewBox="0 0 24 24" fill="none" xmlns="http://www.w3.org/2000/svg">
<path fill-rule="evenodd" clip-rule="evenodd" d="M21.6464 6.64647C21.8417 6.84173 21.8417 7.15832 21.6464 7.35358L18.0243 10.9758C17.6463 11.3537 17 11.086 17 10.5515V8H14.8907C14.6072 8 14.3371 8.12032 14.1474 8.33104L10.8454 12L14.1474 15.669C14.3371 15.8797 14.6072 16 14.8907 16H17V13.6012C17 13.0667 17.6463 12.799 18.0243 13.1769L21.6464 16.7991C21.8417 16.9944 21.8417 17.311 21.6464 17.5062L18.0243 21.1284C17.6463 21.5064 17 21.2387 17 20.7041V18H14.8907C14.0403 18 13.2298 17.639 12.6608 17.0069L9.35257 13.331C9.16293 13.1203 8.89276 13 8.60928 13H3C2.44771 13 2 12.5523 2 12C2 11.4477 2.44771 11 3 11H8.60928C8.89276 11 9.16293 10.8797 9.35257 10.669L12.6608 6.99311C13.2298 6.36096 14.0403 6 14.8907 6H17V3.44855C17 2.91401 17.6463 2.64631 18.0243 3.02429L21.6464 6.64647Z" fill="#313234"/>
</svg>
