<svg width="24" height="24" viewBox="0 0 24 24" fill="none" xmlns="http://www.w3.org/2000/svg">
<path fill-rule="evenodd" clip-rule="evenodd" d="M9 4C9 3.44772 9.44772 3 10 3H14C14.5523 3 15 3.44772 15 4V9H17.5858C18.4767 9 18.9229 10.0771 18.2929 10.7071L12.7071 16.2929C12.3166 16.6834 11.6834 16.6834 11.2929 16.2929L5.70713 10.7071C5.07716 10.0771 5.52333 9 6.41424 9H9V4ZM4.88889 18C4.39797 18 4 18.4477 4 19V20C4 20.5523 4.39797 21 4.88889 21H19.1111C19.602 21 20 20.5523 20 20V19C20 18.4477 19.602 18 19.1111 18H4.88889Z" fill="#313234"/>
</svg>
