<svg width="24" height="24" viewBox="0 0 24 24" fill="none" xmlns="http://www.w3.org/2000/svg">
<path fill-rule="evenodd" clip-rule="evenodd" d="M9 8C10.104 8 11 7.1048 11 6C11 4.8952 10.104 4 9 4C7.8952 4 7 4.8952 7 6C7 7.1048 7.8952 8 9 8ZM9 14C10.104 14 11 13.1048 11 12C11 10.8952 10.104 10 9 10C7.8952 10 7 10.8952 7 12C7 13.1048 7.8952 14 9 14ZM11 18C11 19.1048 10.104 20 9 20C7.8952 20 7 19.1048 7 18C7 16.8952 7.8952 16 9 16C10.104 16 11 16.8952 11 18ZM15 8C16.104 8 17 7.1048 17 6C17 4.8952 16.104 4 15 4C13.8952 4 13 4.8952 13 6C13 7.1048 13.8952 8 15 8ZM17 12C17 13.1048 16.104 14 15 14C13.8952 14 13 13.1048 13 12C13 10.8952 13.8952 10 15 10C16.104 10 17 10.8952 17 12ZM15 20C16.104 20 17 19.1048 17 18C17 16.8952 16.104 16 15 16C13.8952 16 13 16.8952 13 18C13 19.1048 13.8952 20 15 20Z" fill="#313234"/>
</svg>
