<svg width="24" height="24" viewBox="0 0 24 24" fill="none" xmlns="http://www.w3.org/2000/svg">
<path fill-rule="evenodd" clip-rule="evenodd" d="M3.5002 19.0001H13V17.0001H4.0002V10.2831L11.0878 14.6144C11.6474 14.9572 12.353 14.9572 12.9135 14.6139L20.0002 10.2832V12H22L22.0002 12.0009V6.5001C22.0002 5.67181 21.3285 5.0001 20.5002 5.0001H3.5002C2.67191 5.0001 2.0002 5.67181 2.0002 6.5001V17.5001C2.0002 18.3284 2.67191 19.0001 3.5002 19.0001ZM20.0002 7.93927L12.0002 12.8281L4.0002 7.93926V7.0001H20.0002V7.93927Z" fill="#313234"/>
<path fill-rule="evenodd" clip-rule="evenodd" d="M20.5858 17L18.2929 14.7071L19.7071 13.2929L23.7071 17.2929C23.8946 17.4804 24 17.7348 24 18C24 18.2652 23.8946 18.5196 23.7071 18.7071L19.7071 22.7071L18.2929 21.2929L20.5858 19H15V17H20.5858Z" fill="#313234"/>
</svg>
