<svg width="24" height="24" viewBox="0 0 24 24" fill="none" xmlns="http://www.w3.org/2000/svg">
<path fill-rule="evenodd" clip-rule="evenodd" d="M3.50015 19.0001H20.5002C21.3284 19.0001 22.0002 18.3284 22.0002 17.5001V6.50012C22.0002 5.67184 21.3284 5.00012 20.5002 5.00012H3.50015C2.67187 5.00012 2.00015 5.67184 2.00015 6.50012V17.5001C2.00015 18.3284 2.67187 19.0001 3.50015 19.0001ZM4.02022 9.46735C4.30024 9.00913 4.89227 8.85403 5.36098 9.11609L12.0002 12.8281L18.6394 9.11609C19.1081 8.85403 19.7002 9.00913 19.9802 9.46734C20.2758 9.95114 20.1103 10.5837 19.6156 10.8607L12.9135 14.6139C12.353 14.9572 11.6474 14.9572 11.0878 14.6144L4.38476 10.8607C3.89007 10.5837 3.72457 9.95114 4.02022 9.46735Z" fill="#313234"/>
</svg>
