<svg width="24" height="24" viewBox="0 0 24 24" fill="none" xmlns="http://www.w3.org/2000/svg">
<path fill-rule="evenodd" clip-rule="evenodd" d="M13 19.0001H3.5002C2.67191 19.0001 2.0002 18.3284 2.0002 17.5001V6.5001C2.0002 5.67181 2.67191 5.0001 3.5002 5.0001H20.5002C21.3285 5.0001 22.0002 5.67181 22.0002 6.5001V12.0009L22 12H20.0002V10.2832L12.9135 14.6139C12.353 14.9572 11.6474 14.9572 11.0878 14.6144L4.0002 10.2831V17.0001H13V19.0001ZM12.0002 12.8281L20.0002 7.93927V7.0001H4.0002V7.93926L12.0002 12.8281ZM18.2929 14.7071L20.5858 17H15V19H20.5858L18.2929 21.2929L19.7071 22.7071L23.7071 18.7071C23.8946 18.5196 24 18.2652 24 18C24 17.7348 23.8946 17.4804 23.7071 17.2929L19.7071 13.2929L18.2929 14.7071Z" fill="#313234"/>
</svg>
