<svg width="24" height="24" viewBox="0 0 24 24" fill="none" xmlns="http://www.w3.org/2000/svg">
<path fill-rule="evenodd" clip-rule="evenodd" d="M22.0002 13.9437V6.50012C22.0002 5.67184 21.3285 5.00012 20.5002 5.00012H3.50021C2.67193 5.00012 2.00021 5.67184 2.00021 6.50012V17.5001C2.00021 18.3284 2.67193 19.0001 3.50021 19.0001H13.8707C13.7593 18.5856 13.7 18.1497 13.7 17.7C13.7 17.4625 13.7165 17.2288 13.7486 17.0001H4.00021V10.2832L11.0878 14.6144C11.6474 14.9572 12.353 14.9572 12.9135 14.6139L20.0002 10.2832V12.8708C20.1581 12.9132 20.3129 12.9631 20.4642 13.0202C19.9156 12.8133 19.3211 12.7001 18.7002 12.7001C15.9382 12.7001 13.7002 14.9381 13.7002 17.7001C13.7002 20.4611 15.9382 22.7001 18.7002 22.7001C21.4612 22.7001 23.7002 20.4611 23.7002 17.7001C23.7002 16.2031 23.0424 14.8599 22.0002 13.9437ZM20.0002 7.93928V7.00012H4.00021V7.93929L12.0002 12.8281L20.0002 7.93928ZM17.4152 20.3991C17.8062 20.5861 18.2382 20.7001 18.7002 20.7001C20.3542 20.7001 21.7002 19.3541 21.7002 17.7001C21.7002 17.2381 21.5862 16.8061 21.3992 16.4151L17.4152 20.3991ZM19.9852 15.0011C19.5942 14.8131 19.1612 14.7001 18.7002 14.7001C17.0462 14.7001 15.7002 16.0461 15.7002 17.7001C15.7002 18.1621 15.8132 18.5941 16.0012 18.9851L19.9852 15.0011Z" fill="#313234"/>
</svg>
