<svg width="24" height="24" viewBox="0 0 24 24" fill="none" xmlns="http://www.w3.org/2000/svg">
<path fill-rule="evenodd" clip-rule="evenodd" d="M3.5002 19.0001H13V17.0001H4.0002V10.2831L11.0878 14.6144C11.6474 14.9572 12.353 14.9572 12.9135 14.6139L21.5217 9.35339L21.4682 9.2659L22 9L22.0002 9.00119V6.5001C22.0002 5.67181 21.3285 5.0001 20.5002 5.0001H3.5002C2.67191 5.0001 2.0002 5.67181 2.0002 6.5001V17.5001C2.0002 18.3284 2.67191 19.0001 3.5002 19.0001ZM20.0002 7.93927L12.0002 12.8281L4.0002 7.93926V7.0001H20.0002V7.93927Z" fill="#313234"/>
<path fill-rule="evenodd" clip-rule="evenodd" d="M22 15.51L22.0255 15.5355L22 15.561V15.51ZM21.2255 14.7355L19.7628 13.2728L20.8941 12.1414L23.7226 14.9698C24.035 15.2823 24.035 15.7888 23.7226 16.1012L20.8941 18.9296L19.7628 17.7983L21.2255 16.3355H18C17.3373 16.3355 16.8 16.8728 16.8 17.5355V20H15.2V17.5355C15.2 15.9891 16.4536 14.7355 18 14.7355H21.2255Z" fill="#313234"/>
</svg>
