<svg width="24" height="24" viewBox="0 0 24 24" fill="none" xmlns="http://www.w3.org/2000/svg">
<path fill-rule="evenodd" clip-rule="evenodd" d="M20 17V18.7751C20 19.4196 20.7516 19.7424 21.1912 19.2867L23.7445 16.6395C24.0852 16.2863 24.0852 15.7137 23.7445 15.3605L21.1912 12.7133C20.7516 12.2576 20 12.5804 20 13.2249V15H18.9C16.1938 15 14 17.1938 14 19.9V20C14 20.5523 14.4477 21 15 21C15.5523 21 16 20.5523 16 20V19.9C16 18.2984 17.2984 17 18.9 17H20Z" fill="#313234"/>
<path fill-rule="evenodd" clip-rule="evenodd" d="M2.00129 9.55C1.99942 9.51318 1.99957 9.47614 2.00182 9.43906C2.01061 7.82012 2.06755 6.90754 2.43619 6.18404C2.81968 5.43139 3.4316 4.81947 4.18425 4.43597C5.0399 4 6.16 4 8.40021 4H15.6002C17.8404 4 18.9605 4 19.8162 4.43597C20.5688 4.81947 21.1807 5.43139 21.5642 6.18404C21.9329 6.90751 21.9898 7.82004 21.9986 9.43886C22.0009 9.47608 22.001 9.51325 21.9991 9.5502C21.9999 9.7316 22.0001 9.92167 22.0002 10.1211L13.3419 14.4472C12.4973 14.8695 11.5032 14.8695 10.6586 14.4472L4.00021 11.118V13.6C4.00021 14.7531 4.00177 15.4977 4.04807 16.0643C4.09246 16.6077 4.16781 16.8091 4.2182 16.908C4.40995 17.2843 4.71591 17.5903 5.09223 17.782C5.19112 17.8324 5.39256 17.9078 5.93589 17.9521C6.50256 17.9984 7.24711 18 8.40021 18H12.0002V20H8.40021C6.16 20 5.0399 20 4.18425 19.564C3.4316 19.1805 2.81968 18.5686 2.43619 17.816C2.00021 16.9603 2.00021 15.8402 2.00021 13.6V10.4C2.00021 10.0969 2.00021 9.81424 2.00129 9.55ZM15.6002 6H8.40021C7.24711 6 6.50256 6.00156 5.93589 6.04785C5.39256 6.09225 5.19112 6.1676 5.09223 6.21799C4.71591 6.40973 4.40995 6.71569 4.2182 7.09202C4.16781 7.19091 4.09246 7.39235 4.04807 7.93567C4.02613 8.20423 4.01423 8.51274 4.00779 8.88575L11.553 12.6584C11.8345 12.7991 12.1659 12.7991 12.4474 12.6584L19.9926 8.88576C19.9862 8.51274 19.9743 8.20423 19.9524 7.93567C19.908 7.39235 19.8326 7.19091 19.7822 7.09202C19.5905 6.71569 19.2845 6.40973 18.9082 6.21799C18.8093 6.1676 18.6079 6.09225 18.0645 6.04785C17.4979 6.00156 16.7533 6 15.6002 6Z" fill="#313234"/>
</svg>
