<svg width="24" height="24" viewBox="0 0 24 24" fill="none" xmlns="http://www.w3.org/2000/svg">
<path fill-rule="evenodd" clip-rule="evenodd" d="M12 19.0001H3.5002C2.67191 19.0001 2.0002 18.3284 2.0002 17.5001V6.5001C2.0002 5.67181 2.67191 5.0001 3.5002 5.0001H20.5002C21.3285 5.0001 22.0002 5.67181 22.0002 6.5001V9.06071L21.5316 9.34706L21.5217 9.35339L12.9135 14.6139C12.353 14.9572 11.6474 14.9572 11.0878 14.6144L4.0002 10.2831V17.0001H12V19.0001ZM12.0002 12.8281L20.0002 7.93927V7.0001H4.0002V7.93926L12.0002 12.8281ZM20 17.7751V16H18.9C17.2984 16 16 17.2984 16 18.9V19C16 19.5523 15.5523 20 15 20C14.4477 20 14 19.5523 14 19V18.9C14 16.1938 16.1938 14 18.9 14H20V12.2249C20 11.5804 20.7516 11.2576 21.1912 11.7133L23.7445 14.3605C24.0852 14.7137 24.0852 15.2863 23.7445 15.6395L21.1912 18.2866C20.7516 18.7424 20 18.4196 20 17.7751Z" fill="#313234"/>
</svg>
