<svg width="24" height="24" viewBox="0 0 24 24" fill="none" xmlns="http://www.w3.org/2000/svg">
<path d="M12.9109 17.2959L12.9736 17.3543L12.9548 17.3534C12.7622 17.2906 12.4516 17.2467 12.0028 17.2467C11.6164 17.2464 11.3316 17.2787 11.1359 17.3277L11.0455 17.3535C11.0142 17.3637 11.0208 17.3578 11.0538 17.3282C11.0657 17.3175 11.0812 17.3036 11.0996 17.2863C10.6977 17.6652 10.0648 17.6465 9.68596 17.2447C9.3071 16.8428 9.32574 16.2099 9.7276 15.8311C9.87931 15.6881 10.1095 15.555 10.4259 15.4519C10.8326 15.3194 11.3529 15.2462 12.0036 15.2467C12.6519 15.2467 13.1699 15.3198 13.5751 15.452C13.8915 15.5552 14.1218 15.6886 14.2736 15.8321C14.6749 16.2115 14.6926 16.8444 14.3132 17.2457C13.9374 17.6433 13.3128 17.6644 12.9109 17.2959Z" fill="#313234"/>
<path d="M9.44865 5.88603L9.42334 5.93511C9.35938 6.04671 9.21466 6.2353 8.97736 6.43499C8.48117 6.85254 7.79719 7.10812 6.85349 7.10812C6.3012 7.10812 5.85349 7.55583 5.85349 8.10812C5.85349 8.6604 6.3012 9.10812 6.85349 9.10812C8.27403 9.10812 9.41255 8.6827 10.2651 7.96525C10.7975 7.51722 11.1182 7.05408 11.2763 6.69821C11.5006 6.19352 11.2733 5.60257 10.7686 5.37829C10.2639 5.15401 9.67293 5.38133 9.44865 5.88603Z" fill="#313234"/>
<path d="M8.78628 13.9308C7.94128 13.9308 7.58728 13.3208 7.58728 11.8258C7.58728 10.3298 7.94128 9.71985 8.78628 9.71985C9.63128 9.71985 9.98428 10.3298 9.98428 11.8258C9.98428 13.3208 9.63128 13.9308 8.78628 13.9308Z" fill="#313234"/>
<path d="M14.015 11.8258C14.015 13.3208 14.368 13.9308 15.214 13.9308C16.059 13.9308 16.412 13.3208 16.412 11.8258C16.412 10.3298 16.059 9.71985 15.214 9.71985C14.368 9.71985 14.015 10.3298 14.015 11.8258Z" fill="#313234"/>
<path fill-rule="evenodd" clip-rule="evenodd" d="M19.4479 1.68298L22.1941 7.14845C22.7302 8.21683 22.5948 9.48651 21.8748 10.4127C21.9573 10.9297 22.0002 11.4599 22.0002 12.0001C22.0002 17.5221 17.5222 22.0001 12.0002 22.0001C6.47718 22.0001 2.00018 17.5221 2.00018 12.0001C2.00018 6.47812 6.47718 2.00012 12.0002 2.00012C14.3439 2.00012 16.4995 2.80678 18.2045 4.15754L19.4479 1.68298ZM19.9878 11.5518C19.996 11.7002 20.0002 11.8497 20.0002 12.0001C20.0002 16.4111 16.4112 20.0001 12.0002 20.0001C7.58818 20.0001 4.00018 16.4111 4.00018 12.0001C4.00018 7.58912 7.58818 4.00012 12.0002 4.00012C14.0219 4.00012 15.871 4.75408 17.2809 5.99558L16.7313 7.08951C16.0033 7.02371 15.4518 6.78686 15.0337 6.43499C14.7569 6.20202 14.606 5.98415 14.5624 5.88603L14.5089 5.78219C14.2542 5.35116 13.7111 5.17003 13.2425 5.37829C12.7378 5.60257 12.5105 6.19352 12.7347 6.69821C12.8929 7.05408 13.2136 7.51722 13.746 7.96525C14.4461 8.55445 15.3392 8.9467 16.4229 9.0681C16.5307 9.67228 16.8192 10.2447 17.2747 10.7002C18.0126 11.4372 19.0327 11.7211 19.9878 11.5518ZM19.447 5.74103L18.3301 7.96561C18.088 8.44804 18.1819 9.03073 18.5627 9.41147C19.051 9.89921 19.8448 9.89921 20.3327 9.41185C20.7138 9.03073 20.8077 8.44804 20.5659 7.96605L19.447 5.74103Z" fill="#313234"/>
</svg>
