<svg width="24" height="24" viewBox="0 0 24 24" fill="none" xmlns="http://www.w3.org/2000/svg">
<path d="M20.46 18.3V18.31C20.92 18.31 21.34 17.99 21.44 17.52C22.1485 14.1647 21.9662 11.5548 21.9411 11.1958L21.94 11.18C21.8 9.42 21.2 7.74 20.22 6.31C19.91 5.85 19.29 5.74 18.83 6.05C18.37 6.36 18.26 6.98 18.57 7.44C19.35 8.58 19.83 9.93 19.95 11.34C19.96 11.44 20.15 13.91 19.48 17.09C19.36 17.63 19.71 18.17 20.25 18.28C20.32 18.3 20.39 18.3 20.46 18.3Z" fill="#313234"/>
<path d="M1.89999 15.21C2.08999 15.37 2.31999 15.45 2.54999 15.45C2.82999 15.45 3.10999 15.33 3.30999 15.1C3.80999 14.5 3.99999 13.13 3.97999 12.48C3.87999 11.04 4.17999 9.6 4.83999 8.32C5.08999 7.83 4.89999 7.22 4.40999 6.97C3.91999 6.72 3.30999 6.91 3.05999 7.4C2.23999 9 1.85999 10.8 1.97999 12.56C1.98999 13.03 1.82999 13.7 1.77999 13.8C1.42999 14.22 1.47999 14.85 1.89999 15.21Z" fill="#313234"/>
<path d="M5.41999 5.72C5.61999 5.96 5.89999 6.08 6.18999 6.08L6.17999 6.06C6.39999 6.06 6.62999 5.99 6.81999 5.83C8.07999 4.78 9.60999 4.15 11.25 4.02C11.48 4 11.73 3.99 11.98 3.99C13.51 3.99 14.98 4.41 16.25 5.21C16.72 5.51 17.33 5.37 17.63 4.9C17.93 4.43 17.79 3.81 17.32 3.52C15.74 2.53 13.89 2 11.99 2C11.68 2 11.36 2.01 11.09 2.04C9.04999 2.2 7.12999 2.99 5.53999 4.31C5.11999 4.67 5.06999 5.3 5.41999 5.72Z" fill="#313234"/>
<path d="M15.53 22.06C15.67 22.14 15.83 22.17 15.98 22.17L15.99 22.18C16.35 22.18 16.7 21.98 16.88 21.63C17.45 20.5 17.92 19.29 18.26 18.01C18.4 17.47 18.08 16.92 17.55 16.78C17.01 16.64 16.46 16.96 16.32 17.49C16.01 18.63 15.6 19.72 15.09 20.72C14.84 21.21 15.04 21.81 15.53 22.06Z" fill="#313234"/>
<path d="M2.86999 18.16C3.06999 18.37 3.33999 18.47 3.59999 18.47C3.84999 18.47 4.09999 18.38 4.28999 18.2C4.47999 18.03 4.66999 17.86 4.87999 17.72C7.03763 16.2038 6.99433 12.7323 6.9902 12.4008L6.98999 12.38C6.95999 11.83 6.50999 11.41 5.94999 11.42C5.39999 11.44 4.96999 11.91 4.98999 12.46C5.01999 13.33 4.74999 15.36 3.72999 16.08C3.43999 16.28 3.16999 16.51 2.90999 16.75C2.50999 17.13 2.48999 17.76 2.86999 18.16Z" fill="#313234"/>
<path d="M17.82 15.16H17.9C18.42 15.16 18.86 14.77 18.9 14.25C19.04 12.65 18.95 11.55 18.94 11.43C18.63 7.77001 15.64 5.01001 11.98 5.01001C11.75 5.01001 11.52 5.02001 11.34 5.04001C9.10999 5.22001 7.09999 6.48001 5.93999 8.42001C5.65999 8.89001 5.81999 9.51001 6.28999 9.79001C6.75999 10.07 7.37999 9.91001 7.65999 9.44001C8.48999 8.06001 9.91999 7.16001 11.52 7.03001C11.66 7.01001 11.82 7.01001 11.98 7.01001C14.6 7.01001 16.73 8.98001 16.95 11.6C16.95 11.6039 16.9509 11.6168 16.9523 11.6382C16.9655 11.8362 17.0273 12.7627 16.91 14.08C16.86 14.63 17.27 15.11 17.82 15.16Z" fill="#313234"/>
<path d="M8.35999 22.33C8.06999 22.33 7.78999 22.21 7.58999 21.97C7.22999 21.55 7.28999 20.92 7.70999 20.56C8.16999 20.17 8.58999 19.73 8.95999 19.23C9.49999 18.51 9.93999 17.67 10.27 16.75C11.1012 14.4302 10.9702 12.2506 10.9605 12.0894L10.96 12.08C10.92 11.53 11.33 11.05 11.88 11C12.44 10.95 12.91 11.36 12.96 11.91C12.96 11.9171 12.9609 11.9346 12.9623 11.9619C12.9821 12.3549 13.1044 14.7731 12.16 17.41C11.76 18.53 11.22 19.54 10.56 20.42C10.1 21.04 9.56999 21.59 8.98999 22.08C8.79999 22.24 8.56999 22.31 8.34999 22.31L8.35999 22.33Z" fill="#313234"/>
<path d="M11.8748 22.9999C11.8798 23 11.8849 23 11.89 23H11.86C11.8649 23 11.8698 23 11.8748 22.9999Z" fill="#313234"/>
<path d="M11.26 22.78C11.4456 22.9265 11.6598 22.9967 11.8748 22.9999C12.1598 22.9956 12.4434 22.8659 12.64 22.63C16.41 17.97 15.95 11.93 15.93 11.67C15.75 9.58 14.05 8 11.96 8C11.84 8 11.72 8.01 11.6 8.02C9.41999 8.19 7.78999 10.12 7.95999 12.3C7.96999 12.34 8.17999 16.61 5.42999 18.53C5.22999 18.67 5.03999 18.83 4.86999 19.01C4.47999 19.4 4.48999 20.03 4.87999 20.42C5.27999 20.81 5.90999 20.8 6.29999 20.41C6.37999 20.32 6.47999 20.24 6.57999 20.17C10.221 17.6223 9.98389 12.4636 9.97051 12.1725C9.97019 12.1654 9.96999 12.16 9.96999 12.16C9.87999 11.06 10.7 10.1 11.79 10.01C12.91 9.91 13.87 10.73 13.96 11.84C13.98 12.06 14.38 17.33 11.11 21.37C10.76 21.8 10.83 22.43 11.26 22.78Z" fill="#313234"/>
</svg>
