<svg width="24" height="24" viewBox="0 0 24 24" fill="none" xmlns="http://www.w3.org/2000/svg">
<path fill-rule="evenodd" clip-rule="evenodd" d="M12.0006 7.41317L9.87858 9.53517L8.46458 8.12117L10.5866 5.99917L8.46458 3.87817L9.87858 2.46417L12.0006 4.58517L14.1216 2.46417L15.5356 3.87817L13.4146 5.99917L15.5356 8.12117L14.1216 9.53517L12.0006 7.41317ZM7 6.99997C7 6.44768 6.55228 5.99997 6 5.99997C5.44772 5.99997 5 6.44768 5 6.99997V18C5 20.2091 6.79086 22 9 22H15C17.2091 22 19 20.2091 19 18V6.99997C19 6.44768 18.5523 5.99997 18 5.99997C17.4477 5.99997 17 6.44768 17 6.99997V18C17 19.1045 16.1046 20 15 20H9C7.89543 20 7 19.1045 7 18V6.99997Z" fill="#313234"/>
</svg>
