<svg width="24" height="24" viewBox="0 0 24 24" fill="none" xmlns="http://www.w3.org/2000/svg">
<path fill-rule="evenodd" clip-rule="evenodd" d="M15.3335 19.2627C16.1525 17.5717 16.6315 15.2967 16.7385 12.9997H19.9305C19.5805 15.7877 17.7925 18.1287 15.3335 19.2627ZM4.06949 12.9997H7.26249C7.37049 15.2967 7.84949 17.5727 8.66849 19.2637C6.20849 18.1307 4.41949 15.7877 4.06949 12.9997ZM8.66849 4.7357C7.84949 6.4267 7.37049 8.7017 7.26249 10.9997H4.06949C4.41949 8.2107 6.20849 5.8687 8.66849 4.7357ZM9.26249 10.9997C9.46649 6.6967 10.9535 4.0007 12.0005 4.0007C13.0485 4.0007 14.5345 6.6967 14.7385 10.9997H9.26249ZM12.0005 19.9987C10.9535 19.9987 9.46649 17.3027 9.26249 12.9997H14.7385C14.5345 17.3027 13.0485 19.9987 12.0005 19.9987ZM19.9305 10.9997H16.7385C16.6315 8.7027 16.1525 6.4277 15.3335 4.7367C17.7925 5.8707 19.5805 8.2117 19.9305 10.9997ZM12.0005 1.9997C6.48549 1.9997 2.00049 6.4857 2.00049 11.9997C2.00049 17.5137 6.48549 21.9997 12.0005 21.9997C17.5145 21.9997 22.0005 17.5137 22.0005 11.9997C22.0005 6.4857 17.5145 1.9997 12.0005 1.9997Z" fill="#313234"/>
</svg>
