<svg width="24" height="24" viewBox="0 0 24 24" fill="none" xmlns="http://www.w3.org/2000/svg">
<path d="M12.0002 20.0001V22.0001C17.5142 22.0001 22.0002 17.5141 22.0002 12.0001C22.0002 6.48612 17.5142 2.00012 12.0002 2.00012C6.4862 2.00012 2.0002 6.48612 2.0002 12.0001H4.0002C4.0002 7.58912 7.5892 4.00012 12.0002 4.00012C16.4112 4.00012 20.0002 7.58912 20.0002 12.0001C20.0002 16.4111 16.4112 20.0001 12.0002 20.0001Z" fill="#313234"/>
<path d="M12.0002 9.99911C10.8962 9.99911 10.0002 10.8951 10.0002 11.9991C10.0002 12.1785 10.0238 12.3523 10.0681 12.5177L6.58578 16H4.91421C4.64899 16 4.39464 16.1054 4.2071 16.2929L1.92677 18.5732C1.76928 18.7307 1.88083 19 2.10355 19H5V21.8965C5 22.1192 5.26928 22.2307 5.42677 22.0732L7.7071 19.7929C7.89464 19.6054 8 19.351 8 19.0858V17.4142L11.4827 13.9315C11.6478 13.9756 11.8213 13.9991 12.0002 13.9991C13.1042 13.9991 14.0002 13.1041 14.0002 11.9991C14.0002 10.8951 13.1042 9.99911 12.0002 9.99911Z" fill="#313234"/>
</svg>
