<svg width="24" height="24" viewBox="0 0 24 24" fill="none" xmlns="http://www.w3.org/2000/svg">
<path fill-rule="evenodd" clip-rule="evenodd" d="M17.9961 10.2532C17.9961 6.94416 15.3051 4.25316 11.9961 4.25316C10.3721 4.25316 8.90906 4.91316 7.82906 5.96516L14.9961 13.1322V11.7532C14.9961 10.9262 15.6691 10.2532 16.4961 10.2532H17.9961ZM19.996 17.2532C19.996 17.4982 19.898 17.7142 19.752 17.8882L21.5416 19.6771C21.9323 20.0676 21.932 20.7012 21.5415 21.0917C21.1509 21.4823 20.5174 21.4826 20.1269 21.092L3.15706 4.12125C2.76657 3.73074 2.76658 3.09762 3.15708 2.70711C3.54753 2.31666 4.18057 2.3166 4.5711 2.70698L6.40902 4.54417C7.85002 3.12917 9.82102 2.25317 11.996 2.25317C16.407 2.25317 19.996 5.84217 19.996 10.2532V17.2532ZM5.99604 18.2532V19.2532C5.99604 19.8042 6.44504 20.2532 6.99604 20.2532H10.996C11.5483 20.2532 11.996 20.7009 11.996 21.2532C11.996 21.8055 11.5483 22.2532 10.996 22.2532H6.99604C5.34204 22.2532 3.99604 20.9072 3.99604 19.2532V10.2532C3.99604 9.11319 4.23904 8.03119 4.67104 7.04919L6.23104 8.60919C6.08104 9.13218 5.99604 9.68219 5.99604 10.2532H7.49604C8.32304 10.2532 8.99604 10.9262 8.99604 11.7532V16.7532C8.99604 17.5802 8.32304 18.2532 7.49604 18.2532H5.99604Z" fill="#313234"/>
</svg>
