<svg width="24" height="24" viewBox="0 0 24 24" fill="none" xmlns="http://www.w3.org/2000/svg">
<path fill-rule="evenodd" clip-rule="evenodd" d="M17.9961 10.2531C17.9961 6.9441 15.3051 4.2531 11.9961 4.2531C10.3721 4.2531 8.90906 4.9131 7.82906 5.9651L14.9961 13.1321V11.7531C14.9961 10.9261 15.6691 10.2531 16.4961 10.2531H17.9961ZM19.996 17.2531C19.996 17.4981 19.898 17.7141 19.752 17.8881L21.5416 19.677C21.9323 20.0675 21.932 20.7011 21.5415 21.0917C21.1509 21.4822 20.5174 21.4825 20.1269 21.092L3.15706 4.12119C2.76657 3.73068 2.76658 3.09755 3.15708 2.70705C3.54753 2.3166 4.18057 2.31654 4.5711 2.70691L6.40902 4.54411C7.85002 3.12911 9.82102 2.25311 11.996 2.25311C16.407 2.25311 19.996 5.84211 19.996 10.2531V17.2531ZM5.99604 18.2531V19.2531C5.99604 19.8041 6.44504 20.2531 6.99604 20.2531H10.996C11.5483 20.2531 11.996 20.7008 11.996 21.2531C11.996 21.8054 11.5483 22.2531 10.996 22.2531H6.99604C5.34204 22.2531 3.99604 20.9071 3.99604 19.2531V10.2531C3.99604 9.11312 4.23904 8.03112 4.67104 7.04912L6.23104 8.60912C6.08104 9.13212 5.99604 9.68212 5.99604 10.2531H7.49604C8.32304 10.2531 8.99604 10.9261 8.99604 11.7531V16.7531C8.99604 17.5801 8.32304 18.2531 7.49604 18.2531H5.99604Z" fill="#313234"/>
</svg>
