<svg width="24" height="24" viewBox="0 0 24 24" fill="none" xmlns="http://www.w3.org/2000/svg">
<path fill-rule="evenodd" clip-rule="evenodd" d="M12.0002 2.00012C17.5228 2.00012 22.0002 6.47717 22.0002 12.0001C22.0002 17.5231 17.5228 22.0001 12.0002 22.0001C6.47693 22.0001 2.00021 17.5234 2.00021 12.0001C2.00021 6.47684 6.47693 2.00012 12.0002 2.00012ZM12.8308 14.541H10.9299V13.8327C10.9299 12.6772 11.5552 11.5937 12.6017 10.9334C13.469 10.3872 13.9393 9.99399 13.9393 9.48576C13.9393 8.47231 12.9388 7.92506 11.9984 7.92506C10.9639 7.92506 10.0575 8.65439 10.0575 9.48576H8.15668C8.15668 7.60992 9.91546 6.02422 11.9984 6.02422C14.1524 6.02422 15.8401 7.54489 15.8401 9.48576C15.8401 11.1395 14.4475 12.0179 13.6151 12.5411C13.379 12.6902 12.8308 13.1144 12.8308 13.8327V14.541ZM11.9414 18.1723C11.2551 18.1723 10.6978 17.6161 10.6978 16.9288C10.6978 16.2415 11.2551 15.6852 11.9414 15.6852C12.6287 15.6852 13.1849 16.2415 13.1849 16.9288C13.1849 17.6161 12.6287 18.1723 11.9414 18.1723Z" fill="#313234"/>
</svg>
