<svg width="24" height="24" viewBox="0 0 24 24" fill="none" xmlns="http://www.w3.org/2000/svg">
<path d="M11 2.57734C11.6188 2.22007 12.3812 2.22007 13 2.57734L20 6.61879C20.6188 6.97605 21 7.63631 21 8.35084V16.4337C21 17.1483 20.6188 17.8085 20 18.1658L13 22.2072C12.3812 22.5645 11.6188 22.5645 11 22.2072L4 18.1658C3.3812 17.8085 3 17.1483 3 16.4337V8.35084C3 7.63631 3.3812 6.97605 4 6.61879L11 2.57734Z" fill="#313234"/>
<path fill-rule="evenodd" clip-rule="evenodd" d="M11.0002 13.765C11.0002 13.405 10.8067 13.0728 10.4935 12.8952L5.46894 10.0455C4.98491 9.77098 4.81817 9.15408 5.09801 8.6731C5.37352 8.19955 5.97882 8.03595 6.45537 8.30622L11.5067 11.1711C11.8127 11.3446 12.1874 11.3446 12.4934 11.1711L17.5399 8.30919C18.0164 8.03894 18.6217 8.20254 18.8972 8.67606C19.177 9.15705 19.0103 9.77398 18.5262 10.0485L13.5069 12.895C13.1937 13.0726 13.0002 13.4048 13.0002 13.7649V19.0003C13.0002 19.5526 12.5525 20.0003 12.0002 20.0003C11.4479 20.0003 11.0002 19.5526 11.0002 19.0003V13.765Z" fill="white"/>
</svg>
