<svg width="24" height="24" viewBox="0 0 24 24" fill="none" xmlns="http://www.w3.org/2000/svg">
<path fill-rule="evenodd" clip-rule="evenodd" d="M6.38534 6.30091C7.8731 4.83585 9.86958 3.99982 11.9999 3.99982C16.4176 3.99982 19.9999 7.5821 19.9999 11.9998C19.9999 16.4182 16.418 19.9998 11.9999 19.9998C7.5818 19.9998 3.99988 16.4182 3.99988 11.9998H1.99988C1.99988 17.5228 6.47726 21.9998 11.9999 21.9998C17.5225 21.9998 21.9999 17.5228 21.9999 11.9998C21.9999 6.47753 17.5222 1.99982 11.9999 1.99982C9.3336 1.99982 6.83033 3.05028 4.97122 4.88653L2.85418 2.76912C2.53918 2.45512 2.00018 2.67712 2.00018 3.12312V8.75012C2.00018 9.02612 2.22418 9.25012 2.50018 9.25012H8.12718C8.57218 9.25012 8.79518 8.71112 8.48018 8.39612L6.38534 6.30091ZM13.0002 7.00012C13.0002 6.44784 12.5525 6.00012 12.0002 6.00012C11.4479 6.00012 11.0002 6.44784 11.0002 7.00012V11.9271C11.0002 12.3024 11.2103 12.6462 11.5444 12.8172L14.7283 14.4475C15.2199 14.6992 15.8225 14.5047 16.0742 14.0131C16.3259 13.5215 16.1314 12.919 15.6398 12.6673L13.0002 11.3157V7.00012Z" fill="#313234"/>
</svg>
