<svg width="24" height="24" viewBox="0 0 24 24" fill="none" xmlns="http://www.w3.org/2000/svg">
<path d="M10.379 15.4139L12.7929 13H3.00012C2.44784 13 2.00012 12.5523 2.00012 12C2.00012 11.4477 2.44784 11 3.00012 11H12.7937L10.379 8.58534C9.9885 8.19482 9.9885 7.56165 10.379 7.17113C10.7695 6.7806 11.4027 6.7806 11.7932 7.17113L15.5611 10.939C16.1467 11.5245 16.1467 12.4747 15.5611 13.0602L11.7932 16.8281C11.4027 17.2187 10.7695 17.2187 10.379 16.8281C9.9885 16.4376 9.9885 15.8044 10.379 15.4139Z" fill="#313234"/>
<path d="M18 2.00003C20.2091 2.00003 22 3.79089 22 6.00003V18C22 20.2092 20.2091 22 18 22H13C12.4477 22 12 21.5523 12 21C12 20.4477 12.4477 20 13 20H18C19.1046 20 20 19.1046 20 18V6.00003C20 4.89546 19.1046 4.00003 18 4.00003H13C12.4477 4.00003 12 3.55232 12 3.00003C12 2.44775 12.4477 2.00003 13 2.00003H18Z" fill="#313234"/>
</svg>
