<svg width="24" height="24" viewBox="0 0 24 24" fill="none" xmlns="http://www.w3.org/2000/svg">
<path fill-rule="evenodd" clip-rule="evenodd" d="M12.0002 2.00012C17.5228 2.00012 22.0002 6.47717 22.0002 12.0001C22.0002 17.5231 17.5228 22.0001 12.0002 22.0001C6.47693 22.0001 2.00021 17.5234 2.00021 12.0001C2.00021 6.47684 6.47693 2.00012 12.0002 2.00012ZM12.0002 20.0001C16.4183 20.0001 20.0002 16.4185 20.0002 12.0001C20.0002 7.58177 16.4183 4.00012 12.0002 4.00012C7.5815 4.00012 4.00021 7.58141 4.00021 12.0001C4.00021 16.4188 7.5815 20.0001 12.0002 20.0001ZM12.0002 6.00012C12.8292 6.00012 13.5002 6.67112 13.5002 7.50012C13.5002 8.32812 12.8292 9.00012 12.0002 9.00012C11.1712 9.00012 10.5002 8.32812 10.5002 7.50012C10.5002 6.67112 11.1712 6.00012 12.0002 6.00012ZM13 18H11V10H13V18Z" fill="#313234"/>
</svg>
