<svg width="24" height="24" viewBox="0 0 24 24" fill="none" xmlns="http://www.w3.org/2000/svg">
<path fill-rule="evenodd" clip-rule="evenodd" d="M11.9997 9.00012C11.1717 9.00012 10.4997 8.32812 10.4997 7.50012C10.4997 6.67112 11.1717 6.00012 11.9997 6.00012C12.8287 6.00012 13.4997 6.67112 13.4997 7.50012C13.4997 8.32812 12.8287 9.00012 11.9997 9.00012ZM10.9997 18.0001H12.9997V10.0001H10.9997V18.0001ZM11.9997 2.00012C6.48569 2.00012 1.99969 6.48612 1.99969 12.0001C1.99969 17.5141 6.48569 22.0001 11.9997 22.0001C17.5147 22.0001 21.9997 17.5141 21.9997 12.0001C21.9997 6.48612 17.5147 2.00012 11.9997 2.00012Z" fill="#313234"/>
</svg>
