<svg width="24" height="24" viewBox="0 0 24 24" fill="none" xmlns="http://www.w3.org/2000/svg">
<path fill-rule="evenodd" clip-rule="evenodd" d="M13.6428 21H12V19H13.6C14.7366 19 15.5289 18.9992 16.1458 18.9488C16.7509 18.8994 17.0986 18.8072 17.362 18.673C17.9265 18.3854 18.3854 17.9265 18.673 17.362C18.8072 17.0986 18.8994 16.7509 18.9488 16.1458C18.9992 15.5289 19 14.7366 19 13.6L19 10.4C19 9.26339 18.9992 8.47108 18.9488 7.85424C18.8994 7.24907 18.8072 6.90138 18.673 6.63803C18.3854 6.07354 17.9265 5.6146 17.362 5.32698C17.0986 5.19279 16.7509 5.10062 16.1458 5.05118C15.5289 5.00078 14.7366 5 13.6 5L10.4 5C9.26339 5 8.47108 5.00078 7.85424 5.05118C7.24907 5.10062 6.90138 5.19279 6.63803 5.32698C6.07354 5.6146 5.6146 6.07354 5.32698 6.63803C5.19279 6.90138 5.10062 7.24907 5.05118 7.85424C5.00078 8.47108 5 9.26339 5 10.4L5 12H3L3 10.3572C2.99999 9.27339 2.99998 8.39925 3.05782 7.69137C3.11737 6.96252 3.24318 6.32234 3.54497 5.73005C4.02433 4.78924 4.78924 4.02433 5.73005 3.54497C6.32234 3.24318 6.96253 3.11737 7.69138 3.05782C8.39925 2.99998 9.27339 2.99999 10.3572 3L13.6428 3C14.7266 2.99999 15.6008 2.99998 16.3086 3.05782C17.0375 3.11737 17.6777 3.24318 18.27 3.54497C19.2108 4.02434 19.9757 4.78924 20.455 5.73005C20.7568 6.32234 20.8826 6.96253 20.9422 7.69138C21 8.39925 21 9.27341 21 10.3572V13.6428C21 14.7266 21 15.6007 20.9422 16.3086C20.8826 17.0375 20.7568 17.6777 20.455 18.27C19.9757 19.2108 19.2108 19.9757 18.27 20.455C17.6777 20.7568 17.0375 20.8826 16.3086 20.9422C15.6007 21 14.7266 21 13.6428 21Z" fill="#313234"/>
<path d="M13.9958 15.8412C13.9958 16.2047 13.9958 16.3864 13.9239 16.4706C13.8615 16.5436 13.768 16.5823 13.6722 16.5748C13.5619 16.5661 13.4334 16.4376 13.1764 16.1806L11.2332 14.2374L6.11711 19.3534C5.72658 19.744 5.09342 19.744 4.70289 19.3534C4.31237 18.9629 4.31237 18.3298 4.70289 17.9392L9.81896 12.8232L7.8152 10.8194C7.55818 10.5624 7.42966 10.4339 7.42097 10.3235C7.41344 10.2278 7.45219 10.1342 7.52522 10.0719C7.60937 10 7.79112 10 8.15461 10H12.9957C13.548 10 13.9957 10.4463 13.9957 10.9986C13.9958 12.4573 13.9958 15.0801 13.9958 15.8412Z" fill="#313234"/>
</svg>
