<svg width="24" height="24" viewBox="0 0 24 24" fill="none" xmlns="http://www.w3.org/2000/svg">
<path d="M12 4C17.5652 4 20 6.43478 20 8.17391C20 9.21739 19.3788 10.1217 18.6087 10.2609C17.913 10.4 16.5016 10.2408 15.8261 9.56522C15.4187 9.1578 15.3689 8.50687 15.3279 7.9704C15.2989 7.59088 15.2742 7.26864 15.1304 7.13044C14.7834 6.79687 13.5238 6.28571 12 6.28571C10.4762 6.28571 9.21661 6.79687 8.86957 7.13044C8.72578 7.26864 8.70114 7.59088 8.67212 7.9704C8.6311 8.50687 8.58133 9.1578 8.17392 9.56522C7.49837 10.2408 6.08696 10.4 5.39131 10.2609C4.62123 10.1217 4.00001 9.21739 4 8.17391C3.99999 6.43478 6.43478 4 12 4Z" fill="#313234"/>
<path fill-rule="evenodd" clip-rule="evenodd" d="M7.82843 11.1716C8.57857 10.4214 9.59599 10 10.6569 10H13.3431C14.404 10 15.4214 10.4214 16.1716 11.1716L19.1213 14.1213C19.6839 14.6839 20 15.447 20 16.2426V18C20 19.1046 19.1046 20 18 20H6C4.89543 20 4 19.1046 4 18V16.2426C4 15.447 4.31607 14.6839 4.87868 14.1213L7.82843 11.1716ZM14 15C14 16.1046 13.1046 17 12 17C10.8954 17 9.99999 16.1046 9.99999 15C9.99999 13.8954 10.8954 13 12 13C13.1046 13 14 13.8954 14 15Z" fill="#313234"/>
</svg>
