<svg width="24" height="24" viewBox="0 0 24 24" fill="none" xmlns="http://www.w3.org/2000/svg">
<path d="M12.9753 6.63342C12.5848 7.02394 11.9516 7.02394 11.5611 6.63342C11.1706 6.24289 11.1706 5.60973 11.5611 5.2192L13.2131 3.5672C15.3026 1.47768 18.6908 1.47768 20.7803 3.5672C22.8698 5.65673 22.8698 9.04489 20.7803 11.1344L17.4763 14.4384C15.3868 16.5279 11.9986 16.5279 9.9091 14.4384C9.51858 14.0479 9.51858 13.4147 9.9091 13.0242C10.2996 12.6337 10.9328 12.6337 11.3233 13.0242C12.6318 14.3327 14.7536 14.3327 16.0621 13.0242L19.3661 9.7202C20.6746 8.41173 20.6746 6.28989 19.3661 4.98142C18.0576 3.67294 15.9358 3.67294 14.6273 4.98142L12.9753 6.63342Z" fill="#313234"/>
<path d="M11.3722 17.7144C11.7627 17.3239 12.3959 17.3239 12.7864 17.7144C13.1769 18.1049 13.1769 18.7381 12.7864 19.1286L11.1344 20.7806C9.04489 22.8701 5.65673 22.8701 3.5672 20.7806C1.47768 18.6911 1.47768 15.3029 3.5672 13.2134L6.8712 9.90941C8.96073 7.81988 12.3489 7.81988 14.4384 9.90941C14.8289 10.2999 14.8289 10.9331 14.4384 11.3236C14.0479 11.7141 13.4147 11.7141 13.0242 11.3236C11.7157 10.0151 9.59389 10.0151 8.28542 11.3236L4.98142 14.6276C3.67294 15.9361 3.67294 18.0579 4.98142 19.3664C6.28989 20.6749 8.41173 20.6749 9.7202 19.3664L11.3722 17.7144Z" fill="#313234"/>
</svg>
