<svg width="24" height="24" viewBox="0 0 24 24" fill="none" xmlns="http://www.w3.org/2000/svg">
<path fill-rule="evenodd" clip-rule="evenodd" d="M11.9478 13.5051L18.0128 3.00012H20.3228L13.6798 14.5051C13.1388 15.4421 12.1268 15.9801 11.0458 15.9021C10.7518 15.8811 10.4768 16.0531 10.3288 16.3081L8.88778 18.8041L8.48678 19.5001C8.30778 19.8091 7.97778 20.0001 7.61978 20.0001H3.00178C2.23178 20.0001 1.75078 19.1671 2.13578 18.5001L4.19178 14.9381H4.19278L5.13378 13.3081C5.27978 13.0541 5.27878 12.7471 5.13178 12.4961C4.60778 11.5991 4.41478 10.5521 4.93478 9.65212L8.77478 3.00012H11.0848L6.75178 10.5051C6.60478 10.7591 6.60578 11.0651 6.75178 11.3161C7.27478 12.2171 7.46578 13.2681 6.94478 14.1701L6.42478 15.0721L8.15678 16.0721L8.59678 15.3081C9.13778 14.3711 10.1498 13.8331 11.2318 13.9111C11.5258 13.9321 11.7998 13.7611 11.9478 13.5051ZM9.34439 20.0003L11.0774 17.0003H19.3224V20.0003H9.34439Z" fill="#313234"/>
</svg>
