<svg width="24" height="24" viewBox="0 0 24 24" fill="none" xmlns="http://www.w3.org/2000/svg">
<path fill-rule="evenodd" clip-rule="evenodd" d="M15.414 15.0855L16.8549 16.5264C17.5751 15.5365 18 14.3179 18 13H20C20 14.8707 19.3579 16.5913 18.2822 17.9537L21.799 21.4705L20.3848 22.8847L2 4.49997L3.41421 3.08576L8 7.67154V6C8 3.79086 9.79086 2 12 2C14.2091 2 16 3.79086 16 6V13C16 13.7642 15.7857 14.4783 15.414 15.0855ZM14 13V6C14 4.89543 13.1046 4 12 4C10.8954 4 10 4.89543 10 6V9.67154L13.9132 13.5847C13.9696 13.3998 14 13.2034 14 13Z" fill="#313234"/>
<path d="M8 13V12L12.8987 16.8987C12.6098 16.965 12.309 17 12 17C9.79086 17 8 15.2091 8 13Z" fill="#313234"/>
<path d="M12 19C12.8804 19 13.7165 18.8104 14.4697 18.4697L15.9554 19.9554C15.0634 20.4637 14.0642 20.8054 13 20.9381V23H11V20.9381C7.05369 20.446 4 17.0796 4 13H6C6 16.3137 8.68629 19 12 19Z" fill="#313234"/>
</svg>
