<svg width="24" height="24" viewBox="0 0 24 24" fill="none" xmlns="http://www.w3.org/2000/svg">
<path fill-rule="evenodd" clip-rule="evenodd" d="M16.25 13.1871C19.7018 13.1871 22.5 10.7886 22.5 7.82992C22.5 4.87125 19.7018 2.47278 16.25 2.47278C12.7982 2.47278 10 4.87125 10 7.82992C10 9.62288 11.0276 11.2101 12.6055 12.1825C12.3941 12.8726 12.053 13.4993 11.8032 13.9048C11.689 14.0901 11.8347 14.3263 12.047 14.2782C12.6879 14.1332 13.7753 13.7925 14.7462 13.031C15.2279 13.133 15.7316 13.1871 16.25 13.1871ZM16.2503 8.72278C15.7595 8.72278 15.3571 8.32111 15.3571 7.82959C15.3571 7.33873 15.7595 6.93706 16.2503 6.93706C16.7418 6.93706 17.1435 7.33873 17.1435 7.82959C17.1435 8.32111 16.7418 8.72278 16.2503 8.72278ZM13.5718 8.72278C13.0809 8.72278 12.6786 8.32111 12.6786 7.82959C12.6786 7.33874 13.0809 6.93707 13.5718 6.93707C14.0633 6.93707 14.4649 7.33874 14.4649 7.82959C14.4649 8.32111 14.0633 8.72278 13.5718 8.72278ZM18.0357 7.82959C18.0357 8.32111 18.438 8.72278 18.9289 8.72278C19.4204 8.72278 19.8221 8.32111 19.8221 7.82959C19.8221 7.33873 19.4204 6.93706 18.9289 6.93706C18.438 6.93706 18.0357 7.33873 18.0357 7.82959ZM5.76101 18.239C1.44509 13.9231 1.44509 10.1466 2.79382 8.79791C3.60305 7.98868 4.78615 7.7691 5.49126 8.25842C6.13865 8.69001 7.10973 9.90808 7.10973 10.9559C7.10973 11.5878 6.64352 12.1312 6.25929 12.579C5.98747 12.8959 5.75668 13.1649 5.76101 13.3836C5.77146 13.9114 6.35187 15.2846 7.53361 16.4664C8.71535 17.6481 10.0886 18.2285 10.6164 18.239C10.8351 18.2433 11.1041 18.0125 11.4209 17.7407C11.8688 17.3565 12.4122 16.8902 13.0441 16.8902C14.0919 16.8902 15.31 17.8613 15.7416 18.5087C16.2309 19.2138 16.0113 20.3969 15.2021 21.2062C13.8534 22.5549 10.0769 22.5549 5.76101 18.239Z" fill="#313234"/>
</svg>
