<svg width="24" height="24" viewBox="0 0 24 24" fill="none" xmlns="http://www.w3.org/2000/svg">
<path fill-rule="evenodd" clip-rule="evenodd" d="M17.7152 18.7149H6.28915L6.29115 8.73291C6.29115 8.63891 6.32715 8.5279 6.37515 8.47591C7.32315 7.42691 8.29515 6.36791 9.26315 5.32691C9.31215 5.27491 9.40715 5.22791 9.46515 5.22791H17.7152V18.7149ZM20.0002 4.08892C20.0002 3.45892 19.4872 2.94592 18.8572 2.94592H8.96617C8.52717 2.94592 8.18517 3.09692 7.89017 3.42192L4.44617 7.17292C4.13917 7.50392 3.99717 7.86692 4.00017 8.31692C4.00317 8.74992 4.00417 19.7349 4.00417 19.8579C4.00417 20.4869 4.51717 20.9999 5.14617 20.9999H18.8572C19.4872 20.9999 20.0002 20.4869 20.0002 19.8579V4.08892ZM7.66036 9.98263C7.66036 10.4866 8.07035 10.8956 8.57436 10.8956H11.0434C11.5474 10.8956 11.9574 10.4866 11.9574 9.98263V7.51163C11.9574 7.00763 11.5474 6.59863 11.0434 6.59863C10.5394 6.59863 10.1294 7.00763 10.1294 7.51163V9.06863H8.57436C8.07035 9.06863 7.66036 9.47863 7.66036 9.98263Z" fill="#313234"/>
</svg>
