<svg width="24" height="24" viewBox="0 0 24 24" fill="none" xmlns="http://www.w3.org/2000/svg">
<path fill-rule="evenodd" clip-rule="evenodd" d="M4.50018 20.9997H11.7922C12.1898 20.9997 12.5723 20.8418 12.8533 20.5608L20.5613 12.8528C20.842 12.572 21.0002 12.1906 21.0002 11.7927V4.49969C21.0002 3.67237 20.3284 2.99969 19.5002 2.99969H4.50018C3.67193 2.99969 3.00018 3.67237 3.00018 4.49969V19.4997C3.00018 20.328 3.6719 20.9997 4.50018 20.9997ZM5.00018 18.9997V4.99969H19.0002V10.9997H12.5002C11.6719 10.9997 11.0002 11.6724 11.0002 12.4997V18.9997H5.00018ZM13.0002 17.5855L17.586 12.9997H13.0002V17.5855Z" fill="#313234"/>
</svg>
