<svg width="24" height="24" viewBox="0 0 24 24" fill="none" xmlns="http://www.w3.org/2000/svg">
<path fill-rule="evenodd" clip-rule="evenodd" d="M4.59911 12.5451C5.42128 11.2234 5.85724 9.69914 5.85724 8.14431C5.85724 4.75084 8.60814 2.00031 12.0022 2.00031C15.3955 2.00031 18.1462 4.75102 18.1462 8.14431C18.1462 9.69946 18.5824 11.2235 19.405 12.5446L21.7567 16.3196C22.2111 17.0512 21.6851 18.0003 20.8222 18.0003H16.002C16.0019 20.2095 14.2113 22.0001 12.002 22.0001C9.79282 22.0001 8.00214 20.2095 8.00204 18.0003H3.18124C2.31684 18.0003 1.79054 17.0476 2.24988 16.3163L4.59911 12.5451ZM10.002 18.0003C10.0021 19.1049 10.8974 20.0001 12.002 20.0001C13.1067 20.0001 14.0019 19.1049 14.002 18.0003H10.002ZM19.2014 16.0003L17.7074 13.6019C16.6872 11.9636 16.1462 10.0734 16.1462 8.14431C16.1462 5.85559 14.291 4.00031 12.0022 4.00031C9.71265 4.00031 7.85724 5.85547 7.85724 8.14431C7.85724 10.0728 7.31663 11.9629 6.29702 13.602L4.80304 16.0003H19.2014Z" fill="#313234"/>
</svg>
