<svg width="24" height="24" viewBox="0 0 24 24" fill="none" xmlns="http://www.w3.org/2000/svg">
<path fill-rule="evenodd" clip-rule="evenodd" d="M17.385 13.605L18.879 16.003H17.801L8.02796 6.22998C8.72296 4.91298 10.09 4.00298 11.68 4.00298C13.965 4.00298 15.825 5.86198 15.825 8.14798C15.825 10.078 16.364 11.965 17.385 13.605ZM4.25494 2.45699C3.86448 2.06653 3.23141 2.06653 2.84094 2.45699C2.45048 2.84746 2.45048 3.48053 2.84094 3.87099L19.8116 20.8416C20.2022 21.2323 20.8356 21.2321 21.2261 20.8413C21.6165 20.4507 21.6163 19.8175 21.2258 19.4271L19.8009 18.003H20.4999C20.8999 18.003 21.2679 17.786 21.4619 17.436C21.6549 17.087 21.6449 16.66 21.4329 16.321L19.0829 12.547C18.2599 11.226 17.8249 9.70399 17.8249 8.14799C17.8249 4.75899 15.0679 2.00299 11.6799 2.00299C9.54194 2.00299 7.66494 3.10599 6.56594 4.76799L4.25494 2.45699ZM13.6797 18.003C13.6797 19.106 12.7827 20.003 11.6797 20.003C10.5767 20.003 9.67974 19.106 9.67974 18.003H13.6797ZM4.27675 12.547L1.92675 16.321C1.71575 16.659 1.70375 17.086 1.89775 17.436C2.09175 17.786 2.45975 18.003 2.85975 18.003H7.67975C7.67975 20.209 9.47375 22.003 11.6798 22.003C13.8478 22.003 15.6088 20.267 15.6688 18.113L13.5588 16.003H4.48075L5.97375 13.605C6.69575 12.447 7.16275 11.162 7.38375 9.82799L5.54375 7.98699C5.54292 8.00946 5.54122 8.03158 5.53952 8.05372C5.53714 8.08479 5.53475 8.11588 5.53475 8.14799C5.53475 9.70499 5.09975 11.226 4.27675 12.547Z" fill="#313234"/>
</svg>
