<svg width="24" height="24" viewBox="0 0 24 24" fill="none" xmlns="http://www.w3.org/2000/svg">
<path d="M21 8.84118C21 9.20467 21 9.38642 20.9282 9.47058C20.8658 9.5436 20.7722 9.58235 20.6765 9.57482C20.5662 9.56613 20.4377 9.43762 20.1806 9.1806L18.2374 7.23739L13.1214 12.3535C12.7308 12.744 12.0977 12.744 11.7071 12.3535C11.3166 11.9629 11.3166 11.3298 11.7071 10.9392L16.8232 5.82318L14.8194 3.81942C14.5624 3.5624 14.4339 3.43388 14.4252 3.32354C14.4177 3.22781 14.4564 3.13425 14.5295 3.07188C14.6136 3.00001 14.7954 3.00001 15.1589 3.00001H20C20.5523 3.00001 21 3.44634 21 3.99862C21 5.45731 21 8.08006 21 8.84118Z" fill="#313234"/>
<path fill-rule="evenodd" clip-rule="evenodd" d="M10.3572 3L12 3V5H10.4C9.26341 5 8.4711 5.00078 7.85426 5.05118C7.24909 5.10062 6.9014 5.19279 6.63804 5.32698C6.07356 5.6146 5.61462 6.07354 5.327 6.63803C5.19281 6.90138 5.10064 7.24907 5.05119 7.85424C5.00079 8.47108 5.00002 9.26339 5.00002 10.4V13.6C5.00002 14.7366 5.00079 15.5289 5.05119 16.1458C5.10064 16.7509 5.19281 17.0986 5.327 17.362C5.61462 17.9265 6.07356 18.3854 6.63804 18.673C6.9014 18.8072 7.24909 18.8994 7.85426 18.9488C8.4711 18.9992 9.26341 19 10.4 19H13.6C14.7366 19 15.5289 18.9992 16.1458 18.9488C16.7509 18.8994 17.0986 18.8072 17.362 18.673C17.9265 18.3854 18.3854 17.9265 18.673 17.362C18.8072 17.0986 18.8994 16.7509 18.9488 16.1458C18.9992 15.5289 19 14.7366 19 13.6V12H21V13.6428C21 14.7266 21 15.6008 20.9422 16.3086C20.8826 17.0375 20.7568 17.6777 20.455 18.27C19.9757 19.2108 19.2108 19.9757 18.27 20.455C17.6777 20.7568 17.0375 20.8826 16.3086 20.9422C15.6008 21 14.7266 21 13.6428 21H10.3572C9.27341 21 8.39927 21 7.69139 20.9422C6.96254 20.8826 6.32235 20.7568 5.73006 20.455C4.78925 19.9757 4.02435 19.2108 3.54498 18.27C3.2432 17.6777 3.11738 17.0375 3.05783 16.3086C3 15.6007 3.00001 14.7266 3.00002 13.6428V10.3572C3.00001 9.27341 3 8.39926 3.05783 7.69138C3.11738 6.96253 3.2432 6.32234 3.54498 5.73005C4.02435 4.78924 4.78925 4.02433 5.73006 3.54497C6.32235 3.24318 6.96254 3.11737 7.69139 3.05782C8.39927 2.99998 9.27342 2.99999 10.3572 3Z" fill="#313234"/>
</svg>
