<svg width="24" height="24" viewBox="0 0 24 24" fill="none" xmlns="http://www.w3.org/2000/svg">
<path d="M18.7929 13L16.379 15.4139C15.9885 15.8044 15.9885 16.4376 16.379 16.8281C16.7695 17.2187 17.4027 17.2187 17.7932 16.8281L21.5611 13.0602C22.1467 12.4747 22.1467 11.5245 21.5611 10.939L17.7932 7.17113C17.4027 6.7806 16.7695 6.7806 16.379 7.17113C15.9885 7.56165 15.9885 8.19482 16.379 8.58534L18.7937 11H9.00012C8.44784 11 8.00012 11.4477 8.00012 12C8.00012 12.5523 8.44784 13 9.00012 13H18.7929Z" fill="#313234"/>
<path d="M2.00003 6.00003C2.00003 3.79089 3.79089 2.00003 6.00003 2.00003H11C11.5523 2.00003 12 2.44775 12 3.00003C12 3.55232 11.5523 4.00003 11 4.00003H6.00003C4.89546 4.00003 4.00003 4.89546 4.00003 6.00003V18C4.00003 19.1046 4.89546 20 6.00003 20H11C11.5523 20 12 20.4477 12 21C12 21.5523 11.5523 22 11 22H6.00003C3.79089 22 2.00003 20.2092 2.00003 18V6.00003Z" fill="#313234"/>
</svg>
