<svg width="24" height="24" viewBox="0 0 24 24" fill="none" xmlns="http://www.w3.org/2000/svg">
<path fill-rule="evenodd" clip-rule="evenodd" d="M5.00018 7.00012C6.10418 7.00012 7.00018 6.10412 7.00018 5.00012C7.00018 3.89612 6.10418 3.00012 5.00018 3.00012C3.89518 3.00012 3.00018 3.89612 3.00018 5.00012C3.00018 6.10412 3.89518 7.00012 5.00018 7.00012ZM3.00018 16.0001H4.00018V20.0001C4.00018 20.5524 4.4479 21.0001 5.00018 21.0001C5.55247 21.0001 6.00018 20.5524 6.00018 20.0001V16.0001H7.00018V9.00012C7.00018 8.44784 6.55247 8.00012 6.00018 8.00012H4.00018C3.4479 8.00012 3.00018 8.44784 3.00018 9.00012V16.0001ZM10 5.00003C10 5.55232 10.4477 6.00003 11 6.00003H20C20.5523 6.00003 21 5.55232 21 5.00003C21 4.44775 20.5523 4.00003 20 4.00003H11C10.4477 4.00003 10 4.44775 10 5.00003ZM10 12C10 12.5523 10.4477 13 11 13H20C20.5523 13 21 12.5523 21 12C21 11.4477 20.5523 11 20 11H11C10.4477 11 10 11.4477 10 12ZM11 20C10.4477 20 10 19.5523 10 19C10 18.4477 10.4477 18 11 18H20C20.5523 18 21 18.4477 21 19C21 19.5523 20.5523 20 20 20H11Z" fill="#313234"/>
</svg>
