<svg width="24" height="24" viewBox="0 0 24 24" fill="none" xmlns="http://www.w3.org/2000/svg">
<path fill-rule="evenodd" clip-rule="evenodd" d="M8.0002 5.00009C8.0002 6.10409 7.1042 7.00009 6.0002 7.00009C4.8952 7.00009 4.0002 6.10409 4.0002 5.00009C4.0002 3.89609 4.8952 3.00009 6.0002 3.00009C7.1042 3.00009 8.0002 3.89609 8.0002 5.00009ZM4.0002 16.0001H5.0002V20.0001C5.0002 20.5523 5.44791 21.0001 6.0002 21.0001C6.55248 21.0001 7.0002 20.5523 7.0002 20.0001V16.0001H8.0002V9.00006C8.0002 8.44778 7.55248 8.00006 7.0002 8.00006H5.0002C4.44791 8.00006 4.0002 8.44778 4.0002 9.00006V16.0001ZM10.0002 16.0001H11.0002V20.0001C11.0002 20.5523 11.4479 21.0001 12.0002 21.0001C12.5525 21.0001 13.0002 20.5523 13.0002 20.0001V16.0001H14.0002V9.00006C14.0002 8.44778 13.5525 8.00006 13.0002 8.00006H11.0002C10.4479 8.00006 10.0002 8.44778 10.0002 9.00006V16.0001ZM17.0002 16.0001H16.0002V9.00006C16.0002 8.44778 16.4479 8.00006 17.0002 8.00006H19.0002C19.5525 8.00006 20.0002 8.44778 20.0002 9.00006V16.0001H19.0002V20.0001C19.0002 20.5523 18.5525 21.0001 18.0002 21.0001C17.4479 21.0001 17.0002 20.5523 17.0002 20.0001V16.0001ZM12.0002 7.00009C13.1042 7.00009 14.0002 6.10409 14.0002 5.00009C14.0002 3.89609 13.1042 3.00009 12.0002 3.00009C10.8952 3.00009 10.0002 3.89609 10.0002 5.00009C10.0002 6.10409 10.8952 7.00009 12.0002 7.00009ZM20.0002 5.00009C20.0002 6.10409 19.1042 7.00009 18.0002 7.00009C16.8952 7.00009 16.0002 6.10409 16.0002 5.00009C16.0002 3.89609 16.8952 3.00009 18.0002 3.00009C19.1042 3.00009 20.0002 3.89609 20.0002 5.00009Z" fill="#313234"/>
</svg>
