<svg width="24" height="24" viewBox="0 0 24 24" fill="none" xmlns="http://www.w3.org/2000/svg">
<path fill-rule="evenodd" clip-rule="evenodd" d="M10.99 10.2001C11.8734 10.2001 12.59 9.48355 12.59 8.60012C12.59 7.71669 11.8734 7.00012 10.99 7.00012C10.1066 7.00012 9.38998 7.71669 9.38998 8.60012C9.38998 9.48355 10.1066 10.2001 10.99 10.2001ZM14.59 8.60012C14.59 10.5881 12.978 12.2001 10.99 12.2001C9.00198 12.2001 7.38998 10.5881 7.38998 8.60012C7.38998 6.61212 9.00198 5.00012 10.99 5.00012C12.978 5.00012 14.59 6.61212 14.59 8.60012ZM4.99798 20.6884L4.99815 20.685L4.99798 20.6884ZM5.33109 19.0001C6.15449 16.6703 8.37772 15.0001 10.9896 15.0001C13.6019 15.0001 15.8249 16.6702 16.6486 19.0001H5.33109ZM18.9792 20.5825C18.7616 16.3585 15.268 13.0001 10.9896 13.0001C6.71198 13.0001 3.21758 16.3585 3.00078 20.5825C2.98878 20.8089 3.17918 21.0001 3.40638 21.0001H18.5736C18.8008 21.0001 18.9904 20.8089 18.9792 20.5825ZM20.9067 9.72662C21.2712 10.0911 21.8621 10.0911 22.2266 9.72662C22.5911 9.36213 22.5911 8.77118 22.2266 8.40669L20.3199 6.49999L22.2266 4.59329C22.5911 4.2288 22.5911 3.63785 22.2266 3.27336C21.8621 2.90887 21.2712 2.90887 20.9067 3.27336L19 5.18006L17.0933 3.27336C16.7288 2.90887 16.1379 2.90887 15.7734 3.27336C15.4089 3.63784 15.4089 4.2288 15.7734 4.59329L17.6801 6.49999L15.7734 8.40669C15.4089 8.77118 15.4089 9.36213 15.7734 9.72662C16.1379 10.0911 16.7288 10.0911 17.0933 9.72662L19 7.81992L20.9067 9.72662Z" fill="#313234"/>
</svg>
