<svg width="24" height="24" viewBox="0 0 24 24" fill="none" xmlns="http://www.w3.org/2000/svg">
<path fill-rule="evenodd" clip-rule="evenodd" d="M17.9984 6.00009V3.00009H19.9984V6.00009H22.9984V8.00009H19.9984V11.0001H17.9984V8.00009H14.9984V6.00009H17.9984ZM14.614 8.59979C14.614 10.5878 13.002 12.1998 11.014 12.1998C9.02596 12.1998 7.41396 10.5878 7.41396 8.59979C7.41396 6.61179 9.02596 4.99979 11.014 4.99979C13.002 4.99979 14.614 6.61179 14.614 8.59979ZM3.03095 20.4761C3.30095 16.3021 6.77195 13.0001 11.014 13.0001C15.256 13.0001 18.727 16.3021 18.997 20.4761C19.015 20.7601 18.776 21.0001 18.491 21.0001H3.53695C3.25195 21.0001 3.01295 20.7601 3.03095 20.4761Z" fill="#313234"/>
</svg>
