<svg width="24" height="24" viewBox="0 0 24 24" fill="none" xmlns="http://www.w3.org/2000/svg">
<path fill-rule="evenodd" clip-rule="evenodd" d="M12.0002 2.00009C6.4769 2.00009 2.00018 6.47681 2.00018 12.0001C2.00018 17.5234 6.4769 22.0001 12.0002 22.0001C17.5228 22.0001 22.0002 17.523 22.0002 12.0001C22.0002 6.47714 17.5228 2.00009 12.0002 2.00009ZM12.0002 4.00009C16.4183 4.00009 20.0002 7.58174 20.0002 12.0001C20.0002 14.1688 19.1372 16.136 17.7359 17.5769C17.0801 15.1232 14.7515 13.296 12.0002 13.296C9.24875 13.296 6.92005 15.1234 6.2644 17.5772C4.8631 16.1363 4.00018 14.1691 4.00018 12.0001C4.00018 7.58138 7.58147 4.00009 12.0002 4.00009ZM12.0002 12.3018C13.4092 12.3018 14.5512 11.1588 14.5512 9.75079C14.5512 8.34179 13.4092 7.19879 12.0002 7.19879C10.5912 7.19879 9.44818 8.34179 9.44818 9.75079C9.44818 11.1588 10.5912 12.3018 12.0002 12.3018Z" fill="#313234"/>
</svg>
