<svg width="24" height="24" viewBox="0 0 24 24" fill="none" xmlns="http://www.w3.org/2000/svg">
<path fill-rule="evenodd" clip-rule="evenodd" d="M13.0003 12C12.448 12 12.0003 11.5523 12.0003 11V3.00001C12.0003 2.44772 12.4493 1.99474 12.9989 2.04947C17.7173 2.51941 21.4809 6.28297 21.9508 11.0014C22.0056 11.551 21.5526 12 21.0003 12H13.0003ZM12 20.0002C15.625 20.0002 18.841 17.4852 19.742 13.9932H21.79C21.7834 14.0269 21.7783 14.0609 21.7732 14.0949C21.7668 14.1377 21.7605 14.1804 21.751 14.2222C20.725 18.7282 16.624 22.0002 12 22.0002C6.486 22.0002 2 17.5142 2 12.0002C2 7.37724 5.271 3.27524 9.778 2.24924C9.81763 2.23961 9.85823 2.23416 9.89888 2.22869C9.93002 2.2245 9.9612 2.22031 9.992 2.21424V4.26224C6.508 5.16924 4 8.38124 4 12.0002C4 16.4112 7.589 20.0002 12 20.0002Z" fill="#313234"/>
</svg>
