<svg width="24" height="24" viewBox="0 0 24 24" fill="none" xmlns="http://www.w3.org/2000/svg">
<path d="M3.00004 2.49999C2.60952 2.89051 2.60952 3.52367 3.00004 3.9142L20.0858 21C20.4764 21.3905 21.1095 21.3905 21.5 21C21.8906 20.6095 21.8906 19.9763 21.5 19.5858L15.463 13.5487C15.5017 13.5022 15.5427 13.4573 15.5858 13.4142L17.1538 11.8462C17.3812 11.6188 17.6602 11.4495 17.9671 11.3529L19.7076 10.8046C21.1395 10.3536 21.5825 8.54439 20.5209 7.4828L16.5285 3.49038C15.4707 2.43259 13.6685 2.868 13.2104 4.29205L12.648 6.03999C12.5507 6.3423 12.3829 6.61711 12.1583 6.84166L10.5858 8.4142C10.5427 8.45733 10.4978 8.49829 10.4513 8.537L4.41426 2.49999C4.02373 2.10946 3.39057 2.10946 3.00004 2.49999Z" fill="#313234"/>
<path d="M5.39732 8.99998H6.08582L15 17.9142V18.7098C15 19.2175 14.8069 19.7062 14.4599 20.0768L14.3475 20.1968C13.9612 20.6093 13.3101 20.62 12.9105 20.2204L9.06619 16.3761L3.85322 21.5882C3.46273 21.9786 2.82968 21.9786 2.43922 21.5881C2.04874 21.1976 2.04874 20.5645 2.43922 20.1741L7.65219 14.9611L3.84439 11.1533C3.4698 10.7787 3.45233 10.177 3.80455 9.7813L3.90342 9.67022C4.28293 9.24387 4.82652 8.99998 5.39732 8.99998Z" fill="#313234"/>
</svg>
