<svg width="24" height="24" viewBox="0 0 24 24" fill="none" xmlns="http://www.w3.org/2000/svg">
<path fill-rule="evenodd" clip-rule="evenodd" d="M12.0002 20.0001C7.5892 20.0001 4.0002 16.4111 4.0002 12.0001C4.0002 7.58912 7.5892 4.00012 12.0002 4.00012C13.8462 4.00012 15.5422 4.63412 16.8972 5.68812L16.2072 6.37912C13.4562 4.31912 9.5302 4.53112 7.0302 7.03012L8.0912 8.09112C10.0042 6.17912 12.9782 5.97212 15.1312 7.45512L14.3682 8.21812C13.3772 7.59412 12.1772 7.37612 11.0022 7.64412C10.1852 7.83112 9.4372 8.24512 8.8412 8.84112L9.9012 9.90112C10.2972 9.50512 10.7942 9.23012 11.3362 9.10712C11.9982 8.95412 12.6642 9.05312 13.2542 9.33212L12.5122 10.0741C12.3482 10.0301 12.1782 9.99912 12.0002 9.99912C10.8962 9.99912 10.0002 10.8951 10.0002 11.9991C10.0002 13.1041 10.8962 13.9991 12.0002 13.9991C13.1042 13.9991 14.0002 13.1041 14.0002 11.9991C14.0002 11.8211 13.9692 11.6521 13.9262 11.4881L18.3122 7.10312C19.3662 8.45812 20.0002 10.1541 20.0002 12.0001C20.0002 16.4111 16.4112 20.0001 12.0002 20.0001ZM12.0002 2.00012C6.4862 2.00012 2.0002 6.48612 2.0002 12.0001C2.0002 17.5141 6.4862 22.0001 12.0002 22.0001C17.5142 22.0001 22.0002 17.5141 22.0002 12.0001C22.0002 6.48612 17.5142 2.00012 12.0002 2.00012Z" fill="#313234"/>
</svg>
