<svg width="24" height="24" viewBox="0 0 24 24" fill="none" xmlns="http://www.w3.org/2000/svg">
<path d="M14.6715 10.5357C14.281 10.1452 14.281 9.51215 14.6715 9.12169L15.7935 7.99969H4.00049V14.9997C4.00049 15.552 3.55277 15.9997 3.00049 15.9997C2.4482 15.9997 2.00049 15.552 2.00049 14.9997V6.99969C2.00049 6.44769 2.44749 5.99969 3.00049 5.99969H15.7935L14.6718 4.87859C14.2812 4.48821 14.2811 3.85508 14.6716 3.46459C15.062 3.07418 15.695 3.07418 16.0854 3.46459L18.5605 5.93969C19.1455 6.52469 19.1455 7.47569 18.5605 8.06069L16.0855 10.5357C15.695 10.9262 15.062 10.9262 14.6715 10.5357Z" fill="#313234"/>
<path d="M20.0002 9.00009C20.0002 8.44781 20.4479 8.00009 21.0002 8.00009C21.5525 8.00009 22.0002 8.44781 22.0002 9.00009V17.0001C22.0002 17.5521 21.5522 18.0001 21.0002 18.0001H8.20718L9.32847 19.122C9.7188 19.5125 9.71872 20.1455 9.32827 20.536C8.93776 20.9265 8.3046 20.9265 7.91408 20.536L5.43918 18.0611C4.85418 17.4761 4.85418 16.5241 5.43918 15.9391L7.91408 13.4642C8.3046 13.0737 8.93776 13.0737 9.32827 13.4642C9.71872 13.8546 9.7188 14.4876 9.32847 14.8782L8.20718 16.0001H20.0002V9.00009Z" fill="#313234"/>
</svg>
