<svg width="24" height="24" viewBox="0 0 24 24" fill="none" xmlns="http://www.w3.org/2000/svg">
<path fill-rule="evenodd" clip-rule="evenodd" d="M20.9186 5.01069L2.91895 5.01046C2.51794 5.00989 2.15508 5.24941 1.99895 5.61899C1.84146 5.9882 1.92039 6.4149 2.19802 6.70379L7.74779 12.4763L17.7176 7.45456L18.0686 8.06251L8.74519 14.2098L10.9214 21.9312C11.0307 22.3184 11.3609 22.6024 11.7599 22.6514C11.9807 22.6798 12.1991 22.6322 12.3836 22.5257C12.5326 22.4397 12.6604 22.3151 12.7501 22.1606L21.7846 6.51065C21.964 6.20149 21.9636 5.82071 21.7846 5.51067C21.6061 5.2015 21.2765 5.01071 20.9186 5.01069Z" fill="#313234"/>
</svg>
