<svg width="24" height="24" viewBox="0 0 24 24" fill="none" xmlns="http://www.w3.org/2000/svg">
<path fill-rule="evenodd" clip-rule="evenodd" d="M7.00018 12.0001C7.00018 9.23929 9.23852 7.00012 12.0002 7.00012C14.761 7.00012 17.0002 9.23929 17.0002 12.0001C17.0002 14.761 14.761 17.0001 12.0002 17.0001C9.23852 17.0001 7.00018 14.761 7.00018 12.0001ZM22.0002 13.5001V10.5001L19.7702 10.1281C19.5712 9.30612 19.2472 8.53412 18.8152 7.83212L20.1312 5.98912L18.0102 3.86812L16.1672 5.18512C15.4652 4.75312 14.6942 4.42912 13.8722 4.23012L13.5002 2.00012H10.5002L10.1282 4.23012C9.30618 4.42912 8.53418 4.75312 7.83218 5.18512L5.98918 3.86812L3.86818 5.98912L5.18418 7.83212C4.75318 8.53412 4.42818 9.30612 4.23018 10.1281L2.00018 10.5001V13.5001L4.23018 13.8721C4.42818 14.6941 4.75318 15.4661 5.18418 16.1681L3.86818 18.0111L5.98918 20.1321L7.83218 18.8151C8.53418 19.2461 9.30618 19.5711 10.1282 19.7701L10.5002 22.0001H13.5002L13.8722 19.7701C14.6942 19.5711 15.4652 19.2461 16.1672 18.8151L18.0102 20.1321L20.1312 18.0111L18.8152 16.1681C19.2472 15.4661 19.5712 14.6941 19.7702 13.8721L22.0002 13.5001Z" fill="#313234"/>
</svg>
