<svg width="24" height="24" viewBox="0 0 24 24" fill="none" xmlns="http://www.w3.org/2000/svg">
<path d="M15.0412 8.0001H18.7932L17.6713 9.12204C17.2808 9.51254 17.2808 10.1457 17.6713 10.5362C18.0617 10.9266 18.6947 10.9267 19.0853 10.5363L21.5612 8.0611C22.1452 7.4761 22.1452 6.5241 21.5612 5.9391L19.0853 3.46393C18.6947 3.07354 18.0617 3.07359 17.6713 3.46404C17.2808 3.85454 17.2808 4.48766 17.6713 4.87816L18.7932 6.0001H15.0412C14.0632 6.0001 13.1442 6.4791 12.5832 7.2801L6.7782 15.5731C6.5912 15.8401 6.2852 16.0001 5.9582 16.0001H3.0002C2.44792 16.0001 2.0002 16.4478 2.0002 17.0001C2.0002 17.5524 2.44792 18.0001 3.0002 18.0001H5.9582C6.9372 18.0001 7.8552 17.5221 8.4162 16.7201L14.2222 8.4261C14.4092 8.1591 14.7152 8.0001 15.0412 8.0001Z" fill="#313234"/>
<path d="M6.778 8.42639L8.364 10.6924L9.585 8.94839L8.416 7.27939C7.855 6.47839 6.937 6.00039 5.959 6.00039H3C2.44772 6.00039 2 6.4481 2 7.00039C2 7.55267 2.44772 8.00039 3 8.00039H5.959C6.285 8.00039 6.591 8.15939 6.778 8.42639Z" fill="#313234"/>
<path d="M17.6716 13.4644C18.0621 13.0739 18.6951 13.0739 19.0856 13.4644L21.5606 15.9394C22.1456 16.5244 22.1456 17.4754 21.5606 18.0604L19.0855 20.5355C18.6951 20.9259 18.0621 20.9259 17.6717 20.5355C17.2812 20.145 17.2813 19.5119 17.6719 19.1215L18.7936 18.0004H15.0416C14.0636 18.0004 13.1446 17.5214 12.5836 16.7204L11.4156 15.0514L12.6366 13.3074L14.2226 15.5734C14.4096 15.8404 14.7146 16.0004 15.0416 16.0004H18.7936L17.6716 14.8784C17.2811 14.4879 17.2811 13.8549 17.6716 13.4644Z" fill="#313234"/>
</svg>
