<svg width="24" height="24" viewBox="0 0 24 24" fill="none" xmlns="http://www.w3.org/2000/svg">
<path fill-rule="evenodd" clip-rule="evenodd" d="M6.34315 17.6569C3.21895 14.5327 3.21895 9.46735 6.34315 6.34315C6.73367 5.95263 6.73367 5.31947 6.34315 4.92894C5.95262 4.53842 5.31946 4.53842 4.92893 4.92894C1.02369 8.83418 1.02369 15.1658 4.92893 19.0711C5.31946 19.4616 5.95262 19.4616 6.34315 19.0711C6.73367 18.6806 6.73367 18.0474 6.34315 17.6569ZM9.17156 9.17158C7.60947 10.7337 7.60947 13.2663 9.17156 14.8284C9.56209 15.219 9.56209 15.8521 9.17156 16.2426C8.78104 16.6332 8.14787 16.6332 7.75735 16.2426C5.4142 13.8995 5.4142 10.1005 7.75735 7.75737C8.14787 7.36684 8.78104 7.36684 9.17156 7.75737C9.56209 8.14789 9.56209 8.78106 9.17156 9.17158ZM14 12C14 13.1046 13.1046 14 12 14C10.8954 14 10 13.1046 10 12C10 10.8954 10.8954 10 12 10C13.1046 10 14 10.8954 14 12ZM19.5 15.0001V14.5001C19.5 13.9478 19.0523 13.5001 18.5 13.5001C17.9477 13.5001 17.5 13.9478 17.5 14.5001V15.0001H19.5ZM21 15.0854V14.5001C21 13.1193 19.8807 12.0001 18.5 12.0001C17.1193 12.0001 16 13.1193 16 14.5001V15.0854C15.4174 15.2913 15 15.847 15 16.5001V19.5001C15 20.3285 15.6716 21.0001 16.5 21.0001H20.5C21.3284 21.0001 22 20.3285 22 19.5001V16.5001C22 15.847 21.5826 15.2913 21 15.0854ZM14.8284 7.75294C15.2189 7.36242 15.8521 7.36242 16.2426 7.75294C16.79 8.3003 17.2107 8.92908 17.503 9.60135C17.7233 10.1078 17.4912 10.6969 16.9847 10.9172C16.4782 11.1374 15.8891 10.9053 15.6689 10.3988C15.475 9.9529 15.1955 9.53422 14.8284 9.16716C14.4379 8.77663 14.4379 8.14347 14.8284 7.75294ZM19.0711 4.933C18.6805 4.54247 18.0474 4.54247 17.6568 4.933C17.2663 5.32352 17.2663 5.95669 17.6568 6.34721C18.7639 7.45429 19.4774 8.8024 19.8001 10.2218C19.9226 10.7603 20.4584 11.0976 20.997 10.9752C21.5355 10.8528 21.8728 10.3169 21.7504 9.77838C21.3465 8.00213 20.4525 6.31441 19.0711 4.933Z" fill="#313234"/>
</svg>
