<svg width="24" height="24" viewBox="0 0 24 24" fill="none" xmlns="http://www.w3.org/2000/svg">
<path fill-rule="evenodd" clip-rule="evenodd" d="M6.34315 17.6569C3.21895 14.5327 3.21895 9.46735 6.34315 6.34315C6.73367 5.95263 6.73367 5.31947 6.34315 4.92894C5.95262 4.53842 5.31946 4.53842 4.92893 4.92894C1.02369 8.83418 1.02369 15.1658 4.92893 19.0711C5.31946 19.4616 5.95262 19.4616 6.34315 19.0711C6.73367 18.6806 6.73367 18.0474 6.34315 17.6569ZM19.0711 4.92894C18.6805 4.53842 18.0474 4.53842 17.6569 4.92894C17.2663 5.31946 17.2663 5.95263 17.6569 6.34315C20.781 9.46735 20.781 14.5327 17.6569 17.6569C17.2663 18.0474 17.2663 18.6806 17.6569 19.0711C18.0474 19.4616 18.6805 19.4616 19.0711 19.0711C22.9763 15.1658 22.9763 8.83418 19.0711 4.92894ZM9.17156 9.17158C7.60947 10.7337 7.60947 13.2663 9.17156 14.8284C9.56209 15.219 9.56209 15.8521 9.17156 16.2426C8.78104 16.6332 8.14787 16.6332 7.75735 16.2426C5.4142 13.8995 5.4142 10.1005 7.75735 7.75737C8.14787 7.36684 8.78104 7.36684 9.17156 7.75737C9.56209 8.14789 9.56209 8.78106 9.17156 9.17158ZM14.8284 7.75737C15.2189 7.36684 15.8521 7.36684 16.2426 7.75737C18.5858 10.1005 18.5858 13.8995 16.2426 16.2426C15.8521 16.6332 15.2189 16.6332 14.8284 16.2426C14.4379 15.8521 14.4379 15.219 14.8284 14.8284C16.3905 13.2663 16.3905 10.7337 14.8284 9.17158C14.4379 8.78106 14.4379 8.14789 14.8284 7.75737ZM14 12C14 13.1046 13.1046 14 12 14C10.8954 14 10 13.1046 10 12C10 10.8954 10.8954 10 12 10C13.1046 10 14 10.8954 14 12Z" fill="#313234"/>
</svg>
