<svg width="24" height="24" viewBox="0 0 24 24" fill="none" xmlns="http://www.w3.org/2000/svg">
<path fill-rule="evenodd" clip-rule="evenodd" d="M7.05024 1.41421L2.8076 5.65685L1.39339 4.24264L5.63603 0L7.05024 1.41421ZM18.364 1.07884e-05L22.6066 4.24265L21.1924 5.65686L16.9497 1.41422L18.364 1.07884e-05ZM4 12.0208C4 16.4391 7.58172 20.0208 12 20.0208C16.4183 20.0208 20 16.4391 20 12.0208C20 7.60255 16.4183 4.02083 12 4.02083C7.58172 4.02083 4 7.60255 4 12.0208ZM12 2.02083C6.47715 2.02083 2 6.49798 2 12.0208C2 17.5437 6.47715 22.0208 12 22.0208C17.5228 22.0208 22 17.5437 22 12.0208C22 6.49798 17.5228 2.02083 12 2.02083ZM11 12.5593V6.02083H13V11.3364L16.5298 13.1437L15.6182 14.9239L11 12.5593Z" fill="#313234"/>
</svg>
