<svg width="24" height="24" viewBox="0 0 24 24" fill="none" xmlns="http://www.w3.org/2000/svg">
<path fill-rule="evenodd" clip-rule="evenodd" d="M12.002 18.4376L15.7432 21.1556C17.5288 22.4529 19.9308 20.7078 19.2479 18.6091L17.8195 14.2106L21.5607 11.4926C23.3453 10.1947 22.4285 7.37258 20.222 7.37258L15.5974 7.37172L14.168 2.97443C13.4872 0.875068 10.5167 0.875068 9.83573 2.97511L8.40649 7.37172L3.78178 7.37258C1.57541 7.37258 0.658615 10.1947 2.4428 11.4923L6.18448 14.2106L4.75587 18.6097C4.07313 20.7078 6.47511 22.4529 8.26076 21.1556L12.002 18.4376ZM12.5897 16.3926L12.002 15.9656L7.08521 19.5376C6.86707 19.696 6.57471 19.4836 6.65789 19.228L8.31107 14.1375L8.53545 13.4465L3.61873 9.87456C3.40112 9.7163 3.51277 9.37259 3.78197 9.37259L9.13315 9.37159L9.85944 9.37146L11.738 3.59274C11.8212 3.3361 12.1827 3.3361 12.2657 3.59206L13.92 8.68074L14.1445 9.37146L20.2218 9.37259C20.4912 9.37259 20.6028 9.7163 20.3848 9.87486L16.0562 13.0196L15.4685 13.4465L17.3459 19.2275C17.4292 19.4836 17.1369 19.696 16.9188 19.5376L12.5897 16.3926Z" fill="#313234"/>
</svg>
