<svg width="24" height="24" viewBox="0 0 24 24" fill="none" xmlns="http://www.w3.org/2000/svg">
<path fill-rule="evenodd" clip-rule="evenodd" d="M2.8077 4.21481C2.42371 3.82378 2.42589 3.19551 2.81422 2.80718C3.20475 2.41665 3.83791 2.41665 4.22844 2.80718L7.42129 6.00003H17V2.96571C17 2.60935 17.4308 2.43088 17.6828 2.68287L21.6464 6.64647C21.8417 6.84174 21.8417 7.15832 21.6464 7.35358L17.6828 11.3172C17.4308 11.5692 17 11.3907 17 11.0343V8.00003H9.42129L21.199 19.7777C21.5895 20.1683 21.5895 20.8014 21.199 21.192C20.8107 21.5803 20.1825 21.5825 19.7915 21.1986L2.8077 4.21481ZM13.1787 16H7.00002V12.9657C7.00002 12.6094 6.56916 12.4309 6.31717 12.6829L2.35357 16.6465C2.15831 16.8417 2.15831 17.1583 2.35357 17.3536L6.31717 21.3172C6.56916 21.5692 7.00002 21.3907 7.00002 21.0343V18H15.1787L13.1787 16Z" fill="#313234"/>
</svg>
