<svg width="24" height="24" viewBox="0 0 24 24" fill="none" xmlns="http://www.w3.org/2000/svg">
<path fill-rule="evenodd" clip-rule="evenodd" d="M10.0002 19.0001H19.0002V10.0001H16.0002H10.9182C10.8918 9.98145 10.866 9.96392 10.84 9.94633C10.8117 9.92719 10.7834 9.90797 10.7542 9.88712C11.9172 9.00312 12.7042 8.22612 12.7672 8.16212C12.9942 7.93712 13.0622 7.59712 12.9402 7.30112C12.8182 7.00512 12.5302 6.81312 12.2102 6.81312H10.4352V5.00012H8.85518V6.81312H6.23218V8.39312H10.0992C9.01218 9.25012 7.49318 10.2821 6.00018 10.7421L6.46518 12.2521C7.48218 11.9381 8.48618 11.4131 9.38518 10.8401C9.57318 10.9841 9.78218 11.1371 10.0002 11.2891V16.0001V19.0001ZM16.0002 8.00012H20.0002C20.5522 8.00012 21.0002 8.44812 21.0002 9.00012V20.0001C21.0002 20.5521 20.5522 21.0001 20.0002 21.0001H9.00018C8.44818 21.0001 8.00018 20.5521 8.00018 20.0001V16.0001H4.00018C3.44818 16.0001 3.00018 15.5521 3.00018 15.0001V4.00012C3.00018 3.44812 3.44818 3.00012 4.00018 3.00012H15.0002C15.5522 3.00012 16.0002 3.44812 16.0002 4.00012V8.00012ZM14.4465 13.1624L13.6935 15.0894H15.2085L14.4465 13.1624ZM10.8395 17.9874L13.8555 11.0124H15.1265L18.1605 17.9874H16.3595L15.7725 16.5104H13.1695L12.6025 17.9874H10.8395Z" fill="#313234"/>
</svg>
