<svg width="24" height="24" viewBox="0 0 24 24" fill="none" xmlns="http://www.w3.org/2000/svg">
<path fill-rule="evenodd" clip-rule="evenodd" d="M2.80771 4.21478C2.42371 3.82376 2.42588 3.19548 2.81422 2.80714C3.20475 2.41662 3.83791 2.41662 4.22844 2.80714L7.42129 6H17V2.96568C17 2.60932 17.4308 2.43085 17.6828 2.68284L21.6464 6.64644C21.8417 6.84171 21.8417 7.15829 21.6464 7.35355L17.6828 11.3172C17.4308 11.5691 17 11.3907 17 11.0343V8H9.42129L21.199 19.7777C21.5895 20.1682 21.5895 20.8014 21.199 21.1919C20.8107 21.5802 20.1825 21.5824 19.7915 21.1985L2.80771 4.21478ZM13.1787 16H7.00002V12.9657C7.00002 12.6093 6.56916 12.4309 6.31717 12.6828L2.35357 16.6464C2.15831 16.8417 2.15831 17.1583 2.35357 17.3536L6.31717 21.3172C6.56916 21.5691 7.00002 21.3907 7.00002 21.0343V18H15.1787L13.1787 16Z" fill="#313234"/>
</svg>
