<svg width="24" height="24" viewBox="0 0 24 24" fill="none" xmlns="http://www.w3.org/2000/svg">
<path fill-rule="evenodd" clip-rule="evenodd" d="M14.0002 4.00012H10.0002V5.00012H14.0002V4.00012ZM16.0002 5.00012H20.0002V7.00012H19V18C19 20.2092 17.2092 22 15 22H9.00003C6.79089 22 5.00003 20.2092 5.00003 18V7.00012H4.00024V5.00012H8.00024V3.50012C8.00024 2.67184 8.67196 2.00012 9.50024 2.00012H14.5002C15.3285 2.00012 16.0002 2.67184 16.0002 3.50012V5.00012ZM7.00003 18V7.00012H17V18C17 19.1046 16.1046 20 15 20H9.00003C7.89546 20 7.00003 19.1046 7.00003 18ZM9.00024 10.0001V17.0001H11.0002V10.0001H9.00024ZM13.0002 17.0001V10.0001H15.0002V17.0001H13.0002Z" fill="#313234"/>
</svg>
