<svg width="24" height="24" viewBox="0 0 24 24" fill="none" xmlns="http://www.w3.org/2000/svg">
<path fill-rule="evenodd" clip-rule="evenodd" d="M14.4847 19.6071C14.962 19.4513 15.5005 19.6462 15.7098 20.1026C15.9609 20.6502 15.7218 21.3041 15.1499 21.4937C13.5185 22.0348 11.7522 22.1498 9.97659 21.8004C5.88816 20.9958 2.81436 17.8084 2.13786 13.686C1.01724 6.85133 6.8513 1.01764 13.6856 2.13838C17.8978 2.82947 21.2631 6.25463 21.8869 10.4798C22.2102 12.6647 21.8313 14.8148 20.8344 16.69C20.1154 18.0411 18.4707 18.6122 17.0505 18.0351C16.2194 17.6988 15.5982 17.0182 15.3235 16.1975C14.3634 17.0686 13.1015 17.5981 11.7166 17.5981C8.69827 17.5981 6.26559 15.0846 6.26559 12.0001C6.26559 8.91487 8.69797 6.40208 11.7166 6.40208C13.0433 6.40208 14.2569 6.88772 15.2005 7.69408C15.3091 7.29413 15.6748 6.99998 16.1091 6.99998C16.629 6.99998 17.0505 7.42147 17.0505 7.9414V15.2402C17.0505 15.6538 17.4185 16.0265 17.8021 16.1818C18.2849 16.3779 18.837 16.1862 19.0687 15.7508C19.8659 14.2511 20.1689 12.5323 19.9084 10.7722C19.4115 7.40688 16.7147 4.66211 13.3619 4.11201C7.87749 3.21264 3.21222 7.87762 4.11148 13.3623C4.65304 16.6624 7.09545 19.195 10.3628 19.838C11.7846 20.1178 13.1884 20.0302 14.4847 19.6071ZM15.1676 12.0001C15.1676 13.994 13.6148 15.5981 11.7166 15.5981C9.81773 15.5981 8.26559 13.9944 8.26559 12.0001C8.26559 10.0051 9.81736 8.40208 11.7166 8.40208C13.6152 8.40208 15.1676 10.0055 15.1676 12.0001Z" fill="#313234"/>
</svg>
