<svg width="24" height="24" viewBox="0 0 24 24" fill="none" xmlns="http://www.w3.org/2000/svg">
<path fill-rule="evenodd" clip-rule="evenodd" d="M15.9982 8.00001V13.877L22.2532 20.132L20.8392 21.546L2.45421 3.16101L3.86821 1.74701L8.12121 6.00001H13.9982C15.1022 6.00001 15.9982 6.89601 15.9982 8.00001ZM2.00211 8.00011V16.0001C2.00211 17.1041 2.89811 18.0001 4.00211 18.0001H13.9981C14.5201 18.0001 14.9911 17.7951 15.3471 17.4681L3.89011 6.01111C2.83811 6.07011 2.00211 6.93411 2.00211 8.00011ZM21.1877 17.3497C21.5147 17.6127 21.9997 17.3787 21.9997 16.9597V7.03971C21.9997 6.62071 21.5147 6.38771 21.1877 6.64971L17.1877 9.84971C17.0687 9.94471 17.0007 10.0877 17.0007 10.2407V13.7597C17.0007 13.9117 17.0687 14.0547 17.1877 14.1507L21.1877 17.3497Z" fill="#313234"/>
</svg>
