<svg width="24" height="24" viewBox="0 0 24 24" fill="none" xmlns="http://www.w3.org/2000/svg">
<path d="M16.4157 13.547C16.4157 11.278 14.5767 9.43999 12.3087 9.43999C12.0747 9.43999 11.8467 9.46399 11.6237 9.50299L10.3937 8.27299C11.0167 8.12699 11.6547 8.04299 12.3087 8.04299C15.4316 8.04299 18.2977 9.71307 20.1399 12.5594C20.4399 13.0229 21.0416 13.2106 21.5289 12.9511C22.0164 12.6915 22.2041 12.083 21.9101 11.6155C19.7041 8.10787 16.1784 6.04299 12.3087 6.04299C11.0887 6.04299 9.91366 6.27699 8.79466 6.67399L4.57564 2.4541C4.1852 2.06359 3.5521 2.06355 3.16162 2.45403C2.77117 2.84447 2.77117 3.47751 3.1616 3.86796L20.1317 20.839C20.5221 21.2294 21.1552 21.2294 21.5457 20.839C21.9361 20.4485 21.9361 19.8155 21.5457 19.425L16.3527 14.232C16.3917 14.009 16.4157 13.781 16.4157 13.547Z" fill="#313234"/>
<path d="M8.20127 13.547C8.20127 15.816 10.0403 17.654 12.3083 17.654C13.2173 17.654 14.0493 17.35 14.7293 16.85L9.00527 11.127C8.50527 11.807 8.20127 12.638 8.20127 13.547Z" fill="#313234"/>
<path d="M3.08844 12.9507C2.60095 12.6911 2.41307 12.0828 2.70857 11.6162C3.60768 10.1965 4.73019 9.02476 5.99666 8.11858L7.42466 9.54558C6.29022 10.2994 5.28507 11.3152 4.47777 12.5595C4.17729 13.0226 3.57571 13.2102 3.08844 12.9507Z" fill="#313234"/>
</svg>
