<svg width="24" height="24" viewBox="0 0 24 24" fill="none" xmlns="http://www.w3.org/2000/svg">
<path fill-rule="evenodd" clip-rule="evenodd" d="M13.0138 1.99957H14.0138C14.5658 1.99957 15.0138 2.44757 15.0138 2.99957V20.9996C15.0138 21.5516 14.5658 21.9996 14.0138 21.9996H13.0138C12.7488 21.9996 12.4938 21.8946 12.3068 21.7066L7.59979 16.9996H3.01379C2.46179 16.9996 2.01379 16.5516 2.01379 15.9996V7.99957C2.01379 7.44757 2.46179 6.99957 3.01379 6.99957H7.59979L12.3068 2.29257C12.4938 2.10457 12.7488 1.99957 13.0138 1.99957ZM20.1139 5.70654L18.6999 7.12054C21.3899 9.81054 21.3899 14.1885 18.6999 16.8785L20.1139 18.2925C23.5839 14.8225 23.5839 9.17654 20.1139 5.70654ZM17.6974 8.12305L16.2834 9.53705C17.6414 10.895 17.6414 13.104 16.2834 14.462L17.6974 15.876C19.8354 13.739 19.8354 10.261 17.6974 8.12305Z" fill="#313234"/>
</svg>
