<svg width="24" height="24" viewBox="0 0 24 24" fill="none" xmlns="http://www.w3.org/2000/svg">
<path fill-rule="evenodd" clip-rule="evenodd" d="M12.9601 1.99957L12.8286 2.00825C12.6119 2.03697 12.4093 2.13619 12.253 2.29247L7.54498 6.99897L2.96008 6.99957C2.4078 6.99957 1.96008 7.44729 1.96008 7.99957V15.9996L1.96681 16.1162C2.02458 16.6135 2.44725 16.9996 2.96008 16.9996L7.54498 16.999L12.253 21.7067C12.4405 21.8942 12.6949 21.9996 12.9601 21.9996H13.9601C14.5124 21.9996 14.9601 21.5519 14.9601 20.9996V2.99957C14.9601 2.44729 14.5124 1.99957 13.9601 1.99957H12.9601ZM12.96 4.41296V19.585L8.6672 15.2925L8.56812 15.2056C8.39458 15.0727 8.18111 14.9996 7.96009 14.9996L3.95999 14.999V8.99896L7.96009 8.99956C8.22531 8.99956 8.47966 8.89421 8.6672 8.70667L12.96 4.41296ZM20.0603 5.70685C23.4676 9.11422 23.5345 14.5974 20.2607 18.0862L20.0603 18.2931L18.6461 16.8788C21.2793 14.2456 21.3391 10.0133 18.8256 7.30733L18.6461 7.12106L20.0603 5.70685ZM17.6438 8.12335C19.7249 10.2044 19.7827 13.5442 17.8172 15.6952L17.6438 15.8766L16.2296 14.4624C17.5405 13.1514 17.5873 11.0535 16.37 9.68639L16.2296 9.53757L17.6438 8.12335Z" fill="#313234"/>
</svg>
