<svg width="24" height="24" viewBox="0 0 24 24" fill="none" xmlns="http://www.w3.org/2000/svg">
<path fill-rule="evenodd" clip-rule="evenodd" d="M9.76819 7.647L13.0002 10.879V4.414L9.76819 7.647ZM15.0002 12.879L22.2532 20.132L20.8392 21.546H20.8382L2.4542 3.16101L3.8682 1.74701L8.3542 6.23301L12.2932 2.29301C12.4802 2.10601 12.7352 2.00001 13.0002 2.00001H14.0002C14.5522 2.00001 15.0002 2.44801 15.0002 3.00001V12.879ZM8.7072 15.293L13.0002 19.586V15.121L15.0002 17.121V21C15.0002 21.552 14.5522 22 14.0002 22H13.0002C12.7352 22 12.4802 21.895 12.2932 21.707L7.5862 17H3.0002C2.4482 17 2.0002 16.552 2.0002 16V8C2.0002 7.448 2.4482 7 3.0002 7H4.8792L6.8792 9H4.0002V15H8.0002C8.2652 15 8.5202 15.106 8.7072 15.293Z" fill="#313234"/>
</svg>
