<svg width="24" height="24" viewBox="0 0 24 24" fill="none" xmlns="http://www.w3.org/2000/svg">
<path fill-rule="evenodd" clip-rule="evenodd" d="M15.0001 12.8789L22.2531 20.1319L20.8391 21.5459L2.4541 3.16089L3.8681 1.74689L8.3541 6.23289L12.2931 2.29289C12.4811 2.10589 12.7351 1.99989 13.0001 1.99989H14.0001C14.5521 1.99989 15.0001 2.44789 15.0001 2.99989V12.8789ZM2.0002 8.00006C2.0002 7.44806 2.4482 7.00006 3.0002 7.00006H4.8792L15.0002 17.1211V21.0001C15.0002 21.5521 14.5522 22.0001 14.0002 22.0001H13.0002C12.7352 22.0001 12.4802 21.8951 12.2932 21.7071L7.5862 17.0001H3.0002C2.4482 17.0001 2.0002 16.5521 2.0002 16.0001V8.00006Z" fill="#313234"/>
</svg>
