<svg width="24" height="24" viewBox="0 0 24 24" fill="none" xmlns="http://www.w3.org/2000/svg">
<path fill-rule="evenodd" clip-rule="evenodd" d="M6.01888 15.007H16.9209C19.1699 15.007 20.9999 13.177 20.9999 10.927C20.9999 8.67701 19.1699 6.84701 16.9209 6.84701H15.7219L15.4329 6.35301C14.7129 5.12301 13.4479 4.39001 12.0489 4.39001C10.1159 4.39001 8.44988 5.84101 8.17188 7.76501L8.04888 8.62201H6.01888C4.35488 8.62201 2.99988 9.97701 2.99988 11.642V11.986C2.99988 13.652 4.35488 15.007 6.01888 15.007ZM16.9209 4.84701C20.2729 4.84701 22.9999 7.57401 22.9999 10.927C22.9999 14.153 20.4729 16.793 17.2949 16.988L14.7099 23.002L12.8719 22.213L15.1089 17.007H8.55788L5.98188 23.002L4.14388 22.213L6.38088 17.007H6.01888C3.25188 17.007 0.999878 14.755 0.999878 11.986V11.642C0.999878 8.87401 3.25188 6.62201 6.01888 6.62201H6.38188C7.12488 4.15701 9.42388 2.39001 12.0489 2.39001C13.9379 2.39001 15.7229 3.31901 16.8349 4.84701H16.9209ZM8.50818 22.2132L10.7452 17.0072H12.9222L10.3452 23.0022L8.50818 22.2132Z" fill="#313234"/>
</svg>
