<svg width="24" height="24" viewBox="0 0 24 24" fill="none" xmlns="http://www.w3.org/2000/svg">
<path fill-rule="evenodd" clip-rule="evenodd" d="M22.9999 10.927C22.9999 14.279 20.2729 17.007 16.9209 17.007V15.007C19.1699 15.007 20.9999 13.177 20.9999 10.927C20.9999 8.67701 19.1699 6.84701 16.9209 6.84701H15.7219L15.4329 6.35301C14.7129 5.12301 13.4479 4.39001 12.0489 4.39001C10.1169 4.39001 8.44988 5.84101 8.17188 7.76501L8.04888 8.62201H6.01988C4.35488 8.62201 2.99988 9.97701 2.99988 11.642V11.986C2.99988 13.652 4.35488 15.007 6.01988 15.007H8.00388V17.007H6.01988C3.25188 17.007 0.999878 14.755 0.999878 11.986V11.642C0.999878 8.87401 3.25188 6.62201 6.01988 6.62201H6.38288C7.12588 4.15701 9.42488 2.39001 12.0489 2.39001C13.9379 2.39001 15.7229 3.31901 16.8349 4.84701H16.9209C20.2729 4.84701 22.9999 7.57401 22.9999 10.927ZM13.5454 15.9923L16.0874 16.5803C16.3124 16.6333 16.3924 16.9113 16.2294 17.0753L10.1534 23.1683C9.93839 23.3843 9.57739 23.1703 9.66339 22.8773L10.8884 18.7093L8.34639 18.1213C8.12139 18.0683 8.04139 17.7903 8.20439 17.6263L14.2804 11.5333C14.4954 11.3173 14.8574 11.5313 14.7714 11.8243L13.5454 15.9923Z" fill="#313234"/>
</svg>
