<svg width="24" height="24" viewBox="0 0 24 24" fill="none" xmlns="http://www.w3.org/2000/svg">
<path fill-rule="evenodd" clip-rule="evenodd" d="M12.0031 4.87402C8.0631 4.87402 4.3581 6.40802 1.5721 9.19502L3.6931 11.316C5.9131 9.09702 8.8641 7.87402 12.0031 7.87402C15.1421 7.87402 18.0931 9.09702 20.3131 11.316L22.4341 9.19502C19.6481 6.40802 15.9431 4.87402 12.0031 4.87402ZM5.2975 12.9199L7.4185 15.0409C9.9455 12.5149 14.0595 12.5139 16.5875 15.0409L18.7085 12.9199C15.0105 9.2229 8.9945 9.2239 5.2975 12.9199ZM12.0025 19.6259L9.2155 16.8379C10.7555 15.2989 13.2515 15.2989 14.7905 16.8379L12.0025 19.6259Z" fill="#313234"/>
</svg>
