<svg width="24" height="24" viewBox="0 0 24 24" fill="none" xmlns="http://www.w3.org/2000/svg">
<path fill-rule="evenodd" clip-rule="evenodd" d="M12.2912 10.171C14.6232 10.237 16.9332 11.145 18.7082 12.92L16.8752 14.753L22.2532 20.132L20.8392 21.546L2.45421 3.16101L3.86821 1.74701L7.67221 5.55101C9.05921 5.12101 10.5092 4.87401 12.0032 4.87401C15.9432 4.87401 19.6472 6.40801 22.4342 9.19501L20.3122 11.316C18.0932 9.09701 15.1422 7.87401 12.0032 7.87401C11.3762 7.87401 10.7602 7.93401 10.1532 8.03201L12.2912 10.171ZM5.29721 12.9197C6.27821 11.9397 7.42421 11.2267 8.64521 10.7667L11.0952 13.2167C9.74921 13.4057 8.45121 14.0087 7.41821 15.0407L5.29721 12.9197ZM9.2155 16.838L12.0025 19.626L14.7905 16.838C13.2515 15.299 10.7555 15.299 9.2155 16.838ZM1.57291 9.1954C2.51591 8.2524 3.57091 7.4654 4.69791 6.8194L6.91891 9.0404C5.73991 9.6074 4.64591 10.3634 3.69391 11.3164L1.57291 9.1954Z" fill="#313234"/>
</svg>
