<svg width="24" height="24" viewBox="0 0 24 24" fill="none" xmlns="http://www.w3.org/2000/svg">
<path fill-rule="evenodd" clip-rule="evenodd" d="M12.0031 4.87408C8.0631 4.87408 4.3581 6.40808 1.5721 9.19508L3.6931 11.3161C5.9131 9.09708 8.8641 7.87408 12.0031 7.87408C15.1421 7.87408 18.0931 9.09708 20.3131 11.3161L22.4341 9.19508C19.6481 6.40808 15.9431 4.87408 12.0031 4.87408ZM5.2975 12.92L7.4185 15.041C9.9455 12.515 14.0595 12.514 16.5875 15.041L18.7085 12.92C15.0105 9.22296 8.9945 9.22396 5.2975 12.92ZM12.0025 19.626L9.2155 16.838C10.7555 15.299 13.2515 15.299 14.7905 16.838L12.0025 19.626Z" fill="#313234"/>
</svg>
