<svg width="24" height="24" viewBox="0 0 24 24" fill="none" xmlns="http://www.w3.org/2000/svg">
<path fill-rule="evenodd" clip-rule="evenodd" d="M4.00018 10.0001C4.00018 13.3091 6.69118 16.0001 10.0002 16.0001C13.3092 16.0001 16.0002 13.3091 16.0002 10.0001C16.0002 6.69111 13.3092 4.00011 10.0002 4.00011C6.69118 4.00011 4.00018 6.69111 4.00018 10.0001ZM21.7072 20.2931C22.0977 20.6836 22.0977 21.3166 21.7072 21.7071C21.3167 22.0976 20.6836 22.0976 20.2931 21.7072L14.8972 16.3121C13.5422 17.3661 11.8462 18.0001 10.0002 18.0001C5.58918 18.0001 2.00018 14.4111 2.00018 10.0001C2.00018 5.58912 5.58918 2.00012 10.0002 2.00012C14.4112 2.00012 18.0002 5.58912 18.0002 10.0001C18.0002 11.8461 17.3662 13.5421 16.3122 14.8971L21.7072 20.2931ZM9.00018 9.00012V6.00012H11.0002V9.00012H14.0002V11.0001H11.0002V14.0001H9.00018V11.0001H6.00018V9.00012H9.00018Z" fill="#313234"/>
</svg>
