<svg width="24" height="24" viewBox="0 0 24 24" fill="none" xmlns="http://www.w3.org/2000/svg">
<path fill-rule="evenodd" clip-rule="evenodd" d="M11 3C11 3.55228 11.4477 4 12 4C12.5523 4 13 3.55228 13 3V1C13 0.447715 12.5523 0 12 0C11.4477 0 11 0.447715 11 1V3ZM5.12132 5.53554C5.51184 5.92606 6.14501 5.92606 6.53553 5.53554C6.92606 5.14501 6.92606 4.51185 6.53553 4.12132L5.12132 2.70711C4.7308 2.31658 4.09763 2.31658 3.70711 2.70711C3.31658 3.09763 3.31658 3.7308 3.70711 4.12132L5.12132 5.53554ZM17.7071 5.53553C17.3166 5.14501 17.3166 4.51184 17.7071 4.12132L19.1213 2.70711C19.5118 2.31658 20.145 2.31658 20.5355 2.70711C20.9261 3.09763 20.9261 3.7308 20.5355 4.12132L19.1213 5.53553C18.7308 5.92606 18.0976 5.92606 17.7071 5.53553ZM7.00021 8.0001H17.0002C17.5522 8.0001 18.0002 8.4481 18.0002 9.0001V11.6671C18.0002 11.8831 17.9302 12.0931 17.8002 12.2671L15.2002 15.7331C15.0702 15.9061 15.0002 16.1171 15.0002 16.3331V21.0001C15.0002 21.5521 14.5522 22.0001 14.0002 22.0001H10.0002C9.44821 22.0001 9.00021 21.5521 9.00021 21.0001V16.3331C9.00021 16.1171 8.93021 15.9061 8.80021 15.7331L6.20021 12.2671C6.07021 12.0931 6.00021 11.8831 6.00021 11.6671V9.0001C6.00021 8.4481 6.44821 8.0001 7.00021 8.0001Z" fill="#313234"/>
</svg>
