<svg width="24" height="24" viewBox="0 0 24 24" fill="none" xmlns="http://www.w3.org/2000/svg">
<path d="M12.0002 20.0001V22.0001C17.5142 22.0001 22.0002 17.5141 22.0002 12.0001C22.0002 6.48611 17.5142 2.00011 12.0002 2.00011C6.4862 2.00011 2.0002 6.48611 2.0002 12.0001H4.0002C4.0002 7.58911 7.5892 4.00011 12.0002 4.00011C16.4112 4.00011 20.0002 7.58911 20.0002 12.0001C20.0002 16.4111 16.4112 20.0001 12.0002 20.0001Z" fill="#313234"/>
<path d="M12.0002 9.9991C10.8962 9.9991 10.0002 10.8951 10.0002 11.9991C10.0002 12.1785 10.0238 12.3523 10.0681 12.5177L6.58579 16H4.91421C4.649 16 4.39464 16.1054 4.20711 16.2929L1.92678 18.5732C1.76929 18.7307 1.88083 19 2.10355 19H5V21.8964C5 22.1192 5.26929 22.2307 5.42678 22.0732L7.70711 19.7929C7.89464 19.6054 8 19.351 8 19.0858V17.4142L11.4827 13.9315C11.6478 13.9756 11.8213 13.9991 12.0002 13.9991C13.1042 13.9991 14.0002 13.1041 14.0002 11.9991C14.0002 10.8951 13.1042 9.9991 12.0002 9.9991Z" fill="#313234"/>
</svg>
