<svg width="24" height="24" viewBox="0 0 24 24" fill="none" xmlns="http://www.w3.org/2000/svg">
<path fill-rule="evenodd" clip-rule="evenodd" d="M20 17H4V7H20V17ZM3.5 5H20.5C21.327 5 22 5.673 22 6.5V17.5C22 18.327 21.327 19 20.5 19H3.5C2.673 19 2 18.327 2 17.5V6.5C2 5.673 2.673 5 3.5 5ZM8 10H6V8H8V10ZM16 10H18V8H16V10ZM11.333 10H9.33301V8H11.333V10ZM12.666 10H14.666V8H12.666V10ZM8 13H6V11H8V13ZM16 13H18V11H16V13ZM11.333 13H9.33301V11H11.333V13ZM12.666 13H14.666V11H12.666V13ZM16 16H8V14.02H16V16Z" fill="#313234"/>
</svg>
