<svg width="24" height="24" viewBox="0 0 24 24" fill="none" xmlns="http://www.w3.org/2000/svg">
<path d="M15.0412 8.00013H18.7932L17.6713 9.12208C17.2808 9.51257 17.2808 10.1457 17.6713 10.5362C18.0617 10.9266 18.6947 10.9267 19.0853 10.5363L21.5612 8.06113C22.1452 7.47613 22.1452 6.52413 21.5612 5.93913L19.0853 3.46396C18.6947 3.07357 18.0617 3.07362 17.6713 3.46408C17.2808 3.85457 17.2808 4.48769 17.6713 4.87819L18.7932 6.00013H15.0412C14.0632 6.00013 13.1442 6.47913 12.5832 7.28013L6.7782 15.5731C6.5912 15.8401 6.2852 16.0001 5.9582 16.0001H3.0002C2.44792 16.0001 2.0002 16.4478 2.0002 17.0001C2.0002 17.5524 2.44792 18.0001 3.0002 18.0001H5.9582C6.9372 18.0001 7.8552 17.5221 8.4162 16.7201L14.2222 8.42613C14.4092 8.15913 14.7152 8.00013 15.0412 8.00013Z" fill="#313234"/>
<path d="M6.778 8.42642L8.364 10.6924L9.585 8.94842L8.416 7.27942C7.855 6.47842 6.937 6.00042 5.959 6.00042H3C2.44772 6.00042 2 6.44813 2 7.00042C2 7.5527 2.44772 8.00042 3 8.00042H5.959C6.285 8.00042 6.591 8.15942 6.778 8.42642Z" fill="#313234"/>
<path d="M17.6716 13.4644C18.0621 13.074 18.6951 13.074 19.0856 13.4644L21.5606 15.9394C22.1456 16.5244 22.1456 17.4754 21.5606 18.0604L19.0855 20.5355C18.6951 20.9259 18.0621 20.9259 17.6717 20.5355C17.2812 20.145 17.2813 19.5119 17.6719 19.1215L18.7936 18.0004H15.0416C14.0636 18.0004 13.1446 17.5214 12.5836 16.7204L11.4156 15.0514L12.6366 13.3074L14.2226 15.5734C14.4096 15.8404 14.7146 16.0004 15.0416 16.0004H18.7936L17.6716 14.8784C17.2811 14.488 17.2811 13.8549 17.6716 13.4644Z" fill="#313234"/>
</svg>
